<svg width="100" height="100" fill="none" xmlns="http://www.w3.org/2000/svg"><g clip-path="url(#clip0)" fill="#FBCB09"><path d="M22.592 94.342c-.329.494.165.494.165.658.329-.823-.33-.658-.165-.658zm2.139-8.392l.165.165-.165-1.316v1.152zm-.329-7.897c-.329.493 0 1.151.165 1.81.164.822.493 1.645.329 2.303l-.165.165.494.658c0-.494 0-.823-.165-1.317-.164-.493-.164-.987-.329-1.316-.164-.822-.329-1.645-.329-2.303zm.329-4.443c-.164.33-.493-.822.165.988v-.165c0-.164-.165-.493-.165-.822zm.165.823c.329.823 0-.658 0 0zm-1.481-3.619l.658.987c0-.33-.329-1.152 0-.823-.658-1.152-.658-.822-.658-.164zm-.823-.659l.33.494c0-.165 0-.33-.33-.494zm.988 1.481l-.659-.987c0 .165-.164.329.33.493-.33-.164 0 0 .328.494zm.164.658c.165.659.33 1.317-.329.494.658 1.81 1.152 1.316.33-.494zm-.164 5.594v.823l.329.658c-.165-.493-.165-1.645-.33-1.48zm-2.798-13.327c-.164 0-.164.494-.329.659l.494.658c0-.33-.33-1.152-.165-1.317zm-.329.659l-.822-.988c.658.988.822 1.152.822.988zm1.317 4.935s.329.33.658.823c.329.329.658.823.658.823l-.658-.988c-.33-.493-.658-.987-.658-.987v.33zm-3.291-9.378l.658.329-1.152-.823.494.494zm-1.645-2.468c.493.329 0-.823.493-.494-.493-.658-.987-.987-1.48-1.48.329.493.658 1.151.987 1.974zm-1.81-2.633c.164.33.493.494.658.658l-.658-.658zm3.784 6.911c0-.165.165-.33-.165-.987l-.164.658c.165 0 .165.164.329.329zm-.329-.329c-.33-.494-.494-.823-.494-.823.165 0 .33.33.494.823zm2.303 4.936c-.493-.494-1.48-1.645-.987-.33.494.495.33-.328.987.33zm-2.139-3.784l.494 1.151s.165-.329.33-.164l-.823-.987z"/><path d="M18.314 62.916l.33.494-.165-.33-.165-.164zm-2.468-5.266c-.493-.328-.822-.822-1.151-1.316.329.659.658 1.317.987 1.81.164 0 .493.165.164-.493zm1.317 2.14c-.165 0-.165 0 0 0-.165 0-.165.164 0 0zm-1.481-1.481c.164.494.493.658.658.823-.165-.33-.494-.658-.658-.823-.165-.165 0-.165 0 0zm-1.81-3.949c0 .33.165.494.33.823 0-.164-.165-.823-.33-.823zm3.126 5.265c-.164-.329-.329-.329-.658-.493.165.329.33.493.658.658v-.165zm-8.72-9.049c.329 0 1.316.987 1.48 2.139.823.822 1.482-.33 1.646-1.646-.165 0-.329.165-.987-.822 0 .493.822 2.468 0 1.81-.987-1.317-.494-1.152-.658-1.975-.165.987-1.481-1.316-1.975-.658l.823 1.152s-.494-.33-.33 0zm4.278 2.468l.329.329c-.165-.494-.33-.987-.494-1.645-.658-.494-.822-.659-.987-.659 0 0 .33.494.494.987.493.659.658 1.152.658.988zm1.316 2.303c-.494-.164-1.316-.987-1.316-.164.822 1.152.822.658 1.48 1.316-1.316-1.974.494.33-.164-1.152.33.33.494.659.658.988-.164-.33-.329-.823-.493-1.152 0 .164 0 .164 0 0 0 .164 0 .164-.165.164-.329-.658 0-.164.165 0l-1.317-1.81c.33.33.658.823 1.152 1.81zm4.607 10.859c-.165-.164-.165-.164 0 0z"/><path d="M18.15 65.384c.165.165.329.165.494.658.164.494-.165.165-.33.165.33.164.823.822.494-.165v-.164c-.329-.823-.494-2.14-.329-2.14-.165.494-.33.823-.33 1.646zm-2.139-5.101l-1.152-1.48.33.987.164-.165c.329.988.329.658.658.658zm-4.442-9.543h.493l-1.152-.658.659.658zm-1.317-2.138h.494l-.494-.494v.494zM63.068 6.81l.493-.164c-.164 0-.493.164-.493.164zM58.79 7.961v.165c.164 0 .164-.165 0-.165zM35.92 28.528c0 .823-.33 1.646.164 1.481l.33-.329c-.494-.494-.494-.823-.494-1.152zm.658 5.101l-.165.164c0 .165.165.494.165.659-.165-.33-.165-.659 0-.823zm-1.317-1.317l.659-.987c-.165.33-.494.658-.659.987zm51.17-21.224h.824c-.823-.494-.659 0-.823 0zM9.594 26.719c.494-.33.987-.659 1.152-.988-.658.33-1.316.494-1.152.988zM62.41 11.417c.329-.165.493-.33.329-.33-.165.165-.33.165-.33.33zM12.062 24.415c-.164 0-.164.165-.329.165l-.987.987c.493-.165 1.152-.494 1.316-1.152zm19.58 58.245c.164-.164.493-.329.822-.493-.164 0-.493.164-.822.493zM6.303 42.514c0-.165-.164-.165-.164-.165l.164.165zm.987-2.139v.494c.165-.165.165-.165 0-.494zm-.164-1.316c0 .329 0 .493.165.822v-.164c0-.165-.165-.33-.165-.658zm82.432 8.226c-.165 0-.165.165 0 0-.33.658-.33.494 0 0zM40.197 43.83v-1.152c0-.329.165-.658.33-.822 0 0-.33.164-.659.164s-.658.164-.658.164 0 .165.165.33c.164.164.164.329.329.658.329.164.493.658.493.658z"/><path d="M73.598 6.152l-1.481-.494c1.81-.493 3.126 0 1.81-.658-.165.658-1.646.494-3.126.494-1.481 0-2.962.164-2.962.658 0 0-.164 0-.493-.165-.165 0-.494-.164-.494-.164.329 0 .329-.165.658-.165-.987-.329-1.316 0-1.645.33-.33.328-.823.657-1.975.822-.822 0-1.48 0-.987-.33 0 0-.164 0-.329.165-.164 0-.329.165-.658.33a6.917 6.917 0 00-.823.328c-.493.165-.493-.164 0-.164 0 0-.164 0-.493.164-.33 0-.659.165-.988.33-.164.329-.822.658-.822.658-.33.329-.987.987-1.316 1.151-.659.165.329-.329 0-.329 0 0-.33.165-.659.494l-.658.329c-.658 0 .33-.823 1.317-1.152-.988-.329-1.152-.164-1.646.165s-.987.822-2.632 1.316c0 0 .329-.165.658-.494l.658-.329c-.658-.164-1.152 0-1.645.33-.659.164-1.317.493-2.14.822.494 0 3.456-.658 2.14.33-.494.164-.988.493-1.646 1.151-.329-.33-.987.165-1.81.823l-.329-.494c-.822.823-.658.987-.987 1.645-1.152.823-1.645.659-2.139.494-1.645 1.316 1.645-.494-.164 1.316-1.481.987-2.14 2.14-3.291 3.949-.987.823-.165-.329-.494-.165l-.329 1.152c-.164.165-.164 0-.329 0-.329.823.33.33-.329 1.646.165.329-.494.822-1.152 1.48-.658.659-1.48 1.481-1.645 2.468-.329.33-.164-.329-.494-.329-.493 1.152-.493 1.646-.658 2.14-.164.493-.164.822-.329 1.974 0 0-.329.329-.493.658-.33.329-.494.658-.494.658.987-.987.658.658.658 2.139.33-.33.658-.494.823-.823l-.33.987v1.152c-.164.165-.328 0-.328-.493v.493c-.494.658-.658.165-.823-.493l.658-.659c-.164-.658-.329-1.316-.658-1.316 0 .165 0 .494-.165.658 0-.164-.164-.329-.164-.164-.165 0 0 .329 0 .658l-.823.164.165.165-.658 1.316-.658 1.316c0 2.14.493 4.114.164 7.404-.329-.822-.823-.329-1.316-.493.823-.658.329-2.468.823-4.113-.33.822-.494.658-.494.329 0 0 0 .822-.165 1.48v1.481c-.493-.164-.493.494-.822 1.317.987-.33.164 2.303.329 3.62-.33 0-.658-.33-.33-1.81-.986 1.48.823 2.303 0 3.784 0-.33.165-.494 0-.658v1.151l-.328 2.797 2.139-1.645c.658-.494 1.48-.987 1.316-.658l-.33.329a11.99 11.99 0 001.81-1.48c.33-.33.659-.659.823-.988.33-.33.494-.823.658-1.152.494-.658.823-1.48.988-1.974.164-.494.164-.987 0-1.152.164 0 .658.658.822.987v-.822c0-.494-.164-1.152-.329-1.81-.164-.658-.329-1.317-.493-1.646-.165-.493-.165-.658-.165-.658.33.33.987.165 1.48.165.495 0 .988.329.824 1.316.329-.494.658-1.316.493-2.633-.164.494-1.152.823-1.152.33.988-1.317.659-.988 1.317-2.797-.33.493-1.317-.33-1.317-1.152.165.164.988-.165 1.152.329 0 0-.329-.658-.658-1.152-.165-.329-.329-.658-.329-.823-.165-.164-.165-.329-.165-.329.33.494.823 0 1.152-.493-.164.329-.329-2.14-.658-2.797v1.151c-.329-1.316-.823-1.974-1.316-2.468-.658-.493-1.152-.987-1.81-2.139.329.165 1.645.165.987-1.151-.164 0-.493-.165-.987-.33l-1.48-.493c-.988-.329-2.14-.658-2.962-1.316l-.165-.494-.658-.329-.658-.329h1.316c.494 0 1.152.165 1.81.33.658.164 1.152.493 1.81.657.493.33.987.658 1.48.823-.493-.987.165-.494-.822-1.81-.165-.329.164-.165.493 0 .33.165.659.658.823.823.165 0-2.303-3.126-2.468-3.126-.164.329-.823 0-1.48-.494-.659-.33-1.317-.658-1.481-.33 0 0 .164.165.658.33.329.165.822.494 1.151.658.988.494 1.81 1.152 1.81 1.152-.164.164-.329.164-.658.164s-.658-.164-1.152-.329c-.493-.164-.987-.329-1.48-.658-.494-.329-1.152-.493-1.646-.823-.493-.493.987-.658.987-.987-.164 0-.822-.329-1.316-.493-.658 0-1.152-.33-1.316-.494l1.152.165c-.659-.33-1.317-.494-1.975-.494-.658 0-1.316-.165-2.139-.658-.493-.165-1.645-1.152-1.81-.658.988.822.659 3.126 0 3.455-.164 0-.658-.33-1.48-.494-.33-.164-.823-.329-1.152-.329-.33-.164-.658-.164-.823-.329-.164-.164.165-.658.494-.987.329-.329.822-.658.329-.823 0 .165-.494.494-.823.494-.658-.165.165-.494-1.152-.33-.164.659-2.632.33-.493.659-.658.165-.987.165-1.316.165h-.659c-.164 0-.493.164-.822.164.493.33-.987 1.645-1.975 2.304 0-.165-.329-.165-.493-.165-.494.165-.987.494-1.481.658-.494.165-.987.33-1.316.658-.494.165-.823.494-1.317.658-.493.33-.822.659-1.316.988-.164 0-.493.164-.658.329-.165.164-.494.164-.33-.165-.164.33-.164.658-.657 1.316-1.481.659 1.152-1.316-.165-.987.165.165-.164.658-.493 1.152a7.685 7.685 0 00-.823 1.645c.33 0 .658-.493.987-.987.33-.658.823-1.316 1.152-1.81.329.33.329.823 0 1.646-.165.329-.165.822-.494 1.316-.164.493-.493.987-.493 1.48-.658 1.646-.823.494-.823.823-.658 1.646-.658 2.468-.494 3.127 0 .328.165.658.165.987 0 .329 0 .822-.33 1.48-.657 1.152-.986 0-1.315.165 0-.823.164-1.316.329-1.974.164-.494.493-.988.493-1.481l-.493 1.151c0-.493 0-1.645.329-2.138-.165.164-.33.658-.494 1.316-.164.329-.164.658-.329 1.152 0 .329-.164.822-.164 1.316 0 .494-.165.823-.165 1.316v3.784c.33.494.494 1.317.658.823l-.164-.823c.329-.822.822 1.481.822.33.165.329.33.493.33.822.164.33.328.494.493.823.165.329.33.658.33.987.164.33.164.658.328 1.152l-.493.493c.164-.164 0-1.151-.33-1.48.494.493 0 2.632.988 3.126V43.83c.329.494.822.987 1.151 1.645.494.987.823 1.646.988 2.304.164-.823-.165-.33 0-1.481-.165.494-.659-.33-.823-.987-.33-.823-.658-1.646-.823-.823.165-.658.165-.987 0-1.48-.164-.494-.164-.988 0-1.646-.164.164-.164.494-.493-.658l-.165-.165c0 .33 0 .494-.164.658-.659-.493-.988-2.303-1.152-2.961 0-.658.164.329.329-.165l-.33-.822c.33-.165.659-1.81.988-.33v-1.316c.165-.822.494-1.81.33-2.632.164-.658-.165-1.646.164-.987v-.33c0-.164 0-.493.164-.658.165-.493.165-.987.165-.987h.164c0-.164.165-.494.33-.658.164-.165.164-.494.328-.658.165-.494.494-.987.823-1.48.165-.166.33-.495.494-.66.164-.164.329-.493.658-.657.164-.165.493-.33.658-.658.329-.165.494-.33.823-.494.493-.494.987-1.152 2.139-1.645h.164c.33-.33.987-.494 1.645-.823.659-.165 1.152-.329 1.317-.658.329.165.658.165 1.151 0 .494 0 .988-.33 1.646-.33 1.151-.328 2.303-.493 3.126-.493v-.493h1.645c.494 0 1.152 0 1.81.164v-.493c1.316 0 2.962 1.151 4.442 2.139-.164 0-.493-.165-.822-.494.329.494.822.823 1.316 1.152l1.48.987c.495.329.988.658 1.317 1.152.33.493.658.987.823 1.48.329.33.493.659.658 1.152v-.164s0 .164.165.164c0 .165 0 .494.164.658v-.658c.165.33.494.823.823 1.48l-.658.66v.164c0 .658.329.329.658 0 .164.329.329.493.493.658-.329.329-.164.658 0 1.151.165.33.33.823 0 1.152.494.33.659 2.962 1.317 3.29-.165 0-.165.165-.165-.164-.164.658-.164 1.317-.164 1.975l-.659.164s.165.33.33.823c0 .165.164.494.164.494v.329c-.658.822-.823 1.151-.987.164 0 1.152 0 1.645-.165 1.975-.164.329-.164.822-.164 1.81l-.33-.165c-.164.329-.164.658-.328 1.152 0 .164-.165.329-.165.493l-.329.33c-.823.493-1.974 2.303-3.949 3.62l2.468 1.48c.165-1.974.658-4.278 1.316-5.923-1.151.493.823-1.646.165-2.14.33-.164.658-.657.658 0 .165-1.974 1.152-2.796.823-4.442.329-.164.164.494.493.33 0-.165 0-.659.165-.823.165-.165.165.329.165.658.658-1.975 0-2.468-.659-2.797.659-.823.823-1.316.659-2.304.329-.329.822-.658.493.494.33-.658 2.139-3.949 1.645-4.278.165-.165.494-.823.494-1.152.823-1.48.987-1.48 1.81-2.961l-.658.493c-.33-.987.658-1.152 1.316-2.303 2.303-1.975.658-1.152 2.962-2.962l-.494-.164c-.165-.494.494-.823 1.152-1.317.658-.493 1.645-.822 2.139-1.645l-.494.33c.165-.495.987-.659 1.645-.659.659-.165 1.481-.165 1.975-.33.164 0-.165.33-.33.494 2.304-.822-.164-.658 1.317-1.81.494.165.165.823 1.152.33.164 0 .329-.165.658-.494.164-.329.493-.658.823-.987.329-.33.822-.658 1.316-.823.494-.164.823-.493 1.316-.493-.493-.165-.822-.165-.164-.659 1.151-.658 3.455-.329 4.442-1.316.165 0 .33 0 .33.165.822-.494 2.96-.987 3.619-1.481.329.658 1.81.329 3.29.164.659 0 1.317-.164 1.81-.164.494 0 .823.164.823.494h.494c.329 0 .658 0 .987.164.658.165 1.48.165 1.48.165l-.164.164c.823.33 1.48.33 1.975.494h1.151c.33.164 0 .329 0 .329 2.468 1.316 2.633 1.48 4.936 2.139v.493c.165 0 .494.165.823.494.329.329.658.823 1.152 1.152.822.987 1.81 2.139 2.797 2.961 0 0-.165 0-.33-.164.659.493.988 1.151 1.481 1.81.33.822.659 1.48.988 2.303.493 1.48.987 2.633 1.974 2.962 0 0 .165.493.494.822.164.165.164.494.329.659a.51.51 0 01.164.329c-.493-2.633.823.164.823-.988.165.494.165 1.152.165 1.646-.165.493-.165.493-.33-.165v-.164c-.493-.165-.329.658-.329 1.48 0 .823 0 1.81-.164 1.81 0 2.468-.658 4.936-1.645 7.24-.988 2.303-2.304 4.278-3.785 6.088h.823s-.165.329-.494.658a2.828 2.828 0 00-.493.658c-.33.164-.823.164 0-.823-.658.165-.988 1.81-.988 1.81-1.81 1.48 0-1.152-.493-.658l-.658.823.164-.165c-.329.823-.164.987-1.316 1.974-.823.494-.658 0-.987.33 0 0-.165 0-.494.329 0 0-.493.329-.822.658-.494.329-.823.658-.823.658l.987-.165c-.493.823-1.645 1.317-.493 1.152-.494 0-1.152.33-1.81.823-.659.493-1.481.987-2.304 1.645-1.645 1.152-3.126 2.303-3.62 2.468-.987 1.152-2.138 1.974-3.62 2.797.494-.164.988.33-.328.987-.165-1.316-2.633.988-4.114.823 1.152 0-3.455 2.303-1.645 2.139-1.152.494-.33-.33-1.316-.165-2.304 1.975-5.594 3.127-8.556 5.101 0 .165.658 0 .164.658l-1.974.33c-.494.493 0 1.15-1.48 1.316.164 0 .493 0 .164.329-6.417 2.961-12.011 8.062-18.922 10.694.988-.164.494.165-.164.494.493-.165.164.329.329.493l-2.962.988c-.164.822-2.797 1.645-2.632 2.468l.822-.658c-.658 1.316 2.304.329 2.633 1.316.823-1.481 3.784-.987 5.1-3.126.494-.165-.164.493.165.493.33-.658.823-1.151 2.139-1.645v.164c3.126-1.974 4.607-2.468 8.391-4.442l-.493-.165c.822-.493.987-.329 1.48-.493.494-1.152-2.139 1.316-1.81.164 1.481.165 5.43-3.29 6.582-2.797 1.152-.658-.658-.164.494-.987h.493l.165-.494c.822-.493 1.316-.329 1.48-.164-.164.164-.493.33-.658.494 1.152-.33 2.797-1.81 3.126-1.975l-1.151.494c3.126-2.14 7.24-4.278 10.036-6.582H65.7c2.14-1.81 1.975-.987 4.443-2.797v.165c.329-.494.987-.987 1.81-1.48-.494.657 1.48-.33.822.328 2.304-1.974 1.152-1.152 2.304-2.797h.658c.329-.658.329-.823 1.645-1.81-.823.987 1.152-.164.165.987 3.126-1.151 3.455-3.455 5.265-3.455.329-.822-.33-.493-.987 0-.659.494-1.317.987-.988.658-.822.165.494-1.316 1.481-1.81.823-.658 2.139-.164 4.113-1.974-.164.165-.164.33-.329.494.823-.494 1.152-1.481 2.304-2.14 0-.822 1.152-1.151.658-1.81l-1.48 1.81c.493-.493.657-1.316.986-1.974.33-.658.823-1.48 1.646-2.139 0 .165-.33.823-.494 1.317.658-.33.658-.988 1.316-1.481.165.329-.164.987-.822 1.645a5.01 5.01 0 00-.823 1.152c-.329.329-.494.823-.658 1.152.329-.165.823-.823.987-1.152.33-.494.494-.658.494-.165 0-.822.493-1.151.987-1.81.493-.658 1.152-1.151 1.316-2.138l.33.329c.164-.33.164-.988.493-1.317v1.152c.329-1.48 1.81-2.303 2.139-3.784-1.316 2.797-.823.329-1.645 1.48.658-1.81.987-2.138 1.48-2.632.33-.164.494-.493.823-.823.329-.493.493-1.151.658-2.139-.165.659-.823 2.14-.823 1.152.165-.329.33-.822.494-1.151.164-.33.33-.823.494-.988.329-2.797-.494.33-.659-.822.659-.823-.164-1.481-.164-2.633h.493c.165-1.645-.164-1.81-.329-1.974-.329-.165-.329-.33-.493-1.646 0 0 .164.33.329.494.165.165.165.329.329.329 0 .165.164.165.164.165l-.329-1.481.494.164c-.329-.822-.493-1.316-.658-1.81-.165-.493-.165-.987-.33-1.81-.164.494-.822 0-1.315-1.151-.165-.987.658.329-.33-1.481.494.33.988.658.988 1.645.164 0 .493.33.658.33 0-1.152-.987-2.469-1.316-3.127-.165-.164 0 .165 0 .33l-.33-.33c-.164-.164-.329-.493-.658-.822-.493-.494-.987-1.152-.987-1.152-.164-.494.165-.33.494 0-.33-.494-.823-.658-1.317-1.316.494 0 .659-.33 1.646.658l-.33-.33-.657-.657-.659-.659-.493-.493c0-.165-.658-1.317-.33-1.152-.493-.658-1.315-1.316-2.138-1.81-.494-.329-.823-.493-1.316-.822-.494-.33-.823-.659-1.152-.988-.165 0-.33 0-.658-.329-1.481-1.152-2.797-2.468-5.1-2.961L79.52 6.81c-1.81-.33 1.316 1.48-1.48.658-2.14-.33-.659-.823-1.317-1.152-1.152 0-2.962.33-4.772-.329.659.165.988.165 1.646.165zm-20.731 4.771c.329-.329.822-.987 1.316-.822-.165.658-.494.658-1.316.822zM34.603 36.097c0-.33.165-.823.494-1.152 0 .33-.165.658-.494 1.152zm-27.97-1.645s-.165 0 0 0c.164-.659 0-.494 0 0zm-.33 1.645c0 .164.165.164.165 0-.165-.165-.165-.494 0-.823-.165.165-.33.33-.165.823zM83.305 49.26l.33-.165c-.33.658-.33.494-.33.165z"/><path d="M35.261 32.477h.33c0-.165 0-.165-.33 0zm51.006-21.389c.164.164.164.164 0 0zm-64.333 5.264c.33 0 .658.165.823.165 0-.165-.165-.165-.823-.165zM8.936 44.488s-.165-.164-.33-.493c-.164-.165-.164-.494-.164-.494.165.494.165.658.165.987 0 0 .164-.329.329 0zm1.81 10.037c.164.164.164.329.329.493l.165-.164c-.33-.658-.659-1.152-.494-.33zm-2.962-8.556c-.329.164.165.822.494 1.48v-.164c.658.165 0-.658-.494-1.316zm.658 1.645c.165.165.165.494.33.658.164 0-.165-.164-.33-.658zm-1.809-9.378c0 .329.493.164.329.329.658.329-.659-2.304-.33-.33zm.329 8.884l.329-.493-.494-.33s0 .165.165.33v.493zm-1.646-6.252l.165 1.316s.164.165.164.33l-.329-1.646zm.329 1.646c.165.329.165.822.33.987 0-.33-.165-.658-.33-.987zm.494 2.961v-.329s-.165-.164-.165-.493c0-.165-.164-.494-.164-.494s0 .33.164.658c.165.33.165.658.165.658zm.658-17.769l.33-.659.328-.658c0-.164-.329 0-.658.494 0 .494-.164.823 0 .823zM4 31.161c.165-.329.33-.329.494-.494L4 30.503v.658zm1.48-4.114c-.164-.164.659-2.138-.164-.493 0 .329-.658 1.81.165.494zm18.758-9.213h-.33v.987l.33-.988zM40.856 27.87c-.165-.987-.494-.987-.494-.987-.165 0-.33 0-.494-.823-.164-.164-.164.165 0 .494.165.329.165.658 0 .494.494.987.494 1.48.988.822zm-1.152-.822c-.165-.165-.165-.33-.33-.494.165.33.165.33.33.494zM28.022 84.305l-1.152.33.823-.165.329-.165zm-1.481 1.645l-.494-.328-.329.822c.165-.164.659-.493.823-.493zm23.035-74.369v.165c.164 0 .493-.165.987-.33 0 0-.165 0-.494.165h-.493zm14.808-5.594h-.33l.659.494-.33-.494zm13.492 0c-.494-.164-1.317-.329-1.81-.329 1.316.165 1.81.987 1.81.33z"/></g><defs><clipPath id="clip0"><path fill="#fff" transform="translate(4 5)" d="M0 0h92.962v90H0z"/></clipPath></defs></svg>