<svg width="100" height="100" fill="none" xmlns="http://www.w3.org/2000/svg"><g clip-path="url(#clip0)" fill="#EC6D31"><path d="M27.756 18.174c0 .1.2.1.2.1 0-.2-.2-.1-.2-.1zM27.656 15.98l.1.1-.1-.4v.3zM28.454 14.183c-.499 0-.3.699-.598.998h-.1l.1.1.1.1c.199-.4.299-.998.498-1.198zM29.752 13.785c-.2 0 0-.3-.2.2h.1c0-.1.1-.2.1-.2z"/><path d="M29.651 13.884c-.1.2.2 0 0 0zM30.15 13.086v.3c.1 0 .3-.2.3-.1 0-.2-.1-.2-.3-.2zM30.05 12.687v.1c0 .1.1.1 0-.1zM29.95 13.187v-.2-.2c0 .1-.1 0 0 .2-.1-.1 0 0 0 .2zM29.752 13.286c-.2.1-.3.2-.3-.1-.2.4.1.5.3.1zM28.155 13.884l-.2.1v.2c0-.1.4-.3.2-.3zM31.448 12.089c0-.1-.2-.1-.3-.2l-.1.2c.1 0 .3-.1.4 0zM31.048 11.89l.1-.3c-.1.2-.1.2-.1.3zM29.751 12.387v.599s0-.2.1-.3c-.1-.199 0-.398-.1-.299zM32.844 10.89c0 .2.3.1.2.3.1-.1.199-.3.299-.499-.1.1-.3.2-.5.2z"/><path d="M33.443 10.392c-.1.1-.1.2-.1.3 0-.1.1-.2.1-.3zM31.647 11.29c.1 0 .2.1.3 0h-.3s0-.1 0 0zM31.747 11.19c.1-.1.2-.1.2-.1s-.1 0-.2.1zM30.45 11.988c0-.2.2-.598-.2-.499 0 .2.3.1.2.5zM31.248 11.19l-.3.2s.2.1.1.2c.1-.1.2-.4.2-.4zM31.348 10.99l-.1.2.1-.1v-.1zM32.844 10.492c.1-.2.2-.2.3-.3-.2 0-.4.1-.5.2.1 0 .1.2.2.1zM32.645 10.293c-.1 0-.2.1-.2.2.1 0 .2-.1.2-.2zM32.345 10.792c0-.1.1-.1.1-.2-.1 0-.1.1-.1.2zM34.74 7.798c0 .2-.3.5-.699.4-.2.299.3.897.599 1.197 0-.1-.1-.2.2-.4-.1 0-.3-.1-.4-.1-.2 0-.3-.099-.2-.199.4-.3.4 0 .6 0-.3-.2.398-.598.199-.898l-.3.2c0-.1.1-.2 0-.2z"/><path d="M34.14 9.594l-.099.1c.2 0 .3 0 .499.1.1-.2.2-.3.1-.4l-.5.2zM33.443 9.893c0-.3.199-.499-.1-.698-.3.2-.2.3-.3.499.599-.3 0 .299.4.2-.1.099-.2.099-.3.199.1 0 .2 0 .3-.1 0 0-.1 0 0 0s.1 0 0-.1c0 .1.1.1 0 0 .1.1.199 0 0 0v.1l.199-.2.2-.2c0 .1-.1.2-.4.3zM30.15 10.891c.1-.1.1-.1 0 0zM30.45 10.791c0 .1 0 .2-.1.3-.1 0-.1-.1-.1-.1 0 .1-.1.399.2.2v-.1c.2-.1.698-.1.698-.1-.3-.1-.4-.2-.698-.2zM31.946 10.193l.4-.4h-.3l.1.1c-.4.1-.2.2-.2.3zM34.84 9.494v.3l.099-.5-.1.2zM35.438 9.295v.2l.1-.2h-.1zM39.529 34.535l-.2.1c.1 0 .1 0 .2-.1zM40.825 34.336v-.1c-.1.1-.1.1 0 .1zM48.507 15.979c-.1.3-.3.599-.1.499l.2-.1c-.1-.2-.1-.3-.1-.399zM48.407 27.353h.1c0-.1-.1-.2-.1-.3v.3zM49.206 28.05l-.3.2s.1-.1.3-.2zM32.246 34.236l-.3.2c.4.1.2-.1.3-.2zM41.922 9.395c.1.2.3.2.4.3-.1-.2-.2-.4-.4-.3zM39.528 31.941c-.1.1-.1.1-.1.2.1-.1.1-.1.1-.2zM42.82 9.993c0-.1-.1-.1 0 0-.2-.1-.299-.1-.498-.2.1.1.2.3.498.2zM37.932 8.896c-.1 0 0 .1 0 0zM37.732 8.796c.1 0 .1.1.2.1 0 0-.1-.1-.2-.1zM37.833 8.896h-.1c-.1.1 0 .1.1 0zM23.666 26.155c-.2-.2-.1-.1 0 0zM51.999 19.97c-.3-.3-.3-.4-.2-.599 0 0-.2.1-.299.1-.2.1-.399.1-.399.1s.2.1.499.2l.399.199z"/><path d="M36.336 34.835s.1.1.2.1c.099.1.199.1.199.1-.5.398-.898.199-.5.498.1-.698 1.797 0 1.797-.798l.299.1h-.2c.6.299.4-.599 1.098-.5.3 0 .399.1.3.2l.498-.299c.2 0 .1.1 0 .1 0 0 .2-.1.4-.1.199-.1.398-.1.398-.1.1-.1.3-.399.4-.498.199 0-.1.1 0 .199l.398-.3c.2.1-.1.4-.399.5.599.598.3-.3 1.397-.2l-.4.2c.4.299.7 0 1.298.1-.2-.1-1.197-.2-.798-.6.2 0 .299-.099.498-.299.1.2.3.1.6-.1l.099.3c.3-.3.2-.4.3-.698.398-.2.598 0 .797.2.599-.3-.598-.1 0-.6.3-.1.5-.199.599-.399.2-.2.3-.399.499-.698.399-.1.1.2.299.2v-.2-.2c.1 0 .1 0 .1.1.1-.299-.2-.299 0-.698-.1-.2.2-.2.499-.3.299-.1.598-.299.598-.598.2 0 .1.2.3.3.299-.699.299-.6.299-1.298l.499-.299c-.4.2-.4-.399-.4-.898-.199 0-.299.1-.399.1l.2-.599c.1 0 .2.1.2.3v-.1c.2-.1.399.1.399.3-.1 0-.2.099-.3.099.1.3.2.499.4.599v-.2c0 .1.1.1.1.1v-.2l.398.1-.1-.1.699-.598c0-.4-.1-.798-.2-1.197-.1-.4-.1-.799 0-1.297.2.299.4.2.798.399-.399.1-.1.798-.399 1.197.1-.2.3-.1.3 0v-.499-.499c.299.1.299-.1.498-.3-.598 0-.1-.797-.2-1.196.2 0 .4.2.2.598.599-.399-.498-.798 0-1.197 0 .1-.1.2 0 .2-.1-.3.1-.898.3-.699v.1c.299-.698.299-2.295-.2-2.394.1 0 .599.1.699.2 0 0-.4-.4-.799-.7-.2-.199-.399-.298-.598-.398-.2-.1-.3-.2-.3-.2.4.1 1.397-.399 1.697.2 0-.2.1-.4-.1-.798 0 .1-.599.399-.599.2.4-.5.2-.3.499-.998.1.1-.599 0-.599-.2.1 0 .599-.1.699-.1 0 0-.2-.1-.4-.299-.1-.1-.199-.1-.299-.2-.1 0-.1-.1-.1-.1.2.1.5-.1.699-.299-.1.1-.2-.598-.3-.798l-.1.3c-.099-.4-.398-.5-.598-.599-.299-.1-.598-.2-.698-.499.2 0 .798-.1.698-.499-.399 0-1.696-.1-2.294-.399l.2-.2-.4-.299c.3 0 .798 0 1.197.1.5.1.998.3 1.297.4 0-.3.2-.2-.1-.6.1-.199.4.1.4.2 0 0 0-.1-.1-.2 0-.1-.1-.199-.1-.398-.1-.3-.2-.5-.2-.5-.299.2-.797-.498-.997-.299 0 0 .3.2.499.4.2.2.499.399.499.399-.2.1-.5.1-.798 0-.2-.1-.3-.1-.5-.2-.1-.1-.299-.2-.398-.399 0-.2.598-.3.698-.4-.2 0-.599-.398-.599-.498l.3.1c-.1-.4-.799-.2-.898-.798-.1-.2 0-.699-.2-.599 0 .599-.997 1.497-1.297 1.596 0-.1-.299-.897-.299-1.197 0-.399.798-.3.898-.698-.1.1-.3.1-.4 0 0-.1.3-.1 0-.3-.298.2-.598-.498-.398.1-.4-.2-.2-.299-.599-.598 0 .299-.798.499-1.197.299.1-.1.1-.2.1-.3-.599-.398-.898-.797-1.497-1.097 0-.1-.299-.399-.1-.498-.1 0-.299.1-.498 0-.3-.5.498.1.299-.4-.1.2-.698.1-.998.1 0 .4.599.3.998.3-.2.399-.898.698-1.596.698-.599 0-.1-.4-.2-.3-.997-.398-.997.6-1.796.1-.299-.299.1-.598 0-.798.5 0 .699.3.998.3l-.3-.2c.2-.1.5-.1.6 0-.1-.2-.6-.3-1.098-.4-.3 0-.499-.099-.798-.099-.3 0-.499-.1-.698-.1-.2.1-.4.2-.3.3l.3-.1c.199.2-.5.399-.1.499-.2.1-.3.2-.5.299-.199.1-.398.2-.598.1h-.2c0 .1.3.2.5 0-.2.2-.799-.4-.898.1l.399.2c-.3.199-.599.697-.998.697.3.3.1-.1.4.3-.2-.3 0-.3.298-.4.2-.1.4-.1.2-.299.3.4.499.1.898.5 0-.1-.1-.2.2-.2 0 0 0-.1.1-.1-.1 0-.1-.1-.2-.2.1-.299.698-.299.898-.399.2 0-.1.1 0 .3l.299-.2c0 .3.499.499 0 .599h.399c.2.1.499.299.698.2.2.099.5-.2.3 0h.698v.099c.2 0 .3.1.499.1.2 0 .299.1.498.1.2 0 .3.1.5.199.199.1.299.2.398.4.2 0 .5.099.699.298l-.1.2c.1 0 .3.2.4.3.099.099.298.199.398.199-.1.598.998.898 1.197 1.297l.3-.3c.2.3.498.4.898.699l.199-.2c.1.1.2.3.3.5.1.298.199.498.398.797-.1 0-.2-.1-.2-.2 0 .2.1.4.2.5.1.1.2.299.4.399.299.2.598.498.498.897.2.1.2.2.2.3v.399c0-.1.1-.2.1-.2 0 .1.1.3.299.4l-.2.199c0 .2.2.1.3-.1.1.1.2.1.2.2-.4.299.299.399-.1.698.1 0 .199.2.398.399.1.2.3.4.5.4-.1 0-.1.099-.1 0 0 .199 0 .398.1.598l-.3.1.2.199.2.2c-.2.299-.3.399-.6.199.2.3.3.4.3.599 0 .1.1.2.3.498h-.2c0 .2.299.5.1.6-.2.199-.3.697-.4 1.396l-.3.898c-.099.299-.298.598-.498.798.699 0-.399.399 0 .598-.2 0-.3.1-.399-.1-.1.6-.599.699-.399 1.198-.2 0-.1-.2-.3-.2 0 .1 0 .2-.1.2-.099 0-.099-.1-.099-.2-.3.5.1.798.499 1.098-.4.1-.4.299-.3.598-.199 0-.398.1-.199-.299-.1.2-.898.898-.698 1.097-.1 0-.2.2-.2.3-.299.299-.399.299-.698.698h.1c.2.4-.2.3-.5.599-.797.299-.199.399-1.097.598l.2.2c.3.499-.798.2-1.097.598h.2c-.1.3-1.098-.299-1.298-.299-.1 0 0-.1.1-.2-.699 0 .1.4-.3.699-.199-.1-.1-.499-.398-.4-.1 0-.3.2-.5.4-.199.2-.498.399-.797.3.1.099.299.199.1.398-.4.2-1.098-.3-1.298.2-.1 0-.1-.1-.1-.1-.299.2-.897.3-.997.599-.2-.5-.599-.3-.998-.2-.399.1-.798.2-.798-.2h-.798v-.1c-.499-.099-.798 0-.998.2-.1-.1 0-.1 0-.2-.399-.099-.598-.199-.798-.199-.2 0-.399.1-.798.2v-.3c-.1 0-.399-.1-.698-.299-.3-.2-.698-.399-1.098-.499l.1-.1c-.499-.1-.898-.398-1.197-.797-.2-.2-.3-.3-.499-.3-.2-.1-.3 0-.598.1l-.5-.1c.6.499-.398.3-.199.599-.3-.1-.499-.798-.1-.5v.1c.4-.299-.598-.797-.399-.997-1.197-.998-1.795-2.295-2.494-3.492l-.299.3s-.1-.1-.1-.2c-.1-.1-.1-.2-.1-.2 0-.199.2-.299.4 0 .1-.299-.4-.399-.5-.399-.1-.698.5 0 .5-.2l-.1-.199v.1c-.2-.1-.4-.1-.599-.499 0-.299.2-.2.2-.299v-.2s0-.1-.1-.299c0-.1-.1-.3-.1-.3l-.2.3c-.199-.2-.199-.598-.398-.2.1-.1.1-.398.1-.598 0-.2-.1-.499-.1-.798-.1-.499-.2-1.098-.1-1.197-.3-.4-.3-.798-.2-1.197-.1.1-.499.2-.399-.3.4.1.499-.1.599-.299.1-.2.2-.499.499-.599-.4.2.2-1.097-.4-.798.1-.299.3.1.5-.1 0-.897.797-1.496 1.296-2.194-.1-.1-.299 0-.299-.3h.698c.1-.2-.299-.498.2-.498-.1 0-.2-.1-.2-.2.799-.499 1.597-1.097 2.395-1.496.798-.4 1.895-.6 2.693-.2-.2-.2-.1-.2.1-.2-.1 0 0-.2 0-.399 0 0 .1 0 .1.1.1 0 .2.1.3.1.099.1.199.1.199.1.1 0 .1.1.1.1.1-.2.299-.1.498-.1.2 0 .4.1.5-.1h-.3c.2-.2.1-.499 0-.698-.1-.3-.3-.599-.2-.799-.1.1-.299.1-.399 0-.1 0-.299-.1-.498-.2-.3-.199-.699-.298-1.098.1-.2-.1.1-.199 0-.299-.2.2-.399.3-.798.3v-.1c-.599.1-.998.2-1.496.3-.2 0-.5.099-.699.199-.3.1-.499.1-.898.3l.2.199c-.3.1-.4.1-.5.1-.099.498.7-.4.7.199-.3-.2-.799.1-1.198.399-.399.3-.798.598-1.097.399-.3.3.299.1 0 .4h-.2.2c-.2.199-.5.099-.599.099.1 0 .1-.2.2-.2-.4.1-.699.898-.798.998l.199-.2c0-.1.1-.2.1-.2a9.881 9.881 0 00-1.098 1.697c-.1.3-.299.599-.399.998-.1.299-.2.598-.1.997h.1c0 .898-.299.699-.399 1.597.1.199.1.498.1.698-.1-.3-.3.399-.499.1.2.997.2.498.699 1.097l-.2.2c.2.2.3.2.4.698-.2-.4-.3.3-.6-.1-.199.499 0 .898.1 1.197.1.3.3.5 0 .798.699.3.1-.897.3-.698.1-.2.498.3.498.599.1.299-.598.698-.299 1.496 0-.1-.1-.1-.1-.1 0 .3.4.5.3.898.399 0 .2.5.598.3l-.399-.599c.3.3.898.499.998 1.197-.1 0-.3-.1-.4-.2 0 .2.2.3.2.5-.399.199-.499-.699-.997-.998-.1.3.698.598.1.698.398 0 .398.2.498.4.1.199.2.498.499.598l-.2.1c.1.1.3.1.4.299l-.5-.1c.5.2.3.898.7 1.098-.6-.699.099-.4.099-.799.997.699-.2.998.798 1.796-.1-.1-.3-.598 0-.499.1.2.3.5.3.699.698.498.099-.3.498-.2 0 .4.4.2.698.4l-.2.199c.6.798.6-.3 1.098.399l-.598.1.399.2-.3.199c.5.1.6.2.998.598 0-.2.3-.399.698-.2.2.3-.299.1.3.4-.2.1-.4.2-.499-.2-.1.1-.2.1-.3.1.2.3.6.4.799.499l-.2-.2s.2 0 .5.1h.498c.1.1-.1.2-.2.2.2 0 .3 0 .599.1-.2.199-.2.398-.599.299l.898.1c0 .1.3.399.2.399.399.299 1.197 0 1.696.398 0 0 .1-.1.2 0 .299.1.498.3.797.4.3.1.6.2.898.1l.3.498c.498 0-.4-.598.498-.598.6 0 .2.399.4.498.299-.2.898-.498 1.396-.2-.299.1-.399.1-.598.1zm6.285-1.197c-.1.1-.3.398-.4.199.1-.3.2-.2.4-.2zm6.684-6.785c0 .1-.1.2-.2.3 0-.1.1-.2.2-.3zM39.528 8.796c.2.1.1 0 0 0zm-.499-.2c-.1 0-.1.1 0 .1 0-.1.1-.1.3 0-.1-.1-.2-.1-.3-.1zM24.663 23.86v.1c-.2-.1-.1-.1 0-.1z"/><path d="M49.106 27.95h-.2c0 .1.1.1.2 0zM47.31 9.894c.1.1.1.2.1.3 0-.1 0-.1-.1-.3zM36.635 9.196l.3-.1c-.1 0-.2 0-.3-.1 0 .1.1.2 0 .2zM33.443 8.397c0 .1-.1 0-.1.1l.1.1c.2 0 .3-.2 0-.2zM36.136 8.397c-.1-.2-.3-.1-.499 0 .1.3.3.1.5 0z"/><path d="M35.638 8.397c-.1 0-.1 0-.2.1 0 .1.1-.1.2-.1zM38.431 8.696c-.1-.1-.1.3-.1.2-.1.2.1 0 .2-.1.1 0 .2-.1-.1-.1zM35.837 7.699l.1.2.1-.2h-.2zM37.732 7.599l-.399-.1s0 .1-.1.1c.2 0 .5.1.5 0zM37.234 7.699c-.1 0-.2 0-.3.1.1-.1.2-.1.3-.1zM41.623 8.197l.4.1c.1-.1 0-.2-.2-.2-.1 0-.2 0-.2.1zM40.626 7.1c.1.1.1.1.1.2l.1-.3-.2.1zM41.823 7.3c.1-.1.698 0 .2-.2-.1.1-.5.1-.2.2zM47.11 11.09l-.1-.1-.398.4.498-.3zM51.4 15.28c-.1-.598-.399 0-.399-.498-.2-.1 0 .399-.1.399.2.2.2.399.5.1zM50.802 15.081l-.1-.1.1.1zM32.545 12.687l.2.2-.1-.2h-.1zM33.143 12.487l-.1.4.3-.3c-.1-.1-.2-.1-.2-.1zM43.919 33.937c-.1-.2-.2-.1-.3-.1l.3.1zM39.13 35.035h.1l-.2-.3.1.3zM35.039 35.433h.499c-.4 0-.5-.499-.5 0zM23.366 20.07l.1-.2c-.1 0-.1.3-.1.2zM22.569 20.369v-.1l-.2.2.2-.1zM21.97 20.169c-.1.399.199 0 .299.2v.1l.2-.3c-.2 0-.5.1-.5 0zM21.97 19.171c-.1.2-.2.1 0 0 0 .1 0 .1 0 0 0 .1 0 .1 0 0zM21.97 19.271c.1 0 0-.2 0 0zM21.67 19.172l.1-.1c0-.1-.1-.1 0-.2-.1.1-.1.2-.1.3zM21.47 19.471c.1-.1.1-.1 0 0zM21.67 19.37l-.1.1.1-.1c-.1 0-.1.1 0 0zM21.67 19.37c0 .1.1.2-.1.3.2 0 .3-.3.1-.3zM21.77 20.468v.1l.1-.1c0 .1-.1-.1-.1 0zM21.172 18.773c0 .1-.1.2-.1.3l.1-.1v-.2zM21.172 19.171l-.2.1c.1 0 .1 0 .2-.1zM21.271 19.87l.3-.2-.3.2zM20.872 18.673l.1-.2-.2.3.1-.1zM20.573 18.673c.1-.1 0-.3.1-.4-.1 0-.2.1-.3.2.2 0 .2 0 .2.2zM20.273 18.673l.1-.1-.1.1zM20.872 19.172v-.3.3s-.1 0 0 0zM21.172 19.57c-.1.1-.3.2-.2.4 0-.1 0-.2.2-.4zM20.772 19.47c.1 0 .1-.1.2-.1l-.2.1zM20.374 18.872c0 .1-.1.1-.2.1 0 .1.1.1.1.1.1 0 .2-.2.1-.2zM20.373 19.172c0 .1.1 0 .1 0 0-.1-.1-.1-.1 0zM20.573 18.972l-.1.1s.1 0 .1-.1c0 0 0 .1 0 0zM18.977 20.169c.1-.2.299-.399.299-.1.2-.1.3-.798.399-1.197 0 .1-.1.2-.2.3 0 .1 0 .299-.1.498-.1.1-.1-.1 0-.2-.1.3-.299.3-.498.699l.2-.1s-.1 0-.1.1zM19.875 18.873v-.3c-.1.1-.1.2-.1.2l.1.1zM20.074 18.972c-.1.2-.2.3-.3.499.1 0 .2-.2.3-.2-.2 0 .1-.1 0-.3h.1s0-.099-.1-.099c.1 0 .1 0 0 .1.1-.1.1-.1 0 0 0 0 .1-.1 0 0 0-.1 0-.1 0 0l.1-.1h-.2c0 .1 0 .1.1.1zM20.573 20.269l.1-.1c0 .1 0 .1-.1.2 0-.1.2-.1.1-.3v-.499c0 .4 0 .5-.1.699zM20.374 19.67l-.2.1v.2-.1c.1.1.1-.1.2-.2zM19.775 18.673l.1-.2s0 .1-.1.2c0 .1 0 0 0 0zM19.675 18.673l.2-.2-.1.1-.1.1zM10.496 16.877s.1 0 0 0c.2 0 .4.1.6.1-.2-.1-.4-.1-.6-.1zM10.198 15.181l-.4-.2.4.2zM18.877 18.473c.1-.1.2-.1.2-.1-.2.1-.5.2-.2.1zM16.283 17.276c-.2 0-.4-.1-.599-.1.2 0 .4.1.599.1z"/><path d="M18.977 18.373s.1 0 0 0c.2-.1.3-.1 0 0zM22.568 16.777s-.1 0 0 0c-.1.1 0 .1 0 0zM18.877 19.271s-.1 0-.1.1c0 0 0-.1.1-.1zM15.086 15.38c-.1-.1-.1-.1 0 0zM10.297 17.675c.598 0 .598 0 .399.1l1.297-.1h-1.696z"/><path d="M10.197 15.58l-.399-.1c-.399-.2-.3-.2-.698-.3.499.2.499.2.499.3 0 0 0 .1.498.2h-.2c-.498-.1.5.2.3.2-.1 0-.2 0-.3-.1l.1.1h-.1v.099s.1.1.2.1h-.1c-.199 0-.299-.1-.199-.1-.3-.1-.3-.1-.3 0 .1 0 .2 0 0 0v-.1c-.398 0-.298.1-.498.1.1 0 .499 0 .599.1-.1 0-.1 0 0 .1h-.2l-.2-.1s.1.1.2.1h-.3c-.099 0 .2 0 .2.1-.1 0-.1.099-.1.099h.1-.1.1c.1 0 .1 0 .2.1.1 0 .1 0 .1.1 0 0-.1.1.1.1h-.2c.2.099.2.099.499.099l-.1.1c.1 0 .399 0 .798.1h.499c.2 0 .399 0 .499.1l.997.199c-.299 0-.798-.1-1.496-.2.1 0 .3 0 .399.1h-1.198.1-.598.1-.1.1-.3.1l-.1.1c.5.1 1.197.1 1.696.2h-.997c.399 0-.3-.1-.3-.1h-.299l.499.1c-.3 0-.2 0-.4.1.7 0 .6.099.899.099h-.5c-.498.1.999 0 .6.1h-.1c.3 0 .2.1-.1.1 0 .1.3.199 1.197.199h-1.297 2.195c.3 0 .599 0 .898.1.499 0 .898.1.898.1-.3 0-.798 0-1.297-.1H10.696c-.1 0-.2 0 .1.1.1 0 1.197-.1 1.297-.1-.898.1-.4 0-1.197.1h1.596-1.497 1.497c-.3 0-1.197 0-1.597.1.3 0 0 .099.2.099h.3c-.1.1 2.294 0 2.394.1-.4 0-2.095 0-2.195.1h5.088-.4.6c-.998.1-3.193.1-4.69.1h-1.097.1-.898l.2.199c.997-.1 1.296.1 2.095 0l-1.397-.1h1.895c.599 0 1.098 0 1.198.1-.3 0-1.697.1-1.996.1.4 0 .898.1.699.1h-.599c-.2.1 1.397 0 .798.1 0 0-.898.199-.399.099.798-.2 3.791-.499 4.49-.599-.1 0-.799.2-1.098.3-.598.1-1.796.2-2.294.299.199 0 .498 0 .598-.1-.1 0-.698.1-.399.1.4-.499-.1-.2.4-.4.298 0 0 .1.199.1.399-.1 1.696-.299 1.995-.299-.2 0-.4.1-.499.1.1.1 0 .2.2.3-.1.1-.2.199-.5.199.1 0 .4-.1.4-.1-.3.2-.2 0-.699.2.3-.1.699-.1.898-.1.5-.2-.1-.1-.399-.1.699-.2 1.597-.399 1.996-.499.299 0-.4.2-.2.2.1.1 1.197-.499.898-.2l-.898.599c-.3 0 0-.2 0-.2l-.1.1c-.2.1-.299.1-.299 0-.2.2.4.2.4.499.099-.1.298-.1.398-.2h-.1c.2-.2.4-.2.4-.299.199-.1.498-.3.498-.2l-.2.3c.1-.1.1-.2 0-.1.1-.1-.199.4.2.1v-.1-.1c.2-.1.5-.399.4-.299l.199-.3c-.3.4-.1-.099-.4.4.3-.4.1-.2.3-.499l-.1.1-.1.1-.1.1c-.199.199-.298.099-.398.199 0-.1.1-.1.2-.2l-.2.2c.2-.2.3-.3.499-.4.1-.099.2-.199 0-.099.1 0-.4.2-.1 0h-.2H18.876c-.099 0-.199 0 .1-.1h-.199l.4-.1c-.2 0 .298-.1-.1 0 .498-.1.598-.1.498-.1h-.2l-.598.1h-.499l-.598.1c-.5 0 .299-.1.1-.1h.1c.498-.1.498-.1.199-.1h-.699.2c-.3 0-.2 0 0 0h.3-.4-.3-.698.799c-.699 0-.6-.1-2.195-.1h1.197l-1.596-.099c.598 0 .997 0 1.895.1-1.496-.1-.598 0-2.095-.2h.798c-.1 0-1.197-.1-.499-.1h.599c-.1 0-.2-.1.499 0-2.594-.299 1.097.1-.898-.1.598.1.898.1 1.496.2-.698-.1.898.1-.897-.1.698.1.997.1 1.396.2-.1 0-.598-.1-.2 0 .4 0 .6.1.899.1-.799-.1-2.295-.3-4.19-.499.897.1.698.1-.6-.1.6.1 1.298.1 1.597.2 0 0 .798.1-.898-.2.4.1.1 0-.1 0 0 0 .2 0-.1-.1h-.299c-2.095-.698-.498-.498-.897-.498h.199c1.097.1-.2-.1.3 0 .1 0 .299 0 .598.1l-1.297-.2c-1.397-.2-.898-.2-.3-.1.699.1 1.597.3 1.198.2l-.798-.2c-.5 0 .498.1 1.696.3 1.097.199 2.294.398 2.594.398.2 0 .399.1.498.1 1.697.3-1.596-.299-1.895-.299.898.1 1.895.3 2.394.4.4.099-.299-.1-.898-.2-.498-.1-.897-.2-.1 0-.698-.2-1.396-.3-1.795-.4-.1 0 2.494.4.598.1.2 0 .3.1.5.1-.4-.1-.6-.2-1.597-.4 1.896.4 1.497.3 1.097.2-.399-.1-.798-.2.799.1l.299.1c.3 0-.4-.1-1.098-.3.2 0 .5.1.599.2.698.1.599.1-.698-.3l.997.2c-.2-.1.2 0 .5.1.299.1.598.1.199 0 .1 0 .2.1.399.1-.4-.1.2 0 .598.1.4.1.4.1-.798-.3l-.598-.299h-.1-.1c-.399-.1-.998-.399-1.496-.499.2 0 .997.3.997.3h-.1c1.297.498.699.2 1.597.498.299 0 1.297.2 1.596.2l-.898-.4h.2c.2.1.698.3.598.3.5.2-.3-.2-.399-.3.499.1.898.4.898.4h-.1c-.299-.2-.598-.4-.498-.3.199.1.498.2.498.2H19.376l-.599-.3c-.2-.199.2 0-.499-.298 1.098.498.898.2 1.197.299-.299-.2-.2-.2 0-.2-.2 0-.698-.399-.498-.299.997.699.598.3 1.396.798-.499-.3.1-.1-.598-.598.2.1.299.299.598.399-.1-.3.599.2.699.1-.1-.1-.3-.2-.4-.4 0 0 .1.1.3.2.1.1.3.2.3.2s-.4-.6-.1-.2c-.1 0-.2-.2-.2-.2.399.2.499.1.798.1.2-.1.499-.1.798.4-.1-.2-.1-.2 0-.2 0 0-.1-.2-.1-.4 0 0 .1.1.1.2.1.1.1.2.1.2 0-.4.2 0 .2-.4l-.1.1c.1-.399-.2-.898-.3-1.496 0 .2-.2.1-.299-.1-.2-.2-.3-.3-.399 0-.1-.1 0-.2-.1-.3 0 .2-.1.3-.2.2v-.1c-.398.1-.598-.1-1.197-.299l.2.3c-.1 0-.2-.1-.3-.2.1.4.3 0 .5.4-.5-.5-.699 0-1.198-.6-.2 0 .3.3.1.3l-.2-.2.1.2c-.1 0-.399-.2-.498-.4l.1-.099c-.3-.2-.3.1-.4 0l.3.1c-.4.499-1.198.3-1.198.698l.2.1c0 .2-.4-.1-.599 0 .1.1.1.2 0 .2-.2-.2-.598-.3-.698-.5 0 .2.1.2.599.6l-.4-.2c.2.2.4.299.3.299-.2-.1-.599-.2-.798-.4-.599-.199-.5-.099-.5 0 .1 0 .1.1-.598-.199.798.5.798.3.998.4.399.199.598.399.399.399-.1-.1-1.397-.699-1.696-.699-.4-.1.2.2-.4 0 .6.3-.199 0 .6.4l.1-.1c.099.1.997.598.199.399-.2-.2-.4-.3-.4-.3-.299-.1 0 .1-.299 0-.897-.499.1-.2-.399-.499-.498-.2.3.3-.598-.1 1.097.6-.5-.1.299.4l-.499-.3c.1 0 .2.2.2.2l-.599-.4c.4.3-.898-.199-.798 0 .3 0 .798.3 1.297.5.399.299-1.696-.599-1.995-.5 0 0 .598.1.798.2-.1 0-.499-.1-.898-.2-.1 0 .698.2.998.3-.898-.2.1.2.299.3l-.698-.3c-.799-.1 1.296.499.498.4l-.798-.4.1.1-.798-.3c.2.1.3.2.2.2h-.2c.499.2 1.197.4 1.097.499-.399-.2-.598-.3-.499-.2-.399-.2-.897-.399-.299-.2-.2-.099-.399-.099-.598-.199-.5-.1-.2 0-.2 0h.2l.698.4c-.2 0-.4-.1-.499-.2 0 0 .3.1.3.2-.5-.2-.998-.3-1.198-.5l.499.3c-.2-.1-.599-.2-.798-.2-.3 0 .798.4.399.3.1 0 .1.1.2.1-.2 0-.699-.1-.2.1l-.698-.2c.1.1.897.2.997.399.1.1-.499-.2-.698-.2.3.1.798.3.3.2 0 0-.1 0 0 0zm-.598.499s-.1-.1 0 0c.2 0 .1 0 0 0zm.698.798c-.1 0-.1 0 0 0zm8.78 1.796s.1 0 .1-.1c0 .1-.1.1-.1.1-.1.1 0 0 0 0zm-.1-1.696l-.2-.1c-.1 0 0 0 .2.1z"/><path d="M13.29 19.072s.1-.1.2-.1c-.1 0-.2 0-.2.1zM19.775 18.473c-.1 0-.1.1-.1.1l.1-.1zM19.475 20.17c0-.1 0 0 0 0l.1-.1c-.1-.1-.2 0-.1.1zM19.176 19.172c-.1.2 0 .1 0 .1.2-.2.1-.1 0-.1zM19.276 19.37c.1-.1 0-.1 0 0zM19.276 18.573s.3-.2.2-.1c.3-.2-.4.2-.2.1zM18.777 19.87l.2-.2-.2.1v.1zM18.478 19.47c.1.1.1 0 .1 0h-.1zM17.48 19.072h-.2c-.1 0-.2.1-.1.1s.2 0 .3-.1zM16.882 19.67c0-.1.1-.1.2-.2l-.4.2h.2zM16.383 19.57c-.1.1-.599.1-.4.1.2 0 .4 0 .4-.1zM15.086 18.673h.1l1.197-.2-1.297.2zM10.197 18.174c-.3.1.898 0 .499 0 .4 0 .3-.1.599 0h-1.098zM22.867 16.677v.4-.4c0 .1.1 0 0 0zM9.599 15.68h-.1l.4.1-.3-.1zM9.2 15.081s.1.1 0 0c0 0 .6.2 0 0zM26.06 28.75v-.3c-.1.1 0 .4 0 .3zM25.162 29.548c.1.4.2-.1.3 0v.1-.3c-.1 0-.2.3-.3.2zM24.763 28.749c0 .1-.1.1 0 0zM24.763 28.75c.1-.1 0-.2 0 0zM24.564 28.85v-.2c0-.1-.1-.1-.1-.2 0 .2 0 .3.1.4zM24.663 28.948c.1.1.1.1.1.3.1-.1.1-.3-.1-.3zM25.262 29.946l.1.1-.1-.1c0-.2.1 0 0 0zM24.164 28.749c0 .1.1.2.1.3v-.1c-.1-.1-.1-.1-.1-.2zM23.666 28.85c0-.2-.1-.3-.1-.4 0 0-.1.2-.1.3.1 0 .1 0 .2.1zM24.065 29.248c0-.1-.1-.2-.1-.2l.1.2zM24.464 29.447c0 .1-.1.3.1.5-.1-.2-.2-.3-.1-.5zM24.164 29.448c.1 0 0-.1 0-.2v.2z"/><path d="M24.165 29.547v-.1h-.1l.1.1zM23.666 29.148c0 .1 0 .1-.1.2.1 0 .1.1.2 0-.1 0-.1-.2-.1-.2z"/><path d="M23.765 29.448s.1 0 .1-.1c-.1 0-.1 0-.1.1zM23.366 29.148l.1.1c0-.1-.1-.2-.1-.1zM23.765 29.148v.2s.1-.1 0-.2c0 0 .1.1 0 0zM23.366 30.944c0-.2 0-.4.1-.2 0-.2-.2-.898-.3-1.297v.3c.1.1.2.2.2.498-.1.1-.1-.1-.2-.2.1.3 0 .4.1.799l.1-.2v.3zM23.366 29.448c0-.1-.1-.1-.1-.3v.3h.1z"/><path d="M23.466 29.347c0 .2 0 .4.1.599.1 0 0-.2.1-.3-.2.1 0-.1-.2-.299.1 0 .1 0 0 0v-.1.1-.1l-.1.2s.1 0 .1-.1zM24.364 30.345v-.1c.1 0 .1 0 0 .1.1 0 .1-.1 0-.2s-.2-.299-.2-.398c.1.2.2.299.2.598zM23.965 29.946l-.1.1.1.2v-.1c.1 0 0-.1 0-.2zM22.967 29.348l-.1-.2v.2h.1zM14.886 31.742l.2-.1c-.1 0-.2.1-.2.1zM19.974 30.047c.1-.2.2-.6.1-.3l-.1.3s0-.1 0 0zM16.383 32.341l-.1.1c.2-.1.3-.2.4-.3 0 0-.2.1-.3.2zM14.587 33.738l.2-.2c-.1.1-.1.2-.2.2zM15.984 29.248l-.2-.1c-.1.1.1.1.2.1zM21.271 29.847l-.1-.1c.1.1.2.3.1.1zM18.877 29.747c-.1 0-.1 0-.2.1.1 0 .2 0 .2-.1zM21.072 29.747h.1c-.1-.1-.1-.2-.1 0zM22.369 29.547c0-.1-.1-.1 0 0-.1-.1 0-.1 0 0zM18.378 26.654c-.1-.1-.1-.1 0 0zM16.981 33.538c.4-.4.4-.4.4-.3l.598-.898s-.2.3-.499.599c-.3.3-.499.599-.499.599z"/><path d="M15.485 30.445l-.4.2c-.398 0-.1-.2-.598 0 .499-.1.499 0 .4.1 0 .099-.1.299.398.099l-.3.2c-.598.399.7-.2.5.1-.1.1-.3.199-.4.199h.2c0 .1-.2.1-.2.1v.2c.2 0 .4-.1.5-.1-.2.1-.1 0-.3.1h.2c-.3.199-.599.298-.5.099-1.296.698.2 0-.598.598l-.1-.1c-.698.5-.598.4-1.097.899.3-.2 1.297-.898 1.497-.898-.1.1-.2.2 0 .1-.5.299-.4.299-.4.399l-.598.299c.1 0 .399-.2.698-.3-.1.2-.598.5-.997.799-.2.299.898-.599.798-.5-.3.3-.1.3.2.2-.3.3-.4.3-.6.4l.5-.3s-.2.1-.3.2c.2-.1.699-.5.798-.5.4-.199.1 0-.2.3-.298.3-.598.499-.199.3-.2.199-.399.299-.698.498.1 0 .1-.1.2-.1.498-.299.498-.299 1.197-.798l-.3.3c.4-.4 1.098-.798 1.597-1.197.2-.2.399-.3.498-.4l.5-.299c-.1.1-.3.3-.6.499.1 0 .1-.1.2-.1-.2.2-.598.499-.898.798l.3-.299c-.4.3-.898.698-1.198.998.1-.1.2-.1.2-.2-.1.1-.2.2-.3.2-.1.1.1-.1.3-.2l-.599.599.2-.4s0 .1-.1.1c0 .1-.1.1-.1.1.898-.598 1.896-1.397 2.395-1.696-.5.4-.699.599-1.197 1.098.498-.5-.5.299-.5.2 0 0-.199.298-.398.298l.798-.498c-.4.399-.2.299-.3.399.699-.599.699-.4.998-.599-.2.2-.499.499-.598.499-.4.499 1.097-.998.698-.499l-.2.1c.3-.2.3-.1.1.1.1 0 .698-.1 1.197-.699-.1.1-.598.699-.698.798l.998-.997c.498-.5.898-.998.898-.998-.4.499-1.098 1.696-1.497 1.995 0 .1 0 .1.3-.1 0-.1.398-.698.498-.797-.399.598-.3.299-.399.798 0-.1.599-.898.599-.898-.1.1-.5.698-.599.798 0 0 .2-.2.3-.4.199-.199.299-.398.299-.398-.1.1-.4.598-.4.798.1-.1.2 0 .3-.1v-.1c.2.1.698-1.097.898-1.097-.1.2-.4.898-.3.998.1-.2.3-.599.5-1.098.199-.399.398-.898.498-.997v.199s0-.1.1-.1c0-.1.1-.1.1-.1-.1.3-.2.699-.4 1.098-.199.399-.398.798-.598 1.097 0 .1-.1.2.1.2 0 .2-.2.3-.2.3h.3c.1-.4.399-.5.399-.799l-.2.2c-.1.1-.2.299-.2.299.1-.4.5-1.197.699-1.197 0 .1-.2.698-.2.898.1-.1.3-.3.3-.2l-.1.2c.1.1.3-.599.399-.2 0 0 .2.499.2.2-.1-.4-.1-1.796 0-2.096 0 0 .1.4.2.6.099.298 0 .797.099 1.096v-.299c.1.1 0 .3.1.3 0-.4.2 0 0-.3.1-.1.1.1.2 0-.1-.2-.1-.798 0-.997 0 .1.099.2.099.299.2 0 .3.2.399.1 0 .1.1.2.1.399v-.2c.2.3-.1.1.1.4 0-.2.1-.3.1-.5-.1-.299-.2 0-.2.1-.1-.499-.1-.997 0-1.197.1-.1.1.3.1.2.299 0 0-.898.299-.6.1.3.1.6.2.799-.1.1-.2-.2-.3-.1l.1.1c0 .1-.1.2-.1.1.1.3.4 0 .599.2v-.3.1c-.1-.2 0-.4-.1-.499 0-.2.1-.499.2-.4l.1.3c0-.1-.1-.2-.1-.1 0-.2.299.4.199 0l-.1-.2c0-.199.1-.598.2-.498-.1-.3 0 0-.2-.3.2.5-.3 0 0 .5-.2-.4-.2-.2-.3-.5 0 .1.1.2 0 .2v.1s.1.1.1.2c0 .299-.1.299-.1.399-.099 0 0-.1-.099-.2v.2c-.1-.2-.2-.4-.1-.599h-.1c-.1-.1-.199-.2-.199 0-.1 0-.1.3-.1.1l-.1.2v-.1c-.199 0-.199.498-.498.1 0 .1-.1.199-.2.1l-.1-.2c-.1.1-.299-.2-.2.1 0-.1-.099-.2-.099-.2h-.1v.399s0 .1-.1.2v.299c-.1.2-.1-.2-.199-.1 0-.1 0-.1 0 0 0-.3 0-.2-.1 0-.1.1-.2.3-.1.1-.1.1-.1.1 0 0v-.1.1l-.1.1.1-.3c0-.1-.1.2-.2.4 0 .099-.099.099-.099.199.2-.499-.2.2.1-.4-.2.3-.2.2-.599.799 0-.1.1-.1.1-.1 0-.1 0-.1-.1.1l.3-.4s-.1.1-.2.3c-.1.1-.2.3-.2.3.1-.2.2-.4.5-.699-.4.499-.2.2-.699.698l.2-.299-.2.2c.2-.3.1-.3.1-.3-.1 0-.2 0 0-.2-.898.899.399-.398-.4.3.2-.2.3-.3.6-.499-.3.2.299-.299-.4.3.3-.2.4-.3.5-.4-.1 0-.2.2-.1.1.199-.1.199-.2.299-.299-.1 0-.898.698-1.696 1.297-.1-.698-.1-.698-.699-.2.2-.2.5-.399.599-.498 0 0 .2-.3-.499.2.2-.1 0 0-.1 0 .1-.1.1-.1.1-.2l-.1.1c-.798.598-.1.1-.2.1l.1-.1c.6-.5-.199.1.5-.4l-.5.3c-.498.299-.299.2-.1 0 .3-.2.6-.4.4-.3l-.3.2c-.299.2 1.397-.898 1.497-.998.1-.1.1-.1.2-.1.598-.399-.6.3-.699.4.3-.2.798-.5.898-.5.1-.1-.1.1-.3.1-.199.1-.299.1 0 0-.199.1-.498.3-.598.3 0 0 .898-.5.2-.2.1 0 .1-.1.2-.1-.2 0-.2 0-.6.1.699-.3.5-.2.4-.2-.1 0-.3 0 .299-.199v-.1h.1c.1-.1-.1 0-.4 0h.2c.3-.1.2-.1-.2-.2h.3c-.1 0 .1-.099.2-.099s.2-.1.1-.1h.1c-.1-.1.099-.1.298-.1.1 0 .2 0-.299-.2l-.1-.099-.1-.1c-.1.1-.398-.2-.598-.2 0-.099.399 0 .399.1h-.1c.5.3.3-.1.599.1.2-.299.598-.498.798-.798l-.4-.2.1-.099c.1 0 .3.1.2.2.2.1-.1-.2-.2-.3.2-.1.4.3.4.3v-.1c-.1-.1-.3-.2-.2-.3.1 0 .2.1.3.1l.1-.1-.3-.1c-.1-.1.1-.1-.3-.199.5.2.4-.399.6-.399-.2-.2-.1-.3 0-.399-.1 0-.4-.2-.3-.2.598.4.399 0 .898.2-.4-.1.1-.3-.4-.399.1 0 .3.1.4.2-.2-.3.399-.3.399-.5-.1-.1-.2-.1-.3-.199l.5.1c0-.1-.5-.3-.1-.2-.1 0-.2-.1-.2-.1.698-.199.1-.997 1.098-.997-.2 0-.2-.1-.2-.1-.1 0-.2-.1-.3-.2h.4c-.3-.199.1-.199-.2-.398v.1c-.299-.3-.898-.3-1.396-.6.399.3-.699-.099-.2.3-.1 0-.1-.1-.3-.2.2.1.2.2.1.2-.1.2-.299.2-.598.4l.2.099h-.2c.3.3.1-.1.499.1-.5-.2-.2.399-.798.1 0 .1.299.1.2.199l-.2-.1.2.1c-.1 0-.3 0-.4-.1v-.1c-.2 0 0 .2-.1.2h.1c0 .3-.3.499-.1.798h.1c.1.3-.2.1-.2.3.1.1.1.199.1.199-.1-.1-.299-.1-.399-.2.1.3.1.2.5.5l-.2-.1c.1.1.2.199.2.299-.1-.2-.3-.1-.5-.3-.499 0 .3.5-.399.3.499.399.4 0 .499.1.2.1.3.299.3.299 0 .1-.7-.3-.799-.1-.2 0 .1.2-.1.2.3.2-.1.1.3.299v-.2c.1.1.498.5.2.5-.1-.1-.2-.1-.2-.2-.1 0 0 .1-.1.1-.4-.2 0-.2-.2-.5-.2-.1.2.3-.2 0 .5.4-.199.1.2.4l-.2-.1s.1.1.1.2l-.299-.2c.2.2-.299 0-.2.2.1-.2.3.1.5.1.2.398-.699-.2-.699.099 0 0 .2 0 .3.1h-.3c0 .2.3.1.4.299-.3-.1.1.1.1.3l-.2-.1c-.2.1.498.299.2.399l-.3-.3v.1l-.3-.2c.1.3.1.3-.1.4.2 0 .4.2.4.299-.2 0-.2-.1-.3 0-.299-.3-.498-.4-.199-.4-.1 0-.1-.099-.2-.099-.2 0-.2.2-.2.3 0 0 .1 0 .1-.1 0 0 .2.399.2.299-.1 0-.2 0-.3-.1 0 .1.1.1.1.2-.199-.1-.498-.1-.498-.2 0 0 0 .1.1.2 0 .1.1.2.1.2-.1 0-.4.099-.4 0-.2.099.3.398 0 .598 0 0 .1 0 .1.1-.1.2-.598.399-.3.498l-.598.2c0 .1.699-.3.798 0 .1.1-.498.2-.598.2.2.1.698.1.1.299-.2 0 0-.1-.1-.1zm-.699 1.796c-.1 0-.299 0 0 0 .4-.3.1-.2 0 0zm.998.798c-.2.1-.2 0 0 0 0-.1 0-.1 0 0zm6.185-3.292c-.1-.1-.1-.1 0 0zm.1.1v-.1.1zm-1.895-2.694c-.1-.1-.1 0 0 0z"/><path d="M14.786 33.638c.1-.1.2-.1.2-.2l-.2.2zM20.673 32.44l-.1-.1c0 .1 0 .1.1.1zM22.568 29.248v.2c.1-.1 0-.2 0-.2zM23.666 30.745c0-.1 0 0 0 0v-.2c-.1 0-.1.1 0 .2zM22.867 30.046c.1.2.1.1.1.1 0-.3-.1-.2-.1-.1z"/><path d="M22.967 30.145c.1 0 .1 0 0 0 .1-.1.1 0 0 0zM22.17 29.648v-.2c0-.3-.1.4 0 .2zM23.067 30.845l-.1-.3v.2l.1.1zM22.568 30.744l.1.1v-.1c0-.1-.1-.1-.1 0zM22.967 30.944v-.1h-.1l.1.1zM21.67 30.844v.1c0 .1 0 .2.1.1-.1-.1 0-.1-.1-.2zM22.17 31.543c0-.1-.1-.1-.1-.2l.1.3v-.1zM21.87 31.642c0 .1-.1.3 0 .3.1-.1.1-.2 0-.3zM18.378 33.438c.1.1.2-.4.3-.3.099-.199-.1-.1 0-.299-.1.2-.1.1-.3.599z"/><path d="M18.677 32.84l.1-.1c0 .1 0 .1-.1.1zM22.169 23.162l.3.2-.3-.2c.1.1.1 0 0 0zM13.39 33.139l.1-.1c.2 0 .2-.1.3-.1l-.4.2zM14.687 31.443l.498-.2-.498.2zM14.786 30.245v.2c0-.2.6-.3 0-.2zM32.346 38.427c0-.2-.2-.1-.3-.1.1.3.4.1.3.1zM33.044 41.22h-.1l.3.4-.2-.4zM33.542 43.814c.3-.3-.299-.898-.2-1.397l.1-.1-.399-.2c.2.6.5 1.298.5 1.697zM33.143 45.51c.1-.1.2.3 0-.3v.1c-.1 0-.1 0 0 .2zM33.044 45.21c-.1-.3-.1.2 0 0zM33.542 46.408l-.299-.3c-.1.1 0 .4-.1.3.3.399.3.299.4 0zM33.942 46.707l-.1-.2c-.1.1 0 .1.1.2z"/><path d="M33.542 46.208l.3.4c0-.1.2-.1-.1-.2.1-.1 0-.1-.2-.2zM33.542 45.909c0-.2 0-.5.2-.2-.3-.599-.499-.399-.2.2zM34.041 43.913v-.299l-.2-.2c.1.1 0 .5.2.5zM34.24 48.702c.1 0 .2-.2.2-.299l-.2-.2c.1.2.1.4 0 .5z"/><path d="M34.44 48.403l.2.2.2.2c-.2-.4-.3-.4-.4-.4zM34.34 46.607l-.498-.598.598.698-.1-.1zM34.939 50.099l-.3-.1.5.3-.2-.2zM35.538 51.097c-.2-.1-.1.399-.3.2.2.199.4.398.699.498-.2-.2-.3-.399-.4-.698zM36.237 51.995c-.1-.1-.2-.1-.3-.2.1.1.2.1.3.2zM35.039 49.4c0 .1-.1.2-.1.4l.1-.3c.1 0 .1-.1 0-.1zM35.139 49.5c.1.2.1.3.1.3.1 0 0-.1-.1-.3zM35.039 49.3c0 .1 0 .1 0 0 .1.1.1 0 0 0zM34.54 47.605c.2.2.499.599.499 0-.1 0-.1.3-.5 0zM35.239 49.002l-.1-.4c-.1 0-.1.1-.2.1l.3.3zM35.438 49.202l-.2-.2.1.2h.1zM36.036 51.197c.2.1.3.299.4.498-.1-.2-.2-.498-.3-.698-.1 0-.2 0-.1.2z"/><path d="M36.137 50.998c-.1-.2-.2-.3-.3-.3l.3.3c.1 0 .1 0 0 0zM36.735 52.494c0-.1 0-.2-.1-.3 0 0 0 .3.1.3zM35.637 50.498c-.1.1 0 .1 0 0zM35.637 50.498c.1.1.2.1.3.1-.1 0-.2-.1-.3-.1zM39.528 53.092c-.2.1-.698-.1-.698-.599-.4-.2-.798.4-.898.998.1-.1.2-.1.499.1 0-.2-.4-.898 0-.799.399.4.2.4.3.699.099-.4.797.3.997-.1 0 0-.1-.1-.2-.1-.1-.1-.2-.1-.2-.1s.2 0 .2-.1zM37.333 52.793l-.1-.1c.1.2.1.399.1.698.3.2.4.2.5.1 0 0-.1-.2-.3-.4-.1-.099-.2-.298-.2-.298zM36.834 52.094c.3 0 .6.3.699-.1-.3-.399-.4-.2-.599-.399.4.599-.399-.1-.1.499-.1-.1-.199-.2-.299-.399.1.1.1.3.2.399 0 0 0-.1 0 0h.1c-.1 0-.1 0 0 0-.1 0 .1.2 0 0h-.1l.598.599c-.2-.2-.299-.3-.498-.599zM35.737 47.904s.1.1 0 0zM35.737 48.203c-.1 0-.2 0-.2-.2 0-.199.1 0 .2-.099-.1-.1-.3-.3-.3.1h.1c.1.3 0 .798-.1.798.2-.1.3-.3.3-.599zM36.236 50.099l.499.499v-.4l-.1.1c-.2-.299-.3-.199-.4-.199zM37.832 53.69l-.3.1.6.1-.3-.2zM38.431 54.389l-.2.1h.2v-.1zM76.042 44.313c.1-.1 0-.1 0 0zM58.783 62.07c.3.2.698.5.599.2l-.1-.2h-.5zM71.553 54.489h-.1v.3c0-.1.1-.2.1-.3zM70.954 53.69l.4-.1c-.1-.1-.2 0-.4.1zM76.442 35.733l-.3-.2c.1.4.2.2.3.2zM45.913 59.976c.2.2.4.299.499.399-.2-.3-.3-.5-.499-.4zM78.836 44.114c0-.1-.1-.2-.1-.2 0 .1 0 .2.1.2zM47.21 60.674l-.1-.1c-.2 0-.399-.1-.598-.199.1.2.399.4.698.3zM50.004 26.056c.1 0 .2.1.2.2 0-.1-.1-.1-.2-.2zM41.025 57.083c-.2-.2-.1 0 0 0zM49.505 59.876c-.1-.1 0 0 0 0z"/><path d="M40.825 56.783c0 .1.1.2.1.2.1 0 0-.1-.1-.2zM40.825 56.883c0-.1-.1-.1-.1-.1-.1 0-.1 0 .1.1zM41.225 57.183c-.1-.1-.2-.1-.2-.2v.1s.1 0 .2.1zM70.855 32.84s-.1 0 0 0c-.2.1-.1.1 0 0zM63.472 58.08c-.1.4-.3.4-.499.4l.4.598v-.5c0-.199.099-.498.099-.498z"/><path d="M76.74 39.823l-.199.4c-.3-.5-.2-.899-.499-.5.4.1.4.5.4.898 0 .4-.1.798.299.898l-.2.3v-.2c-.399.499.499.499.2 1.197-.1.2-.2.4-.3.2v.599c-.1.199-.2.099-.1-.1l-.199.798c.1.2.2.498.2.598-.2.2 0-.1-.2-.1v.599c-.3.1-.3-.3-.2-.599-.798.2.1.4-.698 1.198l.1-.5c-.499.1-.499.5-.898.899.2 0 .998-.699.998-.1-.1.1-.2.3-.2.599-.3-.1-.3.199-.399.498l-.3-.2c0 .4.1.4.2.7-.2.398-.499.298-.798.298-.399.5.599-.2.3.5-.2.199-.3.398-.4.698-.1.2-.1.498-.2.798-.298.299-.199-.2-.298-.1l.1.399c-.1.1-.1 0-.1 0-.1.3.299.2.1.698.199.3-.998.4-.998 1.098-.2 0-.1-.2-.3-.2-.299.798-.299.599-.399 1.397 0 0-.1.1-.299.1-.1.1-.3.1-.3.1.5-.1.4.498.2.997h.5l-.4.698c-.1 0-.1-.1-.2-.299v.2c-.299.1-.299-.2-.299-.4h.3c0-.299-.1-.598-.3-.698 0 .1 0 .2-.1.2 0-.1 0-.1-.1-.1 0 0 0 .1-.1.2l-.398-.2.1.1-.4.2-.398.199-.3 1.197c-.2.4-.399.798-.798 1.197.1-.399-.2-.399-.399-.698.4.1.599-.599 1.097-.898-.2.2-.299 0-.299-.1 0 0-.1.2-.3.4-.099.199-.298.398-.298.398-.1-.2-.3-.1-.599 0 .2.2.1.4-.1.5-.2.199-.499.299-.598.498-.1-.2-.1-.399.299-.598-.698-.1-.3.897-.898.897.1-.1.2-.1.2-.2-.1.3-.799.5-.799.3l.1-.1c-.399.1-.898.4-1.297.699-.399.299-.798.598-.798.798 0-.1-.1-.599-.1-.699 0 0 0 .1-.1.3-.1.2-.199.399-.299.698l-.399.998c0-.4-.798-1.197-.2-1.596-.199 0-.398 0-.797.299.1 0 .498.499.299.598-.599-.299-.4-.1-1.097-.399.199 0 .199.699-.1.798 0-.1-.2-.598-.1-.698 0 0-.1.2-.3.4-.1.199-.299.398-.299.398.2-.2-.1-.499-.299-.698.1.1-.598.1-.798.2l.3.1c-.799.099-.7.997-1.597 1.097.1-.1.2-.799-.3-.898l-.498.997c-.3.4-.599.799-.998.898l-.2-.2s-.199.1-.299.1c-.2.1-.299.1-.299.1.4-.499 1.397-1.596 1.896-1.995-.3-.1-.1-.2-.599-.2-.2-.2.2-.299.4-.299H55.89c.1.4-.798.4-.798.698l.598-.2.599-.199c0 .2-.1.5-.4.699-.299.2-.698.399-1.097.3-.2-.2.2-.7.2-.8-.1.1-.699.2-.798.1l.299-.199c-.4-.2-.698.499-1.197.1-.2 0-.5-.499-.5-.3.2.5.2 1.796-.099 2.096 0 0-.3-.1-.499-.3-.299-.2-.498-.399-.598-.498-.2-.4.598-.699.399-1.098 0 .1-.2.2-.3.2-.199-.1.1-.3-.299-.3-.1.4-.798-.2-.3.3-.398 0-.398-.1-.897-.3.1.3-.599.699-1.097.699.1-.1 0-.2 0-.3-.4-.1-.699-.299-.998-.498-.3-.2-.599-.3-.898-.5 0-.099-.3-.398-.1-.498-.1 0-.299.1-.498 0-.3-.499.498.2.399-.3-.1.2-.699 0-1.098 0-.1.4.699.4 1.098.4-.2.399-.998.698-1.796.399-.699-.2-.1-.4-.2-.4-1.097-.698-1.397.2-2.095-.698-.2-.498.3-.498.4-.698.498.2.598.599.897.798l-.3-.399c.2 0 .5.2.7.3-.2-.4-1.797-1.198-2.295-1.996-.2 0-.5-.1-.5.1l.3.2c.1.399-.698-.1-.399.199-.4-.1-.998-.3-1.297-.798l.2-.3c-.1.1.1.4.299.4-.3-.1-.4-.898-.798-.799 0 0 0 .1.1.2 0 .1.1.2.1.2-.4-.2-1.098-.3-1.397-.799-.1.4.1.1.1.599.1-.599.997.998.897.3 0 .598.4.598.5 1.296.099-.1 0-.3.298.1h.1c0-.1-.1-.2-.1-.3.2 0 .4.1.599.2l.599.3c.2.2-.2 0-.1.2l.399.099c-.1.2.3.798-.3.499l.5.399c.199.299.598.598.897.698.2.2.699.1.4.2l.897.299v.1c.4.2.798.399 1.297.498.499.2.898.4 1.297.799.3 0 .599.1 1.097.299v.2c.4.1 1.098.598 1.297.399.1.299.599.498 1.098.598.499.1 1.097.1 1.397.2l.1-.3c.498.1.897 0 1.496 0v-.299c.499-.1 1.297.3 1.995.3-.1.1-.3.1-.399 0 .499.299.998.199 1.397.1.499-.1.898-.3 1.396-.1.2-.1.4-.1.5-.1h-.1.1c.1 0 .199.1.299.1-.1-.1-.2-.1-.3-.1.2 0 .4-.1.599-.2l.1.3h.1c.299.1.199-.2 0-.3.1-.1.199-.1.299-.2.299.4.598-.299.898.2.1-.2 1.097-.399 1.097-.898 0 .1.1.1 0 .1.3 0 .499 0 .698-.2l.2.3.399-.599c.4.1.599.2.3.499.698-.699.598-.3 1.097-.998l.1.2c.199-.1.498-.5.698-.4.399.1.997-.199 1.696-.598.399-.2.798-.399 1.097-.599.4-.199.798-.398 1.098-.498-.599-.4.698-.2.499-.599.199.1.399 0 .299.3.499-.5 1.097-.5 1.197-1.198.2.1 0 .3.1.3 0-.1.1-.3.2-.2.099 0 0 .2-.1.3.598-.5.299-.998.1-1.298.398-.1.498-.299.498-.698.2 0 .499 0 .2.3.1-.1.498-.3.698-.6.3-.299.499-.598.3-.698.1 0 .299-.299.299-.299.399-.399.399-.499.798-.998l-.1.1c-.2-.399.2-.399.399-.898.798-.798.1-.499.998-1.197l-.3-.1c-.399-.399.798-.698.898-1.297l-.2.1c0-.2.3-.3.6-.399.299-.1.598-.2.797-.399.1 0 0 .1 0 .3.699-.7-.299-.3-.1-.899.2 0 .4.3.6-.1.199-.199-.1-1.496.398-1.895-.2.1-.399.2-.399-.2.1-.498.898-1.097.5-1.596l.099-.1c0-.398 0-1.197-.2-1.496.5-.1.5-.698.4-1.197 0-.499-.2-.998.299-.998v-1.097h.1c.1-.699-.2-.998-.4-1.197.1-.2.1 0 .2 0 .2-1.098.1-1.197-.4-1.996l.3-.1c0-.1-.1-.199 0-.398v-.6c0-.498 0-1.096-.3-1.595 0 0 .1 0 .1.1-.299-.5-.199-1.297-.398-1.896-.1-.4-.2-.898-.4-1.197-.199-.3-.399-.5-.598-.4 0 0-.1-.199-.3-.398-.1-.2-.299-.3-.299-.3.2.599.1.699 0 .699s-.299 0-.299.299c-.1-.1-.1-.499-.1-.698 0-.3 0-.4.2-.2v.1c.2-.2.1-.599-.1-.998l-.1-.2s-.1 0-.1.1c-.1 0-.199.1-.199.1-.1.1-.2 0-.2-.1-.498.4-1.097.699-1.596 1.098l-.399.3c-.1 0-.2.099-.2.099l-.199.1-.2-.3-.598.3c-.2.1-.4.1-.599.2-.399.099-.798.298-1.197.398l.3.3s-.1.1-.3.1c-.1 0-.3.1-.3.1-.199 0-.298-.3.1-.3-.299-.2-.598.399-.598.499-.798.1.2-.599-.1-.5l-.299.1h.1c-.2.2-.2.4-.699.5-.299 0-.2-.2-.299-.2h-.2l-.698.1.3.299c-.3.2-.699.1-.3.399-.1-.1-.399-.2-.698-.2h-.998c-.3 0-.698.1-.898.1-.299 0-.499 0-.499-.1-.498.2-.897.2-1.496.2.1.1.2.499-.3.399.2-.698-.897-.399-1.197-.998.1.2-.199.2-.498.2-.3 0-.599 0-.4.3-.398-.1 0-.3-.199-.5-.997.1-1.995-.698-3.093-.898-.1.1.1.3-.2.3l-.398-.699c-.2 0-.4.5-.699 0 0 .1.1.2-.1.2-.997-.698-1.995-1.197-3.092-1.796a7.538 7.538 0 01-1.397-1.097c-.399-.4-.798-.898-.997-1.497.1.4-.1.2-.3.1.1.1-.2.2-.299.3 0 0-.1-.2-.2-.5-.1-.1-.1-.199-.1-.299v-.2c-.398.1-.698-.797-.997-.698l.2.2c-.599-.1-.4.997-.799 1.297.3 0 .4.399.599.798.2.399.4.798.898.798.1.2-.2 0-.2.2.3 0 .5.2.799.498h-.1c.499.4.898.699 1.197 1.098.399.399.798.698 1.397 1.197v-.3c.299.2.299.3.399.5.498-.1-.798-.5-.2-.699 0 .798 1.995 1.098 1.995 1.796.4.2 0-.3.4-.1l.1.2.199-.2c.3.2.399.4.3.499-.1 0-.2 0-.3-.1.3.3 1.197.4 1.297.5l-.4-.3c1.298.399 2.894.997 4.29.898l-.1-.1c.5 0 .7.1.899.1.2.1.399.2.997.2.2-.1.5-.1.798-.1-.299.1.5.299.1.498 1.098-.2.599-.2 1.297-.698l.2.2c.2-.2.3-.3.798-.4-.4.2.399.3-.1.599 1.197.399 1.696-.599 2.295 0 .2-.3 0-.4-.3-.3-.299 0-.598.1-.399 0-.299-.199.4-.398.699-.498.299-.1.698.598 1.596.399-.1 0-.1.1-.2.1.4.1.599-.3 1.098-.2.1-.399.499-.1.499-.598l-.798.299c.399-.3.698-.898 1.496-.898 0 .1-.2.3-.3.399.3.1.4-.2.7-.2.099.5-.899.4-1.298.898.3.1.898-.598.698 0 .1-.399.3-.399.6-.399.298-.1.598-.1.797-.498l.1.299c.1-.1.2-.3.4-.3l-.7.5c.4-.5.998-.1 1.397-.5-.498.3-.598.2-.598.1s0-.299-.2-.299c.5-.4.699-.4.998-.3.1 0 .3.1.499.1.1 0 .2 0 .3-.1h-.1c-.1 0-.2 0-.1-.199h.2c.099 0 .099.1.099.1.1-.1.1-.2.1-.3 0-.1-.1-.1 0-.299.1.3.1-.299.399-.498l-.1.399c.2 0 .2-.2.3-.5 0-.099 0-.099.099-.199 0-.1 0-.1.1-.1 0 0 .1.1.1.3l-.3.299.1.1s0 .1-.1.2c0 .1-.1.199-.1.199.2-.1.2.1.2.3.1-.2.399-.4.499-.1-.1.299-.2.1-.1.299-.2 0-.399.1-.2-.2-.1 0-.199.1-.199.1-.1.1-.1.2 0 .2 0 .1.1 0 .1.199v-.1h.1c.1.1.1.2.199.2.2.2.3.399.3.399-.1.2-.2.1-.3 0 .1.2.2.2.3.499-.2 0-.4.1-.6-.3l.4.699c-.1.1-.2.498-.3.399 0 .499.6.997.5 1.596 0 0 .1.1.1.2 0 .299-.1.598-.1.798 0 .299 0 .598.199.898l-.4.399c.1.498.5-.5.7.399.099.598-.3.2-.4.399.2.299.599.898.2 1.396v-.299zm-1.197 6.385c0-.1-.1-.399.1-.499.2.3.1.3-.1.5zm-5.088 8.58c0-.1.2-.2.3-.2 0 .1-.1.2-.3.2zM42.82 58.18s.1 0 0 0c.3.2.2.1 0 0zm-.399-.499c-.1 0-.1 0 0 0l.2.2s0-.1-.2-.2zm26.04-26.138h.099c-.2.2-.1.1-.1 0z"/><path d="M71.054 53.79c.1 0 .1 0 .1.1 0-.1 0-.2-.1-.1zM52.099 59.377c.1.1.2.1.2.2 0-.1 0-.1-.2-.2zM39.428 55.786s.1.1.2.1c.1.1.2.1.2.1-.2-.1-.2-.2-.2-.3-.1 0-.1.2-.2.1zM38.331 51.995c-.1 0-.1-.1-.1-.1h-.1c.1.2.3.3.2.1zM39.828 54.888c.1-.2-.1-.3-.3-.5-.3.2 0 .3.3.5zM39.429 54.29l-.2-.2c-.1.1.1.1.2.2zM41.623 57.282c-.1-.1-.3.2-.3.1-.199.1.999.299.3-.1zM40.227 54.19l-.2.2h.3l-.1-.2zM41.623 55.786l-.299-.4h-.2c.3.3.5.5.5.4z"/><path d="M41.225 55.487c-.1-.1-.2-.2-.3-.2 0 0 .2.1.3.2zM40.626 54.489l.1.1.2.3s-.1-.1-.1-.2l-.2-.2zM45.614 58.579s.1 0 .2.1c.1 0 .199.1.199.1.1-.1 0-.2-.2-.2-.1 0-.2-.1-.2 0zM44.716 57.182c.1.1.1.2.1.3l.2-.3h-.3zM46.013 57.781c.1-.1.698.1.2-.2-.1.1-.6 0-.2.2zM52.597 60.475h-.1v.498l.1-.498zM58.883 59.078c-.599-.1-.1.399-.599.2-.1.199.4.1.3.199.299-.1.498 0 .299-.4zM58.584 59.577c-.1 0-.1.1-.2.1.1-.1.1-.1.2-.1zM49.405 24.86l-.1-.3v.2l.1.1zM48.707 24.56l.2-.3h-.4c.1.1.2.2.2.3zM74.546 46.807c.2 0 .2 0 .3-.2l-.3.2zM76.042 38.626c0 .2.1.3 0 .499 0-.4.4-.599 0-.499zM72.251 74.242s.2-.1.3-.1c-.1 0-.4.1-.3.1zM71.553 73.943l.1-.1-.3.1h.2zM71.354 73.444c-.4.2.1.2 0 .3h-.1l.3-.1s-.3-.1-.2-.2zM72.052 72.845c-.1.1-.1 0 0 0 0 .1 0 .1 0 0zM72.052 72.945s.1-.1 0 0zM71.852 72.745h.2c.1 0 .1-.1.1-.1-.1-.1-.1 0-.3.1zM71.853 72.745h-.1c-.1 0-.3.1.1 0-.1 0-.2.1 0 0zM71.753 72.845c-.1.1-.1.1-.3.1.2.1.4 0 .3-.1zM70.954 73.543c0 .1.1 0 0 0zM71.953 72.247c-.1 0-.2.1-.3.2h.1c0-.1 0-.2.2-.2zM71.653 72.346h-.2c0 .1.1 0 .2 0z"/><path d="M71.154 72.945h.4l-.4-.1v.1zM71.852 71.948l.2-.1-.3.1h.1zM71.752 71.748c.2 0 .2-.1.4-.2h-.3s0 .1-.1.2zM71.453 72.147l.2-.1-.2.1zM71.254 72.645c-.1 0-.3 0-.5.1.2 0 .3-.1.5-.1zM71.154 72.346v.1c.1 0 .1-.1.2-.1h-.2zM71.354 71.748c-.1 0-.1 0-.2-.1v.2c.1 0 .2 0 .2-.1zM71.154 71.947c0 .1 0 0 .1 0h-.1s0-.1 0 0zM71.353 71.448l-.1.1c.1 0 .2-.1.1-.1zM69.558 71.748c.2-.1.399-.1.2.1.199 0 .897-.3 1.196-.5-.1 0-.2.1-.3 0-.099.1-.199.3-.398.3-.1-.1 0-.1.1-.2-.2.1-.4 0-.798.2h.2c-.1.1-.2.1-.2.1zM71.054 71.449c.1 0 .1-.1.3-.2h-.3v.2z"/><path d="M71.154 71.648c-.2.1-.4 0-.599.2.1.1.2 0 .3 0-.1-.1.199 0 .299-.2 0 .1 0 0 0 0h0c.1 0 .1 0 0 0 0 0 0-.1 0 0h.1l-.2-.1.1.1zM70.455 72.745h.1c-.1.1-.1.1-.1 0 0 .1.1.1.2 0l.3-.3c-.2.1-.4.2-.5.3zM70.756 72.246l-.2-.1-.2.1.1-.1c0 .2.2.1.3.1zM71.154 71.249l.2-.1-.3.1h.1zM69.458 67.06c.2-.1.4-.3.2-.2l-.2.1v.1zM65.966 65.163l.1-.1c0 .1 0 .1-.1.1zM63.971 61.472l-.3.1c.1.1.2 0 .3-.1zM70.256 69.453c.1-.1.1-.1.1-.2-.1.1-.3.3-.1.2zM67.263 61.97h-.2c.1.1.1.1.2 0zM70.356 69.154c0 .1.1.1.1.1 0-.1.1-.1-.1-.1zM70.855 70.351c.1.1.1 0 0 0zM66.465 67.059c.3-.1.3 0 .2 0l.598-.3-.798.3z"/><path d="M64.47 62.27l-.2.2c-.4 0-.3-.1-.499.099.698-.3.2.3.898 0l-.1.1c-.299.2.5-.1.5.1 0 .1-.1.1-.2.1h.2s-.1.1-.1 0l.1.199h.398c-.1.1-.1 0-.2.1h.2c-.2.1-.399.1-.399 0-.698.399.2 0-.1.399l-.1-.1c-.398.2-.199.2-.398.399.1-.1.598-.499.798-.4 0 0-.1.1.1.1-.3.1-.2.1-.1.2l-.3.1c.1 0 .3 0 .5-.1 0 .1-.3.2-.5.3 0 .2.4-.3.5-.1-.1.2.099.2.298.2-.1.1-.2.1-.299.1h.3s-.1 0-.1.099c.1 0 .299-.1.498-.1.4-.1-.498.4 0 .3-.1.1-.199.1-.299.1h.699l-.2.199c.2-.2.599-.2.798-.2.1-.1.2-.1.3-.2l.199.1s-.2.1-.3.1h.1c-.1.1-.299.2-.498.2.1 0 .1-.1.2-.1-.2 0-.5.1-.7.2h.1-.1.1l-.398.199.199-.1-.2.3c.4 0 .998-.1 1.297 0-.299.1-.498.199-.798.299.3-.2-.2-.1-.2-.2 0 .1-.199.1-.199.1l.4.1c-.3.1-.2.1-.3.2.499-.3.4 0 .599 0-.2.1-.4.1-.4 0-.398.299.699-.1.4.1h-.1c.2 0 .1.199-.1.199 0 .2.2.498.599.299-.1 0-.5.2-.599.2l1.596-.3c-.399.1-1.297.599-1.496.499 0 .1-.1.1.1.2 0 0 .498-.3.598-.3-.399.3-.2.2-.499.4.1-.1.699-.3.699-.2-.1 0-.599.2-.699.2l.699-.1c-.1 0-.5.199-.699.299.1-.1 0 .1.1.1l.1-.1c0 .2.898-.2.898 0-.1 0-.798.3-.798.399.299-.1 1.496-.4 1.796-.4l-.3.5h.2c-.5.1-1.497.299-1.896.299-.1.1-.2.1-.1.2-.1.1-.299 0-.299 0v.299c.3-.2.4 0 .698-.1l-.498-.1c.299-.2 1.097-.3 1.097-.1-.1.1-.599.2-.798.3.1 0 .3.1.2.1h-.2c-.1.1.499 0 .2.199 0 0-.4.3-.2.2.399-.2 1.596-.699 1.895-.799l-.498.5c-.3.199-.798.199-.998.398.1 0 .2-.1.3-.1-.1.1-.3.1-.2.2.399-.1 0 .2.299-.1.1 0 0 .1 0 .2.2-.1.798-.2.998-.2-.1 0-.2.1-.3.1 0 .2-.1.3 0 .499-.1 0-.2.2-.299.2h.2c-.3.199-.1-.1-.4.1.2-.1.3 0 .5 0 .299-.1 0-.2-.2-.2.399-.2.998-.2 1.197-.2.2.1-.3.2-.2.2 0 .299.898-.1.6.2-.3.199-.6.199-.799.299-.1-.1.1-.2.1-.3l-.1.1c-.1 0-.2 0-.1-.1-.2.2.1.4 0 .699.1 0 .2 0 .3-.1h-.1c.2-.1.399 0 .399-.1.2 0 .499 0 .399.2l-.3.2c.1 0 .2-.2.1-.1.2 0-.399.299.1.199l.2-.2c.2 0 .598 0 .499.1l.299-.2c-.4.2-.1-.299-.5 0 .4-.199.1-.199.5-.398-.1 0-.2.1-.2 0h-.1l-.1.1c-.299.099-.299-.1-.398-.1 0-.1.1 0 .2-.1h-.2c.2-.1.299-.3.499-.2v-.1c.1-.1.1-.2 0-.2 0-.099-.3 0-.1 0l-.2-.099h.1c0-.2-.499-.2-.2-.499-.1 0-.2-.1-.1-.2l.2-.099c-.1 0 .1-.3-.1-.2.5-.299 0-.399 0-.498l-.299.1c0-.1-.1-.1-.3-.2l-.199.1c-.2 0 .1-.3 0-.4.1 0 .1 0 0 .1.5-.399-.499-.2-.2-.499-.099 0-.099 0 0-.1l.1-.099c-.1 0-.1.1-.1.1l-.099-.1.2-.1c.1-.1-.1 0-.3.1h-.2c.4-.2-.199-.1.2-.3-.2.1-.2-.199-.698 0h.1c0-.099.1-.099-.1-.099l.3-.2-.5.1c.2-.1.3-.2.5-.3-.4 0-.2-.099-.6 0l.2-.099s-.3 0-.2-.1c.4-.299-.199-.499.1-.997-.598.299.2-.2-.299-.1.1-.1.2-.1.3-.2-.2-.1.1-.299-.3-.2.1-.099.2-.099.3-.099h-.1.2c-.1-.1-.5 0-.999.2.2-.2.1-.2-.2-.1.1-.1.3-.2.3-.1 0-.1.1-.399-.3-.3.1 0 0-.099 0-.099 0-.1 0-.1-.099-.2v.1c-.399.1-.1-.1-.2-.1.2-.299-.199 0 .1-.398l-.2.1c-.598.199.2-.3 0-.3l-.099.1c-.2 0 .698-.5.698-.599h.1c.3-.3-.3.1-.499 0 .2-.1.5-.2.5-.2.099-.1-.7 0-.4-.299-.1.1-.3.2-.399.1-.1-.1.4-.399 0-.3 0 0 .1 0 .1-.099-.1 0-.3-.1-.499-.1.798-.399-.599-.2.2-.598l-.1-.2h.1c0-.2-.2-.1-.4-.1 0-.1.1-.1.2-.1.1-.299 0-.299-.399-.299l.3-.1c-.2 0 .299-.399-.1-.498h.1c-.4-.1.498-.798-.5-.5h-.299c0 .2-.399.1-.599.3-.1 0 .2-.3.3-.2.499-.199.1-.299.399-.398-.2-.3 0-.799-.1-1.098l-.399.2v-.1c.1-.1.3-.2.3-.1.199-.1-.2-.1-.3 0 .1-.2.499-.1.499-.2l-.1-.1c-.2 0-.3.1-.399 0 .1-.099.2-.099.2-.199v-.2l-.3.2c-.2 0 0-.1-.399.1.5-.3 0-.599.1-.698-.3 0-.3-.1-.3-.2-.099.1-.398.2-.398.1.698-.2.2-.3.698-.599-.3.2-.2-.2-.599.1 0-.1.3-.1.4-.2-.3-.1 0-.498-.2-.698-.1 0-.2.1-.4.1l.4-.3c-.1 0-.599.2-.3 0-.1 0-.199.1-.199.1.3-.598-.698-.798-.1-1.596l-.2.1s-.199.1-.398.1l.3-.3c-.4.1-.1-.2-.4-.1h.1c-.4.1-.798.5-1.297.7.499-.1-.599.498.1.398-.1.1-.2 0-.3.1.2 0 .3 0 .2.1h-.1c.1.2 0 .399-.1.698l.2-.1c0 .1-.1.1-.1.2.4-.1 0-.2.4-.3-.5.3.199.4-.4.699 0 .1.3-.1.3-.1l-.1.1.2-.1c0 .1-.2.2-.3.2h-.1c-.2.2.1.2.1.2l.1-.1c.2.199.2.598.598.698l.4-.3c.298.1-.1.2.099.4.1 0 .2 0 .2.1-.2 0-.2.199-.4.199.3.1.2 0 .699 0l-.2.1c.2 0 .3-.1.4 0-.2 0-.3.2-.5.2-.299.398.6.099 0 .498.6-.1.2-.3.4-.3.2-.1.399-.1.399 0s-.599.4-.599.6c-.1.099.2 0 0 .199.3-.1 0 .1.4 0l-.2-.1c.1 0 .698-.1.498.2h-.299c-.1.1.1 0 0 .1-.399.199-.2-.1-.499-.1-.2.1.4.1-.1.199.6-.2 0 .2.5.1l-.3.1h.2l-.3.1c.3 0-.2.299 0 .299-.1-.2.3-.2.4-.3.398.1-.6.4-.4.599 0 0 .1-.2.2-.2 0 .1-.1.2-.2.3.1.1.2-.1.4-.1-.3.2.199 0 .299.1l-.3.1c-.1.299.5-.2.4.1l-.4.099.1.1-.3.1c.3 0 .2.1.2.199.2-.1.5-.2.5-.1-.1.1-.3.1-.2.2-.2 0-.4.1-.2-.1-.1 0-.2 0-.3.1-.099.1 0 .2 0 .2v-.1h.4c-.1.1-.2.1-.3.1h.2c-.2.1-.399.199-.499.1l.3.099c-.1 0-.2.2-.3.2-.1.1.5.1.4.299h.1c0 .1-.2.299.099.399v-.2c.1.1.399-.3.598-.2.2.1-.299.2-.399.3.3 0 .699-.1.4.1 0 0 0 .1 0 0zm.698 1.197c-.1 0-.2 0-.1-.1.3 0 .1.1.1.1zm1.397 1.796c-.1 0-.1 0 0-.1v.1zm3.99 4.788s0 .1 0 0zm-.1.2h.1-.1c-.1 0 0 0 0 0zm-5.187-12.57c-.1 0 0 0 0 0z"/><path d="M66.066 65.163s.1 0 .1-.1c0 0 0 .1-.1.1zM67.562 69.254l.1-.1c0 .1-.1.1-.1.1zM71.154 70.75c-.1 0-.1 0-.2.1.1-.1.2-.2.2-.1zM69.857 71.947s0 .1 0 0h.2-.2zM70.356 71.149c-.2.1-.1.1-.1.1.3-.1.2-.1.1-.1zM70.256 71.249c.1 0 .1.1 0 0 .2 0 .1 0 0 0zM70.655 70.35s.3-.1.2 0c.3-.1-.4-.1-.2 0zM69.657 71.449l.3-.1h-.3v.1zM69.657 70.95v.1h.1c0-.1 0-.1-.1-.1zM69.358 70.052l-.1-.1c-.1 0-.1.1-.1.1h.2zM68.76 70.55s.1-.1.2-.1l-.3.1h.1zM68.56 70.351c-.1 0-.3 0-.2.1.1 0 .2 0 .2-.1zM68.46 68.755v.1l.499-.2-.499.1zM66.664 68.056c-.1.2.3-.1.2.1.1 0 .1-.1.2-.2-.1 0-.1 0-.4.1zM63.871 53.291l.1-.1-.2.1h.1zM63.372 53.291l.3-.2-.3.2c.1 0 .1 0 0 0zM64.57 63.966l.2-.1-.2.1zM64.37 62.969l.3-.2-.3.2zM63.671 62.27c0 .1.1.1 0 0 0 .1.4-.1 0 0zM46.412 78.332l.2.1c0-.1-.3-.1-.2-.1zM46.013 77.734l-.2-.1.2.1zM46.113 77.135c-.4 0 0 .2-.1.3h-.1l.3.1c-.1-.1-.3-.3-.1-.4zM47.01 77.035c-.2 0-.2 0 0 0-.1.1-.1.1 0 0-.1.1-.1.1 0 0zM46.91 77.135c0 .1.2 0 0 0zM46.91 76.835l.1.1c.1 0 .1-.1.2 0 0-.1-.1-.1-.3-.1zM46.611 76.736c.1.1.1.1 0 0z"/><path d="M46.812 76.936l-.1-.1c-.1 0-.2-.1.1.1-.1-.1-.2-.1 0 0zM46.712 76.936c-.1 0-.2.1-.3 0 .1.1.3.1.3 0zM45.614 77.035h-.1l.1.1s.2 0 0-.1zM47.21 76.436h-.3l.1.1s.1-.1.2-.1z"/><path d="M46.911 76.437l-.1-.1c-.1.1 0 .1.1.1zM46.212 76.636l.3.2-.3-.2zM47.31 76.137l.1.1-.2-.1h.1zM47.31 75.938c.2.1.3 0 .4.1 0-.1-.1-.1-.3-.2 0 .1 0 .1-.1.1zM47.21 75.738s.1.1.2.1c-.1 0-.1-.1-.2-.1zM46.412 76.537c-.1-.1-.2-.2-.499-.1.2 0 .4-.1.499.1zM46.512 76.237c0 .1.1.1.1.1l-.1-.1zM46.412 76.137l.1.1v-.1h-.1zM47.011 75.838l-.1-.1c-.1 0-.1.1-.1.1s.2.1.2 0zM46.711 75.838c.1.1 0 0 0 0zM46.911 76.038s-.1 0-.1-.1l.1.1zM45.414 74.84c.2 0 .4.2.2.2.2.1.898.2 1.297.2-.1 0-.2 0-.3-.1-.1 0-.299.1-.498 0-.1-.1.1-.1.2-.1-.3 0-.4-.2-.899-.2h0zM46.811 75.44h.3c-.1-.1-.2-.1-.2-.1l-.1.1z"/><path d="M46.811 75.638c-.2-.1-.3-.199-.599-.199 0 .1.2.1.3.2 0-.2.1.1.299 0 .1.1.1.1.1 0h-.1c.1 0 .1 0 0 0 .1 0 .1 0 0 0 .1 0 .1-.1 0 0h.1v-.2c-.1 0-.1.1-.1.2zM45.614 76.137c.1 0 .2 0 0 0 0 .1 0 .1-.1 0 .1 0 .2.1.3.1.1 0 .398-.1.398-.1h-.598zM46.213 75.839l-.1-.2h-.2.1c-.1.2.1.2.2.2zM47.11 75.24l.2.1-.3-.1h.1zM47.11 75.14h.2l-.1-.1-.1.1zM47.809 70.95c.2 0 .5 0 .3-.1l-.3.1c.1-.1.1-.1 0 0zM47.01 67.757c-.1 0-.1 0 0 0l.1.1-.1-.1zM46.013 67.558h.2c-.1-.1-.2 0-.2 0zM46.213 63.368l-.2-.1c0 .1.1.1.2.1zM47.31 73.344c.1 0 .2-.1.2-.1-.2 0-.4 0-.2.1zM48.707 65.562l-.1-.1c0 .1.1.1.1.1zM47.51 73.144v.1c.1 0 .2-.1 0-.1zM45.414 69.353c.3.1.2.1.2.2l.698.1-.898-.3z"/><path d="M46.212 64.265l-.2.1c-.298-.2-.199-.2-.498-.2.798.2 0 .4.798.5h-.2c-.398 0 .5.199.4.299-.1 0-.2.1-.3 0l.2.2h-.1v.199c.1 0 .3.1.4.2h-.2l.2.099c-.2 0-.4-.1-.3-.2-.798-.1.2.1-.3.2l-.199-.2c-.399 0-.3.1-.598.1.1 0 .698-.1.897.1-.1 0-.1.1 0 .1-.299-.1-.2 0-.2.1h-.398c.1.1.3.1.399.199-.1.1-.3 0-.599 0-.1.1.5 0 .5.2-.2.1 0 .2.199.399-.1.1-.2-.1-.3 0l.3.1h-.1c.1.1.399.1.399.199.399.1-.599.1-.2.3-.1 0-.2-.1-.399-.1.3.199.2.199.599.398l-.3.1c.3 0 .6.1.799.3h.3l.199.2c-.1 0-.2 0-.3-.1h.1c-.1 0-.3 0-.499-.1h.2c-.2-.1-.4-.2-.699-.2 0 0 .1 0 .1.1h-.1l.1.1h-.399.2l-.3-.1c.4.2.898.399 1.098.698-.3-.1-.499-.1-.798-.2.399 0-.1-.199 0-.299-.1.1-.2 0-.3 0l.3.3c-.3-.1-.2 0-.3 0 .599.1.3.2.5.299-.2 0-.4-.1-.3-.2-.4 0 .599.3.2.3l-.1-.1c.2.1 0 .2-.2.1-.1.1-.1.499.4.598-.1 0-.6-.1-.7-.2l1.497.6c-.399-.1-1.396-.2-1.596-.4-.1 0-.1.1 0 .2.1 0 .599 0 .599.1-.5 0-.3 0-.699.1.1 0 .699.1.699.199-.1 0-.599-.1-.699-.2l.599.3c-.1-.1-.499-.1-.698-.1.1 0 0 .1 0 .2h.2c-.1.199.797.299.797.498-.1 0-.798-.2-.898-.1.3.1 1.497.5 1.696.699h-.2l.2.2c-.498-.2-1.396-.6-1.795-.799-.2 0-.2 0-.2.1-.2 0-.2-.1-.3-.1l-.199.2c.4.1.3.2.699.3l-.3-.3c.4.1.998.299.898.499-.2 0-.698-.2-.798-.2.1 0 .2.2.1.2l-.2-.1c-.2.1.5.2.1.3 0 0-.499 0-.3.099.4 0 1.797.3 2.096.399 0 0-.4.1-.699.1-.299 0-.798-.2-1.097-.2.1 0 .2.1.3.1-.1 0-.3-.1-.3 0 .4.1-.1.2.3.1.1.1-.1.1-.1.2.299 0 .798.299.897.398h-.299c-.1.2-.3.2-.3.4-.099 0-.199.1-.398 0 .1 0 .2.1.2.1-.3 0 0-.1-.4-.1.2 0 .3.199.4.299.299 0 .1-.1 0-.2.498.1.897.3 1.097.499.1.2-.3 0-.3 0-.1.2.799.399.4.499-.3 0-.6-.1-.799-.1-.1-.1.2-.1.2-.2l-.2.1c-.1-.1-.2-.1-.1-.2-.299 0-.1.4-.398.5.1.1.2.1.299.1v-.1c.3 0 .3.2.399.1.2.1.399.299.2.299h-.3c.1 0 .2 0 .1-.1.1.1-.499.1-.1.2h.3c.199.1.498.299.398.398h.4c-.5 0 .1-.299-.5-.299.5 0 .2-.1.6-.1-.1 0-.2 0-.1-.1H46.71c-.299-.1-.2-.199-.299-.299h.2l-.2-.1c.3 0 .399-.1.599.1v-.1c.2 0 .2-.1.1-.199.1 0-.3-.2-.1-.1l-.1-.2h.1c.1-.199-.3-.398.1-.498-.1-.1-.1-.1 0-.2h.199c-.1-.1.3-.2 0-.2.598 0 .2-.299.3-.398l-.3-.1c0-.1 0-.2-.1-.3h-.3c-.199-.1.2-.199.2-.398.1 0 .1.1 0 .1.599-.1-.299-.4.1-.5-.1-.1 0-.1 0-.1h.1-.1s0-.099-.1-.099h.3c.1 0-.1-.1-.3-.1 0 0-.1-.1-.2-.1.4 0-.099-.1.3-.1-.2-.099-.1-.299-.599-.398h.1c.1 0 .1-.1 0-.1h.3l.2-.499c.199 0 .298 0 .598.1-.4-.2-.1-.2-.5-.4h.2s-.299-.199-.1-.199c.4 0 .2-.499.6-.698-.7-.1.298-.1-.2-.2.2 0 .2 0 .399.1-.1-.2.299-.2-.1-.3.2 0 .2.1.3.1 0 0-.1-.1 0-.1.099 0 .099 0 .199.1 0-.199-.499-.299-.898-.398.2 0 .2-.1-.1-.2.1 0 .3 0 .3.1 0 0 .299-.3-.1-.3.1 0 0-.1 0-.1 0-.099.1-.099.1-.199h-.1c-.4-.1-.1-.1-.1-.2.3-.1-.1-.1.3-.299h-.3c-.599-.1.399-.1.2-.299h-.2c-.2-.1.798 0 .898-.1.1 0 .1 0 .1.1.399-.1-.3-.1-.4-.2.2 0 .5.1.5 0 .199 0-.6-.398-.2-.398-.2 0-.3 0-.4-.1 0-.1.6-.1.2-.3h.1c-.1-.1-.2-.299-.399-.399.898.1-.4-.499.499-.399v-.2h.1c.1-.099-.1-.199-.3-.299h.2c.2-.2.2-.199-.2-.399h.3c-.2-.1.498-.2.2-.498h.099c-.3 0 .898-.1-.1-.4l-.2-.199c-.1.2-.399-.1-.598-.1 0-.1.3-.1.399 0h-.1c.5.1.2-.2.599-.1 0-.399.399-.698.499-.997h-.4v-.1c.1 0 .3 0 .3.1.2 0-.2-.2-.3-.2.2-.1.5.2.5.1v-.1h-.1c-.2-.1-.3-.1-.3-.2.1-.099.3 0 .3 0l.1-.099h-.3c-.1-.1 0-.1-.3-.1.6 0 .3-.499.5-.598-.2-.1-.2-.2-.1-.3-.1 0-.4 0-.4-.1.7.2.4-.1.899-.1-.4 0 0-.298-.599-.298.1-.1.3 0 .499 0-.2-.3.3-.4.2-.699-.1 0-.3 0-.4-.1h.5c0-.1-.6-.2-.2-.2h-.2c.599-.398-.2-1.097.798-1.396-.2 0-.2 0-.2-.1-.099 0-.199 0-.398-.1l.399-.1c-.4-.099 0-.199-.3-.298l.1.1c-.399-.2-.898-.1-1.496-.2.499.2-.699.1-.1.399-.1 0-.2-.1-.3-.1.2.1.3.1.1.2h-.1c0 .299-.199.299-.398.598h.299c0 .1-.1.1-.2.1.4.1.1-.2.5 0-.6 0-.1.399-.7.399 0 .1.3 0 .3.1h-.2l.2.1c0 .1-.3 0-.399 0v-.1c-.2 0 0 .2 0 .3l.1-.1c.1.299-.2.598.1.897h.1c.199.2-.2.1-.1.3.1.1.2.1.1.199-.1-.1-.3 0-.5-.1.2.3.2.1.6.4h-.2c.2.1.299.1.299.199-.2-.1-.3 0-.499-.1-.499.1.4.4-.3.4.6.199.4-.1.5 0 .2 0 .399.199.299.199 0 .1-.798 0-.798.2-.2 0 .2.199-.1.199.3.1 0 .1.4.2l-.1-.2c.1.1.598.3.299.399-.1 0-.2-.1-.3-.1-.1 0 .1.1-.1.1-.398-.1-.1-.2-.398-.4-.2 0 .299.2-.2.1.599.2-.1.2.3.4l-.3-.1s.2.1.1.1l-.3-.1c.3.2-.299.1-.1.3 0-.2.3 0 .5 0 .299.298-.699 0-.599.298 0 0 .2-.1.3 0-.1 0-.2.1-.3.1 0 .2.3 0 .399.1-.3 0 .1.1.2.2l-.1-.5c-.2.2.499.2.3.3l-.4-.2.1.1-.3-.1c.2.1.1.2 0 .2.2 0 .5.1.5.2-.2 0-.2-.1-.2 0-.2-.1-.4-.1-.1-.1-.1 0-.2-.1-.2-.1-.199 0-.1.2-.1.2h.1l.3.398c-.1 0-.2 0-.3-.1l.2.2c-.2-.1-.399-.1-.499-.2l.2.2h-.4c-.1.1.4.3.2.4 0 0 .1 0 .1.1-.1.099-.4.199-.1.398h-.399c.1.1.499 0 .599.2.1.2-.3 0-.5 0 .2.1.6.299.2.399 0-.1.1-.1 0-.2zm0 1.397c-.1 0-.2-.1-.1-.1.3.1.2.1.1.1zm.2 2.195c-.1 0 0 0 0 0 .1 0 .1 0 0 0zm.798 6.185c-.1 0-.1 0 0 0 .1-.1 0-.1 0 0zm-.2.1h.1s0-.1-.1 0c0-.1 0-.1 0 0zm2.395-13.169c-.1-.1 0-.1 0 0z"/><path d="M47.31 74.84c0-.1-.1 0-.2 0h.2zM45.614 75.24l.2.1c-.1-.1-.2-.2-.2-.1zM46.412 74.74c-.2 0-.2 0-.1.1.3.1.2 0 .1-.1zM46.312 74.84c.1.1 0 0 0 0zM47.11 74.242c-.1 0 .3.1.2.1.3.1-.3-.2-.2-.1zM46.013 74.242v.1s.1-.1 0-.1zM45.614 74.541l.1-.1-.1.1zM46.213 73.344l-.1-.1h-.1c.1 0 .1.1.2.1zM45.415 73.444h.2l-.3-.1.1.1zM45.415 73.145c-.1 0-.2-.2-.2-.1s.1.2.2.1zM46.113 71.848l.498.1-.498-.1zM45.015 70.251c-.2.1.3.1.2.2.1.1.2-.1.3 0-.2-.1-.1-.1-.5-.2zM50.602 56.583l.1-.1h-.2l.1.1zM50.203 56.284l.4.1-.4-.1c.1 0 .1 0 0 0zM45.913 64.764l-.1.1h.4l-.3-.1zM45.614 63.866v.1s.4 0 0-.1zM33.443 75.938l-.1-.2s.1.3.1.2zM32.744 76.836c.2.399.1-.1.3 0v.1l-.1-.4c-.1.1-.1.3-.2.3zM32.145 76.038c.1.2 0 .2 0 0 .1 0 .1 0 0 0zM32.245 76.038s-.1-.1 0 0zM32.046 76.238v-.2c0-.1-.1-.1-.1-.2-.1.2 0 .3.1.4zM32.046 76.337v.1c.1.1.1.2 0-.1.1.1.1.2 0 0zM32.145 76.337c.1.1.1.1.1.3.1-.1 0-.4-.1-.3zM32.844 77.235c.1 0-.1-.2 0 0zM31.547 76.137c0 .1.1.2.1.3v-.1l-.1-.2z"/><path d="M32.245 76.936v-.3l-.1.3h.1zM31.348 76.238l-.1-.2.1.3v-.1zM31.148 76.338c0-.2-.1-.2-.1-.4v.3c-.1 0 0 0 .1.1zM31.547 76.636l-.1-.2.1.2zM31.946 76.835c0 .1 0 .3.1.5 0-.2-.1-.3-.1-.5zM31.747 76.936c.1 0 0-.1 0-.2v.2zM31.747 77.035v-.1h-.1l.1.1zM31.148 76.736c0 .1 0 .1-.1.2h.1c.1-.1.1-.3 0-.2zM31.348 76.935v-.1.1s-.1 0 0 0zM30.948 76.736l.1.1c-.1-.1-.1-.2-.1-.1zM31.248 78.531c-.1-.2-.1-.399.1-.199 0-.2-.3-.898-.5-1.197 0 .1.1.2 0 .3.1.099.3.199.3.398-.1.1-.1 0-.2-.1.1.2 0 .4.2.798v-.199s0 .1.1.2zM30.949 77.036c0-.1-.1-.1-.2-.3v.3h.2z"/><path d="M31.048 76.935c.1.2 0 .4.2.599.1 0 0-.2 0-.3-.1.1 0-.199-.2-.299.1 0 0 0 0 0v-.1.1c0-.1 0-.1 0 0 0 0 0-.1 0 0 0-.1 0 0 0 0v-.1l-.1.1c0 .1.1 0 .1 0zM32.245 77.834s-.1-.1 0 0c-.1-.1-.1 0 0 0zM32.146 77.734v-.1.1c.1 0 .1-.1 0-.2l-.3-.3c.1.1.1.3.3.5zM31.647 77.335l-.1.2.1.2v-.1c.1 0 0-.2 0-.3zM30.75 76.936l-.1-.3v.4l.1-.1zM30.55 77.036l-.1-.3v.2l.1.1zM29.352 80.527c.1.2.3.5.2.2l-.2-.2c.1.1.1.1 0 0z"/><path d="M31.248 77.434l.1.1s0-.1-.1-.1zM34.74 75.839v-.2c-.1-.1 0 .1 0 .2zM29.053 77.634c-.1 0-.1-.1-.1-.1.1.2.2.3.1.1zM28.753 77.634s.1 0 0 0h.1c0-.1-.1-.2-.1 0zM30.05 77.235c-.1 0-.1-.1 0 0-.1-.1-.1 0 0 0zM29.552 77.634c0 .3 0 .3-.1.2l.2.698-.1-.898z"/><path d="M34.041 76.237l-.1-.2c0-.398.1-.299-.1-.598.2.699-.299.2-.1.898l-.099-.1c-.2-.299.1.599-.1.5-.1 0-.1-.1-.1-.2l-.1.2s-.099-.1 0-.1l-.099.1v.398c-.1-.1 0-.1 0-.2v.2c-.1-.2-.1-.399 0-.399-.3-.698 0 .2-.3-.2l.1-.1c-.2-.398-.2-.199-.399-.498.1.1.4.599.3.798 0 0-.1-.1-.1.1-.1-.3-.1-.2-.2-.1l-.1-.3v.5c-.1 0-.199-.3-.299-.5-.1 0 .2.4.1.5-.1-.1-.2.1-.2.299-.1-.1-.1-.2-.1-.3v.3-.1c0 .1.1.3 0 .499.1.399-.299-.499-.299 0-.1-.1-.1-.2-.1-.3-.099.3-.099.2-.099.699l-.2-.2c.2.2.2.6.1.898.1.1.1.2.1.3l-.1.2c0-.1-.1-.2-.1-.3v.1c-.1-.1-.1-.3-.1-.5 0 .1.1.1.1.2 0-.2-.1-.498-.1-.698v.1l-.1-.4v.2l-.199-.598c0 .399.1.997-.1 1.197 0-.3-.1-.499-.199-.798.2.299.1-.2.2-.2-.1 0-.1-.2-.1-.2l-.1.4c-.1-.3-.1-.2-.2-.3.2.5 0 .4 0 .599-.1-.2-.1-.399 0-.399-.199-.4.1.698-.1.399v-.1c0 .2-.199.1-.199-.1-.2 0-.399.1-.3.6 0-.1-.099-.6-.199-.7l.2 1.597c-.1-.4-.499-1.297-.4-1.596-.099 0-.099-.1-.099.1l.2.598c-.2-.399-.1-.2-.4-.599.1.1.2.699.1.699 0-.1-.2-.599-.2-.698v.698c0-.1-.099-.499-.199-.698.1.1-.1 0-.1.1l.1.099c-.2 0 .1.898-.1.898 0-.1-.199-.798-.299-.798.1.3.3 1.596.2 1.796l-.1-.2v.2c-.1-.5-.2-1.497-.2-1.896-.1-.1-.1-.2-.2-.2-.099-.199 0-.299 0-.299h-.199c.1.4 0 .4.1.699l.1-.4c.1.4.2 1.098 0 1.098-.1-.1-.2-.698-.2-.798 0 .1-.1.3-.1.2v-.2c-.1-.1-.1.1-.1.2l.7 1.995c0-.1 0-.2.099 0 0 0 .3.399.2.2-.2-.4-.699-1.597-.799-1.996 0 0 .3.3.4.499.199.299.199.798.398.997 0-.1-.1-.2-.1-.299.1.1.1.3.2.2-.1-.4.2 0-.1-.3 0-.1.1 0 .2 0-.1-.2-.2-.798-.2-.997 0 .1.1.2.1.299.2 0 .3.1.4.1 0 .1.199.2.199.299v-.2c.2.3-.1.1.1.4-.1-.2 0-.3 0-.5-.1-.299-.2 0-.2.1-.2-.399-.2-.997-.2-1.197.1-.2.2.3.2.2.2 0-.1-.798.2-.599.2.3.2.599.299.798-.1.1-.2-.1-.3-.1l.1.1c0 .1 0 .2-.1.1.2.2.4-.1.6.1 0-.1 0-.2-.1-.3v.1c-.1-.2 0-.399-.1-.399 0-.2 0-.499.1-.399l.1.3c0-.1-.1-.2-.1-.1 0-.2.299.399.199-.1l-.2-.2c0-.2 0-.598.1-.498l-.2-.3c.2.4-.199.1 0 .5-.199-.4-.199-.1-.398-.5 0 .1.1.2 0 .2v.1l.1.1c.1.299-.1.299-.1.398-.1 0 0-.1-.1-.2v.2c-.1-.2-.3-.299-.2-.498h-.1c-.1-.1-.199-.1-.199 0-.1 0 0 .299 0 .1l-.1.199v-.1c-.2 0-.1.499-.498.1 0 .1 0 .2-.2.1l-.1-.2c0 .1-.3-.1-.2.1-.299-.499-.398 0-.498-.1l.1.3c-.1 0-.1.1-.2.299l.1.2c0 .099 0 .099-.1.099l.698 1.995c.1 0 .2.2.3.1 0 .1 0 .1-.1 0 .3.499.2-.499.499-.1 0-.1 0-.1.1 0l.1.1c0-.1-.1-.1-.1-.1l.1-.1.1.3c.099.1 0-.1-.1-.3v-.199c.199.4.1-.2.199.3 0-.2.2-.2 0-.699v.1c.1 0 .1.1.1-.1l.1.3v-.5c.1.2.199.3.199.599 0-.399.1-.2.1-.599l.1.2s0-.3.1-.2c.199.4.498-.1.897.2-.2-.599.2.2.1-.2.1.1.1.2.1.4.1-.2.299.199.2-.3.099.1 0 .2.099.3v-.1.2c.1-.1 0-.5-.1-.998.1.2.2.1.1-.2.1.1.1.3.1.3.1 0 .299.1.2-.2 0 .1.099 0 .099 0h.2c-.1-.4.1-.1.1-.2.298.2 0-.2.298.1l-.1-.3c-.199-.598.3.3.3 0l.599.4c0-.2.399.698.498.798v.1c.3.299-.1-.3 0-.5.1.2.1.5.2.5.1.1 0-.699.3-.3-.1-.1-.1-.299-.1-.399.1-.1.399.5.299 0v.1c0-.1.1-.3.1-.499.299.898.299-.598.498.3l.2-.1v.1c.1 0 .1-.2.1-.4 0 0 0 .1.1.2.199.1.199.1.299-.399l.1.3c0-.2.399.299.498 0v.1c.1-.4.699.598.5-.4l.099-.3c-.2 0-.1-.398-.2-.598.1-.1.3.2.2.3.1.498.3.1.399.498.3-.1.698.1 1.098 0l-.2-.399h.1c.1.1.1.3 0 .3.1.199.1-.2.1-.3.199.1.1.499.1.499h.099c0-.2 0-.399.1-.399.1.1.1.2.1.2h.1l-.1-.3c0-.2.1 0 0-.399.299.499.598 0 .698.2 0-.3.1-.3.2-.3 0-.1-.2-.399-.1-.399.2.699.299.3.498.798-.2-.299.2-.2 0-.598.1 0 .1.3.2.399.1-.3.4.1.599-.1 0-.1-.1-.2-.1-.399l.3.4c0-.1-.1-.6.099-.3 0-.1-.1-.2-.1-.2.599.3.798-.598 1.497.1-.1-.2-.1-.2 0-.2 0 0-.1-.199-.1-.398l.3.299c-.1-.4.199-.1.099-.4v.1c0-.399-.4-.897-.499-1.396.1.499-.399-.599-.399.1-.1-.1 0-.2-.1-.3 0 .2 0 .3-.1.2v-.1c-.199.1-.399-.1-.698-.1l.1.3c-.1 0-.1-.1-.1-.2.1.4.2 0 .2.4-.2-.5-.4.099-.599-.5-.1 0 .1.3 0 .3l-.499-.1v.2c-.1 0-.2-.2-.2-.3v-.1c-.1-.2-.199.1-.199.1l.1.1c-.2.2-.499.1-.599.499l.1.1c-.1.299-.2-.1-.3.1 0 .099 0 .199-.099.199 0-.2-.2-.2-.2-.4-.1.3 0 .2 0 .699l-.1-.2v.4c0-.2-.199-.3-.099-.5-.3-.398-.2.5-.4-.1.1.6.3.3.2.4.1.2.1.399 0 .399s-.299-.698-.498-.599c-.1-.1-.1.2-.2 0 .1.3-.1 0 0 .4l.1-.1c0 .1 0 .698-.2.499v-.3c-.1-.1 0 .1-.1 0-.1-.399.1-.1.1-.499-.1-.2-.1.4-.2-.1.1.6-.199 0-.099.5l-.1-.6v.2-.399c0 .3-.2-.2-.299 0 .2-.1.1.3.3.5-.1.398-.3-.6-.5-.4 0 0 .2.1.2.3-.1 0-.1-.1-.2-.2-.1.1.1.3.1.399-.1-.3 0 .2-.1.3l-.2-.4c-.199-.1.1.599-.099.4v-.4l-.1.1-.1-.3c0 .2-.1.2-.199.1.1.2.1.5.1.5-.1-.1 0-.3-.1-.2 0-.2-.1-.4.1-.2v-.3c-.1-.199-.2 0-.2 0h.1l-.1.4c-.1-.1-.1-.2-.1-.3 0 0 0 .2-.1.2-.099-.2-.099-.399-.099-.598l-.1.598c0-.1-.2-.2-.2-.3-.099-.099-.099.5-.299.3v.1c-.1 0-.299-.3-.299.1l-.2-.4c-.1.1.2.5.1.6-.1.199-.1-.3-.2-.4 0 .3 0 .699-.099.4 0 0-.1 0 0 0zm-1.197.5s0-.2 0 0c.2.199.1.099 0 0zm-1.596 1.196c-.1-.1 0 0 0 0 0 .1 0 .1 0 0zm-1.597-.499c-.1 0 0 0 0 0zm.2.1v-.1c-.1.1-.1.1 0 .1-.1.1-.1 0 0 0zm8.38.1c0-.2 0-.1 0 0z"/><path d="M31.347 77.534s0 .1.1.1c-.1 0-.1-.1-.1-.1zM28.953 80.328l-.1-.1.1.1zM30.25 76.835c0 .1 0 .1.1.2-.1-.1-.2-.1-.1-.2zM31.447 78.233v-.2c-.1.1-.1.2 0 .2zM30.55 77.734c.1.2.1.1.1.1 0-.4 0-.2-.1-.1zM29.851 77.335s-.1-.3 0-.2c-.1-.3 0 .4 0 .2zM30.949 78.433l-.2-.3.1.2.1.1zM30.45 78.332h0c0-.1 0 0 0 0zM30.849 78.532l-.1-.1.1.1zM29.652 78.631l-.1.1c0 .1.1.1.1.1v-.2zM30.15 79.23s-.1-.1-.1-.2l.1.3v-.1zM29.95 79.43c0 .1 0 .3.1.2-.1-.1 0-.2-.1-.2zM28.554 79.53v-.1l-.2-.5.2.6zM28.654 77.734c-.1-.1.1.3-.1.2 0 .1.1.1.1.2 0-.1.1 0 0-.4zM42.322 76.636l.1.1-.1-.1zM42.322 76.237l.1.3-.1-.3c0 .1 0 0 0 0zM32.445 76.137l.1.2-.1-.2zM33.443 76.137l.1.3-.1-.3zM34.041 75.439s0 .1 0 0c0 0 .2.4 0 0zM34.44 84.418l.1.2-.1-.2zM34.44 83.82v.1l-.1-.2.1.1zM34.54 83.82c-.2-.4 0 .1-.1 0v-.1l.1.3v-.2zM34.94 84.618c-.1-.2 0-.2 0 0z"/><path d="M34.939 84.518v.1c0 .1.1.1.1.2 0-.1 0-.2-.1-.3zM34.84 84.218c.1.1.1.1 0 0z"/><path d="M34.94 84.418v-.1c-.1-.1-.1-.2 0 .1 0-.1-.1-.2 0 0zM34.84 84.319c0-.1-.1-.1-.1-.3 0 .1.1.4.1.3zM34.44 83.42l-.1-.1.1.1c0 .1-.1 0 0 0zM35.139 84.618c0-.1-.1-.2-.1-.3v.1c.1 0 .1.1.1.2zM34.74 83.82l.1.3-.1-.3zM35.238 84.618l.1.2-.1-.3v.1zM35.338 84.518c0 .2.1.3.1.4 0 0 0-.2-.1-.4 0 .2.1.2 0 0zM35.039 84.218l.1.2-.1-.2zM34.84 83.92c0-.1-.1-.3-.2-.5.1.2.2.3.2.5zM35.239 84.219v-.1l-.1-.1c0 .1.1.2.1.2z"/><path d="M35.338 84.318s0-.1-.1-.1c.1 0 .1.1.1.1zM35.139 84.218c.1.1.1.1 0 0zM34.84 82.622c.099.2.099.4 0 .2 0 .2.298.897.498 1.197 0-.1-.1-.2-.1-.3-.1-.1-.2-.199-.2-.399 0-.1.1.1.1.2-.1-.4-.1-.499-.299-.898l.1.2c0-.1-.1-.2-.1-.2z"/><path d="M35.238 84.019c0 .1.1.1.1.3.1-.1 0-.2-.1-.3z"/><path d="M35.238 84.019c-.1-.2-.1-.3-.2-.599 0 0 .1.2.1.3 0 0 0 .2.1.299 0 .1 0 .1 0 0 0 .1 0 .1.1.1-.1 0-.1 0-.1-.1 0 .1 0 .1 0 0 0 .1 0 .1 0 0 0 .1 0 .1 0 0v.1-.1zM34.64 83.121v0s0 .1.1.2c0 .1.199.299.199.399-.2-.2-.2-.4-.3-.599zM34.94 83.52v-.1l-.1-.2v.1s0 .1.1.2zM35.438 84.119v.3l-.1-.4.1.1zM35.438 84.119l.1.2-.1-.1v-.1zM36.735 83.62c.1.2.2.5.1.3l-.1-.3s0 .1 0 0zM37.134 81.924c-.1 0-.1-.1 0 0v0zM36.735 80.926l.1.1s-.1 0-.1-.1zM37.832 80.029l-.1-.2c0-.1 0 0 .1.2zM35.937 83.82c0 .1.1.1.1.1-.1-.1-.2-.3-.1-.1zM38.331 82.822v-.1c-.1 0-.1.1 0 .1z"/><path d="M36.036 83.919c0 .1.1.2 0 0zM35.338 83.221v-.1c-.1.1-.1.1 0 .1zM38.93 80.527c-.1-.1-.1-.1 0 0zM36.136 80.926c.1.3.1.3 0 .2l.3.698-.3-.898z"/><path d="M37.633 80.228l-.1-.2c-.1-.399 0-.2-.2-.499.3.699-.1.1.2.799l-.1-.1c-.2-.3.2.499.1.399l-.1-.2v.2s-.1-.1 0-.1v.1c0 .1.1.3.1.399-.1-.1 0-.1-.1-.2v.2c-.1-.2-.1-.399-.1-.399-.299-.698 0 .2-.2-.2v-.1c-.199-.398-.099-.199-.299-.498.1.1.3.598.3.798 0-.1-.1-.1 0 .1-.1-.3-.1-.2-.1-.2l-.1-.3c0 .1.1.3.1.4 0 0-.1-.3-.2-.499-.1 0 .2.4.2.499-.1-.1-.1 0 0 .2-.1-.1-.1-.2-.1-.3l.1.3s0-.1-.1-.1c0 .1.1.299.1.399.1.399-.3-.499-.1-.1 0-.1-.1-.2-.1-.3.1.3 0 .2.1.6l-.1-.2c.1.2.2.598.3.798.1.1.1.2.1.3v.199c0-.1-.1-.2-.1-.3v.1c-.1-.1-.1-.3-.2-.499 0 .1.1.1.1.2-.1-.2-.1-.4-.2-.599v.1l-.199-.399.1.2-.1-.4c.1.4.3.998.3 1.198-.1-.3-.2-.5-.3-.798.1.299 0-.2.1-.1l-.1-.2.1.3c-.1-.3-.1-.2-.1-.3.2.5.1.4.1.5-.1-.2-.1-.4-.1-.3-.2-.4.2.598 0 .3v-.1c0 .199 0 .1-.1-.1-.1 0-.2.1 0 .498 0-.1-.2-.498-.2-.598l.5 1.596c-.1-.399-.5-1.297-.6-1.496 0 0-.099-.1 0 0 0 .1.2.598.2.598l-.299-.598c0 .1.3.698.2.698 0-.1-.2-.599-.2-.698l.2.598c0-.1-.2-.499-.3-.698v.1l.1.1c-.1-.1.3.897.2.798 0-.1-.3-.799-.3-.799.1.3.5 1.497.5 1.696l-.1-.2v.2c-.2-.499-.4-1.496-.6-1.795-.099-.1-.099-.2-.099-.2-.1-.2-.1-.3-.1-.3l-.1-.099c.1.399.1.399.2.698l-.1-.399c.1.4.3.998.3.998-.1-.1-.2-.599-.3-.798v.2l-.1-.2c-.1-.1.1.499 0 .2l-.1-.2c.2.399.6 1.696.7 1.995l-.3-.599c-.1-.299-.3-.798-.4-.997 0 .1.1.2.1.3 0-.1-.1-.3-.1-.3.1.399-.099 0 .1.3 0 .099-.1-.1-.1 0 .1.199.3.797.3.897 0-.1-.1-.2-.1-.3-.1 0-.2-.199-.2-.199 0-.1-.099-.2-.099-.3 0 .1.1.2 0 .2-.1-.299 0-.1-.1-.399.1.2.1.3.1.4.1.299.1 0 0-.1.2.399.3.898.3 1.197 0 .1-.1-.3-.1-.2-.1 0 .2.799 0 .5-.1-.3-.2-.6-.3-.799 0-.1.1.2.1.1v-.1c-.1-.2-.1 0-.3-.2 0 .1 0 .2.1.3.1.2.1.3.1.399 0 .2.1.399 0 .3l-.1-.3c0 .1.1.2.1.1 0 .1-.2-.4-.1 0l.1.2c0 .199.1.498.1.398.1.3 0 0 .2.3-.2-.5.1 0-.1-.5.2.4.1.2.3.5 0-.1-.1-.2 0-.2v-.1s-.1-.1-.1-.2c-.1-.299 0-.299-.1-.398 0 0 0 .1.1.2l-.1-.2c.1.2.2.399.2.499.099.1.099.199.099.1 0 0-.1-.3 0-.1v-.2.1c.1 0 0-.4.2 0v-.1l.1.2c0-.1.099.199.099 0 .2.498.2.1.2.199l-.1-.2v-.2l-.1-.199c0-.2.1.1.2.1 0 .1 0 .1 0 0 .299.499 0-.399.199-.1 0-.1 0-.1 0 0 0 0 0 .1.1.1 0-.1-.1-.1-.1-.1v-.1l.1.3c0 .1 0-.1-.1-.3v-.199c.2.4 0-.2.2.3-.1-.2 0-.2-.2-.6v.1s.1.1 0 0l.1.3-.1-.4c.1.2.1.3.2.6-.1-.4 0-.2-.1-.6l.1.2s-.1-.299 0-.1c.199.4.199 0 .399.3-.2-.599.1.3 0-.2.1.1.1.2.1.4 0-.2.199.199 0-.2.1.1.1.2.1.3 0 0 0-.1 0 0 0 .099 0 .099.099.199 0 0-.1-.5-.3-.898.1.2.1.2 0-.1.1.1.1.3.1.3s.2.199 0-.2c0 .1 0 0 0 0h.1v-.1c-.1-.399 0-.1 0-.2.2.3 0-.199.2.2l-.1-.3c-.2-.498.2.3.1.1l-.1-.1c-.1-.199.3.7.399.799v.1c.2.299-.1-.3-.1-.4.1.2.2.5.2.5.1.1-.1-.6 0-.3-.1-.1-.1-.3-.1-.399 0-.1.3.499.1 0v.1c0-.1 0-.2-.1-.499.3.898 0-.499.3.3v-.1.1c.099 0 0-.2-.1-.4 0 .1.1.1.1.2.099.1.099.1 0-.3l.099.3c0-.2.2.399.2 0v.1c0-.3.399.698.1-.3v-.3c-.1-.099-.1-.398-.2-.598 0-.1.2.3.2.3.199.499.099.2.299.499.1-.1.299.199.399.1l-.2-.4c0 .1.1.3.1.3.1.199 0-.2-.1-.3.1.1.1.499.2.499 0-.2-.1-.3-.1-.3.1.1.1.2.1.2h.1l-.1-.3c0-.199.1 0-.1-.298.2.499.2.1.3.299-.1-.2 0-.2 0-.2 0-.1-.2-.399-.1-.399.299.699.199.3.398.799-.1-.3.1-.1-.2-.6 0 0 .1.3.2.4 0-.3.2.1.2 0s-.1-.2-.1-.4l.2.5s-.2-.5 0-.2c0-.1-.1-.2-.1-.2.3.4.2-.498.599.3l.299-.2s-.1-.2-.1-.399l.2.3c-.1-.4.1 0-.1-.4v.1c-.1-.399-.4-.898-.599-1.396.1.498-.299-.599-.1 0-.1-.1-.1-.2-.1-.3.1.2.1.3 0 .2v-.1c-.099.1-.199-.1-.298-.2l.1.3s-.1-.1-.1-.2c.1.4.1 0 .199.4-.2-.5-.1 0-.4-.5l.1.3-.1-.2.1.2-.199-.4v-.099c-.1-.2 0 .1-.1 0l.1.1c0 .2-.2 0-.2.399l.1.1c0 .2-.1-.1-.1 0v.2c0-.1-.1-.3-.199-.4 0 .3 0 .2.2.698l-.1-.2c.1.2.1.3.1.3 0-.2-.1-.3-.2-.499-.2-.399.1.5-.2-.1.2.6.2.3.2.4.1.2.1.399.1.399l-.3-.699c-.1-.1 0 .2-.1 0 .1.3 0 0 .1.4v-.1c0 .1.2.598 0 .399 0-.1-.1-.2-.1-.3-.099-.1 0 .1-.099 0-.2-.399 0-.1-.1-.399-.1-.2.1.3-.1-.1.2.6-.1-.1 0 .4l-.1-.3v.2l.1-.4c.1.3-.1-.199-.1-.099.1 0 .1.3.2.499.1.399-.299-.599-.299-.499 0 0 .1.1.1.3 0 0-.1-.1-.1-.3 0 .1.1.3.1.4-.1-.3 0 .099 0 .199l-.1-.3c-.1-.1.2.5.1.4l-.1-.4v.1l-.1-.3c.1.2 0 .2 0 .1.1.2.2.5.1.5-.1-.1-.1-.2-.1-.2-.1-.2-.1-.4 0-.1 0-.1-.1-.2-.1-.2-.1-.199-.1 0-.1 0v.1l.1.4c0-.1-.1-.2-.1-.3v.2c0-.2-.1-.4-.1-.5v.2c0-.1-.099-.2-.099-.299-.1-.1.1.4 0 .3v.1c-.1 0-.2-.3-.1 0l-.2-.3c0 .1.2.499.2.598 0 .1-.1-.299-.2-.399.1.2.2.599.1.2 0 .1-.1 0 0 0zm-.4.399c0-.1 0-.3 0 0 .1.2.1 0 0 0zm-.398.798c0-.1 0 0 0 0 .1.1 0 .1 0 0zm-1.198 2.395v0c0-.1 0-.1 0 0zm3.99-1.696c0-.1 0 0 0 0z"/><path d="M36.735 81.026s0 .1.1.1l-.1-.1zM35.438 81.425s0 .1.1.1l-.1-.1zM35.638 84.319c0-.1 0-.1-.1-.2 0 .1.1.2.1.2zM35.238 83.42c0-.2 0-.1 0 0 0-.1 0-.1 0 0 .1.1.1.2 0 0zM35.637 83.919c0-.1.1.3.1.2.1.3-.1-.3-.1-.2zM35.039 82.722l.1.3-.1-.2v-.1zM35.238 82.921c-.1 0-.1 0 0 0 0 0 0 .1 0 0zM35.538 82.822c0-.2-.1-.2-.1-.2 0 .1 0 .1.1.2zM35.139 82.123c0 .1.1.1.1.2l-.1-.3v.1zM35.239 82.024c0-.1-.1-.3-.1-.2 0 .1 0 .1.1.2zM35.837 82.323l.2.499-.2-.5zM35.737 80.826c-.1-.1.1.3 0 .2 0 .1.1.1.1.2 0-.1 0 0-.1-.4zM41.124 81.924l.1.1-.1-.2v.1zM41.025 81.524l.1.3-.1-.3c0 .1 0 0 0 0zM36.934 79.928l.1.2-.1-.2zM37.333 80.028l.1.3-.1-.3zM37.433 79.53s0 .1 0 0c0 0 .1.4 0 0zM86.917 71.15v-.1l-.1.2.1-.1zM86.617 71.05c0 .4.1-.1.2.1v.1-.3c-.1 0-.2.3-.2.1zM86.418 70.251c0 .1 0 .1 0 0 .1 0 .1 0 0 0zM86.518 70.251s-.1-.2 0 0zM86.318 70.352l.1-.1v-.2c-.1 0-.1.1-.1.3zM86.218 70.65c.1-.1.1-.2 0 0z"/><path d="M86.318 70.45l-.1.1c.1.1.1.2.1-.1 0 .1 0 .2 0 0zM86.318 70.45c0 .1.1.1 0 .3.1 0 .1-.3 0-.3zM86.518 71.548v.1-.1c0-.2.1 0 0 0zM86.019 70.45l-.1.1c.1 0 .1 0 .1-.1zM86.218 71.05l.1-.3-.1.3zM85.82 70.052l.1-.2-.1.3v-.1zM85.72 70.152v-.4s-.1.1 0 .4c0-.2-.1-.2 0 0zM85.52 70.252s0-.1.1-.2c0 0 0 .1-.1.2zM86.119 70.85c0 .1-.1.299 0 .498 0-.2-.1-.299 0-.498zM85.919 70.85c.1 0 0-.1.1-.2l-.1.2zM85.62 70.45c0 .1-.1.1-.1.1l.1.1c0-.1.1-.2 0-.2zM85.62 70.65c.1.1.1 0 0 0 .1 0 .1 0 0 0zM85.12 72.147c0-.2.1-.4.1-.2.1-.2 0-.898 0-1.297 0 .1 0 .2-.1.3 0 .1.1.299.1.498-.1.1-.1-.1-.1-.199.1.2 0 .399 0 .898v-.2.2zM85.42 70.651v-.3c-.1 0-.1.1 0 .3z"/><path d="M85.52 70.55c0 .2-.1.3-.1.599.1 0 .1-.2.1-.3-.1.1.1-.099 0-.299v-.1.1s0-.1 0 0v-.1.1c-.1.1-.1.1 0 0zM85.919 71.648v-.1c.1.1.1.1 0 .1.1 0 .1-.1.1-.2s-.1-.399-.1-.399v.599zM85.72 71.249l-.1.1v.2-.1c.1 0 .1-.2.1-.2zM85.32 70.451v-.3l-.1.4.1-.1zM85.12 70.451l.1-.2-.1.1v.1zM82.427 70.352c0-.2-.1-.5-.1-.3l.1.3zM77.738 73.244v.3c.1 0 0-.2 0-.3zM84.024 70.551c0-.1-.1-.1-.1-.2.1.2.1.4.1.2zM83.824 70.351c.1 0 .1 0 0 0 .1-.1.1-.2 0 0zM84.722 70.351c.1 0 .1-.1 0 0zM81.63 73.144c0-.299.099-.299.099-.2v-.697l-.1.897z"/><path d="M78.337 73.045l.1.2c-.1.398-.1.199-.1.498 0-.798.2-.1.3-.798v.2c.099.398.099-.6.199-.4 0 .1.1.2 0 .3v-.2.1l.1-.1c0-.1.1-.3.1-.399v.2l.099-.2c0 .2 0 .4-.1.4 0 .797.1-.2.2.298l-.1.1c0 .4.1.3.1.599 0-.1-.1-.699 0-.898 0 .1 0 .1.1-.1 0 .3 0 .2.1.2v.399c.099-.1.099-.3.099-.5.1 0 .1.3.1.6.1.1 0-.5.1-.5.1.1.1 0 .2-.199v.3l.099-.3v.1c0-.1 0-.4.1-.499 0-.399.1.599.2.1v.399c.099-.3.099-.2.199-.599l.1.2c0-.3 0-.599.1-.898v-.3l.099-.199v.3-.1.298c0 .2-.1.5-.1.7v-.1.399-.2l.1.3c.1-.4.2-.998.3-1.198v.798c0-.399-.1.2-.2.1v.3l.1-.3c0 .3 0 .2.1.3 0-.6.1-.4.199-.5 0 .2 0 .4-.1.3.1.399.1-.699.2-.3v.1c0-.2.1 0 .1.1.1.1.299 0 .398-.499v.699l.2-1.597c0 .4 0 1.397-.1 1.597 0 .1.1.1.1 0v-.599c.1.499 0 .2.1.599 0-.1 0-.699.1-.699v.699l.1-.599v.698c0-.1.099 0 .099 0v-.2c.1.1.1-.897.3-.897 0 .1-.1.798 0 .898 0-.3.199-1.596.299-1.796v.2l.1-.2c-.1.499-.2 1.496-.3 1.896 0 .2 0 .2.1.2 0 .199 0 .298-.1.298l.1.1c0-.399.1-.399.1-.698l-.2.399c0-.4.1-1.097.2-.998v.798c0-.1.1-.2.1-.2l-.4.5c.1.1.1-.5.2-.1 0 0 .1.499.1.3v-2.096s.1.4.1.599c0 .299-.1.798-.1 1.097v-.3.3c0-.399.1 0 0-.3.1-.099.1.1.1.1 0-.199.1-.797.1-.997v.3c.099 0 .199.199.298.199 0 .1.1.2 0 .399 0-.1 0-.2.1-.2.1.3-.1 0 0 .5 0-.2.1-.3.1-.4 0-.3-.1-.1-.2.1 0-.499.1-.998.2-1.197.1-.1 0 .299 0 .2.2.099.2-.799.3-.5v.798c-.1.1-.1-.2-.2-.2l.1.1c0 .1-.1.2-.1.1 0 .3.299.1.399.3 0-.1.1-.2.1-.3 0-.2.1-.299 0-.498.1-.2.1-.4.2-.3v.3c0-.1 0-.2-.1-.1 0-.2.1.499.1 0v-.2c.099-.2.099-.499.199-.399 0-.299 0 0-.1-.399 0 .5-.2 0-.1.5 0-.5-.1-.2-.1-.6v.5c0 .299-.1.299-.2.398v-.299l-.099.2c0-.3-.1-.4 0-.599h-.1c0-.1-.1-.2-.1-.1 0-.1-.1.3-.1.1l-.1.2v-.1c-.099 0-.199.399-.298 0 0 .1-.1.1-.1.1v-.2c0 .1-.1-.2-.2 0 0-.599-.2-.1-.299-.2v.3c-.1 0-.1.1-.2.2v.299c-.1.2-.199-.2-.199-.2 0-.1 0-.1 0 0-.1-.599-.3.4-.3 0 0 .1 0 .1-.1 0v-.1.1s-.099 0-.099.1v-.3.5c0-.4-.1.1-.1-.3 0 .2-.2.2-.2.599v-.1c0-.1-.099-.1-.099 0v-.3l.2.3c0-.2-.1-.3 0-.599-.1.4-.1.2-.2.599v-.2s-.1.3-.1.1c-.1-.399-.399-.1-.498-.499 0 .699-.1-.299-.1.2v-.4c-.1.2-.1-.299-.2.2v-.299s0 .1 0 0v-.2c-.1 0-.1.5-.1.998 0-.2-.1-.2-.1.1v-.4s-.199-.199-.199.1c0-.1 0 0-.1 0s-.1-.1-.2 0v.1c0 .4-.099.1-.099.1-.1-.3 0 .1-.1-.2v.3c0 .599-.1-.3-.2-.1v.2c0 .2-.099-.799-.099-.898v-.1c-.1-.3 0 .4-.1.4v-.5c0-.2-.2.599-.2.2v.399c-.099.1-.099-.599-.199-.1v-.1c0 .1-.2.2-.2.4 0-.898-.299.398-.299-.4h-.1v-.1c-.1-.1-.1.1-.199.4v-.2c-.1-.2-.1-.1-.3.3v-.3c0 .2-.199-.399-.299-.1v-.1c-.199.3-.299-.798-.399.2l-.1.3c.1.1 0 .398 0 .598-.1.1-.1-.3-.1-.4v.1c0-.498-.099-.199-.099-.598-.2 0-.499-.3-.698-.3v.4h-.1v-.3c0-.199-.1.2-.1.3-.1-.2.1-.499 0-.499 0 .2-.1.3-.1.3v-.3h-.1v.3c0 .199-.099 0-.099.398 0-.598-.4-.2-.4-.399 0 .2-.099.2-.199.2v.399c0-.798-.1-.3-.1-.898 0 .399-.199.1-.1.599-.099-.1 0-.3 0-.5-.099.3-.299-.199-.398-.099v.4l-.1-.5s0 .599-.1.2v.2c-.299-.5-.698.398-.898-.5V70.751l-.1-.4c0 .399-.1 0-.199.4v-.1c-.1.398 0 .897 0 1.496.1-.5.1.698.3 0v.3c0-.2.1-.3.1-.2v.1c.199-.1.199.199.398.299v-.3s0 .1.1.2c.1-.4-.1 0-.1-.499 0 .499.3 0 .3.599.1 0 0-.3.1-.3v.2-.2s.099.2.099.4v.1c0 .199.1-.1.2 0h-.4c.2-.2.4.099.5-.3v-.1c.1-.2.1.1.199 0 0-.1.1-.2.1-.2 0 .1.1.3 0 .5.1-.2.1-.2.2-.699v.2c0-.2 0-.3.099-.3-.1.2 0 .3 0 .599.1.499.2-.499.3.2.099-.6-.1-.3-.1-.4 0-.2.1-.399.1-.399s.099.699.199.699c0 .2.1-.2.1 0 0-.4.1 0 .1-.4l-.1.1c.1-.1.1-.598.199-.399 0 .1 0 .2-.1.3 0 .1.1-.1.1.1 0 .398-.1.1-.2.398 0 .2.1-.299.1.2.1-.599.1.1.2-.4v.3s0-.2.1-.2l-.1.3c.1-.3.1.3.2.1-.1 0 0-.3-.1-.5.2-.398.1.7.2.6 0 0-.1-.2 0-.3 0 .1.099.2.099.3.1-.1 0-.3 0-.4 0 .3.1-.1.1-.2v.3c.1.2.1-.599.2-.399v.4l.099-.1v.299c.1-.2.1-.2.2-.1 0-.2 0-.499.1-.499 0 .2 0 .3.099.2 0 .2-.1.399-.1.1v.299c0 .2.1 0 .1 0v-.1l.1-.4v.3s0-.2.1-.2c0 .2 0 .5-.1.6l.1-.2v.299c.1.1.199-.4.199-.3v-.1c.1.1.1.3.2 0v.4c.1-.1-.1-.499.1-.599.1-.1 0 .3 0 .5.1-.1.199-.5.199-.2 0 0 .1.1 0 0zm.898-.1c0 .1 0 .2 0 0s0-.1 0 0zm1.397-.599c0 .1 0 0 0 0 0-.1 0-.1 0 0zm3.79-1.796c0-.1 0-.1 0 0zm.1.1v-.1.1c0 .1 0 0 0 0zm-8.58-.1c0 .1 0 0 0 0zM85.021 70.251v.2c-.1-.1-.1-.2 0-.2zM85.32 71.948c.1-.1.1 0 0 0v-.2.2zM85.021 71.15c0 .2 0 .2.1.1 0-.3-.1-.2-.1-.1z"/><path d="M85.021 71.25c.1 0 .1 0 0 0 .1-.2.1-.1 0 0zM84.622 70.55v-.2c.1-.3-.1.3 0 .2zM85.021 71.848v-.2l-.1.2h.1zM84.722 71.648c.1.1.1 0 0 0 0 0 0-.1 0 0zM84.922 71.948l-.1-.1.1.1zM84.123 71.548c-.1.2-.1.2 0 .2v-.2zM84.123 72.446c0 .1-.1.3 0 .3v-.3zM83.126 71.947l.1-.598-.1.598zM82.328 73.344c.1.1 0-.399.1-.2 0-.1-.1-.1 0-.299-.1.2-.2.1-.1.499zM73.05 70.152l-.1-.1.1.2v-.1zM72.95 70.551v-.4.4c0-.1-.1 0 0 0zM78.137 73.843s.1-.1 0 0c0 0 0-.5 0 0zM90.309 78.732l.1-.2s-.1.3-.1.2zM89.91 79.13v-.1l-.1.2.1-.1zM89.61 79.03c-.1.4.1 0 .1.1v.1l.1-.3c-.1.1-.2.2-.2.1zM89.71 78.133c-.1.2-.1.2 0 0 0 .1 0 .1 0 0 0 .1 0 .1 0 0zM89.51 78.233l.1-.1v-.2c0 .1 0 .1-.1.3zM89.41 78.532c.1-.1.1-.1 0 0zM89.51 78.332l-.1.1c0 .1 0 .2.1-.1 0 .1-.1.2 0 0zM89.51 78.432c0 .1 0 .2-.1.3.2-.1.2-.4.1-.3zM89.41 79.43v.1-.1c.1-.1.1.1 0 0zM89.311 77.933c0 .1-.1.2-.1.3l.1-.1v-.2zM89.311 78.332l-.1.1s0-.1.1-.1zM89.311 78.931l.1-.3-.1.3zM89.212 77.933l.1-.2-.2.2h.1z"/><path d="M89.112 77.934c.1-.2.1-.3.1-.4 0 0-.1.1-.2.3 0-.1.1-.1.1.1zM88.912 77.933s.1-.1.1-.2c0 .1-.1.1-.1.2zM89.211 78.731c-.1.1-.2.2-.2.5.1-.2.1-.4.2-.5zM89.112 78.632l.1-.1-.1.1zM89.012 78.731l.1-.1h-.1v.1zM88.912 78.232l-.1.1c0 .1 0 .1.1.1v-.2zM89.012 78.232s0 .1-.1.1c0 0 .1 0 .1-.1zM88.014 79.63c.1-.2.2-.4.2-.2.1-.1.299-.898.399-1.297 0 .1-.1.2-.1.3 0 .099 0 .298-.1.498-.1.1 0-.1 0-.2-.2.4-.3.5-.399.898l.1-.2c0 .1-.1.2-.1.2zM88.613 78.333c0-.1 0-.2.1-.3-.1 0-.1.1-.1.3zM88.712 78.332c-.1.2-.2.3-.2.599.1 0 .1-.2.2-.3-.1 0 .1-.1 0-.299.1 0 .1 0 0 0 .1-.1 0-.1 0-.1.1 0 .1 0 0 .1.1-.1.1-.1 0 0 .1 0 .1-.1 0 0 .1-.1 0-.1 0 0v-.1.1z"/><path d="M88.912 79.43s0-.1 0 0c0 0 0 .1 0 0 0 0 .1-.1.1-.2v-.399c-.1.3-.1.4-.1.599zM88.812 78.93l-.1.1v.2-.1c0 .1 0-.1.1-.2zM88.613 78.133l.1-.3-.2.4.1-.1zM86.019 77.335c0-.2.1-.5 0-.3v.3zM83.924 78.233c0 .1 0 .1 0 0l.1-.1s0 .1-.1.1zM81.13 79.03l-.1.2s.1-.1.1-.2zM82.926 76.537s0 .1-.1.1c.1 0 .1 0 .1-.1zM87.316 77.734c.1 0 .1 0 0 0 .1-.1.1-.2 0 0zM88.114 77.834c0 .1 0 .1 0 0 .1 0 .1 0 0 0zM79.933 77.733c-.1.1-.1 0 0 0zM84.622 79.829c.1-.3.1-.2.1-.2l.2-.698-.3.898z"/><path d="M81.63 78.93v.2c-.2.3-.2.2-.2.499.2-.698.2 0 .498-.698v.2c0 .398.2-.5.3-.4v.3l.1-.2v.1h.1c.099-.1.099-.3.199-.4 0 .1 0 .1-.1.2l.1-.2c0 .2-.1.4-.2.3-.2.798.1-.2.1.3l-.1.099c-.1.399 0 .3 0 .599 0-.1.1-.699.2-.898 0 .1 0 .1.1 0-.1.299 0 .2 0 .2l-.1.299c.1-.1.1-.3.2-.4 0 0 0 .3-.1.5.1.099.1-.4.2-.5 0 .2.099 0 .298-.2 0 .1-.1.2-.1.3l.1-.3v.1c.1-.1.1-.299.2-.398.1-.4-.1.598.1.2 0 .099-.1.199-.1.298.2-.299.1-.2.3-.498v.2c0-.3.199-.6.299-.799v-.3l.1-.199c0 .1-.1.2-.1.3v-.1c0 .1-.1.299-.2.499v-.2c-.1.2-.2.4-.2.599 0 0 0-.1.1-.1 0 .1 0 .1-.1.1l.1-.1-.1.399.1-.2v.3c.2-.4.4-.898.599-.998-.1.3-.1.499-.3.798.1-.399-.1.1-.2 0 0 0 0 .2-.099.3l.2-.3c-.1.3 0 .2 0 .3.1-.5.2-.3.299-.5-.1.2-.1.4-.2.3-.1.399.3-.599.2-.2v.1c.1-.2.1 0 .1.2.1.1.3.1.399-.4 0 .1-.2.6-.2.6l.599-1.497c-.1.399-.4 1.397-.499 1.496 0 .1 0 .1.1 0 0-.1.1-.598.2-.598-.1.498 0 .2-.1.598 0-.1.2-.698.2-.698 0 .1-.2.599-.2.698l.299-.598c-.1.1-.2.498-.2.698 0-.1.1 0 .1 0v-.2c.1.1.4-.798.499-.798-.1.1-.3.799-.2.898.1-.3.599-1.496.699-1.696v.2l.1-.2a31.69 31.69 0 01-.799 1.796c0 .2-.1.2 0 .2 0 .199-.1.199-.1.299l.1.1c.1-.4.2-.3.3-.599l-.3.3c.1-.4.4-.998.5-.899 0 .2-.2.599-.3.799.2.399.3.299.3.399l-.1.2c0 .199.199-.5.199-.1 0 0-.1.498 0 .299.1-.4.499-1.696.599-1.996v.599c-.1.3-.3.798-.3.998 0-.1.1-.2.1-.3 0 .1-.1.3 0 .3.1-.4.1.1.1-.3.1-.1 0 .1.1.1.1-.2.299-.798.399-.898 0 .1-.1.2-.1.3.1.1.1.199.2.299 0 .1 0 .2-.1.399 0-.1.1-.2.1-.2 0 .3-.1 0-.2.4.1-.2.2-.3.2-.4.1-.299-.1-.1-.2 0 .1-.499.399-.898.499-1.097.1-.1-.1.3 0 .2.1.1.399-.799.399-.4 0 .3-.2.599-.2.798-.1.1 0-.2-.1-.2v.2c0 .1-.1.2-.1.1 0 .3.2.1.3.4.1-.1.1-.2.1-.3 0-.2.2-.3.2-.4.1-.199.199-.398.299-.199l-.1.3v-.1c.1-.1 0 .499.1.1v-.2c.1-.2.299-.499.299-.399.1-.3 0 0 .1-.399-.1.499-.1-.1-.2.499.1-.499 0-.2 0-.599 0 .1 0 .2-.1.1V78.233c-.1.199-.2.199-.2.299 0-.1.1-.1.1-.2l-.398.1c.1-.2 0-.4.2-.499h-.1c0-.1 0-.2-.1-.1 0-.1-.2.2-.1.1l-.1.1v-.1c-.1-.1-.3.3-.3-.1-.099.1-.099.1-.099 0l.1-.2c-.1.1-.1-.199-.1 0 .1-.598-.2-.199-.2-.299l-.2.2s-.099 0-.199.1l-.1.2c-.1.199-.1-.2-.199-.2 0-.1 0-.1 0 0 .1-.599-.3.299-.3-.1-.099.1-.099 0-.099 0v-.1.1s-.1 0-.1.1l.1-.3c0-.1-.1.1-.1.3l-.1.1c.1-.4-.1.1 0-.3-.1.2-.199.1-.299.599v-.1c0-.1 0-.1-.1 0l.1-.3-.2.4c0-.2 0-.3.2-.599-.2.4-.1.1-.3.499l.1-.2s-.199.3-.1.1c.1-.399-.298-.2-.298-.598-.2.598 0-.3-.1.2 0-.2 0-.2.1-.4-.1.1-.1-.3-.2.1 0-.2.1-.2.1-.3 0 0-.1.1 0 0 0-.1.1-.1.1-.199-.1 0-.2.499-.4.898 0-.2 0-.2-.1.1 0-.1 0-.3.1-.3 0 0-.1-.299-.199.1 0-.1 0 0-.1 0s-.1-.1-.1-.1v.1c-.2.4-.1.1-.2.1 0-.3-.099.1-.099-.3l-.1.3c-.2.599 0-.4-.1-.2v.2c-.1.2.1-.798.1-.898 0-.1 0-.1.1-.1 0-.399-.1.3-.2.4 0-.2.2-.5.1-.5 0-.199-.299.6-.299.2 0 .1-.1.3-.1.4-.1 0 0-.6-.2-.1v-.1c-.099.1-.199.2-.299.399.2-.898-.398.399-.1-.5h-.099v-.099c-.1-.1-.2.1-.2.3 0-.1 0-.1.1-.2-.1-.2-.1-.2-.3.2l.1-.3c-.1.2 0-.499-.199-.2v-.1c-.2.3-.1-.797-.399.1l-.2.2c.1.1-.1.4-.199.599-.1 0 0-.3 0-.4v.1c.2-.498-.1-.2 0-.598-.2 0-.3-.4-.499-.499l-.1.399h-.1c0-.1.1-.3.1-.3 0-.199-.1.2-.2.2 0-.2.2-.499.2-.499h-.1c-.1.2-.1.3-.199.3 0-.1.1-.3 0-.3l-.1-.1-.1.3c-.1.1-.1 0-.1.3.1-.6-.298-.3-.298-.5-.1.2-.2.2-.2.1 0 .1-.1.4-.1.4.2-.7 0-.3.1-.899-.1.4-.2 0-.3.5 0-.1.1-.3.1-.5-.199.2-.199-.299-.399-.2 0 .1-.1.2-.1.4l.1-.499s-.2.499-.1.2c0 .1 0 .2-.1.2-.099-.5-.697.199-.697-.799 0 .2-.1.2-.1.2s-.1.2-.1.399v-.4c-.1.4-.1 0-.3.3h.1c-.199.399-.199.898-.399 1.397.2-.4-.1.698.2.1 0 .1-.1.199-.1.299.1-.2.1-.3.2-.1v.1c.2 0 .2.2.299.399l.1-.3v.2c.2-.4-.1-.1.1-.499-.1.499.2.1.1.698.1 0 .1-.299.1-.299v.2l.099-.2s0 .3-.1.4c0 .199.1 0 .1 0v-.1c.2-.1.3.199.598-.1v-.1c.2-.2 0 .2.2.1.1-.1.1-.2.1-.1-.1.1 0 .3-.1.399.2-.2.1-.2.3-.599v.2c.099-.2.099-.3.199-.3-.1.2-.1.3-.2.5 0 .498.3-.4.2.299.2-.5 0-.3.1-.5 0-.199.2-.398.2-.298 0 0-.2.698 0 .798 0 .2.099-.2.099.1.1-.3.1 0 .2-.4l-.5.5c.1-.1.3-.6.3-.3 0 .1-.1.2-.1.2 0 .1.1-.1.1.1-.2.398-.2 0-.4.299 0 .2.2-.3 0 .2.2-.6.1.099.3-.3l-.1.2.1-.1-.1.299c.1-.3 0 .3.1.1-.1 0 .1-.3.1-.5.2-.298-.1.7.1.6v-.3.3c.1 0 .1-.3.2-.4-.1.3.099-.1.199-.2l-.1.3c.1.2.2-.499.2-.3l-.2.4.1-.1-.1.3c.1-.2.1-.1.2 0 0-.2.199-.5.199-.5 0 .2-.1.2 0 .2-.1.2-.1.4-.1.1 0 .1-.1.2-.1.2 0 .199.1.1.1.1v-.1l.2-.3c0 .1-.1.2-.1.3 0 0 .1-.1.1-.2-.1.2-.1.399-.2.499l.2-.2c0 .1 0 .3-.1.3 0 .1.3-.4.3-.2 0 0 0-.1.1-.1.099.1-.001.3.199.1l-.1.399c.1-.1.1-.499.2-.599.1-.1-.1.3-.1.4.2 0 .299-.4.2-.1.099 0 .099.1 0 0zm.897.1c0 .1-.1.2 0 0 0-.2 0-.1 0 0zm1.397-.2c0-.099 0-.099 0 0zm3.89-.797c0-.1 0-.1 0 0zm.1.1v-.1c0 .1-.1.1 0 .1-.1.1-.1 0 0 0zm-7.682-2.195c-.1.1-.1 0 0 0z"/><path d="M83.624 79.13v-.1c.1 0 0 0 0 .1zM86.119 80.028v-.1s-.1.1 0 .1zM88.413 77.834s-.1.1-.1.2c0-.1 0-.2.1-.2zM88.314 79.53l.1-.2c-.1.1-.2.2-.1.2zM88.114 78.731c-.1.2 0 .2 0 .1.2-.3.1-.2 0-.1zM88.214 78.831c.1-.1 0 0 0 0zM88.014 78.033c0 .1.1-.3.1-.2.1-.3-.2.3-.1.2zM87.914 79.43l.1-.3-.1.2v.1zM87.815 79.53l.1-.1h-.1v.1zM87.216 78.93l-.1.2c.1-.1.1-.1.1-.2zM87.216 79.73v-.2l-.1.3.1-.1zM87.017 79.729c0 .1-.2.2-.1.2 0 0 .1-.1.1-.2zM86.318 79.03l.1-.498-.1.499zM85.12 80.128c0 .2.1-.3.1-.2.1-.1 0-.1 0-.3 0 .3 0 .2-.1.5zM77.739 74.84v-.1l-.1.2.1-.1zM77.539 75.24l.1-.4-.1.4c0-.1-.1-.1 0 0zM82.427 79.829c.1-.2 0-.2 0-.2v.2zM81.928 79.33l.1-.3-.1.3zM81.33 79.63s.1-.1 0 0c0 0 .1-.4 0 0zM59.481 85.017s.1.2.2.2c-.1 0-.3-.2-.2-.2zM59.282 84.418l.1.1-.2-.2.1.1zM59.482 84.318c-.3-.3 0 .1-.2 0l-.1-.1.2.3c.1-.1 0-.3.1-.2zM60.18 84.817c-.1-.1-.1-.1 0 0zM60.18 84.817c0 .1.1.1 0 0zM60.18 84.717l.1.1.1.1-.2-.2zM59.98 84.418c.1.1.1.1 0 0zM60.08 84.618l-.1-.1.1.1c0-.1-.1-.1 0 0z"/><path d="M60.08 84.618l-.2-.2c-.1.1.1.3.2.2zM59.182 84.02c0-.1.1 0 0 0zM60.48 84.718l-.2-.2v.1c.1 0 .1 0 .2.1zM60.28 84.418l-.1-.1s0 .1.1.1zM59.68 84.119l.2.3-.2-.3zM60.579 84.618l.1.2-.1-.3v.1zM60.678 84.518l.3.3s-.1-.2-.1-.3c-.1.1-.1.1-.2 0z"/><path d="M60.678 84.418s.1.1.1.2c0-.1-.1-.2-.1-.2zM60.28 84.318l.2.2-.2-.2zM59.98 84.22c-.1-.1-.1-.3-.3-.4 0 .2.1.2.3.4zM60.08 84.119s0 .1.1.2l-.1-.2zM59.98 84.019l.1.1-.1-.1zM60.48 84.219c-.1-.1 0-.1 0-.1h-.1s.1.2.1.1zM60.679 84.219l-.1-.1c0 .1.1.2.1.1zM60.38 84.318l-.1-.1s.1 0 .1.1c0 0 0-.1 0 0zM59.581 82.722c.1.2.3.399.1.2.1.199.598.698.898.997-.1-.1-.1-.1-.2-.3-.1-.1-.3-.199-.399-.299 0-.1.1 0 .2.1-.2-.2-.2-.3-.599-.698l.1.2s0-.1-.1-.2zM60.479 84.019s.1.1.3.2c-.1-.1-.1-.2-.2-.2h-.1z"/><path d="M60.479 84.019c-.2-.2-.2-.3-.4-.499 0 0 .1.2.2.3-.1-.1 0 .199.2.199-.1.1 0 .1 0 0 0 .1.1.1.1.1-.1 0-.1 0-.1-.1 0 .1 0 .1 0 0 0 .1 0 .1 0 0 0 .1 0 .1 0 0 0 .1 0 .1 0 0 0 .1 0 .1 0 0l.1.1-.1-.1zM59.481 83.52s0 .1 0 0c-.1 0-.1 0 0 0 0 0 0 .1.1.2.1 0 .3.2.3.299-.2-.3-.3-.4-.4-.499zM59.88 83.72v-.1l-.2-.1.1.1c-.1-.1.1 0 .1.1zM60.678 84.019l.2.2-.2-.3v.1zM60.678 83.919l.2.2-.1-.1-.1-.1zM62.275 82.522c.2.1.4.4.2.2l-.2-.2c.1 0 .1 0 0 0zM62.474 80.427c-.1 0-.1 0 0 0 0 0 0 .1.1.1-.1 0-.1-.1-.1-.1zM61.776 79.629l.1.1-.1-.1zM62.974 77.834l-.2-.2.2.2zM61.377 83.32l.1.1-.1-.1zM64.27 80.527l-.1-.1s0 .1.1.1zM61.577 83.32c-.1 0-.1 0 0 0-.1 0-.1 0 0 0 .1.1 0 .1 0 0zM67.462 77.335s0 .1 0 0c0 .1.1.1 0 0zM61.078 83.82s-.1 0 0 0c0 0 0 .1 0 0zM64.57 77.634c-.1-.1-.1-.1 0 0zM60.878 80.128c.2.2.1.2.1.2l.498.498-.598-.698z"/><path d="M62.773 78.332l-.2-.1c-.199-.299-.099-.2-.298-.399.498.599-.1.2.399.799l-.1-.1c-.3-.2.3.399.2.399-.1 0-.1-.1-.2-.2l.1.2-.1-.1v.1c.1.1.2.3.2.3-.1-.1 0-.1-.1-.1l.1.199c-.1-.1-.2-.3-.2-.3-.599-.498.1.2-.3-.1v-.099c-.299-.3-.199-.2-.498-.3.1.1.499.4.598.6-.1 0-.1 0 0 .1-.2-.2-.2-.1-.2-.1l-.199-.3c0 .1.2.2.3.4-.1 0-.3-.2-.4-.4-.1 0 .3.3.3.4-.1-.1-.1.099 0 .298-.1-.1-.1-.2-.2-.2l.2.2-.1-.1c.1.1.2.3.3.4.299.299-.5-.4-.2 0-.1-.1-.1-.2-.2-.3.1.3.1.2.3.5l-.4-.3c.2.2.4.399.5.698l.199.2.1.2s-.1-.1-.2-.3v.1l-.399-.4c.1 0 .1.1.2.1-.1-.199-.3-.399-.4-.498v.1l-.1-.1.1.1-.299-.3.1.1-.2-.1c.2.3.6.798.6.998-.2-.2-.3-.4-.6-.599.3.3 0-.2.1-.2 0 0-.2-.1-.2-.199l.2.3c-.2-.2-.2-.1-.299-.2.4.399.2.3.3.499-.1-.1-.3-.3-.2-.3-.3-.299.399.5.1.3v-.1c.1.1-.1.1-.1 0-.1 0-.2.2.1.499 0 0-.4-.4-.4-.499l.998 1.297c-.3-.3-.998-.998-1.097-1.197-.1 0-.1-.1-.1.1 0 0 .399.398.399.498-.3-.299-.2-.2-.499-.399.1.1.499.5.499.599-.1-.1-.4-.499-.499-.499l.4.499-.5-.499c.1.1-.1 0 0 .1l.1.1c-.1 0 .499.698.4.798-.1-.1-.5-.599-.6-.599.2.3.998 1.197 1.098 1.497l-.1-.1.1.2c-.3-.4-.898-1.198-1.097-1.597-.1-.1-.2-.2-.2-.1l-.2-.2h-.199c.3.3.2.3.4.6l-.2-.4c.299.3.698.898.598.898-.1-.1-.399-.499-.499-.598.1.1.1.2 0 .2v-.5c-.1-.1.3.4 0 .2 0 0-.399-.3-.2-.2.3.3 1.198 1.297 1.398 1.597 0 0-.4-.2-.5-.4-.299-.199-.498-.598-.698-.798.1.1.1.2.2.2l-.2-.2c.3.3-.1 0 .2.3 0 .1-.1 0-.1 0 .2.2.499.698.599.798l-.2-.2c-.1 0-.2-.1-.3 0-.099-.1-.199-.1-.298-.299 0 .1.1.2.1.2-.3-.2 0-.1-.3-.3.1.2.2.3.2.4.2.299.1 0 0-.1.299.399.598.798.698.997 0 .1-.2-.2-.2-.2-.2 0 .5.699.2.5l-.599-.6c0-.099.2.1.2.1l-.1-.1c-.1-.099-.1-.199 0-.099-.2-.2-.2.1-.399 0 .1.1.1.2.2.3v-.1c.2.2.2.299.299.399.1.2.2.399.1.299l-.2-.3c.1.1.2.1.1 0 .1.1-.4-.299-.1.1l.2.2c.1.2.299.499.2.399.199.2 0 0 .298.2-.399-.3.1-.1-.299-.4.3.3.2.1.499.4-.1-.1-.2-.1-.1-.1 0 0 0-.1-.1-.1l-.1-.1c-.199-.2-.1-.2-.199-.399.1 0 .1.1.2.2l-.1-.2.399.4c.1.099.2.099.1 0 .1 0-.1-.3 0-.1v-.2c.1 0-.2-.4.2-.2 0-.1-.1-.1 0-.1l.199.2c0-.1.2.1.1-.1.399.4.2 0 .299 0l-.3-.299v-.2l-.199-.199c-.1-.2.2 0 .2 0 .1.1 0 .1 0 0 .498.4-.1-.399.2-.2 0-.1 0-.1 0 0l.099.1-.1-.1v-.1l.2.2c.1.1-.1-.1-.2-.299 0 0 0-.1-.1-.1.3.3-.1-.2.3.2-.1-.2 0-.2-.3-.599l.1.1c.1 0 .1 0 0-.1l.2.3-.3-.4c.2.1.3.2.4.4-.2-.4-.1-.2-.3-.5l.1.2s-.2-.3 0-.1c.3.3.2-.1.599.1-.5-.499.199.2-.1-.2l.299.3c0-.2.2.1 0-.2.1.1.1.2.2.2 0 0-.1-.1 0-.1.1.1.1.1.1.2 0-.1-.3-.4-.6-.798.2.1.2.1 0-.1.1.1.2.2.2.3 0 0 .3.099 0-.2.1.1 0 0 0 0 .1 0 .1 0 .1-.1h-.1c-.3-.3 0-.1 0-.2.3.2-.1-.1.3.1l-.2-.2c-.4-.398.3.2.2 0l-.1-.1c-.1-.199.598.5.698.6 0 0 0 .1.1.1.3.199-.2-.3-.2-.4.1.1.3.4.4.4.1.099-.3-.5 0-.3l-.3-.3c0-.1.499.3.2 0l.1.1c-.1-.1 0-.2-.2-.399.698.699-.1-.499.399.2l.1-.1.1.1c.1 0 0-.2-.2-.3.1 0 .1.1.1.1.2.1.2 0 0-.399l.2.2c-.1-.1.398.2.299-.1l.1.1c-.1-.3.698.399.1-.4l-.1-.199c-.1 0-.3-.3-.4-.399 0-.1.3.2.3.2.299.399.2.1.498.299.1-.1.5-.1.599-.2l-.3-.299h.1l.2.2c.2.2-.1-.2-.1-.3.2.1.3.4.3.4-.1-.1-.2-.3-.2-.3.1 0 .2.2.2.2h.1l-.4-.799c-.1-.1.1 0-.2-.299.4.4.4 0 .5.1-.1-.2-.1-.2 0-.3-.1 0-.3-.299-.2-.299.499.599.3.2.698.599-.299-.2 0-.2-.299-.499.1 0 .2.2.3.3-.1-.3.299 0 .299-.2l-.3-.3.4.3c0-.1-.4-.4-.1-.2-.1-.1-.2-.1-.2-.2.499.2.1-.598.898-.099-.2-.1-.2-.2-.1-.2l-.3-.299.3.2c-.2-.3.1-.1-.2-.4v.1c-.299-.299-.698-.698-.997-1.097.3.4-.599-.399-.2.1l-.199-.2c.1.2.2.2.1.2-.1.1-.3 0-.5 0l.2.2s-.1-.1-.2-.1c.2.299.1 0 .4.299-.4-.4-.2.1-.599-.3 0 0 .2.2.2.3l-.1-.1.1.2-.3-.3v-.1c-.199-.1 0 .1-.1.1h.1c0 .2-.299.1-.1.5l.1.099c.1.2-.199-.1-.199.1.1.1.1.2.1.2l-.3-.3c.1.3.1.2.4.599l-.2-.1c.1.2.2.2.2.3-.1-.2-.2-.2-.4-.4-.398-.3.2.499-.299 0 .4.499.3.2.4.3.1.1.299.398.199.299 0 0-.499-.5-.599-.4-.1-.1.1.2-.1 0 .2.3-.1 0 .2.4v-.1c0 .1.4.499.1.399-.1-.1-.1-.2-.2-.2-.1-.1 0 .1-.1 0-.299-.299 0-.1-.199-.399-.1-.1.1.3-.2-.1.4.5-.1 0 .2.4l-.2-.2s.1.1.1.2l-.2-.3c.2.3-.199-.1-.199 0 .1-.1.2.2.4.3.199.299-.5-.5-.5-.3 0 0 .2.1.2.2-.1 0-.2-.1-.3-.2 0 .1.2.2.3.3-.2-.2.1.1.1.2l-.2-.2c-.2-.1.4.399.2.299l-.2-.3v.1l-.2-.2c.1.2.1.2 0 .1.1.1.3.4.3.4-.1-.1-.2-.2-.2-.1-.1-.1-.2-.3 0-.1l-.2-.2c-.099-.1-.099 0-.099 0h.1l.2.3-.2-.2s.1.1.1.2c-.1-.2-.3-.3-.3-.4l.1.2c-.1-.1-.2-.2-.3-.2-.099-.099.2.4 0 .3 0 0 0 .1.1.1-.1 0-.299-.2-.199.1l-.4-.3c0 .1.4.3.4.5 0 .099-.2-.2-.3-.3.1.2.3.499.1.3 0 0-.1 0 0 0zm-.399.599c0-.1-.1-.2 0 0 .2.1.1 0 0 0zm-.399 1.197c0-.1 0-.1 0 0 .1 0 .1 0 0 0zm-.898 3.392c.1 0 0 0 0 0zm-.1-.1c0 .1 0 .1 0 0 0 .1 0 .1 0 0-.1 0 0 0 0 0zm4.89-4.589c0-.1 0-.1 0 0z"/><path d="M61.876 79.729l.1.1c-.1 0-.1-.1-.1-.1zM60.08 81.126l.1.1c0-.1 0-.1-.1-.1zM60.978 84.019c0-.1-.1-.1-.1-.1.1 0 .1.1.1.1zM59.581 83.021l.1.1s0-.1-.1-.1zM60.38 83.42c-.2-.2-.1-.1-.1 0 .2.2.1.1.1 0zM60.978 83.62s.2.2.1.2c.2.2-.1-.4-.1-.2zM59.88 82.822l.2.2-.2-.2zM60.18 82.822c-.1 0-.1.1 0 0 0 .1 0 .1 0 0zM60.579 82.523l-.1-.2c0 .1 0 .2.1.2zM59.88 82.124s.1.1.2.1l-.2-.3v.2zM59.98 81.924c-.1-.1-.1-.3-.2-.2.1.1.1.2.2.2zM60.778 81.724l.4.499-.4-.499zM60.38 80.328c-.1-.1.2.3.1.2l.2.2c-.1-.2 0-.2-.3-.4zM67.862 77.534h.1l-.2-.1.1.1zM67.562 77.135l.3.3-.3-.3c.1.1.1 0 0 0zM61.776 78.432c.1.1.1.1.2.1l-.2-.1zM62.374 78.232l.2.3-.2-.3zM62.374 77.634s0 .1 0 0c0 0 .3.3 0 0zM56.688 91.701s.2-.1.2-.2c-.1 0-.3.2-.2.2zM56.09 91.8l-.2.1.2-.1zM55.79 91.601c-.3.3.1 0 .1.2h-.1l.2-.2s-.2.1-.2 0zM56.289 90.803c-.1.2-.1.1 0 0 0 .1 0 .1 0 0 0 .1 0 .1 0 0zM56.289 90.903c.1 0 .1-.1 0 0zM56.189 90.803l.1-.1c.1-.1 0-.1.1-.2-.1.1-.2.2-.2.3zM55.89 91.002c.1 0 .1-.1 0 0z"/><path d="M56.09 90.902l-.1.1c-.1 0-.2.1.1-.1-.1.1-.2.2 0 0zM56.09 91.002c0 .1-.1.1-.2.2.1 0 .3-.2.2-.2zM55.49 91.9l-.1.1.1-.1c.1-.1 0 0 0 0zM56.09 90.503c-.1.1-.2.2-.2.3h.1c0-.2 0-.2.1-.3zM55.89 90.703l-.2.1c.1 0 .1 0 .2-.1zM55.59 91.302l.3-.1-.3.1zM55.99 90.304l.1-.1-.2.2.1-.1zM55.89 90.305l.3-.3s-.2.1-.3.2v.1zM55.69 90.204s.1-.1.2-.1c-.1.1-.1.1-.2.1zM55.69 90.703s.1-.1.1-.2l-.1.2zM55.691 91.102c-.1.1-.3.1-.4.3.1-.1.2-.2.4-.3zM55.49 91.002s.1 0 .2-.1l-.2.1zM55.39 91.002h.1v-.1l-.1.1zM55.59 90.503c-.1.1-.1 0-.1 0v.1l.1-.1zM55.39 90.703s.1 0 0 0c.1-.1.1-.1 0 0zM55.49 90.304s0 .1-.1.1l.1-.1zM55.59 90.603c.1 0 .1 0 0 0 .1-.1.1-.1 0 0zM55.59 90.603l-.1.1c0-.1.1-.1.1-.1zM54.094 91.402c.2-.2.3-.3.2-.1.199-.1.598-.599.897-.998-.1.1-.1.1-.299.2-.1.1-.1.299-.3.399-.099 0 0-.1.1-.2-.1.3-.299.3-.598.699l.2-.2c-.1 0-.2.1-.2.2zM55.291 90.404s.1-.1.2-.3c-.1.1-.2.1-.2.2v.1z"/><path d="M55.39 90.504c-.199.2-.298.2-.498.399.1 0 .2-.1.3-.2-.1 0 .1 0 .199-.2.1 0 .1-.1.1-.1l-.1.1s.1-.1 0 0c0-.1 0-.1 0 0 0 0 0-.1 0 0 .1-.1.1-.1 0 0-.1 0-.1 0 0 0zM54.992 91.6s.1-.099.1 0h-.1c0 .1.1 0 .2-.099 0-.1.199-.3.199-.399-.2.2-.3.3-.4.499zM55.092 91.102h-.1l-.1.2.1-.1.1-.1zM55.291 90.205l.2-.2-.3.3.1-.1zM55.191 90.205l.2-.2-.1.1-.1.1zM53.296 88.31c.1-.2.3-.4.1-.3l-.1.3c0-.1 0-.1 0 0zM50.901 88.01s.1 0 .1-.1l-.1.1zM50.203 88.708l.1-.1c-.1 0-.1 0-.1.1zM47.909 87.211l-.2.2.2-.2zM54.294 89.406c0-.1.1-.1 0-.2 0 .2-.1.4 0 .2zM50.702 85.915l-.1.1.1-.1z"/><path d="M54.293 89.207s.1 0 0 0c.1 0 .2-.1 0 0zM54.393 90.503c0 .1-.1.1 0 0-.1.1 0 .1 0 0zM47.31 85.415c-.1.1-.1 0 0 0zM50.802 89.706c.2-.2.2-.2.2-.1l.498-.5-.698.6z"/><path d="M48.407 87.51l-.1.2c-.299.2-.299.1-.399.3.5-.5.2.099.799-.4l-.1.1c-.2.3.399-.4.399-.2 0 .1-.1.2-.2.2l.2-.1-.1.1h.1c.1-.1.3-.2.3-.2-.1.1-.1 0-.1.1l.199-.1c-.1.2-.3.3-.3.2-.498.599.2-.1 0 .3h-.1c-.298.298-.099.298-.298.498.1-.1.399-.599.598-.698 0 .1 0 .1.1 0-.2.2-.1.2-.1.2l-.3.298c.1 0 .2-.199.4-.299 0 .1-.2.3-.3.4 0 .099.3-.4.4-.3 0 .2.1.1.299 0l-.2.2.2-.2-.1.1c.1-.1.3-.3.4-.3.299-.299-.3.5.1.2l-.3.3c.3-.1.2-.1.598-.3l-.1.2c.2-.2.4-.4.699-.6.1-.099.1-.199.2-.199l.199-.1-.2.2h.1c-.1.1-.2.3-.399.4 0-.1.1-.1.1-.2-.2.1-.4.299-.499.498h.1l-.1.1.1-.1-.499.5.1-.1-.1.299c.3-.2.798-.599.998-.599l-.599.599c.2-.3-.2 0-.2-.1 0 .1-.1.2-.199.2l.3-.1c-.2.2-.1.2-.2.3.399-.4.3-.2.499-.3-.1.1-.3.3-.3.2-.2.398.5-.4.3-.1h-.1c.1-.1.1.1 0 .2 0 .099.2.199.599-.1l-.5.498 1.298-.997c-.3.299-.998.997-1.198 1.097 0 .1-.1.1.1.1 0-.1.4-.5.4-.5-.3.4-.1.2-.4.5 0-.1.499-.5.499-.5-.1.1-.4.5-.499.5l.499-.4-.499.5c.1-.1.1.1.1 0l.1-.1c0 .2.698-.599.798-.5l-.599.6c.2-.2 1.197-.998 1.397-1.098l.1.1.2-.1c-.4.3-1.198.998-1.497 1.197-.1.1-.1.2-.1.2l-.2.2v.199c.3-.3.3-.2.6-.4l-.4.2c.3-.299.798-.698.898-.598l-.599.598c.1-.1.2-.1.2 0l-.2.1c-.1.1.4-.3.2 0 0 0-.3.4-.1.2.3-.3 1.197-1.297 1.496-1.497l-.299.599c-.2.299-.598.499-.798.798.1-.1.2-.1.2-.2 0 .1-.2.2-.2.2.3-.3.1.1.2-.2.1 0 0 .1 0 .1.2-.2.598-.599.798-.599l-.2.2c.1.1 0 .3 0 .3-.1.1-.1.199-.2.299.1 0 .2-.1.2-.1-.2.3-.1 0-.299.3.2-.2.3-.2.399-.2.2-.3 0-.1-.2-.1.3-.3.699-.599.998-.699.1 0-.2.2-.1.2.1.2.699-.499.5-.2-.2.3-.4.4-.6.6-.1 0 .1-.2 0-.2l-.1.1c-.099.1-.199.1-.099 0-.2.199.2.199.1.498.1-.1.2-.1.3-.2h-.1c.1-.199.299-.199.299-.299.2-.1.399-.2.299-.1l-.2.3c.1-.1.1-.2 0-.1.1-.1-.2.4.1.1l.1-.2c.2-.1.499-.299.399-.2l.2-.299c-.3.4-.1-.1-.4.3.3-.4.1-.2.3-.499-.1.1-.1.2-.1.1 0 0-.1 0-.1.1l-.1.1c-.199.199-.299.099-.399.199 0-.1.1-.1.2-.2l-.2.1c.2-.2.2-.399.4-.399v-.1c.1-.1.1-.2 0-.2 0-.1-.3.1-.1 0h-.2c-.1-.1-.499.1-.2-.299-.1 0-.199.1-.1 0l.1-.2c-.1 0 .1-.298-.1-.099.4-.499-.099-.2-.099-.399l-.1.3c0-.1-.1 0-.299 0l-.2.199c-.199.1 0-.2-.1-.3.1-.1.1 0 0 0 .3-.498-.498.1-.199-.199-.1 0-.1 0 0 0l.1-.1c0 .1-.1.1-.1.1h-.1l.2-.2-.2.2s-.1 0-.1.1c.3-.3-.199.1.1-.3-.199.1-.199 0-.598.3l.1-.1c0-.1 0-.1-.1 0l.2-.3-.4.3c.1-.2.2-.3.4-.399-.4.2-.2 0-.5.3l.2-.2s-.3.2-.2 0c.2-.4-.199-.3-.1-.699-.398.5.1-.299-.199.1.1-.1.1-.2.3-.3-.2 0 .1-.299-.3 0 .1-.099.2-.099.2-.199 0 0-.1.1-.1 0 .1-.1.1-.1.2-.1-.1 0-.4.3-.798.6.1-.2.1-.2-.2 0 .1-.1.2-.2.3-.2 0 0 0-.3-.2 0 .1-.1 0-.1-.1 0 0-.1 0-.1-.1-.1v.1c-.3.299-.1 0-.2 0 .1-.3-.1.1 0-.3l-.199.2c-.399.399.2-.3-.1-.2l-.1.1c-.199.1.5-.599.5-.698 0 0 .1 0 .1-.1.199-.3-.3.2-.4.2.1-.1.4-.3.3-.4.1-.1-.6.3-.3 0l-.3.3c-.099 0 .3-.5-.099-.2 0 0 0-.1.1-.1-.1.1-.2 0-.4.2.6-.698-.498.1.1-.499l-.1-.1.1-.1c0-.1-.199 0-.398.1 0-.1.1-.1.1-.1 0-.199 0-.199-.4 0l.2-.199c-.1.1.2-.399-.1-.3l.1-.099c-.3.1.299-.798-.5-.1l-.199.1c0 .1-.299.3-.399.499-.1 0 .1-.3.2-.3.399-.398 0-.199.3-.498-.2-.2-.1-.5-.3-.699l-.3.3v-.1c.1-.1.2-.3.2-.2.1-.2-.2.1-.3.1 0-.2.4-.3.4-.3h-.1c-.1.1-.3.2-.3.2 0-.1.2-.2.2-.2v-.099l-.2.3c-.099.1-.099-.1-.299.199.4-.499-.1-.4 0-.599-.2.1-.299.1-.299 0 0 .1-.3.3-.3.3.6-.5.1-.3.5-.699-.2.3-.2-.1-.5.4 0-.1.2-.2.3-.4-.3.1-.1-.3-.3-.399l-.298.3.299-.4c-.1 0-.4.4-.2.1-.1.1-.1.2-.2.2.1-.599-.698-.2-.298-.998-.1.2-.1.2-.2.1l-.3.3.2-.4c-.3.3-.1-.1-.399.2h.1c-.3.299-.599.698-.998 1.097.4-.3-.399.599.2.2l-.2.2c.2-.1.2-.2.2 0 .2.099 0 .298.1.498l.2-.2c0 .1-.1.1-.1.2.299-.3-.1-.1.299-.4-.3.4.2.2-.2.7l.2-.2-.1.1.2-.1c0 .1-.1.2-.2.299h-.1c-.1.2.2.1.1.1v-.1c.2 0 .2.3.598.2l.1-.1c.3-.1 0 .2.1.2.1-.1.2-.1.2-.1l-.3.299c.3-.1.2-.1.599-.4l-.1.2c.2-.1.2-.2.3-.2-.2.1-.2.3-.4.4-.2.399.5-.2 0 .3.5-.4.1-.3.3-.4.1-.2.299-.3.299-.2 0 0-.499.6-.4.699-.099.1.2-.1.1.1.3-.2 0 .1.4-.3h-.1c.1 0 .499-.399.399-.1-.1.1-.2.1-.2.2-.1.1.1 0 0 .1-.299.3-.2 0-.399.2-.1.199.3-.1-.1.199.5-.4 0 .1.4-.1l-.2.2s.1-.1.2-.1h-.5c.3-.2-.099.3.1.2-.1-.1.2-.3.3-.4.399-.1-.4.599-.2.599 0 0 .1-.2.2-.2 0 .1-.1.2-.1.3.1 0 .2-.2.3-.3-.2.3.1-.1.199-.1l-.2.2c0 .2.4-.399.4-.2l-.3.2h.1l-.2.2c.2-.1.2-.1.2 0 .1-.1.399-.3.399-.3-.1.1-.2.2-.1.2-.1.1-.3.2-.1 0l-.2.2c-.099.199 0 .1.1.1v-.1l.3-.2-.2.2s.1-.1.2-.1l-.4.399.3-.1c-.1.1-.1.2-.2.3 0 .1.4-.2.4 0 0 0 .1 0 .1-.1 0 .1-.1.299.199.2l-.599.398c.1 0 .3-.399.5-.399.099 0-.2.3-.3.4.2-.2.599-.4.3-.1.099 0 0 0 0 0zm.798.5c-.1 0-.2.099 0 0 .1-.2 0-.1 0 0zm1.397.398c-.1.1 0 .1 0 0zm3.99 1.297c0 .1 0 .1 0 0 .1 0 .1 0 0 0zm0 .2s.1-.1 0 0c0 0 0-.1 0 0-.099 0 0 0 0 0zm-6.185-5.986c-.1.1 0 .1 0 0z"/><path d="M50.203 88.608l.1-.1s0 .1-.1.1zM52.099 90.704s0-.1.1-.1c-.1 0-.1 0-.1.1zM55.192 89.905c-.1 0-.1.1-.1.1.1-.1.1-.2.1-.1zM54.393 91.402l.1-.1s-.1 0-.1.1zM54.593 90.504c-.2.2-.1.1 0 .1.2-.2.1-.1 0-.1zM54.593 90.703c.1-.1.1 0 0 0zM54.792 89.905c0 .1.2-.2.2-.1.2-.3-.4.1-.2.1zM54.094 91.102l.2-.2-.2.1v.1zM53.695 90.304h-.1l-.1.1c.1 0 .1 0 .2-.1zM53.296 91.003c0-.1.1-.1.1-.2l-.2.3.1-.1zM53.097 90.902c-.1.1-.3.1-.2.2 0-.1.1-.1.2-.2zM52.697 89.906l.4-.4-.4.4zM51.101 90.305c0 .1.3-.2.2-.1l.2-.2c-.1.1-.1 0-.4.3zM46.612 81.725v-.1l-.1.1h.1zM46.212 81.924l.3-.3-.3.3c0-.1 0 0 0 0zM48.806 88.608c.1-.1.1-.1.1-.2l-.1.2zM48.507 87.91l.2-.2-.2.2zM47.809 87.91s.1-.1 0 0c0 0 .3-.3 0 0zM33.443 16.877s-.2-.1-.3-.1c.1.1.3.1.3.1zM33.942 17.476h-.1l.2.1-.1-.1zM33.942 18.074c.4-.1-.1-.2 0-.3h.1-.3c.1 0 .3.2.2.3zM33.143 18.573c.2-.1.2 0 0 0 .1-.1.1-.1 0 0 0-.1 0-.1 0 0zM33.143 18.473c0-.1-.1.1 0 0zM33.343 18.773h-.2c-.1 0-.1.1-.1.1.1 0 .2 0 .3-.1zM33.642 18.773c-.1-.1-.1 0 0 0zM33.443 18.573c.1-.1.1-.1.3-.1-.1-.1-.4 0-.3.1zM34.34 17.974l.1-.1-.1.1c-.1 0 .1-.1 0 0zM33.343 19.371c.1 0 .2-.1.3-.2h-.1l-.2.2zM33.642 19.172h.2c0-.1-.1-.1-.2 0zM33.543 19.67l-.2.1.3-.1h-.1zM33.643 19.87c-.2.1-.2.2-.3.2h.3v-.2zM33.842 19.371s-.2.1-.2.2l.2-.2zM33.842 19.371s.1.1 0 0c.1.1.1 0 0 0zM33.941 18.872c.1 0 .3 0 .5-.1-.2 0-.3.1-.5.1zM34.141 19.172v-.1c-.1 0-.1.1-.2.1h.2zM34.041 19.77h.2v-.2c-.1.1-.3.2-.2.2zM34.24 19.57c0-.1 0 0-.1 0h.1zM34.14 20.07s0-.1.1-.1c-.1 0-.2.1-.1.1zM33.941 19.57c-.1.1 0 .1 0 0zM35.737 19.271c-.2.2-.399.2-.2 0-.199.1-.698.599-.997.898.1-.1.1-.1.3-.1.099-.1.099-.3.298-.399.2 0 0 .1-.1.2.2-.2.4-.2.7-.5h-.2c.1 0 .2-.099.2-.099zM34.44 19.97s-.1.1-.2.3c.1 0 .2-.1.3-.1l-.1-.2z"/><path d="M34.24 19.87c.2-.1.3-.1.5-.3-.1-.1-.2.1-.3.1.2.1-.1 0-.2.2-.1 0-.1 0-.1.1l.1-.1s0 .1 0 0l-.1.1.2.1c0-.1 0-.2-.1-.2zM34.84 18.672h-.1.1c0-.1-.1-.1-.2 0l-.3.3c.2-.1.3-.2.5-.3zM34.54 19.172h.2l.1-.2-.1.1s-.1.1-.2.1zM34.44 20.269l-.2.2.3-.2h-.1zM34.54 20.369l-.1.2.1-.1v-.1zM39.13 21.765c.1.2.3.5.2.2l-.1-.2h-.1zM40.326 18.872l.1.1s0-.1-.1-.1zM39.03 16.578l-.2.1c0 .1.1 0 .2-.1zM36.236 21.466c0 .1 0 .2.1.2-.1-.1 0-.4-.1-.2z"/><path d="M36.436 21.765c0-.1 0-.1 0 0-.1 0-.1 0-.2-.1.1.1.1.2.2.1zM35.538 20.169s.1-.1 0 0c.1-.1 0 0 0 0zM35.139 21.067s0-.1 0 0c0-.1-.1-.1 0 0zM38.53 15.28c-.1.1-.1.1 0 0zM38.73 18.972c.2.299.1.2.1.2l.399.598-.2-.4c-.2-.199-.299-.398-.299-.398z"/><path d="M39.329 16.777l-.2.1c-.399.1-.2 0-.499.1.699-.2.1 0 .798-.1l-.2.1c-.398.1.6-.1.5 0-.1 0-.2.1-.3.1h.2-.1l.1.1h.399-.2l.2.099c-.2 0-.4 0-.4-.1-.797.1.2 0-.298.1h-.1c-.4 0-.3 0-.599.1h.898c-.1 0-.1 0 .1.1h-.599c.1 0 .3.1.4.1h-.6c-.099 0 .5 0 .5.099-.1 0 0 .1.2.2-.1 0-.2-.1-.3-.1l.3.1h-.1c.1.1.299.1.398.199.4.1-.598-.1-.2.1-.099 0-.199-.1-.298-.1.2.2.2.1.498.4h-.2c.3.099.5.298.7.498.1 0 .199.1.299.1l.1.2c-.1 0-.2-.1-.3-.2l.1.1c-.1 0-.3-.1-.499-.3.1 0 .1 0 .2.1-.2-.1-.4-.3-.6-.3 0 0 .1 0 .1.1-.1 0-.1-.1-.1-.1l.1.1-.398-.2.1.1h-.3c.3.3.798.699.798.898-.2-.199-.399-.299-.698-.498.3.2-.1-.2 0-.2-.1 0-.2-.1-.2-.1l.1.1.1.1c-.2-.2-.2-.1-.3-.2.5.3.2.3.3.5-.1-.1-.3-.3-.2-.3-.399-.2.4.499.1.3v-.1c.1.1-.1.1-.2 0-.1 0-.199.199.1.598 0 0-.299-.499-.399-.499 0 0 .2.3.4.699.199.399.398.698.398.698-.2-.4-.798-1.197-.897-1.397 0 0-.1-.1-.1.1l.299.499c-.3-.4-.2-.2-.399-.499.1.1.3.599.3.698 0-.1-.3-.598-.3-.598s.1.2.1.3c0 .199.1.298.1.298 0-.1-.2-.498-.3-.598.1.1-.1 0-.1.1l.1.1c-.1-.1.2.897.1.897 0-.1-.2-.798-.3-.798.1.3.3 1.497.1 1.796l-.1-.2-.1.2V19.67c-.099-.1-.099-.2-.099-.2v-.298l-.1-.1c.1.399 0 .399 0 .698l.1-.399c.1.4.1 1.097 0 .998 0-.2 0-.699-.1-.799 0 .1-.1.3-.1.2v-.2c0-.1-.1.5-.1.1v-.299c0 .4 0 1.796-.099 2.095 0 0-.2-.399-.2-.599 0-.299.2-.798.1-1.097 0 .1 0 .2-.1.3v-.3c-.1.4-.1 0-.1.3-.099.1 0-.1-.099-.1 0 .299-.2.798-.3.898 0-.1 0-.2.1-.3-.1-.1-.1-.3-.199-.3 0-.099 0-.199.1-.398 0 .1-.1.2-.1.2.1-.3.1 0 .2-.4-.1.2-.2.3-.3.4-.1.299.1.1.2 0-.2.398-.5.897-.699.997-.2 0 .1-.3 0-.2-.2-.2-.598.6-.598.2.1-.3.3-.499.399-.698.1 0 0 .2.1.299v-.2c.1-.1.2-.1.2 0 .099-.299-.3-.2-.2-.498-.1.1-.2.1-.2.2h.1c-.1.199-.3.199-.3.298-.199.1-.398.2-.398.1l.199-.3c-.1.1-.1.2 0 .1-.1.1.2-.498-.1-.199l-.1.2c-.199.1-.498.299-.498.1l-.2.299c.3-.4.2.2.499-.2-.3.4 0 .2-.2.599.2-.2.2-.3.3-.2 0 0 .1 0 .1-.1s0-.1.1-.2c.199-.199.299-.099.398-.199 0 .1-.1.1-.1.2l.2-.1c-.1.2-.1.4-.3.499l.1.1c0 .2 0 .3.1.2 0 .1.3-.2.1 0h.2v.1c.2.099.498-.2.498.298.1 0 .2-.1.3 0v.2c.1 0 .2.3.299.1 0 .598.4.2.599.299v-.3c.1 0 .2 0 .399-.199v-.3c.1-.199.299.2.499.1 0 .1-.1.1-.1 0 .1.3.2.2.299 0 .1-.1.2-.299.3-.1 0-.099.1-.099.1 0l.099.1c0-.1-.1-.1-.1-.1l.1-.099.1.2c.1.1 0-.1-.1-.3v-.2c.2.4.1-.199.3.2-.1-.2.199-.299 0-.698 0 .1.099.1 0 .1.099 0 .099 0 .099-.1l.2.3s0-.1-.1-.2c0-.1-.1-.2-.1-.2.2.1.3.2.3.499-.1-.4 0-.2-.1-.599l.1.2s-.1-.3.099-.2c.2.1.3 0 .4-.1.099-.1.199-.299.498-.199-.599-.399.3.1-.1-.3.1.1.2.1.3.2 0-.2.299-.1 0-.399.1.1.199.1.299.2 0 0-.1-.1 0-.1s.1.1.1.1c.1-.2-.4-.4-.699-.599.2 0 .2 0 0-.2.1 0 .3.1.3.2 0 0 .299-.2 0-.3.1 0 .1-.099 0-.099.1-.1.1-.1.1-.2h-.1c-.4-.199-.1-.1-.1-.199.399-.1-.1-.1.299-.2h-.3c-.598-.1.4-.1.2-.299h-.2c-.199-.1.799-.1.898-.1.1 0 .1 0 .1.1.4-.2-.299-.1-.399-.2.2 0 .5.1.5 0 .199-.099-.6-.299-.2-.398-.1 0-.3.1-.4 0-.1-.1.5-.3.1-.4h.1c-.1-.1-.2-.199-.499-.199.499-.1.3-.2.2-.3-.2-.099-.3-.099.1-.199l-.1-.2h.1c0-.199-.2-.099-.4-.099 0-.1.1-.1.2-.1.1-.3 0-.3-.499-.2l.2-.199c-.2.1.2-.499-.2-.499l.1-.1c-.2 0-.2-.199-.2-.399 0-.199-.1-.299-.498.1 0 0-.1 0-.1.1-.1 0-.1.1-.1.1.1.2-.3.3-.3.499-.1 0 0-.3.1-.3.3-.399-.1-.299.1-.598-.3-.2-.598-.599-.997-.699v.2l-.1-.1c0-.1 0-.3.1-.3 0-.199-.2.2-.2.2-.1-.2.2-.498.1-.498h-.1v.1c-.1.199-.1.299-.2.299-.1-.1 0-.3 0-.3l-.199-.1v.3c-.1.2-.1 0-.1.3 0-.3-.2-.3-.3-.4-.099 0-.298.1-.298 0-.1.2-.2.2-.3.2 0 .1.1.399 0 .399-.1-.799-.2-.3-.399-.799.1.3-.299.2 0 .6-.1 0-.1-.3-.2-.4-.099.3-.498 0-.698.1 0 .1.1.2.1.399l-.2-.2-.199-.2c0 .1.2.5 0 .3.1.2.2.3.2.4-.3-.1-.5.099-.699.299l-.299.299c-.1.1-.3.1-.599.1.2.1.2.1.2.2.1 0 .2.199.3.199h-.4c.3.2-.1.2.2.399v-.1c.299.3.898.399 1.297.698-.2-.2 0-.1.1 0s.299.1 0-.1l.199.2c-.2-.2-.2-.2-.1-.2.1-.1.3 0 .499 0l-.2-.199s.1.1.2.1c-.2-.4-.1 0-.3-.4.4.4.2-.1.6.4 0 0-.2-.3-.1-.3l.1.1-.1-.2s.199.2.199.3v.1c.1.2.1-.1.1-.1h-.2c.1-.2.3 0 .3-.4v-.099c.1-.3.1.1.2 0 0-.1 0-.2.099-.2 0 .2.1.3.1.4.1-.3 0-.2.1-.699v.2c0-.2 0-.3.1-.3-.1.2 0 .3 0 .6.099.398.199-.5.199.199.1-.599-.1-.3-.1-.4 0-.199.1-.398.1-.398.1 0 0 .698.1.698 0 .2.1-.2.1.1.099-.3.099 0 .199-.4l-.1.1c.1-.1.2-.598.3-.299 0 .1-.1.2-.1.3 0 .1.1-.1.1.1-.1.398-.1.099-.3.398 0 .2.2-.3 0 .2.2-.599.1.1.2-.3l-.1.3s.1-.2.1-.1l-.1.3c.1-.3 0 .299.1.099-.1 0 .1-.3.1-.499.299-.3-.2.699-.1.599 0 0 0-.2.1-.3 0 .1 0 .2-.1.3.1 0 .1-.3.199-.4-.1.3.1-.099.2-.199v.1c0 .2.299-.499.299-.2l-.3.2h.1l-.2.3c.2-.2.1-.1.1 0 .1-.2.3-.4.4-.4-.1.1-.2.1-.1.2l-.1.1c-.1 0-.2 0-.2.1-.1.199 0 .099 0 .099v-.1s.1-.1.2-.1c.1-.1.2-.1.2-.1l-.2.2s.1-.1.2-.1c-.2.1-.3.3-.4.4 0 0 .1 0 .1-.1.1 0 .1-.1.1-.1l-.2.2c-.1.1.4-.2.3-.1 0 0 .1 0 .1-.1 0 .1-.2.2 0 .1l-.3.2c.1 0 .4-.2.599-.2.1 0-.3.1-.4.2 0 .1.4 0 .1.1zm.2.599s-.2 0 0 0c.298 0 .099 0 0 0zm.298 1.396c-.1-.1 0-.1 0 0 .1 0 .1 0 0 0zm-4.29 2.295c0 .2 0 .1 0 0zm0-.1s-.1 0 0 0c0 0 .1-.1 0 0zm2.994-7.482c-.1.1-.1 0 0 0z"/><path d="M39.528 18.473s.1 0 .1.1c0-.1 0-.1-.1-.1zM34.64 20.868h.1v-.1l-.1.1zM35.438 19.171l-.1.1s.1 0 .1-.1zM35.239 20.07c.2-.2.1-.1 0-.2-.2.3-.1.3 0 .2zM35.339 20.967c0-.1-.2.2-.1.1-.3.2.3-.1.1-.1zM35.738 19.57l-.2.2.2-.2zM36.535 20.469h.1c0-.1.1-.2 0-.1 0-.1-.1 0-.1.1zM36.635 19.67c0 .1 0 .1-.1.2l.2-.3-.1.1zM36.934 19.67c.1-.1.2-.2.1-.2s-.2.1-.1.2zM38.231 18.972c-.1-.1.1.3 0 .2 0 .1.1.1.1.2 0-.2.1-.1-.1-.4zM34.341 15.48l-.4-.1.4.1c-.1 0-.1 0 0 0zM39.13 17.077h-.1l.4-.1-.3.1zM38.63 16.977s.1 0 0 0c0 0 .4-.2 0 0z"/></g><defs><clipPath id="clip0"><path fill="#fff" transform="translate(9 7)" d="M0 0h81.409v85H0z"/></clipPath></defs></svg>