<svg width="100" height="100" fill="none" xmlns="http://www.w3.org/2000/svg"><g clip-path="url(#clip0)" fill="#FBCB09"><path d="M56.82 32.205c-.112-.225-.225-.112-.225-.112.113.338.226.112.226.112zM58.85 35.926h-.113l.451.45-.338-.45zM60.654 39.533c.113-.45-.677-1.24-.902-1.916v-.113l-.338-.113c.338.677 1.014 1.578 1.24 2.142zM60.992 41.788c0-.226.338.338-.225-.451v.113c.112 0 .112.112.225.338z"/><path d="M60.767 41.337c-.113-.338.112.338 0 0zM61.894 43.028l-.225-.225-.226-.226c0 .113.226.564.113.451.338.451.338.338.338 0zM62.345 43.367l-.225-.226.225.226zM61.781 42.69l.451.45c0-.112.113-.112-.225-.225.113 0 0-.112-.226-.225zM61.669 42.352c-.113-.338-.226-.677.112-.226-.563-.901-.676-.676-.112.226zM60.992 39.533l-.113-.45-.225-.226c.113.113.338.79.338.676zM63.585 46.072c.113 0 0-.226.113-.338l-.338-.339c.112.226.338.564.225.677z"/><path d="M63.698 45.734l.45.45c-.225-.563-.337-.563-.45-.45zM62.796 43.254l-.79-.79.79.902v-.112zM64.938 47.989l-.338-.226.676.338-.338-.112zM65.953 49.229c-.226-.113 0 .45-.226.225.338.339.564.564.902.677-.225-.226-.45-.451-.676-.902zM67.08 50.47c-.113-.114-.338-.226-.45-.34.112.114.337.226.45.34zM64.713 46.974c0 .113 0 .226.112.564V47.2c0-.113 0-.113-.112-.226zM64.938 47.2c.113.225.225.338.338.45-.112-.112-.225-.225-.338-.45zM63.472 44.72c.339.225.79.788.564.112-.338-.226-.113.225-.564-.113zM64.713 46.523l-.339-.564s0 .226-.225.113l.564.451zM64.938 46.748l-.225-.225.225.225zM66.516 49.455l.677.676c-.226-.338-.451-.564-.677-.902 0 0-.225 0 0 .226zM65.727 48.327s.113.113 0 0c.113 0 .113 0 0 0zM66.63 49.229a.88.88 0 00-.452-.451c.113.113.226.338.451.45zM67.87 51.145c-.114-.112-.226-.225-.226-.45 0 .225.112.45.225.45zM65.84 48.552c.113.113.225.113.338.226-.113-.113-.225-.226-.338-.226 0-.112 0-.112 0 0zM71.139 52.611c-.226.113-.79-.338-1.015-.902-.564-.338-.676.338-.564 1.015.113 0 .113-.113.677.338-.113-.225-.79-1.24-.338-.902.676.564.45.564.676.902-.113-.451 1.015.564 1.127.226l-.676-.564c0-.113.225.113.113-.113zM68.658 51.71l-.225-.226.45.902c.34.225.452.338.565.225l-.451-.45c-.226-.226-.451-.452-.339-.452z"/><path d="M67.757 50.695c.338 0 .789.45.676 0-.564-.564-.451-.339-.902-.564.902.902-.338-.226.225.564l-.45-.451c.112.225.225.338.338.563 0-.112 0-.112 0 0 0-.112 0-.112.112-.112-.112 0-.112 0 0 0 0 0 .113.225 0 0h-.112l.902.901a7.363 7.363 0 01-.79-.901zM64.713 45.058c.112.112.112.112 0 0z"/><path d="M64.938 45.508c-.113-.113-.225-.113-.338-.338-.113-.225.113 0 .113-.113-.113-.112-.451-.45-.226.113h.113c.225.451.338 1.127.338 1.127v-.789zM66.29 48.101l.677.79-.225-.564v.113c-.226-.451-.338-.339-.451-.339zM69.448 52.95h-.226l.677.225-.451-.226zM70.462 53.851l-.225.113.338.225-.113-.338zM34.837 68.62c-.113-.113-.113 0 0 0zM75.085 64.562c-.451-.113-.902-.451-.902-.226l.112.226h.79zM52.65 66.816s.112 0 .112.113c.113-.113.226-.113.338-.225-.112 0-.225 0-.45.112zM52.424 67.605l-.564-.112c.113.112.338.112.564.112zM20.744 69.41l-.45.225c.563 0 .337-.113.45-.226zM81.172 62.758l.339.338.112.113v-.113s-.112-.113-.112-.225c-.113-.113-.226-.113-.338-.113zM33.37 66.478c-.225 0-.225.113-.225.113.226 0 .339-.113.226-.113zM81.962 63.434c-.113-.113-.226-.113-.339-.225.113.225.113.225.339.225zM53.664 37.391l-.338.338c0-.112.113-.225.338-.338zM74.295 57.797c-.225-.225 0-.113 0 0zM86.02 64.336c0 .113 0 .113 0 0 .113 0 0 0 0 0zM74.07 57.346c.113.113.113.226.225.338 0-.112-.112-.112-.225-.338zM74.07 57.459l-.226-.226c0 .113 0 .113.226.226zM74.634 58.023l-.339-.338v.112c.113 0 .226.113.339.226zM24.916 58.924c.112 0 .112 0 0 0 .225-.338.225-.225 0 0zM66.855 67.267c.45-.225.676-.225 1.014-.225l-.45-.564-.564.79z"/><path d="M27.396 68.959l.676.112c-.902.338-1.465.226-.789.451.113-.676 2.819-.225 2.819-.789l.45.113h-.338c.902.225.677-.451 1.804-.451.451 0 .676.113.451.225l.902-.225c.225 0 .225.113-.113.113l1.353-.113c.226-.113.677-.338.902-.338.338.112-.225.112-.113.112l.79-.225c.338.113-.339.338-.902.338.789.564.676-.225 2.254.113l-.45.338c.45.338 1.014.225 1.916.338-.226-.112-1.691-.563-.902-.676.225 0 .564 0 1.015-.113 0 .226.45.113 1.014.113v.338c.564-.113.564-.225.902-.45.677 0 .79.225 1.015.45 1.014 0-.79-.338.564-.45.901.112 1.465-.114 2.593-.34.676.114-.113.226.112.226l.564-.225c.113 0 .113.113.113.113.45-.113 0-.339.789-.451.225-.339 1.465.45 2.367 0 .226.112-.112.225 0 .338 1.24-.338 1.015-.226 2.03-.564l.902.113c-.677-.226.112-.564.902-.79-.226-.112-.451-.225-.564-.225l1.127-.225c.113 0 0 .112-.112.338.112 0 .112 0 .225-.113.451.113.225.226-.113.451-.112 0-.225-.112-.45-.225-.226.225-.564.45-.452.563.113 0 .226-.112.339-.112-.113 0-.113.112-.113.112s.113 0 .338-.112l.226.338v-.113l1.465.113c1.015-.338 1.917-.902 3.608-1.127-.451.225-.113.45-.113.676-.45-.338-1.353.225-2.142.113.451 0 .338.112.226.225l1.578-.338c0 .225.338.113.79.225-.34-.45 1.126-.338 1.803-.563 0 .113-.113.338-.902.338.902.338 1.127-.564 1.916-.338-.225 0-.338 0-.338.113.451-.113 1.579-.113 1.24 0h-.225c1.24 0 3.833-.113 3.946-.564 0 0-.113.45-.226.564l2.142-1.466c-.225.338.564 1.127-.45 1.353.338 0 .676.113 1.352-.113-.225 0-.563-.451-.225-.564.79.338.564.226 1.466.451-.339-.112 0-.676.45-.676-.112.113.113.563-.112.563l1.127-.563c-.338.113 0 .45.226.563-.113-.112 1.014 0 1.353-.112l-.564-.113c1.353 0 1.353-.79 2.706-.79-.113.114-.339.677.338.79.338-.338 1.353-1.353 2.48-1.691l.225.113.902-.226c-.563.451-2.142 1.353-2.93 1.804.563.113.112.225.901.113.226.112-.45.225-.676.225h1.803c-.112-.338 1.353-.338 1.24-.676l-1.916.45c-.113-.337 1.127-.901 2.368-.901.338.113-.226.564-.226.676.113-.112.338-.112.677-.112h.789s-.226 0-.338.112c-.113 0-.226.113-.226.113H81.511c.225 0 .45-.113.676-.113.451-.112.79-.225 1.579 0 .225 0 .676.113 1.014.113.451.113.79.113.677 0-1.353-.338-2.593-1.353-2.706-1.691l.902.225c.45.113 1.127.226 1.578.226.564.113.79.225 1.015.45.113.114.225.34.789.452-.113-.113 0-.226 0-.226.564 0 .45.226 1.353.226-.677-.338 1.916 0-.338-.226h1.465c.113 0 0 0 .113-.112 0 0-.113-.113-.225-.113-.226 0-1.128-.338-1.917-.564-.902-.225-1.578-.564-1.917-.676h.451c-.563-.339-.902-.564-1.24-.902-.338-.338-.789-.564-1.353-.902 0-.113-.563-.564-.225-.451-.113 0-.226-.113-.338-.113-.113 0-.339-.113-.451-.225-.226-.339 0-.226.112-.113.226.113.564.338.339 0h-.226c-.113 0-.225-.113-.338-.113-.338-.113-.564-.338-.902-.45 0 .112.225.337.564.563.112.113.338.113.45.225.226.113.339.226.564.226-.112.113-.225.113-.338.113h-.564c-.45-.113-1.014-.226-1.578-.564-.902-.451-.225-.451-.45-.564-1.467-1.24-1.805-.45-2.82-1.69-.338-.565.339-.452.339-.677.676.45.902.902 1.353 1.24l-.451-.564c.225.113.789.338.902.564-.113-.226-.79-.79-1.579-1.353-.676-.564-1.578-1.24-2.029-1.804-.225-.113-.676-.338-.564-.113l.338.339c.226.45-.901-.339-.45.112-.564-.338-1.24-.676-1.804-1.353l.112-.338c0 .113.339.564.564.677-.225-.113-.338-.339-.563-.677-.226-.338-.452-.563-.677-.563l.338.563c-.563-.338-1.353-.676-1.804-1.353 0 .451.113.113.339.79 0-.677 1.465 1.465 1.24.563.112.677.676.79 1.014 1.579 0-.113-.112-.339.339.225h.112c-.112-.113-.112-.225-.112-.338.45 0 1.127.79 1.578.902.226.338-.225 0-.113.225l.564.226c-.113.225.564.902-.225.45l.676.565c.338.45.79.901 1.24 1.127.338.225.902.45.564.338l1.127.676c.564.451 1.128.677 1.691 1.015.113.113.339.226.451.226.113.112.338.225.338.225.113.113.226.226.226.338a.62.62 0 01.564.339h-.226c.113 0 .113.112.113.112s0 .113.338.113c-.45-.113-.564-.113-.564-.113-.112 0 0 .113-.225.113l.45.226c-.225 0-.225.112-.563.225l.226.226c-.113.112-.451.112-.677 0h-1.578c.113-.113.338-.113.564 0-1.353-.452-2.819.45-4.172.225-.338.113-.563.113-.789 0h.113-.113c-.113 0-.225-.113-.451-.113.113 0 .225.113.338.113-.225 0-.563 0-.902.113h-.338-.113c-.338-.113-.225.112-.112.338-.226 0-.339.113-.451.113-.338-.339-.902.112-1.353-.226-.226.226-1.804.226-1.917.677 0 0-.112-.113.113-.113-.451 0-.79-.113-1.127.113l-.226-.339-.902.451c-.563-.112-.789-.225-.225-.45-1.24.45-1.015.225-2.03.563v-.225c-.338 0-1.014.338-1.24.112-.902-.338-4.171.113-6.426-.112.451.563-1.015-.226-1.127.225-.113-.113-.451-.225-.113-.338-1.127.225-1.691-.113-2.48.225-.113-.112.225-.225.112-.225-.112 0-.338.113-.45 0-.113-.113.112-.113.338-.226-1.128.113-1.24.451-1.353.902-.564-.112-.902-.112-1.24.113-.226-.113-.564-.225.112-.338-.45 0-2.48-.113-2.48.225-.113-.112-.564 0-.676 0-.902 0-1.015 0-1.804.113h.225c-.112.564-.563.338-1.24.338-1.69-.225-.676.113-2.367-.112l.112.225c-.112.451-1.465-.225-2.367 0l.338.113c-.45.225-1.465-.564-1.916-.677-.113 0 .225-.112.338-.112-1.353-.226-.113.338-1.128.45-.225-.112.226-.45-.45-.45-.339-.113-1.917.563-2.82.338.226.112.452.225 0 .338-.675.113-1.916-.338-2.592 0-.113 0-.113-.113-.113-.113-.564.113-1.804.226-2.03.451-.563-.789-3.381.564-3.381-.225l-1.691.113v-.113c-1.015 0-1.466.225-1.804.338-.226 0-.113-.113 0-.113-1.579-.112-1.691 0-3.044.338l-.113-.225h-1.353c-.338-.113-.676-.113-1.24 0 0 0 .113-.113.226-.113-.339.113-.564.113-.677 0-.113 0-.225-.112-.225-.112.45-.339.563-.339-.226-.226v-.225c0-.113.113-.226.113-.226-.451.338-.677.338-.677.338-.112 0-.112-.225-.45 0 .225-.225.563-.45.789-.563.225-.113.45-.113.225.112l-.113.113c.339 0 .564-.113.902-.338.226-.226.564-.451.677-.338l.676-.564a4.9 4.9 0 00.79-.677c.563-.45 1.127-.901 1.69-1.24 1.128-.789 2.255-1.69 3.27-2.48l-.451-.113.79-.563c.225-.113.45 0-.114.45.451-.112.79-.901.79-.901 1.127-.677-.113.676.225.338l.451-.338h-.113c.226-.338.226-.564.79-1.015.45-.225.338 0 .45-.113 0 0 .113 0 .226-.225l.902-.677-.677.113c.338-.45.902-.676.226-.564.902-.112 3.495-2.705 4.058-2.93.451-.677 1.015-1.128 1.691-1.692-.225.113-.563 0 .113-.564.226.677 1.24-.676 2.03-.676-.677.113 1.69-1.466.676-1.24.564-.338.225.113.676 0 1.015-1.128 2.706-2.03 4.172-3.27 0-.112-.338 0-.113-.338l1.015-.338c.225-.226 0-.564.676-.79-.113 0-.338 0-.113-.112 3.157-2.03 5.75-5.073 9.132-6.99-.45.226-.225 0 0-.338-.225.113-.112-.113-.225-.225l1.465-.79c0-.45 1.353-1.127 1.24-1.465l-.338.338c.339-.677-1.24 0-1.465-.451-.226 1.015-1.804 1.015-2.368 2.142-.225.113.113-.225-.112-.225-.113.338-.339.676-1.015 1.014v-.113c-1.466 1.24-2.255 1.691-4.059 2.932l.226.112c-.338.226-.451.339-.677.339-.225.563 1.015-.79.902-.226-.789 0-2.593 2.142-3.27 2.03-.563.45.339.112-.225.563h-.225v.226c-.338.225-.677.338-.79.225l.339-.338c-.564.225-1.353 1.127-1.466 1.24l.564-.338c-1.466 1.353-3.495 2.818-4.735 4.171h.225c-1.014 1.128-1.014.677-2.142 1.804-.225.338-.45.564-.789.902.226-.338-.79.338-.45-.113-1.128 1.128-.452.677-1.016 1.578h-.338c-.225.339-.113.452-.789 1.015.451-.563-.564.113-.113-.563-1.578.789-1.69 1.916-2.705 1.916-.339.902 1.353-.676 1.014-.338.338-.113-.225.676-.676 1.014-.451.339-1.128.113-2.142 1.015l.225-.225c-.45.225-.676.789-1.24 1.014-.113.451-.676.451-.45.902l.901-.902c-.45.564-.676 1.24-1.804 1.804 0-.113.226-.45.338-.563-.338.112-.45.45-.789.563-.113-.338 1.128-1.014 1.466-1.69-.338.112-.902 1.127-.902.563-.113.789-1.127.789-1.578 1.69l-.113-.225c-.113.113-.226.339-.451.564l.225-.564c-.45.677-1.24.79-1.69 1.353 1.127-.902.45 0 1.014-.225-1.24 1.353-1.24.225-2.706 1.578.226-.225.902-.564.677-.225-.339.225-.79.45-1.015.563-1.015.902.338 0 0 .564-.226 0-.338.226-.451.338 0 .113-.113.226-.113.339l-.113.112c0 .113-.112.113-.225.226l-.225-.338c-2.03 1.465 0 .676-1.691 1.803 0 0 0-.112.112-.338.113-.113.113-.338.113-.338l-.79.676-.225-.112c-.676.789-1.014 1.014-2.142 1.916.338-.113.451-.113.564-.113 0 .113-.113.226-.451.564-.902.564-.226-.113-1.353.79-.225 0-.338-.114.79-.79-.113 0-.113-.113-.226-.113-.79.451-1.466 1.128-1.804 1.466h.564-.451c.113 0 .113-.113.113-.113v.113l2.93-.451c.113.113-.225.113-.676.225.564 0 1.015-.225 1.691-.225-.563.225-.789.451-2.029.564l2.706-.339c0 .113.902.226.564.226.676 0 1.578-.113 2.48-.226.45-.112.902-.112 1.353-.112h.789s.113-.113.338-.113c.902 0 1.804.225 2.819-.113l.676.338c.902-.112-.902-.338.564-.563 1.014-.113.338.225.789.338.45-.225 1.353-.564 2.367-.338-.45.112-.676.112-1.014.112zm10.71-.564c-.226 0-.564.225-.79.113.226-.339.452-.226.79-.113zm16.122-1.24c-.113.112-.339 0-.677 0a.719.719 0 01.677 0zm22.66-7.554c.339.451.226.226 0 0zm-.676-.676c-.113 0-.113 0 0 0 0 0 .113.225.338.338 0-.113-.113-.225-.338-.338zm-47.914-.79l-.226.113c.338-.338.226-.225.226-.112z"/><path d="M52.424 67.493c-.113 0-.113-.113-.113-.113 0 .113 0 .113.113.113zM87.824 66.252c-.338 0-.676 0-.79-.112.114 0 .34.112.79.112zM72.04 55.768l.452.45c-.226-.225-.226-.338-.339-.45 0 0 .113.112-.112 0zM69.335 50.92c-.113 0-.113-.113-.226-.226l-.112.113c.338.226.563.451.338.113zM72.153 54.866c.113-.226-.225-.451-.563-.676-.226.112.225.338.563.676zM71.59 54.077c-.113-.113-.226-.226-.339-.226-.112 0 .113.113.339.226zM75.197 58.248c-.112-.226-.225.113-.338 0-.338 0 1.24.676.338 0zM72.379 54.077v.338h.225l-.225-.338zM74.746 56.557l-.45-.564s-.113 0-.226-.113c.338.451.676.79.676.677zM74.07 55.993c-.113-.113-.338-.338-.451-.338.113.112.338.225.45.338zM73.055 54.753l.113.113.338.45-.45-.563zM80.496 61.292l.677.338c.112 0 0-.225-.226-.338-.225 0-.45-.225-.45 0zM79.03 59.376c.113.112.113.225.113.338l.226-.226-.339-.112zM80.834 60.615c.113 0 1.015.451.226-.112-.113 0-.677-.339-.226.112zM84.667 65.463h.226l-.902-.45s.225.112.338.225c.113.112.338.225.338.225zM74.52 67.155c.903.112.226-.339 1.016-.226.225-.113-.677-.113-.451-.225-.564.112-.79.112-.564.45zM75.085 66.704c.112 0 .225 0 .225-.113-.113.113-.225.113-.225.113zM55.468 36.264l.45-.338-.337.112-.113.226zM56.032 35.25l.338.112.113-.45c-.113.112-.339.337-.451.337zM39.684 68.958c0-.112-.225-.112-.45-.112l.45.112zM31.905 68.958h.113l-.225-.225.112.225zM25.48 69.635c.225 0 .563-.113.788-.113-.563.113-.902-.225-.789.113zM3.27 81.923l.225.113c-.113-.113-.338-.113-.226-.113zM2.931 81.473l-.113-.113.113.113zM2.931 81.134c-.338-.113 0 .113-.113.113h-.112l.225.113c.113 0 0-.113 0-.226zM3.72 81.247c-.112-.113-.112-.113 0 0zM3.72 81.022c.113.112.226.112.226.112s-.113-.112-.226-.112zM3.495 80.909c0 .112.113.112 0 0z"/><path d="M3.608 81.022c-.113 0-.226-.113 0 0-.113 0-.113 0 0 0zM3.495 81.022h-.226c.113.112.339.112.226 0zM2.706 81.022c-.113.112 0 .112 0 0zM3.946 80.796c-.113 0-.226 0-.226-.112h.113c0 .112 0 .112.113.112zM3.608 80.796c-.113-.113 0 0 0 0zM3.157 80.796l.225.225-.225-.225zM3.946 80.683h.225l-.225-.112v.112zM4.059 80.57c.112.114.225 0 .338.114-.113-.113-.226-.226-.338-.113.112-.113.112-.113 0 0zM3.946 80.345s.113 0 .113.113c0 0 0-.113-.113-.113zM3.27 80.796c-.113-.112-.226-.112-.339-.112.113 0 .226 0 .338.112zM3.382 80.57l.113.114-.113-.113zM3.72 80.345c-.112-.112-.112-.112-.225 0 .113 0 .225.113.225 0z"/><path d="M3.495 80.345c.113.113.113 0 0 0 .113 0 0 0 0 0zM2.48 79.556c.226 0 .338.113.113.113.113.113.79.338 1.127.338-.112 0-.112 0-.225-.113h-.451c-.113-.112.113 0 .225 0-.225-.112-.338-.225-.789-.338h.226c-.113.113-.113 0-.226 0zM3.608 80.12h.338c-.113 0-.113-.113-.338 0zM3.608 80.232c-.113-.112-.226-.112-.451-.225 0 .113.112.113.225.113 0 0 .113.112.226.112h0c.112 0 .112 0 0 0 .112 0 .112 0 0 0 .112 0 .112 0 0 0 .112 0 .112 0 0 0 .112 0 .112 0 0 0 .112 0 .112 0 0 0 0 0 0-.112 0 0zM2.593 80.458c.113 0 .113 0 0 0 .113 0 0 0 0 0s0 .113.113.113h.338c-.113-.113-.226-.113-.451-.113zM3.044 80.345l-.226-.113h.113l.113.113zM3.833 80.007l.226.113-.339-.113h.113zM3.833 79.894l.226.113-.113-.113h-.113zM3.833 75.16s.113 0 .113.112c0-.113 0-.113-.113-.113zM3.27 72.228l-.113-.113c-.113.113 0 .113.112.113zM4.284 78.654c-.113 0-.113 0 0 0-.113.113 0 .113 0 0 .113.113 0 .113 0 0zM4.397 70.875s.113 0 0 0c0-.113 0-.113 0 0zM2.48 76.061c.226.113.226.113.113.113l.564.112-.677-.225z"/><path d="M3.27 72.792h-.226c-.226-.113-.113-.226-.451-.226.676.226 0 .226.676.451h-.112c-.339 0 .45.226.338.226h-.226l.113.112H3.27v.113c.113 0 .226.113.339.113h-.113l.113.112c-.226 0-.339-.112-.226-.112-.676-.113.113.112-.225.112l-.113-.112c-.338-.113-.226 0-.451 0 .113 0 .564 0 .676.112 0 0-.112 0 0 .113-.225-.112-.225 0-.225 0l-.338-.112c.112.112.225.112.338.225h-.451c-.113.113.338 0 .451.113-.113 0 0 .112.113.225-.113 0-.226-.113-.226-.113l.226.226h-.113c.113 0 .225 0 .338.113.338.112-.45 0-.113.112-.112 0-.225-.112-.338-.112.226.112.113.112.451.338h-.225c.225 0 .45.113.676.225h.226l.112.113s-.112 0-.225-.113h.113c-.113 0-.339-.112-.451-.112h.225c-.225-.113-.338-.113-.564-.226h.113-.113l.113.113-.338-.113h.113l-.226.113c.338.225.79.338.902.564-.338.112-.45.112-.789 0 .338 0-.113-.113 0-.226h-.226l.226.226c-.226-.113-.226 0-.338 0 .45.112.225.225.45.225-.112 0-.338-.113-.225-.113-.338 0 .564.226.226.226.112.113 0 .113-.113.113-.113.112-.113.338.338.45 0 0-.45-.112-.564-.225l1.24.564c-.338-.113-1.127-.226-1.352-.451 0 0-.113 0 0 .112 0 0 .45.113.563.113h-.563c.112 0 .563.113.563.226-.112 0-.563-.113-.563-.226l.338.226c-.113 0-.451-.113-.564-.113.113 0 0 .113 0 .113h.113c-.113 0 .79.225.676.338-.112 0-.676-.225-.676-.225.225.112 1.24.45 1.466.563h-.113l.113.113c-.339-.113-1.24-.564-1.466-.677h-.225c-.113 0-.226-.112-.226-.112l-.113.112c.226.226.226.339.451.451l-.225-.338c.338.113.902.338.789.451-.113 0-.564-.225-.676-.225.112 0 .225.112.112.112h-.225c-.113 0 .338.226.113.226h-.226c.338.113 1.466.338 1.691.45H3.27c-.338 0-.676-.225-.901-.225.112 0 .225.113.225.113-.113 0-.225-.113-.225 0h.225c.113.113-.113 0-.113.113.226 0 .677.225.79.338h-.226c0 .113-.226.113-.226.226H2.48l.113.112c-.338 0 0-.112-.338-.112.225 0 .225.112.338.225.338.113.113-.113 0-.113.338.113.79.338.902.451.113.113-.226 0-.226 0-.112.113.677.338.339.338-.226 0-.451-.112-.677-.225 0-.226.226-.226.226-.226h-.113c-.113 0-.113-.112 0-.112-.226 0-.113.225-.338.338.112 0 .112.113.225.113.226 0 .226.112.338.112.113 0 .226.113.113.226l-.338-.113h.113c.112.113-.451 0 0 .113h.225c.113.113.451.225.338.225h.339c-.451-.112.112-.112-.339-.225.339.113.226 0 .564 0-.113 0-.225 0-.113-.113h-.225c-.226-.112-.226-.112-.226-.225h.226l-.113-.113c.226 0 .338 0 .451.113v-.113c.113 0 .226 0 .113-.113 0 0-.226-.113 0-.113l-.113-.112c0-.113-.338-.338.113-.338 0 0-.113-.113 0-.113h.225c0-.113.226-.113 0-.113.451.113.113-.225.226-.225l-.226-.113s0-.113-.112-.226h-.226c-.338.113 0 .113 0 0 .113 0 0 0 0 0 .451 0-.225-.338.113-.338-.113 0 0 0 0-.113h.113-.113l-.113-.112h.226c.112 0-.113 0-.226-.113 0 0-.113 0-.113-.113.339.113-.112-.112.339 0-.226-.112-.113-.225-.451-.338h.112s.113 0 0-.113l.339.113-.339-.225c.226 0 .339 0 .451.112-.338-.225-.112-.112-.45-.338h.225s-.226-.113-.113-.113c.338 0 .113-.338.564-.45-.564-.113.225 0-.113-.113.113 0 .226 0 .338.112-.112-.112.226-.112-.112-.225.112 0 .225.113.225.113s-.113-.113 0 0c.113 0 .113 0 .113.112 0-.112-.338-.225-.79-.338.226 0 .113 0-.112-.113.113 0 .225 0 .338.113 0 0 .226-.113-.113-.225.113 0 0 0 0 0 0-.113.113-.113.113-.113H4.51c.338-.113-.113-.113.225-.113H4.51c-.451-.113.338 0 .112-.113H4.51c-.113-.112.676.113.789 0h.112c.226-.112-.338-.225-.338-.225.113 0 .338.113.451.113.113 0-.45-.339-.112-.339-.113 0-.226 0-.339-.112 0-.113.451 0 .113-.226h.113c-.113-.112-.113-.225-.338-.225.676.225-.339-.338.338-.113v-.225h.112c.113-.113-.112-.113-.225-.226h.113c.225-.113.112-.113-.226-.338H5.3c-.113-.113.45-.113.225-.226h.113c-.225-.225.676-.112-.113-.45L5.3 71.89c-.113.112-.338-.113-.451-.113 0-.113.338 0 .338 0 .451.113.226-.113.451 0 0-.225.338-.451.45-.564h-.45v-.112c.113 0 .225 0 .225.112.226 0-.112-.112-.225-.112.113-.113.338.112.45.112-.112-.112-.225-.112-.225-.225h.226v-.113h-.226c-.112-.113 0-.113-.225-.113.45.113.225-.338.45-.338-.225-.113-.112-.225-.112-.225-.113 0-.338-.113-.338-.113.564.225.338 0 .79 0-.34 0 0-.226-.452-.226.113 0 .226.113.338.113-.225-.225.226-.225.226-.45-.113 0-.226 0-.338-.114h.45s-.45-.112-.112-.112h-.226c.451-.226-.112-.677.677-.79-.226 0-.226 0-.226-.112 0 0-.225 0-.338-.113h.338c-.338-.113 0-.113-.225-.225-.338-.113-.79-.113-1.24-.226.338.113-.677 0-.113.225-.113 0-.113-.112-.225-.112.225.112.225.112.112.112 0 .226-.225.226-.338.339h0c.338.112 0-.113.451 0-.564.112-.113.45-.676.338 0 .113.225 0 .225.113h-.113l.226.112H4.51c-.226 0 0 .113 0 .113h.112c-.112.113-.338.226-.112.451h.112c.113.226-.112.113-.112.226.112 0 .112.112.112.112-.112-.112-.225 0-.338-.112.226.225.113.112.564.338h-.226c.113.113.226.113.226.225-.113-.112-.226 0-.451-.112-.451 0 .338.338-.226.225.451.225.339 0 .339 0 .112 0 .338.113.225.225 0 0-.676-.112-.676 0-.113 0 .112.113-.113.113.225.113 0 .113.338.226l-.113-.113c.339-.113.677 0 .451.113-.112 0-.112-.113-.225-.113s.113.113-.113.113c-.338-.113 0-.113-.338-.226-.113 0 .225.226-.113 0 .451.226-.113.113.226.226l-.226-.113.113.113-.226-.113c.226.113-.225 0-.112.113 0-.113.225 0 .45 0 .226.225-.563-.113-.563.112h0c0 .113.225 0 .338.113-.225 0 .113.113.113.113l-.226-.113c-.225.113.451.113.226.226l-.338-.113.112.113-.225-.113c.225.113.113.113 0 .113.113 0 .45.113.338.225-.113 0-.225-.112-.225 0-.113 0-.339-.112-.113-.112-.113 0-.113-.113-.226-.113-.112 0-.112.113-.112.113h.112l.226.225c-.113 0-.113 0-.226-.113l.113.113c-.225-.113-.338-.113-.45-.225l.225.112h-.339c-.112 0 .339.226.113.338h.113c.338.339.113.339.338.564h-.338c0 .113.45 0 .564.226.112.112-.339 0-.339 0s.339.112 0 0c0 .112 0 .112 0 0zm0 .901c-.113 0-.226-.112 0 0 .112 0 0 0 0 0zm.112 1.466c-.113 0 0 0 0 0 .113 0 .113 0 0 0zm.564 4.059c.113 0 0 0 0 0zm-.113 0c0 .112 0 .112 0 0 0 .112 0 0 0 0zm2.142-8.23c-.113 0 0 0 0 0zM2.593 79.781c0 .113 0 .113 0 0l.113.113-.113-.113z"/><path d="M3.382 79.669c-.225-.113-.225 0 0 0-.113 0-.113 0 0 0 0 0 .113.112 0 0zM3.27 79.669c.112.113 0 0 0 0zM3.946 79.443s.225.113.113.113c.225 0-.226-.226-.113-.113zM2.706 79.443l.225.113-.113-.113h-.112zM2.931 79.218c0 .112 0 .112 0 0 0 .112.113.112 0 0zM3.157 78.654c-.113-.112-.226-.112-.113-.112 0 .112 0 .112.113.112zM2.48 78.541c-.112 0-.225-.112-.225-.112.113 0 .113.112.225.112zM3.044 77.64v.112l.45.113-.45-.225zM2.142 76.624c-.113 0 .338 0 .113.113h.225c-.112-.112 0-.112-.338-.112zM6.652 68.057l.338.112-.338-.112c.112 0 .112 0 0 0zM2.931 73.13l.338.113-.338-.113zM2.818 72.454c-.112.112 0 .112 0 0-.112.112.339.112 0 0zM7.215 80.796h.113l-.225-.113.112.113zM7.215 80.457c-.338.113.113.113 0 .226h-.112.225c0-.113-.225-.226-.113-.226zM8.005 80.232c-.226 0-.113-.112 0 0-.113 0-.113 0 0 0zM7.892 80.007h.113c.112 0 .112-.113.112 0h-.225zM7.779 80.12c-.113 0-.113.112-.225 0 0 .112.225.112.225 0zM7.215 80.12h.339l-.339-.113v.113zM8.005 79.443h.338c-.113-.113-.226-.113-.338 0 .112 0 .112-.113 0 0zM7.666 79.668s.113 0 .226-.112l-.226.112zM7.44 79.894c-.112 0-.225-.113-.45 0h.45zM7.328 79.668v.113l.113-.113h-.113zM7.666 79.443c-.112 0-.112 0-.112-.113v.113h.112zM7.44 79.443s0 .113 0 0c.114 0 .114 0 0 0zM7.779 79.218c-.113 0-.113.112 0 0-.113.112 0 0 0 0zM6.2 79.105c.226 0 .339 0 .226.112.113 0 .79-.112 1.128-.112h-.226c-.113 0-.225.112-.45.112-.114-.112.112-.112.112-.112-.226 0-.338-.113-.79 0h.226-.225zM7.44 79.218s.114 0 .226-.113c0 0-.112 0-.225.113z"/><path d="M7.554 79.33H6.99c0 .113.225 0 .225 0s.226.113.339 0h0s0-.113 0 0c.112 0 0 0 0 0 .112 0 .112 0 0 0-.113-.113-.113-.113 0 0zM6.652 79.894s.112 0 0 0c0 0 .112.113.225 0 .113 0 .338-.113.338-.113-.225 0-.338 0-.563.113zM6.99 79.556h-.226.113c0 .112.113 0 .113 0zM7.666 79.105h.226l-.338-.113.112.113zM7.554 78.992h.225l-.113-.113-.112.113zM7.328 76.287c.226 0 .451-.113.226-.113l-.226.113c0-.113 0-.113 0 0zM4.96 74.595l.113-.113s0 .113-.112.113zM7.44 77.865c0-.113.114-.113.114-.113-.113 0-.339.113-.113.113zM7.554 77.64c-.113 0-.113 0 0 0-.113 0 0 .112 0 0 .112 0 0 .112 0 0zM4.96 75.835c.226 0 .226 0 .226.113l.564-.113h-.79z"/><path d="M4.51 72.566l-.226.113c-.338 0-.225-.113-.45 0 .676-.113.112.225.788.112H4.51c-.339.113.45 0 .338.113 0 0-.113.113-.226.113l.113.113h-.113l.113.113h.338-.112.112-.338c-.676.112.113 0-.225.225h-.113c-.338.113-.226.113-.451.225.113 0 .564-.225.676-.112 0 0-.112 0 .113.112-.225 0-.113 0-.113.113h-.338.338c0 .113-.225.113-.45.113 0 .113.338-.113.45 0-.112.113 0 .113.226.225-.113.113-.226 0-.226 0h.226-.113.338c.338 0-.45.226-.112.226h-.339.677l-.226.113c.226-.113.451 0 .677 0 .112 0 .225 0 .225-.113l.226.113h-.339.113-.45.225-.564.113-.113.113-.338.112l-.225.112c.338 0 .902.113 1.014.226-.225 0-.45 0-.676.113.338-.113-.113-.113-.113-.226h-.225l.338.113c-.225 0-.225 0-.225.113.45-.113.338.112.45.112h-.338c-.338.113.564 0 .226.113h-.113c.113 0 0 .113-.113.113 0 .113 0 .338.451.338h-.563 1.352c-.338 0-1.127.113-1.352.113 0 0-.113.112 0 .112 0 0 .45-.112.563-.112-.338.112-.225.112-.563.225.112 0 .563-.112.563 0-.112 0-.563.113-.563 0h.563c-.112 0-.45 0-.563.113.112 0 0 .113 0 .113h.112c-.112.112.79 0 .79.112-.113 0-.677 0-.79.113.226 0 1.353 0 1.579.113h-.113.225c-.45 0-1.353 0-1.69-.113-.113 0-.226 0-.113.113h-.226l-.113.113c.339 0 .339.112.564 0l-.338-.113c.338 0 .902 0 .902.113h-.677c.113 0 .226.112.113.112h-.225c-.113.113.45 0 .112.113 0 0-.45.113-.225.113.338-.113 1.465-.226 1.804-.226 0 0-.339.113-.564.226-.226.113-.676 0-.902.113h.226c-.113 0-.226 0-.226.112.338 0 0 .113.226 0 .112 0-.113.113 0 .113H6.2h-.226c0 .113-.113.226-.113.338-.112 0-.112.113-.338.113h.226c-.226.113 0-.113-.338 0 .225 0 .225 0 .338.113.338 0 0-.113-.113-.113.45 0 .79 0 1.015.113.112.113-.226.113-.226.113 0 .112.677.112.451.225-.225.113-.564 0-.676.113-.113-.113.112-.113.112-.226l-.112.113c-.113 0-.113 0-.113-.113-.226.113 0 .226-.226.451H6.426c.113 0 .338.113.226.113h-.339c.113 0 .113-.113.113-.113.113 0-.338.113 0 .113l.226-.113c.112 0 .45.113.338.113l.338-.113c-.45.113 0-.225-.45-.112.337-.113.112-.113.45-.226H6.99c-.226 0-.226-.113-.338-.113h.225-.225c.225 0 .338-.112.45-.112v-.113c.113 0 .113-.113.113-.113s-.225-.113-.112 0l-.113-.113c0-.112-.338-.225 0-.338-.113 0-.113-.113-.113-.113h.226c-.113 0 .225-.112 0-.112.45-.113.112-.226.112-.339H6.99s-.113-.112-.226-.112H6.54c-.226 0 .113-.226.113-.226.112 0 .112 0 0 0 .45-.112-.339-.225 0-.338-.113 0 0 0 0-.113h.112-.112l-.113-.112h0-.113c.338-.113-.113-.113.226-.113-.226 0-.113-.113-.564-.113H6.2s.112-.113 0-.113h.338-.451c.225-.112.225-.112.45-.112-.337-.113-.112-.113-.45-.113l.676.225s-.225 0-.112-.112c.338-.113 0-.339.338-.564-.564.113.225-.113-.226-.113.113 0 .226-.113.339 0-.113-.113.225-.113-.226-.225h.226s-.113 0 0 0h.225c0-.113-.45-.113-.79 0 .114 0 .114-.113-.225-.113.113 0 .226-.113.339 0 0 0 .112-.226-.113-.226.113 0 0 0 0 0v-.112c-.338 0-.113 0-.113-.113.226-.113-.113 0 .113-.225h-.226c-.45 0 .226-.113.113-.226h-.113c-.225 0 .677-.225.677-.225h.113c.225 0-.339.112-.451 0 .112 0 .45 0 .45-.113.113 0-.563-.113-.225-.226-.113 0-.225.113-.338 0 0 0 .45-.225 0-.225h.113c-.113 0-.226-.113-.451-.113.789-.113-.451-.225.338-.338v-.113H6.313h.113c.113-.113.113-.113-.225-.225h.225c-.113 0 .338-.226.113-.339h.113c-.339-.112.563-.45-.226-.338l-.338-.225c0 .112-.338 0-.564.112 0 0 .226-.112.338-.112.451 0 .113-.113.451-.226 0-.225.226-.45.226-.676l-.338.112v-.112h.225c.226 0-.225-.113-.225-.113.112-.113.45 0 .45 0-.112 0-.338 0-.338-.113.113 0 .226 0 .226-.112v-.113l-.226.113c-.112 0 0-.113-.338 0 .451-.113.113-.339.226-.451-.226 0-.226-.113-.226-.226 0 0-.338.113-.338 0 .676 0 .225-.113.676-.225-.338.112-.112-.226-.563-.113 0-.113.225 0 .338-.113-.226-.113.113-.338 0-.45H5.75l.45-.114s-.45 0-.225-.112H5.75c.338-.338-.451-.564.338-1.015-.113.113-.226 0-.226 0h-.338l.338-.113c-.338 0 0-.112-.338-.112h.113c-.338 0-.79.112-1.24.225.45 0-.564.226 0 .226H4.17c.226 0 .226 0 .113.112.113.113-.113.226-.225.451h.225l-.113.113c.339 0 0-.113.339-.113-.451.113 0 .226-.451.338 0 .113.225 0 .225 0h-.113.226s-.226.113-.338.113c-.113.113.112.113 0 .113l.112-.113c.113.113 0 .338.339.451h.112c.226.113-.112.113 0 .226.113 0 .113 0 .113.112-.113 0-.225.113-.338.113.225.113.225 0 .564.113h-.226c.113 0 .226 0 .338.113-.112 0-.225.112-.45 0-.339.225.45.225-.113.338.45 0 .225-.113.338-.113.113 0 .338 0 .338.113 0 0-.564.113-.564.225-.112 0 .226.113 0 .113.339 0 0 .113.339 0l-.113-.113c.113 0 .564.113.338.226h-.225c-.113 0 .112 0 0 .112-.339 0-.113-.112-.339-.112-.112 0 .339.112-.112.112.563 0 0 .113.338.113h-.226.113-.338c.225 0-.226.113-.113.226 0-.113.226-.113.451-.113.338.113-.564.113-.45.338 0 0 .112-.112.225-.112 0 0-.113.112-.226.112.113.113.226 0 .338 0-.338.226 0 .226.113.226H4.51c-.113.112.45 0 .338.112H4.51h.112-.225c.225 0 .113.113.113.113h.45c-.112 0-.225 0-.225.113-.113 0-.338 0-.113-.113h-.225c-.113.113 0 .113 0 .113l.338.113H4.51s.112 0 .112.112h-.45l.225.113c-.113 0-.226.113-.338.113-.113.113.338.113.225.225h.113c0 .113-.226.226 0 .226l-.338.113c.112.112.45-.113.563 0 .113.112-.225.112-.338.112.226 0 .564 0 .226.113zm.225.79s-.225 0 0 0c.226 0 .113 0 0 0zm.676 1.352s0-.113 0 0c.113-.113.113 0 0 0zm2.03 3.608c0-.113 0-.113 0 0zm-.113 0s.113 0 0 0zM6.313 69.86c-.112 0 0 0 0 0z"/><path d="M5.073 74.596h.113c0-.113 0 0-.113 0zM7.44 78.428h.226c.226 0-.338-.112-.225 0zM6.426 78.992l.226-.113h-.226v.113zM6.539 78.09h-.226c.113-.113.113 0 .226 0zM5.75 78.09c-.113 0-.226-.113-.226 0 .113 0 .226.113.226 0zM6.088 77.188l.45-.112-.45.112zM4.848 76.399c-.113.113.338 0 .113.113.112 0 .112-.113.225-.113h-.338zM6.313 66.93l.113-.114-.225.113h.112zM3.946 72.453c-.113 0 0 0 0 0-.113 0 .338-.112 0 0zM5.75 75.723c.112.338 0 0 0 0l.112.112v-.225c-.112.113-.112.225-.112.113zM5.524 75.046s-.112-.113 0 0zM5.524 75.272c0 .112 0 .112.113.225l-.113-.225zM5.75 76.174c.112 0 0-.113 0 0zM5.299 75.046c0 .113 0 .226.112.226v-.113c-.112 0-.112 0-.112-.113zM5.186 75.046c0-.113-.113-.225-.113-.338 0 .113 0 .225.113.338-.113-.113-.113-.113 0 0zM5.299 75.385s0-.113-.113-.226l.113.226zM5.524 75.61c0 .113 0 .225.113.45-.113-.225-.113-.225-.113-.45zM5.186 75.384v.113c.113 0 0-.113 0-.113zM5.073 75.272c.113 0 .113.112 0 0 .113 0 0 0 0 0z"/><path d="M5.299 75.384c-.113-.112 0-.112 0 0zM5.412 76.737c0-.225-.113-.338 0-.112 0-.113-.226-.79-.226-1.128v.225c0 .113.113.226.113.339 0 .112 0-.113-.113-.113.113.338 0 .451.226.79v-.226c-.113.112-.113.225 0 .225zM5.186 75.497s0-.113-.113-.225c0 .112 0 .112.113.225z"/><path d="M5.186 75.497c0 .225 0 .338.113.451v-.225c-.113.112 0-.113-.113-.226v-.113.113c0-.113 0-.113 0 0 0 0 0-.113 0 0 0-.113 0-.113 0 0 0-.113 0-.113 0 0 0-.113 0-.113 0 0zM5.637 76.286s-.113 0 0 0c0 0 0 .113 0 0v-.225c0-.113-.113-.338-.113-.338 0 .338 0 .45.113.563zM5.073 75.385l-.112-.226.112.338v-.112z"/><path d="M5.073 75.384l-.112-.112v.112h.112zM3.946 75.723c-.113-.113-.113-.451-.113-.226l.113.226c-.113 0-.113 0 0 0zM3.382 77.076c0 .112.113.112 0 0v-.113.113zM2.593 78.654v.225c.113 0 .113-.113 0-.225zM4.622 75.61l-.112-.113c0 .113.112.338.112.113zM4.51 75.497c0-.113-.113-.113 0 0zM4.171 78.09v-.225l-.112-.564.112.79z"/><path d="M2.818 78.428l.113.226c0 .338 0 .225.113.451-.226-.677 0-.113-.226-.677h.113c.113.339-.113-.45 0-.338 0 0 .113.113.113.226v-.113.113-.113-.338.113-.113c0 .113.113.338 0 .338.225.676 0-.113.113.225v.113c.112.338.112.226.225.451 0-.113-.225-.564-.225-.676v-.113c0 .225.112.113.112.113l.113.338c0-.113 0-.225-.113-.338 0 0 .113.225.113.45 0 0-.113-.338-.113-.45.113.112 0 0 0-.226 0 .113 0 .226.113.226v-.226-.337c-.113-.34.226.45.113.112 0 .113 0 .225.113.338v-.564l.112.226c-.112-.226-.112-.451-.112-.677-.226-.112-.226-.225-.226-.338v-.225s0 .112.113.225v-.113c0 .113.113.226.113.451 0 0 0-.112-.113-.225 0 .225.113.338.113.564v-.113 0l.112.338v-.113l.113.226c0-.338-.113-.79-.113-1.015 0 .226.113.451.113.677-.113-.339 0 .112-.113.112 0 0 0 .113.113.226v-.338c0 .225 0 .225.113.225-.113-.45 0-.338 0-.45 0 .112.113.337 0 .337.113.339-.113-.563 0-.225v.113c0-.113 0 0 .113.112 0 0 .112 0 0-.45 0 0 .112.45.112.563L3.946 76.4c.113.338.338 1.128.338 1.353 0 0 0 .113 0 0 0 0-.113-.45-.113-.564.113.339.113.226.226.564 0-.113-.113-.564-.113-.564 0 .113.113.564.113.564l-.113-.564c0 .113.113.451.113.564 0-.113 0 0 0 0v-.113c.113.113-.113-.789-.113-.676 0 .113.113.676.226.676 0-.225-.226-1.352-.226-1.465v.112-.225c0 .564.113 1.353.226 1.691 0 .113 0 .226.112.113v.225l.113.113c-.113-.338 0-.338-.113-.564v.339c-.112-.339-.225-.902-.112-.902 0 .112.112.563.112.676v-.113.226c0 .113-.112-.451 0-.113 0 0 .113.451.113.226-.113-.339-.338-1.466-.45-1.691 0 0 .112.338.225.45.112.226.112.677.225.902v-.225c0 .113.113.225.113.225-.113-.338 0 0 0-.225 0-.113 0 .113.113 0-.226-.226-.339-.79-.339-.79 0 .113 0 .226.113.226l.113.113c0 .113.113.113.113.338v-.225c.112.225 0 0 .112.338v-.338c-.112-.339-.112 0 0 .112-.112-.338-.112-.789-.112-1.014 0-.113.112.225.112.225.113 0-.112-.676 0-.45.113.225.113.45.226.676 0 .112-.113-.113-.113-.113v.225c.113.226.113 0 .226.226v-.226c-.113-.225 0-.338-.113-.338v-.225l.112.338c0-.113-.112-.113 0-.113 0-.112.113.338.113 0l-.112-.225c0-.113-.113-.451 0-.339-.113-.225 0 0-.113-.338.112.451-.113 0 .112.451-.112-.338-.112-.112-.225-.45v.676c0-.226-.113-.339-.113-.451 0-.113-.112-.113-.112-.113v.225s0 .339-.113 0v.113-.225c0 .112-.113-.113-.113 0-.113-.451-.113-.113-.225-.113l.112.225v.339c0 .225-.112-.113-.112-.113 0-.113 0-.113 0 0-.113-.451 0 .338-.113 0 0 .113 0 0 0 0v-.113.226l-.113-.226c0-.112 0 .113.113.226v.112c-.113-.338 0 .113-.113-.225 0 .225 0 .113.113.564v-.113s0-.113 0 0l-.113-.225.113.338c-.113-.226-.113-.226-.113-.451v.45-.225.113c-.113-.338-.113 0-.338-.338.113.563-.113-.226 0 .225 0-.112-.113-.225-.113-.338 0 .113-.113-.226 0 .225 0-.112 0-.225-.113-.225 0 0 0 .113 0 0v-.113a4 4 0 00.113.79c-.113-.226-.113-.113 0 .112 0-.113-.113-.225-.113-.338 0 0-.112-.113 0 .113 0-.113 0 0 0 0h-.112c.112.338 0 .112 0 .112-.113-.225 0 .113-.113-.112l.113.225c.112.451-.113-.225-.113-.113v.113c0 .226-.226-.676-.226-.676v-.113c-.112-.226.113.338 0 .338 0-.112-.112-.45-.112-.45 0-.114.112.563 0 .225 0 .112.112.225.112.338 0 0-.225-.451-.112 0v-.113.338c-.226-.789 0 .451-.226-.338v-.112.338-.113c-.113-.113-.113-.113 0 .225l-.789-.112c0 .112-.113-.338-.113-.113v-.113c0 .338-.338-.564-.112.226v.225c.112 0 .112.338.112.451 0 0-.112-.225-.112-.338-.113-.451-.113-.113-.226-.451-.113 0-.225-.225-.338-.113l.113.338c0-.112-.113-.225 0-.225-.113-.225 0 .225 0 .225-.113-.112-.113-.45-.113-.45v.225c0-.113-.113-.225-.113-.225l.113.225v.338c-.113-.225-.226.113-.226 0v.226l.113.338c-.113-.677-.113-.226-.225-.677.112.339-.113.113.112.451 0 0-.112-.225-.112-.338 0 .226-.113-.113-.226 0 0 .113.113.226.113.338l-.338-.563s.112.45 0 .225v.226c-.226-.339-.226.338-.451-.339.112.113 0 .226 0 .226s0 .225.112.338l-.112-.338c.112.338 0 0 0 .338v-.113c.112.339.225.79.338 1.24-.113-.45.225.564.113 0 0 .113 0 .113.112.226v-.113c0-.112.113.113.226.226l-.113-.226s0 .113.113.113l-.113-.338c.113.45.113 0 .226.45 0 0-.113-.225 0-.225v.113-.225s.112.225.112.338v.112-.112c0-.113.113 0 .113-.226v-.112c0-.226.113.112.113 0v-.113c0 .112.113.225.113.338 0-.225 0-.113-.113-.564V77.978c0 .112.113.225.113.45.112.339 0-.45.112.113-.112-.45-.112-.225-.112-.338 0-.113-.113-.338 0-.338l.225.564c0 .112 0-.226.113 0-.113-.339 0 0 0-.339v.113c0-.113-.113-.564 0-.338v.225c0 .113 0-.112 0 0 .113.338 0 .113 0 .338 0 .113 0-.225.113.113-.113-.563.112 0 0-.338v.225-.112.338c0-.225.112.225.112.113 0 0-.112-.226-.112-.451 0-.338.225.563.225.45 0 0-.113-.112-.113-.225 0 0 .113.113.113.226 0 0-.113-.226-.113-.338.113.225 0-.113 0-.226v.225c.113.113-.112-.45 0-.338l.226.338v-.112V78.09c0 .112 0 .225.113.225 0 .112.112.338 0 .112v.226c0 .113 0 0 .112 0v-.338.225-.112c0 .225.113.338.113.45v-.225c0 .113.113.225.113.225v-.338s0 .226.112-.112v.338c0-.113-.112-.451-.112-.564 0-.113.112.225.112.338 0 0-.112-.338 0-.112zm.339-.225c0 .113 0 .225 0 0-.113-.225 0 0 0 0zm.45-.676c0 .112 0 .112 0 0zm1.128-1.917c0-.113 0 0 0 0zm.113.113c0-.113 0-.113 0 0 0-.113 0-.113 0 0zm-3.495.902c0 .112 0 .112 0 0zM4.848 75.272v.112c.113 0 0-.112 0-.112z"/><path d="M5.073 76.06c.113.114.113.114 0 0 .113 0 .113 0 0 0 0-.112 0-.225 0 0zM4.848 75.61v-.113c-.113-.338 0 .226 0 .113zM5.299 76.624l-.113-.225v.225h.113z"/><path d="M5.073 76.512c.113 0 .113 0 0 0 .113-.113 0-.113 0 0zM5.299 76.737l-.113-.112.113.112zM5.073 77.076v-.226l.113.338-.113-.112zM4.96 77.189v.225c.113-.113.113-.113 0-.225zM4.51 76.963l-.113-.451.113.45zM4.51 78.203c.112.113-.113-.338 0-.113 0-.112 0-.112-.113-.225l.113.338zM.113 77.076L0 76.737l.113.339c0-.113 0 0 0 0zM3.382 78.767c0-.113 0-.113-.113-.113l.113.113zM3.044 78.654l-.113-.226.113.226zM2.931 79.105s0-.113 0 0c0 0-.113-.338 0 0zM51.522 31.642l-.113-.113.113.113zM51.522 31.303c-.338 0 .113.113-.113.113h-.112.225s-.113 0 0-.113zM52.198 31.19c-.112 0-.112-.112 0 0zM52.086 31.078h.225c0-.113 0-.113-.225 0zM51.86 30.965c.113.113.113 0 0 0zM51.973 31.078h-.225c0 .112.338.112.225 0zM51.184 31.303c-.113.113.113 0 0 0zM52.311 30.74h-.338.113c.112.113.112.113.225 0zM51.522 30.965l.226.113-.226-.113zM52.311 30.514h.338c-.112 0-.225-.113-.338 0 .113 0 .113 0 0 0zM51.635 30.852c-.113 0-.226-.112-.451 0h.45zM51.973 30.514c-.113 0-.113-.113-.113-.113s-.112 0-.112.113h.225zM52.086 30.289c0 .112-.113.112 0 0 0 .112 0 0 0 0zM51.973 30.627c.113-.113 0-.113 0 0zM51.973 30.627h-.113c0-.113 0 0 .113 0zM50.507 30.176c.226 0 .339 0 .113.113.113 0 .79 0 1.128-.113h-.226c-.113 0-.225.113-.451.113-.113 0 .113 0 .113-.113-.113 0-.226-.113-.677 0h0zM51.86 30.289h.226c-.113-.113-.113-.113-.226 0z"/><path d="M51.86 30.401h-.563s.225 0 .225.113c0-.225.226-.113.338-.113h0s.113 0 0 0c.113 0 .113 0 0 0 .113 0 .113 0 0 0 0-.112 0-.112 0 0zM50.958 30.852s.113 0 0 0c0 0 .113.113.226 0 .113 0 .338-.112.338-.112-.225 0-.338 0-.564.113zM51.86 27.696c.226 0 .451-.113.226-.113l-.226.113zM50.507 26.117c0 .113 0 .113 0 0h.113c0 .113 0 .113-.113 0zM49.718 26.23h.113c0-.113-.113-.113-.113 0zM51.86 29.048c.113 0 .113 0 .113-.112-.113.112-.338.112-.113.112zM51.973 28.936s0 .112 0 0c.113.112.113 0 0 0zM49.493 27.245c.225 0 .225 0 .225.112h.564l-.79-.112z"/><path d="M49.38 24.426l-.226.113c-.338 0-.225-.113-.45 0 .676 0 .112.225.676.225h-.113c-.338.113.451 0 .338.113h-.225.225-.112v.113h.338-.113.113-.338c-.677.112.112 0-.226.112h-.113c-.338 0-.225.113-.45.113.112 0 .563-.113.789-.113 0 0-.113 0 .112.113-.225 0-.225 0-.112.113h-.339.339s-.226.113-.451.113c0 .112.338-.113.45 0-.112.112 0 .112.226.225h-.225.225-.113.339c.338 0-.451.113-.113.226h-.338c.225.112.225.112.563.112l-.225.113h.902l.113.113h-.339.113-.45.225-.564.113-.113.113-.339.113l-.113.113c.339.112.902.112 1.015.225h-.676c.338 0-.113-.113-.113-.113h-.226l.339.113c-.226 0-.226 0-.226.113.451 0 .338.113.451.113h-.338c-.338.112.564.112.225.112h-.112c.112 0 0 .113-.113.113 0 .113 0 .226.45.226h-.563l1.353.112c-.338 0-1.127.113-1.353 0 0 0-.113 0 0 .113h.564c-.338.113-.226 0-.564.113h.564-.564l.564.112h-.564c.113 0 0 .113 0 .113h.113c-.113.113.79.113.676.113h-.789c.226 0 1.353 0 1.578.113h-.112l.225.112c-.45 0-1.24-.112-1.578-.112-.113 0-.226 0-.113.112h-.225l-.113.113c.225-.225.225-.113.45-.113l-.337-.112c.338 0 .902 0 .902.112h-.677c.113 0 .226.113.113.113h-.226c-.112 0 .451.113.113.113 0 0-.45.113-.225.113.338 0 1.465-.113 1.803-.113 0 0-.338.113-.563.113h-.902.225-.225c.338 0 0 .112.225 0 .113 0-.112 0 0 .112.226 0 .677 0 .79.113h-.226c0 .113-.225.113-.225.226-.113 0-.226.112-.339 0h.226c-.226.112 0-.113-.338 0 .225 0 .225.112.338.112.338 0 0-.112-.113-.112.451 0 .79 0 1.015.112.113.113-.226 0-.226 0-.112.113.677.113.451.226h-.676c-.113-.113.113-.113.113-.113h-.113c-.113 0-.113 0-.113-.113-.225 0 0 .226-.225.339H50.958c.113 0 .339.112.226.112h-.338c.112 0 .225 0 .112-.112.113 0-.338.112 0 .112h.226c.113 0 .45.113.338.113.338 0 0 0 .338-.113-.45 0 0-.112-.45-.112.338 0 .112-.113.45-.113h-.338c-.225 0-.225-.113-.338-.113h.225-.225c.225 0 .338-.113.45 0v-.113c.114 0 .114-.112.114-.112s-.226-.113-.113 0l.225.338c0-.113-.338-.226 0-.338l-.112-.113h.225c-.113 0 .225-.113 0-.113.45-.113.113-.225.225-.225h-.225l-.113-.113h-.225c-.226 0 .113-.113.113-.226.112 0 .112 0 0 0 .45-.112-.339-.225 0-.338-.113 0 0 0 0 0h.112-.112l-.113-.113H51.409c.339 0-.112-.112.226-.112-.226 0-.113-.113-.564-.113h.113s.113-.113 0-.113h.338-.338c.225 0 .225-.113.45 0-.337-.113-.112-.113-.45-.113h.225s-.225-.112-.112-.112c.338-.113 0-.338.338-.451-.564 0 .225-.113-.226-.113h.339c-.113-.113.225-.113-.113-.225h.225s-.112 0 0 0h.226c0-.113-.451-.113-.79-.113.226 0 .113-.113-.112-.113h.338s.226-.225-.113-.225c.113 0 0 0 0 0v-.113c-.338 0-.112 0-.112-.113.225-.113-.113 0 .225-.225h-.225c-.451 0 .338-.113.112-.226h-.112c-.226 0 .676-.113.676-.113h.113c.338-.112-.338 0-.338-.112h.45c.113 0-.563-.113-.225-.226h-.338s.45-.113.113-.225h.112c-.112 0-.225-.113-.338-.113.338.113-.79 0-.113-.113v-.112h.113c0-.113-.113-.113-.338-.113h.113c.112-.113.112-.113-.226-.226h.226c-.113 0 .338-.225.112-.225h.113c-.225-.113.676-.338-.225-.338l-.226-.113c-.113.113-.338 0-.564 0 0 0 .226-.113.339-.113.45 0 .112-.113.45-.113 0-.225.226-.45.226-.563h-.338v-.113h.225c.226 0-.225-.113-.225-.113.113-.113.45 0 .45 0-.112 0-.337 0-.225-.113h.226v-.112h-.226c-.112 0 0-.113-.338 0 .451-.113.113-.338.338-.338-.225 0-.225-.113-.225-.113h-.338c.676 0 .225-.113.789-.226-.338 0-.113-.112-.564-.112h.338c-.225-.113.113-.226.113-.339h-.338l.45-.112s-.45 0-.225-.113h-.225c.338-.113-.451-.338.338-.677h-.225-.339l.339-.112c-.339 0 0-.113-.339-.113-.338 0-.789.113-1.24.113.451 0-.564.112 0 .225h-.225c.225 0 .225 0 .112.113 0 .113-.112.225-.225.338h.225s-.112 0-.112.113c.338 0 0-.113.45-.113-.45.113 0 .226-.563.338h.225-.112.225s-.225.113-.338.113c-.113 0 .113.113 0 .113h.113c.112.113 0 .338.225.45h.113c.225.114-.113.114 0 .226.113 0 .113 0 .113.113-.113 0-.226.113-.339 0 .226.113.226 0 .564.113h-.225c.112 0 .225 0 .338.112h-.451c-.338.113.45.113-.113.226.451 0 .226-.113.338-.113.113 0 .339 0 .339.113 0 0-.677.113-.564.225-.113 0 .225.113 0 .113.338 0 0 .113.338 0l-.113-.113c.113 0 .564.113.339.226h-.226c-.113 0 .113 0 0 .113-.338 0-.113-.113-.338-.113-.113 0 .225.113-.113.113.564 0-.113.112.338.112h-.225.113-.339c.226 0-.225.113-.112.113 0-.113.225 0 .45-.113.339.113-.563.113-.45.226 0 0 .112-.113.225 0 0 0-.113.113-.225.113 0 .112.225 0 .338 0-.226 0 .113 0 .225.112h-.225c-.113.113.45 0 .338.113h-.338.113-.226c.226 0 .113.113.113.113h.45-.225c-.112 0-.338 0-.112-.113h-.226c-.113 0 0 .113 0 .113l-.113-.113h-.225s.113 0 .113.113h-.451.225-.338c-.113.113.338.113.225.225h.113c0 .113-.225.113 0 .226h-.338c.113.113.45-.113.564 0 .112.113-.339 0-.339.113.113.112.451.225.226.225 0 0-.113 0 0 0zm.113.676s-.226 0 0 0c.225 0 .112 0 0 0zm.676 1.24c-.113 0-.113-.112 0 0 0-.112 0-.112 0 0zM51.86 29.5c0-.112 0 0 0 0zm-.112 0s-.113 0 0 0zm-.339-7.328c-.112 0-.112 0 0 0z"/><path d="M49.83 26.23h.114c-.113-.113-.113-.113-.113 0zM49.718 28.598h.113c0-.113-.113-.113-.113 0zM52.086 29.95h-.113c.113 0 .113-.112.113 0zM51.41 29.95c-.226 0-.113 0 0 0-.113.113-.113.113 0 0 0 0 .112.113 0 0zM50.733 30.063l.225-.113h-.225v.113zM50.846 29.725c0 .113 0 .113 0 0 .112.113.112 0 0 0zM50.62 29.95h.113v-.112l-.113.113zM50.17 29.274c-.114 0-.226-.113-.226 0h.225zM49.38 27.808c-.113.113.338 0 .113.113h.225c-.113-.113 0-.225-.338-.113zM50.846 32.769l-.113.113s.113-.226.113-.113zM51.86 32.769v.113l.113-.113h-.113zM52.65 32.995c0-.339-.339 0-.452-.113v-.113l-.112.226c.225 0 .45-.113.563 0zM53.1 33.783c0-.113.113-.113-.112 0h.112c-.112 0-.112 0 0 0zM52.988 33.784c-.113 0 0 .112 0 0zM53.439 33.784l-.113.112c0 .113.113.113.113.113.112 0 .112-.113 0-.225zM53.326 33.67l.113-.112s0-.113-.113.113c.113-.113.113-.226 0 0zM53.326 33.558c-.113-.113-.113-.113 0-.225-.338.112-.338.338 0 .225zM52.762 32.656h-.113s.113.113.113 0zM54.228 33.896c0-.112-.113-.225-.113-.225 0 .113.113.113.113.225zM54.228 33.558l.112-.113c-.112 0-.112.113-.112.113zM53.551 33.107s0 .113-.112.113c0 .112-.113.112-.113.112l.113-.112c.112 0 .225-.113.112-.113zM54.904 33.784l-.113.225.113-.338v.113zM55.242 33.67c0 .114.113.226.113.34.113-.114.113-.226.226-.34-.113 0-.226.114-.339 0z"/><path d="M55.58 33.445s0 .113-.112.226c.113-.113.113-.113.113-.226zM54.566 33.445s.113.113.113.226l-.113-.226zM53.89 33.333c.112-.113.225-.226 0-.451 0 .113.112.225 0 .45zM54.453 33.22h-.113v.225l.113-.225zM55.242 33.332c0-.112.113-.112.113-.225h-.225c0 .113 0 .225.112.225z"/><path d="M55.13 33.22c-.113-.113-.113 0 0 0-.113 0 0 0 0 0 0-.113 0 0 0 0zM55.806 33.22h-.113s.113.113.113 0zM55.017 33.445v-.112.112s-.113-.112 0 0zM55.58 31.642c.113.112.113.338-.112.225 0 .226.338.677.564.902 0-.113-.113-.113 0-.338-.113-.113-.339 0-.339-.226.113-.225.113 0 .226 0-.226-.112 0-.45-.226-.676v.225s0-.113-.112-.113zM55.806 32.882l.226.225v-.225c.112-.113-.226.112-.226 0zM55.58 33.107c0-.225 0-.338-.112-.563-.113.112 0 .225-.113.338.226-.113 0 .112.226.225l-.113.113h.225l-.112-.113s0 .113 0 0c0 0 .112 0 0 0l.225-.113c-.113 0-.113 0-.225.113zM54.115 32.544s0 .112 0 0c-.113 0 0 0 0 0-.113 0-.226.112-.113.225s.226.338.226.338c.112-.225 0-.45-.113-.563zM54.791 32.769l.226-.113-.113-.112v.112c-.113 0-.113.113-.113.113zM56.483 32.656l.112.226v-.226h-.112zM57.272 25.666c.112-.225.225-.45 0-.338l-.113.113c.113.113.113.113.113.226zM52.65 25.44v-.112c.112 0 .112.113 0 .113zM52.875 26.343l-.113-.113s.113 0 .113.113zM53.213 23.637l-.113-.225c0 .112.113.112.113.225zM58.174 29.95l.225-.225c-.113.113-.338.113-.225.226zM58.4 29.5v.225c.112 0 .112-.113 0-.226zM57.497 31.867c-.113.113-.113.113 0 0-.113.113-.113.113 0 0zM57.61 31.754c-.113 0-.113.113 0 0-.113.113-.113.113 0 0-.113 0-.113.113 0 0zM54.791 26.568c.113-.225.226-.225.226-.113 0 0 0-.112.113-.225 0-.113.112-.226.112-.226s-.112.113-.225.339c-.226 0-.226.225-.226.225z"/><path d="M52.537 24.313l-.226-.112c0-.338.113-.338-.113-.451.339.563-.338.338 0 .789l-.112-.113c-.338-.225.112.451-.113.451-.113 0-.225-.113-.225-.113l-.113.226s-.113-.113 0-.113l-.226.113v.338c-.112 0 0-.113 0-.113v.226c-.112-.113-.112-.338 0-.338-.45-.564 0 .225-.45 0l.112-.113c-.225-.226-.225-.113-.45-.226.112.113.563.339.45.564-.113 0-.113 0-.113.113-.112-.113-.225-.113-.225 0l-.113-.226c-.113.113 0 .226 0 .451h-.113l1.353 1.579c.113 0 .226.112.338.225.113 0-.338-.225-.338-.338.113 0 .113-.113.113-.338.113 0 .113.112.225.225l-.112-.225s.112 0 .112.112c0-.112-.225-.225-.112-.338-.113-.113 0-.113.112 0 .113.113.226.113.226-.113a.349.349 0 01.113.226v-.564l.225.113c-.113-.226-.113-.451-.113-.79-.112-.112-.112-.225-.225-.225l.113-.112.112-.113v.113c.113.112.113.225.113.45l-.113-.112c0 .225 0 .45.113.564v-.113 0l.226.45v-.112s.112 0 .112.113c.113 0 .113.113.113.113.113-.339.113-.902.451-1.015-.113.225 0 .45 0 .676-.113-.338-.225.113-.338.113.113 0 .113.113.113.226 0 0 0-.113.112-.113 0-.113.113-.113.113-.113 0 .226 0 .226.113.226 0-.451.112-.339.225-.451 0 .112 0 .338-.113.225.113.226.226-.676.339-.338h-.113c.113-.113.225 0 .225.113.226.112.564.112.677-.226 0 0-.226.451-.226.564 0 0 .226-.338.451-.564.226-.225.451-.564.451-.564-.225.339-.45 1.128-.676 1.24 0 .113 0 .113.113.113l.225-.45c-.113.45 0 .225-.113.563 0-.113.339-.564.451-.451 0 .113-.338.45-.338.45s.113-.112.226-.112c.112-.113.225-.113.225-.113-.113 0-.338.339-.338.451.113-.112.113.113.113.113v-.113c.112.226.676-.338.789-.225-.113 0-.564.338-.564.45.113-.112.451-.225.677-.337.338-.113.676-.226.789-.113l-.113.113h.338c-.225 0-.563.112-.902.112-.338.113-.676.113-.789.226-.113.113-.113.113-.113.225-.112.113-.225.113-.225.113v.226c.225-.113.338 0 .564-.113l-.451-.113c.225-.225.901-.338.901-.113-.112.113-.563.226-.676.226.113 0 .226.113.226.113h-.226c-.113.112.451 0 .226.225 0 0-.339.226-.226.226.338-.113 1.466-.451 1.691-.451 0 0-.225.338-.45.45-.226.113-.677 0-.903.113h.226c-.113.113-.226 0-.226.113.339 0 0 .226.226 0 .113.113 0 .113 0 .226.225-.113.676.112.789.225h-.225c0 .226-.226.338-.226.564-.113 0-.225.112-.338 0l.113.112c-.339 0 0-.112-.339-.112.226 0 .226.225.339.338.338 0 .112-.226 0-.338.338.112.789.338.902.676 0 .226-.226 0-.226.113-.225.338.564.564.113.79-.338 0-.451-.226-.677-.34 0-.225.226-.112.339-.225l-.113.113c0-.113-.113-.225 0-.225-.226 0-.338.563-.677.563 0 .113.113.226.226.226v-.113c.225 0 .113.338.225.226 0 .225.113.45-.112.563l-.226-.225c.113.113.226 0 .226-.113 0 .113-.451-.113-.226.226l.226.112c0 .226.112.564-.113.564.225.225 0 0 .338.113-.338-.226.338-.339 0-.564.338.225.338 0 .677 0-.113-.113-.226-.113 0-.113v-.113h-.113c-.113-.225 0-.338 0-.563.113 0 .113.113.225.113l-.112-.226c.225.113.45 0 .45.226l.113-.226c.113 0 .338-.225.226-.338.112-.113-.113-.338 0-.226v-.338c.112-.338-.113-.676.225-.902 0-.113-.113-.225 0-.338h.226c-.113-.113.225-.451 0-.451.225-.113.225-.225.225-.45 0-.226-.113-.34-.113-.452h-.225c0-.113-.113-.338-.226-.45l-.225.112c-.226-.113 0-.451-.113-.677.113 0 .113 0 .113.113.113-.225 0-.338-.226-.45-.225-.113-.338-.113-.338-.339-.112 0-.112-.113-.112-.113v-.112.112s-.113-.112-.226-.112l.113-.226c0-.113-.113 0-.226.226h-.225c.225-.339-.226 0 0-.451-.113.112-.451-.113-.677.112 0 0 0-.112.113-.112 0-.113-.113-.226-.225-.113l.112-.226s-.112.113-.225.113c-.113.113-.226.113-.226.113 0-.226 0-.338.226-.451-.451.225-.226 0-.564.225l.113-.225c-.113 0-.338.225-.338 0 0-.226-.226-.226-.564-.338-.226 0-.564-.113-.79-.226.113.564-.225-.225-.225.226 0-.113-.112-.226 0-.338-.225.112-.45-.113-.563.225v-.226s-.113.113-.113 0v-.225c-.226.113-.226.45-.113.902-.113-.113-.225-.113-.225.113-.113.225-.226.112-.113.112-.113 0-.564 0-.451.339-.113-.113-.113 0-.113 0-.225.112-.225.112-.338.225h.113c.113.338-.113.113-.226.226-.45 0 0 .225-.45.225l.112.113c.113.225.113.225-.113.225-.112 0-.338 0-.338.113h.113c0 .113-.113 0-.226 0l-.225-.113 1.015.902c.112.113.338.451.45.451v.113c.339.113-.112-.338 0-.451.113.225.113.45.226.45.113.114.113-.676.338-.45-.113-.113-.225-.226-.113-.338.113-.113.564.225.451-.113l.113.113c0-.113.226-.338.113-.564.45.676.338-.676.789 0l.225-.338v.113c.226-.113.226-.339.113-.451.113 0 .113.112.113.112.338-.112.338-.112.338-.563l.226.112c-.113-.112.563 0 .563-.45l.113.112c0-.225.226-.338.451-.45.226-.114.338-.226 0-.564v-.113-.113c-.225.226-.338-.226-.45-.226 0-.112.337-.112.337 0 .339.226.339-.225.564-.112.226-.564.564-1.128.564-1.804l-.338.113v-.226c-.113-.113.112-.113 0 0 .225-.113-.226-.225-.226-.225.113-.338.451.112.451 0v-.113c-.113-.113-.338-.113-.338-.226 0-.112.225-.112.225-.112v-.226-.113l-.225.226c-.113-.113-.113-.226-.338 0 .225-.113.112-.45 0-.676-.113-.226-.339-.451-.226-.451-.225 0-.338-.113-.45-.339 0 .113-.226.339-.34.226.34-.338.114-.338.114-.564 0-.113-.113-.113-.113-.338 0 .225-.113.113-.226.113-.112 0-.225 0-.225.225-.113-.113.113-.225 0-.45-.226 0-.451 0-.677-.113-.45-.226-.676-.226-.901-.226 0 .113.112.226 0 .338 0 0-.113-.113-.113-.225-.113 0-.226-.113-.226-.113-.112.113.113.451-.225.226 0 .112.113.112.113.225-.451 0-.902.338-1.128.676-.338.339-.563.79-1.014 1.128.225-.113.225 0 .225.113 0-.113.226 0 .338 0l-.225.225c-.113.113-.113.226-.113.226.113 0 .226.112.226.225s.112.225.225.225l-.338-.112c.225.112.338 0 .564-.113.225-.113.45-.113.676-.113-.225 0-.113-.113.113-.113.112 0 .225-.112 0-.225.112 0 .112.113.225.113-.225-.113-.225-.113-.113-.226 0-.225.226-.113.564-.225l-.113-.113c.113 0 .113 0 .113.113-.113-.338-.113.113-.338-.226.225.113.225.113.338 0 .113 0 .226-.112.338.113.113 0-.112-.225 0-.225l.113.112v-.225c.113 0 .113.225.226.338.112.113.112-.113.225 0l-.113-.113c.226-.112.338 0 .564-.225v-.113s-.113.226 0 .226c.113-.113.113-.113.225 0-.112.112-.112.225-.225.338.225 0 .225-.113.564-.226l-.113.113c.113 0 .225-.113.338 0-.225 0-.225.226-.45.226-.114.225 0 .225.112.225.113 0 .225.113-.113.226.451-.113.226-.226.338-.226.113-.113.339-.113.339 0s-.564.338-.564.451c-.113.113.225.113 0 .225.338 0 0 .113.338.113l-.113-.225c.113.112.564.112.339.338-.113 0-.226-.113-.226-.113-.113 0 .113.113 0 .113-.338 0-.113-.226-.338-.338-.226.225.225.225-.113.225.564 0 0 .113.338.338h-.225l.113.113-.339-.113c.226.113-.225.113-.112.226 0-.226.225 0 .45-.113.226.338-.563 0-.563.338 0 0 .113-.112.225 0 0 0-.112.113-.225.113 0 .226.225 0 .338.113-.225 0 .113.113.113.225l-.226-.112c-.225.112.451.225.226.338l-.226-.226v.113h-.225c.113.226.113.226 0 .226.113.112.338.225.338.338-.113 0-.113-.113-.225 0-.113-.113-.226-.226 0-.113-.113 0-.113-.113-.113-.113-.113 0-.113.113-.113.113h.113s0 .113.113.226c0 .112.112.225.112.225-.112 0-.112-.113-.112-.113s.112.113 0 .226c-.113-.113-.339-.226-.339-.338v.225c-.112 0-.225-.113-.225-.113-.113 0 .113.451-.113.451v.113c-.112.113-.338 0-.338.225l-.225-.225c-.113.113.338.225.225.45-.113.226-.225-.225-.338-.225-.226-.112-.113.339-.338 0 0 .113-.113.113 0 0zm-1.466 1.015c0-.113 0-.225.113-.113 0 .339 0 .226-.113.113zm2.03.451c0 .113 0 0-.113 0h.112zm4.622 5.299c.225 0 .112 0 0 0zm-.113.225s0-.113 0 0c0-.113 0-.113 0 0zm-1.24-10.71c-.113 0 0 0 0 0zM57.046 32.43l.113-.112c-.113 0-.113 0-.113.113zM55.355 31.98s-.113 0 0 0v.112-.112z"/><path d="M56.483 31.98c-.113-.113-.113 0-.226 0 .113.225.226.113.226 0zM57.497 31.529c-.113 0 .226.225.113.113.225.225 0-.338-.113-.113zM56.032 31.529l.112.225-.112-.225zM56.595 31.19h-.112v.113s.112 0 .112-.113zM56.483 31.303c0 .113-.113.113 0 0 0 .113 0 .113 0 0zM56.032 31.416h.112l.113-.113-.225.113zM57.272 29.95v-.112h-.113c0 .113 0 .113.113.113zM56.595 29.838c-.112 0-.225-.226-.225-.113.113 0 .113.113.225.113zM57.046 27.92v.114l.451-.113h-.45zM55.355 27.244c0 .113.226-.225.226 0 .112 0 0-.112.112-.225-.112 0-.112-.113-.338.226zM50.282 21.157l-.113.113.113-.113zM50.733 21.382l-.338.113h.225s0-.113.113-.113zM50.507 24.99l.113.113-.113-.113zM51.748 24.54l.225.225-.225-.226zM52.424 23.75s.225.225 0 0zM99.887 65.802s-.112-.113-.225-.113l.225.113zM99.887 66.478l.113.226-.113-.226zM99.549 66.929c.338.225.113-.225.225-.225h.113l-.225-.226c0 .226 0 .451-.113.451zM98.873 66.704c.112.112 0 .112 0 0zM98.873 66.704c0-.113-.113-.113 0 0zM98.76 66.93v-.114c-.113 0-.113 0-.113-.112-.113.112 0 .112.113.225zM98.873 67.154c0-.112-.113-.112 0 0zM98.873 66.93v.112c0 .113.112.113 0-.113 0 .113 0 .226 0 0zM98.873 66.929c.112 0 .112 0 .225.113.113-.113-.113-.226-.225-.113zM99.775 67.267h.112-.112c0-.113.112-.113 0 0zM98.309 67.041c0 .113.113.113.225.226v-.113c-.112 0-.225 0-.225-.112zM99.098 67.38l-.113-.226.113.339v-.113zM98.083 67.267l-.112-.225.112.338v-.113zM97.858 67.38a.243.243 0 00-.226-.226v.339c.113-.113.113-.113.226-.113zM98.422 67.493s-.113-.113-.226-.113l.226.113c-.113 0-.113 0 0 0zM98.76 67.493c0 .112 0 .338.225.338 0-.113-.112-.226-.225-.338zM98.534 67.718c.113-.113 0-.113 0-.225v.225zM97.97 67.718v.113h.113c0-.113-.112-.226-.112-.113zM98.083 67.83c.113 0 .113 0 0 0 0-.112 0 0 0 0zM97.745 67.718s0 .113 0 0c0 0-.113 0 0 0zM98.083 67.606v.112c.113 0 .113 0 0-.112.113 0 .113 0 0 0zM97.97 69.296c-.112-.225 0-.338.113-.225 0-.226-.338-.677-.563-1.015 0 .113.112.113 0 .338.112.113.338.113.338.339-.113.112-.113 0-.226-.113.113.225 0 .338.113.676l.113-.113s0 .113.113.113zM97.745 68.056l-.225-.225v.225s.225-.112.225 0zM97.858 67.943c.113.226 0 .339.225.451.113-.112 0-.225 0-.338-.112.113 0-.113-.225-.113 0-.112 0-.112 0 0 0-.112 0-.112 0 0 0-.112 0-.112 0 0 0-.112 0-.112 0 0 0-.112 0-.112 0 0 0-.112-.113 0 0 0l-.113.113c0-.113.113-.113.113-.113z"/><path d="M99.098 68.17v-.114c.113 0 .113.113 0 .113.113 0 .113-.225 0-.225s-.338-.113-.338-.226c.113.226.225.338.338.451zM98.534 68.169l-.112.225.112.113-.112-.113c.225-.112.112-.225.112-.225zM97.294 68.057l-.112-.113v.113h.112zM93.01 67.943c0-.225.113-.45 0-.225v.225c0-.112-.113-.112 0 0zM88.951 66.59l.113-.112c-.112 0-.112 0-.112.113zM88.839 60.277l-.113-.225c-.113.225 0 .225.113.225zM95.49 68.62c0-.113-.112-.113-.112-.113 0 .113.112.226.112.113zM95.152 68.395c.113.113.113.113 0 0h.113s0-.113-.113 0zM90.53 68.958c.225-.112.225-.112.225 0l.339-.45s-.113.112-.339.225l-.225.225z"/><path d="M88.388 61.63l-.226.113c-.225-.226-.112-.338-.338-.338.564.225-.113.563.564.789l-.113.112v-.112c-.338.112.451.225.338.45-.112.114-.112.114-.225 0l.113.226h-.113v.338c.113 0 .225.113.338.226-.113.113-.113 0-.113 0l.113.113c-.225 0-.338-.113-.338-.226-.677.113.113.113-.226.451l-.112-.113c-.339.113-.226.226-.451.451.112 0 .563-.338.789-.225 0 0-.113.113.113.225-.226 0-.226.113-.113.226h-.338c.112.113.225.113.338.113 0 .112-.226.225-.451.225 0 .225.338-.225.45 0-.112.225 0 .338.226.451-.112.113-.225 0-.225.113h.225-.112c.112.112.338-.113.45 0 .339-.113-.338.45 0 .45-.112.113-.225 0-.338.113.338.113.226.113.677.226l-.113.225c.113-.225.451-.225.676-.112l.226-.226.225.113s-.112.113-.225.113h.113c-.113.112-.226.112-.451.225l.112-.113a.861.861 0 00-.563.226h.112-.112.112l-.225.225h.113v.339c.45 0 .902-.113 1.24 0-.226.112-.338.225-.564.338.226-.226-.225-.113-.338-.338 0 .112-.113.112-.113.112h.451c-.225.113-.113.113-.113.226.339-.338.339 0 .564 0-.113.113-.225.225-.338 0-.226.338.564-.226.45.113h-.112c.113 0 .226.225.113.225.113.225.564.564.79.225 0 0-.34.339-.452.339 0 0 .338-.226.564-.338.338-.226.564-.451.564-.451-.226.225-.677 1.014-.902 1.014 0 .113 0 .113.225.113 0-.113.225-.451.338-.451-.112.338 0 .225-.112.564 0-.113.338-.451.45-.451-.112.112-.338.45-.338.45s.113-.112.226-.112c.113-.113.225-.113.225-.113-.112 0-.225.338-.338.564 0-.113.113.113.226.113v-.113c.225.225.563-.564.789-.338-.113.112-.338.563-.338.676.225-.225.789-1.015 1.014-1.24v.113l.226-.113c-.226.338-.79 1.015-1.128 1.24 0 .113-.113.226.113.226 0 .112-.225.112-.225.112l.112.113.113.113c.113-.338.338-.226.45-.451 0 0-.112 0-.225.113-.112 0-.225.112-.225.112.113-.338.564-.789.79-.563 0 .112-.226.563-.226.676.112-.113.338-.113.338 0l-.113.113c.113.112.338-.338.451 0 0 0 0 .45.113.225 0-.338.338-1.465.45-1.69 0 0 .114.337.114.563 0 .338-.226.676-.226.902 0-.113.113-.226.113-.226 0 .113-.113.226 0 .226.112-.338.225.112.112-.226.113-.112.113.113.226.113 0-.225.226-.676.338-.79v.226c.226 0 .338.226.564.226 0 .113.113.225.113.338 0-.113.112-.113.112-.225.113.338-.112 0 0 .338 0-.226.226-.226.226-.338 0-.339-.226 0-.338.112 0-.45.112-.789.338-1.014.113-.113.113.225.113.225.338 0 .112-.676.45-.45.113.225.113.45.113.676-.112.112-.225-.113-.338-.113l.113.113c0 .112-.113.112-.226.112.113.113.226.113.339.113.112 0 .338-.113.45 0 0-.113.113-.225 0-.338h-.112c-.113-.226.112-.338 0-.338.112-.226.112-.451.225-.339l.113.226c0-.113-.113-.113-.113 0 0-.113.338.338.226-.113l-.451.226c0-.226 0-.451.225-.451-.112-.226 0 0-.225-.226.225.338-.226.113 0 .451-.226-.338-.226-.113-.338-.45 0 .112.112.112 0 .112v.113l.112.112c0 .226-.112.226-.112.339-.113 0 0-.113-.113-.226v.226c-.113-.226-.226-.339-.113-.451h-.113c-.112-.113-.225-.113-.225 0-.113 0-.113.225-.113.112l-.225.113c-.113 0-.339.338-.564 0-.113 0-.113.113-.225 0v-.225c-.113 0-.226-.226-.226 0 0-.564-.338-.113-.451-.338l-.113.225c-.112 0-.225 0-.338.113v.225c-.113.113-.225-.225-.338-.225 0-.113.113 0 .113 0 0-.226-.113-.226-.226-.113-.113 0-.225.113-.225-.113h-.113v-.112.112h-.113l.113-.225c0-.113-.113.112-.113.225 0 0-.113 0-.113.113.113-.338-.225 0 0-.338-.112.112-.338 0-.563.338v-.113c0-.112 0-.112-.113-.112l.113-.226-.338.225c0-.225.112-.338.338-.45-.338.112-.226 0-.564.112l.113-.112s-.338.112-.226 0c.113-.339-.45-.451-.338-1.015-.45.338.113-.226-.225 0l.225-.226c-.225-.112 0-.338-.338-.225.113-.113.225-.113.225-.113h-.112.112c-.112-.113-.45 0-.789.226.113-.113.113-.226-.225-.113.112-.113.225-.226.338-.113 0-.113 0-.45-.226-.338.113 0 0-.113 0-.113 0-.112 0-.112-.112-.225-.339 0-.113-.113-.226-.226.226-.338-.113-.112.113-.338h-.226c-.45.113.226-.225 0-.338l-.112.113c-.226-.113.676-.339.676-.339h.113c.338-.225-.338 0-.338-.112.112 0 .45 0 .45-.113.113 0-.563-.226-.225-.338h-.338c0-.113.45-.226.113-.339h.112c-.112-.112-.112-.225-.338-.338.451 0 .338-.112.226-.225-.113-.113-.113-.226.225-.113v-.225h.113c.113-.113 0-.226-.226-.339h.113c.226-.112.226-.112 0-.563l.226.112c-.113-.112.45-.112.338-.338l.113.113c0-.226.225-.226.338-.226.112 0 .225-.112 0-.45v-.113-.113c-.226.113-.226-.338-.338-.338 0-.113.338 0 .338.112.112.226.225.226.225.113.113 0 .113-.113.226.113a.861.861 0 01.564-.226h.45l-.225-.45h.113c0 .112.112.225 0 .225.112.225.112-.225.112-.225.226.112 0 .45 0 .45h.113c0-.112 0-.338.113-.338.113.113 0 .226.113.226h.112l-.112-.338c.112-.113.112 0 .112-.339 0 .226.226.339.339.339.112 0 .338 0 .338.112.112-.112.225-.112.338-.112 0-.113.113-.339.225-.339-.225.564.113.339 0 .79 0-.113.113-.113.226-.113s.113 0 .226-.226c.112.113-.113.226-.113.338.338-.112.338.339.563.451.113-.112.113-.225.226-.225 0 0 0 .113-.113.225 0 .113-.113.226-.113.226.113 0 .339-.338.226 0 0-.113.113-.113.113-.113 0 .338.225.451.338.677.113.225.225.45-.113.789.113-.113.226 0 .226 0h.338l-.338.225c.338 0 0 .226.338.226v-.113c.338.113.789-.113 1.24-.113-.226-.112 0-.225.113-.338.112-.113.225-.338-.113-.338.113-.113.113 0 .225 0-.225 0-.225-.113-.225-.226-.113-.225-.113-.338-.113-.563 0-.113 0-.339-.113-.564l-.225.113v-.226c-.338.113.113.226-.225.338.112-.225.112-.338 0-.45-.113-.113-.226-.226 0-.451-.113-.113-.113.225-.226.112l.113-.112h-.226c0-.113 0-.226.113-.339h.113c0-.225-.338-.225-.338-.338v.226c-.339-.226-.677-.677-1.24-.564v.113c-.339 0-.113-.226-.451-.226-.113.113-.226.113-.226 0 .113-.113-.113-.225.113-.338-.339.113-.226.113-.564.45v-.225c-.113.113-.113.226-.338.226.112-.113 0-.338.112-.451-.112-.226-.338-.113-.45-.113-.113.113-.226.113-.226-.225-.225.45.226.338.226.338 0 .113-.113.338-.226.338s-.113-.676-.45-.564h.112c-.113-.112-.226.226-.338 0 0 .339-.226 0-.113.339l.225-.113c-.112.113-.225.564-.45.45 0-.112 0-.225.112-.225-.113-.112-.112.113-.225 0-.113-.338.338-.112.45-.45-.112-.113-.225.338-.225-.113 0 .563-.338 0-.45.45v-.225s0 .226-.113.226v-.339c-.113.339-.339-.112-.564.113.338-.113.225.226.338.338-.225.451-.45-.45-.79-.112 0-.113.226 0 .226.112-.112 0-.225 0-.338-.112-.225.225.113.225.113.338-.226-.226-.113.225-.113.338l-.113-.225c-.338.112.226.45-.112.45l-.113-.338-.113.113-.113-.225c0 .225-.112.225-.225.338.113.113.225.338.225.45-.112 0-.112-.225-.225 0-.113-.112-.113-.337 0-.225 0-.112-.113-.112-.113-.225-.225 0-.225.225-.225.225h.112v.451c-.112 0-.112-.112-.112-.112v.225c-.113-.113-.338-.225-.226-.451v.338c-.112 0-.225 0-.338-.112-.226.112.113.563-.113.676v.113c-.112.112-.45.225-.338.563h-.451c0 .226.451 0 .451.339 0 .225-.338 0-.45 0 .112.112.337.45.112.563-.113-.225 0-.225 0-.338zm-.226 2.142s-.225-.113 0-.113c.226 0 .113.113 0 .113zm1.353 2.931c-.112 0-.112 0 0-.112v.112zm6.652 1.804c0-.113 0 0 0 0zm.225.113c0-.113 0-.113 0 0 0-.113-.112-.113 0 0-.112 0-.112 0 0 0zm-3.27-8.794c.114-.112 0 0 0 0z"/><path d="M96.956 68.056v.113c0-.113-.113-.113 0-.113zM98.196 68.958s.113 0 0 0v-.112.112zM97.294 68.733c.113.225.113.112.113 0-.113-.226-.113-.113-.113 0zM96.505 68.395v-.226c0-.112-.113.451 0 .226zM97.52 69.296l-.113-.225v.225h.113zM96.956 69.296h.113v-.112c-.113.112-.113 0-.113.112zM95.716 69.522l-.113.113c0 .112 0 .112.113.112v-.225zM96.167 70.086s0-.113-.113-.226v.339l.113-.113zM95.829 70.198c0 .113-.226.226 0 .226 0-.113.112-.226 0-.226zM93.8 69.635h.112l.113-.451-.226.45zM91.657 69.973c.113.225.226-.225.226 0 .113-.113 0-.225 0-.225-.113 0-.113 0-.226.225zM96.392 62.532h-.338.338c-.112 0-.112.113 0 0zM87.486 64.11c.113 0 .113 0 .225-.112l-.225.112zM87.937 61.066v.226c0-.226.338-.113 0-.226z"/></g><defs><clipPath id="clip0"><path fill="#fff" transform="translate(0 18)" d="M0 0h100v64.036H0z"/></clipPath></defs></svg>