<svg width="100" height="100" fill="none" xmlns="http://www.w3.org/2000/svg"><g clip-path="url(#clip0)" fill="#FBCB09"><path d="M56.82 32.205c-.112-.225-.225-.112-.225-.112.113.338.226.112.226.112zm2.03 3.721h-.113l.451.45-.338-.45zm1.804 3.607c.113-.45-.677-1.24-.902-1.916v-.113l-.338-.113c.338.677 1.014 1.578 1.24 2.142zm.338 2.255c0-.226.338.338-.225-.451v.113c.112 0 .112.112.225.338z"/><path d="M60.767 41.337c-.113-.338.112.338 0 0zm1.127 1.691l-.225-.225-.226-.226c0 .113.226.564.113.451.338.451.338.338.338 0zm.451.339l-.225-.226.225.226zm-.564-.677l.451.45c0-.112.113-.112-.225-.225.113 0 0-.112-.226-.225zm-.112-.338c-.113-.338-.226-.677.112-.226-.563-.901-.676-.676-.112.226zm-.677-2.819l-.113-.45-.225-.226c.113.113.338.79.338.676zm2.593 6.539c.113 0 0-.226.113-.338l-.338-.339c.112.226.338.564.225.677z"/><path d="M63.698 45.734l.45.45c-.225-.563-.337-.563-.45-.45zm-.902-2.48l-.79-.79.79.902v-.112zm2.142 4.735l-.338-.226.676.338-.338-.112zm1.015 1.24c-.226-.113 0 .45-.226.225.338.339.564.564.902.677-.225-.226-.45-.451-.676-.902zm1.127 1.241c-.113-.114-.338-.226-.45-.34.112.114.337.226.45.34zm-2.367-3.496c0 .113 0 .226.112.564V47.2c0-.113 0-.113-.112-.226zm.225.226c.113.225.225.338.338.45-.112-.112-.225-.225-.338-.45zm-1.466-2.48c.339.225.79.788.564.112-.338-.226-.113.225-.564-.113zm1.241 1.803l-.339-.564s0 .226-.225.113l.564.451zm.225.225l-.225-.225.225.225zm1.578 2.707l.677.676c-.226-.338-.451-.564-.677-.902 0 0-.225 0 0 .226zm-.789-1.128s.113.113 0 0c.113 0 .113 0 0 0zm.903.902a.88.88 0 00-.452-.451c.113.113.226.338.451.45zm1.24 1.916c-.114-.112-.226-.225-.226-.45 0 .225.112.45.225.45zm-2.03-2.593c.113.113.225.113.338.226-.113-.113-.225-.226-.338-.226 0-.112 0-.112 0 0zm5.299 4.059c-.226.113-.79-.338-1.015-.902-.564-.338-.676.338-.564 1.015.113 0 .113-.113.677.338-.113-.225-.79-1.24-.338-.902.676.564.45.564.676.902-.113-.451 1.015.564 1.127.226l-.676-.564c0-.113.225.113.113-.113zm-2.481-.901l-.225-.226.45.902c.34.225.452.338.565.225l-.451-.45c-.226-.226-.451-.452-.339-.452z"/><path d="M67.757 50.695c.338 0 .789.45.676 0-.564-.564-.451-.339-.902-.564.902.902-.338-.226.225.564l-.45-.451c.112.225.225.338.338.563 0-.112 0-.112 0 0 0-.112 0-.112.112-.112-.112 0-.112 0 0 0 0 0 .113.225 0 0h-.112l.902.901a7.363 7.363 0 01-.79-.901zm-3.044-5.637c.112.112.112.112 0 0z"/><path d="M64.938 45.508c-.113-.113-.225-.113-.338-.338-.113-.225.113 0 .113-.113-.113-.112-.451-.45-.226.113h.113c.225.451.338 1.127.338 1.127v-.789zm1.352 2.593l.677.79-.225-.564v.113c-.226-.451-.338-.339-.451-.339zm3.158 4.849h-.226l.677.225-.451-.226zm1.014.901l-.225.113.338.225-.113-.338zM34.837 68.62c-.113-.113-.113 0 0 0zm40.248-4.058c-.451-.113-.902-.451-.902-.226l.112.226h.79zM52.65 66.816s.112 0 .112.113c.113-.113.226-.113.338-.225-.112 0-.225 0-.45.112zm-.226.789l-.564-.112c.113.112.338.112.564.112zm-31.68 1.805l-.45.225c.563 0 .337-.113.45-.226zm60.428-6.652l.339.338.112.113v-.113s-.112-.113-.112-.225c-.113-.113-.226-.113-.338-.113zm-47.802 3.72c-.225 0-.225.113-.225.113.226 0 .339-.113.226-.113zm48.592-3.044c-.113-.113-.226-.113-.339-.225.113.225.113.225.339.225zM53.664 37.391l-.338.338c0-.112.113-.225.338-.338zm20.631 20.406c-.225-.225 0-.113 0 0zm11.725 6.539c0 .113 0 .113 0 0 .113 0 0 0 0 0zm-11.95-6.99c.113.113.113.226.225.338 0-.112-.112-.112-.225-.338zm0 .113l-.226-.226c0 .113 0 .113.226.226zm.564.564l-.339-.338v.112c.113 0 .226.113.339.226zm-49.718.901c.112 0 .112 0 0 0 .225-.338.225-.225 0 0zm41.939 8.343c.45-.225.676-.225 1.014-.225l-.45-.564-.564.79z"/><path d="M27.396 68.959l.676.112c-.902.338-1.465.226-.789.451.113-.676 2.819-.225 2.819-.789l.45.113h-.338c.902.225.677-.451 1.804-.451.451 0 .676.113.451.225l.902-.225c.225 0 .225.113-.113.113l1.353-.113c.226-.113.677-.338.902-.338.338.112-.225.112-.113.112l.79-.225c.338.113-.339.338-.902.338.789.564.676-.225 2.254.113l-.45.338c.45.338 1.014.225 1.916.338-.226-.112-1.691-.563-.902-.676.225 0 .564 0 1.015-.113 0 .226.45.113 1.014.113v.338c.564-.113.564-.225.902-.45.677 0 .79.225 1.015.45 1.014 0-.79-.338.564-.45.901.112 1.465-.114 2.593-.34.676.114-.113.226.112.226l.564-.225c.113 0 .113.113.113.113.45-.113 0-.339.789-.451.225-.339 1.465.45 2.367 0 .226.112-.112.225 0 .338 1.24-.338 1.015-.226 2.03-.564l.902.113c-.677-.226.112-.564.902-.79-.226-.112-.451-.225-.564-.225l1.127-.225c.113 0 0 .112-.112.338.112 0 .112 0 .225-.113.451.113.225.226-.113.451-.112 0-.225-.112-.45-.225-.226.225-.564.45-.452.563.113 0 .226-.112.339-.112-.113 0-.113.112-.113.112s.113 0 .338-.112l.226.338v-.113l1.465.113c1.015-.338 1.917-.902 3.608-1.127-.451.225-.113.45-.113.676-.45-.338-1.353.225-2.142.113.451 0 .338.112.226.225l1.578-.338c0 .225.338.113.79.225-.34-.45 1.126-.338 1.803-.563 0 .113-.113.338-.902.338.902.338 1.127-.564 1.916-.338-.225 0-.338 0-.338.113.451-.113 1.579-.113 1.24 0h-.225c1.24 0 3.833-.113 3.946-.564 0 0-.113.45-.226.564l2.142-1.466c-.225.338.564 1.127-.45 1.353.338 0 .676.113 1.352-.113-.225 0-.563-.451-.225-.564.79.338.564.226 1.466.451-.339-.112 0-.676.45-.676-.112.113.113.563-.112.563l1.127-.563c-.338.113 0 .45.226.563-.113-.112 1.014 0 1.353-.112l-.564-.113c1.353 0 1.353-.79 2.706-.79-.113.114-.339.677.338.79.338-.338 1.353-1.353 2.48-1.691l.225.113.902-.226c-.563.451-2.142 1.353-2.93 1.804.563.113.112.225.901.113.226.112-.45.225-.676.225h1.803c-.112-.338 1.353-.338 1.24-.676l-1.916.45c-.113-.337 1.127-.901 2.368-.901.338.113-.226.564-.226.676.113-.112.338-.112.677-.112h.789s-.226 0-.338.112c-.113 0-.226.113-.226.113h.564c.225 0 .45-.113.676-.113.451-.112.79-.225 1.579 0 .225 0 .676.113 1.014.113.451.113.79.113.677 0-1.353-.338-2.593-1.353-2.706-1.691l.902.225c.45.113 1.127.226 1.578.226.564.113.79.225 1.015.45.113.114.225.34.789.452-.113-.113 0-.226 0-.226.564 0 .45.226 1.353.226-.677-.338 1.916 0-.338-.226h1.465c.113 0 0 0 .113-.112 0 0-.113-.113-.225-.113-.226 0-1.128-.338-1.917-.564-.902-.225-1.578-.564-1.917-.676h.451c-.563-.339-.902-.564-1.24-.902-.338-.338-.789-.564-1.353-.902 0-.113-.563-.564-.225-.451-.113 0-.226-.113-.338-.113-.113 0-.339-.113-.451-.225-.226-.339 0-.226.112-.113.226.113.564.338.339 0h-.226c-.113 0-.225-.113-.338-.113-.338-.113-.564-.338-.902-.45 0 .112.225.337.564.563.112.113.338.113.45.225.226.113.339.226.564.226-.112.113-.225.113-.338.113h-.564c-.45-.113-1.014-.226-1.578-.564-.902-.451-.225-.451-.45-.564-1.467-1.24-1.805-.45-2.82-1.69-.338-.565.339-.452.339-.677.676.45.902.902 1.353 1.24l-.451-.564c.225.113.789.338.902.564-.113-.226-.79-.79-1.579-1.353-.676-.564-1.578-1.24-2.029-1.804-.225-.113-.676-.338-.564-.113l.338.339c.226.45-.901-.339-.45.112-.564-.338-1.24-.676-1.804-1.353l.112-.338c0 .113.339.564.564.677-.225-.113-.338-.339-.563-.677-.226-.338-.452-.563-.677-.563l.338.563c-.563-.338-1.353-.676-1.804-1.353 0 .451.113.113.339.79 0-.677 1.465 1.465 1.24.563.112.677.676.79 1.014 1.579 0-.113-.112-.339.339.225h.112c-.112-.113-.112-.225-.112-.338.45 0 1.127.79 1.578.902.226.338-.225 0-.113.225l.564.226c-.113.225.564.902-.225.45l.676.565c.338.45.79.901 1.24 1.127.338.225.902.45.564.338l1.127.676c.564.451 1.128.677 1.691 1.015.113.113.339.226.451.226.113.112.338.225.338.225.113.113.226.226.226.338a.62.62 0 01.564.339h-.226c.113 0 .113.112.113.112s0 .113.338.113c-.45-.113-.564-.113-.564-.113-.112 0 0 .113-.225.113l.45.226c-.225 0-.225.112-.563.225l.226.226c-.113.112-.451.112-.677 0h-1.578c.113-.113.338-.113.564 0-1.353-.452-2.819.45-4.172.225-.338.113-.563.113-.789 0h.113-.113c-.113 0-.225-.113-.451-.113.113 0 .225.113.338.113-.225 0-.563 0-.902.113h-.451c-.338-.113-.225.112-.112.338-.226 0-.339.113-.451.113-.338-.339-.902.112-1.353-.226-.226.226-1.804.226-1.917.677 0 0-.112-.113.113-.113-.451 0-.79-.113-1.127.113l-.226-.339-.902.451c-.563-.112-.789-.225-.225-.45-1.24.45-1.015.225-2.03.563v-.225c-.338 0-1.014.338-1.24.112-.902-.338-4.171.113-6.426-.112.451.563-1.015-.226-1.127.225-.113-.113-.451-.225-.113-.338-1.127.225-1.691-.113-2.48.225-.113-.112.225-.225.112-.225-.112 0-.338.113-.45 0-.113-.113.112-.113.338-.226-1.128.113-1.24.451-1.353.902-.564-.112-.902-.112-1.24.113-.226-.113-.564-.225.112-.338-.45 0-2.48-.113-2.48.225-.113-.112-.564 0-.676 0-.902 0-1.015 0-1.804.113h.225c-.112.564-.563.338-1.24.338-1.69-.225-.676.113-2.367-.112l.112.225c-.112.451-1.465-.225-2.367 0l.338.113c-.45.225-1.465-.564-1.916-.677-.113 0 .225-.112.338-.112-1.353-.226-.113.338-1.128.45-.225-.112.226-.45-.45-.45-.339-.113-1.917.563-2.82.338.226.112.452.225 0 .338-.675.113-1.916-.338-2.592 0-.113 0-.113-.113-.113-.113-.564.113-1.804.226-2.03.451-.563-.789-3.381.564-3.381-.225l-1.691.113v-.113c-1.015 0-1.466.225-1.804.338-.226 0-.113-.113 0-.113-1.579-.112-1.691 0-3.044.338l-.113-.225h-1.353c-.338-.113-.676-.113-1.24 0 0 0 .113-.113.226-.113-.339.113-.564.113-.677 0-.113 0-.225-.112-.225-.112.45-.339.563-.339-.226-.226v-.225c0-.113.113-.226.113-.226-.451.338-.677.338-.677.338-.112 0-.112-.225-.45 0 .225-.225.563-.45.789-.563.225-.113.45-.113.225.112l-.113.113c.339 0 .564-.113.902-.338.226-.226.564-.451.677-.338l.676-.564a4.9 4.9 0 00.79-.677c.563-.45 1.127-.901 1.69-1.24 1.128-.789 2.255-1.69 3.27-2.48l-.451-.113.79-.563c.225-.113.45 0-.114.45.451-.112.79-.901.79-.901 1.127-.677-.113.676.225.338l.451-.338h-.113c.226-.338.226-.564.79-1.015.45-.225.338 0 .45-.113 0 0 .113 0 .226-.225l.902-.677-.677.113c.338-.45.902-.676.226-.564.902-.112 3.495-2.705 4.058-2.93.451-.677 1.015-1.128 1.691-1.692-.225.113-.563 0 .113-.564.226.677 1.24-.676 2.03-.676-.677.113 1.69-1.466.676-1.24.564-.338.225.113.676 0 1.015-1.128 2.706-2.03 4.172-3.27 0-.112-.338 0-.113-.338l1.015-.338c.225-.226 0-.564.676-.79-.113 0-.338 0-.113-.112 3.157-2.03 5.75-5.073 9.132-6.99-.45.226-.225 0 0-.338-.225.113-.112-.113-.225-.225l1.465-.79c0-.45 1.353-1.127 1.24-1.465l-.338.338c.339-.677-1.24 0-1.465-.451-.226 1.015-1.804 1.015-2.368 2.142-.225.113.113-.225-.112-.225-.113.338-.339.676-1.015 1.014v-.113c-1.466 1.24-2.255 1.691-4.059 2.932l.226.112c-.338.226-.451.339-.677.339-.225.563 1.015-.79.902-.226-.789 0-2.593 2.142-3.27 2.03-.563.45.339.112-.225.563h-.225v.226c-.338.225-.677.338-.79.225l.339-.338c-.564.225-1.353 1.127-1.466 1.24l.564-.338c-1.466 1.353-3.495 2.818-4.735 4.171h.225c-1.014 1.128-1.014.677-2.142 1.804-.225.338-.45.564-.789.902.226-.338-.79.338-.45-.113-1.128 1.128-.452.677-1.016 1.578h-.338c-.225.339-.113.452-.789 1.015.451-.563-.564.113-.113-.563-1.578.789-1.69 1.916-2.705 1.916-.339.902 1.353-.676 1.014-.338.338-.113-.225.676-.676 1.014-.451.339-1.128.113-2.142 1.015l.225-.225c-.45.225-.676.789-1.24 1.014-.113.451-.676.451-.45.902l.901-.902c-.45.564-.676 1.24-1.804 1.804 0-.113.226-.45.338-.563-.338.112-.45.45-.789.563-.113-.338 1.128-1.014 1.466-1.69-.338.112-.902 1.127-.902.563-.113.789-1.127.789-1.578 1.69l-.113-.225c-.113.113-.226.339-.451.564l.225-.564c-.45.677-1.24.79-1.69 1.353 1.127-.902.45 0 1.014-.225-1.24 1.353-1.24.225-2.706 1.578.226-.225.902-.564.677-.225-.339.225-.79.45-1.015.563-1.015.902.338 0 0 .564-.226 0-.338.226-.451.338 0 .113-.113.226-.113.339l-.113.112c0 .113-.112.113-.225.226l-.225-.338c-2.03 1.465 0 .676-1.691 1.803 0 0 0-.112.112-.338.113-.113.113-.338.113-.338l-.79.676-.225-.112c-.676.789-1.014 1.014-2.142 1.916.338-.113.451-.113.564-.113 0 .113-.113.226-.451.564-.902.564-.226-.113-1.353.79-.225 0-.338-.114.79-.79-.113 0-.113-.113-.226-.113-.79.451-1.466 1.128-1.804 1.466h.564-.451c.113 0 .113-.113.113-.113v.113l2.93-.451c.113.113-.225.113-.676.225.564 0 1.015-.225 1.691-.225-.563.225-.789.451-2.029.564l2.706-.339c0 .113.902.226.564.226.676 0 1.578-.113 2.48-.226.45-.112.902-.112 1.353-.112h.789s.113-.113.338-.113c.902 0 1.804.225 2.819-.113l.676.338c.902-.112-.902-.338.564-.563 1.014-.113.338.225.789.338.45-.225 1.353-.564 2.367-.338-.45.112-.676.112-1.014.112zm10.71-.564c-.226 0-.564.225-.79.113.226-.339.452-.226.79-.113zm16.122-1.24c-.113.112-.339 0-.677 0a.719.719 0 01.677 0zm22.66-7.554c.339.451.226.226 0 0zm-.676-.676c-.113 0-.113 0 0 0 0 0 .113.225.338.338 0-.113-.113-.225-.338-.338zm-47.914-.79l-.226.113c.338-.338.226-.225.226-.112z"/><path d="M52.424 67.493c-.113 0-.113-.113-.113-.113 0 .113 0 .113.113.113zm35.4-1.241c-.338 0-.676 0-.79-.112.114 0 .34.112.79.112zM72.04 55.768l.452.45c-.226-.225-.226-.338-.339-.45 0 0 .113.112-.112 0zm-2.705-4.848c-.113 0-.113-.113-.226-.226l-.112.113c.338.226.563.451.338.113zm2.818 3.946c.113-.226-.225-.451-.563-.676-.226.112.225.338.563.676zm-.563-.789c-.113-.113-.226-.226-.339-.226-.112 0 .113.113.339.226zm3.607 4.171c-.112-.226-.225.113-.338 0-.338 0 1.24.676.338 0zm-2.818-4.171v.338h.225l-.225-.338zm2.367 2.48l-.45-.564s-.113 0-.226-.113c.338.451.676.79.676.677zm-.676-.564c-.113-.113-.338-.338-.451-.338.113.112.338.225.45.338zm-1.015-1.24l.113.113.338.45-.45-.563zm7.441 6.539l.677.338c.112 0 0-.225-.226-.338-.225 0-.45-.225-.45 0zm-1.466-1.916c.113.112.113.225.113.338l.226-.226-.339-.112zm1.804 1.239c.113 0 1.015.451.226-.112-.113 0-.677-.339-.226.112zm3.833 4.848h.226l-.902-.45s.225.112.338.225c.113.112.338.225.338.225zM74.52 67.155c.903.112.226-.339 1.016-.226.225-.113-.677-.113-.451-.225-.564.112-.79.112-.564.45zm.565-.451c.112 0 .225 0 .225-.113-.113.113-.225.113-.225.113zm-19.617-30.44l.45-.338-.337.112-.113.226zm.564-1.014l.338.112.113-.45c-.113.112-.339.337-.451.337zM39.684 68.958c0-.112-.225-.112-.45-.112l.45.112zm-7.779 0h.113l-.225-.225.112.225zm-6.425.677c.225 0 .563-.113.788-.113-.563.113-.902-.225-.789.113zM3.27 81.923l.225.113c-.113-.113-.338-.113-.226-.113zm-.339-.45l-.113-.113.113.113zm0-.339c-.338-.113 0 .113-.113.113h-.112l.225.113c.113 0 0-.113 0-.226zm.789.113c-.112-.113-.112-.113 0 0zm0-.225c.113.112.226.112.226.112s-.113-.112-.226-.112zm-.225-.113c0 .112.113.112 0 0z"/><path d="M3.608 81.022c-.113 0-.226-.113 0 0-.113 0-.113 0 0 0zm-.113 0h-.226c.113.112.339.112.226 0zm-.789 0c-.113.112 0 .112 0 0zm1.24-.226c-.113 0-.226 0-.226-.112h.113c0 .112 0 .112.113.112zm-.338 0c-.113-.113 0 0 0 0zm-.451 0l.225.225-.225-.225zm.789-.113h.225l-.225-.112v.112zm.113-.113c.112.114.225 0 .338.114-.113-.113-.226-.226-.338-.113.112-.113.112-.113 0 0zm-.113-.225s.113 0 .113.113c0 0 0-.113-.113-.113zm-.676.451c-.113-.112-.226-.112-.339-.112.113 0 .226 0 .338.112zm.112-.226l.113.114-.113-.113zm.338-.225c-.112-.112-.112-.112-.225 0 .113 0 .225.113.225 0z"/><path d="M3.495 80.345c.113.113.113 0 0 0 .113 0 0 0 0 0zm-1.015-.789c.226 0 .338.113.113.113.113.113.79.338 1.127.338-.112 0-.112 0-.225-.113h-.451c-.113-.112.113 0 .225 0-.225-.112-.338-.225-.789-.338h.226c-.113.113-.113 0-.226 0zm1.128.564h.338c-.113 0-.113-.113-.338 0zm0 .112c-.113-.112-.226-.112-.451-.225 0 .113.112.113.225.113 0 0 .113.112.226.112.112 0 .112 0 0 0 .112 0 .112 0 0 0 .112 0 .112 0 0 0 .112 0 .112 0 0 0 .112 0 .112 0 0 0 .112 0 .112 0 0 0 0 0 0-.112 0 0zm-1.015.226c.113 0 .113 0 0 0 .113 0 0 0 0 0s0 .113.113.113h.338c-.113-.113-.226-.113-.451-.113zm.451-.113l-.226-.113h.113l.113.113zm.789-.338l.226.113-.339-.113h.113zm0-.113l.226.113-.113-.113h-.113zm0-4.734s.113 0 .113.112c0-.113 0-.113-.113-.113zm-.563-2.932l-.113-.113c-.113.113 0 .113.112.113zm1.014 6.426c-.113 0-.113 0 0 0-.113.113 0 .113 0 0 .113.113 0 .113 0 0zm.113-7.779s.113 0 0 0c0-.113 0-.113 0 0zM2.48 76.061c.226.113.226.113.113.113l.564.112-.677-.225z"/><path d="M3.27 72.792h-.226c-.226-.113-.113-.226-.451-.226.676.226 0 .226.676.451h-.112c-.339 0 .45.226.338.226h-.226l.113.112H3.27v.113c.113 0 .226.113.339.113h-.113l.113.112c-.226 0-.339-.112-.226-.112-.676-.113.113.112-.225.112l-.113-.112c-.338-.113-.226 0-.451 0 .113 0 .564 0 .676.112 0 0-.112 0 0 .113-.225-.112-.225 0-.225 0l-.338-.112c.112.112.225.112.338.225h-.451c-.113.113.338 0 .451.113-.113 0 0 .112.113.225-.113 0-.226-.113-.226-.113l.226.226h-.113c.113 0 .225 0 .338.113.338.112-.45 0-.113.112-.112 0-.225-.112-.338-.112.226.112.113.112.451.338h-.225c.225 0 .45.113.676.225h.226l.112.113s-.112 0-.225-.113h.113c-.113 0-.339-.112-.451-.112h.225c-.225-.113-.338-.113-.564-.226h.113-.113l.113.113-.338-.113h.113l-.226.113c.338.225.79.338.902.564-.338.112-.45.112-.789 0 .338 0-.113-.113 0-.226h-.226l.226.226c-.226-.113-.226 0-.338 0 .45.112.225.225.45.225-.112 0-.338-.113-.225-.113-.338 0 .564.226.226.226.112.113 0 .113-.113.113-.113.112-.113.338.338.45 0 0-.45-.112-.564-.225l1.24.564c-.338-.113-1.127-.226-1.352-.451 0 0-.113 0 0 .112 0 0 .45.113.563.113h-.563c.112 0 .563.113.563.226-.112 0-.563-.113-.563-.226l.338.226c-.113 0-.451-.113-.564-.113.113 0 0 .113 0 .113h.113c-.113 0 .79.225.676.338-.112 0-.676-.225-.676-.225.225.112 1.24.45 1.466.563h-.113l.113.113c-.339-.113-1.24-.564-1.466-.677h-.225c-.113 0-.226-.112-.226-.112l-.113.112c.226.226.226.339.451.451l-.225-.338c.338.113.902.338.789.451-.113 0-.564-.225-.676-.225.112 0 .225.112.112.112h-.225c-.113 0 .338.226.113.226h-.226c.338.113 1.466.338 1.691.45H3.27c-.338 0-.676-.225-.901-.225.112 0 .225.113.225.113-.113 0-.225-.113-.225 0h.225c.113.113-.113 0-.113.113.226 0 .677.225.79.338h-.226c0 .113-.226.113-.226.226H2.48l.113.112c-.338 0 0-.112-.338-.112.225 0 .225.112.338.225.338.113.113-.113 0-.113.338.113.79.338.902.451.113.113-.226 0-.226 0-.112.113.677.338.339.338-.226 0-.451-.112-.677-.225 0-.226.226-.226.226-.226h-.113c-.113 0-.113-.112 0-.112-.226 0-.113.225-.338.338.112 0 .112.113.225.113.226 0 .226.112.338.112.113 0 .226.113.113.226l-.338-.113h.113c.112.113-.451 0 0 .113h.225c.113.113.451.225.338.225h.339c-.451-.112.112-.112-.339-.225.339.113.226 0 .564 0-.113 0-.225 0-.113-.113h-.225c-.226-.112-.226-.112-.226-.225h.226l-.113-.113c.226 0 .338 0 .451.113v-.113c.113 0 .226 0 .113-.113 0 0-.226-.113 0-.113l-.113-.112c0-.113-.338-.338.113-.338 0 0-.113-.113 0-.113h.225c0-.113.226-.113 0-.113.451.113.113-.225.226-.225l-.226-.113s0-.113-.112-.226h-.226c-.338.113 0 .113 0 0 .113 0 0 0 0 0 .451 0-.225-.338.113-.338-.113 0 0 0 0-.113h.113-.113l-.113-.112h.226c.112 0-.113 0-.226-.113 0 0-.113 0-.113-.113.339.113-.112-.112.339 0-.226-.112-.113-.225-.451-.338h.112s.113 0 0-.113l.339.113-.339-.225c.226 0 .339 0 .451.112-.338-.225-.112-.112-.45-.338h.225s-.226-.113-.113-.113c.338 0 .113-.338.564-.45-.564-.113.225 0-.113-.113.113 0 .226 0 .338.112-.112-.112.226-.112-.112-.225.112 0 .225.113.225.113s-.113-.113 0 0c.113 0 .113 0 .113.112 0-.112-.338-.225-.79-.338.226 0 .113 0-.112-.113.113 0 .225 0 .338.113 0 0 .226-.113-.113-.225.113 0 0 0 0 0 0-.113.113-.113.113-.113H4.51c.338-.113-.113-.113.225-.113H4.51c-.451-.113.338 0 .112-.113H4.51c-.113-.112.676.113.789 0h.112c.226-.112-.338-.225-.338-.225.113 0 .338.113.451.113.113 0-.45-.339-.112-.339-.113 0-.226 0-.339-.112 0-.113.451 0 .113-.226h.113c-.113-.112-.113-.225-.338-.225.676.225-.339-.338.338-.113v-.225h.112c.113-.113-.112-.113-.225-.226h.113c.225-.113.112-.113-.226-.338H5.3c-.113-.113.45-.113.225-.226h.113c-.225-.225.676-.112-.113-.45L5.3 71.89c-.113.112-.338-.113-.451-.113 0-.113.338 0 .338 0 .451.113.226-.113.451 0 0-.225.338-.451.45-.564h-.45v-.112c.113 0 .225 0 .225.112.226 0-.112-.112-.225-.112.113-.113.338.112.45.112-.112-.112-.225-.112-.225-.225h.226v-.113h-.226c-.112-.113 0-.113-.225-.113.45.113.225-.338.45-.338-.225-.113-.112-.225-.112-.225-.113 0-.338-.113-.338-.113.564.225.338 0 .79 0-.34 0 0-.226-.452-.226.113 0 .226.113.338.113-.225-.225.226-.225.226-.45-.113 0-.226 0-.338-.114h.45s-.45-.112-.112-.112h-.226c.451-.226-.112-.677.677-.79-.226 0-.226 0-.226-.112 0 0-.225 0-.338-.113h.338c-.338-.113 0-.113-.225-.225-.338-.113-.79-.113-1.24-.226.338.113-.677 0-.113.225-.113 0-.113-.112-.225-.112.225.112.225.112.112.112 0 .226-.225.226-.338.339.338.112 0-.113.451 0-.564.112-.113.45-.676.338 0 .113.225 0 .225.113h-.113l.226.112H4.51c-.226 0 0 .113 0 .113h.112c-.112.113-.338.226-.112.451h.112c.113.226-.112.113-.112.226.112 0 .112.112.112.112-.112-.112-.225 0-.338-.112.226.225.113.112.564.338h-.226c.113.113.226.113.226.225-.113-.112-.226 0-.451-.112-.451 0 .338.338-.226.225.451.225.339 0 .339 0 .112 0 .338.113.225.225 0 0-.676-.112-.676 0-.113 0 .112.113-.113.113.225.113 0 .113.338.226l-.113-.113c.339-.113.677 0 .451.113-.112 0-.112-.113-.225-.113s.113.113-.113.113c-.338-.113 0-.113-.338-.226-.113 0 .225.226-.113 0 .451.226-.113.113.226.226l-.226-.113.113.113-.226-.113c.226.113-.225 0-.112.113 0-.113.225 0 .45 0 .226.225-.563-.113-.563.112 0 .113.225 0 .338.113-.225 0 .113.113.113.113l-.226-.113c-.225.113.451.113.226.226l-.338-.113.112.113-.225-.113c.225.113.113.113 0 .113.113 0 .45.113.338.225-.113 0-.225-.112-.225 0-.113 0-.339-.112-.113-.112-.113 0-.113-.113-.226-.113-.112 0-.112.113-.112.113h.112l.226.225c-.113 0-.113 0-.226-.113l.113.113c-.225-.113-.338-.113-.45-.225l.225.112h-.339c-.112 0 .339.226.113.338h.113c.338.339.113.339.338.564h-.338c0 .113.45 0 .564.226.112.112-.339 0-.339 0s.339.112 0 0c0 .112 0 .112 0 0zm0 .901c-.113 0-.226-.112 0 0 .112 0 0 0 0 0zm.112 1.466c-.113 0 0 0 0 0 .113 0 .113 0 0 0zm.564 4.059c.113 0 0 0 0 0zm-.113 0c0 .112 0 .112 0 0 0 .112 0 0 0 0zm2.142-8.23c-.113 0 0 0 0 0zm-3.382 8.793c0 .113 0 .113 0 0l.113.113-.113-.113z"/><path d="M3.382 79.669c-.225-.113-.225 0 0 0-.113 0-.113 0 0 0 0 0 .113.112 0 0zm-.112 0c.112.113 0 0 0 0zm.676-.226s.225.113.113.113c.225 0-.226-.226-.113-.113zm-1.24 0l.225.113-.113-.113h-.112zm.225-.225c0 .112 0 .112 0 0 0 .112.113.112 0 0zm.226-.564c-.113-.112-.226-.112-.113-.112 0 .112 0 .112.113.112zm-.677-.113c-.112 0-.225-.112-.225-.112.113 0 .113.112.225.112zm.564-.901v.112l.45.113-.45-.225zm-.902-1.016c-.113 0 .338 0 .113.113h.225c-.112-.112 0-.112-.338-.112zm4.51-8.567l.338.112-.338-.112c.112 0 .112 0 0 0zM2.931 73.13l.338.113-.338-.113zm-.113-.676c-.112.112 0 .112 0 0-.112.112.339.112 0 0zm4.397 8.342h.113l-.225-.113.112.113zm0-.339c-.338.113.113.113 0 .226h-.112.225c0-.113-.225-.226-.113-.226zm.79-.225c-.226 0-.113-.112 0 0-.113 0-.113 0 0 0zm-.113-.225h.113c.112 0 .112-.113.112 0h-.225zm-.113.113c-.113 0-.113.112-.225 0 0 .112.225.112.225 0zm-.564 0h.339l-.339-.113v.113zm.79-.677h.338c-.113-.113-.226-.113-.338 0 .112 0 .112-.113 0 0zm-.339.225s.113 0 .226-.112l-.226.112zm-.226.226c-.112 0-.225-.113-.45 0h.45zm-.112-.226v.113l.113-.113h-.113zm.338-.225c-.112 0-.112 0-.112-.113v.113h.112zm-.226 0s0 .113 0 0c.114 0 .114 0 0 0zm.339-.225c-.113 0-.113.112 0 0-.113.112 0 0 0 0zM6.2 79.105c.226 0 .339 0 .226.112.113 0 .79-.112 1.128-.112h-.226c-.113 0-.225.112-.45.112-.114-.112.112-.112.112-.112-.226 0-.338-.113-.79 0h.226-.225zm1.24.113s.114 0 .226-.113c0 0-.112 0-.225.113z"/><path d="M7.554 79.33H6.99c0 .113.225 0 .225 0s.226.113.339 0 0-.113 0 0c.112 0 0 0 0 0 .112 0 .112 0 0 0-.113-.113-.113-.113 0 0zm-.902.564s.112 0 0 0c0 0 .112.113.225 0 .113 0 .338-.113.338-.113-.225 0-.338 0-.563.113zm.338-.338h-.226.113c0 .112.113 0 .113 0zm.676-.451h.226l-.338-.113.112.113zm-.112-.113h.225l-.113-.113-.112.113zm-.226-2.705c.226 0 .451-.113.226-.113l-.226.113c0-.113 0-.113 0 0zM4.96 74.595l.113-.113s0 .113-.112.113zm2.48 3.27c0-.113.114-.113.114-.113-.113 0-.339.113-.113.113zm.114-.225c-.113 0-.113 0 0 0-.113 0 0 .112 0 0 .112 0 0 .112 0 0zM4.96 75.835c.226 0 .226 0 .226.113l.564-.113h-.79z"/><path d="M4.51 72.566l-.226.113c-.338 0-.225-.113-.45 0 .676-.113.112.225.788.112H4.51c-.339.113.45 0 .338.113 0 0-.113.113-.226.113l.113.113h-.113l.113.113h.338-.112.112-.338c-.676.112.113 0-.225.225h-.113c-.338.113-.226.113-.451.225.113 0 .564-.225.676-.112 0 0-.112 0 .113.112-.225 0-.113 0-.113.113h-.338.338c0 .113-.225.113-.45.113 0 .113.338-.113.45 0-.112.113 0 .113.226.225-.113.113-.226 0-.226 0h.226-.113.338c.338 0-.45.226-.112.226h-.339.677l-.226.113c.226-.113.451 0 .677 0 .112 0 .225 0 .225-.113l.226.113h-.339.113-.45.225-.564.113-.113.113-.338.112l-.225.112c.338 0 .902.113 1.014.226-.225 0-.45 0-.676.113.338-.113-.113-.113-.113-.226h-.225l.338.113c-.225 0-.225 0-.225.113.45-.113.338.112.45.112h-.338c-.338.113.564 0 .226.113h-.113c.113 0 0 .113-.113.113 0 .113 0 .338.451.338h-.563 1.352c-.338 0-1.127.113-1.352.113 0 0-.113.112 0 .112 0 0 .45-.112.563-.112-.338.112-.225.112-.563.225.112 0 .563-.112.563 0-.112 0-.563.113-.563 0h.563c-.112 0-.45 0-.563.113.112 0 0 .113 0 .113h.112c-.112.112.79 0 .79.112-.113 0-.677 0-.79.113.226 0 1.353 0 1.579.113h-.113.225c-.45 0-1.353 0-1.69-.113-.113 0-.226 0-.113.113h-.226l-.113.113c.339 0 .339.112.564 0l-.338-.113c.338 0 .902 0 .902.113h-.677c.113 0 .226.112.113.112h-.225c-.113.113.45 0 .112.113 0 0-.45.113-.225.113.338-.113 1.465-.226 1.804-.226 0 0-.339.113-.564.226-.226.113-.676 0-.902.113h.226c-.113 0-.226 0-.226.112.338 0 0 .113.226 0 .112 0-.113.113 0 .113H6.2h-.226c0 .113-.113.226-.113.338-.112 0-.112.113-.338.113h.226c-.226.113 0-.113-.338 0 .225 0 .225 0 .338.113.338 0 0-.113-.113-.113.45 0 .79 0 1.015.113.112.113-.226.113-.226.113 0 .112.677.112.451.225-.225.113-.564 0-.676.113-.113-.113.112-.113.112-.226l-.112.113c-.113 0-.113 0-.113-.113-.226.113 0 .226-.226.451h.565c.113 0 .338.113.226.113h-.339c.113 0 .113-.113.113-.113.113 0-.338.113 0 .113l.226-.113c.112 0 .45.113.338.113l.338-.113c-.45.113 0-.225-.45-.112.337-.113.112-.113.45-.226H6.99c-.226 0-.226-.113-.338-.113h.225-.225c.225 0 .338-.112.45-.112v-.113c.113 0 .113-.113.113-.113s-.225-.113-.112 0l-.113-.113c0-.112-.338-.225 0-.338-.113 0-.113-.113-.113-.113h.226c-.113 0 .225-.112 0-.112.45-.113.112-.226.112-.339H6.99s-.113-.112-.226-.112H6.54c-.226 0 .113-.226.113-.226.112 0 .112 0 0 0 .45-.112-.339-.225 0-.338-.113 0 0 0 0-.113h.112-.112l-.113-.112h-.113c.338-.113-.113-.113.226-.113-.226 0-.113-.113-.564-.113H6.2s.112-.113 0-.113h.338-.451c.225-.112.225-.112.45-.112-.337-.113-.112-.113-.45-.113l.676.225s-.225 0-.112-.112c.338-.113 0-.339.338-.564-.564.113.225-.113-.226-.113.113 0 .226-.113.339 0-.113-.113.225-.113-.226-.225h.226s-.113 0 0 0h.225c0-.113-.45-.113-.79 0 .114 0 .114-.113-.225-.113.113 0 .226-.113.339 0 0 0 .112-.226-.113-.226.113 0 0 0 0 0v-.112c-.338 0-.113 0-.113-.113.226-.113-.113 0 .113-.225h-.226c-.45 0 .226-.113.113-.226h-.113c-.225 0 .677-.225.677-.225h.113c.225 0-.339.112-.451 0 .112 0 .45 0 .45-.113.113 0-.563-.113-.225-.226-.113 0-.225.113-.338 0 0 0 .45-.225 0-.225h.113c-.113 0-.226-.113-.451-.113.789-.113-.451-.225.338-.338v-.113h-.225.113c.113-.113.113-.113-.225-.225h.225c-.113 0 .338-.226.113-.339h.113c-.339-.112.563-.45-.226-.338l-.338-.225c0 .112-.338 0-.564.112 0 0 .226-.112.338-.112.451 0 .113-.113.451-.226 0-.225.226-.45.226-.676l-.338.112v-.112h.225c.226 0-.225-.113-.225-.113.112-.113.45 0 .45 0-.112 0-.338 0-.338-.113.113 0 .226 0 .226-.112v-.113l-.226.113c-.112 0 0-.113-.338 0 .451-.113.113-.339.226-.451-.226 0-.226-.113-.226-.226 0 0-.338.113-.338 0 .676 0 .225-.113.676-.225-.338.112-.112-.226-.563-.113 0-.113.225 0 .338-.113-.226-.113.113-.338 0-.45H5.75l.45-.114s-.45 0-.225-.112H5.75c.338-.338-.451-.564.338-1.015-.113.113-.226 0-.226 0h-.338l.338-.113c-.338 0 0-.112-.338-.112h.113c-.338 0-.79.112-1.24.225.45 0-.564.226 0 .226H4.17c.226 0 .226 0 .113.112.113.113-.113.226-.225.451h.225l-.113.113c.339 0 0-.113.339-.113-.451.113 0 .226-.451.338 0 .113.225 0 .225 0H4.17h.226s-.226.113-.338.113c-.113.113.112.113 0 .113l.112-.113c.113.113 0 .338.339.451h.112c.226.113-.112.113 0 .226.113 0 .113 0 .113.112-.113 0-.225.113-.338.113.225.113.225 0 .564.113h-.226c.113 0 .226 0 .338.113-.112 0-.225.112-.45 0-.339.225.45.225-.113.338.45 0 .225-.113.338-.113.113 0 .338 0 .338.113 0 0-.564.113-.564.225-.112 0 .226.113 0 .113.339 0 0 .113.339 0l-.113-.113c.113 0 .564.113.338.226H4.96c-.113 0 .112 0 0 .112-.339 0-.113-.112-.339-.112-.112 0 .339.112-.112.112.563 0 0 .113.338.113h-.226.113-.338c.225 0-.226.113-.113.226 0-.113.226-.113.451-.113.338.113-.564.113-.45.338 0 0 .112-.112.225-.112 0 0-.113.112-.226.112.113.113.226 0 .338 0-.338.226 0 .226.113.226H4.51c-.113.112.45 0 .338.112H4.51h.112-.225c.225 0 .113.113.113.113h.45c-.112 0-.225 0-.225.113-.113 0-.338 0-.113-.113h-.225c-.113.113 0 .113 0 .113l.338.113H4.51s.112 0 .112.112h-.45l.225.113c-.113 0-.226.113-.338.113-.113.113.338.113.225.225h.113c0 .113-.226.226 0 .226l-.338.113c.112.112.45-.113.563 0 .113.112-.225.112-.338.112.226 0 .564 0 .226.113zm.225.79s-.225 0 0 0c.226 0 .113 0 0 0zm.676 1.352s0-.113 0 0c.113-.113.113 0 0 0zm2.03 3.608c0-.113 0-.113 0 0zm-.113 0s.113 0 0 0zM6.313 69.86c-.112 0 0 0 0 0z"/><path d="M5.073 74.596h.113c0-.113 0 0-.113 0zm2.367 3.832h.226c.226 0-.338-.112-.225 0zm-1.014.564l.226-.113h-.226v.113zm.113-.902h-.226c.113-.113.113 0 .226 0zm-.789 0c-.113 0-.226-.113-.226 0 .113 0 .226.113.226 0zm.338-.902l.45-.112-.45.112zm-1.24-.789c-.113.113.338 0 .113.113.112 0 .112-.113.225-.113h-.338zm1.465-9.469l.113-.114-.225.113h.112zm-2.367 5.523c-.113 0 0 0 0 0-.113 0 .338-.112 0 0zm1.804 3.27c.112.338 0 0 0 0l.112.112v-.225c-.112.113-.112.225-.112.113zm-.226-.677s-.112-.113 0 0zm0 .226c0 .112 0 .112.113.225l-.113-.225zm.226.902c.112 0 0-.113 0 0zm-.451-1.128c0 .113 0 .226.112.226v-.113c-.112 0-.112 0-.112-.113zm-.113 0c0-.113-.113-.225-.113-.338 0 .113 0 .225.113.338-.113-.113-.113-.113 0 0zm.113.339s0-.113-.113-.226l.113.226zm.225.225c0 .113 0 .225.113.45-.113-.225-.113-.225-.113-.45zm-.338-.226v.113c.113 0 0-.113 0-.113zm-.113-.112c.113 0 .113.112 0 0 .113 0 0 0 0 0z"/><path d="M5.299 75.384c-.113-.112 0-.112 0 0zm.113 1.353c0-.225-.113-.338 0-.112 0-.113-.226-.79-.226-1.128v.225c0 .113.113.226.113.339 0 .112 0-.113-.113-.113.113.338 0 .451.226.79v-.226c-.113.112-.113.225 0 .225zm-.226-1.24s0-.113-.113-.225c0 .112 0 .112.113.225z"/><path d="M5.186 75.497c0 .225 0 .338.113.451v-.225c-.113.112 0-.113-.113-.226v-.113.113c0-.113 0-.113 0 0 0 0 0-.113 0 0 0-.113 0-.113 0 0 0-.113 0-.113 0 0 0-.113 0-.113 0 0zm.451.789s-.113 0 0 0c0 0 0 .113 0 0v-.225c0-.113-.113-.338-.113-.338 0 .338 0 .45.113.563zm-.564-.901l-.112-.226.112.338v-.112z"/><path d="M5.073 75.384l-.112-.112v.112h.112zm-1.127.339c-.113-.113-.113-.451-.113-.226l.113.226c-.113 0-.113 0 0 0zm-.564 1.353c0 .112.113.112 0 0v-.113.113zm-.789 1.578v.225c.113 0 .113-.113 0-.225zm2.029-3.044l-.112-.113c0 .113.112.338.112.113zm-.112-.113c0-.113-.113-.113 0 0zm-.339 2.593v-.225l-.112-.564.112.79z"/><path d="M2.818 78.428l.113.226c0 .338 0 .225.113.451-.226-.677 0-.113-.226-.677h.113c.113.339-.113-.45 0-.338 0 0 .113.113.113.226v-.113.113-.451.113-.113c0 .113.113.338 0 .338.225.676 0-.113.113.225v.113c.112.338.112.226.225.451 0-.113-.225-.564-.225-.676v-.113c0 .225.112.113.112.113l.113.338c0-.113 0-.225-.113-.338 0 0 .113.225.113.45 0 0-.113-.338-.113-.45.113.112 0 0 0-.226 0 .113 0 .226.113.226v-.563c-.113-.34.226.45.113.112 0 .113 0 .225.113.338v-.564l.112.226c-.112-.226-.112-.451-.112-.677-.226-.112-.226-.225-.226-.338v-.225s0 .112.113.225v-.113c0 .113.113.226.113.451 0 0 0-.112-.113-.225 0 .225.113.338.113.564v-.113l.112.338v-.113l.113.226c0-.338-.113-.79-.113-1.015 0 .226.113.451.113.677-.113-.339 0 .112-.113.112 0 0 0 .113.113.226v-.338c0 .225 0 .225.113.225-.113-.45 0-.338 0-.45 0 .112.113.337 0 .337.113.339-.113-.563 0-.225v.113c0-.113 0 0 .113.112 0 0 .112 0 0-.45 0 0 .112.45.112.563L3.946 76.4c.113.338.338 1.128.338 1.353 0 0 0 .113 0 0 0 0-.113-.45-.113-.564.113.339.113.226.226.564 0-.113-.113-.564-.113-.564 0 .113.113.564.113.564l-.113-.564c0 .113.113.451.113.564 0-.113 0 0 0 0v-.113c.113.113-.113-.789-.113-.676 0 .113.113.676.226.676 0-.225-.226-1.352-.226-1.465v.112-.225c0 .564.113 1.353.226 1.691 0 .113 0 .226.112.113v.225l.113.113c-.113-.338 0-.338-.113-.564v.339c-.112-.339-.225-.902-.112-.902 0 .112.112.563.112.676v-.113.226c0 .113-.112-.451 0-.113 0 0 .113.451.113.226-.113-.339-.338-1.466-.45-1.691 0 0 .112.338.225.45.112.226.112.677.225.902v-.225c0 .113.113.225.113.225-.113-.338 0 0 0-.225 0-.113 0 .113.113 0-.226-.226-.339-.79-.339-.79 0 .113 0 .226.113.226l.113.113c0 .113.113.113.113.338v-.225c.112.225 0 0 .112.338v-.338c-.112-.339-.112 0 0 .112-.112-.338-.112-.789-.112-1.014 0-.113.112.225.112.225.113 0-.112-.676 0-.45.113.225.113.45.226.676 0 .112-.113-.113-.113-.113v.225c.113.226.113 0 .226.226v-.226c-.113-.225 0-.338-.113-.338v-.225l.112.338c0-.113-.112-.113 0-.113 0-.112.113.338.113 0l-.112-.225c0-.113-.113-.451 0-.339-.113-.225 0 0-.113-.338.112.451-.113 0 .112.451-.112-.338-.112-.112-.225-.45v.676c0-.226-.113-.339-.113-.451 0-.113-.112-.113-.112-.113v.225s0 .339-.113 0v.113-.225c0 .112-.113-.113-.113 0-.113-.451-.113-.113-.225-.113l.112.225v.339c0 .225-.112-.113-.112-.113 0-.113 0-.113 0 0-.113-.451 0 .338-.113 0 0 .113 0 0 0 0v-.113.226l-.113-.226c0-.112 0 .113.113.226v.112c-.113-.338 0 .113-.113-.225 0 .225 0 .113.113.564v-.113s0-.113 0 0l-.113-.225.113.338c-.113-.226-.113-.226-.113-.451v.45-.225.113c-.113-.338-.113 0-.338-.338.113.563-.113-.226 0 .225 0-.112-.113-.225-.113-.338 0 .113-.113-.226 0 .225 0-.112 0-.225-.113-.225 0 0 0 .113 0 0v-.113a4 4 0 00.113.79c-.113-.226-.113-.113 0 .112 0-.113-.113-.225-.113-.338 0 0-.112-.113 0 .113 0-.113 0 0 0 0h-.112c.112.338 0 .112 0 .112-.113-.225 0 .113-.113-.112l.113.225c.112.451-.113-.225-.113-.113v.113c0 .226-.226-.676-.226-.676v-.113c-.112-.226.113.338 0 .338 0-.112-.112-.45-.112-.45 0-.114.112.563 0 .225 0 .112.112.225.112.338 0 0-.225-.451-.112 0V76.4v.338c-.226-.789 0 .451-.226-.338v-.112.338-.113c-.113-.113-.113-.113 0 .225l-.789-.112c0 .112-.113-.338-.113-.113V76.4c0 .338-.338-.564-.112.226v.225c.112 0 .112.338.112.451 0 0-.112-.225-.112-.338-.113-.451-.113-.113-.226-.451-.113 0-.225-.225-.338-.113l.113.338c0-.112-.113-.225 0-.225-.113-.225 0 .225 0 .225-.113-.112-.113-.45-.113-.45v.225c0-.113-.113-.225-.113-.225l.113.225v.338c-.113-.225-.226.113-.226 0v.226l.113.338c-.113-.677-.113-.226-.225-.677.112.339-.113.113.112.451 0 0-.112-.225-.112-.338 0 .226-.113-.113-.226 0 0 .113.113.226.113.338l-.338-.563s.112.45 0 .225v.226c-.226-.339-.226.338-.451-.339.112.113 0 .226 0 .226s0 .225.112.338l-.112-.338c.112.338 0 0 0 .338v-.113c.112.339.225.79.338 1.24-.113-.45.225.564.113 0 0 .113 0 .113.112.226v-.113c0-.112.113.113.226.226l-.113-.226s0 .113.113.113l-.113-.338c.113.45.113 0 .226.45 0 0-.113-.225 0-.225v.113-.225s.112.225.112.338v.112-.112c0-.113.113 0 .113-.226v-.112c0-.226.113.112.113 0v-.113c0 .112.113.225.113.338 0-.225 0-.113-.113-.564v-.113c0 .112.113.225.113.45.112.339 0-.45.112.113-.112-.45-.112-.225-.112-.338 0-.113-.113-.338 0-.338l.225.564c0 .112 0-.226.113 0-.113-.339 0 0 0-.339v.113c0-.113-.113-.564 0-.338v.225c0 .113 0-.112 0 0 .113.338 0 .113 0 .338 0 .113 0-.225.113.113-.113-.563.112 0 0-.338v.225-.112.338c0-.225.112.225.112.113 0 0-.112-.226-.112-.451 0-.338.225.563.225.45 0 0-.113-.112-.113-.225 0 0 .113.113.113.226 0 0-.113-.226-.113-.338.113.225 0-.113 0-.226v.225c.113.113-.112-.45 0-.338l.226.338v-.338c0 .112 0 .225.113.225 0 .112.112.338 0 .112v.226c0 .113 0 0 .112 0v-.338.225-.112c0 .225.113.338.113.45v-.225c0 .113.113.225.113.225v-.338s0 .226.112-.112v.338c0-.113-.112-.451-.112-.564 0-.113.112.225.112.338 0 0-.112-.338 0-.112zm.339-.225c0 .113 0 .225 0 0-.113-.225 0 0 0 0zm.45-.676c0 .112 0 .112 0 0zm1.128-1.917c0-.113 0 0 0 0zm.113.113c0-.113 0-.113 0 0 0-.113 0-.113 0 0zm-3.495.902c0 .112 0 .112 0 0zm3.495-1.353v.112c.113 0 0-.112 0-.112z"/><path d="M5.073 76.06c.113.114.113.114 0 0 .113 0 .113 0 0 0 0-.112 0-.225 0 0zm-.225-.45v-.113c-.113-.338 0 .226 0 .113zm.451 1.014l-.113-.225v.225h.113z"/><path d="M5.073 76.512c.113 0 .113 0 0 0 .113-.113 0-.113 0 0zm.226.225l-.113-.112.113.112zm-.226.339v-.226l.113.338-.113-.112zm-.113.113v.225c.113-.113.113-.113 0-.225zm-.45-.226l-.113-.451.113.45zm0 1.24c.112.113-.113-.338 0-.113 0-.112 0-.112-.113-.225l.113.338zM.113 77.076L0 76.737l.113.339c0-.113 0 0 0 0zm3.269 1.691c0-.113 0-.113-.113-.113l.113.113zm-.338-.113l-.113-.226.113.226zm-.113.451s0-.113 0 0c0 0-.113-.338 0 0zm48.591-47.463l-.113-.113.113.113zm0-.339c-.338 0 .113.113-.113.113h-.112.225s-.113 0 0-.113zm.676-.113c-.112 0-.112-.112 0 0zm-.112-.112h.225c0-.113 0-.113-.225 0zm-.226-.113c.113.113.113 0 0 0zm.113.113h-.225c0 .112.338.112.225 0zm-.789.225c-.113.113.113 0 0 0zm1.127-.563h-.338.113c.112.113.112.113.225 0zm-.789.225l.226.113-.226-.113zm.789-.451h.338c-.112 0-.225-.113-.338 0 .113 0 .113 0 0 0zm-.676.338c-.113 0-.226-.112-.451 0h.45zm.338-.338c-.113 0-.113-.113-.113-.113s-.112 0-.112.113h.225zm.113-.225c0 .112-.113.112 0 0 0 .112 0 0 0 0zm-.113.338c.113-.113 0-.113 0 0zm0 0h-.113c0-.113 0 0 .113 0zm-1.466-.451c.226 0 .339 0 .113.113.113 0 .79 0 1.128-.113h-.226c-.113 0-.225.113-.451.113-.113 0 .113 0 .113-.113-.113 0-.226-.113-.677 0zm1.353.113h.226c-.113-.113-.113-.113-.226 0z"/><path d="M51.86 30.401h-.563s.225 0 .225.113c0-.225.226-.113.338-.113s.113 0 0 0c.113 0 .113 0 0 0 .113 0 .113 0 0 0 0-.112 0-.112 0 0zm-.902.451s.113 0 0 0c0 0 .113.113.226 0 .113 0 .338-.112.338-.112-.225 0-.338 0-.564.113zm.902-3.156c.226 0 .451-.113.226-.113l-.226.113zm-1.353-1.579c0 .113 0 .113 0 0h.113c0 .113 0 .113-.113 0zm-.789.113h.113c0-.113-.113-.113-.113 0zm2.142 2.818c.113 0 .113 0 .113-.112-.113.112-.338.112-.113.112zm.113-.112s0 .112 0 0c.113.112.113 0 0 0zm-2.48-1.691c.225 0 .225 0 .225.112h.564l-.79-.112z"/><path d="M49.38 24.426l-.226.113c-.338 0-.225-.113-.45 0 .676 0 .112.225.676.225h-.113c-.338.113.451 0 .338.113h-.225.225-.112v.113h.338-.113.113-.338c-.677.112.112 0-.226.112h-.113c-.338 0-.225.113-.45.113.112 0 .563-.113.789-.113 0 0-.113 0 .112.113-.225 0-.225 0-.112.113h-.339.339s-.226.113-.451.113c0 .112.338-.113.45 0-.112.112 0 .112.226.225h-.225.225-.113.339c.338 0-.451.113-.113.226h-.338c.225.112.225.112.563.112l-.225.113h.902l.113.113h-.339.113-.45.225-.564.113-.113.113-.339.113l-.113.113c.339.112.902.112 1.015.225h-.676c.338 0-.113-.113-.113-.113h-.226l.339.113c-.226 0-.226 0-.226.113.451 0 .338.113.451.113h-.338c-.338.112.564.112.225.112h-.112c.112 0 0 .113-.113.113 0 .113 0 .226.45.226h-.563l1.353.112c-.338 0-1.127.113-1.353 0 0 0-.113 0 0 .113h.564c-.338.113-.226 0-.564.113h.564-.564l.564.112h-.564c.113 0 0 .113 0 .113h.113c-.113.113.79.113.676.113h-.789c.226 0 1.353 0 1.578.113h-.112l.225.112c-.45 0-1.24-.112-1.578-.112-.113 0-.226 0-.113.112h-.225l-.113.113c.225-.225.225-.113.45-.113l-.337-.112c.338 0 .902 0 .902.112h-.677c.113 0 .226.113.113.113h-.226c-.112 0 .451.113.113.113 0 0-.45.113-.225.113.338 0 1.465-.113 1.803-.113 0 0-.338.113-.563.113h-.902.225-.225c.338 0 0 .112.225 0 .113 0-.112 0 0 .112.226 0 .677 0 .79.113h-.226c0 .113-.225.113-.225.226-.113 0-.226.112-.339 0h.226c-.226.112 0-.113-.338 0 .225 0 .225.112.338.112.338 0 0-.112-.113-.112.451 0 .79 0 1.015.112.113.113-.226 0-.226 0-.112.113.677.113.451.226h-.676c-.113-.113.113-.113.113-.113h-.113c-.113 0-.113 0-.113-.113-.225 0 0 .226-.225.339h.563c.113 0 .339.112.226.112h-.338c.112 0 .225 0 .112-.112.113 0-.338.112 0 .112h.226c.113 0 .45.113.338.113.338 0 0 0 .338-.113-.45 0 0-.112-.45-.112.338 0 .112-.113.45-.113h-.338c-.225 0-.225-.113-.338-.113h.225-.225c.225 0 .338-.113.45 0v-.113c.114 0 .114-.112.114-.112s-.226-.113-.113 0l.225.338c0-.113-.338-.226 0-.338l-.112-.113h.225c-.113 0 .225-.113 0-.113.45-.113.113-.225.225-.225h-.225l-.113-.113h-.225c-.226 0 .113-.113.113-.226.112 0 .112 0 0 0 .45-.112-.339-.225 0-.338-.113 0 0 0 0 0h.112-.112l-.113-.113h-.226c.339 0-.112-.112.226-.112-.226 0-.113-.113-.564-.113h.113s.113-.113 0-.113h.338-.338c.225 0 .225-.113.45 0-.337-.113-.112-.113-.45-.113h.225s-.225-.112-.112-.112c.338-.113 0-.338.338-.451-.564 0 .225-.113-.226-.113h.339c-.113-.113.225-.113-.113-.225h.225s-.112 0 0 0h.226c0-.113-.451-.113-.79-.113.226 0 .113-.113-.112-.113h.338s.226-.225-.113-.225c.113 0 0 0 0 0v-.113c-.338 0-.112 0-.112-.113.225-.113-.113 0 .225-.225h-.225c-.451 0 .338-.113.112-.226h-.112c-.226 0 .676-.113.676-.113h.113c.338-.112-.338 0-.338-.112h.45c.113 0-.563-.113-.225-.226h-.338s.45-.113.113-.225h.112c-.112 0-.225-.113-.338-.113.338.113-.79 0-.113-.113v-.112h.113c0-.113-.113-.113-.338-.113h.113c.112-.113.112-.113-.226-.226h.226c-.113 0 .338-.225.112-.225h.113c-.225-.113.676-.338-.225-.338l-.226-.113c-.113.113-.338 0-.564 0 0 0 .226-.113.339-.113.45 0 .112-.113.45-.113 0-.225.226-.45.226-.563h-.338v-.113h.225c.226 0-.225-.113-.225-.113.113-.113.45 0 .45 0-.112 0-.337 0-.225-.113h.226v-.112h-.226c-.112 0 0-.113-.338 0 .451-.113.113-.338.338-.338-.225 0-.225-.113-.225-.113h-.338c.676 0 .225-.113.789-.226-.338 0-.113-.112-.564-.112h.338c-.225-.113.113-.226.113-.339h-.338l.45-.112s-.45 0-.225-.113h-.225c.338-.113-.451-.338.338-.677h-.564l.339-.112c-.339 0 0-.113-.339-.113-.338 0-.789.113-1.24.113.451 0-.564.112 0 .225h-.225c.225 0 .225 0 .112.113 0 .113-.112.225-.225.338h.225s-.112 0-.112.113c.338 0 0-.113.45-.113-.45.113 0 .226-.563.338h.225-.112.225s-.225.113-.338.113c-.113 0 .113.113 0 .113h.113c.112.113 0 .338.225.45h.113c.225.114-.113.114 0 .226.113 0 .113 0 .113.113-.113 0-.226.113-.339 0 .226.113.226 0 .564.113h-.225c.112 0 .225 0 .338.112h-.451c-.338.113.45.113-.113.226.451 0 .226-.113.338-.113.113 0 .339 0 .339.113 0 0-.677.113-.564.225-.113 0 .225.113 0 .113.338 0 0 .113.338 0l-.113-.113c.113 0 .564.113.339.226h-.226c-.113 0 .113 0 0 .113-.338 0-.113-.113-.338-.113-.113 0 .225.113-.113.113.564 0-.113.112.338.112h-.225.113-.339c.226 0-.225.113-.112.113 0-.113.225 0 .45-.113.339.113-.563.113-.45.226 0 0 .112-.113.225 0 0 0-.113.113-.225.113 0 .112.225 0 .338 0-.226 0 .113 0 .225.112h-.225c-.113.113.45 0 .338.113h-.338.113-.226c.226 0 .113.113.113.113h.45-.225c-.112 0-.338 0-.112-.113h-.226c-.113 0 0 .113 0 .113l-.113-.113h-.225s.113 0 .113.113h-.451.225-.338c-.113.113.338.113.225.225h.113c0 .113-.225.113 0 .226h-.338c.113.113.45-.113.564 0 .112.113-.339 0-.339.113.113.112.451.225.226.225 0 0-.113 0 0 0zm.113.676s-.226 0 0 0c.225 0 .112 0 0 0zm.676 1.24c-.113 0-.113-.112 0 0 0-.112 0-.112 0 0zM51.86 29.5c0-.112 0 0 0 0zm-.112 0s-.113 0 0 0zm-.339-7.328c-.112 0-.112 0 0 0z"/><path d="M49.83 26.23h.114c-.113-.113-.113-.113-.113 0zm-.112 2.368h.113c0-.113-.113-.113-.113 0zm2.368 1.352h-.113c.113 0 .113-.112.113 0zm-.676 0c-.226 0-.113 0 0 0-.113.113-.113.113 0 0 0 0 .112.113 0 0zm-.677.113l.225-.113h-.225v.113zm.113-.338c0 .113 0 .113 0 0 .112.113.112 0 0 0zm-.226.225h.113v-.112l-.113.113zm-.45-.676c-.114 0-.226-.113-.226 0h.225zm-.79-1.466c-.113.113.338 0 .113.113h.225c-.113-.113 0-.225-.338-.113zm1.466 4.961l-.113.113s.113-.226.113-.113zm1.014 0v.113l.113-.113h-.113zm.79.226c0-.339-.339 0-.452-.113v-.113l-.112.226c.225 0 .45-.113.563 0zm.45.788c0-.113.113-.113-.112 0h.112c-.112 0-.112 0 0 0zm-.112.001c-.113 0 0 .112 0 0zm.451 0l-.113.112c0 .113.113.113.113.113.112 0 .112-.113 0-.225zm-.113-.114l.113-.112s0-.113-.113.113c.113-.113.113-.226 0 0zm0-.112c-.113-.113-.113-.113 0-.225-.338.112-.338.338 0 .225zm-.564-.902h-.113s.113.113.113 0zm1.466 1.24c0-.112-.113-.225-.113-.225 0 .113.113.113.113.225zm0-.338l.112-.113c-.112 0-.112.113-.112.113zm-.677-.451s0 .113-.112.113c0 .112-.113.112-.113.112l.113-.112c.112 0 .225-.113.112-.113zm1.353.677l-.113.225.113-.338v.113zm.338-.114c0 .114.113.226.113.34.113-.114.113-.226.226-.34-.113 0-.226.114-.339 0z"/><path d="M55.58 33.445s0 .113-.112.226c.113-.113.113-.113.113-.226zm-1.014 0s.113.113.113.226l-.113-.226zm-.676-.112c.112-.113.225-.226 0-.451 0 .113.112.225 0 .45zm.563-.113h-.113v.225l.113-.225zm.789.112c0-.112.113-.112.113-.225h-.225c0 .113 0 .225.112.225z"/><path d="M55.13 33.22c-.113-.113-.113 0 0 0-.113 0 0 0 0 0 0-.113 0 0 0 0zm.676 0h-.113s.113.113.113 0zm-.789.225v-.112.112s-.113-.112 0 0zm.563-1.803c.113.112.113.338-.112.225 0 .226.338.677.564.902 0-.113-.113-.113 0-.338-.113-.113-.339 0-.339-.226.113-.225.113 0 .226 0-.226-.112 0-.45-.226-.676v.225s0-.113-.112-.113zm.226 1.24l.226.225v-.225c.112-.113-.226.112-.226 0zm-.226.225c0-.225 0-.338-.112-.563-.113.112 0 .225-.113.338.226-.113 0 .112.226.225l-.113.113h.225l-.112-.113s0 .113 0 0c0 0 .112 0 0 0l.225-.113c-.113 0-.113 0-.225.113zm-1.465-.563s0 .112 0 0c-.113 0 0 0 0 0-.113 0-.226.112-.113.225s.226.338.226.338c.112-.225 0-.45-.113-.563zm.676.225l.226-.113-.113-.112v.112c-.113 0-.113.113-.113.113zm1.692-.113l.112.226v-.226h-.112zm.789-6.99c.112-.225.225-.45 0-.338l-.113.113c.113.113.113.113.113.226zm-4.622-.226v-.112c.112 0 .112.113 0 .113zm.225.903l-.113-.113s.113 0 .113.113zm.338-2.706l-.113-.225c0 .112.113.112.113.225zm4.961 6.313l.225-.225c-.113.113-.338.113-.225.226zm.226-.45v.225c.112 0 .112-.113 0-.226zm-.903 2.367c-.113.113-.113.113 0 0-.113.113-.113.113 0 0zm.113-.113c-.113 0-.113.113 0 0-.113.113-.113.113 0 0-.113 0-.113.113 0 0zm-2.819-5.186c.113-.225.226-.225.226-.113 0 0 0-.112.113-.225 0-.113.112-.226.112-.226s-.112.113-.225.339c-.226 0-.226.225-.226.225z"/><path d="M52.537 24.313l-.226-.112c0-.338.113-.338-.113-.451.339.563-.338.338 0 .789l-.112-.113c-.338-.225.112.451-.113.451-.113 0-.225-.113-.225-.113l-.113.226s-.113-.113 0-.113l-.226.113v.338c-.112 0 0-.113 0-.113v.226c-.112-.113-.112-.338 0-.338-.45-.564 0 .225-.45 0l.112-.113c-.225-.226-.225-.113-.45-.226.112.113.563.339.45.564-.113 0-.113 0-.113.113-.112-.113-.225-.113-.225 0l-.113-.226c-.113.113 0 .226 0 .451h-.113l1.353 1.579c.113 0 .226.112.338.225.113 0-.338-.225-.338-.338.113 0 .113-.113.113-.338.113 0 .113.112.225.225l-.112-.225s.112 0 .112.112c0-.112-.225-.225-.112-.338-.113-.113 0-.113.112 0 .113.113.226.113.226-.113a.349.349 0 01.113.226v-.564l.225.113c-.113-.226-.113-.451-.113-.79-.112-.112-.112-.225-.225-.225l.113-.112.112-.113v.113c.113.112.113.225.113.45l-.113-.112c0 .225 0 .45.113.564v-.113l.226.45v-.112s.112 0 .112.113c.113 0 .113.113.113.113.113-.339.113-.902.451-1.015-.113.225 0 .45 0 .676-.113-.338-.225.113-.338.113.113 0 .113.113.113.226 0 0 0-.113.112-.113 0-.113.113-.113.113-.113 0 .226 0 .226.113.226 0-.451.112-.339.225-.451 0 .112 0 .338-.113.225.113.226.226-.676.339-.338h-.113c.113-.113.225 0 .225.113.226.112.564.112.677-.226 0 0-.226.451-.226.564 0 0 .226-.338.451-.564.226-.225.451-.564.451-.564-.225.339-.45 1.128-.676 1.24 0 .113 0 .113.113.113l.225-.45c-.113.45 0 .225-.113.563 0-.113.339-.564.451-.451 0 .113-.338.45-.338.45s.113-.112.226-.112c.112-.113.225-.113.225-.113-.113 0-.338.339-.338.451.113-.112.113.113.113.113v-.113c.112.226.676-.338.789-.225-.113 0-.564.338-.564.45.113-.112.451-.225.677-.337.338-.113.676-.226.789-.113l-.113.113h.338c-.225 0-.563.112-.902.112-.338.113-.676.113-.789.226-.113.113-.113.113-.113.225-.112.113-.225.113-.225.113v.226c.225-.113.338 0 .564-.113l-.451-.113c.225-.225.901-.338.901-.113-.112.113-.563.226-.676.226.113 0 .226.113.226.113h-.226c-.113.112.451 0 .226.225 0 0-.339.226-.226.226.338-.113 1.466-.451 1.691-.451 0 0-.225.338-.45.45-.226.113-.677 0-.903.113h.226c-.113.113-.226 0-.226.113.339 0 0 .226.226 0 .113.113 0 .113 0 .226.225-.113.676.112.789.225h-.225c0 .226-.226.338-.226.564-.113 0-.225.112-.338 0l.113.112c-.339 0 0-.112-.339-.112.226 0 .226.225.339.338.338 0 .112-.226 0-.338.338.112.789.338.902.676 0 .226-.226 0-.226.113-.225.338.564.564.113.79-.338 0-.451-.226-.677-.34 0-.225.226-.112.339-.225l-.113.113c0-.113-.113-.225 0-.225-.226 0-.338.563-.677.563 0 .113.113.226.226.226v-.113c.225 0 .113.338.225.226 0 .225.113.45-.112.563l-.226-.225c.113.113.226 0 .226-.113 0 .113-.451-.113-.226.226l.226.112c0 .226.112.564-.113.564.225.225 0 0 .338.113-.338-.226.338-.339 0-.564.338.225.338 0 .677 0-.113-.113-.226-.113 0-.113v-.113h-.113c-.113-.225 0-.338 0-.563.113 0 .113.113.225.113l-.112-.226c.225.113.45 0 .45.226l.113-.226c.113 0 .338-.225.226-.338.112-.113-.113-.338 0-.226v-.338c.112-.338-.113-.676.225-.902 0-.113-.113-.225 0-.338h.226c-.113-.113.225-.451 0-.451.225-.113.225-.225.225-.45 0-.226-.113-.34-.113-.452h-.225c0-.113-.113-.338-.226-.45l-.225.112c-.226-.113 0-.451-.113-.677.113 0 .113 0 .113.113.113-.225 0-.338-.226-.45-.225-.113-.338-.113-.338-.339-.112 0-.112-.113-.112-.113v-.112.112s-.113-.112-.226-.112l.113-.226c0-.113-.113 0-.226.226h-.225c.225-.339-.226 0 0-.451-.113.112-.451-.113-.677.112 0 0 0-.112.113-.112 0-.113-.113-.226-.225-.113l.112-.226s-.112.113-.225.113c-.113.113-.226.113-.226.113 0-.226 0-.338.226-.451-.451.225-.226 0-.564.225l.113-.225c-.113 0-.338.225-.338 0 0-.226-.226-.226-.564-.338-.226 0-.564-.113-.79-.226.113.564-.225-.225-.225.226 0-.113-.112-.226 0-.338-.225.112-.45-.113-.563.225v-.226s-.113.113-.113 0v-.225c-.226.113-.226.45-.113.902-.113-.113-.225-.113-.225.113-.113.225-.226.112-.113.112-.113 0-.564 0-.451.339-.113-.113-.113 0-.113 0-.225.112-.225.112-.338.225h.113c.113.338-.113.113-.226.226-.45 0 0 .225-.45.225l.112.113c.113.225.113.225-.113.225-.112 0-.338 0-.338.113h.113c0 .113-.113 0-.226 0l-.225-.113 1.015.902c.112.113.338.451.45.451v.113c.339.113-.112-.338 0-.451.113.225.113.45.226.45.113.114.113-.676.338-.45-.113-.113-.225-.226-.113-.338.113-.113.564.225.451-.113l.113.113c0-.113.226-.338.113-.564.45.676.338-.676.789 0l.225-.338v.113c.226-.113.226-.339.113-.451.113 0 .113.112.113.112.338-.112.338-.112.338-.563l.226.112c-.113-.112.563 0 .563-.45l.113.112c0-.225.226-.338.451-.45.226-.114.338-.226 0-.564v-.226c-.225.226-.338-.226-.45-.226 0-.112.337-.112.337 0 .339.226.339-.225.564-.112.226-.564.564-1.128.564-1.804l-.338.113v-.226c-.113-.113.112-.113 0 0 .225-.113-.226-.225-.226-.225.113-.338.451.112.451 0v-.113c-.113-.113-.338-.113-.338-.226 0-.112.225-.112.225-.112v-.339l-.225.226c-.113-.113-.113-.226-.338 0 .225-.113.112-.45 0-.676-.113-.226-.339-.451-.226-.451-.225 0-.338-.113-.45-.339 0 .113-.226.339-.34.226.34-.338.114-.338.114-.564 0-.113-.113-.113-.113-.338 0 .225-.113.113-.226.113-.112 0-.225 0-.225.225-.113-.113.113-.225 0-.45-.226 0-.451 0-.677-.113-.45-.226-.676-.226-.901-.226 0 .113.112.226 0 .338 0 0-.113-.113-.113-.225-.113 0-.226-.113-.226-.113-.112.113.113.451-.225.226 0 .112.113.112.113.225-.451 0-.902.338-1.128.676-.338.339-.563.79-1.014 1.128.225-.113.225 0 .225.113 0-.113.226 0 .338 0l-.225.225c-.113.113-.113.226-.113.226.113 0 .226.112.226.225s.112.225.225.225l-.338-.112c.225.112.338 0 .564-.113.225-.113.45-.113.676-.113-.225 0-.113-.113.113-.113.112 0 .225-.112 0-.225.112 0 .112.113.225.113-.225-.113-.225-.113-.113-.226 0-.225.226-.113.564-.225l-.113-.113c.113 0 .113 0 .113.113-.113-.338-.113.113-.338-.226.225.113.225.113.338 0 .113 0 .226-.112.338.113.113 0-.112-.225 0-.225l.113.112v-.225c.113 0 .113.225.226.338.112.113.112-.113.225 0l-.113-.113c.226-.112.338 0 .564-.225v-.113s-.113.226 0 .226c.113-.113.113-.113.225 0-.112.112-.112.225-.225.338.225 0 .225-.113.564-.226l-.113.113c.113 0 .225-.113.338 0-.225 0-.225.226-.45.226-.114.225 0 .225.112.225.113 0 .225.113-.113.226.451-.113.226-.226.338-.226.113-.113.339-.113.339 0s-.564.338-.564.451c-.113.113.225.113 0 .225.338 0 0 .113.338.113l-.113-.225c.113.112.564.112.339.338-.113 0-.226-.113-.226-.113-.113 0 .113.113 0 .113-.338 0-.113-.226-.338-.338-.226.225.225.225-.113.225.564 0 0 .113.338.338h-.225l.113.113-.339-.113c.226.113-.225.113-.112.226 0-.226.225 0 .45-.113.226.338-.563 0-.563.338 0 0 .113-.112.225 0 0 0-.112.113-.225.113 0 .226.225 0 .338.113-.225 0 .113.113.113.225l-.226-.112c-.225.112.451.225.226.338l-.226-.226v.113h-.225c.113.226.113.226 0 .226.113.112.338.225.338.338-.113 0-.113-.113-.225 0-.113-.113-.226-.226 0-.113-.113 0-.113-.113-.113-.113-.113 0-.113.113-.113.113h.113s0 .113.113.226c0 .112.112.225.112.225-.112 0-.112-.113-.112-.113s.112.113 0 .226c-.113-.113-.339-.226-.339-.338v.225c-.112 0-.225-.113-.225-.113-.113 0 .113.451-.113.451v.113c-.112.113-.338 0-.338.225l-.225-.225c-.113.113.338.225.225.45-.113.226-.225-.225-.338-.225-.226-.112-.113.339-.338 0 0 .113-.113.113 0 0zm-1.466 1.015c0-.113 0-.225.113-.113 0 .339 0 .226-.113.113zm2.03.451c0 .113 0 0-.113 0h.112zm4.622 5.299c.225 0 .112 0 0 0zm-.113.225s0-.113 0 0c0-.113 0-.113 0 0zm-1.24-10.71c-.113 0 0 0 0 0zm.676 11.837l.113-.112c-.113 0-.113 0-.113.113zm-1.691-.45s-.113 0 0 0v.112-.112z"/><path d="M56.483 31.98c-.113-.113-.113 0-.226 0 .113.225.226.113.226 0zm1.014-.451c-.113 0 .226.225.113.113.225.225 0-.338-.113-.113zm-1.465 0l.112.225-.112-.225zm.563-.339h-.112v.113s.112 0 .112-.113zm-.112.113c0 .113-.113.113 0 0 0 .113 0 .113 0 0zm-.451.113h.112l.113-.113-.225.113zm1.24-1.466v-.112h-.113c0 .113 0 .113.113.113zm-.677-.112c-.112 0-.225-.226-.225-.113.113 0 .113.113.225.113zm.451-1.918v.114l.451-.113h-.45zm-1.691-.676c0 .113.226-.225.226 0 .112 0 0-.112.112-.225-.112 0-.112-.113-.338.226zm-5.073-6.087l-.113.113.113-.113zm.451.225l-.338.113h.225s0-.113.113-.113zm-.226 3.608l.113.113-.113-.113zm1.241-.45l.225.225-.225-.226zm.676-.79s.225.225 0 0zm47.463 42.052s-.112-.113-.225-.113l.225.113zm0 .676l.113.226-.113-.226zm-.338.451c.338.225.113-.225.225-.225h.113l-.225-.226c0 .226 0 .451-.113.451zm-.676-.225c.112.112 0 .112 0 0zm0 0c0-.113-.113-.113 0 0zm-.113.226v-.114c-.113 0-.113 0-.113-.112-.113.112 0 .112.113.225zm.113.224c0-.112-.113-.112 0 0zm0-.224v.112c0 .113.112.113 0-.113 0 .113 0 .226 0 0zm0-.001c.112 0 .112 0 .225.113.113-.113-.113-.226-.225-.113zm.902.338h.112-.112c0-.113.112-.113 0 0zm-1.466-.226c0 .113.113.113.225.226v-.113c-.112 0-.225 0-.225-.112zm.789.339l-.113-.226.113.339v-.113zm-1.015-.113l-.112-.225.112.338v-.113zm-.225.113a.243.243 0 00-.226-.226v.339c.113-.113.113-.113.226-.113zm.564.113s-.113-.113-.226-.113l.226.113c-.113 0-.113 0 0 0zm.338 0c0 .112 0 .338.225.338 0-.113-.112-.226-.225-.338zm-.226.225c.113-.113 0-.113 0-.225v.225zm-.564 0v.113h.113c0-.113-.112-.226-.112-.113zm.113.112c.113 0 .113 0 0 0 0-.112 0 0 0 0zm-.338-.112s0 .113 0 0c0 0-.113 0 0 0zm.338-.112v.112c.113 0 .113 0 0-.112.113 0 .113 0 0 0zm-.113 1.69c-.112-.225 0-.338.113-.225 0-.226-.338-.677-.563-1.015 0 .113.112.113 0 .338.112.113.338.113.338.339-.113.112-.113 0-.226-.113.113.225 0 .338.113.676l.113-.113s0 .113.113.113zm-.225-1.24l-.225-.225v.225s.225-.112.225 0zm.113-.113c.113.226 0 .339.225.451.113-.112 0-.225 0-.338-.112.113 0-.113-.225-.113 0-.112 0-.112 0 0 0-.112 0-.112 0 0 0-.112 0-.112 0 0 0-.112 0-.112 0 0 0-.112 0-.112 0 0 0-.112-.113 0 0 0l-.113.113c0-.113.113-.113.113-.113z"/><path d="M99.098 68.17v-.114c.113 0 .113.113 0 .113.113 0 .113-.225 0-.225s-.338-.113-.338-.226c.113.226.225.338.338.451zm-.564-.001l-.112.225.112.113-.112-.113c.225-.112.112-.225.112-.225zm-1.24-.112l-.112-.113v.113h.112zm-4.284-.114c0-.225.113-.45 0-.225v.225c0-.112-.113-.112 0 0zm-4.059-1.353l.113-.112c-.112 0-.112 0-.112.113zm-.112-6.313l-.113-.225c-.113.225 0 .225.113.225zm6.651 8.343c0-.113-.112-.113-.112-.113 0 .113.112.226.112.113zm-.338-.225c.113.113.113.113 0 0h.113s0-.113-.113 0zm-4.622.563c.225-.112.225-.112.225 0l.339-.45s-.113.112-.339.225l-.225.225z"/><path d="M88.388 61.63l-.226.113c-.225-.226-.112-.338-.338-.338.564.225-.113.563.564.789l-.113.112v-.112c-.338.112.451.225.338.45-.112.114-.112.114-.225 0l.113.226h-.113v.338c.113 0 .225.113.338.226-.113.113-.113 0-.113 0l.113.113c-.225 0-.338-.113-.338-.226-.677.113.113.113-.226.451l-.112-.113c-.339.113-.226.226-.451.451.112 0 .563-.338.789-.225 0 0-.113.113.113.225-.226 0-.226.113-.113.226h-.338c.112.113.225.113.338.113 0 .112-.226.225-.451.225 0 .225.338-.225.45 0-.112.225 0 .338.226.451-.112.113-.225 0-.225.113h.225-.112c.112.112.338-.113.45 0 .339-.113-.338.45 0 .45-.112.113-.225 0-.338.113.338.113.226.113.677.226l-.113.225c.113-.225.451-.225.676-.112l.226-.226.225.113s-.112.113-.225.113h.113c-.113.112-.226.112-.451.225l.112-.113a.861.861 0 00-.563.226h.112-.112.112l-.225.225h.113v.339c.45 0 .902-.113 1.24 0-.226.112-.338.225-.564.338.226-.226-.225-.113-.338-.338 0 .112-.113.112-.113.112h.451c-.225.113-.113.113-.113.226.339-.338.339 0 .564 0-.113.113-.225.225-.338 0-.226.338.564-.226.45.113h-.112c.113 0 .226.225.113.225.113.225.564.564.79.225 0 0-.34.339-.452.339 0 0 .338-.226.564-.338.338-.226.564-.451.564-.451-.226.225-.677 1.014-.902 1.014 0 .113 0 .113.225.113 0-.113.225-.451.338-.451-.112.338 0 .225-.112.564 0-.113.338-.451.45-.451-.112.112-.338.45-.338.45s.113-.112.226-.112c.113-.113.225-.113.225-.113-.112 0-.225.338-.338.564 0-.113.113.113.226.113v-.113c.225.225.563-.564.789-.338-.113.112-.338.563-.338.676.225-.225.789-1.015 1.014-1.24v.113l.226-.113c-.226.338-.79 1.015-1.128 1.24 0 .113-.113.226.113.226 0 .112-.225.112-.225.112l.112.113.113.113c.113-.338.338-.226.45-.451 0 0-.112 0-.225.113-.112 0-.225.112-.225.112.113-.338.564-.789.79-.563 0 .112-.226.563-.226.676.112-.113.338-.113.338 0l-.113.113c.113.112.338-.338.451 0 0 0 0 .45.113.225 0-.338.338-1.465.45-1.69 0 0 .114.337.114.563 0 .338-.226.676-.226.902 0-.113.113-.226.113-.226 0 .113-.113.226 0 .226.112-.338.225.112.112-.226.113-.112.113.113.226.113 0-.225.226-.676.338-.79v.226c.226 0 .338.226.564.226 0 .113.113.225.113.338 0-.113.112-.113.112-.225.113.338-.112 0 0 .338 0-.226.226-.226.226-.338 0-.339-.226 0-.338.112 0-.45.112-.789.338-1.014.113-.113.113.225.113.225.338 0 .112-.676.45-.45.113.225.113.45.113.676-.112.112-.225-.113-.338-.113l.113.113c0 .112-.113.112-.226.112.113.113.226.113.339.113.112 0 .338-.113.45 0 0-.113.113-.225 0-.338h-.112c-.113-.226.112-.338 0-.338.112-.226.112-.451.225-.339l.113.226c0-.113-.113-.113-.113 0 0-.113.338.338.226-.113l-.451.226c0-.226 0-.451.225-.451-.112-.226 0 0-.225-.226.225.338-.226.113 0 .451-.226-.338-.226-.113-.338-.45 0 .112.112.112 0 .112v.113l.112.112c0 .226-.112.226-.112.339-.113 0 0-.113-.113-.226v.226c-.113-.226-.226-.339-.113-.451h-.113c-.112-.113-.225-.113-.225 0-.113 0-.113.225-.113.112l-.225.113c-.113 0-.339.338-.564 0-.113 0-.113.113-.225 0v-.225c-.113 0-.226-.226-.226 0 0-.564-.338-.113-.451-.338l-.113.225c-.112 0-.225 0-.338.113v.225c-.113.113-.225-.225-.338-.225 0-.113.113 0 .113 0 0-.226-.113-.226-.226-.113-.113 0-.225.113-.225-.113h-.113v-.112.112h-.113l.113-.225c0-.113-.113.112-.113.225 0 0-.113 0-.113.113.113-.338-.225 0 0-.338-.112.112-.338 0-.563.338v-.113c0-.112 0-.112-.113-.112l.113-.226-.338.225c0-.225.112-.338.338-.45-.338.112-.226 0-.564.112l.113-.112s-.338.112-.226 0c.113-.339-.45-.451-.338-1.015-.45.338.113-.226-.225 0l.225-.226c-.225-.112 0-.338-.338-.225.113-.113.225-.113.225-.113h-.112.112c-.112-.113-.45 0-.789.226.113-.113.113-.226-.225-.113.112-.113.225-.226.338-.113 0-.113 0-.45-.226-.338.113 0 0-.113 0-.113 0-.112 0-.112-.112-.225-.339 0-.113-.113-.226-.226.226-.338-.113-.112.113-.338h-.226c-.45.113.226-.225 0-.338l-.112.113c-.226-.113.676-.339.676-.339h.113c.338-.225-.338 0-.338-.112.112 0 .45 0 .45-.113.113 0-.563-.226-.225-.338h-.338c0-.113.45-.226.113-.339h.112c-.112-.112-.112-.225-.338-.338.451 0 .338-.112.226-.225-.113-.113-.113-.226.225-.113v-.225h.113c.113-.113 0-.226-.226-.339h.113c.226-.112.226-.112 0-.563l.226.112c-.113-.112.45-.112.338-.338l.113.113c0-.226.225-.226.338-.226.112 0 .225-.112 0-.45v-.226c-.226.113-.226-.338-.338-.338 0-.113.338 0 .338.112.112.226.225.226.225.113.113 0 .113-.113.226.113a.861.861 0 01.564-.226h.45l-.225-.45h.113c0 .112.112.225 0 .225.112.225.112-.225.112-.225.226.112 0 .45 0 .45h.113c0-.112 0-.338.113-.338.113.113 0 .226.113.226h.112l-.112-.338c.112-.113.112 0 .112-.339 0 .226.226.339.339.339.112 0 .338 0 .338.112.112-.112.225-.112.338-.112 0-.113.113-.339.225-.339-.225.564.113.339 0 .79 0-.113.113-.113.226-.113s.113 0 .226-.226c.112.113-.113.226-.113.338.338-.112.338.339.563.451.113-.112.113-.225.226-.225 0 0 0 .113-.113.225 0 .113-.113.226-.113.226.113 0 .339-.338.226 0 0-.113.113-.113.113-.113 0 .338.225.451.338.677.113.225.225.45-.113.789.113-.113.226 0 .226 0h.338l-.338.225c.338 0 0 .226.338.226v-.113c.338.113.789-.113 1.24-.113-.226-.112 0-.225.113-.338.112-.113.225-.338-.113-.338.113-.113.113 0 .225 0-.225 0-.225-.113-.225-.226-.113-.225-.113-.338-.113-.563 0-.113 0-.339-.113-.564l-.225.113v-.226c-.338.113.113.226-.225.338.112-.225.112-.338 0-.45-.113-.113-.226-.226 0-.451-.113-.113-.113.225-.226.112l.113-.112h-.226c0-.113 0-.226.113-.339h.113c0-.225-.338-.225-.338-.338v.226c-.339-.226-.677-.677-1.24-.564v.113c-.339 0-.113-.226-.451-.226-.113.113-.226.113-.226 0 .113-.113-.113-.225.113-.338-.339.113-.226.113-.564.45v-.225c-.113.113-.113.226-.338.226.112-.113 0-.338.112-.451-.112-.226-.338-.113-.45-.113-.113.113-.226.113-.226-.225-.225.45.226.338.226.338 0 .113-.113.338-.226.338s-.113-.676-.45-.564h.112c-.113-.112-.226.226-.338 0 0 .339-.226 0-.113.339l.225-.113c-.112.113-.225.564-.45.45 0-.112 0-.225.112-.225-.113-.112-.112.113-.225 0-.113-.338.338-.112.45-.45-.112-.113-.225.338-.225-.113 0 .563-.338 0-.45.45v-.225s0 .226-.113.226v-.339c-.113.339-.339-.112-.564.113.338-.113.225.226.338.338-.225.451-.45-.45-.79-.112 0-.113.226 0 .226.112-.112 0-.225 0-.338-.112-.225.225.113.225.113.338-.226-.226-.113.225-.113.338l-.113-.225c-.338.112.226.45-.112.45l-.113-.338-.113.113-.113-.225c0 .225-.112.225-.225.338.113.113.225.338.225.45-.112 0-.112-.225-.225 0-.113-.112-.113-.337 0-.225 0-.112-.113-.112-.113-.225-.225 0-.225.225-.225.225h.112v.451c-.112 0-.112-.112-.112-.112v.225c-.113-.113-.338-.225-.226-.451v.338c-.112 0-.225 0-.338-.112-.226.112.113.563-.113.676v.113c-.112.112-.45.225-.338.563h-.451c0 .226.451 0 .451.339 0 .225-.338 0-.45 0 .112.112.337.45.112.563-.113-.225 0-.225 0-.338zm-.226 2.142s-.225-.113 0-.113c.226 0 .113.113 0 .113zm1.353 2.931c-.112 0-.112 0 0-.112v.112zm6.652 1.804c0-.113 0 0 0 0zm.225.113c0-.113 0-.113 0 0 0-.113-.112-.113 0 0-.112 0-.112 0 0 0zm-3.27-8.794c.114-.112 0 0 0 0z"/><path d="M96.956 68.056v.113c0-.113-.113-.113 0-.113zm1.24.902s.113 0 0 0v-.112.112zm-.902-.225c.113.225.113.112.113 0-.113-.226-.113-.113-.113 0zm-.789-.338v-.226c0-.112-.113.451 0 .226zm1.015.901l-.113-.225v.225h.113zm-.564 0h.113v-.112c-.113.112-.113 0-.113.112zm-1.24.226l-.113.113c0 .112 0 .112.113.112v-.225zm.451.564s0-.113-.113-.226v.339l.113-.113zm-.338.112c0 .113-.226.226 0 .226 0-.113.112-.226 0-.226zm-2.029-.563h.112l.113-.451-.226.45zm-2.143.338c.113.225.226-.225.226 0 .113-.113 0-.225 0-.225-.113 0-.113 0-.226.225zm4.735-7.441h-.338.338c-.112 0-.112.113 0 0zm-8.906 1.578c.113 0 .113 0 .225-.112l-.225.112zm.451-3.044v.226c0-.226.338-.113 0-.226z"/></g><defs><clipPath id="clip0"><path fill="#fff" transform="translate(0 18)" d="M0 0h100v64.036H0z"/></clipPath></defs></svg>