<svg width="100" height="100" fill="none" xmlns="http://www.w3.org/2000/svg"><g clip-path="url(#clip0)" fill="#FBCB09"><path d="M12.8 99.406c-.586.594 0 .594 0 .891.587-1.187-.293-.89 0-.89zm5.868-10.386v.298l.88-1.484-.88 1.187zm7.04-8.605c-1.467.297-2.347 3.265-3.814 4.452h-.293v1.186c1.173-1.78 2.64-4.45 4.107-5.638zm5.28-2.967c-.586 0 .587-1.187-.88.89h.294c0-.297.293-.593.586-.89z"/><path d="M30.108 78.338c-.586.89.88-.593 0 0zm3.521-4.154l-.88 1.483c.293 0 1.173-1.186 1.173-.593.88-1.484.587-1.484-.293-.89zm.586-1.484l-.293.594s0-.297.293-.594zm-1.467 2.077l.88-1.484c-.293 0-.586 0-.586.594 0-.297 0 .297-.294.89zm-.586.594c-.587.594-1.467 1.187-.88 0-1.76 2.077-1.174 2.077.88 0zm-6.747 4.154l-.88.594-.294.89c0-.297 1.467-1.484 1.174-1.484zm14.961-11.869c0-.296-.587 0-.88 0l-.587.89c.293-.593 1.173-1.186 1.467-.89zm-.881-.297l.88-1.484c-1.173 1.187-1.173 1.484-.88 1.484zm-5.866 4.451l-1.467 2.374s.293-.594.88-1.484c.293-.594.88-1.484.88-1.484l-.293.594zm11.441-8.902l-.294.89c-.294.297 0-.297.293-.89.294-.297.294-.593.294-.593l-.294.593zm2.933-2.968c-.294.891 1.173-.296.586.594.88-.89 1.174-1.78 1.76-2.67-.586.89-1.173 1.483-2.346 2.077zm3.227-3.263c-.294.297-.587.89-.88 1.187.586-.297.88-.594.88-1.187zm-8.8 7.418c.292 0 .586 0 1.172-.593h-.88c0 .296 0 .296-.293.593z"/><path d="M43.016 63.502c.586-.594.88-.89 1.173-.89-.293 0-.587.296-1.173.89zm-6.161 5.341c.587-.89 1.76-2.67 0-1.484-.293.594.88 0 0 1.484zm4.401-4.451l-1.467 1.187s.587 0 .293.593l1.174-1.78zm.586-.89l-.586.89.586-.594v-.297zm7.041-5.045c.293-.593.88-1.187 1.76-2.077-.88.593-1.76 1.187-2.347 2.077-.293 0-.293.593.587 0zm-.88 0l-1.174 1.187 1.174-1.187c0-.297 0-.297 0 0zM52.99 54.6c-.294.296-.88.296-1.174.593.587 0 1.174-.297 1.174-.594zm-6.747 5.934c0 .296 0 .296 0 0 .293 0 .293 0 0 0z"/><path d="M46.243 60.534c.293-.297.293-.593.586-.89-.293.297-.586.89-.586.89s0 .297 0 0zM57.39 45.697c.293.594-1.174 2.078-2.64 2.968-1.174 1.483.88 1.78 2.64 1.78 0-.297-.294-.297.88-1.78-.587.296-3.52 2.077-2.64.89 1.76-1.78 1.466-1.187 2.64-1.78-1.174 0 1.76-2.671.88-2.968l-1.467 1.484c0-.297.294-.89-.293-.594z"/><path d="M54.75 52.523l-.587.593c.587-.594 1.174-.593 2.347-1.187.88-.89.88-1.187.88-1.484l-2.64 2.078zm-2.934 2.67c0-.89 1.174-2.077 0-1.78-1.467 1.483-.88 1.483-1.467 2.373 2.347-2.67-.586.594 1.467-.593-.587.593-.88.89-1.467 1.187.587-.297.88-.594 1.467-.89-.293 0-.293 0 0 0v-.297c.294 0 .88-.594 0 0v.297l2.347-2.671-2.347 2.374zM37.442 65.282c0-.297 0 0 0 0 .293-.297.293-.297 0 0zm1.173-.89c0 .296 0 .593-.88 1.187-.586.296-.293-.297-.293-.297-.293.593-.88 1.483.293.593v-.296c1.174-.89 2.934-1.78 2.64-1.484-.293 0-.88 0-1.76.297zm6.455-5.044l2.053-2.078-1.467.594.293.297c-1.173.89-.88.89-.88 1.187zm12.907-9.2v.89l.88-1.78-.88.89zm2.64-2.374l.293.594.587-.89-.88.296zM40.962 26.706c-1.173-.297-2.64-.89-2.64-.297l.587.594c.88-.297 1.467-.297 2.053-.297zM23.655 56.083l-.294-.297h-.88c.293.297.587.297 1.174.297zm1.76-1.483l1.466.89c-.586-.297-.88-.594-1.466-.89zm50.456 17.804l-.88-.594c.88 1.484.587.594.88.594zM91.712 25.52c.88-.298 1.467-.594 2.053-.891l-2.053-6.232h-.293.293l2.053 5.935c-.88.594-2.053.89-2.053 1.187zm-3.227-6.53h.587c.88-.296 1.467-.296 2.347-.592-.88 0-2.054 0-2.934.593zM18.961 83.976c0-.296 0-.89.294-1.483-.294.296-.294.593-.294 1.483zm53.683-45.103c-.587.296 0 0 0 0zm-4.4.593c0-.297.293-.297 0-.297.293 0 .293 0 0 .297zm3.52-.296c.294 0 .587-.298.88-.594-.293.296-.587.296-.88.593zm.293.296c-.293 0-.293.297-.586.297-.294 0 0 0 .586-.297zm1.467-1.484c-.293.297-.587.594-1.173.594h.293c.293 0 .587 0 .88-.594zM45.95 23.739c-.588-.594-.294-.297 0 0zm-27.282 12.76c1.173-.89 1.76-.89 2.64-.89l-1.174-1.484s-.293.593-.88 1.187c0 .593-.587 1.187-.587 1.187z"/><path d="M80.271 78.338s-.586-.296-.88-.593c-.293-.297-.88-.594-.88-.594l-1.173-1.187c-.294-.296-.587-.593-1.467-1.187 0 0-.293 0-.293-.296 2.346 2.077 2.053 1.78 1.76 1.78-.294 0-.587 0 .293 1.187l-.88-.89h.293c-.88-.89-.586-.297-.586 0 0 .593 0 .89-.88.297-.587-.297-.88-.89-.587-.89h-.587c-.586 0-1.173-.297-1.173-.297-.587-.297-.293-.594.293-.297l-3.52-1.484c-.587 0-2.053 0-2.64-.296-.88-.594.587 0 .293-.297l-2.053-.594c-.587-.89 1.173-.296 2.64.297-1.174-2.374-1.76-.297-5.574-2.967l2.054.593c-.88-1.484-2.347-1.78-4.4-3.264.293.594 3.52 3.264 1.173 2.67-.587-.296-1.467-.89-2.64-.89.293-.593-.88-.89-2.347-1.483l.293-.594c-1.76-.593-1.76 0-2.64 0-1.76-.89-1.76-1.483-2.053-2.374-2.64-1.483 1.466 1.78-1.76.297-2.054-1.187-3.814-1.78-6.748-2.374-1.466-.89.587-.296 0-.89h-1.76c-.293-.297-.293-.297 0-.297-1.173-.296-.293.594-2.346 0-.88.594-3.227-2.967-6.16-2.967-.587-.593.586-.297.293-.593-3.52-.89-2.934-.89-5.867-1.187l-2.054-1.484c1.467 1.187-.88.89-2.933.593l1.173 1.187-2.347-.593c-.293-.297 0-.297.587-.594H21.6c-.88-.593-.293-.89.587-.89l.88.89c.88 0 1.76-.296 1.76-.89-.293 0-.587 0-1.173-.297.293 0 .293 0 .293-.296h-.88v-.89l-.294.296-3.52-2.374c-1.466-.296-2.933-.296-4.693-.593-1.76-.297-3.52-.594-5.28-2.077 1.173.296.88-.594 1.466-1.187.293.593.88 1.187 1.76 1.483.88.297 2.054.594 2.934 1.187-1.174-.593-.587-.89-.294-.89 0 0-.88-.297-2.053-.593-.88-.297-1.76-.89-1.76-.89.587-.594-.293-.89-.88-1.78-.293.593-.88.296-1.467-.298-.587-.593-1.173-1.78-1.467-2.374.294 0 .294 0 .587.297s.293.594.587 1.187c0-.89-.294-1.187-.88-1.78-.294-.297-.587-.594-.587-.89 0-.297 0-.89.293-1.187 0 .296-.293.593 0 .89v-.89c0-.297.294-.594.587-.89.293-.297.293-.594.587-.594h.293l-.293.297c.586 0 1.173-.594 2.053-1.187.88-.594 1.76-1.187 2.64-1.484 1.76-.89 3.52-1.78 3.814-2.374 0 0 0 1.484-.294 1.484 0 0 1.174-1.187 2.64-2.374l2.934-2.374c-.293.89 2.054 2.967-.88 3.858.88 0 1.76 0 3.52-.594-.586 0-1.466-1.187-.88-1.187 2.347.594 1.467.297 4.4.89-.88 0-.293-1.78 1.174-1.78-.293.297.293 1.484 0 1.484l3.227-1.78c-.88.296 0 1.186.88 1.483-.293-.297 2.933-.297 3.813-.594H36.27c3.813-.296 3.52-2.67 7.04-2.967-.293.297-.88 2.077 1.174 1.78.88-.89 3.226-4.154 6.453-5.044l.587.297 2.347-1.187c-1.467 1.187-5.574 4.154-7.92 5.638 1.466 0 .586.296 2.64 0 .88.296-1.174.89-1.76.89l4.986-.593c-.293-.89 3.52-1.484 3.227-2.078l-5.28 1.78c-.294-.89 2.64-2.967 6.16-3.263.88.296-.293 1.483-.293 1.78.293-.297 3.227-1.187 3.52-.89l-1.467.593c2.054 0 2.934-1.483 5.574-1.187.88 0 2.64.594 2.64.297-1.467-.593-2.053-3.56-1.467-4.45.294 0 4.4.296 5.28.593 1.467.593-1.76 2.077-.586 2.67 0-.297.587-.593.88-.89.88 0-.293.89 1.467.297.293-.89 3.813-.594.88-.89 1.76-.594 2.053 0 4.107-.594-.88-.297 1.466-2.077 3.52-2.67 0 .296.293.593.587.593 3.813-.594 5.867-.297 9.094-.89.293.296 2.053 0 1.466.593.294 0 .587-.297.88-.297l-.293-2.373-.88.89c-2.054.593 2.053-1.484.293-1.187 0 .593-2.053 2.077-3.227 2.967.88.297 2.934-1.483 4.107-2.67l.587 1.78H92.3c0-.297 0-.297.293-.593l-.587-.594c0 1.187-1.76 2.967-4.107 5.045-2.346 1.78-1.466 0-1.76.593-4.693 2.67-2.933 4.154-7.04 5.935-1.76.593-.88-1.187-1.467-1.187 1.76-1.484 3.227-1.78 4.694-2.67l-1.76.593c.586-.594 1.76-1.484 2.64-1.78-1.467.296-7.627 5.044-11.44 7.12-.588.594-1.468 1.484-.88 1.484l1.172-.89c1.174-.296-1.466 2.078 0 1.187-.586.594-1.173 1.484-2.053 2.077-.587.89-1.467 1.484-2.64 2.078l-.88-.297c.293 0 1.467-.594 2.053-1.187-.587.89-3.813 1.484-4.107 2.967l1.76-.593c-1.173 1.483-2.346 3.264-4.4 4.747 1.174 0 .294-.296 2.054-.593-.88 0 .293-.89 1.173-1.78 1.173-.89 2.053-1.484.88-1.187 1.76-.297 2.347-1.484 4.694-1.78-.294-.297-.88 0 .586-.89 0 0 0-.298.294-.298-.294.297-.88.297-.88.297.293-.89 2.933-2.67 3.52-3.56.88-.594-.293.593.293.296l.88-1.187c.294.297 2.934-.89.88.89l2.054-1.187c1.173-.593 2.933-1.483 3.813-2.374.88-.593 2.054-2.077 1.467-1.187l2.934-2.373c2.346-1.484 4.693-3.561 7.333-4.748l-1.76-5.935h-2.933c-1.174.297-2.347.594-4.4.89l-.587-.296c-1.467.296-4.694.296-5.28.89-1.76-.89-7.628.89-10.268 1.187v.593c-1.76.297-3.52.594-5.867 1.484v.297c-2.053.89-5.28.296-8.507.89.293-.297.88-.297 1.467-.297-3.52-.593-7.627 2.374-11.148 2.077-.88.297-1.466.297-2.053.297h.293-1.466 1.173c-.587 0-1.76.297-2.64.593l-.587-.593h-.293c-.88 0-.587.297 0 .89-.587.297-.88.297-1.174.594-.88-.89-2.64.593-3.813 0-.587.593-4.987 1.187-5.28 2.373 0 0-.294-.296.293-.296-1.173 0-2.347 0-3.227.593l-.587-.593-2.346 1.483c-1.467-.296-2.054-.296-.88-1.186-3.227 1.483-2.934.593-5.574 2.373v-.593c-1.174.297-2.64 1.484-3.52 1.484-.587 0-1.76.296-3.227.89-1.174.593-2.934 1.78-4.107 3.56-.587.594-1.174 1.781-1.467 2.968a7.314 7.314 0 000 3.56c.587 2.375 2.054 4.155 3.227 5.639 0-.89.587-.297 1.173.593.587.89 1.467 1.78 2.054 1.187.293.594.88 1.187-.293.89 1.466.89 2.64 1.484 3.52 2.078.88.593 1.76.89 2.933.89.293.593-.88.297-.587.593.294 0 1.174 0 1.174.594.293.297-.587 0-1.174 0 2.934 1.187 3.814.297 4.4-.297 1.174 1.187 2.054 1.484 3.52 1.187.294.593 1.174 1.187-.88.593.88.594 6.161 3.265 6.455 2.671.293.297 1.466.594 1.76.594 2.347 1.187 2.347 1.187 4.693 2.077l-.586-.297c1.173-.593 2.053.593 3.813 1.484 3.814 2.374 2.054.593 5.867 2.967v-.594c.88-.89 3.227 2.374 5.867 2.968l-.587-.594c1.467.297 2.934 3.265 4.107 3.858.294.297-.586 0-.88 0 3.227 2.374.88-.593 3.52.593.294.594-1.173.594.587 1.484.587.594 5.574.89 7.627 2.67-.293-.593-.88-1.186.587-.89 1.76.594 4.4 3.265 6.454 3.265l.293.296h.293c.294 0 .294 0 .587.297.294 0 .587.297 1.174.297.586.297 1.466.593 2.346.89 1.467.594 2.64.89 3.227.594 1.467 1.78 4.694 2.967 7.04 3.857 2.347.89 4.108 1.187 6.454 3.264l2.054.89-2.64-3.857.586.593c-2.346-3.56-4.106-5.638-5.867-7.121-.293-.594.294 0 .587.296-1.467-2.374-2.347-4.154-3.227-5.34-.88-1.485-2.347-2.671-3.813-4.452l.293-.593c-.88-.594-2.64-5.935-5.574-9.2 0 0 .294 0 .587.297-3.227-3.56-4.987-10.682-7.92-10.979l-2.347-2.374c2.053 3.561-1.174 0-.587 1.78-.88-1.186-1.76-3.857-.587-2.373v.297c1.467 0-2.64-4.451-1.76-4.748-4.693-6.825-8.507-13.947-12.614-20.178l-.293 1.187-1.467-2.374c-.293-.593 0-1.187 1.173.297 0-1.187-2.053-2.374-2.346-2.374-1.76-3.264 1.76.593 1.173-.297l-.88-1.187v.297c-1.467-1.484-1.76-1.484-2.934-3.264-.586-1.187 0-.89-.293-1.484 0 0 0-.297-.587-.89l-2.64-4.451s.294.593.294 1.187c.293.89.293 1.483.293 1.483-1.467-1.483-2.347-3.56-1.467-.89C40.376 8.902 37.15 4.154 34.802 0c-.88 3.56-1.467 6.825-1.76 7.418 0 1.78-.294 3.264-.294 4.748 0 .89-.293 1.484-.293 2.374 0 .594-.293 1.484-.587 2.374 0-.297.294-.594.587-.297.294.297.294.594 0 1.78-1.467-1.186-1.467 3.858-2.933 5.342 1.173-1.484-.88 6.231.586 3.857-.586 1.78-.586 0-1.173 1.187C28.642 33.234 26.88 38.28 26 43.62c.294 0 .587-.593.88.594l-1.466 2.67c0 1.187 1.173 1.187 0 2.968.293-.297.586-.594.586 0-2.933 10.385-2.933 21.661-7.04 31.75.587-1.483.587-.296.293.594.294-.594.587 0 .88 0l-1.76 4.154c.587.89-.88 4.748 0 5.341v-1.483c.587 2.077 2.64-2.374 3.52-1.78-.586-2.375 2.64-5.342 1.76-8.903.294-.593.294.594.587.297-.293-.89-.293-2.077.294-3.858v.297c.88-5.638 1.76-7.715 3.227-13.946l-.587.296c.293-1.187.587-1.483.88-2.077-.587-1.187-.587 4.154-1.467 2.67 1.467-1.483 1.76-9.198 3.227-10.385.587-2.077-.587.593-.293-1.484l.586-.593-.293-.594c.293-1.187.88-1.78 1.173-1.78v1.187c.88-1.78.88-5.045.88-5.341l-.586 1.78c.586-5.638 2.347-12.463 2.64-17.804l-.587.297c.294-4.155.88-3.264 1.467-7.715v.296c0-.89 0-2.077.293-3.264 0 .594.294 0 .587-.297.293-.296.293-.296.587 0 0-1.187 0-1.483-.294-1.78 0-.297-.293-.594-.586-2.374 0 0 .586 0 .586.297-.293-1.187-.293-1.78 0-3.858 0 1.187.294 1.187.294 1.484.293.297.293.593.293 1.484.293 0 .293-.297.587-.89.293.593.586.593.88.89.293.296.586.89.88 2.077.88-.89-1.174-3.264-.88-2.968-.294-.593 0-.89.293-.89 0-.296.587.297.88.89.294.594.587 1.484.587 2.374 0 .594 0 .89.293 1.484 0 .297 0 .297.294.593.293.297.293.594.586 1.187l-.586-.593c.586 1.484 2.053 2.077 2.346 3.857 1.174.297 1.174 2.078 2.347 1.484l-2.053-2.67c1.173 1.483 3.227 2.373 4.693 5.638-.293 0-1.173-.89-1.466-1.187.293.89 1.173 1.483 1.466 2.373-1.173.297-2.64-3.56-4.4-5.044.293 1.187 2.934 2.967 1.467 2.67 2.053.594 2.053 3.265 4.107 4.748l-.587.297 1.467 1.484-1.467-.594c1.76 1.484 1.76 3.561 3.227 5.342-2.347-3.561 0-1.187-.587-2.968 3.52 3.858.294 3.264 3.814 8.012-.587-.593-1.467-2.67-.294-1.78.587.89 1.174 2.374 1.174 2.967 2.347 3.264.293-.89 1.467.297 0 1.483 1.173 1.483 2.346 2.67l-.586.297c2.053 3.858 1.76.297 3.52 3.858l-1.76-.89 1.467 1.483h-.88c1.76 1.484 2.053 2.374 2.933 4.154 0-.593 1.173-.296 2.053 1.187.587 1.187-.88-.296.587 2.078-.587-.297-1.467-.594-1.76-2.078-.293 0-.587-.296-.88-.296.587 1.483 2.053 2.967 2.347 3.857-.294-.296-.294-.593-.587-.89l2.934 2.967c.293.594-.294.297-.587 0 .587.594 1.173.89 1.76 1.78-.587 0-.88.297-2.053-.89l2.64 2.968c0 .297.586 2.077.293 1.78.88 2.078 3.52 3.858 4.987 6.232.293 0 .293.297.88.593l.293.297v1.187c0 .297.294.593 1.174 1.187h-.587c-.293 0-.587-.297-.587-.297.294.297.88.594 1.174.89.587.297.88.297 1.76 1.484 1.467 1.484-1.467-.89-1.76-.89.88.593 2.053 1.78 2.933 2.67l-1.76-.89c.294-.296.88 0 .88 0zm-17.894-7.715c.587 0 1.76.297 2.053.89-.88.297-1.173-.296-2.053-.89zm-42.243-17.21c.587 0 1.174.296 1.76.89-.88-.297-1.173-.594-1.76-.89zm59.55-19.882c0-.297 0-.297 0 0 1.174-.593.587-.593 0 0zm-2.64 1.187c0 .297 0 .297 0 0l1.174-.593s-.587 0-1.174.593zM44.776 14.54v.297c-.88-.89-.587-.594 0-.297z"/><path d="M25.121 54.6v.296c.294.297.294 0 0-.297zm45.763-27.003h-1.173s.293.296 1.173 0zm-4.4 16.319l1.173-1.186c-.587.593-.88.593-1.466.89.293 0 .586 0 .293.296zm-14.081 6.529c0 .297-.293.297-.587.593l.294.297c.88-.89 1.466-1.483.293-.89zm11.441-7.122c-.294-.297-1.174.594-2.054 1.187h.294c0 .89.88-.297 1.76-1.187zm-2.054 1.484c-.293.297-.587.594-.88.594 0 .296.294 0 .88-.594zm12.908-8.012c-.587.297 0 .593-.294.89-.293.89 2.64-2.967.294-.89zM62.084 42.73h.88v-.89l-.88.89zm7.92-5.638s-.293.297-.88.594c-.293.297-.88.593-.88.593s0 .297-.293.594c1.173-.89 2.053-1.484 2.053-1.78zm-2.054 1.484c-.586.296-.88.593-1.173.89.293 0 .88-.594 1.174-.89zm-3.813 2.076h.587l.88-.89-1.467.89zM87.312 25.52l1.76-1.188c0-.296-.587 0-1.174.297-.293.297-.88.89-.586.89zm-6.454 2.077c.587-.297.587 0 1.173 0l-.293-.89-.88.89zm5.28-3.561c0-.297 2.347-2.077 0-.594 0 .297-1.76 1.484 0 .594zm-18.774 2.077h.587l-.294-1.484-.293 1.484zM40.082 33.53c2.64 0 .587-.89 2.64-.89.587-.296-1.76 0-1.173-.296-1.467.593-2.053.593-1.467 1.187zm1.467-1.186c.293 0 .587-.297.587-.297-.294 0-.294.297-.587.297zM17.2 89.614l-.586 1.78.587-1.186v-.594zm.294 3.264l-.88.297.587 1.187c0-.593.293-1.187.293-1.484zm41.363-25.519c0 .297.293.593.88.89l-.88-.89zm17.308 8.606l.293.89s0-.297-.293-.593v-.297zm0-1.188s.293.297 0 0c0 0 .586.297.88.594l-.88-.594z"/></g><defs><clipPath id="clip0"><path fill="#fff" transform="translate(4)" d="M0 0h91.525v100H0z"/></clipPath></defs></svg>