<svg width="100" height="100" fill="none" xmlns="http://www.w3.org/2000/svg"><g clip-path="url(#clip0)" fill="#6FB92C"><path d="M82.697 56.195c-.626 0-.376.25-.5.25 1.125-.124.5-.25.5-.25zM77.567 51.815c.375.25 1.376.5 2.377.626 1 .125 2.127.375 3.003.5l.25.125.876-.125c-2.252-.25-5.005-.625-6.506-1.126zM72.562 49.562c.25.25-1.127-.25 1.126.5-.125 0-.125-.124-.25-.124-.126-.126-.501-.25-.876-.376z"/><path d="M73.437 49.937c1.001.25-.625-.375 0 0zM68.808 48.185l1.376.501c-.25-.125-1.376-.626-1-.5-1.252-.626-1.002-.376-.376 0zM67.556 47.935s.126.125.376.125c.125.125.375.125.375.125-.25-.125-.375-.25-.75-.25zM69.684 48.686l-1.502-.5c.125.124.125.25.626.25-.125 0 .25 0 .876.25zM70.434 49.062c.751.375 1.627.75.25.375 1.252.5 1.878.626 1.752.5 0 0-.25-.124-.625-.25-.25-.25-.75-.375-1.377-.625zM76.94 51.94l1.002.375.876.126c-.25 0-.75-.126-1.126-.25-.376-.251-.751-.251-.751-.251zM61.676 44.43c-.125 0-.125.126-.125.251.125 0 .25.125.375.125l.5.25c-.125-.125-.25-.125-.375-.25-.125 0-.125-.125-.25-.125l-.125-.125s-.125-.125 0-.125zM61.55 44.681s-.125 0-.25-.125c-.125 0-.375-.125-.375-.125.5.375.626.375.626.25z"/><path d="M67.181 48.06s.125 0 .376.125c.25.125.5.125.875.25.626.25 1.252.376 1.252.376l-1.502-.5-1.501-.501.5.25zM61.8 44.055c-.124 0 0 .125 0 .125v-.125c.126 0 0 0 0 0 .126 0 .126 0 .126-.125.125 0 .125-.125.25-.125.125-.125.25-.125.25-.125l-.625.375zM65.555 42.553c-.626.376.875-.125.25.25 1-.375 1.877-.875 2.627-1.25-.75.375-1.626.625-2.877 1zM69.809 40.926a5.839 5.839 0 00-1.251.626c.375-.25.75-.375 1.25-.626zM61.05 43.93c.25-.125.375-.125.5-.125 0 0-.125 0-.5.125zM60.8 44.055s.125 0 0 0c0-.125 0 0 0 0zM63.553 46.183c-.876-.376-2.628-1.252-1.001-.125.625.125-.25-.5 1 .125zM60.05 44.055s-.126 0 0 0c0 .125.124.125.25.25.124.126.375.25.375.25s0-.124.25 0l-.5-.25c-.126-.125-.25-.125-.376-.25 0 0-.125 0 0 0zM60.3 43.93l-.25.125.374-.125H60.3zM67.056 41.803c.626-.376 1.376-.626 2.252-1.002-.876.25-1.877.626-2.753 1.002-.125.125-.5.375.501 0zM63.678 42.929s.125 0 .125-.125c-.125.125-.25.125-.125.125zM66.305 41.802c-.75.25-1.126.376-1.501.626.5-.25 1-.375 1.626-.626.126 0 .126-.125-.125 0zM72.061 39.925c-.375.125-.75.25-1.251.375.375-.125 1.126-.25 1.251-.375zM64.053 42.929s-.125 0 0 0 .125-.126 0 0z"/><path d="M64.053 42.929c.375-.125.626-.25.876-.5-.375.124-.75.375-1.126.5h.25zM79.443 35.67c.126.125-1.626 1.001-3.253 1.377-1.501.75-.25.876 1.126.625 0 0 0-.125.25-.25.126 0 .25-.125.501-.25.25-.125.375-.25 1.001-.501-.25.125-1.251.375-2.002.626-.626.125-1.126.25-.5 0 1-.376 1.501-.626 1.751-.626.376-.125.626-.125 1.252-.376-.626.126.125-.25.875-.625.376-.125.626-.376.751-.5.125-.126.125-.126-.125-.126l-1.627.75c.126 0 .626-.25 0-.124zM74.438 38.798l-.625.25c.75-.25 1.251-.375 2.252-.625 1.001-.5 1.251-.626 1.251-.751l-3.128 1.126h.25zM70.935 40.175c.375-.375 2.002-1.001.876-.876-1.877.751-1.251.626-2.378 1.127 3.003-1.127-.75.5 1.502-.25-.626.25-1.126.5-1.627.625.5-.125 1.126-.376 1.627-.5h-.125c-.125 0-.125 0 0 0-.125 0 0 0 .125-.126-.125 0-.125.125 0 0 .125 0 .876-.25 0 0l-.125.125 3.003-1.251c-.626.25-1.502.5-2.878 1.126zM60.8 45.432c-.25-.125-.25-.125 0 0zM59.924 44.806c.25.125.5.125 1 .5.501.376 0 .126-.124.126.125 0 .25.125.375.125s.25.125.376.125c.125 0 .125 0 0 0l-.126-.125c-.125 0-.125-.125-.25-.25l-.125-.126c-.5-.25-.876-.625-1-.876-.251-.25-.251-.375-.126-.25-.376.125-.5.25 0 .75zM63.803 42.303l2.502-1.001-1.376.375.125.125c-1.376.376-1.126.376-1.251.501zM77.817 37.672l-.25.25s.375-.25.625-.375c.125 0 .125-.125.25-.125 0 0 .126 0 .126-.125 0 0 .125 0 .125-.125.25-.126.375-.126.375-.126s-.125 0-.25.126c-.125 0-.125.125-.25.125-.126 0-.126 0-.25.125-.126.125-.501.25-.501.25zM82.822 35.795v.125l1.376-.626-1.376.5zM26.015 33.166l-.5.626c.25-.375.375-.5.5-.626zM30.394 29.287v-.125c-.125.125-.25.25 0 .125zM58.673 16.395h.625c1.502.126 2.503.126 1.377.126l-1.627-.126h-.375zM38.277 7.635c.125-.126.25-.126.376-.25l.375-.752c-.25.376-.5.626-.75 1.002zM38.277 8.76l-1.126 1.002c.25-.25.626-.5 1.126-1.001zM28.893 38.298l.876-.376c-1.502.376-.876.25-.876.376zM58.422 28.16c.25 0 .5-.125.626-.125.125 0 .25-.125.375-.125-.25 0-.375 0-.625.125s-.626.125-.376.125zM26.39 30.163c-.375.375-.5.5-.375.5.375-.375.5-.5.375-.5zM60.925 27.534c-.125 0-.375.125-.5.125l-.25.126h-.126s-.125 0-.125.125c-.125 0-.25.125-.376.125.25 0 .376 0 .501-.125.125 0 .125 0 .25-.125.125 0 .376-.126.626-.25zM31.395 65.332h.25c.126-.125 0-.125-.25 0zM64.428 60.826c-.375.125-.875.125-1.376.25.25 0 .75-.125 1.376-.25zM73.437 31.164c.751.125.126 0 0 0z"/><path d="M74.564 31.414c-.25-.125-.626-.125-.876-.25 0 .125.375.125.876.25zM74.438 31.29c.25 0 .5.124.626.124l-.626-.125zM72.436 30.914c.376.125.751.125 1.127.25h-.126c-.25 0-.5-.125-1-.25zM26.766 53.817h.125c.75-.25.5-.125-.125 0zM65.805 13.893c.25.125.5.125.625.25 0 .125-.375.125-.875.125l1 .25c.501.125 1.127.25 1.127.25-.125-.125-.376-.25-.751-.375-.375-.25-.75-.375-1.126-.5z"/><path d="M18.007 40.55s.25-.124.375-.25c.25-.125.376-.25.376-.25 0 .125.125.125.125.125.125 0 .25-.125.626-.25-.376.125-.626.25-.626.125l.25-.25.125-.125.376-.376c.375-.25.625-.626.875-.876.501-.5.751-.876.751-1.001l1.001-.626-.5.5c2.002-1.376 1-1.501 3.378-3.504.876-.75 1.502-1.126 1.001-.626l1.752-1.752c.5-.5.5-.25 0 .125l2.753-2.503c.375-.375 1.126-1.376 1.501-1.752.75-.626-.25.376-.125.25l1.376-1.502c.751-.5-.5.752-1.501 1.753.876-.376 1.251-.751 1.627-1.252.25-.25.5-.626 1-1.001.126-.125.25-.25.501-.376.25-.125.375-.375.626-.625.5-.376 1-.876 1.751-1.502l-2.377 2.253a38.903 38.903 0 003.128-2.503c1.251-1.002 2.503-2.128 4.38-3.755-.501.375-2.503 2.002-3.754 2.878-1.252 1.002-1.877 1.377-.751.25a41.864 41.864 0 002.753-2.502c-.125 0-.25 0-.376.125.626-.25-1.501 0-3.753.375l.625-.375c-1.501.25-2.127.375-2.627.5-.5.126-.876.25-1.627.376-.125 0-.375 0-.5.125h-1.627c-.375 0-.626-.125-.75-.125-2.754.375 2.001 0-1.377.626-.376 0-.626.125-1.001.125-.125 0-.376 0-.5.125-.376.125-.752.125-1.377.375 0-.125.125-.25.25-.375.375-.376.375-.376.5-.25 0 0 0 .125.126 0v-.126-.25c.125-.125.125-.125.25-.125.125-.25 0-.25 0-.25V20.4c.125-.126.125-.126.5-.626.126-.626 3.004-2.629 4.38-4.506.5-.375-.125.376.125.25 2.127-2.503 1.752-2.127 3.378-4.255l1.752-1.502c-1.251 1.127 0-.626 1.126-2.127-.5.375-.876.625-1.126.876l2.002-2.253c.25-.25.125 0-.125.5.125-.125.25-.375.375-.5.751-.751.5-.25.126.5-.25.25-.626.501-.876.626-.376.626-.751 1.252-.5 1.252.124-.125.375-.5.625-.751-.125.125-.125.25-.125.25.125 0 .25-.375.5-.75l.75-.251v-.25l2.879-2.754c.375-.5.625-.876 1-1.251l.251-.376.125-.25c.125-.125.25-.376.375-.5.25.124.501.124.876.375.5.125.876.375 1.377.625 1 .376 2.002.877 3.253 1.502-1.126-.375-.375.25-.5.376-.501-.376-1.252-.751-2.128-1.252-.5-.25-1-.375-1.501-.626l-.75-.375c-.126-.125-.251-.125-.376-.25.625.375.375.375.25.375-.125-.125.876.376 1.752.751.75.626 1.752 1.001 1.752 1.001-.126.125.75.5 1.626 1.127-.5-.751 2.878 1.251 4.38 1.877 0 .125-.376.125-2.128-.876 1.877 1.377 2.753.876 4.63 2.253-.5-.25-.626-.376-.876-.376 1.126.5 3.504 1.878 2.878 1.627l-.5-.25c1.501.751 3.628 2.002 5.63 3.004.626.25 1.126.5 1.752.75.5.251 1.126.376 1.376.501 0 0-.375-.125-.75-.125-.376 0-.626-.125-.876-.125.75.25 1.751.626 3.003 1.001 0 .25-.5.5-1.502.751 0-.125-.25-.125-.5-.25s-.626-.25-.876-.376c-.5-.25-.626-.5-.125-.5h-.751c-.25 0-.5 0-.876.125.125 0 .375.125.626.25.25.125.375.25.125.25-.376-.125-.626-.125-.876-.125h-.75c-.626 0-1.377 0-3.254-.125.626 0 .75.125.626.25-.25.126-.626.25-1.377.25l-.5-.25c-.25-.125-.5-.25-.126-.25 0 0-1 .125-1.626.25-.75.126-1.126.25-1.126.25.25 0 0-.124-.626-.25-.625-.125-1.501-.125-2.377-.25.25 0 0 .125-.5.25-.501.126-.877.25-1.127.25h1.001c-.75.126-1 .251-1.376.376-.25.126-.626.126-1.377.25.5.126 1.127.251 2.002.376-.25 0-.625-.125-.876-.125-.125 0-.125.125.25.25.376 0 1.002.125 2.128.25.25 0 .625.126 1 .126.376 0 .752.125 1.127.125.876.125 1.752.125 2.753.25 1.251.125 2.127.125 2.878.25v.126s.5 0 1 .125c.501 0 .877.125.877.125h-2.753c-1.377-.125-3.379-.25-5.38-.5-1.377-.126-2.253-.376-2.878-.501.125.125 0 .125 0 .25 0 0 0 .125.5.25h-.125c-.25 0-.5 0-.75-.125-.251-.125-.376-.125-.501-.25l.375.375 4.755 1.002c.25-.125 1.877.125 3.503.375 1.502.25 2.878.5 2.878.376l-8.884-1.377c.376-.125 2.378.125 4.255.375 2.002.25 4.004.501 5.755.877.376.125.25.25 0 .25h-.75c.125 0 .625.125.875.125.376 0 .751.125 1.127.125.75.125 1.501.25 1.626.376l-1.376-.126c1.752.501 3.003.25 5.13.877.125 0 .375.125.626.25h.25s.125 0 .125.125c.125.125.25.125.375.125v-.876c0-.375.376-.626 1.001-.626.125 0 1.502.376 2.503.751 1.126.376 2.002.626 2.127.751s-1.001.125-1.877.125c-.876 0-1.627 0-1.627.125h1.377c-.5.126-.626 0-1.377.25.376 0-.125.251-.5.251-.125 0-.25.125-.25.125.125 0 .375 0 1-.25-.5.25-.875.25-1.25.375-.376.125-.751.125-1.377.376.25 0 .125.25-.5.626-.626.375-1.627.876-2.378 1.126.125-.125-.375-.125-.5 0-1.627.5-3.003.876-4.255 1.252-.625.25-1.25.375-1.876.625-.376.125-.626.25-1.002.376l-1.126.375c-.125 0-.75.125-1.126.25-.5.126-.75.126-.5 0-.5.25-.751.376-1.627.752 0 0-.125 0-.25.125-.5.125-.626.125-.626.125l.5-.25c.376-.126.626-.25.752-.25.125-.126 0-.126-.626 0 0 0-.125.124-.376.25-.25.25-1.25.876-2.002 1.251.126 0 .126 0 .25.125 0 0-.124 0-.25-.125.501-.25 1.752-.626 2.503-1.126.5-.125.876-.376 1.251-.5.25.124 0 .375-.5.625-.376.25-.876.626-1.377.876.376 0 .876.125 1.377.125 1 .125 1 .25.876.25h-.25.125c.875.126 1.626.25 2.252.376H61.3c1.001 0 1.877.125 3.88.626 1.626.5 0 .5.375.75-2.128-.25-3.254-.75-4.755-1l1.752.375c-.751 0-2.128-.25-2.878-.5 1.25.5 8.508 1.626 12.262 2.502.75 0 1.877.126 1.376 0l-1.25-.25c-1.127-.375 2.376.125.875-.25.876.125 1.752.125 2.628.25.5 0 1 .125 1.501.25.25 0 .5.126.75.126.376.125.626.125 1.002.25 0 0 .125.125.25.125l.125.125-1-.25c-.126 0-.251 0-.376-.125-.125 0-.25 0-.376-.125-.125.125-.375.125-.5.125.25 0 .626.125 1 .125l1.502.375c1.001.25 2.002.5 3.003.5l-1.751-.5c1 .126 2.002.25 3.128.376 1.126.125 2.502.375 3.754.5-.751.25-1.502.626-2.378.877 1.001-.25 1.251-.376 1.502-.376.25-.125.5-.25 1.752-.626 0 0-.126-.125-.25-.125.25.125-.251.125-1.002 0-.75-.125-1.752-.25-2.753-.5-1-.126-1.876-.376-2.502-.376-.5-.125-.626 0 0 .125-.876-.375-1.877-.626-3.003-.75-.125 0-.25 0-.375-.126-.126 0-.25 0-.25-.125-.126 0-.376-.125-.626-.125-.376-.125-.876-.25-1.252-.376 0 .125.626.25-1-.125h-.501.125c-.125 0-.125 0 0 0 .375.125.75.25.876.25-.876 0-3.629-.5-4.505-.5-1-.25.5 0-.125-.25l-1.376-.126c-.125-.25-2.628-.75-.25-.5l-2.628-.125c-1.251-.376-3.003-.751-4.13-.751-1-.25-2.627-.25-1.75-.25 0 0-.251 0-.501-.126-.125 0-.376 0-.5-.125h-.251c-.376 0-.75-.125-.75-.125h.124-.25c-.375 0-.876-.125-1.502-.25.25-.126.626-.25 1.127-.376.25-.125.5-.125.75-.25.125 0 .25 0 .376-.125h.5c1.126-.376 2.127-.877 4.004-1.377h.376c1.376-.5 4.254-1.252 4.754-1.627.376 0 .876-.125 1.377-.25h.25c.125 0 .25-.126.375-.126.25-.125.626-.125.876-.25.626-.25 1.252-.375 2.002-.626 2.753-.876 5.506-1.877 7.883-2.628-1.126-.25-2.127-.375-2.878-.626h-.876c-1.501-.25-3.003-.626-4.504-.876-1.502-.25-3.504-.626-4.254-.75l.125.25c-1.001-.126-2.127-.376-3.504-.752-.625-.125-1.376-.375-2.127-.5-.375-.125-.75-.125-1-.25-.126 0-.376-.126-.501-.126h.75c-.375-.125-.375-.125-.5-.25-.125 0-.25-.125-.25-.125-.25 0-.376-.125-.626-.125-.5 0-1.251-.125-2.127-.25-.75-.126-1.377-.25-1.126-.25-.751-.126-1.001-.126-.751-.126h.125-.125.375-.5c-.25 0-.5-.125-1.001-.125h.125l1.877.125h-.125c-.376 0-1.126-.125-1.752-.125 0 0-.125-.125-.25-.125 1.376.125 1.376.125 1.626 0 .126 0 .5-.125 1.502.125-.125 0-.125 0 0-.125.25-.125 1.501-.125 1.376-.5.125 0 .376 0 0 .124.751 0 1.377 0 2.002-.125 0 0 .125 0 .25.125.126 0 .376.125.376.125l1.501-.25c.751-.125 1.252-.25 1.252-.25 1 0 1.751.125 2.127.125.375 0 .25.125-.626.25 1.126-.125 1.877-.125 2.503-.25.625 0 1-.125 1.376-.125-.375-.25-.75-.376-1.376-.626-.5-.25-1.252-.626-2.127-1.001l.625.125c-.625-.376-1.501-.751-2.252-1.127-.75-.375-1.376-.625-1.627-.876-.75-.5-1.501-.876-2.502-1.502-1.126-.625-2.378-1.376-3.88-2.127a172.837 172.837 0 01-8.508-4.756c.751 1.001-2.252-1.502-2.627-1.252-.25-.25-.876-.75 0-.375-.626-.25-1.126-.626-1.627-.876-.75.125-1.376-.25-2.002-.626l-.876.876-.75.751c-.376.375-.626.751-.876 1.252-.376.125.25-.626 0-.376-.125.25-.626.751-.876.876s.25-.375.5-.75c-2.002 2.252-2.002 2.628-1.877 3.003-1.126 1.001-1.626 1.627-2.252 2.503-.375.376-1.126.876.125-.5-.75.75-4.504 4.505-4.38 4.88l-1.25 1.252c-1.627 1.752-1.752 1.878-3.379 3.505l.5-.376c-.25.5-.5.751-.875 1.252l-.75.75-.376.376-.5.5v-.124c-.877.75-1.377 1.376-1.878 1.752-.375.375-.625.625-.75.876-.376.375-.5.626-1.502 1.627.376 0 1.001-.125 1.877-.25l.125-.25c.626-.376 1.502-.376 2.878-.501 1.502-.125 2.878-.25 4.13-.501h-.877c.376-.125.751-.125 1.126-.125H32.647c.25 0 .5.125.625.125s.25.125.376.125c0 0-.25.125-.376.125h.376c.125 0 .25-.125.25-.125.25-.125.375-.375 1.251-.5-.125.125-.375.25-.5.25-.25.125-.376.25-.25.25l-.126.125c-.25.126-.125.25-.5.626-.25.376-.25.5-.376.626l-.125.125-.125.125-.25.25c-.5.501-1.126 1.002-1.627 1.377.5-.25.876-.5.125.376-1.376 1.251-4.004 3.129-5.005 4.505l-.25.125c-1 1.002-3.378 3.255-3.879 3.88-.75.126-2.377 1.752-3.753 3.13l-.626.625c-.376.25-.626.375-.75.626-.501.375-.877.876-1.252 1.126-.75.626-1.377 1.127-1.627 1.252L11 44.305l2.127-.5-.375.125c2.002-.376 3.503-.751 4.63-1.127 1-.25 1.751-.375 2.377-.625h.375l-.125.125c4.004-.751 4.38-.876 7.758-1.877l.375.125c.375-.126 1.251-.25 2.378-.5.125 0 .25 0 .5-.126h.375c.125 0 .376 0 .5-.125.376 0 .627-.125 1.002-.125.5-.126 1-.25 1.877-.501-.125 0-.25.125-.626.25.125 0 .25-.125.375-.125-.25.25-.875.751-1.376 1.127-.876.625-1.126.75-2.627 1.877-1.127.876-2.003 1.752-2.378 2.378l-2.127 1.877c3.003-2.378-.25.626 1.126-.25-1.126 1.001-3.253 2.253-1.752 1.126l.25-.125c.25-.75-3.878 2.879-3.878 2.628-1.126.626-2.002 1.377-2.878 2.128-1.377 1.001-2.628 2.128-3.879 3.129l-1.126 1.877c.75.126 1.376.25 2.002.376a697.622 697.622 0 009.76-1.878l-.876-.125 2.377-.5c.626 0 .876.125-.876.375 1.001 0 2.878-.75 2.878-.75 3.379-.627-1.251.625-.25.375l1.376-.25h-.375c1.126-.376 1.251-.501 3.253-.877 1.377-.25.75 0 1.251 0 0 0 .125 0 .751-.125l3.128-.626h-1.251c.626-.25 1.376-.375 1.752-.375h-.376 1.377c.5 0 1-.125 1.501-.25l2.252-.376c-.75.5-1.376 1.001-1.876 1.377-.25.125-.376.25-.5.25-.251.25-.752.751-1.252 1.127a23.864 23.864 0 01-2.628 1.877c.5-.25 1.001-.25-.75.876.25-.876-3.254 2.002-4.755 2.628 1.376-.626-4.755 3.505-2.628 2.378-1.376 1.002-.25-.125-1.376.5l-.376.376c-.125.126-.375.25-.5.376-.375.375-.876.626-1.376 1.001-.876.626-1.877 1.377-2.878 2.002-.5.626-1.001 1.252-1.377 1.878.751.125 1.377.375 2.002.5.876-.125 1.877-.375 2.753-.5.125 0-.125 0-.125-.125 0 0 .125-.125.876-.376 0 0 .876-.125 1.752-.125h1.376c1-.25.876-.626 2.628-.626-.25 0-.626 0 0-.125 9.76-1.502 19.77-4.13 29.654-5.382-1.376.126-.5-.125.5-.25-.625.125 0-.125-.124-.25l4.129-.5c.75-.376 4.38-.877 4.754-1.252l-1.25.25c1.626-.626-2.503-.25-2.378-.626-1.877.751-5.256.5-8.259 1.627-.75 0 .626-.25.126-.25-.751.375-1.752.5-3.504.876l.25-.125c-5.005 1.001-7.257 1.251-13.013 2.253l.5.125c-1.25.25-1.5.25-2.126.25-1.377.626 3.503-.626 2.252-.125-1.752-.125-8.634 1.627-9.885 1.377-1.877.375.626.125-1.251.5h-.5l-.126-.375c-1.251.25-1.877.125-2.002.125.25 0 .876-.25 1.126-.25-.375 0-.875.125-1.376.25-.25 0-.5.125-.75.125-.126 0-.251 0-.376.125h-.25c-.376.125-.751.25-.751.125h.625c-.375.126-.875.25-1.376.25-.5.126-1.126.251-1.626.376.5-.375.875-.626 1.376-1.001.375-.25.75-.5 1.126-.876.75-.5 1.376-1.127 2.002-1.627l-.375.125c3.003-2.378 2.627-1.752 6.006-4.255l-.125.125c.625-.626 1.501-1.252 2.502-1.877-.75.75 1.752-1.002.75-.126.877-.625 1.377-1 1.627-1.376l.376-.376c.125-.125.25-.25.375-.25l.5-.5 1.127-1.127 1-.5.752-.752c.125-.25.375-.5 1-1.126-.5.5-.125.25.126 0 .25-.125.375-.376.125.125.375-.5.625-.876.876-1.126-.5-.126-.876-.126-1.252-.126h-1.126c-1.251.25-2.252.501-3.253.501-.626.25-.75.25-.75.375.124 0 .375 0 .875-.125.876-.125 2.127-.375 2.878-.5h.125c.125.125-.125.125-.626.25-1 .25-2.502.626-3.378.751-.375.125-.75.125-1.251.125h-1.126c-.876 0-2.002.125-3.754.5.375-.124.375-.124.75-.124-1.376.125-2.502.625-4.128.876-.876.5-2.128.375-2.253.75l3.254-.75c-1.752.5-3.379 1.126-6.507 1.627.25-.125 1.126-.376 1.752-.5-.876.124-1.627.375-2.628.5.25-.376 3.88-.876 5.756-1.502-1.001 0-3.629 1.001-2.753.375-1.376.751-3.503.626-5.755 1.502l.125-.25c-.125 0-.5.125-.751.25-.125 0-.25.125-.5.125-.126 0-.126 0-.25.126 0 0 .124-.126.25-.25.25 0 .625-.126.625-.126-.125 0-.375.125-.5.125l-.25.125h-.876c-.126 0-.25 0-.501.126.25 0 .375-.126.375 0 .125 0 0 .125-.125.25s-.375.25 0 .25c-.25 0-.375.125-.5.125-.626.125-.876.25-1.001.125-.126 0 0-.125.25-.25s.5-.25.876-.5c.25-.126.5-.25.625-.376 0 0 .126 0 .126-.125l-.126.125c-.125.125-.25.25-.5.25-.125.126-.375.126-.25.126.125-.126.25-.25.375-.25.375-.251.626-.376.75-.376 0-.376 0-.376.126-.5l.125-.126s0-.125 0 0h-.125c-.125 0-.5.25-.25 0 .125 0 .125 0 .25-.125s.25-.125.375-.25c.25-.126.376-.376.5-.501.376-.376.626-.751 1.252-1.252l.125.126c3.253-2.504.626-1.002 3.504-3.255l-1.001 1.252 1.501-1.252-.375.501c1.501-1.502 2.002-1.877 3.628-3.129-.5.125 0-.5 1.377-1.627 1-.626-.376.626 1.626-1.001-.375.5-.75 1.001-1.751 1.502 0 .125-.376.5-.376.626.5-.376 1.252-.877 1.877-1.377.25-.25.626-.5.876-.751.375-.376.75-.626 1.001-.876-.25.125-.5.375-.75.626-.126.125-.251.125-.251.25-.125 0-.125.125-.125.125l.125-.125.125-.125.25-.25c.376-.376 1.001-.877 1.502-1.377 1-.877 2.002-1.753 2.002-1.753.125-.125.125-.125.25-.125.125-.125.25-.125.25 0l-.375.376c.125-.125.375-.25.5-.5 0-.251 0-.502.25-.877.126.125.251 0 .501.751a3.052 3.052 0 010-1.502h-.125s-.25-.125-.375-.25-.125-.25 0-.25c-.125-.25-.376-.376-.626-.626-1.501.375-3.128.75-4.88 1.251-.625.125-1.251.376-1.877.5-.5.126-.875.251-1.376.251-.125 0-.375.125-.876.25-2.377.501-4.63.751-7.382 1.627h-1.001c-.125.126-.25.126-.125.25 0 .126.25.126-.626.376-.626.25-.626.125-.5 0-.25-.25 0-.5 0-.5-.25.125-.626.25-1.252.5 0 0 .125-.25.25-.375.376-.25.626-.5 1.002-.626l-.501.5zm19.895-18.272c-.25.25-.626.75-1.126 1.126-.376.376-.876.876-1.252 1.002.25-.376.501-.626.876-1.002.376-.25.876-.5 1.502-1.126zM41.405 4.88c-.25.376-.625.751-1.25 1.252.374-.376.875-.751 1.25-1.252zm23.9 24.906c-1.252-.25-.751-.125 0 0zm2.502.626h.125c-.125 0-.75-.125-1.376-.25.25 0 .5.125 1.25.25zM34.899 53.567h-.5c1-.25.75-.125.5 0z"/><path d="M38.277 8.636c-.125.125-.125.125-.25.125 0 .125 0 .125.25-.125zM28.643 38.423c.125 0 .125 0 .125-.125l-.125.125zM73.437 21.276c-.125 0-.125-.125-.125-.125-.125 0-.125.125.125.125zM83.197 32.791l-2.878-.5c1.377.25 1.752.375 2.378.5 0 0-.376-.125.5 0zM73.688 38.048c-.25.125-.5.125-.626.25l.125.125c.75-.375 1.377-.75.5-.375zM83.823 33.667c-.25.125.625.25 1.752.375-.25.126-.5.25-.751.25.125 0 .125 0 .25-.124.25 0 .626 0 1.126-.25-.5 0-1.376-.126-2.377-.251zM84.574 34.418c-.376.125-.876.375-1.252.5.126.126.626-.125 1.252-.5zM70.935 30.789c.5.125.375-.126.626 0 .75-.126-3.504-.376-.626 0zM83.197 34.043l.25-.126h-1.126l.876.126zM74.438 32.29l1.752.376h.5c-1.125-.125-2.252-.375-2.252-.375zM76.69 32.791c.626.125 1.127.25 1.502.25a5.378 5.378 0 00-1.501-.25zM80.695 33.667l-.5-.125-1.252-.25 1.752.375zM55.92 28.911l-1.627-.25.25-.125c-.125 0-.25 0-.625.125.125 0 .375.125.75.125.501.125 1.252.25 1.252.125zM61.05 30.538c-.5-.125-.5-.25-.876-.375l-.125.25 1.001.125zM54.794 29.287c-.125 0-.626-.25-1.001-.25-.125-.251-.25-.251.625.124.126 0 .5.126.751.25.25.126.25.126-.375-.124zM73.437 20.526l.5.125.877-.25s-.376 0-.75.125h-.627zM49.288 15.394c-.25.125-.25.125-.375.125.125.125 0 0 .626.376.125 0 0 0-.126-.125-.125-.126-.375-.126-.25-.126-.125 0-.125 0-.25-.125.626-.125.75-.125.375-.125z"/><path d="M49.163 15.645c.125 0 .25.125.376.125-.25 0-.376 0-.376-.125zM69.934 60.075l1.501-.25h-1l-.501.25zM72.687 59.199l.375.25.876-.375c-.376 0-1.001.125-1.251.125zM39.403 19.4l-.375.124c.25 0 .876 0 2.127-.25l-1.752.125zM24.889 34.668l.25-.25-.625.25h.375zM19.383 40.05l-.125.125c.125 0 0 0-.125.126 0-.126 0-.126.25-.25zM62.301 88.61h.25c0-.124-.25 0-.25 0zM61.8 88.11h.126l-.25-.125.125.125zM61.676 87.484c-.25.126.125.25 0 .376h.25c-.125-.125-.376-.25-.25-.376zM62.176 86.984c-.125.125-.125 0 0 0 0 .125 0 .125 0 0 0 0 0 .125 0 0zM62.176 87.109s.125-.125 0 0zM62.051 86.859h.125c.125 0 0-.126.125-.126-.125 0-.125 0-.25.126zM61.8 86.733c.126.126.126 0 0 0zM61.926 86.984s-.125.125-.25.125c.125 0 .375 0 .25-.125zM61.3 87.61s.125-.126 0 0zM62.051 86.233c-.125 0-.125.125-.25.125h.125l.125-.125zM61.425 86.858l.376.126-.376-.126zM61.926 85.983h.25l-.25-.126v.126zM61.926 85.732c.125 0 .25-.125.25-.125s-.125-.125-.25-.125v.25zM61.676 86.108s.125 0 .125-.126l-.125.126zM61.55 86.608c-.125 0-.25-.125-.375 0h.376zM61.425 86.233c0 .125.126 0 .126.125l-.126-.125zM61.676 85.732c-.125 0-.125 0-.125-.125v.125h.125zM61.676 85.857c-.126 0-.126.126 0 0zM61.425 85.732c0 .125 0 .125 0 0 .126.125 0 .125 0 0zM61.676 85.357c-.126 0-.126.125 0 0-.126.125 0 0 0 0zM60.174 85.231c.125 0 .376 0 .25.125.126 0 .626-.125 1.001-.375h-.25c-.125 0-.125.25-.375.25-.125-.125 0-.125.125-.25-.25.25-.375.125-.75.25h.124-.125zM61.3 85.357s.125-.126.25-.126h-.25v.126zM61.425 85.482h-.5c0 .125.125 0 .25.125 0-.125.125.125.25-.125 0 .125 0 0 0 0 .126 0 .126.125 0 0 .126 0 .126 0 0 0 .126 0 .126 0 0 0 .126 0 .126 0 0 0 .126 0 .126 0 0 0 .126 0 .126 0 0 0 .126 0 .126 0 0 0v-.125.125zM60.925 86.608c0 .125.125.125.125 0s.25-.25.25-.25c-.125 0-.25.125-.375.25zM61.05 85.983l-.125-.126-.125.126h.125c0 .125.125.125.125 0z"/><path d="M61.425 85.106l.25-.125H61.3l.125.125zM59.924 80.1c.125-.125.375-.25.125-.125l-.125.125c.125 0 .125 0 0 0zM57.171 77.347c.125-.125.125 0 0 0zM55.544 72.841h-.25c0 .126.125 0 .25 0zM60.675 82.854c0-.126.125-.126.125-.126-.125.126-.25.25-.125.126zM60.8 82.603c-.125 0-.125 0 0 0v.125s.125-.125 0-.125zM57.672 79.474c.25 0 .25 0 .25.125l.5-.25-.75.125z"/><path d="M55.92 73.717l-.125.125c-.25 0-.25-.125-.376 0 .626-.125.126.376.751.25l-.125.126c-.25.25.375 0 .375.125s-.125.125-.125.125l.125.125h-.125l.125.25h.376c-.125.126-.125 0-.125 0l.125.126c-.125.125-.25 0-.25 0-.5.25.125 0-.126.375l-.125-.125c-.25.125-.125.25-.375.375.125 0 .375-.375.626-.25 0 0 0 .125.125.125-.25 0-.125.125-.125.125l-.25.126c.124.125.25 0 .375 0 0 .125-.25.125-.376.25 0 .125.25-.25.376 0-.125.125.125.25.25.375-.125.125-.125 0-.25.125h.25-.125c.125 0 .25-.125.375 0 .25 0-.375.376 0 .376-.125 0-.125 0-.25.125.25.125.25.125.5.125l-.125.125c.125-.125.5-.125.626 0 .125 0 .125-.125.25-.125l.25.125h-.25.125c-.125.126-.25.126-.375.126l.125-.126c-.125 0-.375 0-.5.126h.125-.125.125l-.25.125h.125l-.126.25c.376.125.751.125 1.001.25-.25 0-.375.125-.625.125.25-.125-.125-.125-.125-.25 0 .125-.125.125-.125.125l.25.125c-.25 0-.125.126-.25.126.375-.126.375.125.5.125-.125 0-.25.125-.25 0-.25.25.5 0 .25.25h-.125c.125 0 .125.25 0 .25 0 .25.125.501.5.501 0 0-.375.125-.5.125h1.251c-.25 0-1 .376-1.251.25 0 0-.125.126.125.126 0 0 .375-.25.5-.125l-.375.375c0-.125.5-.125.5-.125-.124 0-.5.125-.5.125h.5c-.124 0-.375.125-.5.125.125 0 0 .125.125.125l.125-.125c0 .25.751 0 .751.25-.125 0-.625.126-.625.25.25 0 1.25-.124 1.376 0l-.125.126.25.125h-1.501l-.126.125c-.125.125-.25 0-.25 0v.25c.25-.125.376.126.5 0l-.375-.25c.25-.125.876-.125.876.125-.375.126-.75.126-.876.126.125 0 .25.125.125.125h-.125c-.125.125.376 0 .125.25 0 0-.375.25-.125.25.25-.125 1.252-.5 1.502-.5l-.376.375c-.25.125-.625.125-.875.125h.25s-.25 0-.125.125c.25-.125 0 .25.25 0 .125.126 0 .126 0 .25.125-.124.626-.124.75 0-.124 0-.124.126-.25.126 0 .25-.125.375 0 .5-.125 0-.125.126-.25.126h.125c-.25.125-.125-.126-.375 0 .125 0 .25.125.375.125.25-.125 0-.25-.125-.25.376-.126.75-.126 1.001.125.125.125-.25.125-.125.125 0 .25.626.125.5.375-.25.126-.5.126-.625.25-.125-.124.125-.25 0-.25l-.125.126c-.125 0-.125-.126-.125-.126-.125.126.125.5 0 .751h.25c.125-.125.25 0 .375 0s.376.125.376.25l-.25.126c.125 0 .125-.125 0-.125.125 0-.25.25 0 .25l.125-.125c.125 0 .5.125.375.25l.25-.125c-.375.125-.125-.25-.375-.125.375-.125.125-.125.375-.376-.125 0-.125.125-.125 0h-.125l-.125.125c-.25 0-.25-.125-.376-.125 0-.125.126 0 .126 0h-.126c.126 0 .25-.25.376-.125v-.125c.125-.125.125-.25 0-.25 0-.126-.25-.126-.125-.126l-.125-.125c0-.25-.376-.25-.126-.626-.125 0-.125-.125-.125-.25l.125-.125c-.125-.125.126-.25-.125-.25.376-.25 0-.376 0-.626h-.25c0-.125-.125-.125-.25-.25h-.125c-.125 0 0-.25 0-.501.125 0 .125 0 0 .125.375-.375-.376-.375-.125-.626-.126 0-.126-.125 0-.125l.125-.125s-.125 0-.125.125c0 0 0-.125-.126-.125l.25-.125c0-.125-.124 0-.25 0h-.125c.25-.125-.125-.125.125-.25-.125 0-.25-.25-.5-.125h.125c0-.126 0-.126-.125-.126l.25-.125h-.375c.125-.125.25-.125.375-.125-.375-.125-.125-.125-.5-.125h.125s-.25-.125-.125-.125c.25-.25-.125-.626.125-1.002-.5.25.125-.25-.25-.125.125 0 .125-.125.25-.125-.125-.125.125-.25-.25-.375h.25s-.125 0 0 0h.125c-.125-.125-.375-.125-.75 0 .124-.125.124-.125-.126-.125.125 0 .25-.126.25 0 0 0 0-.376-.25-.376v-.125-.25c-.375 0-.125-.126-.125-.126.125-.25-.125-.125 0-.375l-.25.125c-.376.125.25-.25 0-.375l-.125.125c-.126 0 .5-.376.5-.5h.125c.25-.251-.25 0-.375-.126.125-.125.375-.125.375-.125.125-.125-.5-.125-.25-.376-.125 0-.25.126-.25.126-.125-.126.375-.376 0-.376h.125c-.125 0-.25-.25-.376-.25.626-.25-.5-.376.126-.626l-.126-.25h.126c0-.126-.126-.126-.376-.25h.125c0-.251 0-.251-.375-.376l.25-.125c-.125 0 .25-.376-.125-.626h.125c-.25-.125.376-.751-.375-.626l-.25-.125c0 .25-.376 0-.376.125-.125-.125.125-.25.25-.25.376-.125 0-.25.376-.376-.125-.375 0-.876-.125-1.251l-.25.125v-.125s.25-.125.25 0c.125-.125-.25-.125-.25-.125.125-.25.375 0 .375-.126v-.125c-.125 0-.25 0-.25-.125s.125-.125.125-.125v-.125h-.376c-.125 0 0-.125-.25 0 .375-.25 0-.626.125-.751-.25 0-.25-.125-.25-.25 0 0-.25.125-.25 0 .5-.126.125-.25.5-.501-.25.125-.125-.25-.5-.125 0-.125.25-.125.375-.125-.25-.126 0-.501-.125-.751-.125 0-.125.125-.25.125l.375-.25s-.375.125-.25-.126c0 0-.125.126-.125 0 .25-.625-.626-1-.125-1.752-.126.125-.126.125-.126 0 0 0-.125 0-.25.125l.25-.25c-.625-.125-.375-.375-.625-.375h.125c-.375 0-.626.375-1.001.375.375 0-.375.376.125.5h-.25c.125 0 .25 0 .125.126.125.25 0 .5 0 .75l.25-.124c0 .125-.125.125-.125.125.375 0 0-.25.25-.25-.375.25.125.5-.25.625 0 .125.25-.125.25 0l-.125.125h.125c0 .126-.125.126-.25.25-.125.126.125.251.125.251v-.125c.25.25.125.626.5.876h.126c.25.125 0 .25.125.375.125 0 .125.126.125.126-.125 0-.125.125-.375.125.25.125.125.125.5.125l-.125.125c.125 0 .25 0 .25.125-.125 0-.25.125-.375.125-.25.376.5.25 0 .501.5 0 .125-.25.25-.25.125-.126.376 0 .376.125s-.5.25-.376.5c-.125.126.125.126 0 .25.25 0 0 .126.376 0l-.126-.124c.126.125.5.125.376.25h-.25c-.126.125.125.125 0 .125-.376.125-.126-.25-.376-.25-.125.125.25.125-.125.125.5 0 0 .25.375.25h-.25s.125 0 .125.125h-.25c.25 0-.125.25 0 .376-.125-.25.25-.125.375-.25.376.25-.5.25-.25.625l.125-.125c0 .125-.125.125-.125.25.125.126.25-.125.376 0-.25.126.125.126.25.126h-.25c-.126.25.375 0 .375.25h-.25l.125.125h-.25c.25.125.125.125.125.25.125-.125.375-.125.375 0-.125.126-.25 0-.125.126-.125 0-.25 0-.125-.126h-.25c-.126.126 0 .25 0 .25v-.124l.375.125h-.25s.125 0 .125.125c-.125 0-.376.125-.376 0l.25.125c-.124 0-.124.125-.25.125-.125.125.376.125.25.376h.126c0 .125-.125.375.125.375l-.25.125c.125.126.375-.25.5 0 .125.126-.25.126-.25.25 0 .126.25.251 0 .251 0 .125 0 .125 0 0zm.626 1.627c-.126-.125-.25-.125 0 0 .125-.125 0-.125 0 0zm1.126 2.128c-.125 0-.125 0 0 0zm3.253 6.258c0-.126 0-.126 0 0zm0 .125c-.125-.126-.125 0 0 0zm-4.38-14.894c-.125 0-.125 0 0 0z"/><path d="M57.296 77.347s.125 0 0 0c.125-.125 0-.125 0 0zM60.424 85.607h.126s-.126-.125-.126 0zM60.8 84.731c-.125 0-.125.125 0 .125s.125-.125 0-.125zM61.05 83.98h.125c.25 0-.25-.125-.125 0zM60.3 84.981l.124-.125H60.3v.125zM60.049 83.354c-.125-.125-.25 0-.125 0h.125zM59.548 83.855s.126 0 .126-.126l-.126.126zM59.423 83.48c-.125 0-.25-.126-.25 0 .125.125.125.125.25 0zM59.173 81.852l.5-.125-.5.125zM57.797 80.6c-.125.126.25 0 .125.126.125 0 .125-.126.125-.126s0-.125-.25 0zM55.294 63.83v-.125l-.125.125h.125zM54.919 63.705l.25-.125-.25.125c.125 0 0 0 0 0zM56.045 75.72c.125 0 .125-.126.125-.126l-.125.125zM55.294 73.592c0 .125.125.125 0 0 0 .125.376 0 0 0zM67.056 92.115h.25c-.125 0-.375.125-.25 0zM66.18 90.738c-.25.125.125.25 0 .376h.25s-.25-.125-.25-.376zM66.806 90.238c-.125.125-.125 0 0 0 0 .125 0 .125 0 0 0 0 0 .125 0 0zM66.806 90.363s.125-.125 0 0zM66.68 89.987l.126.126s0-.126.125-.126c-.125-.125-.25-.125-.25 0zM66.556 90.112c-.126-.125-.25-.125 0 0-.126-.125 0-.125 0 0zM66.556 90.113c0 .125-.126.125-.25.125.124.125.375.125.25-.125zM65.93 90.864v.125s.125-.125 0-.125zM66.68 89.362c-.125 0-.125.125-.25.125h.125s0-.125.126-.125zM66.43 89.487l-.125-.125c0 .125 0 .125.125.125zM66.055 89.987l.25.126-.25-.126zM66.555 88.861l.126.126-.25-.126h.124zM66.43 88.61c.125 0 .125-.124.25-.124 0-.126-.125-.126-.25-.126.125.126.125.126 0 .25zM66.18 89.112s.125 0 .125-.126l-.125.126zM66.18 89.737c-.125 0-.25-.125-.375 0 .125 0 .125-.125.375 0zM66.055 89.236v.126h.125l-.125-.126zM66.18 88.611c-.125 0-.125-.125-.125-.125v.25c0-.125.125-.125.125-.125zM65.93 88.736s.125 0 0 0c.125 0 .125 0 0 0 0 0 .125-.125 0 0zM66.18 88.861s0-.125 0 0c-.125 0 0 0 0 0zM64.679 87.985c.125 0 .375 0 .25.25.125.125.626-.125 1-.25h-.25c-.124.125-.124.25-.375.25-.125-.125 0-.125.125-.25-.25.125-.375-.125-.625 0l.125.125c-.125-.125-.25-.25-.25-.125zM65.93 88.11s.125-.125.25-.125h-.25v.125zM65.93 88.36c-.25 0-.25-.124-.5 0 0 .126.125 0 .25.126 0-.25.25 0 .25-.125.125 0 0 0 0 0 .125 0 .125 0 0 0 .125 0 .125 0 0 0 .125 0 .125 0 0 0 .125 0 .125 0 0 0 .125 0 .125 0 0 0 0 0 .125 0 0 0 .125 0 0-.126 0 0 .125 0 .125 0 0 0 .125 0 .125 0 0 0v-.25.25zM65.304 89.737c.125 0 .125 0 0 0 .125-.125 0-.125 0 0zM65.43 89.612s.125 0 0 0c.125.125 0 0 0 0 0 .125.125.125.125 0s.25-.25.25-.25c-.125.125-.25.125-.376.25zM65.68 88.987l-.125-.126-.126.126h.126.125zM65.93 87.86l.25-.125h-.375l.125.125zM65.805 87.61l.25-.126h-.125l-.125.126zM60.3 74.843c.124-.125 0-.125 0 0zM64.303 81.602c.125-.125.376-.25.125-.25l-.125.125v.125zM61.425 77.972l.126-.125c-.126 0-.126 0-.126.125zM59.548 72.215h-.25c0 .126.125.126.25 0zM65.18 85.106c0-.125.124-.125.124-.25-.125.125-.375.25-.125.25z"/><path d="M65.18 84.731v.25c.124-.125.124-.25 0-.25zM65.68 86.608c0 .126.125 0 0 0zM61.926 80.6c.25 0 .25.126.25.126l.5-.25-.75.125z"/><path d="M59.924 73.467l-.125.125c-.25-.125-.25-.25-.5 0 .625-.125.25.5.75.375l-.125.126c-.25.25.5 0 .375.25 0 .125-.125.125-.125.125l.125.125s-.125.125-.125 0l.125.25c.125 0 .25 0 .376.126-.125.125-.125 0-.125 0l.125.125c-.125.125-.25 0-.25-.125-.501.25.125.125-.126.5l-.125-.125c-.25.125-.125.25-.375.5.125-.124.375-.375.625-.375 0 0 0 .125.126.125-.25 0-.126.126-.126.25l-.25.126c.125.125.25 0 .376.125 0 .125-.25.25-.376.25 0 .25.25-.25.376 0 0 .126.125.25.25.376 0 .125-.125 0-.25.125h.25-.125c.125.125.25-.125.375 0 .25 0-.375.375 0 .5h-.25l.5.25-.125.251c.125-.125.5-.125.626 0 .125-.125.125-.125.25-.125l.25.125h-.25.125c-.125.125-.25.125-.375.125l.125-.125h-.5.125-.126.126l-.25.125h.124l-.125.376c.376.125.876.125 1.001.5-.25 0-.375.126-.625.126.25-.126-.125-.25-.125-.376 0 .125-.126.125-.126.125l.376.25c-.25 0-.125.126-.25.25.375-.124.375.126.5.251-.125 0-.25 0-.25-.125-.25.25.5.125.375.25h-.125c.125 0 .125.25 0 .25 0 .251.125.752.5.626 0 0-.375.126-.5.126l1.251.125c-.25 0-1 .375-1.25.25 0 .125 0 .125.124.25 0 0 .376-.25.5-.125l-.375.376c0-.125.5-.125.5 0-.124 0-.5.125-.5.125l.5.125c-.124 0-.375.125-.5.125.125 0 0 .25.125.25l.126-.125c0 .25.75.126.75.376-.125 0-.625.125-.625.25.25 0 1.25 0 1.501.125l-.125.125.25.126c-.375 0-1.25-.126-1.501-.126-.125.126-.125.126-.125.25-.125.126-.25 0-.25-.124v.375c.25-.125.375.125.625.125l-.375-.25c.25-.125.876 0 .876.25-.126.125-.5.125-.626.125.125 0 .25.126.125.25h-.125c-.125.126.375.126.25.376 0 0-.375.25-.125.25.25-.125 1.251-.5 1.502-.5 0 0-.25.375-.376.5-.25.126-.625 0-.876.126h.25c0 .125-.25 0-.125.125.25 0 0 .25.25 0 .126.125 0 .125 0 .25.126-.125.626 0 .751 0-.125 0-.125.125-.25.125v.626c-.125 0-.125.125-.25.125 0 0 .125 0 .125.125-.25.25-.125-.125-.375 0 .125 0 .25.126.375.25.25-.124 0-.25-.125-.375.375-.125.75 0 1 .125.126.126-.25.126-.124.126 0 .375.75.125.5.5-.25.125-.5.125-.625.25-.125-.125.125-.25 0-.375l-.125.125c-.126 0-.126-.125-.126-.25-.125.125.126.626 0 .876.126 0 .126.125.25 0v-.125c.126-.125.25.125.376 0 .125.125.375.125.375.375l-.25.125c.125 0 .125-.125 0-.125.125 0-.25.376.125.376l.125-.126c.126.126.5.126.376.376.25-.125 0 0 .25-.25-.375.125-.125-.376-.375-.126.375-.25.125-.25.375-.375-.125 0-.125.125-.125 0h-.125l-.125.125c-.25 0-.25-.25-.376-.25 0-.125.125 0 .125 0h-.125c.125 0 .25-.25.376-.125v-.125c.125-.126.125-.25 0-.25 0-.126-.25-.126-.125-.126l-.126-.25c0-.25-.375-.376-.125-.751-.125-.125-.125-.125-.125-.25l.125-.126c-.125-.125.125-.375-.125-.375.376-.25 0-.5 0-.751h-.25c0-.125-.125-.25-.25-.376h-.125c-.126-.125 0-.375 0-.625.125 0 .125 0 0 .125.375-.376-.5-.5-.25-.751-.126 0-.126-.125 0-.125 0 0 0-.125.124-.125l-.125.125s0-.125-.125-.125l.25-.125c0-.126-.125 0-.25 0h-.125c.25-.126-.125-.126.125-.25-.125 0-.25-.251-.625-.251h.125c0-.125 0-.125-.125-.25l.25-.126-.376-.125c.126-.125.25-.25.376-.125-.376-.125-.125-.125-.5-.25h.124c0-.125-.25-.125-.125-.25.25-.25-.125-.751 0-1.252-.5.25.125-.25-.25-.125.125 0 .125-.125.25-.125-.125-.126.125-.376-.25-.376h.25s-.125 0 0-.125h.125c-.125-.25-.375-.125-.75 0 .125-.125.125-.25-.125-.25.125-.126.25-.126.25 0 0-.126 0-.501-.25-.376v-.125c0-.125 0-.25-.126-.375-.375 0-.125-.126-.125-.25.125-.376-.125-.126 0-.501l-.25.125c-.375.125.125-.376 0-.5l-.125.124c-.125 0 .5-.375.5-.5h.126c.25-.25-.25 0-.376-.126.125-.125.376 0 .376-.125.125-.125-.5-.25-.376-.5-.125.125-.25.125-.25.125-.125-.125.375-.5 0-.5h.125c-.125-.126-.25-.251-.375-.251.625-.25-.5-.5.125-.751l-.125-.25h.125c0-.25-.125-.25-.376-.25h.126c0-.376 0-.376-.376-.501l.25-.125c-.125 0 .25-.501-.125-.751h.125c-.375-.25.376-.876-.375-.876l-.25-.126c0 .25-.376 0-.376.126-.125-.126.126-.376.25-.25.376 0 0-.376.376-.376-.125-.5-.125-1.127-.125-1.627l-.25.125v-.125c0-.125.25-.125.25 0 .125-.125-.25-.125-.25-.125 0-.25.375 0 .375-.126v-.125c-.125 0-.25 0-.25-.125s.125-.125.125-.125v-.25l-.25.125c-.125-.125 0-.25-.25 0 .375-.25 0-.876 0-1.001-.25-.126-.25-.25-.25-.376 0 0-.251.125-.251 0 .626-.125.125-.375.5-.5-.25.125-.125-.376-.5-.126 0-.125.25 0 .375-.125-.25-.25 0-.626-.125-1.001-.125 0-.125.125-.25 0l.375-.25s-.375 0-.25-.126c0 0-.125.126-.125 0 .125-.75-.626-1.251-.125-2.127-.125.125-.125.125-.125 0 0 0-.125 0-.25.125l.25-.376c-.25 0-.125-.25-.376-.25l.125.125c-.375 0-.625.376-1 .376.375 0-.376.5.125.626-.126.125-.126 0-.25 0a.27.27 0 01.25.25c.125.375 0 .5 0 1.001l.25-.125c0 .125 0 .125-.125.125.375 0 0-.25.25-.25-.375.25.125.626-.25.75 0 .126.25-.124.25 0l-.125.126h.125c0 .125-.125.125-.25.25v-.125c-.125.125.125.25.125.376v-.126c.25.376.125.876.5 1.127h.125c.25.25 0 .25.126.5.125 0 .125.126.125.126-.125 0-.125.25-.376.125.25.25.125.125.626.25l-.125.125c.125 0 .25 0 .25.125-.125-.125-.25.126-.375.126-.25.375.5.375 0 .625.5 0 .125-.375.25-.25.125-.125.375 0 .375.125s-.5.25-.375.5c-.125.126.25.126 0 .251.25 0 0 .125.375.125l-.125-.25c.125.125.5.125.376.375-.126 0-.126 0-.25-.125-.126.125.124.125 0 .25-.376.126-.126-.25-.376-.375-.125.125.25.25-.125.25.5 0 0 .25.375.376h-.25s.125 0 .125.125h-.25c.25.125-.125.25 0 .376-.125-.25.25-.126.375-.25.376.25-.5.375-.25.625 0 0 .125-.25.125-.125s-.125.25-.125.25c.125.25.25-.125.375 0-.25.125.125.125.25.125h-.25c0 .376.376 0 .376.25h-.25l.125.126h-.25c.25.125.124.125.124.375.126-.125.376-.125.376 0-.125.125-.25 0-.125.125-.125 0-.25 0-.125-.125h-.25c-.126.125 0 .25 0 .25v-.125l.375.126h-.25s.125 0 .125.125c-.126 0-.376.125-.5 0l.25.25c-.126 0-.126.125-.25.125 0 .125.374.25.374.5h.126c0 .126-.126.376.125.501l-.25.25c.125.126.375-.25.5 0 .125.126-.25.126-.25.251.125 0 .5.125.375.376-1.126-.501-1-.626-1.126-.626zm.626 1.877s-.25-.125-.126-.125c.376 0 .25.125.126.125zm1.25 2.879c-.124 0 0-.126 0-.126.126 0 .126 0 0 .126zm3.504 8.01s.125 0 0 0c0-.126 0 0 0 0zm-4.88-18.649c-.125 0-.125 0 0 0z"/><path d="M61.425 77.972c.126-.125.126-.125 0 0 .126-.125.126-.125 0 0zM65.93 87.109c-.125-.125-.125 0 0 0-.125 0 0-.125 0 0zM64.929 88.36h.125s-.125-.125-.125 0zM65.304 87.36c-.125 0-.125.124 0 .124s.125-.125 0-.125zM65.555 86.483h.125c.25 0-.376-.25-.126 0zM64.679 87.61l.25-.126h-.125l-.125.126zM64.679 86.858v.126h.125s0-.126-.125-.126zM64.428 85.607c-.125-.125-.25-.125-.125 0h.125zM63.928 86.108l.125-.126-.125.126zM63.803 85.732c-.125 0-.25-.125-.25 0 .125 0 .25.126.25 0zM63.553 83.605l.5-.126-.5.126zM62.051 82.103c0 .25.25 0 .125.125.125 0 .125-.125.125-.125 0-.125.125-.125-.25 0zM58.923 61.201l.125-.125h-.125v.125zM58.547 61.076l.25-.125-.25.125c.126-.125 0-.125 0 0zM60.174 75.845c.125 0 .125-.125.125-.125l-.125.125zM59.924 74.343l.25-.125-.25.125zM59.298 73.217l.125.125c-.125 0 .25-.25-.125-.125zM89.579 88.486c.125 0 .125-.126.125-.126-.125 0-.125.25-.125.126zM88.453 88.736l-.25.125.25-.125zM87.451 88.61c0 .376.376 0 .501.126v.125l.125-.25c-.25 0-.5.125-.626 0zM86.951 87.86c0 .125-.125 0 0 0s.125 0 0 0c0 0 .125 0 0 0zM87.076 87.86c.125 0-.125-.125 0 0zM86.576 87.86l.125-.126c0-.125-.125-.125-.125-.125-.125 0-.125.126 0 .25zM86.325 88.11c.126-.125.126-.125 0 0zM86.576 87.985l-.125.125.125-.125s-.125.125 0 0zM86.7 87.985c.126.125.126.125 0 .25.251 0 .251-.25 0-.25zM87.326 88.86h.25c-.124.126-.25-.124-.25 0zM85.7 87.61v.25h.125c-.125-.126-.25-.126-.125-.25zM85.7 87.86l-.125.125c.125 0 .125-.125.125-.125zM86.325 88.36l.25-.125-.375.126h.125zM85.074 87.484v-.125l-.125.25.125-.124zM84.574 87.484c.125-.125-.126-.25 0-.25-.126 0-.25.125-.376.25.25-.125.25-.125.376 0z"/><path d="M84.198 87.484l.125-.125c-.125 0-.125.126-.125.126zM85.2 87.86s0-.126-.126-.25l.125.25zM85.95 88.235c-.125.126-.375.126-.125.376 0-.25-.125-.25.125-.376zM85.324 88.11h.126v-.125l-.126.125zM84.448 87.734c-.125.126-.125.126-.25.126.125 0 .25.125.25.125 0-.126.126-.25 0-.25zM82.947 88.86c0-.124.25-.375.375-.124.126-.126.126-.626 0-1.002 0 .126 0 .126-.25.25 0 .126.376.251.25.376-.25.125-.125-.125-.25-.125.125.25-.25.25-.25.626l.25-.125c-.125 0-.25.125-.125.125z"/><path d="M83.573 87.735s0-.126-.125-.25c-.126.124-.126.124-.126.25h.25zM83.948 87.734c-.125.126-.25.25-.125.501.25 0 .125-.125.25-.25-.25.125.125 0-.125-.25h0c.125 0 .125 0 0 0 .125 0 .125 0 0 0 0-.126 0-.126-.125 0h-.125c0 .125.125.125.25 0zM85.45 88.736s0-.125.125-.125c0 .125 0 .125-.126.125.126 0 .25 0 .126-.125a1.801 1.801 0 01-.25-.376c0 .25 0 .376.124.501zM84.699 88.36h-.25l.125.126v-.126c.125.126.125 0 .125 0zM83.197 87.61l.125-.126-.25.25.125-.124zM82.947 87.61v-.126l-.125.126h.125zM74.188 87.86c-.125-.126-.25-.376-.25-.126v.126c.125-.126.125-.126.25 0zM68.432 89.862l.126-.125s-.126 0-.126.126zM68.558 90.613l-.126-.125s0 .125.126.125zM60.8 93.242v.25c.125 0 0-.125 0-.25zM79.193 87.61c-.125-.126-.125-.126-.25-.126.125.126.25.25.25.126zM78.693 87.484h.25c0-.125-.125-.125-.25 0zM81.57 87.61c0-.126 0-.126 0 0-.124-.126 0-.126 0 0zM72.186 90.113c.125-.25.125-.25.25-.25l-.125-.501-.125.75z"/><path d="M62.426 92.616l.25.125c-.124.375-.25.25 0 .5-.124-.5.626-.25.501-.876l.125.126h-.125c.25.25 0-.501.376-.501.125 0 .25.125.125.125l.125-.25c.125 0 .125.125 0 .125l.375-.125c0-.125.125-.25.125-.376.125 0 0 .126 0 .126l.125-.25c.126.124 0 .25-.125.375.376.5.125-.25.626 0l-.125.125c.25.25.375.125.625.25-.125-.125-.5-.375-.375-.626.125 0 .125 0 .25-.125 0 .25.125.125.25.125l.126.25c.125-.124.125-.25.125-.375.125 0 .25.125.375.376.25 0-.25-.25 0-.376.25 0 .376-.125.626-.375.125 0 0 .125.125.25l.125-.25v.125c.125-.125 0-.25.125-.376 0-.25.5.376.626 0 .125.126 0 .126 0 .25.25-.25.25-.25.375-.625l.25.125c-.25-.125 0-.5.126-.626l-.25-.25.25-.25v.125c.125.125.125.25 0 .375l-.126-.125c0 .125-.125.376 0 .5 0 0 0-.124.126-.124v.125l.125-.125.125.25v-.125l.375.125c.25-.376.376-.876.75-1.126-.124.25 0 .375.126.625-.125-.25-.25.126-.5.126.125 0 .125.125.125.125l.375-.376c0 .25.125.125.25.25-.125-.375.25-.375.376-.5 0 .125 0 .25-.125.25.25.25.25-.5.5-.25 0 0-.125 0-.125.125.125-.125.375-.125.375 0 .376 0 1.001-.125 1.001-.5v.5l.376-1.252c0 .376.25 1.002 0 1.252.125 0 .125.125.375 0 0 0-.25-.375-.125-.5.25.375.125.125.5.5-.125 0 0-.5.126-.5 0 .125.125.5 0 .5l.25-.5c-.125.125 0 .375.125.5 0-.125.25 0 .375-.125l-.125-.125c.376 0 .25-.751.626-.751 0 .125 0 .626.125.626 0-.25.25-1.252.5-1.502l.126.125.25-.125c-.125.375-.5 1.251-.626 1.502.125.125 0 .125.25.125.126.125-.125.25-.125.25h.5c0-.25.376-.375.251-.5 0 0-.125.125-.25.125-.125.125-.25.125-.25.125 0-.25.25-.876.5-.876.125.125 0 .5 0 .625 0-.125.25-.25.376-.125l-.126.125c.126.126.25-.375.5-.125.126 0 .251.376.251.25-.125-.375-.25-1.376-.125-1.627 0 0 .375.25.5.501.126.25-.125.626 0 .876 0-.125.126-.125.126-.25.125.125 0 .25.125.25 0-.25.375 0 .125-.25.125-.125.125 0 .375 0-.125-.125.125-.626.376-.751v.25c.375 0 .5.125.876.125 0 .126.125.126.125.25l.125-.124c.25.25-.25 0-.125.375 0-.125.25-.25.375-.375 0-.25-.375 0-.5 0 0-.376.25-.751.625-.877.25-.125.125.25.125.126.5.125.5-.626.876-.376.125.25 0 .5 0 .626-.25.125-.375-.125-.5-.125l.125.125c-.125.125-.25.125-.25.125.125.25.875 0 1.25.25.126-.125.251-.125.126-.25h-.125c-.125-.25.25-.25.125-.375.125-.126.375-.376.626-.25v.25c0-.126-.126-.126-.25-.126.124-.125.375.376.5 0l-.125-.25c.125-.125.375-.375.625-.25l-.125-.25c.125.375-.5 0-.375.375-.125-.375-.25-.125-.5-.5 0 .125.124.125-.126.125v.125l.125.125c-.125.25-.375.125-.5.25-.125 0 0-.125 0-.25l-.626.876c0-.25-.25-.376 0-.376h-.25c-.125-.125-.25-.125-.375-.125-.126 0-.25.25-.126 0l-.5.126c-.376 0-.75.375-1.126 0-.125 0-.25.125-.376 0v-.126c-.125 0-.5-.125-.5 0-.125-.5-.75 0-1.001-.125v.25c-.125 0-.376.126-.626.126v.25c-.125.125-.5-.125-.75-.125 0-.125.125 0 .125 0-.376-.376-.751.375-1.126.125-.126.125-.126 0-.25 0l-.126-.125.125.125c-.125 0-.125 0-.25.125v-.25c-.125-.125-.125.125 0 .25l-.125.125c-.125-.375-.25.125-.376-.25 0 .125-.5.125-.5.5v-.125h-.25l-.125-.25-.126.376c-.125-.126-.25-.25-.125-.501-.25.375-.25.125-.5.5v-.125c-.125 0-.25.25-.25.126-.25-.25-1.127.125-1.752-.126.25.501-.25-.125-.25.25 0-.124-.126-.124-.126-.25-.25.126-.5-.125-.625.25v-.25s-.125.126-.125 0v-.125c-.25.125-.25.5-.25.751-.126-.125-.25-.125-.376.125-.125-.125-.125-.25 0-.25-.125 0-.626 0-.626.25h-.125c-.25 0-.25 0-.5.126h.125c0 .375-.125.125-.375.25-.5-.125-.126.125-.626 0l.125.25c.125.376-.375-.125-.626.125l.126.126c-.126.125-.5-.501-.626-.501v-.125c-.375-.125 0 .25-.25.375-.125-.125 0-.375-.25-.375-.126-.125-.376.626-.626.375.125.125.125.125.125.25-.125.126-.626-.25-.626.126v-.126c-.125.126-.375.25-.375.501-.375-.626-.75.626-1.001 0l-.375.125v-.125c-.25 0-.376.25-.376.376-.125 0 0-.126 0-.126-.375 0-.5.126-.625.501l-.126-.125c0 .125-.625-.125-1 .25v-.125c-.126.25-.501.125-.751.125s-.5.125-.376.5l-.25.752c.375-.125.125.375.25.375-.125.125-.5 0-.25-.125-.125-.375-.5.125-.626-.125-.75.375-1.501.375-2.127.75l.25.251-.25.125c-.125 0-.25-.125 0-.25-.125-.125-.25.25-.125.376-.375 0 0-.376-.125-.376h-.25c0 .125 0 .25-.25.376-.126 0-.126-.126-.25-.126h-.126l-.25.126.25.125c-.125.125-.25.125 0 .25-.25-.125-.5 0-.75.125l-.501.25a.977.977 0 01-.5.501c.125 0 .25.25 0 .25-.25-.5-.501 0-.751-.25.25.125-.5.376-.125.626-.126 0-.126-.125-.25-.25-.25.375-.877.375-1.252.75 0 .126.125.126.125.25l-.375-.124c-.125.125.125.375-.125.25l.125.125c-.5.125-.876.5-1.252.751-.375.376-.75.626-1.376.626.25 0 .125.125 0 .125.125 0 .125.125.125.25h-.5c.125.25-.376.25-.25.5L46.66 99c0 .375.625.375.875.75-.125-.375.751.126.626-.5.125 0 0 .125.125.25 0-.25 0-.25.25-.375.376-.376.626-.376 1.127-.626l-.126-.125h.25c0-.376-.25.125-.375-.125.376.25.751-.5 1.127-.125.125-.126-.126-.126 0-.25l.125.124v-.125c.125 0 .25 0 .375.126 0 0 0 .125-.125.125.25 0 .375-.25.375-.25h-.25c.375-.376 1.001-.627 1.251-1.002s.376-.125.626-.375a.27.27 0 01.25-.25c0 .124.25.124.25.25.25-.376.126-.25.126-.626l.125.125c0-.125 0-.25.125-.376-.125.25.25.126.125.376.5.125.375-.626.876-.25 0-.501-.5 0-.376-.126-.125-.125 0-.375.126-.375.125 0 .5.376.75.25.125 0 .125-.25.376-.125 0-.25.25-.125 0-.375l-.25.125c.125-.125.125-.626.5-.5v.25c.125 0 .125-.126.25-.126.125.376-.375.25-.375.626.125.125.25-.375.25 0-.125-.5.375-.125.375-.5l.126.25s0-.125.125-.25v.25c.125-.25.375 0 .5-.125-.375.125-.125-.125-.375-.25.375-.501.5.375.876 0 0 0-.25 0-.25-.126.125 0 .25 0 .375.125.25-.125-.125-.125 0-.375.25.125.125-.125.25-.25l.125.25c.376 0-.125-.375.376-.5v.375l.125-.125v.25c.125-.25.25-.25.375-.25-.125-.125-.125-.376 0-.376.125.125 0 .25.25.125 0 .126 0 .376-.125.126v.25c.125.125.25-.125.376-.125h-.126s0-.125.126-.25c0-.126.125-.251.125-.251.125 0 .125.125 0 .25 0 0 .125-.125.125-.25 0 .125.125.376 0 .5l.25-.25s.25.126.25.25c.25 0 .376-.5.626-.5v-.125c.25 0 .5.125.75-.25l.25.25c.126-.125-.374-.25 0-.5.251-.126.126.25.251.25.125-.126.125-.501.5-.376-.124-.375-.25-.375-.25-.25zm2.503-1.001s-.125.25-.125.125c0-.25 0-.125.125-.125zm4.004-1.502c0 .125-.125 0-.125 0h.125zm11.637-2.504c-.125-.125 0 0 0 0zm.25.126c.125 0 .125-.126 0 0h-.125.125zm-26.276 6.258c0 .125 0 0 0 0z"/><path d="M82.196 87.36h-.125c.125.124.125.124.125 0 0 0 0 .124 0 0zM83.573 88.736c0-.125-.125 0 0 0zM82.321 88.11c0 .125.125.125.25.125 0-.25-.125-.25-.25-.125zM82.572 88.235c.125 0 .125 0 0 0 .125-.125.125 0 0 0zM81.195 87.61s0-.25.125-.126c0-.25-.375.25-.125.125zM82.446 88.736v-.25l-.125.124.125.126zM81.57 88.486l.126.125v-.125s-.125-.125-.125 0zM82.196 88.736h-.125l-.125-.125.25.125zM79.569 88.36h-.25c0 .126 0 .126.124.126.126 0 .25 0 .126-.126zM80.194 88.987s0-.126-.125-.126l.125.126zM79.569 89.111c0 .126-.25.25 0 .25 0-.124.25-.25 0-.25zM74.188 89.988c.25.125 0-.25.25-.126 0-.125-.125-.125-.125-.125-.125.126-.25 0-.125.25zM46.535 98.749h-.125l.126.125v-.125zM46.535 99.249l-.25-.25.25.25c-.125-.125-.125 0 0 0zM65.555 91.99c0-.125-.126-.125-.126-.125l.126.125zM63.553 92.365l-.126-.125.126.125zM62.051 93.241c.125 0 .125-.125.25-.125-.125.125-.375-.125-.25.125z"/></g><defs><clipPath id="clip0"><path fill="#fff" transform="translate(11)" d="M0 0h78.704v100H0z"/></clipPath></defs></svg>