<svg width="100" height="100" fill="none" xmlns="http://www.w3.org/2000/svg"><g clip-path="url(#clip0)" fill="#EC6D31"><path d="M27.756 18.174c0 .1.2.1.2.1 0-.2-.2-.1-.2-.1zm-.1-2.194l.1.1-.1-.4v.3zm.798-1.797c-.499 0-.3.699-.598.998h-.1l.1.1.1.1c.199-.4.299-.998.498-1.198zm1.298-.398c-.2 0 0-.3-.2.2h.1c0-.1.1-.2.1-.2z"/><path d="M29.651 13.884c-.1.2.2 0 0 0zm.499-.798v.3c.1 0 .3-.2.3-.1 0-.2-.1-.2-.3-.2zm-.1-.399v.1c0 .1.1.1 0-.1zm-.1.5v-.4c0 .1-.1 0 0 .2-.1-.1 0 0 0 .2zm-.198.099c-.2.1-.3.2-.3-.1-.2.4.1.5.3.1zm-1.597.598l-.2.1v.2c0-.1.4-.3.2-.3zm3.293-1.795c0-.1-.2-.1-.3-.2l-.1.2c.1 0 .3-.1.4 0zm-.4-.199l.1-.3c-.1.2-.1.2-.1.3zm-1.297.497v.599s0-.2.1-.3c-.1-.199 0-.398-.1-.299zm3.093-1.497c0 .2.3.1.2.3.1-.1.199-.3.299-.499-.1.1-.3.2-.5.2zm.599-.498c-.1.1-.1.2-.1.3 0-.1.1-.2.1-.3zm-1.796.898c.1 0 .2.1.3 0h-.3s0-.1 0 0zm.1-.1c.1-.1.2-.1.2-.1s-.1 0-.2.1zm-1.297.798c0-.2.2-.598-.2-.499 0 .2.3.1.2.5zm.798-.798l-.3.2s.2.1.1.2c.1-.1.2-.4.2-.4zm.1-.2l-.1.2.1-.1v-.1zm1.496-.498c.1-.2.2-.2.3-.3-.2 0-.4.1-.5.2.1 0 .1.2.2.1zm-.199-.199c-.1 0-.2.1-.2.2.1 0 .2-.1.2-.2zm-.3.499c0-.1.1-.1.1-.2-.1 0-.1.1-.1.2zm2.395-2.994c0 .2-.3.5-.699.4-.2.299.3.897.599 1.197 0-.1-.1-.2.2-.4-.1 0-.3-.1-.4-.1-.2 0-.3-.099-.2-.199.4-.3.4 0 .6 0-.3-.2.398-.598.199-.898l-.3.2c0-.1.1-.2 0-.2z"/><path d="M34.14 9.594l-.099.1c.2 0 .3 0 .499.1.1-.2.2-.3.1-.4l-.5.2zm-.697.299c0-.3.199-.499-.1-.698-.3.2-.2.3-.3.499.599-.3 0 .299.4.2-.1.099-.2.099-.3.199.1 0 .2 0 .3-.1 0 0-.1 0 0 0s.1 0 0-.1c0 .1.1.1 0 0 .1.1.199 0 0 0v.1l.199-.2.2-.2c0 .1-.1.2-.4.3zm-3.293.998c.1-.1.1-.1 0 0zm.3-.1c0 .1 0 .2-.1.3-.1 0-.1-.1-.1-.1 0 .1-.1.399.2.2v-.1c.2-.1.698-.1.698-.1-.3-.1-.4-.2-.698-.2zm1.496-.598l.4-.4h-.3l.1.1c-.4.1-.2.2-.2.3zm2.894-.699v.3l.099-.5-.1.2zm.598-.199v.2l.1-.2h-.1zm4.091 25.24l-.2.1c.1 0 .1 0 .2-.1zm1.296-.199v-.1c-.1.1-.1.1 0 .1zm7.682-18.357c-.1.3-.3.599-.1.499l.2-.1c-.1-.2-.1-.3-.1-.399zm-.1 11.374h.1c0-.1-.1-.2-.1-.3v.3zm.799.697l-.3.2s.1-.1.3-.2zm-16.96 6.186l-.3.2c.4.1.2-.1.3-.2zm9.676-24.841c.1.2.3.2.4.3-.1-.2-.2-.4-.4-.3zm-2.394 22.546c-.1.1-.1.1-.1.2.1-.1.1-.1.1-.2zM42.82 9.993c0-.1-.1-.1 0 0-.2-.1-.299-.1-.498-.2.1.1.2.3.498.2zm-4.888-1.097c-.1 0 0 .1 0 0zm-.2-.1c.1 0 .1.1.2.1 0 0-.1-.1-.2-.1zm.101.1h-.1c-.1.1 0 .1.1 0zM23.666 26.155c-.2-.2-.1-.1 0 0zm28.333-6.185c-.3-.3-.3-.4-.2-.599 0 0-.2.1-.299.1-.2.1-.399.1-.399.1s.2.1.499.2l.399.199z"/><path d="M36.336 34.835s.1.1.2.1c.099.1.199.1.199.1-.5.398-.898.199-.5.498.1-.698 1.797 0 1.797-.798l.299.1h-.2c.6.299.4-.599 1.098-.5.3 0 .399.1.3.2l.498-.299c.2 0 .1.1 0 .1 0 0 .2-.1.4-.1.199-.1.398-.1.398-.1.1-.1.3-.399.4-.498.199 0-.1.1 0 .199l.398-.3c.2.1-.1.4-.399.5.599.598.3-.3 1.397-.2l-.4.2c.4.299.7 0 1.298.1-.2-.1-1.197-.2-.798-.6.2 0 .299-.099.498-.299.1.2.3.1.6-.1l.099.3c.3-.3.2-.4.3-.698.398-.2.598 0 .797.2.599-.3-.598-.1 0-.6.3-.1.5-.199.599-.399.2-.2.3-.399.499-.698.399-.1.1.2.299.2v-.4c.1 0 .1 0 .1.1.1-.299-.2-.299 0-.698-.1-.2.2-.2.499-.3.299-.1.598-.299.598-.598.2 0 .1.2.3.3.299-.699.299-.6.299-1.298l.499-.299c-.4.2-.4-.399-.4-.898-.199 0-.299.1-.399.1l.2-.599c.1 0 .2.1.2.3v-.1c.2-.1.399.1.399.3-.1 0-.2.099-.3.099.1.3.2.499.4.599v-.2c0 .1.1.1.1.1v-.2l.398.1-.1-.1.699-.598c0-.4-.1-.798-.2-1.197-.1-.4-.1-.799 0-1.297.2.299.4.2.798.399-.399.1-.1.798-.399 1.197.1-.2.3-.1.3 0v-.998c.299.1.299-.1.498-.3-.598 0-.1-.797-.2-1.196.2 0 .4.2.2.598.599-.399-.498-.798 0-1.197 0 .1-.1.2 0 .2-.1-.3.1-.898.3-.699v.1c.299-.698.299-2.295-.2-2.394.1 0 .599.1.699.2 0 0-.4-.4-.799-.7-.2-.199-.399-.298-.598-.398-.2-.1-.3-.2-.3-.2.4.1 1.397-.399 1.697.2 0-.2.1-.4-.1-.798 0 .1-.599.399-.599.2.4-.5.2-.3.499-.998.1.1-.599 0-.599-.2.1 0 .599-.1.699-.1 0 0-.2-.1-.4-.299-.1-.1-.199-.1-.299-.2-.1 0-.1-.1-.1-.1.2.1.5-.1.699-.299-.1.1-.2-.598-.3-.798l-.1.3c-.099-.4-.398-.5-.598-.599-.299-.1-.598-.2-.698-.499.2 0 .798-.1.698-.499-.399 0-1.696-.1-2.294-.399l.2-.2-.4-.299c.3 0 .798 0 1.197.1.5.1.998.3 1.297.4 0-.3.2-.2-.1-.6.1-.199.4.1.4.2 0 0 0-.1-.1-.2 0-.1-.1-.199-.1-.398-.1-.3-.2-.5-.2-.5-.299.2-.797-.498-.997-.299 0 0 .3.2.499.4.2.2.499.399.499.399-.2.1-.5.1-.798 0-.2-.1-.3-.1-.5-.2-.1-.1-.299-.2-.398-.399 0-.2.598-.3.698-.4-.2 0-.599-.398-.599-.498l.3.1c-.1-.4-.799-.2-.898-.798-.1-.2 0-.699-.2-.599 0 .599-.997 1.497-1.297 1.596 0-.1-.299-.897-.299-1.197 0-.399.798-.3.898-.698-.1.1-.3.1-.4 0 0-.1.3-.1 0-.3-.298.2-.598-.498-.398.1-.4-.2-.2-.299-.599-.598 0 .299-.798.499-1.197.299.1-.1.1-.2.1-.3-.599-.398-.898-.797-1.497-1.097 0-.1-.299-.399-.1-.498-.1 0-.299.1-.498 0-.3-.5.498.1.299-.4-.1.2-.698.1-.998.1 0 .4.599.3.998.3-.2.399-.898.698-1.596.698-.599 0-.1-.4-.2-.3-.997-.398-.997.6-1.796.1-.299-.299.1-.598 0-.798.5 0 .699.3.998.3l-.3-.2c.2-.1.5-.1.6 0-.1-.2-.6-.3-1.098-.4-.3 0-.499-.099-.798-.099-.3 0-.499-.1-.698-.1-.2.1-.4.2-.3.3l.3-.1c.199.2-.5.399-.1.499-.2.1-.3.2-.5.299-.199.1-.398.2-.598.1h-.2c0 .1.3.2.5 0-.2.2-.799-.4-.898.1l.399.2c-.3.199-.599.697-.998.697.3.3.1-.1.4.3-.2-.3 0-.3.298-.4.2-.1.4-.1.2-.299.3.4.499.1.898.5 0-.1-.1-.2.2-.2 0 0 0-.1.1-.1-.1 0-.1-.1-.2-.2.1-.299.698-.299.898-.399.2 0-.1.1 0 .3l.299-.2c0 .3.499.499 0 .599h.399c.2.1.499.299.698.2.2.099.5-.2.3 0h.698v.099c.2 0 .3.1.499.1.2 0 .299.1.498.1.2 0 .3.1.5.199.199.1.299.2.398.4.2 0 .5.099.699.298l-.1.2c.1 0 .3.2.4.3.099.099.298.199.398.199-.1.598.998.898 1.197 1.297l.3-.3c.2.3.498.4.898.699l.199-.2c.1.1.2.3.3.5.1.298.199.498.398.797-.1 0-.2-.1-.2-.2 0 .2.1.4.2.5.1.1.2.299.4.399.299.2.598.498.498.897.2.1.2.2.2.3v.399c0-.1.1-.2.1-.2 0 .1.1.3.299.4l-.2.199c0 .2.2.1.3-.1.1.1.2.1.2.2-.4.299.299.399-.1.698.1 0 .199.2.398.399.1.2.3.4.5.4-.1 0-.1.099-.1 0 0 .199 0 .398.1.598l-.3.1.2.199.2.2c-.2.299-.3.399-.6.199.2.3.3.4.3.599 0 .1.1.2.3.498h-.2c0 .2.299.5.1.6-.2.199-.3.697-.4 1.396l-.3.898a2.16 2.16 0 01-.498.798c.699 0-.399.399 0 .598-.2 0-.3.1-.399-.1-.1.6-.599.699-.399 1.198-.2 0-.1-.2-.3-.2 0 .1 0 .2-.1.2-.099 0-.099-.1-.099-.2-.3.5.1.798.499 1.098-.4.1-.4.299-.3.598-.199 0-.398.1-.199-.299-.1.2-.898.898-.698 1.097-.1 0-.2.2-.2.3-.299.299-.399.299-.698.698h.1c.2.4-.2.3-.5.599-.797.299-.199.399-1.097.598l.2.2c.3.499-.798.2-1.097.598h.2c-.1.3-1.098-.299-1.298-.299-.1 0 0-.1.1-.2-.699 0 .1.4-.3.699-.199-.1-.1-.499-.398-.4-.1 0-.3.2-.5.4-.199.2-.498.399-.797.3.1.099.299.199.1.398-.4.2-1.098-.3-1.298.2-.1 0-.1-.1-.1-.1-.299.2-.897.3-.997.599-.2-.5-.599-.3-.998-.2-.399.1-.798.2-.798-.2h-.798v-.1c-.499-.099-.798 0-.998.2-.1-.1 0-.1 0-.2-.399-.099-.598-.199-.798-.199-.2 0-.399.1-.798.2v-.3c-.1 0-.399-.1-.698-.299-.3-.2-.698-.399-1.098-.499l.1-.1c-.499-.1-.898-.398-1.197-.797-.2-.2-.3-.3-.499-.3-.2-.1-.3 0-.598.1l-.5-.1c.6.499-.398.3-.199.599-.3-.1-.499-.798-.1-.5v.1c.4-.299-.598-.797-.399-.997-1.197-.998-1.795-2.295-2.494-3.492l-.299.3s-.1-.1-.1-.2c-.1-.1-.1-.2-.1-.2 0-.199.2-.299.4 0 .1-.299-.4-.399-.5-.399-.1-.698.5 0 .5-.2l-.1-.199v.1c-.2-.1-.4-.1-.599-.499 0-.299.2-.2.2-.299v-.2s0-.1-.1-.299c0-.1-.1-.3-.1-.3l-.2.3c-.199-.2-.199-.598-.398-.2.1-.1.1-.398.1-.598 0-.2-.1-.499-.1-.798-.1-.499-.2-1.098-.1-1.197-.3-.4-.3-.798-.2-1.197-.1.1-.499.2-.399-.3.4.1.499-.1.599-.299.1-.2.2-.499.499-.599-.4.2.2-1.097-.4-.798.1-.299.3.1.5-.1 0-.897.797-1.496 1.296-2.194-.1-.1-.299 0-.299-.3h.698c.1-.2-.299-.498.2-.498-.1 0-.2-.1-.2-.2.799-.499 1.597-1.097 2.395-1.496.798-.4 1.895-.6 2.693-.2-.2-.2-.1-.2.1-.2-.1 0 0-.2 0-.399 0 0 .1 0 .1.1.1 0 .2.1.3.1.099.1.199.1.199.1.1 0 .1.1.1.1.1-.2.299-.1.498-.1.2 0 .4.1.5-.1h-.3c.2-.2.1-.499 0-.698-.1-.3-.3-.599-.2-.799-.1.1-.299.1-.399 0-.1 0-.299-.1-.498-.2-.3-.199-.699-.298-1.098.1-.2-.1.1-.199 0-.299-.2.2-.399.3-.798.3v-.1c-.599.1-.998.2-1.496.3-.2 0-.5.099-.699.199-.3.1-.499.1-.898.3l.2.199c-.3.1-.4.1-.5.1-.099.498.7-.4.7.199-.3-.2-.799.1-1.198.399-.399.3-.798.598-1.097.399-.3.3.299.1 0 .4h-.2.2c-.2.199-.5.099-.599.099.1 0 .1-.2.2-.2-.4.1-.699.898-.798.998l.199-.2c0-.1.1-.2.1-.2a9.881 9.881 0 00-1.098 1.697c-.1.3-.299.599-.399.998-.1.299-.2.598-.1.997h.1c0 .898-.299.699-.399 1.597.1.199.1.498.1.698-.1-.3-.3.399-.499.1.2.997.2.498.699 1.097l-.2.2c.2.2.3.2.4.698-.2-.4-.3.3-.6-.1-.199.499 0 .898.1 1.197.1.3.3.5 0 .798.699.3.1-.897.3-.698.1-.2.498.3.498.599.1.299-.598.698-.299 1.496 0-.1-.1-.1-.1-.1 0 .3.4.5.3.898.399 0 .2.5.598.3l-.399-.599c.3.3.898.499.998 1.197-.1 0-.3-.1-.4-.2 0 .2.2.3.2.5-.399.199-.499-.699-.997-.998-.1.3.698.598.1.698.398 0 .398.2.498.4.1.199.2.498.499.598l-.2.1c.1.1.3.1.4.299l-.5-.1c.5.2.3.898.7 1.098-.6-.699.099-.4.099-.799.997.699-.2.998.798 1.796-.1-.1-.3-.598 0-.499.1.2.3.5.3.699.698.498.099-.3.498-.2 0 .4.4.2.698.4l-.2.199c.6.798.6-.3 1.098.399l-.598.1.399.2-.3.199c.5.1.6.2.998.598 0-.2.3-.399.698-.2.2.3-.299.1.3.4-.2.1-.4.2-.499-.2-.1.1-.2.1-.3.1.2.3.6.4.799.499l-.2-.2s.2 0 .5.1h.498c.1.1-.1.2-.2.2.2 0 .3 0 .599.1-.2.199-.2.398-.599.299l.898.1c0 .1.3.399.2.399.399.299 1.197 0 1.696.398 0 0 .1-.1.2 0 .299.1.498.3.797.4.3.1.6.2.898.1l.3.498c.498 0-.4-.598.498-.598.6 0 .2.399.4.498.299-.2.898-.498 1.396-.2-.299.1-.399.1-.598.1zm6.285-1.197c-.1.1-.3.398-.4.199.1-.3.2-.2.4-.2zm6.684-6.785c0 .1-.1.2-.2.3 0-.1.1-.2.2-.3zM39.528 8.796c.2.1.1 0 0 0zm-.499-.2c-.1 0-.1.1 0 .1 0-.1.1-.1.3 0-.1-.1-.2-.1-.3-.1zM24.663 23.86v.1c-.2-.1-.1-.1 0-.1z"/><path d="M49.106 27.95h-.2c0 .1.1.1.2 0zM47.31 9.894c.1.1.1.2.1.3 0-.1 0-.1-.1-.3zm-10.675-.698l.3-.1c-.1 0-.2 0-.3-.1 0 .1.1.2 0 .2zm-3.192-.799c0 .1-.1 0-.1.1l.1.1c.2 0 .3-.2 0-.2zm2.693 0c-.1-.2-.3-.1-.499 0 .1.3.3.1.5 0z"/><path d="M35.638 8.397c-.1 0-.1 0-.2.1 0 .1.1-.1.2-.1zm2.793.299c-.1-.1-.1.3-.1.2-.1.2.1 0 .2-.1.1 0 .2-.1-.1-.1zm-2.594-.997l.1.2.1-.2h-.2zm1.895-.1l-.399-.1s0 .1-.1.1c.2 0 .5.1.5 0zm-.498.1c-.1 0-.2 0-.3.1.1-.1.2-.1.3-.1zm4.389.498l.4.1c.1-.1 0-.2-.2-.2-.1 0-.2 0-.2.1zM40.626 7.1c.1.1.1.1.1.2l.1-.3-.2.1zm1.197.2c.1-.1.698 0 .2-.2-.1.1-.5.1-.2.2zm5.287 3.79l-.1-.1-.398.4.498-.3zm4.29 4.19c-.1-.598-.399 0-.399-.498-.2-.1 0 .399-.1.399.2.2.2.399.5.1zm-.598-.199l-.1-.1.1.1zm-18.257-2.394l.2.2-.1-.2h-.1zm.598-.2l-.1.4.3-.3c-.1-.1-.2-.1-.2-.1zm10.776 21.45c-.1-.2-.2-.1-.3-.1l.3.1zm-4.789 1.098h.1l-.2-.3.1.3zm-4.091.398h.499c-.4 0-.5-.499-.5 0zM23.366 20.07l.1-.2c-.1 0-.1.3-.1.2zm-.797.299v-.1l-.2.2.2-.1zm-.599-.2c-.1.399.199 0 .299.2v.1l.2-.3c-.2 0-.5.1-.5 0zm0-.998c-.1.2-.2.1 0 0 0 .1 0 .1 0 0 0 .1 0 .1 0 0zm0 .1c.1 0 0-.2 0 0zm-.3-.099l.1-.1c0-.1-.1-.1 0-.2-.1.1-.1.2-.1.3zm-.2.299c.1-.1.1-.1 0 0zm.2-.101l-.1.1.1-.1c-.1 0-.1.1 0 0zm0 0c0 .1.1.2-.1.3.2 0 .3-.3.1-.3zm.1 1.098v.1l.1-.1c0 .1-.1-.1-.1 0zm-.598-1.695c0 .1-.1.2-.1.3l.1-.1v-.2zm0 .398l-.2.1c.1 0 .1 0 .2-.1zm.099.699l.3-.2-.3.2zm-.399-1.197l.1-.2-.2.3.1-.1zm-.299 0c.1-.1 0-.3.1-.4-.1 0-.2.1-.3.2.2 0 .2 0 .2.2zm-.3 0l.1-.1-.1.1zm.599.499v-.3.3s-.1 0 0 0zm.3.398c-.1.1-.3.2-.2.4 0-.1 0-.2.2-.4zm-.4-.1c.1 0 .1-.1.2-.1l-.2.1zm-.398-.598c0 .1-.1.1-.2.1 0 .1.1.1.1.1.1 0 .2-.2.1-.2zm-.001.3c0 .1.1 0 .1 0 0-.1-.1-.1-.1 0zm.2-.2l-.1.1s.1 0 .1-.1c0 0 0 .1 0 0zm-1.596 1.197c.1-.2.299-.399.299-.1.2-.1.3-.798.399-1.197 0 .1-.1.2-.2.3 0 .1 0 .299-.1.498-.1.1-.1-.1 0-.2-.1.3-.299.3-.498.699l.2-.1s-.1 0-.1.1zm.898-1.296v-.3c-.1.1-.1.2-.1.2l.1.1zm.199.099c-.1.2-.2.3-.3.499.1 0 .2-.2.3-.2-.2 0 .1-.1 0-.3h.1s0-.099-.1-.099c.1 0 .1 0 0 .1.1-.1.1-.1 0 0 0 0 .1-.1 0 0 0-.1 0-.1 0 0l.1-.1h-.2c0 .1 0 .1.1.1zm.499 1.297l.1-.1c0 .1 0 .1-.1.2 0-.1.2-.1.1-.3v-.499c0 .4 0 .5-.1.699zm-.199-.599l-.2.1v.2-.1c.1.1.1-.1.2-.2zm-.599-.997l.1-.2s0 .1-.1.2c0 .1 0 0 0 0zm-.1 0l.2-.2-.1.1-.1.1zm-9.179-1.796s.1 0 0 0c.2 0 .4.1.6.1-.2-.1-.4-.1-.6-.1zm-.298-1.696l-.4-.2.4.2zm8.679 3.292c.1-.1.2-.1.2-.1-.2.1-.5.2-.2.1zm-2.594-1.197c-.2 0-.4-.1-.599-.1.2 0 .4.1.599.1z"/><path d="M18.977 18.373s.1 0 0 0c.2-.1.3-.1 0 0zm3.591-1.596s-.1 0 0 0c-.1.1 0 .1 0 0zm-3.691 2.494s-.1 0-.1.1c0 0 0-.1.1-.1zm-3.791-3.891c-.1-.1-.1-.1 0 0zm-4.789 2.295c.598 0 .598 0 .399.1l1.297-.1h-1.696z"/><path d="M10.197 15.58l-.399-.1c-.399-.2-.3-.2-.698-.3.499.2.499.2.499.3 0 0 0 .1.498.2h-.2c-.498-.1.5.2.3.2-.1 0-.2 0-.3-.1l.1.1h-.1v.099s.1.1.2.1h-.1c-.199 0-.299-.1-.199-.1-.3-.1-.3-.1-.3 0 .1 0 .2 0 0 0v-.1c-.398 0-.298.1-.498.1.1 0 .499 0 .599.1-.1 0-.1 0 0 .1h-.2l-.2-.1s.1.1.2.1h-.3c-.099 0 .2 0 .2.1-.1 0-.1.099-.1.099h.1-.1.1c.1 0 .1 0 .2.1.1 0 .1 0 .1.1 0 0-.1.1.1.1h-.2c.2.099.2.099.499.099l-.1.1c.1 0 .399 0 .798.1h.499c.2 0 .399 0 .499.1l.997.199c-.299 0-.798-.1-1.496-.2.1 0 .3 0 .399.1h-1.198.1-.598.1-.1.1-.3.1l-.1.1c.5.1 1.197.1 1.696.2h-.997c.399 0-.3-.1-.3-.1h-.299l.499.1c-.3 0-.2 0-.4.1.7 0 .6.099.899.099h-.5c-.498.1.999 0 .6.1h-.1c.3 0 .2.1-.1.1 0 .1.3.199 1.197.199h-1.297 2.195c.3 0 .599 0 .898.1.499 0 .898.1.898.1-.3 0-.798 0-1.297-.1h-2.594c-.1 0-.2 0 .1.1.1 0 1.197-.1 1.297-.1-.898.1-.4 0-1.197.1h1.596-1.497 1.497c-.3 0-1.197 0-1.597.1.3 0 0 .099.2.099h.3c-.1.1 2.294 0 2.394.1-.4 0-2.095 0-2.195.1h5.088-.4.6c-.998.1-3.193.1-4.69.1h-1.097.1-.898l.2.199c.997-.1 1.296.1 2.095 0l-1.397-.1h1.895c.599 0 1.098 0 1.198.1-.3 0-1.697.1-1.996.1.4 0 .898.1.699.1h-.599c-.2.1 1.397 0 .798.1 0 0-.898.199-.399.099.798-.2 3.791-.499 4.49-.599-.1 0-.799.2-1.098.3-.598.1-1.796.2-2.294.299.199 0 .498 0 .598-.1-.1 0-.698.1-.399.1.4-.499-.1-.2.4-.4.298 0 0 .1.199.1.399-.1 1.696-.299 1.995-.299-.2 0-.4.1-.499.1.1.1 0 .2.2.3-.1.1-.2.199-.5.199.1 0 .4-.1.4-.1-.3.2-.2 0-.699.2.3-.1.699-.1.898-.1.5-.2-.1-.1-.399-.1.699-.2 1.597-.399 1.996-.499.299 0-.4.2-.2.2.1.1 1.197-.499.898-.2l-.898.599c-.3 0 0-.2 0-.2l-.1.1c-.2.1-.299.1-.299 0-.2.2.4.2.4.499.099-.1.298-.1.398-.2h-.1c.2-.2.4-.2.4-.299.199-.1.498-.3.498-.2l-.2.3c.1-.1.1-.2 0-.1.1-.1-.199.4.2.1v-.2c.2-.1.5-.399.4-.299l.199-.3c-.3.4-.1-.099-.4.4.3-.4.1-.2.3-.499l-.1.1-.1.1-.1.1c-.199.199-.298.099-.398.199 0-.1.1-.1.2-.2l-.2.2c.2-.2.3-.3.499-.4.1-.099.2-.199 0-.099.1 0-.4.2-.1 0h-.4c-.099 0-.199 0 .1-.1h-.199l.4-.1c-.2 0 .298-.1-.1 0 .498-.1.598-.1.498-.1h-.2l-.598.1h-.499l-.598.1c-.5 0 .299-.1.1-.1h.1c.498-.1.498-.1.199-.1h-.699.2c-.3 0-.2 0 0 0h.3-1.398.799c-.699 0-.6-.1-2.195-.1h1.197l-1.596-.099c.598 0 .997 0 1.895.1-1.496-.1-.598 0-2.095-.2h.798c-.1 0-1.197-.1-.499-.1h.599c-.1 0-.2-.1.499 0-2.594-.299 1.097.1-.898-.1.598.1.898.1 1.496.2-.698-.1.898.1-.897-.1.698.1.997.1 1.396.2-.1 0-.598-.1-.2 0 .4 0 .6.1.899.1-.799-.1-2.295-.3-4.19-.499.897.1.698.1-.6-.1.6.1 1.298.1 1.597.2 0 0 .798.1-.898-.2.4.1.1 0-.1 0 0 0 .2 0-.1-.1h-.299c-2.095-.698-.498-.498-.897-.498h.199c1.097.1-.2-.1.3 0 .1 0 .299 0 .598.1l-1.297-.2c-1.397-.2-.898-.2-.3-.1.699.1 1.597.3 1.198.2l-.798-.2c-.5 0 .498.1 1.696.3 1.097.199 2.294.398 2.594.398.2 0 .399.1.498.1 1.697.3-1.596-.299-1.895-.299.898.1 1.895.3 2.394.4.4.099-.299-.1-.898-.2-.498-.1-.897-.2-.1 0-.698-.2-1.396-.3-1.795-.4-.1 0 2.494.4.598.1.2 0 .3.1.5.1-.4-.1-.6-.2-1.597-.4 1.896.4 1.497.3 1.097.2-.399-.1-.798-.2.799.1l.299.1c.3 0-.4-.1-1.098-.3.2 0 .5.1.599.2.698.1.599.1-.698-.3l.997.2c-.2-.1.2 0 .5.1.299.1.598.1.199 0 .1 0 .2.1.399.1-.4-.1.2 0 .598.1.4.1.4.1-.798-.3l-.598-.299h-.2c-.399-.1-.998-.399-1.496-.499.2 0 .997.3.997.3h-.1c1.297.498.699.2 1.597.498.299 0 1.297.2 1.596.2l-.898-.4h.2c.2.1.698.3.598.3.5.2-.3-.2-.399-.3.499.1.898.4.898.4h-.1c-.299-.2-.598-.4-.498-.3.199.1.498.2.498.2h.3l-.599-.3c-.2-.199.2 0-.499-.298 1.098.498.898.2 1.197.299-.299-.2-.2-.2 0-.2-.2 0-.698-.399-.498-.299.997.699.598.3 1.396.798-.499-.3.1-.1-.598-.598.2.1.299.299.598.399-.1-.3.599.2.699.1-.1-.1-.3-.2-.4-.4 0 0 .1.1.3.2.1.1.3.2.3.2s-.4-.6-.1-.2c-.1 0-.2-.2-.2-.2.399.2.499.1.798.1.2-.1.499-.1.798.4-.1-.2-.1-.2 0-.2 0 0-.1-.2-.1-.4 0 0 .1.1.1.2.1.1.1.2.1.2 0-.4.2 0 .2-.4l-.1.1c.1-.399-.2-.898-.3-1.496 0 .2-.2.1-.299-.1-.2-.2-.3-.3-.399 0-.1-.1 0-.2-.1-.3 0 .2-.1.3-.2.2v-.1c-.398.1-.598-.1-1.197-.299l.2.3c-.1 0-.2-.1-.3-.2.1.4.3 0 .5.4-.5-.5-.699 0-1.198-.6-.2 0 .3.3.1.3l-.2-.2.1.2c-.1 0-.399-.2-.498-.4l.1-.099c-.3-.2-.3.1-.4 0l.3.1c-.4.499-1.198.3-1.198.698l.2.1c0 .2-.4-.1-.599 0 .1.1.1.2 0 .2-.2-.2-.598-.3-.698-.5 0 .2.1.2.599.6l-.4-.2c.2.2.4.299.3.299-.2-.1-.599-.2-.798-.4-.599-.199-.5-.099-.5 0 .1 0 .1.1-.598-.199.798.5.798.3.998.4.399.199.598.399.399.399-.1-.1-1.397-.699-1.696-.699-.4-.1.2.2-.4 0 .6.3-.199 0 .6.4l.1-.1c.099.1.997.598.199.399-.2-.2-.4-.3-.4-.3-.299-.1 0 .1-.299 0-.897-.499.1-.2-.399-.499-.498-.2.3.3-.598-.1 1.097.6-.5-.1.299.4l-.499-.3c.1 0 .2.2.2.2l-.599-.4c.4.3-.898-.199-.798 0 .3 0 .798.3 1.297.5.399.299-1.696-.599-1.995-.5 0 0 .598.1.798.2-.1 0-.499-.1-.898-.2-.1 0 .698.2.998.3-.898-.2.1.2.299.3l-.698-.3c-.799-.1 1.296.499.498.4l-.798-.4.1.1-.798-.3c.2.1.3.2.2.2h-.2c.499.2 1.197.4 1.097.499-.399-.2-.598-.3-.499-.2-.399-.2-.897-.399-.299-.2-.2-.099-.399-.099-.598-.199-.5-.1-.2 0-.2 0h.2l.698.4c-.2 0-.4-.1-.499-.2 0 0 .3.1.3.2-.5-.2-.998-.3-1.198-.5l.499.3c-.2-.1-.599-.2-.798-.2-.3 0 .798.4.399.3.1 0 .1.1.2.1-.2 0-.699-.1-.2.1l-.698-.2c.1.1.897.2.997.399.1.1-.499-.2-.698-.2.3.1.798.3.3.2 0 0-.1 0 0 0zm-.598.499s-.1-.1 0 0c.2 0 .1 0 0 0zm.698.798c-.1 0-.1 0 0 0zm8.78 1.796s.1 0 .1-.1c0 .1-.1.1-.1.1-.1.1 0 0 0 0zm-.1-1.696l-.2-.1c-.1 0 0 0 .2.1z"/><path d="M13.29 19.072s.1-.1.2-.1c-.1 0-.2 0-.2.1zm6.485-.599c-.1 0-.1.1-.1.1l.1-.1zm-.3 1.697c0-.1 0 0 0 0l.1-.1c-.1-.1-.2 0-.1.1zm-.299-.998c-.1.2 0 .1 0 .1.2-.2.1-.1 0-.1zm.1.198c.1-.1 0-.1 0 0zm0-.797s.3-.2.2-.1c.3-.2-.4.2-.2.1zm-.499 1.297l.2-.2-.2.1v.1zm-.299-.4c.1.1.1 0 .1 0h-.1zm-.998-.398h-.2c-.1 0-.2.1-.1.1s.2 0 .3-.1zm-.598.598c0-.1.1-.1.2-.2l-.4.2h.2zm-.499-.1c-.1.1-.599.1-.4.1.2 0 .4 0 .4-.1zm-1.297-.897h.1l1.197-.2-1.297.2zm-4.889-.499c-.3.1.898 0 .499 0 .4 0 .3-.1.599 0h-1.098zm12.67-1.497v.4-.4c0 .1.1 0 0 0zM9.599 15.68h-.1l.4.1-.3-.1zm-.399-.599s.1.1 0 0c0 0 .6.2 0 0zM26.06 28.75v-.3c-.1.1 0 .4 0 .3zm-.898.798c.1.4.2-.1.3 0v.1-.3c-.1 0-.2.3-.3.2zm-.399-.799c0 .1-.1.1 0 0zm0 .001c.1-.1 0-.2 0 0zm-.199.1v-.2c0-.1-.1-.1-.1-.2 0 .2 0 .3.1.4zm.099.098c.1.1.1.1.1.3.1-.1.1-.3-.1-.3zm.599.998l.1.1-.1-.1c0-.2.1 0 0 0zm-1.098-1.197c0 .1.1.2.1.3v-.1c-.1-.1-.1-.1-.1-.2zm-.498.101c0-.2-.1-.3-.1-.4 0 0-.1.2-.1.3.1 0 .1 0 .2.1zm.399.398c0-.1-.1-.2-.1-.2l.1.2zm.399.199c0 .1-.1.3.1.5-.1-.2-.2-.3-.1-.5zm-.3.001c.1 0 0-.1 0-.2v.2z"/><path d="M24.165 29.547v-.1h-.1l.1.1zm-.499-.399c0 .1 0 .1-.1.2.1 0 .1.1.2 0-.1 0-.1-.2-.1-.2z"/><path d="M23.765 29.448s.1 0 .1-.1c-.1 0-.1 0-.1.1zm-.399-.3l.1.1c0-.1-.1-.2-.1-.1zm.399 0v.2s.1-.1 0-.2c0 0 .1.1 0 0zm-.399 1.796c0-.2 0-.4.1-.2 0-.2-.2-.898-.3-1.297v.3c.1.1.2.2.2.498-.1.1-.1-.1-.2-.2.1.3 0 .4.1.799l.1-.2v.3zm0-1.496c0-.1-.1-.1-.1-.3v.3h.1z"/><path d="M23.466 29.347c0 .2 0 .4.1.599.1 0 0-.2.1-.3-.2.1 0-.1-.2-.299.1 0 .1 0 0 0v-.1.1-.1l-.1.2s.1 0 .1-.1zm.898.998v-.1c.1 0 .1 0 0 .1.1 0 .1-.1 0-.2s-.2-.299-.2-.398c.1.2.2.299.2.598zm-.399-.399l-.1.1.1.2v-.1c.1 0 0-.1 0-.2zm-.998-.598l-.1-.2v.2h.1zm-8.081 2.394l.2-.1c-.1 0-.2.1-.2.1zm5.088-1.695c.1-.2.2-.6.1-.3l-.1.3s0-.1 0 0zm-3.591 2.294l-.1.1c.2-.1.3-.2.4-.3 0 0-.2.1-.3.2zm-1.796 1.397l.2-.2c-.1.1-.1.2-.2.2zm1.397-4.49l-.2-.1c-.1.1.1.1.2.1zm5.287.599l-.1-.1c.1.1.2.3.1.1zm-2.394-.1c-.1 0-.1 0-.2.1.1 0 .2 0 .2-.1zm2.195 0h.1c-.1-.1-.1-.2-.1 0zm1.297-.2c0-.1-.1-.1 0 0-.1-.1 0-.1 0 0zm-3.991-2.893c-.1-.1-.1-.1 0 0zm-1.397 6.884c.4-.4.4-.4.4-.3l.598-.898s-.2.3-.499.599c-.3.3-.499.599-.499.599z"/><path d="M15.485 30.445l-.4.2c-.398 0-.1-.2-.598 0 .499-.1.499 0 .4.1 0 .099-.1.299.398.099l-.3.2c-.598.399.7-.2.5.1-.1.1-.3.199-.4.199h.2c0 .1-.2.1-.2.1v.2c.2 0 .4-.1.5-.1-.2.1-.1 0-.3.1h.2c-.3.199-.599.298-.5.099-1.296.698.2 0-.598.598l-.1-.1c-.698.5-.598.4-1.097.899.3-.2 1.297-.898 1.497-.898-.1.1-.2.2 0 .1-.5.299-.4.299-.4.399l-.598.299c.1 0 .399-.2.698-.3-.1.2-.598.5-.997.799-.2.299.898-.599.798-.5-.3.3-.1.3.2.2-.3.3-.4.3-.6.4l.5-.3s-.2.1-.3.2c.2-.1.699-.5.798-.5.4-.199.1 0-.2.3-.298.3-.598.499-.199.3-.2.199-.399.299-.698.498.1 0 .1-.1.2-.1.498-.299.498-.299 1.197-.798l-.3.3c.4-.4 1.098-.798 1.597-1.197.2-.2.399-.3.498-.4l.5-.299c-.1.1-.3.3-.6.499.1 0 .1-.1.2-.1-.2.2-.598.499-.898.798l.3-.299c-.4.3-.898.698-1.198.998.1-.1.2-.1.2-.2-.1.1-.2.2-.3.2-.1.1.1-.1.3-.2l-.599.599.2-.4s0 .1-.1.1c0 .1-.1.1-.1.1.898-.598 1.896-1.397 2.395-1.696-.5.4-.699.599-1.197 1.098.498-.5-.5.299-.5.2 0 0-.199.298-.398.298l.798-.498c-.4.399-.2.299-.3.399.699-.599.699-.4.998-.599-.2.2-.499.499-.598.499-.4.499 1.097-.998.698-.499l-.2.1c.3-.2.3-.1.1.1.1 0 .698-.1 1.197-.699-.1.1-.598.699-.698.798l.998-.997c.498-.5.898-.998.898-.998-.4.499-1.098 1.696-1.497 1.995 0 .1 0 .1.3-.1 0-.1.398-.698.498-.797-.399.598-.3.299-.399.798 0-.1.599-.898.599-.898-.1.1-.5.698-.599.798 0 0 .2-.2.3-.4.199-.199.299-.398.299-.398-.1.1-.4.598-.4.798.1-.1.2 0 .3-.1v-.1c.2.1.698-1.097.898-1.097-.1.2-.4.898-.3.998.1-.2.3-.599.5-1.098.199-.399.398-.898.498-.997v.199s0-.1.1-.1c0-.1.1-.1.1-.1-.1.3-.2.699-.4 1.098-.199.399-.398.798-.598 1.097 0 .1-.1.2.1.2 0 .2-.2.3-.2.3h.3c.1-.4.399-.5.399-.799l-.2.2c-.1.1-.2.299-.2.299.1-.4.5-1.197.699-1.197 0 .1-.2.698-.2.898.1-.1.3-.3.3-.2l-.1.2c.1.1.3-.599.399-.2 0 0 .2.499.2.2-.1-.4-.1-1.796 0-2.096 0 0 .1.4.2.6.099.298 0 .797.099 1.096v-.299c.1.1 0 .3.1.3 0-.4.2 0 0-.3.1-.1.1.1.2 0-.1-.2-.1-.798 0-.997 0 .1.099.2.099.299.2 0 .3.2.399.1 0 .1.1.2.1.399v-.2c.2.3-.1.1.1.4 0-.2.1-.3.1-.5-.1-.299-.2 0-.2.1-.1-.499-.1-.997 0-1.197.1-.1.1.3.1.2.299 0 0-.898.299-.6.1.3.1.6.2.799-.1.1-.2-.2-.3-.1l.1.1c0 .1-.1.2-.1.1.1.3.4 0 .599.2v-.3.1c-.1-.2 0-.4-.1-.499 0-.2.1-.499.2-.4l.1.3c0-.1-.1-.2-.1-.1 0-.2.299.4.199 0l-.1-.2c0-.199.1-.598.2-.498-.1-.3 0 0-.2-.3.2.5-.3 0 0 .5-.2-.4-.2-.2-.3-.5 0 .1.1.2 0 .2v.1s.1.1.1.2c0 .299-.1.299-.1.399-.099 0 0-.1-.099-.2v.2c-.1-.2-.2-.4-.1-.599h-.1c-.1-.1-.199-.2-.199 0-.1 0-.1.3-.1.1l-.1.2v-.1c-.199 0-.199.498-.498.1 0 .1-.1.199-.2.1l-.1-.2c-.1.1-.299-.2-.2.1 0-.1-.099-.2-.099-.2h-.1v.399s0 .1-.1.2v.299c-.1.2-.1-.2-.199-.1 0-.1 0-.1 0 0 0-.3 0-.2-.1 0-.1.1-.2.3-.1.1-.1.1-.1.1 0 0v-.1.1l-.1.1.1-.3c0-.1-.1.2-.2.4 0 .099-.099.099-.099.199.2-.499-.2.2.1-.4-.2.3-.2.2-.599.799 0-.1.1-.1.1-.1 0-.1 0-.1-.1.1l.3-.4s-.1.1-.2.3c-.1.1-.2.3-.2.3.1-.2.2-.4.5-.699-.4.499-.2.2-.699.698l.2-.299-.2.2c.2-.3.1-.3.1-.3-.1 0-.2 0 0-.2-.898.899.399-.398-.4.3.2-.2.3-.3.6-.499-.3.2.299-.299-.4.3.3-.2.4-.3.5-.4-.1 0-.2.2-.1.1.199-.1.199-.2.299-.299-.1 0-.898.698-1.696 1.297-.1-.698-.1-.698-.699-.2.2-.2.5-.399.599-.498 0 0 .2-.3-.499.2.2-.1 0 0-.1 0 .1-.1.1-.1.1-.2l-.1.1c-.798.598-.1.1-.2.1l.1-.1c.6-.5-.199.1.5-.4l-.5.3c-.498.299-.299.2-.1 0 .3-.2.6-.4.4-.3l-.3.2c-.299.2 1.397-.898 1.497-.998.1-.1.1-.1.2-.1.598-.399-.6.3-.699.4.3-.2.798-.5.898-.5.1-.1-.1.1-.3.1-.199.1-.299.1 0 0-.199.1-.498.3-.598.3 0 0 .898-.5.2-.2.1 0 .1-.1.2-.1-.2 0-.2 0-.6.1.699-.3.5-.2.4-.2-.1 0-.3 0 .299-.199v-.1h.1c.1-.1-.1 0-.4 0h.2c.3-.1.2-.1-.2-.2h.3c-.1 0 .1-.099.2-.099s.2-.1.1-.1h.1c-.1-.1.099-.1.298-.1.1 0 .2 0-.299-.2l-.1-.099-.1-.1c-.1.1-.398-.2-.598-.2 0-.099.399 0 .399.1h-.1c.5.3.3-.1.599.1.2-.299.598-.498.798-.798l-.4-.2.1-.099c.1 0 .3.1.2.2.2.1-.1-.2-.2-.3.2-.1.4.3.4.3v-.1c-.1-.1-.3-.2-.2-.3.1 0 .2.1.3.1l.1-.1-.3-.1c-.1-.1.1-.1-.3-.199.5.2.4-.399.6-.399-.2-.2-.1-.3 0-.399-.1 0-.4-.2-.3-.2.598.4.399 0 .898.2-.4-.1.1-.3-.4-.399.1 0 .3.1.4.2-.2-.3.399-.3.399-.5-.1-.1-.2-.1-.3-.199l.5.1c0-.1-.5-.3-.1-.2-.1 0-.2-.1-.2-.1.698-.199.1-.997 1.098-.997-.2 0-.2-.1-.2-.1-.1 0-.2-.1-.3-.2h.4c-.3-.199.1-.199-.2-.398v.1c-.299-.3-.898-.3-1.396-.6.399.3-.699-.099-.2.3-.1 0-.1-.1-.3-.2.2.1.2.2.1.2-.1.2-.299.2-.598.4l.2.099h-.2c.3.3.1-.1.499.1-.5-.2-.2.399-.798.1 0 .1.299.1.2.199l-.2-.1.2.1c-.1 0-.3 0-.4-.1v-.1c-.2 0 0 .2-.1.2h.1c0 .3-.3.499-.1.798h.1c.1.3-.2.1-.2.3.1.1.1.199.1.199-.1-.1-.299-.1-.399-.2.1.3.1.2.5.5l-.2-.1c.1.1.2.199.2.299-.1-.2-.3-.1-.5-.3-.499 0 .3.5-.399.3.499.399.4 0 .499.1.2.1.3.299.3.299 0 .1-.7-.3-.799-.1-.2 0 .1.2-.1.2.3.2-.1.1.3.299v-.2c.1.1.498.5.2.5-.1-.1-.2-.1-.2-.2-.1 0 0 .1-.1.1-.4-.2 0-.2-.2-.5-.2-.1.2.3-.2 0 .5.4-.199.1.2.4l-.2-.1s.1.1.1.2l-.299-.2c.2.2-.299 0-.2.2.1-.2.3.1.5.1.2.398-.699-.2-.699.099 0 0 .2 0 .3.1h-.3c0 .2.3.1.4.299-.3-.1.1.1.1.3l-.2-.1c-.2.1.498.299.2.399l-.3-.3v.1l-.3-.2c.1.3.1.3-.1.4.2 0 .4.2.4.299-.2 0-.2-.1-.3 0-.299-.3-.498-.4-.199-.4-.1 0-.1-.099-.2-.099-.2 0-.2.2-.2.3 0 0 .1 0 .1-.1 0 0 .2.399.2.299-.1 0-.2 0-.3-.1 0 .1.1.1.1.2-.199-.1-.498-.1-.498-.2 0 0 0 .1.1.2 0 .1.1.2.1.2-.1 0-.4.099-.4 0-.2.099.3.398 0 .598 0 0 .1 0 .1.1-.1.2-.598.399-.3.498l-.598.2c0 .1.699-.3.798 0 .1.1-.498.2-.598.2.2.1.698.1.1.299-.2 0 0-.1-.1-.1zm-.699 1.796c-.1 0-.299 0 0 0 .4-.3.1-.2 0 0zm.998.798c-.2.1-.2 0 0 0 0-.1 0-.1 0 0zm6.185-3.292c-.1-.1-.1-.1 0 0zm.1.1v-.1.1zm-1.895-2.694c-.1-.1-.1 0 0 0z"/><path d="M14.786 33.638c.1-.1.2-.1.2-.2l-.2.2zm5.887-1.198l-.1-.1c0 .1 0 .1.1.1zm1.895-3.192v.2c.1-.1 0-.2 0-.2zm1.098 1.497c0-.1 0 0 0 0v-.2c-.1 0-.1.1 0 .2zm-.799-.699c.1.2.1.1.1.1 0-.3-.1-.2-.1-.1zm.1.099c.1 0 .1 0 0 0 .1-.1.1 0 0 0zm-.797-.497v-.2c0-.3-.1.4 0 .2zm.897 1.197l-.1-.3v.2l.1.1zm-.499-.101l.1.1v-.1c0-.1-.1-.1-.1 0zm.399.2v-.1h-.1l.1.1zm-1.297-.1v.1c0 .1 0 .2.1.1-.1-.1 0-.1-.1-.2zm.5.699c0-.1-.1-.1-.1-.2l.1.3v-.1zm-.3.099c0 .1-.1.3 0 .3.1-.1.1-.2 0-.3zm-3.492 1.796c.1.1.2-.4.3-.3.099-.199-.1-.1 0-.299-.1.2-.1.1-.3.599z"/><path d="M18.677 32.84l.1-.1c0 .1 0 .1-.1.1zm3.492-9.678l.3.2-.3-.2c.1.1.1 0 0 0zm-8.779 9.977l.1-.1c.2 0 .2-.1.3-.1l-.4.2zm1.297-1.696l.498-.2-.498.2zm.099-1.198v.2c0-.2.6-.3 0-.2zm17.56 8.182c0-.2-.2-.1-.3-.1.1.3.4.1.3.1zm.698 2.793h-.1l.3.4-.2-.4zm.498 2.594c.3-.3-.299-.898-.2-1.397l.1-.1-.399-.2c.2.6.5 1.298.5 1.697zm-.399 1.696c.1-.1.2.3 0-.3v.1c-.1 0-.1 0 0 .2zm-.099-.3c-.1-.3-.1.2 0 0zm.498 1.198l-.299-.3c-.1.1 0 .4-.1.3.3.399.3.299.4 0zm.4.299l-.1-.2c-.1.1 0 .1.1.2z"/><path d="M33.542 46.208l.3.4c0-.1.2-.1-.1-.2.1-.1 0-.1-.2-.2zm0-.299c0-.2 0-.5.2-.2-.3-.599-.499-.399-.2.2zm.499-1.996v-.299l-.2-.2c.1.1 0 .5.2.5zm.199 4.789c.1 0 .2-.2.2-.299l-.2-.2c.1.2.1.4 0 .5z"/><path d="M34.44 48.403l.2.2.2.2c-.2-.4-.3-.4-.4-.4zm-.1-1.796l-.498-.598.598.698-.1-.1zm.599 3.492l-.3-.1.5.3-.2-.2zm.599.998c-.2-.1-.1.399-.3.2.2.199.4.398.699.498-.2-.2-.3-.399-.4-.698zm.699.898c-.1-.1-.2-.1-.3-.2.1.1.2.1.3.2zM35.039 49.4c0 .1-.1.2-.1.4l.1-.3c.1 0 .1-.1 0-.1zm.1.1c.1.2.1.3.1.3.1 0 0-.1-.1-.3zm-.1-.2c0 .1 0 .1 0 0 .1.1.1 0 0 0zm-.499-1.695c.2.2.499.599.499 0-.1 0-.1.3-.5 0zm.699 1.397l-.1-.4c-.1 0-.1.1-.2.1l.3.3zm.199.2l-.2-.2.1.2h.1zm.598 1.995c.2.1.3.299.4.498-.1-.2-.2-.498-.3-.698-.1 0-.2 0-.1.2z"/><path d="M36.137 50.998c-.1-.2-.2-.3-.3-.3l.3.3c.1 0 .1 0 0 0zm.598 1.496c0-.1 0-.2-.1-.3 0 0 0 .3.1.3zm-1.098-1.996c-.1.1 0 .1 0 0zm0 0c.1.1.2.1.3.1-.1 0-.2-.1-.3-.1zm3.891 2.594c-.2.1-.698-.1-.698-.599-.4-.2-.798.4-.898.998.1-.1.2-.1.499.1 0-.2-.4-.898 0-.799.399.4.2.4.3.699.099-.4.797.3.997-.1 0 0-.1-.1-.2-.1-.1-.1-.2-.1-.2-.1s.2 0 .2-.1zm-2.195-.299l-.1-.1c.1.2.1.399.1.698.3.2.4.2.5.1 0 0-.1-.2-.3-.4-.1-.099-.2-.298-.2-.298zm-.499-.699c.3 0 .6.3.699-.1-.3-.399-.4-.2-.599-.399.4.599-.399-.1-.1.499-.1-.1-.199-.2-.299-.399.1.1.1.3.2.399 0 0 0-.1 0 0h.1c-.1 0-.1 0 0 0-.1 0 .1.2 0 0h-.1l.598.599c-.2-.2-.299-.3-.498-.599zm-1.097-4.19s.1.1 0 0zm0 .299c-.1 0-.2 0-.2-.2 0-.199.1 0 .2-.099-.1-.1-.3-.3-.3.1h.1c.1.3 0 .798-.1.798.2-.1.3-.3.3-.599zm.499 1.896l.499.499v-.4l-.1.1c-.2-.299-.3-.199-.4-.199zm1.596 3.591l-.3.1.6.1-.3-.2zm.599.699l-.2.1h.2v-.1zm37.611-10.076c.1-.1 0-.1 0 0zM58.783 62.07c.3.2.698.5.599.2l-.1-.2h-.5zm12.77-7.581h-.1v.3c0-.1.1-.2.1-.3zm-.599-.799l.4-.1c-.1-.1-.2 0-.4.1zm5.488-17.957l-.3-.2c.1.4.2.2.3.2zM45.913 59.976c.2.2.4.299.499.399-.2-.3-.3-.5-.499-.4zm32.923-15.862c0-.1-.1-.2-.1-.2 0 .1 0 .2.1.2zM47.21 60.674l-.1-.1c-.2 0-.399-.1-.598-.199.1.2.399.4.698.3zm2.794-34.618c.1 0 .2.1.2.2 0-.1-.1-.1-.2-.2zm-8.979 31.027c-.2-.2-.1 0 0 0zm8.48 2.793c-.1-.1 0 0 0 0z"/><path d="M40.825 56.783c0 .1.1.2.1.2.1 0 0-.1-.1-.2zm0 .1c0-.1-.1-.1-.1-.1-.1 0-.1 0 .1.1zm.4.3c-.1-.1-.2-.1-.2-.2v.1s.1 0 .2.1zm29.63-24.343s-.1 0 0 0c-.2.1-.1.1 0 0zm-7.383 25.24c-.1.4-.3.4-.499.4l.4.598v-.5c0-.199.099-.498.099-.498z"/><path d="M76.74 39.823l-.199.4c-.3-.5-.2-.899-.499-.5.4.1.4.5.4.898 0 .4-.1.798.299.898l-.2.3v-.2c-.399.499.499.499.2 1.197-.1.2-.2.4-.3.2v.599c-.1.199-.2.099-.1-.1l-.199.798c.1.2.2.498.2.598-.2.2 0-.1-.2-.1v.599c-.3.1-.3-.3-.2-.599-.798.2.1.4-.698 1.198l.1-.5c-.499.1-.499.5-.898.899.2 0 .998-.699.998-.1-.1.1-.2.3-.2.599-.3-.1-.3.199-.399.498l-.3-.2c0 .4.1.4.2.7-.2.398-.499.298-.798.298-.399.5.599-.2.3.5-.2.199-.3.398-.4.698-.1.2-.1.498-.2.798-.298.299-.199-.2-.298-.1l.1.399c-.1.1-.1 0-.1 0-.1.3.299.2.1.698.199.3-.998.4-.998 1.098-.2 0-.1-.2-.3-.2-.299.798-.299.599-.399 1.397 0 0-.1.1-.299.1-.1.1-.3.1-.3.1.5-.1.4.498.2.997h.5l-.4.698c-.1 0-.1-.1-.2-.299v.2c-.299.1-.299-.2-.299-.4h.3c0-.299-.1-.598-.3-.698 0 .1 0 .2-.1.2 0-.1 0-.1-.1-.1 0 0 0 .1-.1.2l-.398-.2.1.1-.4.2-.398.199-.3 1.197c-.2.4-.399.798-.798 1.197.1-.399-.2-.399-.399-.698.4.1.599-.599 1.097-.898-.2.2-.299 0-.299-.1 0 0-.1.2-.3.4-.099.199-.298.398-.298.398-.1-.2-.3-.1-.599 0 .2.2.1.4-.1.5-.2.199-.499.299-.598.498-.1-.2-.1-.399.299-.598-.698-.1-.3.897-.898.897.1-.1.2-.1.2-.2-.1.3-.799.5-.799.3l.1-.1c-.399.1-.898.4-1.297.699-.399.299-.798.598-.798.798 0-.1-.1-.599-.1-.699 0 0 0 .1-.1.3-.1.2-.199.399-.299.698l-.399.998c0-.4-.798-1.197-.2-1.596-.199 0-.398 0-.797.299.1 0 .498.499.299.598-.599-.299-.4-.1-1.097-.399.199 0 .199.699-.1.798 0-.1-.2-.598-.1-.698 0 0-.1.2-.3.4-.1.199-.299.398-.299.398.2-.2-.1-.499-.299-.698.1.1-.598.1-.798.2l.3.1c-.799.099-.7.997-1.597 1.097.1-.1.2-.799-.3-.898l-.498.997c-.3.4-.599.799-.998.898l-.2-.2s-.199.1-.299.1c-.2.1-.299.1-.299.1.4-.499 1.397-1.596 1.896-1.995-.3-.1-.1-.2-.599-.2-.2-.2.2-.299.4-.299H55.89c.1.4-.798.4-.798.698l.598-.2.599-.199c0 .2-.1.5-.4.699-.299.2-.698.399-1.097.3-.2-.2.2-.7.2-.8-.1.1-.699.2-.798.1l.299-.199c-.4-.2-.698.499-1.197.1-.2 0-.5-.499-.5-.3.2.5.2 1.796-.099 2.096 0 0-.3-.1-.499-.3-.299-.2-.498-.399-.598-.498-.2-.4.598-.699.399-1.098 0 .1-.2.2-.3.2-.199-.1.1-.3-.299-.3-.1.4-.798-.2-.3.3-.398 0-.398-.1-.897-.3.1.3-.599.699-1.097.699.1-.1 0-.2 0-.3-.4-.1-.699-.299-.998-.498-.3-.2-.599-.3-.898-.5 0-.099-.3-.398-.1-.498-.1 0-.299.1-.498 0-.3-.499.498.2.399-.3-.1.2-.699 0-1.098 0-.1.4.699.4 1.098.4-.2.399-.998.698-1.796.399-.699-.2-.1-.4-.2-.4-1.097-.698-1.397.2-2.095-.698-.2-.498.3-.498.4-.698.498.2.598.599.897.798l-.3-.399c.2 0 .5.2.7.3-.2-.4-1.797-1.198-2.295-1.996-.2 0-.5-.1-.5.1l.3.2c.1.399-.698-.1-.399.199-.4-.1-.998-.3-1.297-.798l.2-.3c-.1.1.1.4.299.4-.3-.1-.4-.898-.798-.799 0 0 0 .1.1.2 0 .1.1.2.1.2-.4-.2-1.098-.3-1.397-.799-.1.4.1.1.1.599.1-.599.997.998.897.3 0 .598.4.598.5 1.296.099-.1 0-.3.298.1h.1c0-.1-.1-.2-.1-.3.2 0 .4.1.599.2l.599.3c.2.2-.2 0-.1.2l.399.099c-.1.2.3.798-.3.499l.5.399c.199.299.598.598.897.698.2.2.699.1.4.2l.897.299v.1c.4.2.798.399 1.297.498.499.2.898.4 1.297.799.3 0 .599.1 1.097.299v.2c.4.1 1.098.598 1.297.399.1.299.599.498 1.098.598.499.1 1.097.1 1.397.2l.1-.3c.498.1.897 0 1.496 0v-.299c.499-.1 1.297.3 1.995.3-.1.1-.3.1-.399 0 .499.299.998.199 1.397.1.499-.1.898-.3 1.396-.1.2-.1.4-.1.5-.1h-.1.1c.1 0 .199.1.299.1-.1-.1-.2-.1-.3-.1.2 0 .4-.1.599-.2l.1.3h.1c.299.1.199-.2 0-.3.1-.1.199-.1.299-.2.299.4.598-.299.898.2.1-.2 1.097-.399 1.097-.898 0 .1.1.1 0 .1.3 0 .499 0 .698-.2l.2.3.399-.599c.4.1.599.2.3.499.698-.699.598-.3 1.097-.998l.1.2c.199-.1.498-.5.698-.4.399.1.997-.199 1.696-.598.399-.2.798-.399 1.097-.599.4-.199.798-.398 1.098-.498-.599-.4.698-.2.499-.599.199.1.399 0 .299.3.499-.5 1.097-.5 1.197-1.198.2.1 0 .3.1.3 0-.1.1-.3.2-.2.099 0 0 .2-.1.3.598-.5.299-.998.1-1.298.398-.1.498-.299.498-.698.2 0 .499 0 .2.3.1-.1.498-.3.698-.6.3-.299.499-.598.3-.698.1 0 .299-.299.299-.299.399-.399.399-.499.798-.998l-.1.1c-.2-.399.2-.399.399-.898.798-.798.1-.499.998-1.197l-.3-.1c-.399-.399.798-.698.898-1.297l-.2.1c0-.2.3-.3.6-.399.299-.1.598-.2.797-.399.1 0 0 .1 0 .3.699-.7-.299-.3-.1-.899.2 0 .4.3.6-.1.199-.199-.1-1.496.398-1.895-.2.1-.399.2-.399-.2.1-.498.898-1.097.5-1.596l.099-.1c0-.398 0-1.197-.2-1.496.5-.1.5-.698.4-1.197 0-.499-.2-.998.299-.998v-1.097h.1c.1-.699-.2-.998-.4-1.197.1-.2.1 0 .2 0 .2-1.098.1-1.197-.4-1.996l.3-.1c0-.1-.1-.199 0-.398v-.6c0-.498 0-1.096-.3-1.595 0 0 .1 0 .1.1-.299-.5-.199-1.297-.398-1.896-.1-.4-.2-.898-.4-1.197-.199-.3-.399-.5-.598-.4 0 0-.1-.199-.3-.398-.1-.2-.299-.3-.299-.3.2.599.1.699 0 .699s-.299 0-.299.299c-.1-.1-.1-.499-.1-.698 0-.3 0-.4.2-.2v.1c.2-.2.1-.599-.1-.998l-.1-.2s-.1 0-.1.1c-.1 0-.199.1-.199.1-.1.1-.2 0-.2-.1-.498.4-1.097.699-1.596 1.098l-.399.3c-.1 0-.2.099-.2.099l-.199.1-.2-.3-.598.3c-.2.1-.4.1-.599.2-.399.099-.798.298-1.197.398l.3.3s-.1.1-.3.1c-.1 0-.3.1-.3.1-.199 0-.298-.3.1-.3-.299-.2-.598.399-.598.499-.798.1.2-.599-.1-.5l-.299.1h.1c-.2.2-.2.4-.699.5-.299 0-.2-.2-.299-.2h-.2l-.698.1.3.299c-.3.2-.699.1-.3.399-.1-.1-.399-.2-.698-.2h-.998c-.3 0-.698.1-.898.1-.299 0-.499 0-.499-.1-.498.2-.897.2-1.496.2.1.1.2.499-.3.399.2-.698-.897-.399-1.197-.998.1.2-.199.2-.498.2-.3 0-.599 0-.4.3-.398-.1 0-.3-.199-.5-.997.1-1.995-.698-3.093-.898-.1.1.1.3-.2.3l-.398-.699c-.2 0-.4.5-.699 0 0 .1.1.2-.1.2-.997-.698-1.995-1.197-3.092-1.796a7.538 7.538 0 01-1.397-1.097c-.399-.4-.798-.898-.997-1.497.1.4-.1.2-.3.1.1.1-.2.2-.299.3 0 0-.1-.2-.2-.5-.1-.1-.1-.199-.1-.299v-.2c-.398.1-.698-.797-.997-.698l.2.2c-.599-.1-.4.997-.799 1.297.3 0 .4.399.599.798.2.399.4.798.898.798.1.2-.2 0-.2.2.3 0 .5.2.799.498h-.1c.499.4.898.699 1.197 1.098.399.399.798.698 1.397 1.197v-.3c.299.2.299.3.399.5.498-.1-.798-.5-.2-.699 0 .798 1.995 1.098 1.995 1.796.4.2 0-.3.4-.1l.1.2.199-.2c.3.2.399.4.3.499-.1 0-.2 0-.3-.1.3.3 1.197.4 1.297.5l-.4-.3c1.298.399 2.894.997 4.29.898l-.1-.1c.5 0 .7.1.899.1.2.1.399.2.997.2.2-.1.5-.1.798-.1-.299.1.5.299.1.498 1.098-.2.599-.2 1.297-.698l.2.2c.2-.2.3-.3.798-.4-.4.2.399.3-.1.599 1.197.399 1.696-.599 2.295 0 .2-.3 0-.4-.3-.3-.299 0-.598.1-.399 0-.299-.199.4-.398.699-.498.299-.1.698.598 1.596.399-.1 0-.1.1-.2.1.4.1.599-.3 1.098-.2.1-.399.499-.1.499-.598l-.798.299c.399-.3.698-.898 1.496-.898 0 .1-.2.3-.3.399.3.1.4-.2.7-.2.099.5-.899.4-1.298.898.3.1.898-.598.698 0 .1-.399.3-.399.6-.399.298-.1.598-.1.797-.498l.1.299c.1-.1.2-.3.4-.3l-.7.5c.4-.5.998-.1 1.397-.5-.498.3-.598.2-.598.1s0-.299-.2-.299c.5-.4.699-.4.998-.3.1 0 .3.1.499.1.1 0 .2 0 .3-.1h-.1c-.1 0-.2 0-.1-.199h.2c.099 0 .099.1.099.1.1-.1.1-.2.1-.3 0-.1-.1-.1 0-.299.1.3.1-.299.399-.498l-.1.399c.2 0 .2-.2.3-.5 0-.099 0-.099.099-.199 0-.1 0-.1.1-.1 0 0 .1.1.1.3l-.3.299.1.1s0 .1-.1.2c0 .1-.1.199-.1.199.2-.1.2.1.2.3.1-.2.399-.4.499-.1-.1.299-.2.1-.1.299-.2 0-.399.1-.2-.2-.1 0-.199.1-.199.1-.1.1-.1.2 0 .2 0 .1.1 0 .1.199v-.1h.1c.1.1.1.2.199.2.2.2.3.399.3.399-.1.2-.2.1-.3 0 .1.2.2.2.3.499-.2 0-.4.1-.6-.3l.4.699c-.1.1-.2.498-.3.399 0 .499.6.997.5 1.596 0 0 .1.1.1.2 0 .299-.1.598-.1.798 0 .299 0 .598.199.898l-.4.399c.1.498.5-.5.7.399.099.598-.3.2-.4.399.2.299.599.898.2 1.396v-.299zm-1.197 6.385c0-.1-.1-.399.1-.499.2.3.1.3-.1.5zm-5.088 8.58c0-.1.2-.2.3-.2 0 .1-.1.2-.3.2zM42.82 58.18s.1 0 0 0c.3.2.2.1 0 0zm-.399-.499c-.1 0-.1 0 0 0l.2.2s0-.1-.2-.2zm26.04-26.138h.099c-.2.2-.1.1-.1 0z"/><path d="M71.054 53.79c.1 0 .1 0 .1.1 0-.1 0-.2-.1-.1zm-18.955 5.587c.1.1.2.1.2.2 0-.1 0-.1-.2-.2zm-12.671-3.591s.1.1.2.1c.1.1.2.1.2.1-.2-.1-.2-.2-.2-.3-.1 0-.1.2-.2.1zm-1.097-3.791c-.1 0-.1-.1-.1-.1h-.1c.1.2.3.3.2.1zm1.497 2.893c.1-.2-.1-.3-.3-.5-.3.2 0 .3.3.5zm-.399-.598l-.2-.2c-.1.1.1.1.2.2zm2.194 2.992c-.1-.1-.3.2-.3.1-.199.1.999.299.3-.1zm-1.396-3.092l-.2.2h.3l-.1-.2zm1.396 1.596l-.299-.4h-.2c.3.3.5.5.5.4z"/><path d="M41.225 55.487c-.1-.1-.2-.2-.3-.2 0 0 .2.1.3.2zm-.599-.998l.1.1.2.3s-.1-.1-.1-.2l-.2-.2zm4.988 4.09s.1 0 .2.1c.1 0 .199.1.199.1.1-.1 0-.2-.2-.2-.1 0-.2-.1-.2 0zm-.898-1.397c.1.1.1.2.1.3l.2-.3h-.3zm1.297.599c.1-.1.698.1.2-.2-.1.1-.6 0-.2.2zm6.584 2.694h-.1v.498l.1-.498zm6.286-1.397c-.599-.1-.1.399-.599.2-.1.199.4.1.3.199.299-.1.498 0 .299-.4zm-.299.499c-.1 0-.1.1-.2.1.1-.1.1-.1.2-.1zM49.405 24.86l-.1-.3v.2l.1.1zm-.698-.3l.2-.3h-.4c.1.1.2.2.2.3zm25.839 22.247c.2 0 .2 0 .3-.2l-.3.2zm1.496-8.181c0 .2.1.3 0 .499 0-.4.4-.599 0-.499zm-3.791 35.616s.2-.1.3-.1c-.1 0-.4.1-.3.1zm-.698-.299l.1-.1-.3.1h.2zm-.199-.499c-.4.2.1.2 0 .3h-.1l.3-.1s-.3-.1-.2-.2zm.698-.599c-.1.1-.1 0 0 0 0 .1 0 .1 0 0zm0 .1s.1-.1 0 0zm-.2-.2h.2c.1 0 .1-.1.1-.1-.1-.1-.1 0-.3.1zm.001 0h-.1c-.1 0-.3.1.1 0-.1 0-.2.1 0 0zm-.1.1c-.1.1-.1.1-.3.1.2.1.4 0 .3-.1zm-.799.698c0 .1.1 0 0 0zm.999-1.296c-.1 0-.2.1-.3.2h.1c0-.1 0-.2.2-.2zm-.3.099h-.2c0 .1.1 0 .2 0z"/><path d="M71.154 72.945h.4l-.4-.1v.1zm.698-.997l.2-.1-.3.1h.1zm-.1-.2c.2 0 .2-.1.4-.2h-.3s0 .1-.1.2zm-.299.399l.2-.1-.2.1zm-.199.498c-.1 0-.3 0-.5.1.2 0 .3-.1.5-.1zm-.1-.299v.1c.1 0 .1-.1.2-.1h-.2zm.2-.598c-.1 0-.1 0-.2-.1v.2c.1 0 .2 0 .2-.1zm-.2.199c0 .1 0 0 .1 0h-.1s0-.1 0 0zm.199-.499l-.1.1c.1 0 .2-.1.1-.1zm-1.795.3c.2-.1.399-.1.2.1.199 0 .897-.3 1.196-.5-.1 0-.2.1-.3 0-.099.1-.199.3-.398.3-.1-.1 0-.1.1-.2-.2.1-.4 0-.798.2h.2c-.1.1-.2.1-.2.1zm1.496-.299c.1 0 .1-.1.3-.2h-.3v.2z"/><path d="M71.154 71.648c-.2.1-.4 0-.599.2.1.1.2 0 .3 0-.1-.1.199 0 .299-.2 0 .1 0 0 0 0 .1 0 .1 0 0 0 0 0 0-.1 0 0h.1l-.2-.1.1.1zm-.699 1.097h.1c-.1.1-.1.1-.1 0 0 .1.1.1.2 0l.3-.3c-.2.1-.4.2-.5.3zm.301-.499l-.2-.1-.2.1.1-.1c0 .2.2.1.3.1zm.398-.997l.2-.1-.3.1h.1zm-1.696-4.189c.2-.1.4-.3.2-.2l-.2.1v.1zm-3.492-1.897l.1-.1c0 .1 0 .1-.1.1zm-1.995-3.691l-.3.1c.1.1.2 0 .3-.1zm6.285 7.981c.1-.1.1-.1.1-.2-.1.1-.3.3-.1.2zm-2.993-7.483h-.2c.1.1.1.1.2 0zm3.093 7.184c0 .1.1.1.1.1 0-.1.1-.1-.1-.1zm.499 1.197c.1.1.1 0 0 0zm-4.39-3.292c.3-.1.3 0 .2 0l.598-.3-.798.3z"/><path d="M64.47 62.27l-.2.2c-.4 0-.3-.1-.499.099.698-.3.2.3.898 0l-.1.1c-.299.2.5-.1.5.1 0 .1-.1.1-.2.1h.2s-.1.1-.1 0l.1.199h.398c-.1.1-.1 0-.2.1h.2c-.2.1-.399.1-.399 0-.698.399.2 0-.1.399l-.1-.1c-.398.2-.199.2-.398.399.1-.1.598-.499.798-.4 0 0-.1.1.1.1-.3.1-.2.1-.1.2l-.3.1c.1 0 .3 0 .5-.1 0 .1-.3.2-.5.3 0 .2.4-.3.5-.1-.1.2.099.2.298.2-.1.1-.2.1-.299.1h.3s-.1 0-.1.099c.1 0 .299-.1.498-.1.4-.1-.498.4 0 .3-.1.1-.199.1-.299.1h.699l-.2.199c.2-.2.599-.2.798-.2.1-.1.2-.1.3-.2l.199.1s-.2.1-.3.1h.1c-.1.1-.299.2-.498.2.1 0 .1-.1.2-.1-.2 0-.5.1-.7.2h.1-.1.1l-.398.199.199-.1-.2.3c.4 0 .998-.1 1.297 0-.299.1-.498.199-.798.299.3-.2-.2-.1-.2-.2 0 .1-.199.1-.199.1l.4.1c-.3.1-.2.1-.3.2.499-.3.4 0 .599 0-.2.1-.4.1-.4 0-.398.299.699-.1.4.1h-.1c.2 0 .1.199-.1.199 0 .2.2.498.599.299-.1 0-.5.2-.599.2l1.596-.3c-.399.1-1.297.599-1.496.499 0 .1-.1.1.1.2 0 0 .498-.3.598-.3-.399.3-.2.2-.499.4.1-.1.699-.3.699-.2-.1 0-.599.2-.699.2l.699-.1c-.1 0-.5.199-.699.299.1-.1 0 .1.1.1l.1-.1c0 .2.898-.2.898 0-.1 0-.798.3-.798.399.299-.1 1.496-.4 1.796-.4l-.3.5h.2c-.5.1-1.497.299-1.896.299-.1.1-.2.1-.1.2-.1.1-.299 0-.299 0v.299c.3-.2.4 0 .698-.1l-.498-.1c.299-.2 1.097-.3 1.097-.1-.1.1-.599.2-.798.3.1 0 .3.1.2.1h-.2c-.1.1.499 0 .2.199 0 0-.4.3-.2.2.399-.2 1.596-.699 1.895-.799l-.498.5c-.3.199-.798.199-.998.398.1 0 .2-.1.3-.1-.1.1-.3.1-.2.2.399-.1 0 .2.299-.1.1 0 0 .1 0 .2.2-.1.798-.2.998-.2-.1 0-.2.1-.3.1 0 .2-.1.3 0 .499-.1 0-.2.2-.299.2h.2c-.3.199-.1-.1-.4.1.2-.1.3 0 .5 0 .299-.1 0-.2-.2-.2.399-.2.998-.2 1.197-.2.2.1-.3.2-.2.2 0 .299.898-.1.6.2-.3.199-.6.199-.799.299-.1-.1.1-.2.1-.3l-.1.1c-.1 0-.2 0-.1-.1-.2.2.1.4 0 .699.1 0 .2 0 .3-.1h-.1c.2-.1.399 0 .399-.1.2 0 .499 0 .399.2l-.3.2c.1 0 .2-.2.1-.1.2 0-.399.299.1.199l.2-.2c.2 0 .598 0 .499.1l.299-.2c-.4.2-.1-.299-.5 0 .4-.199.1-.199.5-.398-.1 0-.2.1-.2 0h-.1l-.1.1c-.299.099-.299-.1-.398-.1 0-.1.1 0 .2-.1h-.2c.2-.1.299-.3.499-.2v-.1c.1-.1.1-.2 0-.2 0-.099-.3 0-.1 0l-.2-.099h.1c0-.2-.499-.2-.2-.499-.1 0-.2-.1-.1-.2l.2-.099c-.1 0 .1-.3-.1-.2.5-.299 0-.399 0-.498l-.299.1c0-.1-.1-.1-.3-.2l-.199.1c-.2 0 .1-.3 0-.4.1 0 .1 0 0 .1.5-.399-.499-.2-.2-.499-.099 0-.099 0 0-.1l.1-.099c-.1 0-.1.1-.1.1l-.099-.1.2-.1c.1-.1-.1 0-.3.1h-.2c.4-.2-.199-.1.2-.3-.2.1-.2-.199-.698 0h.1c0-.099.1-.099-.1-.099l.3-.2-.5.1c.2-.1.3-.2.5-.3-.4 0-.2-.099-.6 0l.2-.099s-.3 0-.2-.1c.4-.299-.199-.499.1-.997-.598.299.2-.2-.299-.1.1-.1.2-.1.3-.2-.2-.1.1-.299-.3-.2.1-.099.2-.099.3-.099h-.1.2c-.1-.1-.5 0-.999.2.2-.2.1-.2-.2-.1.1-.1.3-.2.3-.1 0-.1.1-.399-.3-.3.1 0 0-.099 0-.099 0-.1 0-.1-.099-.2v.1c-.399.1-.1-.1-.2-.1.2-.299-.199 0 .1-.398l-.2.1c-.598.199.2-.3 0-.3l-.099.1c-.2 0 .698-.5.698-.599h.1c.3-.3-.3.1-.499 0 .2-.1.5-.2.5-.2.099-.1-.7 0-.4-.299-.1.1-.3.2-.399.1-.1-.1.4-.399 0-.3 0 0 .1 0 .1-.099-.1 0-.3-.1-.499-.1.798-.399-.599-.2.2-.598l-.1-.2h.1c0-.2-.2-.1-.4-.1 0-.1.1-.1.2-.1.1-.299 0-.299-.399-.299l.3-.1c-.2 0 .299-.399-.1-.498h.1c-.4-.1.498-.798-.5-.5h-.299c0 .2-.399.1-.599.3-.1 0 .2-.3.3-.2.499-.199.1-.299.399-.398-.2-.3 0-.799-.1-1.098l-.399.2v-.1c.1-.1.3-.2.3-.1.199-.1-.2-.1-.3 0 .1-.2.499-.1.499-.2l-.1-.1c-.2 0-.3.1-.399 0 .1-.099.2-.099.2-.199v-.2l-.3.2c-.2 0 0-.1-.399.1.5-.3 0-.599.1-.698-.3 0-.3-.1-.3-.2-.099.1-.398.2-.398.1.698-.2.2-.3.698-.599-.3.2-.2-.2-.599.1 0-.1.3-.1.4-.2-.3-.1 0-.498-.2-.698-.1 0-.2.1-.4.1l.4-.3c-.1 0-.599.2-.3 0-.1 0-.199.1-.199.1.3-.598-.698-.798-.1-1.596l-.2.1s-.199.1-.398.1l.3-.3c-.4.1-.1-.2-.4-.1h.1c-.4.1-.798.5-1.297.7.499-.1-.599.498.1.398-.1.1-.2 0-.3.1.2 0 .3 0 .2.1h-.1c.1.2 0 .399-.1.698l.2-.1c0 .1-.1.1-.1.2.4-.1 0-.2.4-.3-.5.3.199.4-.4.699 0 .1.3-.1.3-.1l-.1.1.2-.1c0 .1-.2.2-.3.2h-.1c-.2.2.1.2.1.2l.1-.1c.2.199.2.598.598.698l.4-.3c.298.1-.1.2.099.4.1 0 .2 0 .2.1-.2 0-.2.199-.4.199.3.1.2 0 .699 0l-.2.1c.2 0 .3-.1.4 0-.2 0-.3.2-.5.2-.299.398.6.099 0 .498.6-.1.2-.3.4-.3.2-.1.399-.1.399 0s-.599.4-.599.6c-.1.099.2 0 0 .199.3-.1 0 .1.4 0l-.2-.1c.1 0 .698-.1.498.2h-.299c-.1.1.1 0 0 .1-.399.199-.2-.1-.499-.1-.2.1.4.1-.1.199.6-.2 0 .2.5.1l-.3.1h.2l-.3.1c.3 0-.2.299 0 .299-.1-.2.3-.2.4-.3.398.1-.6.4-.4.599 0 0 .1-.2.2-.2 0 .1-.1.2-.2.3.1.1.2-.1.4-.1-.3.2.199 0 .299.1l-.3.1c-.1.299.5-.2.4.1l-.4.099.1.1-.3.1c.3 0 .2.1.2.199.2-.1.5-.2.5-.1-.1.1-.3.1-.2.2-.2 0-.4.1-.2-.1-.1 0-.2 0-.3.1-.099.1 0 .2 0 .2v-.1h.4c-.1.1-.2.1-.3.1h.2c-.2.1-.399.199-.499.1l.3.099c-.1 0-.2.2-.3.2-.1.1.5.1.4.299h.1c0 .1-.2.299.099.399v-.2c.1.1.399-.3.598-.2.2.1-.299.2-.399.3.3 0 .699-.1.4.1 0 0 0 .1 0 0zm.698 1.197c-.1 0-.2 0-.1-.1.3 0 .1.1.1.1zm1.397 1.796c-.1 0-.1 0 0-.1v.1zm3.99 4.788s0 .1 0 0zm-.1.2h.1-.1c-.1 0 0 0 0 0zm-5.187-12.57c-.1 0 0 0 0 0z"/><path d="M66.066 65.163s.1 0 .1-.1c0 0 0 .1-.1.1zm1.496 4.091l.1-.1c0 .1-.1.1-.1.1zm3.592 1.496c-.1 0-.1 0-.2.1.1-.1.2-.2.2-.1zm-1.297 1.197s0 .1 0 0h.2-.2zm.499-.798c-.2.1-.1.1-.1.1.3-.1.2-.1.1-.1zm-.1.1c.1 0 .1.1 0 0 .2 0 .1 0 0 0zm.399-.899s.3-.1.2 0c.3-.1-.4-.1-.2 0zm-.998 1.099l.3-.1h-.3v.1zm0-.499v.1h.1c0-.1 0-.1-.1-.1zm-.299-.898l-.1-.1c-.1 0-.1.1-.1.1h.2zm-.598.498s.1-.1.2-.1l-.3.1h.1zm-.2-.199c-.1 0-.3 0-.2.1.1 0 .2 0 .2-.1zm-.1-1.596v.1l.499-.2-.499.1zm-1.796-.699c-.1.2.3-.1.2.1.1 0 .1-.1.2-.2-.1 0-.1 0-.4.1zm-2.793-14.765l.1-.1-.2.1h.1zm-.499 0l.3-.2-.3.2c.1 0 .1 0 0 0zm1.198 10.675l.2-.1-.2.1zm-.2-.997l.3-.2-.3.2zm-.699-.699c0 .1.1.1 0 0 0 .1.4-.1 0 0zM46.412 78.332l.2.1c0-.1-.3-.1-.2-.1zm-.399-.598l-.2-.1.2.1zm.1-.599c-.4 0 0 .2-.1.3h-.1l.3.1c-.1-.1-.3-.3-.1-.4zm.897-.1c-.2 0-.2 0 0 0-.1.1-.1.1 0 0-.1.1-.1.1 0 0zm-.1.1c0 .1.2 0 0 0zm0-.3l.1.1c.1 0 .1-.1.2 0 0-.1-.1-.1-.3-.1zm-.299-.099c.1.1.1.1 0 0z"/><path d="M46.812 76.936l-.1-.1c-.1 0-.2-.1.1.1-.1-.1-.2-.1 0 0zm-.1 0c-.1 0-.2.1-.3 0 .1.1.3.1.3 0zm-1.098.099h-.1l.1.1s.2 0 0-.1zm1.596-.599h-.3l.1.1s.1-.1.2-.1z"/><path d="M46.911 76.437l-.1-.1c-.1.1 0 .1.1.1zm-.699.199l.3.2-.3-.2zm1.098-.499l.1.1-.2-.1h.1zm0-.199c.2.1.3 0 .4.1 0-.1-.1-.1-.3-.2 0 .1 0 .1-.1.1zm-.1-.2s.1.1.2.1c-.1 0-.1-.1-.2-.1zm-.798.799c-.1-.1-.2-.2-.499-.1.2 0 .4-.1.499.1zm.1-.3c0 .1.1.1.1.1l-.1-.1zm-.1-.1l.1.1v-.1h-.1zm.599-.299l-.1-.1c-.1 0-.1.1-.1.1s.2.1.2 0zm-.3 0c.1.1 0 0 0 0zm.2.2s-.1 0-.1-.1l.1.1zm-1.497-1.198c.2 0 .4.2.2.2.2.1.898.2 1.297.2-.1 0-.2 0-.3-.1-.1 0-.299.1-.498 0-.1-.1.1-.1.2-.1-.3 0-.4-.2-.899-.2zm1.397.6h.3c-.1-.1-.2-.1-.2-.1l-.1.1z"/><path d="M46.811 75.638c-.2-.1-.3-.199-.599-.199 0 .1.2.1.3.2 0-.2.1.1.299 0 .1.1.1.1.1 0h-.1c.1 0 .1 0 0 0 .1 0 .1 0 0 0 .1 0 .1-.1 0 0h.1v-.2c-.1 0-.1.1-.1.2zm-1.197.499c.1 0 .2 0 0 0 0 .1 0 .1-.1 0 .1 0 .2.1.3.1.1 0 .398-.1.398-.1h-.598zm.599-.298l-.1-.2h-.2.1c-.1.2.1.2.2.2zm.897-.599l.2.1-.3-.1h.1zm0-.1h.2l-.1-.1-.1.1zm.699-4.19c.2 0 .5 0 .3-.1l-.3.1c.1-.1.1-.1 0 0zm-.799-3.193c-.1 0-.1 0 0 0l.1.1-.1-.1zm-.997-.199h.2c-.1-.1-.2 0-.2 0zm.2-4.19l-.2-.1c0 .1.1.1.2.1zm1.097 9.976c.1 0 .2-.1.2-.1-.2 0-.4 0-.2.1zm1.397-7.782l-.1-.1c0 .1.1.1.1.1zm-1.197 7.582v.1c.1 0 .2-.1 0-.1zm-2.096-3.791c.3.1.2.1.2.2l.698.1-.898-.3z"/><path d="M46.212 64.265l-.2.1c-.298-.2-.199-.2-.498-.2.798.2 0 .4.798.5h-.2c-.398 0 .5.199.4.299-.1 0-.2.1-.3 0l.2.2h-.1v.199c.1 0 .3.1.4.2h-.2l.2.099c-.2 0-.4-.1-.3-.2-.798-.1.2.1-.3.2l-.199-.2c-.399 0-.3.1-.598.1.1 0 .698-.1.897.1-.1 0-.1.1 0 .1-.299-.1-.2 0-.2.1h-.398c.1.1.3.1.399.199-.1.1-.3 0-.599 0-.1.1.5 0 .5.2-.2.1 0 .2.199.399-.1.1-.2-.1-.3 0l.3.1h-.1c.1.1.399.1.399.199.399.1-.599.1-.2.3-.1 0-.2-.1-.399-.1.3.199.2.199.599.398l-.3.1c.3 0 .6.1.799.3h.3l.199.2c-.1 0-.2 0-.3-.1h.1c-.1 0-.3 0-.499-.1h.2c-.2-.1-.4-.2-.699-.2 0 0 .1 0 .1.1h-.1l.1.1h-.399.2l-.3-.1c.4.2.898.399 1.098.698-.3-.1-.499-.1-.798-.2.399 0-.1-.199 0-.299-.1.1-.2 0-.3 0l.3.3c-.3-.1-.2 0-.3 0 .599.1.3.2.5.299-.2 0-.4-.1-.3-.2-.4 0 .599.3.2.3l-.1-.1c.2.1 0 .2-.2.1-.1.1-.1.499.4.598-.1 0-.6-.1-.7-.2l1.497.6c-.399-.1-1.396-.2-1.596-.4-.1 0-.1.1 0 .2.1 0 .599 0 .599.1-.5 0-.3 0-.699.1.1 0 .699.1.699.199-.1 0-.599-.1-.699-.2l.599.3c-.1-.1-.499-.1-.698-.1.1 0 0 .1 0 .2h.2c-.1.199.797.299.797.498-.1 0-.798-.2-.898-.1.3.1 1.497.5 1.696.699h-.2l.2.2c-.498-.2-1.396-.6-1.795-.799-.2 0-.2 0-.2.1-.2 0-.2-.1-.3-.1l-.199.2c.4.1.3.2.699.3l-.3-.3c.4.1.998.299.898.499-.2 0-.698-.2-.798-.2.1 0 .2.2.1.2l-.2-.1c-.2.1.5.2.1.3 0 0-.499 0-.3.099.4 0 1.797.3 2.096.399 0 0-.4.1-.699.1-.299 0-.798-.2-1.097-.2.1 0 .2.1.3.1-.1 0-.3-.1-.3 0 .4.1-.1.2.3.1.1.1-.1.1-.1.2.299 0 .798.299.897.398h-.299c-.1.2-.3.2-.3.4-.099 0-.199.1-.398 0 .1 0 .2.1.2.1-.3 0 0-.1-.4-.1.2 0 .3.199.4.299.299 0 .1-.1 0-.2.498.1.897.3 1.097.499.1.2-.3 0-.3 0-.1.2.799.399.4.499-.3 0-.6-.1-.799-.1-.1-.1.2-.1.2-.2l-.2.1c-.1-.1-.2-.1-.1-.2-.299 0-.1.4-.398.5.1.1.2.1.299.1v-.1c.3 0 .3.2.399.1.2.1.399.299.2.299h-.3c.1 0 .2 0 .1-.1.1.1-.499.1-.1.2h.3c.199.1.498.299.398.398h.4c-.5 0 .1-.299-.5-.299.5 0 .2-.1.6-.1-.1 0-.2 0-.1-.1h-.301c-.299-.1-.2-.199-.299-.299h.2l-.2-.1c.3 0 .399-.1.599.1v-.1c.2 0 .2-.1.1-.199.1 0-.3-.2-.1-.1l-.1-.2h.1c.1-.199-.3-.398.1-.498-.1-.1-.1-.1 0-.2h.199c-.1-.1.3-.2 0-.2.598 0 .2-.299.3-.398l-.3-.1c0-.1 0-.2-.1-.3h-.3c-.199-.1.2-.199.2-.398.1 0 .1.1 0 .1.599-.1-.299-.4.1-.5-.1-.1 0-.1 0-.1h.1-.1s0-.099-.1-.099h.3c.1 0-.1-.1-.3-.1 0 0-.1-.1-.2-.1.4 0-.099-.1.3-.1-.2-.099-.1-.299-.599-.398h.1c.1 0 .1-.1 0-.1h.3l.2-.499c.199 0 .298 0 .598.1-.4-.2-.1-.2-.5-.4h.2s-.299-.199-.1-.199c.4 0 .2-.499.6-.698-.7-.1.298-.1-.2-.2.2 0 .2 0 .399.1-.1-.2.299-.2-.1-.3.2 0 .2.1.3.1 0 0-.1-.1 0-.1.099 0 .099 0 .199.1 0-.199-.499-.299-.898-.398.2 0 .2-.1-.1-.2.1 0 .3 0 .3.1 0 0 .299-.3-.1-.3.1 0 0-.1 0-.1 0-.099.1-.099.1-.199h-.1c-.4-.1-.1-.1-.1-.2.3-.1-.1-.1.3-.299h-.3c-.599-.1.399-.1.2-.299h-.2c-.2-.1.798 0 .898-.1.1 0 .1 0 .1.1.399-.1-.3-.1-.4-.2.2 0 .5.1.5 0 .199 0-.6-.398-.2-.398-.2 0-.3 0-.4-.1 0-.1.6-.1.2-.3h.1c-.1-.1-.2-.299-.399-.399.898.1-.4-.499.499-.399v-.2h.1c.1-.099-.1-.199-.3-.299h.2c.2-.2.2-.199-.2-.399h.3c-.2-.1.498-.2.2-.498h.099c-.3 0 .898-.1-.1-.4l-.2-.199c-.1.2-.399-.1-.598-.1 0-.1.3-.1.399 0h-.1c.5.1.2-.2.599-.1 0-.399.399-.698.499-.997h-.4v-.1c.1 0 .3 0 .3.1.2 0-.2-.2-.3-.2.2-.1.5.2.5.1v-.1h-.1c-.2-.1-.3-.1-.3-.2.1-.099.3 0 .3 0l.1-.099h-.3c-.1-.1 0-.1-.3-.1.6 0 .3-.499.5-.598-.2-.1-.2-.2-.1-.3-.1 0-.4 0-.4-.1.7.2.4-.1.899-.1-.4 0 0-.298-.599-.298.1-.1.3 0 .499 0-.2-.3.3-.4.2-.699-.1 0-.3 0-.4-.1h.5c0-.1-.6-.2-.2-.2h-.2c.599-.398-.2-1.097.798-1.396-.2 0-.2 0-.2-.1-.099 0-.199 0-.398-.1l.399-.1c-.4-.099 0-.199-.3-.298l.1.1c-.399-.2-.898-.1-1.496-.2.499.2-.699.1-.1.399-.1 0-.2-.1-.3-.1.2.1.3.1.1.2h-.1c0 .299-.199.299-.398.598h.299c0 .1-.1.1-.2.1.4.1.1-.2.5 0-.6 0-.1.399-.7.399 0 .1.3 0 .3.1h-.2l.2.1c0 .1-.3 0-.399 0v-.1c-.2 0 0 .2 0 .3l.1-.1c.1.299-.2.598.1.897h.1c.199.2-.2.1-.1.3.1.1.2.1.1.199-.1-.1-.3 0-.5-.1.2.3.2.1.6.4h-.2c.2.1.299.1.299.199-.2-.1-.3 0-.499-.1-.499.1.4.4-.3.4.6.199.4-.1.5 0 .2 0 .399.199.299.199 0 .1-.798 0-.798.2-.2 0 .2.199-.1.199.3.1 0 .1.4.2l-.1-.2c.1.1.598.3.299.399-.1 0-.2-.1-.3-.1-.1 0 .1.1-.1.1-.398-.1-.1-.2-.398-.4-.2 0 .299.2-.2.1.599.2-.1.2.3.4l-.3-.1s.2.1.1.1l-.3-.1c.3.2-.299.1-.1.3 0-.2.3 0 .5 0 .299.298-.699 0-.599.298 0 0 .2-.1.3 0-.1 0-.2.1-.3.1 0 .2.3 0 .399.1-.3 0 .1.1.2.2l-.1-.5c-.2.2.499.2.3.3l-.4-.2.1.1-.3-.1c.2.1.1.2 0 .2.2 0 .5.1.5.2-.2 0-.2-.1-.2 0-.2-.1-.4-.1-.1-.1-.1 0-.2-.1-.2-.1-.199 0-.1.2-.1.2h.1l.3.398c-.1 0-.2 0-.3-.1l.2.2c-.2-.1-.399-.1-.499-.2l.2.2h-.4c-.1.1.4.3.2.4 0 0 .1 0 .1.1-.1.099-.4.199-.1.398h-.399c.1.1.499 0 .599.2.1.2-.3 0-.5 0 .2.1.6.299.2.399 0-.1.1-.1 0-.2zm0 1.397c-.1 0-.2-.1-.1-.1.3.1.2.1.1.1zm.2 2.195c-.1 0 0 0 0 0 .1 0 .1 0 0 0zm.798 6.185c-.1 0-.1 0 0 0 .1-.1 0-.1 0 0zm-.2.1h.1s0-.1-.1 0c0-.1 0-.1 0 0zm2.395-13.169c-.1-.1 0-.1 0 0z"/><path d="M47.31 74.84c0-.1-.1 0-.2 0h.2zm-1.696.4l.2.1c-.1-.1-.2-.2-.2-.1zm.798-.5c-.2 0-.2 0-.1.1.3.1.2 0 .1-.1zm-.1.1c.1.1 0 0 0 0zm.798-.598c-.1 0 .3.1.2.1.3.1-.3-.2-.2-.1zm-1.097 0v.1s.1-.1 0-.1zm-.399.299l.1-.1-.1.1zm.599-1.197l-.1-.1h-.1c.1 0 .1.1.2.1zm-.798.1h.2l-.3-.1.1.1zm0-.299c-.1 0-.2-.2-.2-.1s.1.2.2.1zm.698-1.297l.498.1-.498-.1zm-1.098-1.597c-.2.1.3.1.2.2.1.1.2-.1.3 0-.2-.1-.1-.1-.5-.2zm5.587-13.668l.1-.1h-.2l.1.1zm-.399-.299l.4.1-.4-.1c.1 0 .1 0 0 0zm-4.29 8.48l-.1.1h.4l-.3-.1zm-.299-.898v.1s.4 0 0-.1zM33.443 75.938l-.1-.2s.1.3.1.2zm-.699.898c.2.399.1-.1.3 0v.1l-.1-.4c-.1.1-.1.3-.2.3zm-.599-.798c.1.2 0 .2 0 0 .1 0 .1 0 0 0zm.1 0s-.1-.1 0 0zm-.199.2v-.2c0-.1-.1-.1-.1-.2-.1.2 0 .3.1.4zm0 .099v.1c.1.1.1.2 0-.1.1.1.1.2 0 0zm.099 0c.1.1.1.1.1.3.1-.1 0-.4-.1-.3zm.699.898c.1 0-.1-.2 0 0zm-1.297-1.098c0 .1.1.2.1.3v-.1l-.1-.2z"/><path d="M32.245 76.936v-.3l-.1.3h.1zm-.897-.698l-.1-.2.1.3v-.1zm-.2.1c0-.2-.1-.2-.1-.4v.3c-.1 0 0 0 .1.1zm.399.298l-.1-.2.1.2zm.399.199c0 .1 0 .3.1.5 0-.2-.1-.3-.1-.5zm-.199.101c.1 0 0-.1 0-.2v.2zm0 .099v-.1h-.1l.1.1zm-.599-.299c0 .1 0 .1-.1.2h.1c.1-.1.1-.3 0-.2zm.2.199v-.1.1s-.1 0 0 0zm-.4-.199l.1.1c-.1-.1-.1-.2-.1-.1zm.3 1.795c-.1-.2-.1-.399.1-.199 0-.2-.3-.898-.5-1.197 0 .1.1.2 0 .3.1.099.3.199.3.398-.1.1-.1 0-.2-.1.1.2 0 .4.2.798v-.199s0 .1.1.2zm-.299-1.495c0-.1-.1-.1-.2-.3v.3h.2z"/><path d="M31.048 76.935c.1.2 0 .4.2.599.1 0 0-.2 0-.3-.1.1 0-.199-.2-.299.1 0 0 0 0 0v-.1.1c0-.1 0-.1 0 0 0 0 0-.1 0 0 0-.1 0 0 0 0v-.1l-.1.1c0 .1.1 0 .1 0zm1.197.899s-.1-.1 0 0c-.1-.1-.1 0 0 0zm-.099-.1v-.1.1c.1 0 .1-.1 0-.2l-.3-.3c.1.1.1.3.3.5zm-.499-.399l-.1.2.1.2v-.1c.1 0 0-.2 0-.3zm-.897-.399l-.1-.3v.4l.1-.1zm-.2.1l-.1-.3v.2l.1.1zm-1.198 3.491c.1.2.3.5.2.2l-.2-.2c.1.1.1.1 0 0z"/><path d="M31.248 77.434l.1.1s0-.1-.1-.1zm3.492-1.595v-.2c-.1-.1 0 .1 0 .2zm-5.687 1.795c-.1 0-.1-.1-.1-.1.1.2.2.3.1.1zm-.3 0s.1 0 0 0h.1c0-.1-.1-.2-.1 0zm1.297-.399c-.1 0-.1-.1 0 0-.1-.1-.1 0 0 0zm-.498.399c0 .3 0 .3-.1.2l.2.698-.1-.898z"/><path d="M34.041 76.237l-.1-.2c0-.398.1-.299-.1-.598.2.699-.299.2-.1.898l-.099-.1c-.2-.299.1.599-.1.5-.1 0-.1-.1-.1-.2l-.1.2s-.099-.1 0-.1l-.099.1v.398c-.1-.1 0-.1 0-.2v.2c-.1-.2-.1-.399 0-.399-.3-.698 0 .2-.3-.2l.1-.1c-.2-.398-.2-.199-.399-.498.1.1.4.599.3.798 0 0-.1-.1-.1.1-.1-.3-.1-.2-.2-.1l-.1-.3v.5c-.1 0-.199-.3-.299-.5-.1 0 .2.4.1.5-.1-.1-.2.1-.2.299-.1-.1-.1-.2-.1-.3v.3-.1c0 .1.1.3 0 .499.1.399-.299-.499-.299 0-.1-.1-.1-.2-.1-.3-.099.3-.099.2-.099.699l-.2-.2c.2.2.2.6.1.898.1.1.1.2.1.3l-.1.2c0-.1-.1-.2-.1-.3v.1c-.1-.1-.1-.3-.1-.5 0 .1.1.1.1.2 0-.2-.1-.498-.1-.698v.1l-.1-.4v.2l-.199-.598c0 .399.1.997-.1 1.197 0-.3-.1-.499-.199-.798.2.299.1-.2.2-.2-.1 0-.1-.2-.1-.2l-.1.4c-.1-.3-.1-.2-.2-.3.2.5 0 .4 0 .599-.1-.2-.1-.399 0-.399-.199-.4.1.698-.1.399v-.1c0 .2-.199.1-.199-.1-.2 0-.399.1-.3.6 0-.1-.099-.6-.199-.7l.2 1.597c-.1-.4-.499-1.297-.4-1.596-.099 0-.099-.1-.099.1l.2.598c-.2-.399-.1-.2-.4-.599.1.1.2.699.1.699 0-.1-.2-.599-.2-.698v.698c0-.1-.099-.499-.199-.698.1.1-.1 0-.1.1l.1.099c-.2 0 .1.898-.1.898 0-.1-.199-.798-.299-.798.1.3.3 1.596.2 1.796l-.1-.2v.2c-.1-.5-.2-1.497-.2-1.896-.1-.1-.1-.2-.2-.2-.099-.199 0-.299 0-.299h-.199c.1.4 0 .4.1.699l.1-.4c.1.4.2 1.098 0 1.098-.1-.1-.2-.698-.2-.798 0 .1-.1.3-.1.2v-.2c-.1-.1-.1.1-.1.2l.7 1.995c0-.1 0-.2.099 0 0 0 .3.399.2.2-.2-.4-.699-1.597-.799-1.996 0 0 .3.3.4.499.199.299.199.798.398.997 0-.1-.1-.2-.1-.299.1.1.1.3.2.2-.1-.4.2 0-.1-.3 0-.1.1 0 .2 0-.1-.2-.2-.798-.2-.997 0 .1.1.2.1.299.2 0 .3.1.4.1 0 .1.199.2.199.299v-.2c.2.3-.1.1.1.4-.1-.2 0-.3 0-.5-.1-.299-.2 0-.2.1-.2-.399-.2-.997-.2-1.197.1-.2.2.3.2.2.2 0-.1-.798.2-.599.2.3.2.599.299.798-.1.1-.2-.1-.3-.1l.1.1c0 .1 0 .2-.1.1.2.2.4-.1.6.1 0-.1 0-.2-.1-.3v.1c-.1-.2 0-.399-.1-.399 0-.2 0-.499.1-.399l.1.3c0-.1-.1-.2-.1-.1 0-.2.299.399.199-.1l-.2-.2c0-.2 0-.598.1-.498l-.2-.3c.2.4-.199.1 0 .5-.199-.4-.199-.1-.398-.5 0 .1.1.2 0 .2v.1l.1.1c.1.299-.1.299-.1.398-.1 0 0-.1-.1-.2v.2c-.1-.2-.3-.299-.2-.498h-.1c-.1-.1-.199-.1-.199 0-.1 0 0 .299 0 .1l-.1.199v-.1c-.2 0-.1.499-.498.1 0 .1 0 .2-.2.1l-.1-.2c0 .1-.3-.1-.2.1-.299-.499-.398 0-.498-.1l.1.3c-.1 0-.1.1-.2.299l.1.2c0 .099 0 .099-.1.099l.698 1.995c.1 0 .2.2.3.1 0 .1 0 .1-.1 0 .3.499.2-.499.499-.1 0-.1 0-.1.1 0l.1.1c0-.1-.1-.1-.1-.1l.1-.1.1.3c.099.1 0-.1-.1-.3v-.199c.199.4.1-.2.199.3 0-.2.2-.2 0-.699v.1c.1 0 .1.1.1-.1l.1.3v-.5c.1.2.199.3.199.599 0-.399.1-.2.1-.599l.1.2s0-.3.1-.2c.199.4.498-.1.897.2-.2-.599.2.2.1-.2.1.1.1.2.1.4.1-.2.299.199.2-.3.099.1 0 .2.099.3v-.1.2c.1-.1 0-.5-.1-.998.1.2.2.1.1-.2.1.1.1.3.1.3.1 0 .299.1.2-.2 0 .1.099 0 .099 0h.2c-.1-.4.1-.1.1-.2.298.2 0-.2.298.1l-.1-.3c-.199-.598.3.3.3 0l.599.4c0-.2.399.698.498.798v.1c.3.299-.1-.3 0-.5.1.2.1.5.2.5.1.1 0-.699.3-.3-.1-.1-.1-.299-.1-.399.1-.1.399.5.299 0v.1c0-.1.1-.3.1-.499.299.898.299-.598.498.3l.2-.1v.1c.1 0 .1-.2.1-.4 0 0 0 .1.1.2.199.1.199.1.299-.399l.1.3c0-.2.399.299.498 0v.1c.1-.4.699.598.5-.4l.099-.3c-.2 0-.1-.398-.2-.598.1-.1.3.2.2.3.1.498.3.1.399.498.3-.1.698.1 1.098 0l-.2-.399h.1c.1.1.1.3 0 .3.1.199.1-.2.1-.3.199.1.1.499.1.499h.099c0-.2 0-.399.1-.399.1.1.1.2.1.2h.1l-.1-.3c0-.2.1 0 0-.399.299.499.598 0 .698.2 0-.3.1-.3.2-.3 0-.1-.2-.399-.1-.399.2.699.299.3.498.798-.2-.299.2-.2 0-.598.1 0 .1.3.2.399.1-.3.4.1.599-.1 0-.1-.1-.2-.1-.399l.3.4c0-.1-.1-.6.099-.3 0-.1-.1-.2-.1-.2.599.3.798-.598 1.497.1-.1-.2-.1-.2 0-.2 0 0-.1-.199-.1-.398l.3.299c-.1-.4.199-.1.099-.4v.1c0-.399-.4-.897-.499-1.396.1.499-.399-.599-.399.1-.1-.1 0-.2-.1-.3 0 .2 0 .3-.1.2v-.1c-.199.1-.399-.1-.698-.1l.1.3c-.1 0-.1-.1-.1-.2.1.4.2 0 .2.4-.2-.5-.4.099-.599-.5-.1 0 .1.3 0 .3l-.499-.1v.2c-.1 0-.2-.2-.2-.3v-.1c-.1-.2-.199.1-.199.1l.1.1c-.2.2-.499.1-.599.499l.1.1c-.1.299-.2-.1-.3.1 0 .099 0 .199-.099.199 0-.2-.2-.2-.2-.4-.1.3 0 .2 0 .699l-.1-.2v.4c0-.2-.199-.3-.099-.5-.3-.398-.2.5-.4-.1.1.6.3.3.2.4.1.2.1.399 0 .399s-.299-.698-.498-.599c-.1-.1-.1.2-.2 0 .1.3-.1 0 0 .4l.1-.1c0 .1 0 .698-.2.499v-.3c-.1-.1 0 .1-.1 0-.1-.399.1-.1.1-.499-.1-.2-.1.4-.2-.1.1.6-.199 0-.099.5l-.1-.6v.2-.399c0 .3-.2-.2-.299 0 .2-.1.1.3.3.5-.1.398-.3-.6-.5-.4 0 0 .2.1.2.3-.1 0-.1-.1-.2-.2-.1.1.1.3.1.399-.1-.3 0 .2-.1.3l-.2-.4c-.199-.1.1.599-.099.4v-.4l-.1.1-.1-.3c0 .2-.1.2-.199.1.1.2.1.5.1.5-.1-.1 0-.3-.1-.2 0-.2-.1-.4.1-.2v-.3c-.1-.199-.2 0-.2 0h.1l-.1.4c-.1-.1-.1-.2-.1-.3 0 0 0 .2-.1.2-.099-.2-.099-.399-.099-.598l-.1.598c0-.1-.2-.2-.2-.3-.099-.099-.099.5-.299.3v.1c-.1 0-.299-.3-.299.1l-.2-.4c-.1.1.2.5.1.6-.1.199-.1-.3-.2-.4 0 .3 0 .699-.099.4 0 0-.1 0 0 0zm-1.197.5s0-.2 0 0c.2.199.1.099 0 0zm-1.596 1.196c-.1-.1 0 0 0 0 0 .1 0 .1 0 0zm-1.597-.499c-.1 0 0 0 0 0zm.2.1v-.1c-.1.1-.1.1 0 .1-.1.1-.1 0 0 0zm8.38.1c0-.2 0-.1 0 0z"/><path d="M31.347 77.534s0 .1.1.1c-.1 0-.1-.1-.1-.1zm-2.394 2.794l-.1-.1.1.1zm1.297-3.493c0 .1 0 .1.1.2-.1-.1-.2-.1-.1-.2zm1.197 1.398v-.2c-.1.1-.1.2 0 .2zm-.897-.499c.1.2.1.1.1.1 0-.4 0-.2-.1-.1zm-.699-.399s-.1-.3 0-.2c-.1-.3 0 .4 0 .2zm1.098 1.098l-.2-.3.1.2.1.1zm-.499-.101c0-.1 0 0 0 0zm.399.2l-.1-.1.1.1zm-1.197.099l-.1.1c0 .1.1.1.1.1v-.2zm.498.599s-.1-.1-.1-.2l.1.3v-.1zm-.2.2c0 .1 0 .3.1.2-.1-.1 0-.2-.1-.2zm-1.396.1v-.1l-.2-.5.2.6zm.1-1.796c-.1-.1.1.3-.1.2 0 .1.1.1.1.2 0-.1.1 0 0-.4zm13.668-1.098l.1.1-.1-.1zm0-.399l.1.3-.1-.3c0 .1 0 0 0 0zm-9.877-.1l.1.2-.1-.2zm.998 0l.1.3-.1-.3zm.598-.698s0 .1 0 0c0 0 .2.4 0 0zm.399 8.979l.1.2-.1-.2zm0-.598v.1l-.1-.2.1.1zm.1 0c-.2-.4 0 .1-.1 0v-.1l.1.3v-.2zm.4.798c-.1-.2 0-.2 0 0z"/><path d="M34.939 84.518v.1c0 .1.1.1.1.2 0-.1 0-.2-.1-.3zm-.099-.3c.1.1.1.1 0 0z"/><path d="M34.94 84.418v-.1c-.1-.1-.1-.2 0 .1 0-.1-.1-.2 0 0zm-.1-.099c0-.1-.1-.1-.1-.3 0 .1.1.4.1.3zm-.4-.899l-.1-.1.1.1c0 .1-.1 0 0 0zm.699 1.198c0-.1-.1-.2-.1-.3v.1c.1 0 .1.1.1.2zm-.399-.798l.1.3-.1-.3zm.498.798l.1.2-.1-.3v.1zm.1-.1c0 .2.1.3.1.4 0 0 0-.2-.1-.4 0 .2.1.2 0 0zm-.299-.3l.1.2-.1-.2zm-.199-.298c0-.1-.1-.3-.2-.5.1.2.2.3.2.5zm.399.299v-.1l-.1-.1c0 .1.1.2.1.2z"/><path d="M35.338 84.318s0-.1-.1-.1c.1 0 .1.1.1.1zm-.199-.1c.1.1.1.1 0 0zm-.299-1.596c.099.2.099.4 0 .2 0 .2.298.897.498 1.197 0-.1-.1-.2-.1-.3-.1-.1-.2-.199-.2-.399 0-.1.1.1.1.2-.1-.4-.1-.499-.299-.898l.1.2c0-.1-.1-.2-.1-.2z"/><path d="M35.238 84.019c0 .1.1.1.1.3.1-.1 0-.2-.1-.3z"/><path d="M35.238 84.019c-.1-.2-.1-.3-.2-.599 0 0 .1.2.1.3 0 0 0 .2.1.299 0 .1 0 .1 0 0 0 .1 0 .1.1.1-.1 0-.1 0-.1-.1 0 .1 0 .1 0 0 0 .1 0 .1 0 0 0 .1 0 .1 0 0v.1-.1zm-.598-.898s0 .1.1.2c0 .1.199.299.199.399-.2-.2-.2-.4-.3-.599zm.3.399v-.1l-.1-.2v.1s0 .1.1.2zm.498.599v.3l-.1-.4.1.1zm0 0l.1.2-.1-.1v-.1zm1.297-.499c.1.2.2.5.1.3l-.1-.3s0 .1 0 0zm.399-1.696c-.1 0-.1-.1 0 0zm-.399-.998l.1.1s-.1 0-.1-.1zm1.097-.897l-.1-.2c0-.1 0 0 .1.2zm-1.895 3.791c0 .1.1.1.1.1-.1-.1-.2-.3-.1-.1zm2.394-.998v-.1c-.1 0-.1.1 0 .1z"/><path d="M36.036 83.919c0 .1.1.2 0 0zm-.698-.698v-.1c-.1.1-.1.1 0 .1zm3.592-2.694c-.1-.1-.1-.1 0 0zm-2.794.399c.1.3.1.3 0 .2l.3.698-.3-.898z"/><path d="M37.633 80.228l-.1-.2c-.1-.399 0-.2-.2-.499.3.699-.1.1.2.799l-.1-.1c-.2-.3.2.499.1.399l-.1-.2v.2s-.1-.1 0-.1v.1c0 .1.1.3.1.399-.1-.1 0-.1-.1-.2v.2c-.1-.2-.1-.399-.1-.399-.299-.698 0 .2-.2-.2v-.1c-.199-.398-.099-.199-.299-.498.1.1.3.598.3.798 0-.1-.1-.1 0 .1-.1-.3-.1-.2-.1-.2l-.1-.3c0 .1.1.3.1.4 0 0-.1-.3-.2-.499-.1 0 .2.4.2.499-.1-.1-.1 0 0 .2-.1-.1-.1-.2-.1-.3l.1.3s0-.1-.1-.1c0 .1.1.299.1.399.1.399-.3-.499-.1-.1 0-.1-.1-.2-.1-.3.1.3 0 .2.1.6l-.1-.2c.1.2.2.598.3.798.1.1.1.2.1.3v.199c0-.1-.1-.2-.1-.3v.1c-.1-.1-.1-.3-.2-.499 0 .1.1.1.1.2-.1-.2-.1-.4-.2-.599v.1l-.199-.399.1.2-.1-.4c.1.4.3.998.3 1.198-.1-.3-.2-.5-.3-.798.1.299 0-.2.1-.1l-.1-.2.1.3c-.1-.3-.1-.2-.1-.3.2.5.1.4.1.5-.1-.2-.1-.4-.1-.3-.2-.4.2.598 0 .3v-.1c0 .199 0 .1-.1-.1-.1 0-.2.1 0 .498 0-.1-.2-.498-.2-.598l.5 1.596c-.1-.399-.5-1.297-.6-1.496 0 0-.099-.1 0 0 0 .1.2.598.2.598l-.299-.598c0 .1.3.698.2.698 0-.1-.2-.599-.2-.698l.2.598c0-.1-.2-.499-.3-.698v.1l.1.1c-.1-.1.3.897.2.798 0-.1-.3-.799-.3-.799.1.3.5 1.497.5 1.696l-.1-.2v.2c-.2-.499-.4-1.496-.6-1.795-.099-.1-.099-.2-.099-.2-.1-.2-.1-.3-.1-.3l-.1-.099c.1.399.1.399.2.698l-.1-.399c.1.4.3.998.3.998-.1-.1-.2-.599-.3-.798v.2l-.1-.2c-.1-.1.1.499 0 .2l-.1-.2c.2.399.6 1.696.7 1.995l-.3-.599c-.1-.299-.3-.798-.4-.997 0 .1.1.2.1.3 0-.1-.1-.3-.1-.3.1.399-.099 0 .1.3 0 .099-.1-.1-.1 0 .1.199.3.797.3.897 0-.1-.1-.2-.1-.3-.1 0-.2-.199-.2-.199 0-.1-.099-.2-.099-.3 0 .1.1.2 0 .2-.1-.299 0-.1-.1-.399.1.2.1.3.1.4.1.299.1 0 0-.1a3 3 0 01.3 1.197c0 .1-.1-.3-.1-.2-.1 0 .2.799 0 .5-.1-.3-.2-.6-.3-.799 0-.1.1.2.1.1v-.1c-.1-.2-.1 0-.3-.2 0 .1 0 .2.1.3.1.2.1.3.1.399 0 .2.1.399 0 .3l-.1-.3c0 .1.1.2.1.1 0 .1-.2-.4-.1 0l.1.2c0 .199.1.498.1.398.1.3 0 0 .2.3-.2-.5.1 0-.1-.5.2.4.1.2.3.5 0-.1-.1-.2 0-.2v-.1s-.1-.1-.1-.2c-.1-.299 0-.299-.1-.398 0 0 0 .1.1.2l-.1-.2c.1.2.2.399.2.499.099.1.099.199.099.1 0 0-.1-.3 0-.1v-.2.1c.1 0 0-.4.2 0v-.1l.1.2c0-.1.099.199.099 0 .2.498.2.1.2.199l-.1-.2v-.2l-.1-.199c0-.2.1.1.2.1 0 .1 0 .1 0 0 .299.499 0-.399.199-.1 0-.1 0-.1 0 0 0 0 0 .1.1.1 0-.1-.1-.1-.1-.1v-.1l.1.3c0 .1 0-.1-.1-.3v-.199c.2.4 0-.2.2.3-.1-.2 0-.2-.2-.6v.1s.1.1 0 0l.1.3-.1-.4c.1.2.1.3.2.6-.1-.4 0-.2-.1-.6l.1.2s-.1-.299 0-.1c.199.4.199 0 .399.3-.2-.599.1.3 0-.2.1.1.1.2.1.4 0-.2.199.199 0-.2.1.1.1.2.1.3 0 0 0-.1 0 0 0 .099 0 .099.099.199 0 0-.1-.5-.3-.898.1.2.1.2 0-.1.1.1.1.3.1.3s.2.199 0-.2c0 .1 0 0 0 0h.1v-.1c-.1-.399 0-.1 0-.2.2.3 0-.199.2.2l-.1-.3c-.2-.498.2.3.1.1l-.1-.1c-.1-.199.3.7.399.799v.1c.2.299-.1-.3-.1-.4.1.2.2.5.2.5.1.1-.1-.6 0-.3-.1-.1-.1-.3-.1-.399 0-.1.3.499.1 0v.1c0-.1 0-.2-.1-.499.3.898 0-.499.3.3v-.1.1c.099 0 0-.2-.1-.4 0 .1.1.1.1.2.099.1.099.1 0-.3l.099.3c0-.2.2.399.2 0v.1c0-.3.399.698.1-.3v-.3c-.1-.099-.1-.398-.2-.598 0-.1.2.3.2.3.199.499.099.2.299.499.1-.1.299.199.399.1l-.2-.4c0 .1.1.3.1.3.1.199 0-.2-.1-.3.1.1.1.499.2.499 0-.2-.1-.3-.1-.3.1.1.1.2.1.2h.1l-.1-.3c0-.199.1 0-.1-.298.2.499.2.1.3.299-.1-.2 0-.2 0-.2 0-.1-.2-.399-.1-.399.299.699.199.3.398.799-.1-.3.1-.1-.2-.6 0 0 .1.3.2.4 0-.3.2.1.2 0s-.1-.2-.1-.4l.2.5s-.2-.5 0-.2c0-.1-.1-.2-.1-.2.3.4.2-.498.599.3l.299-.2s-.1-.2-.1-.399l.2.3c-.1-.4.1 0-.1-.4v.1c-.1-.399-.4-.898-.599-1.396.1.498-.299-.599-.1 0-.1-.1-.1-.2-.1-.3.1.2.1.3 0 .2v-.1c-.099.1-.199-.1-.298-.2l.1.3s-.1-.1-.1-.2c.1.4.1 0 .199.4-.2-.5-.1 0-.4-.5l.1.3-.1-.2.1.2-.199-.4v-.099c-.1-.2 0 .1-.1 0l.1.1c0 .2-.2 0-.2.399l.1.1c0 .2-.1-.1-.1 0v.2c0-.1-.1-.3-.199-.4 0 .3 0 .2.2.698l-.1-.2c.1.2.1.3.1.3 0-.2-.1-.3-.2-.499-.2-.399.1.5-.2-.1.2.6.2.3.2.4.1.2.1.399.1.399l-.3-.699c-.1-.1 0 .2-.1 0 .1.3 0 0 .1.4v-.1c0 .1.2.598 0 .399 0-.1-.1-.2-.1-.3-.099-.1 0 .1-.099 0-.2-.399 0-.1-.1-.399-.1-.2.1.3-.1-.1.2.6-.1-.1 0 .4l-.1-.3v.2l.1-.4c.1.3-.1-.199-.1-.099.1 0 .1.3.2.499.1.399-.299-.599-.299-.499 0 0 .1.1.1.3 0 0-.1-.1-.1-.3 0 .1.1.3.1.4-.1-.3 0 .099 0 .199l-.1-.3c-.1-.1.2.5.1.4l-.1-.4v.1l-.1-.3c.1.2 0 .2 0 .1.1.2.2.5.1.5-.1-.1-.1-.2-.1-.2-.1-.2-.1-.4 0-.1 0-.1-.1-.2-.1-.2-.1-.199-.1 0-.1 0v.1l.1.4c0-.1-.1-.2-.1-.3v.2c0-.2-.1-.4-.1-.5v.2c0-.1-.099-.2-.099-.299-.1-.1.1.4 0 .3v.1c-.1 0-.2-.3-.1 0l-.2-.3c0 .1.2.499.2.598 0 .1-.1-.299-.2-.399.1.2.2.599.1.2 0 .1-.1 0 0 0zm-.4.399c0-.1 0-.3 0 0 .1.2.1 0 0 0zm-.398.798c0-.1 0 0 0 0 .1.1 0 .1 0 0zm-1.198 2.395c0-.1 0-.1 0 0zm3.99-1.696c0-.1 0 0 0 0z"/><path d="M36.735 81.026s0 .1.1.1l-.1-.1zm-1.297.399s0 .1.1.1l-.1-.1zm.2 2.894c0-.1 0-.1-.1-.2 0 .1.1.2.1.2zm-.4-.899c0-.2 0-.1 0 0 0-.1 0-.1 0 0 .1.1.1.2 0 0zm.399.499c0-.1.1.3.1.2.1.3-.1-.3-.1-.2zm-.598-1.197l.1.3-.1-.2v-.1zm.199.199c-.1 0-.1 0 0 0 0 0 0 .1 0 0zm.3-.099c0-.2-.1-.2-.1-.2 0 .1 0 .1.1.2zm-.399-.699c0 .1.1.1.1.2l-.1-.3v.1zm.1-.099c0-.1-.1-.3-.1-.2 0 .1 0 .1.1.2zm.598.299l.2.499-.2-.5zm-.1-1.497c-.1-.1.1.3 0 .2 0 .1.1.1.1.2 0-.1 0 0-.1-.4zm5.387 1.098l.1.1-.1-.2v.1zm-.099-.4l.1.3-.1-.3c0 .1 0 0 0 0zm-4.091-1.596l.1.2-.1-.2zm.399.1l.1.3-.1-.3zm.1-.498s0 .1 0 0c0 0 .1.4 0 0zm49.484-8.38v-.1l-.1.2.1-.1zm-.3-.1c0 .4.1-.1.2.1v.1-.3c-.1 0-.2.3-.2.1zm-.199-.799c0 .1 0 .1 0 0 .1 0 .1 0 0 0zm.1 0s-.1-.2 0 0zm-.2.101l.1-.1v-.2c-.1 0-.1.1-.1.3zm-.1.298c.1-.1.1-.2 0 0z"/><path d="M86.318 70.45l-.1.1c.1.1.1.2.1-.1 0 .1 0 .2 0 0zm0 0c0 .1.1.1 0 .3.1 0 .1-.3 0-.3zm.2 1.098v.1-.1c0-.2.1 0 0 0zm-.499-1.098l-.1.1c.1 0 .1 0 .1-.1zm.199.6l.1-.3-.1.3zm-.398-.998l.1-.2-.1.3v-.1zm-.1.1v-.4s-.1.1 0 .4c0-.2-.1-.2 0 0zm-.2.1s0-.1.1-.2c0 0 0 .1-.1.2zm.599.598c0 .1-.1.299 0 .498 0-.2-.1-.299 0-.498zm-.2 0c.1 0 0-.1.1-.2l-.1.2zm-.299-.4c0 .1-.1.1-.1.1l.1.1c0-.1.1-.2 0-.2zm0 .2c.1.1.1 0 0 0 .1 0 .1 0 0 0zm-.5 1.497c0-.2.1-.4.1-.2.1-.2 0-.898 0-1.297 0 .1 0 .2-.1.3 0 .1.1.299.1.498-.1.1-.1-.1-.1-.199.1.2 0 .399 0 .898v-.2.2zm.3-1.496v-.3c-.1 0-.1.1 0 .3z"/><path d="M85.52 70.55c0 .2-.1.3-.1.599.1 0 .1-.2.1-.3-.1.1.1-.099 0-.299v-.1.1s0-.1 0 0v-.1.1c-.1.1-.1.1 0 0zm.399 1.098v-.1c.1.1.1.1 0 .1.1 0 .1-.1.1-.2s-.1-.399-.1-.399v.599zm-.199-.399l-.1.1v.2-.1c.1 0 .1-.2.1-.2zm-.4-.798v-.3l-.1.4.1-.1zm-.2 0l.1-.2-.1.1v.1zm-2.693-.099c0-.2-.1-.5-.1-.3l.1.3zm-4.689 2.892v.3c.1 0 0-.2 0-.3zm6.286-2.693c0-.1-.1-.1-.1-.2.1.2.1.4.1.2zm-.2-.2c.1 0 .1 0 0 0 .1-.1.1-.2 0 0zm.898 0c.1 0 .1-.1 0 0zm-3.092 2.793c0-.299.099-.299.099-.2v-.697l-.1.897z"/><path d="M78.337 73.045l.1.2c-.1.398-.1.199-.1.498 0-.798.2-.1.3-.798v.2c.099.398.099-.6.199-.4 0 .1.1.2 0 .3v-.2.1l.1-.1c0-.1.1-.3.1-.399v.2l.099-.2c0 .2 0 .4-.1.4 0 .797.1-.2.2.298l-.1.1c0 .4.1.3.1.599 0-.1-.1-.699 0-.898 0 .1 0 .1.1-.1 0 .3 0 .2.1.2v.399c.099-.1.099-.3.099-.5.1 0 .1.3.1.6.1.1 0-.5.1-.5.1.1.1 0 .2-.199v.3l.099-.3v.1c0-.1 0-.4.1-.499 0-.399.1.599.2.1v.399c.099-.3.099-.2.199-.599l.1.2c0-.3 0-.599.1-.898v-.3l.099-.199v.3-.1.298c0 .2-.1.5-.1.7v-.1.399-.2l.1.3c.1-.4.2-.998.3-1.198v.798c0-.399-.1.2-.2.1v.3l.1-.3c0 .3 0 .2.1.3 0-.6.1-.4.199-.5 0 .2 0 .4-.1.3.1.399.1-.699.2-.3v.1c0-.2.1 0 .1.1.1.1.299 0 .398-.499v.699l.2-1.597c0 .4 0 1.397-.1 1.597 0 .1.1.1.1 0v-.599c.1.499 0 .2.1.599 0-.1 0-.699.1-.699v.699l.1-.599v.698c0-.1.099 0 .099 0v-.2c.1.1.1-.897.3-.897 0 .1-.1.798 0 .898 0-.3.199-1.596.299-1.796v.2l.1-.2c-.1.499-.2 1.496-.3 1.896 0 .2 0 .2.1.2 0 .199 0 .298-.1.298l.1.1c0-.399.1-.399.1-.698l-.2.399c0-.4.1-1.097.2-.998v.798c0-.1.1-.2.1-.2l-.4.5c.1.1.1-.5.2-.1 0 0 .1.499.1.3v-2.096s.1.4.1.599c0 .299-.1.798-.1 1.097v-.3.3c0-.399.1 0 0-.3.1-.099.1.1.1.1 0-.199.1-.797.1-.997v.3c.099 0 .199.199.298.199 0 .1.1.2 0 .399 0-.1 0-.2.1-.2.1.3-.1 0 0 .5 0-.2.1-.3.1-.4 0-.3-.1-.1-.2.1 0-.499.1-.998.2-1.197.1-.1 0 .299 0 .2.2.099.2-.799.3-.5v.798c-.1.1-.1-.2-.2-.2l.1.1c0 .1-.1.2-.1.1 0 .3.299.1.399.3 0-.1.1-.2.1-.3 0-.2.1-.299 0-.498.1-.2.1-.4.2-.3v.3c0-.1 0-.2-.1-.1 0-.2.1.499.1 0v-.2c.099-.2.099-.499.199-.399 0-.299 0 0-.1-.399 0 .5-.2 0-.1.5 0-.5-.1-.2-.1-.6v.5c0 .299-.1.299-.2.398v-.299l-.099.2c0-.3-.1-.4 0-.599h-.1c0-.1-.1-.2-.1-.1 0-.1-.1.3-.1.1l-.1.2v-.1c-.099 0-.199.399-.298 0 0 .1-.1.1-.1.1v-.2c0 .1-.1-.2-.2 0 0-.599-.2-.1-.299-.2v.3c-.1 0-.1.1-.2.2v.299c-.1.2-.199-.2-.199-.2 0-.1 0-.1 0 0-.1-.599-.3.4-.3 0 0 .1 0 .1-.1 0v-.1.1s-.099 0-.099.1v-.3.5c0-.4-.1.1-.1-.3 0 .2-.2.2-.2.599v-.1c0-.1-.099-.1-.099 0v-.3l.2.3c0-.2-.1-.3 0-.599-.1.4-.1.2-.2.599v-.2s-.1.3-.1.1c-.1-.399-.399-.1-.498-.499 0 .699-.1-.299-.1.2v-.4c-.1.2-.1-.299-.2.2v-.299s0 .1 0 0v-.2c-.1 0-.1.5-.1.998 0-.2-.1-.2-.1.1v-.4s-.199-.199-.199.1c0-.1 0 0-.1 0s-.1-.1-.2 0v.1c0 .4-.099.1-.099.1-.1-.3 0 .1-.1-.2v.3c0 .599-.1-.3-.2-.1v.2c0 .2-.099-.799-.099-.898v-.1c-.1-.3 0 .4-.1.4v-.5c0-.2-.2.599-.2.2v.399c-.099.1-.099-.599-.199-.1v-.1c0 .1-.2.2-.2.4 0-.898-.299.398-.299-.4h-.1v-.1c-.1-.1-.1.1-.199.4v-.2c-.1-.2-.1-.1-.3.3v-.3c0 .2-.199-.399-.299-.1v-.1c-.199.3-.299-.798-.399.2l-.1.3c.1.1 0 .398 0 .598-.1.1-.1-.3-.1-.4v.1c0-.498-.099-.199-.099-.598-.2 0-.499-.3-.698-.3v.4h-.1v-.3c0-.199-.1.2-.1.3-.1-.2.1-.499 0-.499 0 .2-.1.3-.1.3v-.3h-.1v.3c0 .199-.099 0-.099.398 0-.598-.4-.2-.4-.399 0 .2-.099.2-.199.2v.399c0-.798-.1-.3-.1-.898 0 .399-.199.1-.1.599-.099-.1 0-.3 0-.5-.099.3-.299-.199-.398-.099v.4l-.1-.5s0 .599-.1.2v.2c-.299-.5-.698.398-.898-.5v.6l-.1-.4c0 .399-.1 0-.199.4v-.1c-.1.398 0 .897 0 1.496.1-.5.1.698.3 0v.3c0-.2.1-.3.1-.2v.1c.199-.1.199.199.398.299v-.3s0 .1.1.2c.1-.4-.1 0-.1-.499 0 .499.3 0 .3.599.1 0 0-.3.1-.3v.2-.2s.099.2.099.4v.1c0 .199.1-.1.2 0h-.4c.2-.2.4.099.5-.3v-.1c.1-.2.1.1.199 0 0-.1.1-.2.1-.2 0 .1.1.3 0 .5.1-.2.1-.2.2-.699v.2c0-.2 0-.3.099-.3-.1.2 0 .3 0 .599.1.499.2-.499.3.2.099-.6-.1-.3-.1-.4 0-.2.1-.399.1-.399s.099.699.199.699c0 .2.1-.2.1 0 0-.4.1 0 .1-.4l-.1.1c.1-.1.1-.598.199-.399 0 .1 0 .2-.1.3 0 .1.1-.1.1.1 0 .398-.1.1-.2.398 0 .2.1-.299.1.2.1-.599.1.1.2-.4v.3s0-.2.1-.2l-.1.3c.1-.3.1.3.2.1-.1 0 0-.3-.1-.5.2-.398.1.7.2.6 0 0-.1-.2 0-.3 0 .1.099.2.099.3.1-.1 0-.3 0-.4 0 .3.1-.1.1-.2v.3c.1.2.1-.599.2-.399v.4l.099-.1v.299c.1-.2.1-.2.2-.1 0-.2 0-.499.1-.499 0 .2 0 .3.099.2 0 .2-.1.399-.1.1v.299c0 .2.1 0 .1 0v-.1l.1-.4v.3s0-.2.1-.2c0 .2 0 .5-.1.6l.1-.2v.299c.1.1.199-.4.199-.3v-.1c.1.1.1.3.2 0v.4c.1-.1-.1-.499.1-.599.1-.1 0 .3 0 .5.1-.1.199-.5.199-.2 0 0 .1.1 0 0zm.898-.1c0 .1 0 .2 0 0s0-.1 0 0zm1.397-.599c0 .1 0 0 0 0 0-.1 0-.1 0 0zm3.79-1.796c0-.1 0-.1 0 0zm.1.1v-.1.1c0 .1 0 0 0 0zm-8.58-.1c0 .1 0 0 0 0zm9.079-.299v.2c-.1-.1-.1-.2 0-.2zm.299 1.697c.1-.1.1 0 0 0v-.2.2zm-.299-.798c0 .2 0 .2.1.1 0-.3-.1-.2-.1-.1z"/><path d="M85.021 71.25c.1 0 .1 0 0 0 .1-.2.1-.1 0 0zm-.399-.7v-.2c.1-.3-.1.3 0 .2zm.399 1.298v-.2l-.1.2h.1zm-.299-.2c.1.1.1 0 0 0 0 0 0-.1 0 0zm.2.3l-.1-.1.1.1zm-.799-.4c-.1.2-.1.2 0 .2v-.2zm0 .898c0 .1-.1.3 0 .3v-.3zm-.997-.499l.1-.598-.1.598zm-.798 1.397c.1.1 0-.399.1-.2 0-.1-.1-.1 0-.299-.1.2-.2.1-.1.499zm-9.278-3.192l-.1-.1.1.2v-.1zm-.1.399v-.4.4c0-.1-.1 0 0 0zm5.187 3.292s.1-.1 0 0c0 0 0-.5 0 0zm12.172 4.889l.1-.2s-.1.3-.1.2zm-.399.398v-.1l-.1.2.1-.1zm-.3-.1c-.1.4.1 0 .1.1v.1l.1-.3c-.1.1-.2.2-.2.1zm.1-.897c-.1.2-.1.2 0 0 0 .1 0 .1 0 0 0 .1 0 .1 0 0zm-.2.1l.1-.1v-.2c0 .1 0 .1-.1.3zm-.1.299c.1-.1.1-.1 0 0zm.1-.2l-.1.1c0 .1 0 .2.1-.1 0 .1-.1.2 0 0zm0 .1c0 .1 0 .2-.1.3.2-.1.2-.4.1-.3zm-.1.998v.1-.1c.1-.1.1.1 0 0zm-.099-1.497c0 .1-.1.2-.1.3l.1-.1v-.2zm0 .399l-.1.1s0-.1.1-.1zm0 .599l.1-.3-.1.3zm-.099-.998l.1-.2-.2.2h.1z"/><path d="M89.112 77.934c.1-.2.1-.3.1-.4 0 0-.1.1-.2.3 0-.1.1-.1.1.1zm-.2-.001s.1-.1.1-.2c0 .1-.1.1-.1.2zm.299.798c-.1.1-.2.2-.2.5.1-.2.1-.4.2-.5zm-.099-.099l.1-.1-.1.1zm-.1.099l.1-.1h-.1v.1zm-.1-.499l-.1.1c0 .1 0 .1.1.1v-.2zm.1 0s0 .1-.1.1c0 0 .1 0 .1-.1zm-.998 1.398c.1-.2.2-.4.2-.2.1-.1.299-.898.399-1.297 0 .1-.1.2-.1.3 0 .099 0 .298-.1.498-.1.1 0-.1 0-.2-.2.4-.3.5-.399.898l.1-.2c0 .1-.1.2-.1.2zm.599-1.297c0-.1 0-.2.1-.3-.1 0-.1.1-.1.3zm.099-.001c-.1.2-.2.3-.2.599.1 0 .1-.2.2-.3-.1 0 .1-.1 0-.299.1 0 .1 0 0 0 .1-.1 0-.1 0-.1.1 0 .1 0 0 .1.1-.1.1-.1 0 0 .1 0 .1-.1 0 0 .1-.1 0-.1 0 0v-.1.1z"/><path d="M88.912 79.43s0-.1 0 0c0 0 0 .1 0 0 0 0 .1-.1.1-.2v-.399c-.1.3-.1.4-.1.599zm-.1-.5l-.1.1v.2-.1c0 .1 0-.1.1-.2zm-.199-.797l.1-.3-.2.4.1-.1zm-2.594-.798c0-.2.1-.5 0-.3v.3zm-2.095.898c0 .1 0 .1 0 0l.1-.1s0 .1-.1.1zm-2.794.797l-.1.2s.1-.1.1-.2zm1.796-2.493s0 .1-.1.1c.1 0 .1 0 .1-.1zm4.39 1.197c.1 0 .1 0 0 0 .1-.1.1-.2 0 0zm.798.1c0 .1 0 .1 0 0 .1 0 .1 0 0 0zm-8.181-.101c-.1.1-.1 0 0 0zm4.689 2.096c.1-.3.1-.2.1-.2l.2-.698-.3.898z"/><path d="M81.63 78.93v.2c-.2.3-.2.2-.2.499.2-.698.2 0 .498-.698v.2c0 .398.2-.5.3-.4v.3l.1-.2v.1h.1c.099-.1.099-.3.199-.4 0 .1 0 .1-.1.2l.1-.2c0 .2-.1.4-.2.3-.2.798.1-.2.1.3l-.1.099c-.1.399 0 .3 0 .599 0-.1.1-.699.2-.898 0 .1 0 .1.1 0-.1.299 0 .2 0 .2l-.1.299c.1-.1.1-.3.2-.4 0 0 0 .3-.1.5.1.099.1-.4.2-.5 0 .2.099 0 .298-.2 0 .1-.1.2-.1.3l.1-.3v.1c.1-.1.1-.299.2-.398.1-.4-.1.598.1.2 0 .099-.1.199-.1.298.2-.299.1-.2.3-.498v.2c0-.3.199-.6.299-.799v-.3l.1-.199c0 .1-.1.2-.1.3v-.1c0 .1-.1.299-.2.499v-.2c-.1.2-.2.4-.2.599 0 0 0-.1.1-.1 0 .1 0 .1-.1.1l.1-.1-.1.399.1-.2v.3c.2-.4.4-.898.599-.998-.1.3-.1.499-.3.798.1-.399-.1.1-.2 0 0 0 0 .2-.099.3l.2-.3c-.1.3 0 .2 0 .3.1-.5.2-.3.299-.5-.1.2-.1.4-.2.3-.1.399.3-.599.2-.2v.1c.1-.2.1 0 .1.2.1.1.3.1.399-.4 0 .1-.2.6-.2.6l.599-1.497c-.1.399-.4 1.397-.499 1.496 0 .1 0 .1.1 0 0-.1.1-.598.2-.598-.1.498 0 .2-.1.598 0-.1.2-.698.2-.698 0 .1-.2.599-.2.698l.299-.598c-.1.1-.2.498-.2.698 0-.1.1 0 .1 0v-.2c.1.1.4-.798.499-.798-.1.1-.3.799-.2.898.1-.3.599-1.496.699-1.696v.2l.1-.2a31.69 31.69 0 01-.799 1.796c0 .2-.1.2 0 .2 0 .199-.1.199-.1.299l.1.1c.1-.4.2-.3.3-.599l-.3.3c.1-.4.4-.998.5-.899 0 .2-.2.599-.3.799.2.399.3.299.3.399l-.1.2c0 .199.199-.5.199-.1 0 0-.1.498 0 .299.1-.4.499-1.696.599-1.996v.599c-.1.3-.3.798-.3.998 0-.1.1-.2.1-.3 0 .1-.1.3 0 .3.1-.4.1.1.1-.3.1-.1 0 .1.1.1.1-.2.299-.798.399-.898 0 .1-.1.2-.1.3.1.1.1.199.2.299 0 .1 0 .2-.1.399 0-.1.1-.2.1-.2 0 .3-.1 0-.2.4.1-.2.2-.3.2-.4.1-.299-.1-.1-.2 0 .1-.499.399-.898.499-1.097.1-.1-.1.3 0 .2.1.1.399-.799.399-.4 0 .3-.2.599-.2.798-.1.1 0-.2-.1-.2v.2c0 .1-.1.2-.1.1 0 .3.2.1.3.4.1-.1.1-.2.1-.3 0-.2.2-.3.2-.4.1-.199.199-.398.299-.199l-.1.3v-.1c.1-.1 0 .499.1.1v-.2c.1-.2.299-.499.299-.399.1-.3 0 0 .1-.399-.1.499-.1-.1-.2.499.1-.499 0-.2 0-.599 0 .1 0 .2-.1.1v.3c-.1.199-.2.199-.2.299 0-.1.1-.1.1-.2l-.398.1c.1-.2 0-.4.2-.499h-.1c0-.1 0-.2-.1-.1 0-.1-.2.2-.1.1l-.1.1v-.1c-.1-.1-.3.3-.3-.1-.099.1-.099.1-.099 0l.1-.2c-.1.1-.1-.199-.1 0 .1-.598-.2-.199-.2-.299l-.2.2s-.099 0-.199.1l-.1.2c-.1.199-.1-.2-.199-.2 0-.1 0-.1 0 0 .1-.599-.3.299-.3-.1-.099.1-.099 0-.099 0v-.1.1s-.1 0-.1.1l.1-.3c0-.1-.1.1-.1.3l-.1.1c.1-.4-.1.1 0-.3-.1.2-.199.1-.299.599v-.1c0-.1 0-.1-.1 0l.1-.3-.2.4c0-.2 0-.3.2-.599-.2.4-.1.1-.3.499l.1-.2s-.199.3-.1.1c.1-.399-.298-.2-.298-.598-.2.598 0-.3-.1.2 0-.2 0-.2.1-.4-.1.1-.1-.3-.2.1 0-.2.1-.2.1-.3 0 0-.1.1 0 0 0-.1.1-.1.1-.199-.1 0-.2.499-.4.898 0-.2 0-.2-.1.1 0-.1 0-.3.1-.3 0 0-.1-.299-.199.1 0-.1 0 0-.1 0s-.1-.1-.1-.1v.1c-.2.4-.1.1-.2.1 0-.3-.099.1-.099-.3l-.1.3c-.2.599 0-.4-.1-.2v.2c-.1.2.1-.798.1-.898 0-.1 0-.1.1-.1 0-.399-.1.3-.2.4 0-.2.2-.5.1-.5 0-.199-.299.6-.299.2 0 .1-.1.3-.1.4-.1 0 0-.6-.2-.1v-.1c-.099.1-.199.2-.299.399.2-.898-.398.399-.1-.5h-.099v-.099c-.1-.1-.2.1-.2.3 0-.1 0-.1.1-.2-.1-.2-.1-.2-.3.2l.1-.3c-.1.2 0-.499-.199-.2v-.1c-.2.3-.1-.797-.399.1l-.2.2c.1.1-.1.4-.199.599-.1 0 0-.3 0-.4v.1c.2-.498-.1-.2 0-.598-.2 0-.3-.4-.499-.499l-.1.399h-.1c0-.1.1-.3.1-.3 0-.199-.1.2-.2.2 0-.2.2-.499.2-.499h-.1c-.1.2-.1.3-.199.3 0-.1.1-.3 0-.3l-.1-.1-.1.3c-.1.1-.1 0-.1.3.1-.6-.298-.3-.298-.5-.1.2-.2.2-.2.1 0 .1-.1.4-.1.4.2-.7 0-.3.1-.899-.1.4-.2 0-.3.5 0-.1.1-.3.1-.5-.199.2-.199-.299-.399-.2 0 .1-.1.2-.1.4l.1-.499s-.2.499-.1.2c0 .1 0 .2-.1.2-.099-.5-.697.199-.697-.799 0 .2-.1.2-.1.2s-.1.2-.1.399v-.4c-.1.4-.1 0-.3.3h.1c-.199.399-.199.898-.399 1.397.2-.4-.1.698.2.1 0 .1-.1.199-.1.299.1-.2.1-.3.2-.1v.1c.2 0 .2.2.299.399l.1-.3v.2c.2-.4-.1-.1.1-.499-.1.499.2.1.1.698.1 0 .1-.299.1-.299v.2l.099-.2s0 .3-.1.4c0 .199.1 0 .1 0v-.1c.2-.1.3.199.598-.1v-.1c.2-.2 0 .2.2.1.1-.1.1-.2.1-.1-.1.1 0 .3-.1.399.2-.2.1-.2.3-.599v.2c.099-.2.099-.3.199-.3-.1.2-.1.3-.2.5 0 .498.3-.4.2.299.2-.5 0-.3.1-.5 0-.199.2-.398.2-.298 0 0-.2.698 0 .798 0 .2.099-.2.099.1.1-.3.1 0 .2-.4l-.5.5c.1-.1.3-.6.3-.3 0 .1-.1.2-.1.2 0 .1.1-.1.1.1-.2.398-.2 0-.4.299 0 .2.2-.3 0 .2.2-.6.1.099.3-.3l-.1.2.1-.1-.1.299c.1-.3 0 .3.1.1-.1 0 .1-.3.1-.5.2-.298-.1.7.1.6v-.3.3c.1 0 .1-.3.2-.4-.1.3.099-.1.199-.2l-.1.3c.1.2.2-.499.2-.3l-.2.4.1-.1-.1.3c.1-.2.1-.1.2 0 0-.2.199-.5.199-.5 0 .2-.1.2 0 .2-.1.2-.1.4-.1.1 0 .1-.1.2-.1.2 0 .199.1.1.1.1v-.1l.2-.3c0 .1-.1.2-.1.3 0 0 .1-.1.1-.2-.1.2-.1.399-.2.499l.2-.2c0 .1 0 .3-.1.3 0 .1.3-.4.3-.2 0 0 0-.1.1-.1.099.1-.001.3.199.1l-.1.399c.1-.1.1-.499.2-.599.1-.1-.1.3-.1.4.2 0 .299-.4.2-.1.099 0 .099.1 0 0zm.897.1c0 .1-.1.2 0 0 0-.2 0-.1 0 0zm1.397-.2c0-.099 0-.099 0 0zm3.89-.797c0-.1 0-.1 0 0zm.1.1v-.1c0 .1-.1.1 0 .1-.1.1-.1 0 0 0zm-7.682-2.195c-.1.1-.1 0 0 0z"/><path d="M83.624 79.13v-.1c.1 0 0 0 0 .1zm2.495.898v-.1s-.1.1 0 .1zm2.294-2.194s-.1.1-.1.2c0-.1 0-.2.1-.2zm-.099 1.696l.1-.2c-.1.1-.2.2-.1.2zm-.2-.799c-.1.2 0 .2 0 .1.2-.3.1-.2 0-.1zm.1.1c.1-.1 0 0 0 0zm-.2-.798c0 .1.1-.3.1-.2.1-.3-.2.3-.1.2zm-.1 1.397l.1-.3-.1.2v.1zm-.099.1l.1-.1h-.1v.1zm-.599-.6l-.1.2c.1-.1.1-.1.1-.2zm0 .8v-.2l-.1.3.1-.1zm-.199-.001c0 .1-.2.2-.1.2 0 0 .1-.1.1-.2zm-.699-.699l.1-.498-.1.499zm-1.198 1.098c0 .2.1-.3.1-.2.1-.1 0-.1 0-.3 0 .3 0 .2-.1.5zm-7.381-5.288v-.1l-.1.2.1-.1zm-.2.4l.1-.4-.1.4c0-.1-.1-.1 0 0zm4.888 4.589c.1-.2 0-.2 0-.2v.2zm-.499-.499l.1-.3-.1.3zm-.598.3s.1-.1 0 0c0 0 .1-.4 0 0zm-21.849 5.387s.1.2.2.2c-.1 0-.3-.2-.2-.2zm-.199-.599l.1.1-.2-.2.1.1zm.2-.1c-.3-.3 0 .1-.2 0l-.1-.1.2.3c.1-.1 0-.3.1-.2zm.698.499c-.1-.1-.1-.1 0 0zm0 0c0 .1.1.1 0 0zm0-.1l.1.1.1.1-.2-.2zm-.2-.299c.1.1.1.1 0 0zm.1.2l-.1-.1.1.1c0-.1-.1-.1 0 0zm0 0l-.2-.2c-.1.1.1.3.2.2zm-.898-.598c0-.1.1 0 0 0zm1.298.698l-.2-.2v.1c.1 0 .1 0 .2.1zm-.2-.3l-.1-.1s0 .1.1.1zm-.6-.299l.2.3-.2-.3zm.899.499l.1.2-.1-.3v.1zm.099-.1l.3.3s-.1-.2-.1-.3c-.1.1-.1.1-.2 0z"/><path d="M60.678 84.418s.1.1.1.2c0-.1-.1-.2-.1-.2zm-.398-.1l.2.2-.2-.2zm-.3-.098c-.1-.1-.1-.3-.3-.4 0 .2.1.2.3.4zm.1-.101s0 .1.1.2l-.1-.2zm-.1-.1l.1.1-.1-.1zm.5.2c-.1-.1 0-.1 0-.1h-.1s.1.2.1.1zm.199 0l-.1-.1c0 .1.1.2.1.1zm-.299.099l-.1-.1s.1 0 .1.1c0 0 0-.1 0 0zm-.799-1.596c.1.2.3.399.1.2.1.199.598.698.898.997-.1-.1-.1-.1-.2-.3-.1-.1-.3-.199-.399-.299 0-.1.1 0 .2.1-.2-.2-.2-.3-.599-.698l.1.2s0-.1-.1-.2zm.898 1.297s.1.1.3.2c-.1-.1-.1-.2-.2-.2h-.1z"/><path d="M60.479 84.019c-.2-.2-.2-.3-.4-.499 0 0 .1.2.2.3-.1-.1 0 .199.2.199-.1.1 0 .1 0 0 0 .1.1.1.1.1-.1 0-.1 0-.1-.1 0 .1 0 .1 0 0 0 .1 0 .1 0 0 0 .1 0 .1 0 0 0 .1 0 .1 0 0 0 .1 0 .1 0 0l.1.1-.1-.1zm-.998-.499s0 .1 0 0c-.1 0-.1 0 0 0 0 0 0 .1.1.2.1 0 .3.2.3.299-.2-.3-.3-.4-.4-.499zm.399.2v-.1l-.2-.1.1.1c-.1-.1.1 0 .1.1zm.798.299l.2.2-.2-.3v.1zm0-.1l.2.2-.1-.1-.1-.1zm1.597-1.397c.2.1.4.4.2.2l-.2-.2c.1 0 .1 0 0 0zm.199-2.095c-.1 0-.1 0 0 0 0 0 0 .1.1.1-.1 0-.1-.1-.1-.1zm-.698-.798l.1.1-.1-.1zm1.198-1.795l-.2-.2.2.2zm-1.597 5.486l.1.1-.1-.1zm2.893-2.793l-.1-.1s0 .1.1.1zm-2.693 2.793c-.1 0-.1 0 0 0-.1 0-.1 0 0 0 .1.1 0 .1 0 0zm5.885-5.985s0 .1 0 0c0 .1.1.1 0 0zm-6.384 6.485s-.1 0 0 0c0 0 0 .1 0 0zm3.492-6.186c-.1-.1-.1-.1 0 0zm-3.692 2.494c.2.2.1.2.1.2l.498.498-.598-.698z"/><path d="M62.773 78.332l-.2-.1c-.199-.299-.099-.2-.298-.399.498.599-.1.2.399.799l-.1-.1c-.3-.2.3.399.2.399-.1 0-.1-.1-.2-.2l.1.2-.1-.1v.1c.1.1.2.3.2.3-.1-.1 0-.1-.1-.1l.1.199c-.1-.1-.2-.3-.2-.3-.599-.498.1.2-.3-.1v-.099c-.299-.3-.199-.2-.498-.3.1.1.499.4.598.6-.1 0-.1 0 0 .1-.2-.2-.2-.1-.2-.1l-.199-.3c0 .1.2.2.3.4-.1 0-.3-.2-.4-.4-.1 0 .3.3.3.4-.1-.1-.1.099 0 .298-.1-.1-.1-.2-.2-.2l.2.2-.1-.1c.1.1.2.3.3.4.299.299-.5-.4-.2 0-.1-.1-.1-.2-.2-.3.1.3.1.2.3.5l-.4-.3c.2.2.4.399.5.698l.199.2.1.2s-.1-.1-.2-.3v.1l-.399-.4c.1 0 .1.1.2.1-.1-.199-.3-.399-.4-.498v.1l-.1-.1.1.1-.299-.3.1.1-.2-.1c.2.3.6.798.6.998-.2-.2-.3-.4-.6-.599.3.3 0-.2.1-.2 0 0-.2-.1-.2-.199l.2.3c-.2-.2-.2-.1-.299-.2.4.399.2.3.3.499-.1-.1-.3-.3-.2-.3-.3-.299.399.5.1.3v-.1c.1.1-.1.1-.1 0-.1 0-.2.2.1.499 0 0-.4-.4-.4-.499l.998 1.297c-.3-.3-.998-.998-1.097-1.197-.1 0-.1-.1-.1.1 0 0 .399.398.399.498-.3-.299-.2-.2-.499-.399.1.1.499.5.499.599-.1-.1-.4-.499-.499-.499l.4.499-.5-.499c.1.1-.1 0 0 .1l.1.1c-.1 0 .499.698.4.798-.1-.1-.5-.599-.6-.599.2.3.998 1.197 1.098 1.497l-.1-.1.1.2c-.3-.4-.898-1.198-1.097-1.597-.1-.1-.2-.2-.2-.1l-.2-.2h-.199c.3.3.2.3.4.6l-.2-.4c.299.3.698.898.598.898-.1-.1-.399-.499-.499-.598.1.1.1.2 0 .2v-.5c-.1-.1.3.4 0 .2 0 0-.399-.3-.2-.2.3.3 1.198 1.297 1.398 1.597 0 0-.4-.2-.5-.4-.299-.199-.498-.598-.698-.798.1.1.1.2.2.2l-.2-.2c.3.3-.1 0 .2.3 0 .1-.1 0-.1 0 .2.2.499.698.599.798l-.2-.2c-.1 0-.2-.1-.3 0-.099-.1-.199-.1-.298-.299 0 .1.1.2.1.2-.3-.2 0-.1-.3-.3.1.2.2.3.2.4.2.299.1 0 0-.1.299.399.598.798.698.997 0 .1-.2-.2-.2-.2-.2 0 .5.699.2.5l-.599-.6c0-.099.2.1.2.1l-.1-.1c-.1-.099-.1-.199 0-.099-.2-.2-.2.1-.399 0 .1.1.1.2.2.3v-.1c.2.2.2.299.299.399.1.2.2.399.1.299l-.2-.3c.1.1.2.1.1 0 .1.1-.4-.299-.1.1l.2.2c.1.2.299.499.2.399.199.2 0 0 .298.2-.399-.3.1-.1-.299-.4.3.3.2.1.499.4-.1-.1-.2-.1-.1-.1 0 0 0-.1-.1-.1l-.1-.1c-.199-.2-.1-.2-.199-.399.1 0 .1.1.2.2l-.1-.2.399.4c.1.099.2.099.1 0 .1 0-.1-.3 0-.1v-.2c.1 0-.2-.4.2-.2 0-.1-.1-.1 0-.1l.199.2c0-.1.2.1.1-.1.399.4.2 0 .299 0l-.3-.299v-.2l-.199-.199c-.1-.2.2 0 .2 0 .1.1 0 .1 0 0 .498.4-.1-.399.2-.2 0-.1 0-.1 0 0l.099.1-.1-.1v-.1l.2.2c.1.1-.1-.1-.2-.299 0 0 0-.1-.1-.1.3.3-.1-.2.3.2-.1-.2 0-.2-.3-.599l.1.1c.1 0 .1 0 0-.1l.2.3-.3-.4c.2.1.3.2.4.4-.2-.4-.1-.2-.3-.5l.1.2s-.2-.3 0-.1c.3.3.2-.1.599.1-.5-.499.199.2-.1-.2l.299.3c0-.2.2.1 0-.2.1.1.1.2.2.2 0 0-.1-.1 0-.1.1.1.1.1.1.2 0-.1-.3-.4-.6-.798.2.1.2.1 0-.1.1.1.2.2.2.3 0 0 .3.099 0-.2.1.1 0 0 0 0 .1 0 .1 0 .1-.1h-.1c-.3-.3 0-.1 0-.2.3.2-.1-.1.3.1l-.2-.2c-.4-.398.3.2.2 0l-.1-.1c-.1-.199.598.5.698.6 0 0 0 .1.1.1.3.199-.2-.3-.2-.4.1.1.3.4.4.4.1.099-.3-.5 0-.3l-.3-.3c0-.1.499.3.2 0l.1.1c-.1-.1 0-.2-.2-.399.698.699-.1-.499.399.2l.1-.1.1.1c.1 0 0-.2-.2-.3.1 0 .1.1.1.1.2.1.2 0 0-.399l.2.2c-.1-.1.398.2.299-.1l.1.1c-.1-.3.698.399.1-.4l-.1-.199c-.1 0-.3-.3-.4-.399 0-.1.3.2.3.2.299.399.2.1.498.299.1-.1.5-.1.599-.2l-.3-.299h.1l.2.2c.2.2-.1-.2-.1-.3.2.1.3.4.3.4-.1-.1-.2-.3-.2-.3.1 0 .2.2.2.2h.1l-.4-.799c-.1-.1.1 0-.2-.299.4.4.4 0 .5.1-.1-.2-.1-.2 0-.3-.1 0-.3-.299-.2-.299.499.599.3.2.698.599-.299-.2 0-.2-.299-.499.1 0 .2.2.3.3-.1-.3.299 0 .299-.2l-.3-.3.4.3c0-.1-.4-.4-.1-.2-.1-.1-.2-.1-.2-.2.499.2.1-.598.898-.099-.2-.1-.2-.2-.1-.2l-.3-.299.3.2c-.2-.3.1-.1-.2-.4v.1c-.299-.299-.698-.698-.997-1.097.3.4-.599-.399-.2.1l-.199-.2c.1.2.2.2.1.2-.1.1-.3 0-.5 0l.2.2s-.1-.1-.2-.1c.2.299.1 0 .4.299-.4-.4-.2.1-.599-.3 0 0 .2.2.2.3l-.1-.1.1.2-.3-.3v-.1c-.199-.1 0 .1-.1.1h.1c0 .2-.299.1-.1.5l.1.099c.1.2-.199-.1-.199.1.1.1.1.2.1.2l-.3-.3c.1.3.1.2.4.599l-.2-.1c.1.2.2.2.2.3-.1-.2-.2-.2-.4-.4-.398-.3.2.499-.299 0 .4.499.3.2.4.3.1.1.299.398.199.299 0 0-.499-.5-.599-.4-.1-.1.1.2-.1 0 .2.3-.1 0 .2.4v-.1c0 .1.4.499.1.399-.1-.1-.1-.2-.2-.2-.1-.1 0 .1-.1 0-.299-.299 0-.1-.199-.399-.1-.1.1.3-.2-.1.4.5-.1 0 .2.4l-.2-.2s.1.1.1.2l-.2-.3c.2.3-.199-.1-.199 0 .1-.1.2.2.4.3.199.299-.5-.5-.5-.3 0 0 .2.1.2.2-.1 0-.2-.1-.3-.2 0 .1.2.2.3.3-.2-.2.1.1.1.2l-.2-.2c-.2-.1.4.399.2.299l-.2-.3v.1l-.2-.2c.1.2.1.2 0 .1.1.1.3.4.3.4-.1-.1-.2-.2-.2-.1-.1-.1-.2-.3 0-.1l-.2-.2c-.099-.1-.099 0-.099 0h.1l.2.3-.2-.2s.1.1.1.2c-.1-.2-.3-.3-.3-.4l.1.2c-.1-.1-.2-.2-.3-.2-.099-.099.2.4 0 .3 0 0 0 .1.1.1-.1 0-.299-.2-.199.1l-.4-.3c0 .1.4.3.4.5 0 .099-.2-.2-.3-.3.1.2.3.499.1.3 0 0-.1 0 0 0zm-.399.599c0-.1-.1-.2 0 0 .2.1.1 0 0 0zm-.399 1.197c0-.1 0-.1 0 0 .1 0 .1 0 0 0zm-.898 3.392c.1 0 0 0 0 0zm-.1-.1c0 .1 0 .1 0 0 0 .1 0 .1 0 0-.1 0 0 0 0 0zm4.89-4.589c0-.1 0-.1 0 0z"/><path d="M61.876 79.729l.1.1c-.1 0-.1-.1-.1-.1zm-1.796 1.397l.1.1c0-.1 0-.1-.1-.1zm.898 2.893c0-.1-.1-.1-.1-.1.1 0 .1.1.1.1zm-1.397-.998l.1.1s0-.1-.1-.1zm.799.399c-.2-.2-.1-.1-.1 0 .2.2.1.1.1 0zm.598.2s.2.2.1.2c.2.2-.1-.4-.1-.2zm-1.098-.798l.2.2-.2-.2zm.3 0c-.1 0-.1.1 0 0 0 .1 0 .1 0 0zm.399-.299l-.1-.2c0 .1 0 .2.1.2zm-.699-.399s.1.1.2.1l-.2-.3v.2zm.1-.2c-.1-.1-.1-.3-.2-.2.1.1.1.2.2.2zm.798-.2l.4.499-.4-.499zm-.398-1.396c-.1-.1.2.3.1.2l.2.2c-.1-.2 0-.2-.3-.4zm7.482-2.794h.1l-.2-.1.1.1zm-.3-.399l.3.3-.3-.3c.1.1.1 0 0 0zm-5.786 1.297c.1.1.1.1.2.1l-.2-.1zm.598-.2l.2.3-.2-.3zm0-.598s0 .1 0 0c0 0 .3.3 0 0zm-5.686 14.067s.2-.1.2-.2c-.1 0-.3.2-.2.2zm-.598.099l-.2.1.2-.1zm-.3-.199c-.3.3.1 0 .1.2h-.1l.2-.2s-.2.1-.2 0zm.499-.798c-.1.2-.1.1 0 0 0 .1 0 .1 0 0 0 .1 0 .1 0 0zm0 .1c.1 0 .1-.1 0 0zm-.1-.1l.1-.1c.1-.1 0-.1.1-.2-.1.1-.2.2-.2.3zm-.299.199c.1 0 .1-.1 0 0z"/><path d="M56.09 90.902l-.1.1c-.1 0-.2.1.1-.1-.1.1-.2.2 0 0zm0 .1c0 .1-.1.1-.2.2.1 0 .3-.2.2-.2zm-.6.898l-.1.1.1-.1c.1-.1 0 0 0 0zm.6-1.397c-.1.1-.2.2-.2.3h.1c0-.2 0-.2.1-.3zm-.2.2l-.2.1c.1 0 .1 0 .2-.1zm-.3.599l.3-.1-.3.1zm.4-.998l.1-.1-.2.2.1-.1zm-.1.001l.3-.3s-.2.1-.3.2v.1zm-.2-.101s.1-.1.2-.1c-.1.1-.1.1-.2.1zm0 .499s.1-.1.1-.2l-.1.2zm.001.399c-.1.1-.3.1-.4.3.1-.1.2-.2.4-.3zm-.201-.1s.1 0 .2-.1l-.2.1zm-.1 0h.1v-.1l-.1.1zm.2-.499c-.1.1-.1 0-.1 0v.1l.1-.1zm-.2.2s.1 0 0 0c.1-.1.1-.1 0 0zm.1-.399s0 .1-.1.1l.1-.1zm.1.299c.1 0 .1 0 0 0 .1-.1.1-.1 0 0zm0 0l-.1.1c0-.1.1-.1.1-.1zm-1.496.799c.2-.2.3-.3.2-.1.199-.1.598-.599.897-.998-.1.1-.1.1-.299.2-.1.1-.1.299-.3.399-.099 0 0-.1.1-.2-.1.3-.299.3-.598.699l.2-.2c-.1 0-.2.1-.2.2zm1.197-.998s.1-.1.2-.3c-.1.1-.2.1-.2.2v.1z"/><path d="M55.39 90.504c-.199.2-.298.2-.498.399.1 0 .2-.1.3-.2-.1 0 .1 0 .199-.2.1 0 .1-.1.1-.1l-.1.1s.1-.1 0 0c0-.1 0-.1 0 0 0 0 0-.1 0 0 .1-.1.1-.1 0 0-.1 0-.1 0 0 0zm-.398 1.096s.1-.099.1 0h-.1c0 .1.1 0 .2-.099 0-.1.199-.3.199-.399-.2.2-.3.3-.4.499zm.1-.498h-.1l-.1.2.1-.1.1-.1zm.199-.897l.2-.2-.3.3.1-.1zm-.1 0l.2-.2-.1.1-.1.1zm-1.895-1.895c.1-.2.3-.4.1-.3l-.1.3c0-.1 0-.1 0 0zm-2.395-.3s.1 0 .1-.1l-.1.1zm-.698.698l.1-.1c-.1 0-.1 0-.1.1zm-2.294-1.497l-.2.2.2-.2zm6.385 2.195c0-.1.1-.1 0-.2 0 .2-.1.4 0 .2zm-3.592-3.491l-.1.1.1-.1z"/><path d="M54.293 89.207s.1 0 0 0c.1 0 .2-.1 0 0zm.1 1.296c0 .1-.1.1 0 0-.1.1 0 .1 0 0zm-7.083-5.088c-.1.1-.1 0 0 0zm3.492 4.291c.2-.2.2-.2.2-.1l.498-.5-.698.6z"/><path d="M48.407 87.51l-.1.2c-.299.2-.299.1-.399.3.5-.5.2.099.799-.4l-.1.1c-.2.3.399-.4.399-.2 0 .1-.1.2-.2.2l.2-.1-.1.1h.1c.1-.1.3-.2.3-.2-.1.1-.1 0-.1.1l.199-.1c-.1.2-.3.3-.3.2-.498.599.2-.1 0 .3h-.1c-.298.298-.099.298-.298.498.1-.1.399-.599.598-.698 0 .1 0 .1.1 0-.2.2-.1.2-.1.2l-.3.298c.1 0 .2-.199.4-.299 0 .1-.2.3-.3.4 0 .099.3-.4.4-.3 0 .2.1.1.299 0l-.2.2.2-.2-.1.1c.1-.1.3-.3.4-.3.299-.299-.3.5.1.2l-.3.3c.3-.1.2-.1.598-.3l-.1.2c.2-.2.4-.4.699-.6.1-.099.1-.199.2-.199l.199-.1-.2.2h.1c-.1.1-.2.3-.399.4 0-.1.1-.1.1-.2-.2.1-.4.299-.499.498h.1l-.1.1.1-.1-.499.5.1-.1-.1.299c.3-.2.798-.599.998-.599l-.599.599c.2-.3-.2 0-.2-.1 0 .1-.1.2-.199.2l.3-.1c-.2.2-.1.2-.2.3.399-.4.3-.2.499-.3-.1.1-.3.3-.3.2-.2.398.5-.4.3-.1h-.1c.1-.1.1.1 0 .2 0 .099.2.199.599-.1l-.5.498 1.298-.997c-.3.299-.998.997-1.198 1.097 0 .1-.1.1.1.1 0-.1.4-.5.4-.5-.3.4-.1.2-.4.5 0-.1.499-.5.499-.5-.1.1-.4.5-.499.5l.499-.4-.499.5c.1-.1.1.1.1 0l.1-.1c0 .2.698-.599.798-.5l-.599.6c.2-.2 1.197-.998 1.397-1.098l.1.1.2-.1c-.4.3-1.198.998-1.497 1.197-.1.1-.1.2-.1.2l-.2.2v.199c.3-.3.3-.2.6-.4l-.4.2c.3-.299.798-.698.898-.598l-.599.598c.1-.1.2-.1.2 0l-.2.1c-.1.1.4-.3.2 0 0 0-.3.4-.1.2.3-.3 1.197-1.297 1.496-1.497l-.299.599c-.2.299-.598.499-.798.798.1-.1.2-.1.2-.2 0 .1-.2.2-.2.2.3-.3.1.1.2-.2.1 0 0 .1 0 .1.2-.2.598-.599.798-.599l-.2.2c.1.1 0 .3 0 .3-.1.1-.1.199-.2.299.1 0 .2-.1.2-.1-.2.3-.1 0-.299.3.2-.2.3-.2.399-.2.2-.3 0-.1-.2-.1.3-.3.699-.599.998-.699.1 0-.2.2-.1.2.1.2.699-.499.5-.2-.2.3-.4.4-.6.6-.1 0 .1-.2 0-.2l-.1.1c-.099.1-.199.1-.099 0-.2.199.2.199.1.498.1-.1.2-.1.3-.2h-.1c.1-.199.299-.199.299-.299.2-.1.399-.2.299-.1l-.2.3c.1-.1.1-.2 0-.1.1-.1-.2.4.1.1l.1-.2c.2-.1.499-.299.399-.2l.2-.299c-.3.4-.1-.1-.4.3.3-.4.1-.2.3-.499-.1.1-.1.2-.1.1 0 0-.1 0-.1.1l-.1.1c-.199.199-.299.099-.399.199 0-.1.1-.1.2-.2l-.2.1c.2-.2.2-.399.4-.399v-.1c.1-.1.1-.2 0-.2 0-.1-.3.1-.1 0h-.2c-.1-.1-.499.1-.2-.299-.1 0-.199.1-.1 0l.1-.2c-.1 0 .1-.298-.1-.099.4-.499-.099-.2-.099-.399l-.1.3c0-.1-.1 0-.299 0l-.2.199c-.199.1 0-.2-.1-.3.1-.1.1 0 0 0 .3-.498-.498.1-.199-.199-.1 0-.1 0 0 0l.1-.1c0 .1-.1.1-.1.1h-.1l.2-.2-.2.2s-.1 0-.1.1c.3-.3-.199.1.1-.3-.199.1-.199 0-.598.3l.1-.1c0-.1 0-.1-.1 0l.2-.3-.4.3c.1-.2.2-.3.4-.399-.4.2-.2 0-.5.3l.2-.2s-.3.2-.2 0c.2-.4-.199-.3-.1-.699-.398.5.1-.299-.199.1.1-.1.1-.2.3-.3-.2 0 .1-.299-.3 0 .1-.099.2-.099.2-.199 0 0-.1.1-.1 0 .1-.1.1-.1.2-.1-.1 0-.4.3-.798.6.1-.2.1-.2-.2 0 .1-.1.2-.2.3-.2 0 0 0-.3-.2 0 .1-.1 0-.1-.1 0 0-.1 0-.1-.1-.1v.1c-.3.299-.1 0-.2 0 .1-.3-.1.1 0-.3l-.199.2c-.399.399.2-.3-.1-.2l-.1.1c-.199.1.5-.599.5-.698 0 0 .1 0 .1-.1.199-.3-.3.2-.4.2.1-.1.4-.3.3-.4.1-.1-.6.3-.3 0l-.3.3c-.099 0 .3-.5-.099-.2 0 0 0-.1.1-.1-.1.1-.2 0-.4.2.6-.698-.498.1.1-.499l-.1-.1.1-.1c0-.1-.199 0-.398.1 0-.1.1-.1.1-.1 0-.199 0-.199-.4 0l.2-.199c-.1.1.2-.399-.1-.3l.1-.099c-.3.1.299-.798-.5-.1l-.199.1c0 .1-.299.3-.399.499-.1 0 .1-.3.2-.3.399-.398 0-.199.3-.498-.2-.2-.1-.5-.3-.699l-.3.3v-.1c.1-.1.2-.3.2-.2.1-.2-.2.1-.3.1 0-.2.4-.3.4-.3h-.1c-.1.1-.3.2-.3.2 0-.1.2-.2.2-.2v-.099l-.2.3c-.099.1-.099-.1-.299.199.4-.499-.1-.4 0-.599-.2.1-.299.1-.299 0 0 .1-.3.3-.3.3.6-.5.1-.3.5-.699-.2.3-.2-.1-.5.4 0-.1.2-.2.3-.4-.3.1-.1-.3-.3-.399l-.298.3.299-.4c-.1 0-.4.4-.2.1-.1.1-.1.2-.2.2.1-.599-.698-.2-.298-.998-.1.2-.1.2-.2.1l-.3.3.2-.4c-.3.3-.1-.1-.399.2h.1c-.3.299-.599.698-.998 1.097.4-.3-.399.599.2.2l-.2.2c.2-.1.2-.2.2 0 .2.099 0 .298.1.498l.2-.2c0 .1-.1.1-.1.2.299-.3-.1-.1.299-.4-.3.4.2.2-.2.7l.2-.2-.1.1.2-.1c0 .1-.1.2-.2.299h-.1c-.1.2.2.1.1.1v-.1c.2 0 .2.3.598.2l.1-.1c.3-.1 0 .2.1.2.1-.1.2-.1.2-.1l-.3.299c.3-.1.2-.1.599-.4l-.1.2c.2-.1.2-.2.3-.2-.2.1-.2.3-.4.4-.2.399.5-.2 0 .3.5-.4.1-.3.3-.4.1-.2.299-.3.299-.2 0 0-.499.6-.4.699-.099.1.2-.1.1.1.3-.2 0 .1.4-.3h-.1c.1 0 .499-.399.399-.1-.1.1-.2.1-.2.2-.1.1.1 0 0 .1-.299.3-.2 0-.399.2-.1.199.3-.1-.1.199.5-.4 0 .1.4-.1l-.2.2s.1-.1.2-.1h-.5c.3-.2-.099.3.1.2-.1-.1.2-.3.3-.4.399-.1-.4.599-.2.599 0 0 .1-.2.2-.2 0 .1-.1.2-.1.3.1 0 .2-.2.3-.3-.2.3.1-.1.199-.1l-.2.2c0 .2.4-.399.4-.2l-.3.2h.1l-.2.2c.2-.1.2-.1.2 0 .1-.1.399-.3.399-.3-.1.1-.2.2-.1.2-.1.1-.3.2-.1 0l-.2.2c-.099.199 0 .1.1.1v-.1l.3-.2-.2.2s.1-.1.2-.1l-.4.399.3-.1c-.1.1-.1.2-.2.3 0 .1.4-.2.4 0 0 0 .1 0 .1-.1 0 .1-.1.299.199.2l-.599.398c.1 0 .3-.399.5-.399.099 0-.2.3-.3.4.2-.2.599-.4.3-.1.099 0 0 0 0 0zm.798.5c-.1 0-.2.099 0 0 .1-.2 0-.1 0 0zm1.397.398c-.1.1 0 .1 0 0zm3.99 1.297c0 .1 0 .1 0 0 .1 0 .1 0 0 0zm0 .2s.1-.1 0 0c0 0 0-.1 0 0-.099 0 0 0 0 0zm-6.185-5.986c-.1.1 0 .1 0 0z"/><path d="M50.203 88.608l.1-.1s0 .1-.1.1zm1.896 2.096s0-.1.1-.1c-.1 0-.1 0-.1.1zm3.093-.799c-.1 0-.1.1-.1.1.1-.1.1-.2.1-.1zm-.799 1.497l.1-.1s-.1 0-.1.1zm.2-.898c-.2.2-.1.1 0 .1.2-.2.1-.1 0-.1zm0 .199c.1-.1.1 0 0 0zm.199-.798c0 .1.2-.2.2-.1.2-.3-.4.1-.2.1zm-.698 1.197l.2-.2-.2.1v.1zm-.399-.798h-.1l-.1.1c.1 0 .1 0 .2-.1zm-.399.699c0-.1.1-.1.1-.2l-.2.3.1-.1zm-.199-.101c-.1.1-.3.1-.2.2 0-.1.1-.1.2-.2zm-.4-.996l.4-.4-.4.4zm-1.596.399c0 .1.3-.2.2-.1l.2-.2c-.1.1-.1 0-.4.3zm-4.489-8.58v-.1l-.1.1h.1zm-.4.199l.3-.3-.3.3c0-.1 0 0 0 0zm2.594 6.684c.1-.1.1-.1.1-.2l-.1.2zm-.299-.698l.2-.2-.2.2zm-.698 0s.1-.1 0 0c0 0 .3-.3 0 0zM33.443 16.877s-.2-.1-.3-.1c.1.1.3.1.3.1zm.499.599h-.1l.2.1-.1-.1zm0 .598c.4-.1-.1-.2 0-.3h.1-.3c.1 0 .3.2.2.3zm-.799.499c.2-.1.2 0 0 0 .1-.1.1-.1 0 0 0-.1 0-.1 0 0zm0-.1c0-.1-.1.1 0 0zm.2.3h-.2c-.1 0-.1.1-.1.1.1 0 .2 0 .3-.1zm.299 0c-.1-.1-.1 0 0 0zm-.199-.2c.1-.1.1-.1.3-.1-.1-.1-.4 0-.3.1zm.897-.599l.1-.1-.1.1c-.1 0 .1-.1 0 0zm-.997 1.397c.1 0 .2-.1.3-.2h-.1l-.2.2zm.299-.199h.2c0-.1-.1-.1-.2 0zm-.099.498l-.2.1.3-.1h-.1zm.1.2c-.2.1-.2.2-.3.2h.3v-.2zm.199-.499s-.2.1-.2.2l.2-.2zm0 0s.1.1 0 0c.1.1.1 0 0 0zm.099-.499c.1 0 .3 0 .5-.1-.2 0-.3.1-.5.1zm.2.3v-.1c-.1 0-.1.1-.2.1h.2zm-.1.598h.2v-.2c-.1.1-.3.2-.2.2zm.199-.2c0-.1 0 0-.1 0h.1zm-.1.5s0-.1.1-.1c-.1 0-.2.1-.1.1zm-.199-.5c-.1.1 0 .1 0 0zm1.796-.299c-.2.2-.399.2-.2 0-.199.1-.698.599-.997.898.1-.1.1-.1.3-.1.099-.1.099-.3.298-.399.2 0 0 .1-.1.2.2-.2.4-.2.7-.5h-.2c.1 0 .2-.099.2-.099zm-1.297.699s-.1.1-.2.3c.1 0 .2-.1.3-.1l-.1-.2z"/><path d="M34.24 19.87c.2-.1.3-.1.5-.3-.1-.1-.2.1-.3.1.2.1-.1 0-.2.2-.1 0-.1 0-.1.1l.1-.1s0 .1 0 0l-.1.1.2.1c0-.1 0-.2-.1-.2zm.6-1.198h-.1.1c0-.1-.1-.1-.2 0l-.3.3c.2-.1.3-.2.5-.3zm-.3.5h.2l.1-.2-.1.1s-.1.1-.2.1zm-.1 1.097l-.2.2.3-.2h-.1zm.1.1l-.1.2.1-.1v-.1zm4.59 1.396c.1.2.3.5.2.2l-.1-.2h-.1zm1.196-2.893l.1.1s0-.1-.1-.1zm-1.296-2.294l-.2.1c0 .1.1 0 .2-.1zm-2.794 4.888c0 .1 0 .2.1.2-.1-.1 0-.4-.1-.2z"/><path d="M36.436 21.765c0-.1 0-.1 0 0-.1 0-.1 0-.2-.1.1.1.1.2.2.1zm-.898-1.596s.1-.1 0 0c.1-.1 0 0 0 0zm-.399.898s0-.1 0 0c0-.1-.1-.1 0 0zm3.391-5.787c-.1.1-.1.1 0 0zm.2 3.692c.2.299.1.2.1.2l.399.598-.2-.4c-.2-.199-.299-.398-.299-.398z"/><path d="M39.329 16.777l-.2.1c-.399.1-.2 0-.499.1.699-.2.1 0 .798-.1l-.2.1c-.398.1.6-.1.5 0-.1 0-.2.1-.3.1h.2-.1l.1.1h.399-.2l.2.099c-.2 0-.4 0-.4-.1-.797.1.2 0-.298.1h-.1c-.4 0-.3 0-.599.1h.898c-.1 0-.1 0 .1.1h-.599c.1 0 .3.1.4.1h-.6c-.099 0 .5 0 .5.099-.1 0 0 .1.2.2-.1 0-.2-.1-.3-.1l.3.1h-.1c.1.1.299.1.398.199.4.1-.598-.1-.2.1-.099 0-.199-.1-.298-.1.2.2.2.1.498.4h-.2c.3.099.5.298.7.498.1 0 .199.1.299.1l.1.2c-.1 0-.2-.1-.3-.2l.1.1c-.1 0-.3-.1-.499-.3.1 0 .1 0 .2.1-.2-.1-.4-.3-.6-.3 0 0 .1 0 .1.1-.1 0-.1-.1-.1-.1l.1.1-.398-.2.1.1h-.3c.3.3.798.699.798.898-.2-.199-.399-.299-.698-.498.3.2-.1-.2 0-.2-.1 0-.2-.1-.2-.1l.1.1.1.1c-.2-.2-.2-.1-.3-.2.5.3.2.3.3.5-.1-.1-.3-.3-.2-.3-.399-.2.4.499.1.3v-.1c.1.1-.1.1-.2 0-.1 0-.199.199.1.598 0 0-.299-.499-.399-.499 0 0 .2.3.4.699.199.399.398.698.398.698-.2-.4-.798-1.197-.897-1.397 0 0-.1-.1-.1.1l.299.499c-.3-.4-.2-.2-.399-.499.1.1.3.599.3.698 0-.1-.3-.598-.3-.598s.1.2.1.3c0 .199.1.298.1.298 0-.1-.2-.498-.3-.598.1.1-.1 0-.1.1l.1.1c-.1-.1.2.897.1.897 0-.1-.2-.798-.3-.798.1.3.3 1.497.1 1.796l-.1-.2-.1.2V19.67c-.099-.1-.099-.2-.099-.2v-.298l-.1-.1c.1.399 0 .399 0 .698l.1-.399c.1.4.1 1.097 0 .998 0-.2 0-.699-.1-.799 0 .1-.1.3-.1.2v-.2c0-.1-.1.5-.1.1v-.299c0 .4 0 1.796-.099 2.095 0 0-.2-.399-.2-.599 0-.299.2-.798.1-1.097 0 .1 0 .2-.1.3v-.3c-.1.4-.1 0-.1.3-.099.1 0-.1-.099-.1 0 .299-.2.798-.3.898 0-.1 0-.2.1-.3-.1-.1-.1-.3-.199-.3 0-.099 0-.199.1-.398 0 .1-.1.2-.1.2.1-.3.1 0 .2-.4-.1.2-.2.3-.3.4-.1.299.1.1.2 0-.2.398-.5.897-.699.997-.2 0 .1-.3 0-.2-.2-.2-.598.6-.598.2.1-.3.3-.499.399-.698.1 0 0 .2.1.299v-.2c.1-.1.2-.1.2 0 .099-.299-.3-.2-.2-.498-.1.1-.2.1-.2.2h.1c-.1.199-.3.199-.3.298-.199.1-.398.2-.398.1l.199-.3c-.1.1-.1.2 0 .1-.1.1.2-.498-.1-.199l-.1.2c-.199.1-.498.299-.498.1l-.2.299c.3-.4.2.2.499-.2-.3.4 0 .2-.2.599.2-.2.2-.3.3-.2 0 0 .1 0 .1-.1s0-.1.1-.2c.199-.199.299-.099.398-.199 0 .1-.1.1-.1.2l.2-.1c-.1.2-.1.4-.3.499l.1.1c0 .2 0 .3.1.2 0 .1.3-.2.1 0h.2v.1c.2.099.498-.2.498.298.1 0 .2-.1.3 0v.2c.1 0 .2.3.299.1 0 .598.4.2.599.299v-.3c.1 0 .2 0 .399-.199v-.3c.1-.199.299.2.499.1 0 .1-.1.1-.1 0 .1.3.2.2.299 0 .1-.1.2-.299.3-.1 0-.099.1-.099.1 0l.099.1c0-.1-.1-.1-.1-.1l.1-.099.1.2c.1.1 0-.1-.1-.3v-.2c.2.4.1-.199.3.2-.1-.2.199-.299 0-.698 0 .1.099.1 0 .1.099 0 .099 0 .099-.1l.2.3s0-.1-.1-.2c0-.1-.1-.2-.1-.2.2.1.3.2.3.499-.1-.4 0-.2-.1-.599l.1.2s-.1-.3.099-.2c.2.1.3 0 .4-.1.099-.1.199-.299.498-.199-.599-.399.3.1-.1-.3.1.1.2.1.3.2 0-.2.299-.1 0-.399.1.1.199.1.299.2 0 0-.1-.1 0-.1s.1.1.1.1c.1-.2-.4-.4-.699-.599.2 0 .2 0 0-.2.1 0 .3.1.3.2 0 0 .299-.2 0-.3.1 0 .1-.099 0-.099.1-.1.1-.1.1-.2h-.1c-.4-.199-.1-.1-.1-.199.399-.1-.1-.1.299-.2h-.3c-.598-.1.4-.1.2-.299h-.2c-.199-.1.799-.1.898-.1.1 0 .1 0 .1.1.4-.2-.299-.1-.399-.2.2 0 .5.1.5 0 .199-.099-.6-.299-.2-.398-.1 0-.3.1-.4 0-.1-.1.5-.3.1-.4h.1c-.1-.1-.2-.199-.499-.199.499-.1.3-.2.2-.3-.2-.099-.3-.099.1-.199l-.1-.2h.1c0-.199-.2-.099-.4-.099 0-.1.1-.1.2-.1.1-.3 0-.3-.499-.2l.2-.199c-.2.1.2-.499-.2-.499l.1-.1c-.2 0-.2-.199-.2-.399 0-.199-.1-.299-.498.1 0 0-.1 0-.1.1-.1 0-.1.1-.1.1.1.2-.3.3-.3.499-.1 0 0-.3.1-.3.3-.399-.1-.299.1-.598-.3-.2-.598-.599-.997-.699v.2l-.1-.1c0-.1 0-.3.1-.3 0-.199-.2.2-.2.2-.1-.2.2-.498.1-.498h-.1v.1c-.1.199-.1.299-.2.299-.1-.1 0-.3 0-.3l-.199-.1v.3c-.1.2-.1 0-.1.3 0-.3-.2-.3-.3-.4-.099 0-.298.1-.298 0-.1.2-.2.2-.3.2 0 .1.1.399 0 .399-.1-.799-.2-.3-.399-.799.1.3-.299.2 0 .6-.1 0-.1-.3-.2-.4-.099.3-.498 0-.698.1 0 .1.1.2.1.399l-.2-.2-.199-.2c0 .1.2.5 0 .3.1.2.2.3.2.4-.3-.1-.5.099-.699.299l-.299.299c-.1.1-.3.1-.599.1.2.1.2.1.2.2.1 0 .2.199.3.199h-.4c.3.2-.1.2.2.399v-.1c.299.3.898.399 1.297.698-.2-.2 0-.1.1 0s.299.1 0-.1l.199.2c-.2-.2-.2-.2-.1-.2.1-.1.3 0 .499 0l-.2-.199s.1.1.2.1c-.2-.4-.1 0-.3-.4.4.4.2-.1.6.4 0 0-.2-.3-.1-.3l.1.1-.1-.2s.199.2.199.3v.1c.1.2.1-.1.1-.1h-.2c.1-.2.3 0 .3-.4v-.099c.1-.3.1.1.2 0 0-.1 0-.2.099-.2 0 .2.1.3.1.4.1-.3 0-.2.1-.699v.2c0-.2 0-.3.1-.3-.1.2 0 .3 0 .6.099.398.199-.5.199.199.1-.599-.1-.3-.1-.4 0-.199.1-.398.1-.398.1 0 0 .698.1.698 0 .2.1-.2.1.1.099-.3.099 0 .199-.4l-.1.1c.1-.1.2-.598.3-.299 0 .1-.1.2-.1.3 0 .1.1-.1.1.1-.1.398-.1.099-.3.398 0 .2.2-.3 0 .2.2-.599.1.1.2-.3l-.1.3s.1-.2.1-.1l-.1.3c.1-.3 0 .299.1.099-.1 0 .1-.3.1-.499.299-.3-.2.699-.1.599 0 0 0-.2.1-.3 0 .1 0 .2-.1.3.1 0 .1-.3.199-.4-.1.3.1-.099.2-.199v.1c0 .2.299-.499.299-.2l-.3.2h.1l-.2.3c.2-.2.1-.1.1 0 .1-.2.3-.4.4-.4-.1.1-.2.1-.1.2l-.1.1c-.1 0-.2 0-.2.1-.1.199 0 .099 0 .099v-.1s.1-.1.2-.1c.1-.1.2-.1.2-.1l-.2.2s.1-.1.2-.1c-.2.1-.3.3-.4.4 0 0 .1 0 .1-.1.1 0 .1-.1.1-.1l-.2.2c-.1.1.4-.2.3-.1 0 0 .1 0 .1-.1 0 .1-.2.2 0 .1l-.3.2c.1 0 .4-.2.599-.2.1 0-.3.1-.4.2 0 .1.4 0 .1.1zm.2.599s-.2 0 0 0c.298 0 .099 0 0 0zm.298 1.396c-.1-.1 0-.1 0 0 .1 0 .1 0 0 0zm-4.29 2.295c0 .2 0 .1 0 0zm0-.1s-.1 0 0 0c0 0 .1-.1 0 0zm2.994-7.482c-.1.1-.1 0 0 0z"/><path d="M39.528 18.473s.1 0 .1.1c0-.1 0-.1-.1-.1zm-4.888 2.395h.1v-.1l-.1.1zm.798-1.697l-.1.1s.1 0 .1-.1zm-.199.899c.2-.2.1-.1 0-.2-.2.3-.1.3 0 .2zm.1.897c0-.1-.2.2-.1.1-.3.2.3-.1.1-.1zm.399-1.397l-.2.2.2-.2zm.797.899h.1c0-.1.1-.2 0-.1 0-.1-.1 0-.1.1zm.1-.799c0 .1 0 .1-.1.2l.2-.3-.1.1zm.299 0c.1-.1.2-.2.1-.2s-.2.1-.1.2zm1.297-.698c-.1-.1.1.3 0 .2 0 .1.1.1.1.2 0-.2.1-.1-.1-.4zm-3.89-3.492l-.4-.1.4.1c-.1 0-.1 0 0 0zm4.789 1.597h-.1l.4-.1-.3.1zm-.5-.1s.1 0 0 0c0 0 .4-.2 0 0z"/></g><defs><clipPath id="clip0"><path fill="#fff" transform="translate(9 7)" d="M0 0h81.409v85H0z"/></clipPath></defs></svg>