<svg width="446" height="72" fill="none" xmlns="http://www.w3.org/2000/svg"><path d="M51.486 49.043L50.32 62.1c-10.678-.231-18.212-3.281-22.6-9.15a17.91 17.91 0 01-.71 5.89 4.63 4.63 0 01-2.755 2.708c-2.1.673-4.303.961-6.505.851l-2.678-5.607a54.877 54.877 0 01-5.748 3.04 75.425 75.425 0 01-4.725 1.984l-1.685.63L0 56.036c.93-.189 2.158-.488 3.701-.866 2.58-.76 5.12-1.654 7.607-2.678a36.225 36.225 0 008.568-4.614l-.236-1.102a38.804 38.804 0 01-7.198 4.283 48.62 48.62 0 01-6.788 2.71l-2.63.755-2.788-4.898a68.702 68.702 0 003.465-.724c1.418-.33 3.686-1.008 6.82-2.048a31.782 31.782 0 007.197-3.15l-.819-.583a44.853 44.853 0 01-6.126 2.71 51.831 51.831 0 01-5.245 1.653l-1.969.473-2.394-5.135a83.475 83.475 0 0012.175-2.157H9.497v-4.473h22.617v2.205l.976.346v-4.016H8.426v5.764H.976V29.655h48.825v10.836H37.909l9.45 3.276a26.047 26.047 0 01-7.465 4.19c1.827.735 5.69 1.097 11.592 1.086zM50.32 18.568H.205v-6h16.38V10h7.465v2.567h26.27v6zm-5.008 9.623H5.575v-8.159H45.28l.032 8.159zm-16.774-3.323v-1.575h-15.45v1.575h15.45zm-8.284 27.814a17.322 17.322 0 01-3.544 2.677c1 .1 2.008-.057 2.93-.457.41-.367.614-1.107.614-2.22zm9.97-11.955h-5.418c.503.43.902.969 1.165 1.576.311.61.509 1.271.583 1.952a19.133 19.133 0 003.67-3.606v.078zm78.37 16.475h-26.57v5.197h-7.45v-5.197H58.479v-7.45h16.097v-2.11H60.227v-6.993h3.15V38.68h-6.064v-7.292h6.064v-1.985h-3.733v-6.992h6.536v-2.095h-8.867v-7.402h8.867V10h7.45v2.914h8.568V10h17.844v2.914h9.717v7.402h-9.717v2.095h7.276v6.992h-4.016v1.985h6.457v7.292h-6.457v1.969h3.402v6.993h-24.68v2.11h26.57v7.45zm-34.02-25.814v-1.985h-4.44v1.985h4.44zm0 9.261V38.68h-4.44v1.969h4.44zm7.624-18.238v-2.095H73.63v2.095h8.568zm4.205 8.977v-1.985h-4.379v1.985h4.379zm0 9.261V38.68h-4.379v1.969h4.379zm65.849 21.75h-6.473l-1.276-4.032h-17.608V44.555l-2.441-4.536v22.38h-7.465V24.521h7.528l-.882-3.276h-6.883v-8.379h15.75V10h8.977v2.866h25.389v8.316h-7.276a45.657 45.657 0 01-.756 3.276h7.874v28.224a15.9 15.9 0 01-.708 5.276 5.214 5.214 0 01-2.615 2.945 12.597 12.597 0 01-4.315 1.276 60.378 60.378 0 01-6.82.22zM128.754 32.38h-4.316v4.725a5.167 5.167 0 004.316-4.725zm20.474 19.467V41.059h-5.134a6.867 6.867 0 01-4.489-.93 5.888 5.888 0 01-1.102-4.252v-3.56h-2.977a12.694 12.694 0 01-4.252 9.844h15.434v11.025a5.669 5.669 0 002.158-.237c.268-.157.362-.52.362-1.102zm-6.945-30.665h-10.6l.756 3.276h9.151a43.43 43.43 0 00.693-3.276zm-3.024 30.303v-3.528h-4.851V51.5l4.851-.015zm10.017-16.49v-2.678h-3.733v1.922c-.028.223.016.45.126.645 0 .08.268.11.583.11h3.024zm44.981 26.113h-11.466v1.354h-7.465V35.011h18.899l.032 26.097zm24.018-28.145h-36.224V11.055h36.224v21.908zm-31.499 19.986v-9.843h-4.017v9.843h4.017zm13.812-28.144v-5.591h-10.662v5.59h10.662zm24.239 37.641h-17.325v-1.354h-4.189v1.354h-7.466V34.995h28.98v27.451zm-17.325-9.45v-9.843h-4.189v9.844h4.189zm25.688 3.04c-.766-7.58-1.386-18.847-1.858-33.798 5.165-.116 9.418-.116 12.757 0v33.861a93.6 93.6 0 01-10.899-.063zm39.925-5.291a10.76 10.76 0 01-3.48 8.158c-2.111 1.748-5.371 2.614-9.749 2.614-7.35 0-11.314-3.397-11.891-10.19a12.878 12.878 0 012.268-8.835c1.795-2.473 4.725-3.875 8.867-4.221 0-1.244 0-3.15-.236-5.828l-6.647.11c-.11-3.606-.173-7.984-.173-13.103h6.693v-5.071a369.69 369.69 0 0113.703-.11c0 .692.094 2.44.173 5.244h6.3v12.694h-6.457v5.938c2.094 0 4.252 0 6.457-.174v12.821l-5.828-.047zm-18.017-1.056a2.192 2.192 0 00-1.276 1.953 2.663 2.663 0 00.992 2.237 2.35 2.35 0 002.442.472 2.273 2.273 0 001.874-1.984V49.39a11.86 11.86 0 00-2.3-.173 4.726 4.726 0 00-1.307.236l-.425.236zm37.642 10.426a12.267 12.267 0 01-6.993-5.764 17.161 17.161 0 01-2.41-9.324 12.03 12.03 0 012.914-8.095 36.234 36.234 0 015.008 0c-.055.99.146 1.977.583 2.866a5.661 5.661 0 001.575 2c.596.476 1.24.887 1.921 1.23a9.917 9.917 0 001.575.676l.693.173a55.3 55.3 0 0010.805.41 71.9 71.9 0 009.591-1.291c.189 5.092.189 11.155 0 18.19-4.716.364-9.447.48-14.175.347a55.707 55.707 0 01-8.426-.819l-2.661-.599zm-4.914-28.79c-.189-8.221-.153-13.949.11-17.183 9.783-.551 19.59-.551 29.373 0 .189 3.89.189 9.607 0 17.183-3.89 0-7.969.126-12.269.126h-11.702l-5.512-.126zm74.795-.693l-15.277-.173-.174 3.733c4.788-.074 8.432 1.06 10.931 3.401a12.273 12.273 0 013.764 9.356 13.443 13.443 0 01-2.048 7.875 13.195 13.195 0 01-6.646 4.725 18.85 18.85 0 01-2.74.661c-2.362.397-4.744.66-7.135.788a53.352 53.352 0 01-11.025-.473v-5.292a25.56 25.56 0 002.914-.173l2.221-.3.756-.173c5.874-1.401 7.685-3.968 5.481-7.685a3.592 3.592 0 00-.378-.473 9.57 9.57 0 00-1.119-.93 6.135 6.135 0 00-2.063-.991 26.875 26.875 0 00-3.15-.646 17.036 17.036 0 00-4.63 0l.22-13.703c-1.942.085-5.202.085-9.78 0-.158-5.197-.158-9.528 0-12.993h10.032c0-1.78.142-3.15.221-4.315 5.323 0 10.048.1 14.174.299 0 1.575 0 2.898-.126 3.906 3.927.073 9.214.11 15.86.11.011 3.591-.084 8.08-.283 13.466zm25.578 29.436a160.052 160.052 0 01-19.751 1.276c0-.394 0-2.425.221-6.127 6.877.63 11.697-.456 14.458-3.26a3.43 3.43 0 00-.205-4.22 9.982 9.982 0 00-5.417-2.773 35.93 35.93 0 00-9.293-.755c-.231-7.35-.346-17.472-.346-30.366 5.932-.263 12.106-.263 18.521 0 0 3.811-.036 7.282-.11 10.41 0 3.15-.157 5.293-.236 6.49l-.11 1.874a27.067 27.067 0 018.504.142 13.912 13.912 0 015.592 2.125 15.743 15.743 0 013.023 2.883 7.4 7.4 0 011.465 2.598l.284 1.103c.66 2.668.66 5.458 0 8.127a10.645 10.645 0 01-3.67 5.544 21.213 21.213 0 01-5.78 3.15 34.064 34.064 0 01-7.15 1.78zm7.465-33.342a59.96 59.96 0 01-5.654-12.757c3.717-.126 7.602-.126 11.655 0a58.077 58.077 0 014.725 12.474h-2.158l-3.953.141-4.615.142zm46.84 21.104h-5.733c-3.591 0-6.662.095-9.182.095-1.323-10.416-2.452-21.86-3.386-34.334 7.465-.347 14.731-.347 21.797 0a252.421 252.421 0 01-3.496 34.24zm-.41 12.868c-3.528.126-8.253.126-14.174 0-.079-.771-.158-3.48-.237-8.095 4.914-.316 9.844-.316 14.758 0-.189 5.087-.268 7.78-.268 8.095h-.079z" fill="#292023"/></svg>