<svg width="397" height="72" fill="none" xmlns="http://www.w3.org/2000/svg"><path d="M50.226 54.005H28.602v8.457h-8.033v-30.24a18.019 18.019 0 01-3.56 6.758l-4.55-7.875v31.357h-7.45V34.9a22.144 22.144 0 01-1.087 2.095 16.921 16.921 0 01-1.008 1.575l-.41.52L0 28.254a66.64 66.64 0 001.575-2.237 65.29 65.29 0 003.323-6.3A58.887 58.887 0 008.694 10l7.229 2.914a69.288 69.288 0 01-3.496 9.843v7.103a40.02 40.02 0 008.85-19.813l8.332 1.465c-.11.772-.252 1.48-.409 2.126a8.422 8.422 0 01-.41 1.37l-.11.41h23.782v12.6h-23.86v2.094h21.624v10.789H28.602v2.33h21.624v10.774zM78.654 61.187H67.188v1.338h-7.513V35.074h18.9l.079 26.113zm24.018-28.161H66.448V11.118h36.224v21.908zm-31.5 20.002V43.17h-4.016v9.86h4.017zm13.813-28.16v-5.591H74.323v5.59h10.662zm24.239 37.657H91.899v-1.338h-4.19v1.338h-7.465V35.074h29.027l-.047 27.451zm-17.325-9.45v-9.859h-4.19v9.86h4.19zM147.134 58.966V54.24a7.036 7.036 0 003.417-.583 5.949 5.949 0 002.363-1.796c.515-.696.963-1.44 1.339-2.22a9.108 9.108 0 00.693-1.922l.173-.819a7.66 7.66 0 00-2.678-7.087 12.388 12.388 0 00-9.26-2.882c.341 2.553.399 5.136.173 7.701a16.981 16.981 0 01-1.465 5.56 14.987 14.987 0 01-2.504 3.796 12.211 12.211 0 01-2.961 2.33c-.918.497-1.877.913-2.867 1.245-.7.235-1.423.394-2.157.472l-.803.11a19.186 19.186 0 01-6.395-.755 10.714 10.714 0 01-4.426-2.536 14.171 14.171 0 01-4.11-8.158 30.796 30.796 0 01-.315-4.52 35.59 35.59 0 01.315-4.253c.319-2.451.96-4.85 1.906-7.135a17.443 17.443 0 013.811-5.56 15.404 15.404 0 016.694-3.732 32.453 32.453 0 019.969-1.055c7.812.241 13.865 2 18.16 5.276a18.521 18.521 0 017.481 12.6c.231 2.197.3 4.408.204 6.615a16.93 16.93 0 01-1.338 6.032 15.98 15.98 0 01-3.15 4.725 11.025 11.025 0 01-5.072 2.882c-2.348.617-4.796.75-7.197.394zm-16.018-22.05a5.308 5.308 0 00-5.024 2.961 4.994 4.994 0 00-.425 2.662 3.748 3.748 0 00.961 2.583 2.47 2.47 0 002.945.583 3.415 3.415 0 002-2.615v-.236c.042-.171.074-.345.095-.52v-.724c.016-.33.016-.662 0-.993v-1.15c0-.393-.111-.803-.205-1.244-.095-.44-.205-.913-.347-1.338v.031zM221.252 45.39l-8.741.693 5.78.882c0 5.438-.614 9.166-1.843 11.182-1.228 2.016-3.549 3.16-6.961 3.433-2.252.205-5.056.3-8.395.3-3.339 0-6.016-.095-8.032-.3a5.719 5.719 0 01-3.938-1.968 6.49 6.49 0 01-1.575-4.49v-9.795a55.01 55.01 0 01-4.252 12l-5.544-5.07a32.861 32.861 0 01-2.977 10.205l-6.11-7.056a36.36 36.36 0 002.567-10.457c.346-3.675.519-10.112.519-19.31V15.324h15.152v-5.307h8.977v5.244h25.2v9.025h-29.657c1.396.19 2.94.473 4.63.85 1.686.363 3.024.693 4.001.961l1.575.41-3.04 8.158a93.578 93.578 0 00-12.411-3.15l2.693-7.229h-9.56v8.678a89.369 89.369 0 01-.708 13.592 64.033 64.033 0 001.779-4.898 103.09 103.09 0 001.371-4.552l.472-1.81 5.418 2.802v-4.252h7.45v16.49a.945.945 0 00.881.992c.93 0 1.576.11 1.922.11a15.335 15.335 0 001.685-.11 1.07 1.07 0 00.788-.472 3.607 3.607 0 00.204-1.575v-5.528l2.505.456a165.613 165.613 0 00-1.686-16.364l16.9-1.228c.577 2.573 1.102 5.418 1.575 8.536.504 3.15.85 5.607 1.039 7.434l.347 2.803zM279.478 44.665l-1.401 14.175a34.005 34.005 0 01-8.395-1.748 6.117 6.117 0 01-.268 2.016 3.241 3.241 0 01-1.071 1.449 5.534 5.534 0 01-2.094 1.023 23.279 23.279 0 01-3.67.583 72.156 72.156 0 01-5.402.315c-2 .047-4.536.094-7.591.094l-1.875-5.134c-2.709 3.15-7.733 4.898-15.025 5.134l-3.15-7.874h2.347c5.701 0 9.376-.64 11.025-1.922h-6.41v-1.685a22.601 22.601 0 01-5.418 2.914l-4.142-7.403a33.983 33.983 0 008.678-3.15h-8.096V36.87h13.876a6.04 6.04 0 00.582-1.465h-10.552V20.6h5.245v-1.448h-9.733v-6.71h9.733v-2.425h7.449v2.378h9.151v-2.378h14.742v2.378h11.308v6.71h-11.277v1.448h7.119v14.805h-25.058c-.126.425-.267.914-.472 1.465h29.2v6.583h-13.986c4.824.9 9.725 1.322 14.631 1.26zm-21.041-18.301v-1.465h-18.994v1.465h18.994zm0 4.835v-1.575h-18.994V31.2h18.994zm-5.89 15.624h2.976a15.63 15.63 0 01-2.677-3.323h-7.119a12.493 12.493 0 01-3.308 3.323h2.725c.14-.64.24-1.286.299-1.937h7.466l-.362 1.937zm.755-26.176v-1.45h-9.15v1.45h9.15zm1.575 32.114h-4.362a6.384 6.384 0 01-1.402 2.504 21.163 21.163 0 005.008-.315c.504-.252.756-.977.756-2.221v.032zM306.631 62.462l-2.804-9.623h5.402a8.4 8.4 0 002.127-.378 3.045 3.045 0 001.386-.787 5.246 5.246 0 00.708-1.575 8.793 8.793 0 00.378-2.394V40.302h-12.599a37.51 37.51 0 01-3.465 12.915 23.396 23.396 0 01-7.371 9.293l-5.135-8.395a20.943 20.943 0 004.835-5.071 19.276 19.276 0 002.709-6.615c.549-2.427.917-4.89 1.103-7.371.189-2.363.268-5.481.268-9.324h-7.875v-9.418h15.387v-6.3h8.867v6.3h26.57v9.45h-35.043c0 1.165 0 2.913-.11 5.244h32.113v13.435c0 1.527-.126 3.15-.299 4.898a32.705 32.705 0 01-.583 4 12.427 12.427 0 01-1.165 3.024 7.528 7.528 0 01-1.748 2.363 14.197 14.197 0 01-2.615 1.575c-1.092.548-2.26.93-3.465 1.134a76.685 76.685 0 01-4.614.582 69.571 69.571 0 01-5.733.347c-1.922.031-4.363.094-7.229.094zM350.399 62.163l-6.945-5.764c1.05-2.52 2.1-5.366 3.15-8.537 1.05-3.17 1.79-5.722 2.22-7.654l.693-2.866 6.757 5.244a91.953 91.953 0 01-5.875 19.577zm45.674-3.26l-17.545 3.56a92.962 92.962 0 00-1.102-4.38 151.499 151.499 0 01-21.341 2.978l-1.103-12.175c1.323 0 2.568 0 3.733-.173a108.828 108.828 0 004.016-11.309h-7.796v-4.378l-2.63 4.378a59.209 59.209 0 00-4.048-3.59c-1.417-1.15-2.52-1.97-3.291-2.473l-1.166-.756 4.426-7.166a42.19 42.19 0 016.993 5.244h11.024V23.94h-9.686v-6.3l-3.78 6.63a59.261 59.261 0 00-4.016-3.717 36.116 36.116 0 00-3.276-2.504l-1.165-.819 4.441-6.945a41.892 41.892 0 017.796 6.126v-1.165h9.686v-5.23h8.033v5.245h19.813v8.742h-19.923v4.724H395.9v8.742h-24.995a107.392 107.392 0 01-2.976 10.379 84.917 84.917 0 006.299-.883l-2.22-5.717 16.427-3.26a181.196 181.196 0 017.591 20.853l.047.063z" fill="#292023"/></svg>