<svg width="441" height="72" fill="none" xmlns="http://www.w3.org/2000/svg"><path d="M52.722 51.253l-1.695 15.66c-8.898 0-15.372-.952-19.42-2.855a46.473 46.473 0 01-13.948 2.775l-3.617-9.177a34.621 34.621 0 008.248-1.228 26.001 26.001 0 01-5.099-7.016l4.565-2.748h-4.618v-.814a22.674 22.674 0 01-3.51 1.334v6.03c0 2.054 0 3.654-.08 4.788a28.697 28.697 0 01-.44 3.535 6.4 6.4 0 01-1.002 2.668 6.592 6.592 0 01-1.868 1.547 7.744 7.744 0 01-2.99.974c-1.454.165-2.916.24-4.378.227L.467 57.615H1.99a8.626 8.626 0 003.564-.413c.387-.28.587-1.107.587-2.521v-5.483c-2.67.574-4.245.894-4.565.934L0 40.795l6.14-1.108v-7.776H1.175v-8.417H6.14v-9.178h7.514v9.178h3.51v5.029c1.522-2.615 2.283-6.617 2.283-12.006v-1.16h15.376V25.64c-.022.316.018.634.12.934.08.16.294.24.641.24.36 0 .574-.56.654-1.667.08-1.107.107-4.002.107-8.51l16.377 2.8a49.435 49.435 0 01-.84 10.405 9.215 9.215 0 01-2.377 4.976 6.676 6.676 0 01-4.27 1.334h-11.64c-3.942-.08-5.908-2.246-5.9-6.497v-5.842h-1.174c.016.31.016.622 0 .933 0 .387-.173 1.174-.387 2.335a30.14 30.14 0 01-.814 3.401 22.138 22.138 0 01-1.575 3.682 18.047 18.047 0 01-2.496 3.615h28.67v7.31a26.147 26.147 0 01-2.816 6.776 30.977 30.977 0 005.62-.613zm-32.688-13.34l-4.15-5.896h-2.23v5.963l3.924-1.4v1.333h2.456zm11.4 8.831h-6.608a13.693 13.693 0 004.979 4.322 10.121 10.121 0 001.628-4.375v.053zM99.17 66.913h-6.5l-.76-2.575h-8.53V48.451h9.024v9.178a1.427 1.427 0 001.108-.334c.233-.33.337-.732.293-1.134v-9.47H81.926v20.222H74.92V46.691l-2.35 8.47a64.968 64.968 0 01-1.695-7.657v19.409h-7.02V49.212A52.552 52.552 0 0161.69 61.07l-3.15-11.111a34.671 34.671 0 003.004-6.136 35.186 35.186 0 001.842-5.776h-4.005V29.27h4.445v-3.15c-1.481.08-2.67.107-3.444.107l-1.348-8.99c2.216-.12 4.191-.294 5.927-.534a28.305 28.305 0 003.924-.734 22.547 22.547 0 002.162-.72c.386-.144.75-.341 1.081-.587l.174-.24 2.522 6.136V16.29h9.41v-1.92h7.488v1.92h19.474v7.604H74.839V23.6a32.03 32.03 0 01-3.924 1.334v4.375h4.217v8.778h-3.39a23.527 23.527 0 003.217 5.776V39.86h35.611v18.595c0 3.028-.788 5.215-2.363 6.536-1.575 1.32-4.591 1.921-9.036 1.921zm9.477-28.866H76.293V25.655h32.354v12.392zM91.216 32.71v-1.76H83.78v1.76h7.435zm-2.523 25.892v-4.389h-1.628v4.389h1.628zm78.789-.159h-21.689v8.47h-8.008V36.58a17.786 17.786 0 01-3.578 6.776l-4.564-7.884v31.441h-7.475V39.274c-.32.694-.681 1.334-1.081 2.094a17.655 17.655 0 01-1.028 1.588l-.414.52-2.509-10.872c.387-.507.908-1.254 1.575-2.254a66.533 66.533 0 003.337-6.216 59.648 59.648 0 003.804-9.764l7.248 2.92a68.644 68.644 0 01-3.511 9.872v7.136a40.13 40.13 0 008.89-19.875l8.368 1.467c-.12.774-.253 1.48-.413 2.134-.107.454-.246.9-.414 1.334l-.107.4h23.865v12.58h-23.985v2.094h21.703V45.25h-21.703v2.334h21.703l-.014 10.858zm28.551 7.189h-11.532v1.334h-7.488V39.381h19.02v26.251zm24.092-28.239H183.74v-21.97h36.385v21.97zm-31.62 20.102v-9.87h-4.004v9.87h4.004zM202.36 29.27v-5.615h-10.678v5.615h10.678zm24.332 37.764l-17.432-.067v-1.334h-4.204v1.334h-7.488V39.381h29.124v27.652zM209.3 57.495v-9.87h-4.204v9.87h4.204zm55.445 5.91v-4.736a7.04 7.04 0 003.417-.573 5.895 5.895 0 002.375-1.814c.513-.7.96-1.446 1.335-2.228.315-.6.557-1.236.721-1.894l.173-.827a7.643 7.643 0 00-2.669-7.097 12.328 12.328 0 00-9.343-2.894c.344 2.555.403 5.141.173 7.71a16.99 16.99 0 01-1.455 5.589 15.396 15.396 0 01-2.522 3.802 11.687 11.687 0 01-2.977 2.334c-.916.504-1.877.924-2.869 1.254-.699.243-1.425.4-2.163.467l-.814.12a19.087 19.087 0 01-6.407-.76 10.676 10.676 0 01-4.444-2.548 15.028 15.028 0 01-2.67-3.709 13.755 13.755 0 01-1.401-4.468c-.233-1.5-.34-3.018-.32-4.536.015-1.428.122-2.854.32-4.268a28.558 28.558 0 011.895-7.15 17.93 17.93 0 013.831-5.59 15.487 15.487 0 016.674-3.734 32.048 32.048 0 0110.01-1.054c7.835.227 13.908 2 18.219 5.336a18.662 18.662 0 017.515 12.605c.227 2.216.294 4.445.2 6.67a17.22 17.22 0 01-1.335 6.056 15.852 15.852 0 01-3.096 4.789 11.054 11.054 0 01-5.086 2.894 17.839 17.839 0 01-7.287.254zM248.728 41.26a5.342 5.342 0 00-5.019 2.975 4.785 4.785 0 00-.44 2.668c-.026.958.318 1.89.961 2.601a2.496 2.496 0 002.95.587 3.46 3.46 0 002.028-2.668v-.227c.037-.176.063-.354.08-.533v-1.721c.02-.382.02-.765 0-1.147 0-.387-.106-.8-.2-1.254a9.03 9.03 0 00-.427-1.28h.067zm46.556 23.612a12.01 12.01 0 01-7.021-5.763 17.33 17.33 0 01-2.429-9.337 12.115 12.115 0 012.963-8.004 34.304 34.304 0 015.085 0 5.464 5.464 0 001.495 4.176 7.246 7.246 0 003.244 2.187l1.695.534c5.339 1.05 12.164.773 20.474-.827.147 5.776.147 11.845 0 18.248a129.12 129.12 0 01-14.214.32 58.35 58.35 0 01-8.476-.854l-2.816-.68zm-4.912-28.813c-.2-4.882-.2-10.671 0-17.34 8.854-.428 18.717-.428 29.591 0 .196 3.939.196 9.719 0 17.34h-29.591zm21.235-21.343h-7.661a34.538 34.538 0 01-.173-3.508V1.097c2.57-.13 5.144-.13 7.714 0 .303 4.49.361 9.013.174 13.566l-.054.053zm4.378 0c-.222-1.725-.338-6.265-.347-13.62 1.362-.115 3.938-.115 7.729 0 .106 4.243.142 8.76.106 13.554h-3.07l-4.418.066zm16.258 50.863l-4.445-2.281a70.177 70.177 0 001.228-14.793V47.45l4.151.173v2.335a99.395 99.395 0 01-.934 15.62zm47.036 1.334H361.02v-1.574h-6.487v1.574h-7.488V61.71l-4.324.88a117.94 117.94 0 00-1.001-13.566l4.097-1.16c.588 4.001.988 7.91 1.228 11.685V46.397l-4.498 1.52a70.15 70.15 0 01-.24-2.107 5.132 5.132 0 00-.587 0 4.211 4.211 0 01-.588 0v20.983h-7.007v-20.45h-5.739l-.467-8.296h3.216a30.225 30.225 0 001.575-2.455c-1.335-2.267-2.936-4.735-4.845-7.43l2.456-9.337c.614.827.974 1.334 1.054 1.467a98.9 98.9 0 001.696-5.79l6.673 2.455a48.38 48.38 0 01-4.004 9.418l1.054 1.507c.654-1.4 1.268-2.788 1.842-4.175a58.855 58.855 0 001.202-3.121l.4-1.054 5.619 4.002a74.2 74.2 0 01-4.564 10.404l3.924-1.934c.038.162.096.32.173.467.089.172.164.35.227.534a9.948 9.948 0 003.457-3.602c.828-1.647 1.4-3.41 1.695-5.23h-4.898V15.41h33.982v9.057c0 2.455 0 4.469-.173 6.043a22.814 22.814 0 01-.735 4.389 7.727 7.727 0 01-1.454 3.068 7.32 7.32 0 01-2.576 1.814c-1.198.532-2.473.87-3.778 1a52.445 52.445 0 01-5.339.227h-6.446l-2.283-9.338c2.096 0 3.337-.346 3.711-1.053.373-.707.56-2.855.56-6.483h-2.923a54.314 54.314 0 01-1.174 6.603 22.03 22.03 0 01-2.67 5.936 17.455 17.455 0 01-5.072 5.335l-3.497-7.296c.632 3.228 1.077 5.682 1.335 7.363h31.887l.053 24.838zm-38.147-29.226l-.467-2.575c-.547.907-1.148 1.8-1.802 2.668h1.162l1.107-.093zm19.888 19.528v-6.963h-6.487v6.963h6.487zm68.258 9.698h-16.257V34.352h2.229a47.361 47.361 0 01-8.009-11.272 33.988 33.988 0 01-4.685 5.696 41.016 41.016 0 01-6.433 5.469h7.715v7.07c0 1.734-.16 3.855-.347 6.19a39.197 39.197 0 01-.881 5.882 43.76 43.76 0 01-1.575 4.962 19.296 19.296 0 01-2.576 4.709 23.515 23.515 0 01-3.751 3.922l-5.993-7.484a19.104 19.104 0 005.74-8.67 57.728 57.728 0 001.201-13.913v-2.214a54.053 54.053 0 01-7.381 4.375l-3.217-9.591a37.788 37.788 0 0011.786-7.297 30.036 30.036 0 006.353-7.777h7.488c5.339 3.558 15.185 5.336 29.538 5.336l-2.403 28.013a38.053 38.053 0 01-8.542-2.561v21.716z" fill="#292023"/></svg>