<svg width="388" height="72" fill="none" xmlns="http://www.w3.org/2000/svg"><path d="M39.182 55.322c-4.565.076-7.93.18-10.099.31.245 2.666.458 4.662.67 5.986-5.937.164-11.482.202-16.634.115-.556-3.418-.866-5.496-.899-6.232H.912a96.588 96.588 0 010-13.967c4.183-.164 7.452-.246 9.805-.246 0-.278-.18-2.208-.425-5.757H.079a129.56 129.56 0 01.294-14.344c.523 0 3.448-.098 8.775-.294-.294-2.257-.49-4.809-.605-7.622 7.419-.196 12.91-.278 16.504-.245.164 1.488.441 4.056.85 7.687 4.624 0 8.987 0 13.072.18.524 4.718.644 9.474.36 14.213-.72 0-4.739.163-12.027.376 0 .687.164 1.734.262 3.173.098 1.44.163 2.224.163 2.388 4.15 0 8.04.082 11.667.245.022 5.736-.049 10.413-.212 14.034zm34.822-7.017a39.726 39.726 0 01-4.903.196 7.89 7.89 0 00.605-4.252c-2.664 0-5.36.13-8.17.13 1.329 6.543 2.576 12.31 3.742 17.305h-8.17c-.72-1.816-1.635-4.155-2.517-7.017-.883-2.862-1.634-5.267-2.32-7.213l-.9-2.895h-7.63c-.087-2.671-.126-7.392-.115-14.164H47.5a36.6 36.6 0 01-.572-2.355 35.69 35.69 0 00-.523-2.192h10.883l.915 4.367h22.73c-1.83 8.843-4.14 14.873-6.928 18.09zm28.727-16.095c-6.7.164-13.536.224-20.508.18V18.244c3.388-.163 10.24-.163 20.557 0 .247 4.653.23 9.317-.049 13.968zm20.18 10.174a27.45 27.45 0 01-6.879 13.084 19.445 19.445 0 01-13.971 5.986l-3.089.279c-1.242.098-3.71.245-7.37.441-2.98.228-5.973.228-8.954 0-.28-5.667-.237-11.347.13-17.01 3.39.17 6.786.027 10.148-.425a40.822 40.822 0 006.716-1.325 10.605 10.605 0 002.108-.85c.49-.245.997-.523 1.52-.85a28.95 28.95 0 006.896-7.442 33.654 33.654 0 003.104-7.508 39.573 39.573 0 001.634-10.533h9.543c.082 5.3 0 10.108-.261 14.475a84.59 84.59 0 01-.883 9.127l-.392 2.551zM162.765 28.4l-.67-.54.899.785a.341.341 0 01.245.115l19.838 17.124c-4.51 5.049-8.868 9.994-13.073 14.835l-1.765-1.456-3.268-2.715a412.883 412.883 0 00-4.232-3.63c-1.699-1.44-3.677-3.272-5.948-5.267-2.271-1.996-4.69-4.253-7.223-6.543-2.794 3.272-5.261 6.117-7.434 8.424-1.667-1.342-5.861-5.234-12.583-11.678 4.728-5.332 11.602-12.42 20.622-21.263 8.192 6.542 13.056 10.479 14.592 11.81zm6.831 1.816c-4.2.163-6.651-1.636-7.386-5.332-.6-2.944-.055-5.125 1.634-6.543a9.21 9.21 0 016.34-2.175 6.041 6.041 0 015.556 2.846 8.186 8.186 0 011.209 5.92 5.825 5.825 0 01-2.108 3.91 9.03 9.03 0 01-5.245 1.373zm-6.651-1.636l.294.18-.245-.115-.049-.065zm6.7-7.687a3.09 3.09 0 00-1.896.67 1.92 1.92 0 00-.572 2.11 2.194 2.194 0 002.468 1.816 2.286 2.286 0 002.304-1.865 3.275 3.275 0 00-.458-1.848 1.94 1.94 0 00-1.846-.801v-.082zm17.729 22.701c-.212-8.178-.228-13.886 0-17.19 14.751 0 25.791.06 33.123.18.163 6.052.163 11.722 0 17.01h-33.123zM245.04 32.21c-6.689.164-13.519.224-20.491.18V18.244c3.388-.163 10.24-.163 20.556 0 .249 4.653.227 9.317-.065 13.968zm20.197 10.174a27.334 27.334 0 01-6.896 13.084 19.391 19.391 0 01-13.955 5.987l-3.088.278c-1.258.098-3.709.245-7.37.441a58.77 58.77 0 01-8.954 0 152.241 152.241 0 01.114-17.01 55.51 55.51 0 0010.164-.425 40.822 40.822 0 006.716-1.325 10.6 10.6 0 002.108-.85c.49-.245.98-.523 1.519-.85a25.409 25.409 0 003.023-2.634 23.388 23.388 0 003.857-4.808 33.573 33.573 0 003.121-7.508 40.94 40.94 0 001.634-10.533h9.543c.081 5.3 0 10.108-.262 14.475a84.335 84.335 0 01-.882 9.127l-.392 2.551zm56.163 19.84h-2.419a4.689 4.689 0 01-3.497-1.08 6.366 6.366 0 01-1.029-4.236V49.89a44.402 44.402 0 01-3.268 7.164 35.535 35.535 0 01-4.232 6.379l-8.53-4.35-2.288 1.635c0-.115-.229-1.325-.67-3.631a43.21 43.21 0 01-8.955 6.182l-2.058-9.388c.262-.15.535-.28.817-.392.326-.13.643-.284.947-.458V38.639l-1.634 6.051a67.955 67.955 0 01-1.274-7.818V63.5h-7.19V40.601a63.618 63.618 0 01-1.634 11.613l-2.353-12.038a55.09 55.09 0 003.873-13.984h-3.269v-9.077h3.448V9.068h7.141v8.047h2.909v-6.951h12.745v19.904h1.634V19.241h-.947v-9.077h26.144v9.077h-2.598a106.468 106.468 0 01-.67 10.827h3.938v9.078h-6.046v13.199c0 .801.262 1.21.785 1.21a.377.377 0 00.359-.245 4.82 4.82 0 00.213-1.243c0-.67.098-1.636.13-2.748.033-1.112 0-2.846 0-5.038l4.543 2.061c0 2.944 0 5.25-.098 6.902a44.562 44.562 0 01-.359 4.514 6.538 6.538 0 01-.883 2.863 3.467 3.467 0 01-1.47 1.243 5.783 5.783 0 01-2.255.36zm-35.116-29.048v-7.017h-2.958a55.193 55.193 0 002.958 7.017zm7.68-11.547v-3.026h-1.879v3.026h1.879zm0 10.467v-3.27h-1.879v3.27h1.879zm10.817 7.017h-5.752v1.456h-6.536v8.717l.899-.638.719-.523-.834-3.81 5.017-2.961c.752 3.27 1.389 5.953 1.863 8.292a31.588 31.588 0 002.631-5.152 30.968 30.968 0 001.993-5.381zm.85-9.077h1.209c.436-3.593.654-7.209.654-10.828h-1.863v10.828zm81.442 28.753l-23.531 4.645c-.882-.802-2.009-1.734-3.382-2.78a96.995 96.995 0 01-24.004 2.73l-2.844-9.077c3.432.197 5.916.295 7.435.295 2.188 0 4.372-.159 6.537-.474-1.569-.524-4.412-1.293-8.53-2.307 1.176-1.635 2.238-3.27 3.268-4.906h-8.759v-8.293h13.073a9.855 9.855 0 00.784-1.995h-12.027v-16.16h10.573v-2.06h-12.517v-8.178h53.123v8.178h-22.239v2.06h20.491v16.16h-28.057a35.097 35.097 0 01-.719 1.995h30.655v8.293h-7.01a22.052 22.052 0 01-2.974 6.231 67.4 67.4 0 0110.654 5.643zM345.649 30.1v-3.27h-2.843v3.27h2.843zm15.295 16.764h-8.758l-.425.72c2.941.573 5.523 1.112 7.729 1.636a11.35 11.35 0 001.454-2.355zm-4.657-26.446v-2.061h-2.892v2.06h2.892zm0 9.682v-3.27h-2.892v3.27h2.892zm10.654 0v-3.27h-2.908v3.27h2.908z" fill="#292023"/></svg>