<svg width="100" height="100" fill="none" xmlns="http://www.w3.org/2000/svg"><g clip-path="url(#clip0)" fill="#27A9E1"><path d="M50.444 91.663h.238c0-.12-.238 0-.238 0zM50.086 90.709l-.12-.12.12.12zM50.086 89.874c-.238.12 0 .358 0 .477h-.12l.24.12c-.12-.239-.24-.477-.12-.597zM50.682 89.398c-.12 0-.12-.12 0 0 0 .119 0 .119 0 0 0 0 0 .119 0 0zM50.682 89.517s.12-.12 0 0zM50.563 89.04c.12.12.238 0 .238 0 0-.119-.119 0-.238 0zM50.325 88.92c.119.12.119.12 0 0zM50.444 89.16l-.12-.12s-.119 0 .12.12c0-.12-.12-.12 0 0zM50.444 89.16c-.12.118-.12.118-.239 0 .12.357.358.238.239 0zM49.728 89.874v.12s.12-.12 0-.12zM50.682 88.325h-.238l.119.119s0-.12.12-.12zM50.444 88.325l-.12-.12c0 .12.12.12.12.12zM50.086 88.92l.12.24-.12-.24zM50.682 87.848h.12l-.12-.119v.12zM50.682 87.49c.12 0 .238-.119.238 0 0-.119-.119-.119-.238-.238.12 0 .12.12 0 .238zM50.563 87.133l.12.119c0-.12 0-.12-.12-.12zM50.325 87.967s.119 0 .119-.119l-.12.12zM50.205 88.563c-.119-.12-.238-.238-.357-.12.119.12.238 0 .357.12z"/><path d="M50.205 88.086v.12h.12l-.12-.12zM50.086 87.967l.12.12-.12-.12zM50.444 87.371c-.12 0-.12-.119-.12-.238v.238h.12zM50.205 87.371c0 .12 0 .12.12.12l-.12-.12zM50.444 86.894s0 .12 0 0c0 .12.119 0 0 0zM49.133 86.18c.119 0 .357.118.119.357.119.12.715 0 .953-.12-.119 0-.119 0-.238-.118-.12 0-.239.357-.358.238-.119-.239 0-.12.12-.239-.12 0-.239-.238-.477-.238l.119.12h-.239zM50.205 86.656s.12 0 .239-.12c-.12-.118-.12-.118-.239-.118v.238zM50.325 87.014c-.12 0-.239-.12-.477-.12 0 .12.119.12.238.239-.12-.238.12.12.239-.12v0c.119 0 .119 0 0 0 .119 0 .119 0 0 0 0 0 0-.118 0 0 .119 0 .119 0 0 0v-.238c-.12 0-.12.12 0 .239zM49.49 88.325c.12 0 .12 0 0 0 .12.119 0 0 0 0 0 .119.12.238.12.119 0-.12.238-.238.357-.238-.12 0-.239 0-.477.119zM49.848 87.61l-.12-.239-.119.12h.12c0 .118.119.118.119.118zM50.444 86.418h.119l-.239-.12.12.12zM50.086 78.788c.12-.119.358-.238.239-.238h-.12c0 .238 0 .238-.119.238zM48.894 73.9l.12.12-.12-.12zM48.179 73.9l.119-.118s-.12 0-.12.119zM47.583 66.868l-.239-.12c.12.239.12.12.239.12zM50.205 83.08c.12-.12.12-.12.12-.239-.12.12-.239.239-.12.239zM50.325 82.603v.238c0-.119.119-.119 0-.238zM49.133 54.47c0 .12 0 .12 0 0 .119.12.119.12 0 0zM50.444 84.749c0 .119-.12.119 0 0-.12.119 0 .119 0 0 0 .119 0 .119 0 0zM48.06 77c.238.12.238.12.119.239l.477-.12-.596-.118z"/><path d="M47.821 68.417l-.119.12c-.238-.239-.238-.358-.358-.12.596 0 .12.596.596.596l-.119.12v-.12c-.238.239.358.12.358.358 0 .12-.12.12-.239.12l.12.238c0 .119-.12 0-.12 0v.357c.12 0 .239.12.239.239-.12.119-.12 0-.12 0l.12.119c-.12.12-.239-.12-.239-.239-.596.12.12.12-.119.477l-.119-.119c-.358.12-.238.239-.358.477.12 0 .477-.358.596-.239v.239c-.238 0-.119.12-.119.238h-.238c.119.12.238.12.357.239 0 .119-.238.238-.357.238 0 .239.357-.119.357.12-.119.238 0 .357.239.595-.12.12-.12 0-.239 0l.239.12h-.12c.12.119.239 0 .358.119.239 0-.357.357-.119.477h-.238c.238.238.119.238.476.476l-.119.239c.239-.12.477 0 .596.12.12 0 .12-.12.239-.12l.119.238h-.239.12c-.12.12-.239 0-.358 0l.12-.119c-.12 0-.358-.12-.478-.12l.12.12h-.12l.12.12-.239.118h.12l-.12.358c.358.239.715.477.835.835-.239-.12-.358 0-.596 0 .238-.12-.12-.239-.12-.477 0 .119-.119.119-.238 0l.238.357c-.238 0-.119.12-.238.12.358-.12.238.238.358.357-.12 0-.239 0-.239-.238-.357.238.477.238.239.477v-.12c.119.12 0 .358-.12.239 0 .238 0 .834.358.834h-.477l1.192.477c-.357 0-.953.12-1.192-.12 0 .12-.119.12 0 .24l.477-.12c-.358.12-.12.12-.477.358.12-.12.477 0 .477.119h-.477l.477.238c-.12-.119-.358 0-.477.12.12 0 0 .238 0 .357l.12-.12c-.12.358.715.24.596.597-.12 0-.597-.12-.597.12.239.118 1.192.237 1.312.476h-.12l.12.238c-.358-.119-1.073-.477-1.43-.596-.12.12-.12 0-.12.239-.12.119-.238-.12-.238-.12l-.12.358c.239 0 .239.239.477.239l-.357-.358c.238 0 .834.238.715.477-.12.119-.477 0-.596 0 .119 0 .238.238.119.238l-.12-.119c-.118.12.358.238.12.477 0 .119-.358.238-.238.238.357-.119 1.31-.119 1.55-.119 0 0-.24.358-.477.477-.239.119-.597-.12-.835 0 .12 0 .12 0 .238.119.12-.238-.119-.358-.119-.238.239 0 0 .238.239.119.119.119 0 .119 0 .357.238 0 .596.12.715.239h-.239c0 .238-.119.477-.119.715-.119 0-.119.12-.238.12l.119.118c-.238.12 0-.238-.358 0 .12 0 .239.239.358.358.239 0 0-.238-.12-.358.358 0 .716.239.835.477.12.239-.238.12-.119.12 0 .476.596.357.358.715-.239.119-.477 0-.596 0-.12-.239.119-.239.119-.358l-.12.12c-.118 0-.118-.12-.118-.24-.239.12 0 .716-.239 1.074.12 0 .12.119.239.119v-.12c.119-.118.238.24.357 0 .12.12.358.24.238.478h-.238c.12 0 .12-.12.12-.239.118.12-.358.358 0 .358l.118-.12c.12.12.358.358.358.477l.239-.119c-.358.12 0-.477-.358-.238.358-.12.12-.239.477-.358-.12 0-.12.12-.12-.119h-.119l-.119.12c-.238-.12-.238-.358-.238-.358 0-.12.119 0 .238 0l-.12-.12c.24 0 .358-.238.358 0v-.238c.12-.12.12-.239 0-.358 0-.119-.238-.238-.119-.119l-.119-.238c0-.239-.358-.596 0-.954 0-.12-.12-.238-.12-.357h.12c-.12-.12.12-.358 0-.477.477-.12.12-.596.12-.835h-.24c0-.119 0-.238-.118-.477h-.239c-.119-.119.12-.357.12-.715.119 0 0 .12 0 .12.357-.358-.358-.597 0-.954-.12-.12 0-.12 0-.12l.119-.119s-.12 0-.12.12c0 0 0-.12-.119-.239h.239c.119-.12-.12 0-.239 0l-.119-.12c.358-.118-.12-.238.238-.238-.119 0-.119-.357-.476-.476h.119c0-.12.12-.12 0-.239h.238l-.357-.238c.119-.12.238-.12.476-.12-.357-.238-.119-.238-.476-.476h.119c0-.12-.239-.239-.12-.239.358-.238 0-.953.24-1.43-.478.12.237-.239-.12-.239.12 0 .12-.119.238 0-.119-.238.12-.357-.119-.476h.238s-.119-.12 0-.12c.12 0 .12 0 .12.12 0-.239-.358-.239-.715-.239.119-.119.119-.238-.12-.238.12 0 .239-.12.239 0 0-.12.119-.596-.12-.596.12 0 0-.12 0-.12v-.357c-.357-.12-.119-.12-.119-.358.239-.357-.119-.119.12-.476h-.239c-.477 0 .239-.358.12-.477l-.12.119c-.12-.12.596-.358.596-.477 0 0 .12 0 .12.12.238-.358-.24 0-.358-.24.119 0 .357 0 .357-.118.12-.12-.477-.358-.238-.596-.12 0-.239.119-.239 0 0-.12.358-.477 0-.596h.12c-.12-.12-.12-.358-.358-.477.715-.12-.358-.715.239-.715v-.358h.119c0-.238-.12-.358-.239-.358h.12c.119-.357.119-.357-.239-.715h.239c-.12-.119.357-.477 0-.834h.119c-.239-.358.596-.954-.239-1.073l-.238-.239c0 .358-.358 0-.477.12 0-.12.238-.358.238-.239.358 0 .12-.357.358-.357 0-.596.12-1.312.12-1.908l-.358.12v-.239c.119 0 .238-.119.238.12.12-.12-.12-.239-.238-.239.119-.239.357.12.357 0v-.12c-.119-.119-.238-.119-.238-.238s.238-.119.238-.119v-.357l-.238.119c-.12-.12 0-.239-.239-.12.358-.238.12-.953.239-1.072-.12-.12-.239-.358-.12-.477 0 0-.357.12-.238-.12.596 0 .239-.357.596-.476-.238.119-.119-.477-.477-.239 0-.119.239 0 .358-.119-.238-.357.12-.715 0-1.192-.12 0-.238.12-.238 0l.357-.238c0-.12-.477-.12-.119-.239h-.12c.358-.834-.357-1.669.358-2.503-.119.12-.119 0-.119 0h-.238l.238-.358c-.238 0 0-.357-.238-.357v.119c-.358-.12-.715.238-1.073.238.358.12-.477.477 0 .716-.12.119-.12 0-.238 0 .119.119.238.119.119.357 0 .477-.12.596-.239 1.073h.239c0 .12-.12.12-.12.12.358.119 0-.24.358-.24-.357.12 0 .716-.477.835 0 .12.239 0 .239.12h-.12.12c0 .119-.12.119-.239.119v-.12c-.119.12.12.358 0 .477l.12-.119c.119.477 0 .954.238 1.43h.12c.238.358-.12.239 0 .597.118.119.118.119.118.238-.119-.12-.238.12-.357.12.238.357.119.119.477.357h-.12c.12.12.239.12.239.238-.12-.119-.239.12-.358 0-.357.358.358.596-.119.716.477.119.238-.358.358-.239.119-.12.357.12.238.239 0 .119-.477.238-.477.476v-.119c-.119.12.12.239 0 .358.239.119 0 .238.358.238l-.12-.238c.12.119.477.238.239.596-.12 0-.12-.12-.238-.12-.12.12.119.12 0 .239-.358 0-.12-.358-.358-.477-.12.12.238.358-.12.239.478.119 0 .238.358.476h-.238l.12.12-.24-.12c.24.12-.238.358 0 .477 0-.357.24-.119.358-.238.239.357-.476.238-.357.715 0-.12.119-.238.238-.12 0 .12-.119.24-.238.24 0 .357.238 0 .357.118-.238.12.12.12.239.239h-.239c-.119.358.358.12.239.358l-.358-.358.12.12h-.239c.12.118.12.237.12.357.118 0 .357 0 .357.119-.12.12-.239 0-.12.12-.119 0-.238-.12-.119-.24h-.238c-.12.12 0 .24 0 .358v-.119l.238.358h-.238c0 .119.12.119.12.238-.12 0-.358 0-.358-.12l.238.24c-.12 0-.238.118-.238.118-.12.12.357.358.238.597 0 0 .12 0 .12.119 0 .238-.24.357 0 .596l-.24.119c.12.238.358-.238.478.12.119.238-.239.118-.358.118.12.12.477.239.238.477l-.119.12zm.12 2.265s-.12-.119 0-.119c.238 0 .119.12 0 .12zm.595 3.576c-.119 0 0-.119 0-.119.12 0 0 .12 0 .12zm1.67 9.895c.118 0 0 0 0 0zm-.12.238c.12 0 .12 0 0 0 .12 0 .12 0 0 0zm-.715-22.65c-.12 0 0 0 0 0zM50.563 85.583v-.12c-.12 0-.12 0 0 .12-.12-.12-.12-.12 0 0zM49.37 86.775h.12c-.12-.119-.12-.119-.12 0zM49.848 85.702c-.12 0-.12.12-.12.239.239-.12.239-.12.12-.239z"/><path d="M50.205 84.63h.12c.238.119-.239-.239-.12 0zM49.252 85.821l.238-.119h-.12l-.118.12zM49.49 84.987v.12h.12c-.12 0-.12-.12-.12-.12zM49.37 83.438l-.118-.12c-.12 0-.12 0-.12.12.239-.12.239 0 .239 0zM48.894 83.914s.12 0 .12-.12l-.12.12zM48.775 83.438c-.12 0-.239-.239-.239 0 .12 0 .239.119.239 0zM47.94 78.789c-.119.238.239 0 .12.238.119 0 .119-.12.238-.12-.12-.118 0-.238-.358-.118zM49.37 54.113l.12-.239-.12.12v.119zM49.013 53.875h.239-.239c.12-.12.12-.12 0 0zM47.464 71.04c.119 0 .119 0 .119-.12l-.12.12zM47.225 67.94v.24c0-.12.358-.24 0-.24zM53.305 85.702h.119l-.12-.119v.12zM53.305 84.987c-.239.119 0 .238 0 .357h-.12.239c0-.119-.12-.238-.12-.357zM54.02 84.51c-.12.119-.12 0 0 0-.12.119 0 .119 0 0 0 .119 0 .119 0 0zM53.9 84.272c.12.119.24 0 .24 0h-.24zM53.662 84.152c.12.12.12.12 0 0zM53.781 84.39c-.119-.118-.238-.118 0 0-.119-.118 0-.118 0 0zM53.782 84.39c-.12 0-.12.12-.239 0 .12.239.239.239.239 0zM53.066 84.868v.119c-.119 0 .12-.12 0-.12zM54.02 83.675h-.239l.12.12s0-.12.119-.12zM53.305 84.152l.238.239-.238-.239zM54.02 83.199l.12.119-.12-.12zM54.02 82.96c.12 0 .238-.12.238 0 0-.12-.119-.12-.238-.238.12.119.12.119 0 .238zM53.9 82.722l.12.119c0-.12 0-.12-.12-.12zM53.662 83.437s.12 0 .12-.12l-.12.12zM53.662 83.437c0-.12.12-.12 0 0 .12-.12 0-.12 0 0zM53.543 83.914c-.12-.12-.238-.239-.358-.12.12.12.12 0 .358.12zM53.543 83.437c0 .12.12.12.12.12l-.12-.12zM53.781 82.84c-.119 0-.119-.118-.119-.118v.238s.12 0 .12-.12z"/><path d="M53.543 82.96s.12 0 0 0c.12 0 .12 0 0 0 0-.119 0-.119 0 0zM53.9 82.483c-.119 0-.119.12 0 0-.119.12 0 0 0 0zM52.59 81.888c.119 0 .357.119.119.238.119.12.715 0 .953-.12-.119 0-.119 0-.238-.118-.12 0-.239.238-.358.119-.119-.12 0-.12.12-.239-.239.12-.239-.238-.597-.119l.12.12c0 .119-.12.119-.12.119zM53.662 82.364s.12 0 .239-.119c-.12-.119-.12-.119-.239-.119v.238z"/><path d="M53.662 82.603c-.119 0-.238-.12-.477-.12 0 .12.12.12.239.12 0-.12.119.119.238 0v.119c0-.12.12-.12 0-.12.12 0 .12 0 0 0 .12 0 .12 0 0 0 0 0 0-.118 0 0 .12 0 .12 0 0 0 .12 0 .12 0 0 0v-.238.239zM52.828 83.675c.119 0 .119 0 0 0 .119.12 0 0 0 0 0 .12.119.239.119.12.12-.12.238-.239.358-.239-.12 0-.239 0-.477.12zM53.185 83.08v-.12l-.119.12h.12s-.12 0 0 0zM53.782 82.126h.119l-.239-.12.12.12zM53.782 81.768l.119.12-.12-.12zM53.662 75.808c.12-.119.358-.119.239-.119h-.12l-.119.12zM52.47 71.755s.12.12 0 0c.12.12.12 0 0 0zM51.755 71.755c.12-.12 0-.12 0 0zM51.278 65.914l-.238-.12c.119.24.119.12.238.12zM53.662 79.384l.12-.119c-.12 0-.358 0-.12.12zM53.424 68.298c0-.12-.12-.12 0 0-.12-.12-.12 0 0 0zM53.782 78.907c-.12.12-.12.12 0 0v.239s.119-.12 0-.239zM53.662 80.934c.12 0 .12 0 0 0 .12-.12.12 0 0 0zM51.636 74.377c.238.12.238.12.119.239l.477-.12-.596-.119z"/><path d="M51.397 67.106l-.119.12c-.238-.12-.12-.24-.358-.12.597 0 .12.477.597.477l-.12.119c-.238.12.358.12.358.358 0 .119-.12.119-.238.119l.119.119h-.12v.238c.12 0 .239.12.239.12-.12.119-.12 0-.12 0l.12.119c-.12 0-.238 0-.238-.12-.597.12.119.12-.239.358l-.12-.12c-.357.12-.238.24-.357.358.12 0 .477-.357.596-.119 0 0-.119.12 0 .239-.238 0-.119.119-.119.238h-.238c.119.12.238.12.357.12 0 .119-.238.119-.357.238 0 .238.357-.12.357.119-.119.12 0 .238.12.477-.12.119-.12 0-.239 0l.239.119h-.12c.12.12.239 0 .358.12.238 0-.477.238-.12.476h-.238c.239.238.12.238.477.358l-.119.119c.238-.12.477 0 .596.12.12 0 .12-.12.238-.12l.12.238h-.239.12c-.12.12-.239 0-.358 0 0 0 .119 0 .119-.119-.12 0-.358-.12-.477-.12l.12.12h-.12l.12.12h-.239.12l-.24.238c.24.238.716.357.835.715-.238-.12-.357 0-.596 0 .239-.12-.119-.239-.119-.358 0 .12-.12.12-.238 0l.238.239c-.238 0-.12.119-.238.119.357-.12.238.238.357.358-.119 0-.238 0-.238-.12-.358.12.477.239.238.358v-.12c.12.12 0 .24-.119.24 0 .237 0 .714.358.714h-.477l1.192.358c-.358 0-1.073.12-1.192-.12 0 0-.12.12 0 .24 0 0 .477-.12.477 0-.358.118-.12.118-.477.238.119 0 .596 0 .477.119h-.477l.477.238h-.477c.119 0 0 .239 0 .239l.119-.12c-.12.239.596.239.596.477-.12 0-.596-.119-.596.12.238 0 1.192.238 1.311.476h-.119l.12.12-1.431-.477c-.12.119-.12 0-.12.119-.119 0-.238-.12-.238-.12l.12.24c.238 0 .238.237.476.237l-.238-.357c.238 0 .834.238.715.477-.12.119-.477 0-.596 0 .12 0 .238.238.12.238l-.12-.12c-.12.12.358.24.12.359 0 0-.358.119-.24.119.358-.12 1.312-.12 1.55-.12 0 0-.238.239-.476.358-.239.12-.596-.12-.835 0 .12 0 .12 0 .239.12-.12 0-.239 0-.239.119.239 0 0 .238.239 0 .119.119 0 .119 0 .238.238 0 .596.12.715.238h-.239c0 .239-.119.358-.119.596-.119 0-.119.12-.238.12l.119.119c-.238.119 0-.12-.358 0 .12 0 .239.119.358.238.238 0 0-.238 0-.357.358 0 .715.119.834.357.12.239-.238.12-.119.12 0 .357.596.238.358.595-.239.12-.477 0-.596 0-.12-.119.119-.238.119-.357l-.12.238c-.118 0-.118-.119-.118-.238-.239.119 0 .596-.239.834.12 0 .12.12.239.12v-.12c.119-.119.238.12.357 0 .12.12.358.239.239.358h-.239c.12 0 .12-.12.12-.12.119.12-.358.24 0 .358l.119-.119c.119.12.357.239.357.358l.239-.12c-.358.12 0-.357-.358-.238.358-.12.12-.238.477-.358-.12 0-.12 0-.12-.119h-.118s-.12 0-.12.12c-.238 0-.238-.239-.238-.358 0-.12.12 0 .238 0l-.119-.12c.239 0 .358-.238.358 0v-.119c.119-.119.119-.238.119-.238 0-.12-.239-.12-.12-.12l-.118-.238c0-.238-.358-.476 0-.715 0-.119-.12-.119 0-.238h.119c0-.12.119-.358 0-.358.476-.12.119-.477.119-.715h-.239c0-.12 0-.239-.119-.358h-.238c-.12-.119.12-.357.12-.596.118 0 0 .12 0 .12.357-.239-.359-.477 0-.716-.12 0 0-.119 0-.119s.118 0 .118-.12c0 0-.119 0-.119.12 0 0 0-.12-.12-.12h.24c.119-.118-.12 0-.24 0l-.118-.118c.357 0-.12-.12.238-.239-.12 0-.12-.357-.477-.357h.12c0-.12.119-.12 0-.239h.238l-.358-.119c.12-.12.239-.12.477 0-.358-.238-.12-.238-.358-.358h.12c0-.119-.239-.119-.12-.238.358-.12 0-.715.358-1.192-.477.12.239-.239-.12-.239.12 0 .12-.119.24 0-.12-.238.119-.357-.12-.476h.239s-.12-.12 0-.12c.119 0 .119 0 .119.12 0-.239-.358-.239-.716-.239 0-.238 0-.238-.238-.357.12 0 .238-.12.238 0 0-.12.12-.477-.119-.477.12 0 0-.12 0-.12v-.357c-.357 0-.119-.12-.119-.238.238-.358-.12-.12.12-.477h-.24c-.476 0 .24-.239.12-.477l-.12.12c-.118-.12.597-.24.597-.359h.12c.238-.238-.24 0-.359-.238.12 0 .358 0 .358-.12.12-.118-.477-.357-.238-.476-.12 0-.239.12-.239 0s.358-.358.12-.477h.119c-.12-.119-.12-.357-.358-.357.715-.12-.358-.596.238-.596v-.358h.12c0-.238-.12-.238-.239-.358h.12c.119-.238.119-.357-.239-.596h.238c-.119-.119.358-.357.12-.715h.119c-.239-.357.596-.715-.239-.834l-.238-.239c0 .239-.358 0-.477.12 0-.12.239-.239.239-.12.357 0 .119-.357.357-.357 0-.477.239-1.073.239-1.55l-.358.12v-.12c.12 0 .238-.12.238.12.12-.12-.119-.24-.238-.24.12-.238.358.12.358 0v-.118c-.12-.12-.239-.12-.239-.239s.239 0 .239-.119v-.238l-.239.119c-.119-.12 0-.239-.238-.12.357-.119.119-.834.238-.953-.119-.12-.119-.239-.119-.477 0 0-.358.12-.238-.12.596 0 .238-.237.596-.357-.239.12-.12-.357-.477-.238 0-.12.238 0 .357-.12-.238-.238.12-.595 0-.953h-.238l.358-.238c0-.12-.477 0-.12-.239h-.119c.358-.715-.357-1.43.358-2.146-.12.12-.12 0-.12 0h-.238l.239-.238c-.239 0 0-.358-.239-.358v.12c-.357-.12-.715.238-1.073.119.358.12-.476.357 0 .596h-.238c.12 0 .238.12.12.238 0 .358-.12.477-.24.954h.24c0 .12-.12.12-.12.12.238.118 0-.24.358-.12-.358.12 0 .596-.477.715 0 .12.238 0 .238.12h-.119.12c0 .119-.12.119-.24.119v-.12c-.118.12 0 .358 0 .358l.12-.12c.12.358 0 .835.238 1.193h.12c.119.238-.12.238 0 .477.119 0 .119.119.119.238-.12-.12-.239.12-.358 0 .239.238.12.12.477.358h-.12c.12.119.24.119.24.238-.12-.12-.24.12-.358 0-.358.358.357.477-.12.596.477.12.239-.238.358-.238.12-.12.358.119.238.238 0 .12-.596.12-.476.477-.12.12.119.12 0 .238.238.12 0 .12.357.12l-.119-.239c.12.12.477.239.238.477-.119 0-.119-.12-.238-.12-.12.12.12.12 0 .24-.358 0-.12-.24-.358-.358-.119.119.239.238-.119.238.477.12 0 .238.239.358h-.239l.12.119-.239-.12c.238.12-.238.239-.12.358 0-.238.24-.119.358-.238.239.358-.476.238-.357.596 0 0 .119-.238.238-.12 0 .12-.119.12-.238.24 0 .237.238 0 .357.118-.238.12.12.12.12.239h-.239c-.119.238.358.119.239.357l-.239-.119.12.12h-.239c.12.119.12.238.12.357.118 0 .357 0 .357.12-.12.118-.239 0-.12.118-.119 0-.238-.119-.119-.119h-.238c-.12.12 0 .239 0 .239v-.12l.238.239h-.238l.12.119c-.12 0-.358 0-.358-.12l.238.24c-.12 0-.238.118-.238.118-.12.12.357.358.238.477 0 0 .12 0 .12.12 0 .119-.24.357 0 .476l-.24.12c.12.119.358-.12.478.119.119.238-.239.119-.358.119.12.119.477.238.238.477-.596.238-.476.238-.596.119zm.239 2.026s-.12-.119 0-.119c.119 0 0 0 0 .12zm.477 2.98c-.12 0 0-.119 0-.119.119 0 0 0 0 .12zm1.55 8.226c0-.12 0-.12 0 0 0-.12 0-.12 0 0zm-.12.119c0-.12 0 0 0 0zm-.358-18.715c-.119-.12 0-.12 0 0z"/><path d="M53.9 81.41c0-.118-.118-.118 0 0-.118 0 0-.118 0 0zM52.709 82.364h.119s-.12-.12-.12 0zM53.185 81.53c-.119 0-.119.119-.119.119.358 0 .239-.12.12-.12zM53.185 81.649s0 .12 0 0c.12.12 0 0 0 0zM53.662 80.695h.12c.238 0-.239-.238-.12 0zM52.828 80.934v.119h.119c-.12 0-.12-.12-.12-.12zM52.59 81.41h.119v-.118l-.12.119zM52.828 79.623l-.12-.12c-.119 0-.119 0-.119.12h.239zM52.232 79.98s.119 0 .119-.12l-.12.12zM52.232 79.623c-.12 0-.239-.239-.239 0 .12 0 .12.119.239 0zM51.517 75.808c-.12.12.238 0 .119.239.119 0 .119-.12.238-.12-.119-.119-.119-.238-.357-.119z"/><path d="M51.755 75.808c.12 0 .12.12 0 0 .12.12.12 0 0 0zM53.305 55.305l.119-.12-.12.12zM52.947 55.186h.238-.238c.12-.12.12-.12 0 0zM51.04 69.37c.119 0 .119 0 .119-.119l-.12.12zM51.278 67.94v.12l.239-.12h-.239zM50.92 66.749v.119s.239-.12 0-.12zM50.682 62.696c-.12-.477-.238-.239-.238-.358.119.715.238.238.238.358zM54.854 68.775h-.119.12c.119.12.238.12.357.238.12.12.238.12.357.239.12 0 .12.119.12.119l-.12-.12c-.119 0-.119-.119-.238-.119-.238-.238-.477-.357-.477-.357zM61.172 71.398c-.119-.12-.357-.12-.715-.239-.12 0-.239 0-.477-.119-.12 0-.357-.12-.477-.12-.119 0-.357-.118-.477-.118-.119 0-.357-.12-.476-.12-.358-.119-.716-.238-.954-.357l-.12-.12h-.595c.715.358 1.55.597 2.265.835.715.238 1.43.358 2.026.358zM64.987 71.636c-.12 0 .119-.12 0 0 .119-.12.119-.12 0 0-.239 0-.477.119-.954.238h.12c.238-.119.476-.119.834-.238zM64.272 71.874c-.716.12.476-.119 0 0zM67.49 70.444s-.238.12-.477.238c-.119.12-.238.12-.238.239-.12 0-.12.119-.12.119.24 0 1.073-.477.716-.239.477-.238.596-.476.596-.476s-.12 0-.477.119zM68.205 69.728l-.357.358.357-.358zM66.894 70.683s.238-.12.477-.358c.238-.12.477-.358.477-.358-.12 0-.239 0-.358.239 0 0-.238.238-.596.477zM66.298 70.921c-.596.12-1.192.358-.358-.12-.834.358-1.192.478-1.192.597 0 0 .239 0 .477-.12.12 0 .239-.119.477-.119s.358-.119.596-.238zM61.53 71.16l-.715-.12h-.596c.119 0 .476.12.834.12h.477zM72.02 66.153c0-.12-.358.238-.477.238l-.358.715c.358-.357.835-.953.835-.953z"/><path d="M71.662 66.391s0-.12.12-.12c0-.118.119-.237.119-.357l.238-.477c-.477.835-.596.954-.477.954zM68.205 69.371s-.357.239-.715.596l-.715.477.238-.238c.12-.12.358-.239.596-.477.239 0 .477-.239.596-.358l.239-.238-.239.238zM73.45 59.239c.239.476.12-.716.239-.239-.12-.834-.358-1.43-.715-1.907.357.477.476 1.192.476 2.145zM72.616 56.14c.12.238.238.595.477.834-.12-.239-.239-.596-.477-.835zM72.854 63.65c0-.12.239-.239.358-.835l-.239.358c0 .119-.119.357-.119.476z"/><path d="M72.974 63.291c.119-.476.238-.834.238-.953-.12.12-.12.358-.239.953zM72.735 63.769c.12-.12.12-.12 0 0 .12-.12 0-.12 0 0zM70.351 67.583c.358-.596 1.073-1.669.12-.715-.12.477.357-.12-.12.715zM72.377 64.126l-.238.477c-.12.119-.12.238-.12.357 0 .12-.118.12-.118.12s.238-.12.119.119c0 0 .12-.239.238-.596.12-.12.12-.477.12-.477zM72.497 63.65l-.12.476.239-.357-.12-.12zM73.093 58.166c-.12-.238-.239-.477-.239-.715-.119-.239-.238-.596-.357-.835.119.358.238.596.238.954.12.358.12.596.239.953.119 0 .238.239.119-.357zM73.331 60.55s-.12.119 0 0z"/><path d="M72.974 58.643c0 .477.119.834.238 1.072 0-.476-.12-.834-.239-1.072 0-.239 0-.239 0 0zM71.781 54.59c.12.238.239.477.358.834-.12-.238-.238-.715-.358-.834z"/><path d="M73.331 60.311c0-.238-.12-.476-.12-.715 0 .358.12.596.12.835v-.12zM66.775 51.371c.119 0 .238.12.596.239.238.119.596.357.834.596.239.119.477.357.596.596.239.119.358.238.477.238.12 0 .12-.119.239-.119.119-.238.119-.477.119-.596-.12 0-.12 0-.358-.12-.12 0-.238-.118-.477-.238 0 0 .12.12.12.239.119.119.238.238.238.357 0 .12 0 .12-.239 0-.238-.238-.357-.357-.476-.357-.358-.239-.12-.239-.358-.358 0 .12-.477-.12-.954-.358-.357-.119-.596-.238-.834-.357-.12-.12-.238-.12-.358-.12h-.119s.12 0 .12.12c.119 0 .238.12.357.238.358-.238.477-.119.477 0 .238 0 .238.12.238.12 0-.12-.357-.358-.238-.12zM70.59 53.278l.357.358c-.12-.239-.238-.477-.358-.596-.119-.12-.119-.239-.238-.358 0 0 0-.119-.12-.119v-.12c-.238-.118-.357-.118-.476-.118l.12.119s.118.12.238.238l.238.239.238.238c0 .12.12.239 0 .12zM72.02 55.424c-.12-.119-.358-.477-.596-.596-.12-.119-.239-.238-.239.12.358.596.477.715.596.953.12.12.239.238.358.596-.834-2.026.358.477-.12-1.073.24.358.358.715.478 1.073l-.358-1.073c0 .12 0 .12 0 0 0 .12 0 .12-.12 0 0-.119-.357-.596 0 0l.12.12s-.238-.477-.596-.954c-.12-.239-.358-.477-.477-.596-.119-.12-.119-.12-.119-.239l-.12-.119c.358.358.597.835 1.193 1.788zM70.828 65.795c0-.12 0-.12 0 0 .119-.238.119-.238 0 0z"/><path d="M71.305 65.08c0 .119 0 .238-.358.715-.238.357-.12 0-.12 0-.118.238-.476.953.12.238l.12-.238c.118-.12.238-.358.357-.596.119-.239.238-.358.357-.477.239-.358.358-.477.358-.477-.12.12-.238.12-.358.239-.119.238-.238.357-.476.596zM72.735 60.312v-.239c0-.12 0-.358-.12-.596 0-.238-.118-.477-.118-.596 0-.12-.12-.238-.12-.238v.954h.12c.119.834.238.595.238.715zM69.755 52.206h.358-.358s-.12-.12-.358-.12l.358.12zM69.04 51.848l.477.12-.477-.12s.119 0 0 0zM44.603 28.96l.119.477c0-.238-.12-.357-.12-.477zM58.55 35.16c.715-.358 1.43-.716 1.31-.716h-.237c-.477.357-.835.477-1.073.715zM59.384 5.954c.12 0 .12.12.239.12.238 0 .357 0 .476-.12h-.715zM58.788 6.55s-.238 0-.477-.12c-.119 0-.238 0-.357-.118h-.12c.12 0 .239 0 .358.119.239.119.358.119.596.119zM37.927 24.669s-.12 0-.238.12c-.12 0-.239.118-.239.118.716-.119.358-.119.477-.238zM78.576 37.663c0-.358-.12-.596-.238-.954-.12-.239-.12-.477-.239-.715.12.357.239.834.239 1.072 0 .239.119.477.238.596zM42.457 28.007c.12.357.12.477.238.357-.238-.238-.238-.357-.238-.357zM77.026 34.206c0 .119.12.238.12.357.119.239.238.358.477.596l.357.715c-.12-.238-.238-.596-.358-.953-.119-.12-.357-.477-.596-.715zM41.623 66.63c-.239.119-.477.238-.835.357.12 0 .358-.238.835-.358zM73.212 50.656c-.477.238 0 0 0 0zM70.709 51.013c.119 0 .119-.119.119-.119l-.12.12zM72.497 50.894c.238 0 .357-.119.596-.238-.12 0-.239.119-.596.238zM72.616 51.014c-.12.119-.358.119-.477.119 0 0 .12 0 .477-.12zM73.808 50.298l-.715.358h.119c.12-.12.358-.239.596-.358zM32.682 47.08c.477.119.238.119 0 0zM66.417 23.715c-.119.358-.119.596-.238.835-.12.238-.239.357-.358.596 0 0 .239 0 .358-.12.238 0 .357-.119.357-.119v-.596c-.119-.357-.119-.596-.119-.596z"/><path d="M44.841 30.272v.477c0 .238-.12.476-.12.476-.118-.238-.118-.596-.238-.834 0-.238-.119-.358-.119-.477-.119-.238-.119-.238-.119.239.238 0 .358.596.358 1.192 0 .715-.239 1.43-.358 1.907h2.265c-.238-.358-.358-.596-.596-.596 0 0 0-.239-.12-.358 0-.238-.118-.357-.118-.357l.238.476c-.12-.715-.358-.953-.596-1.192-.238-.238-.477-.596-.715-1.55-.12-.595-.239-1.072 0-.715 0 0 0-.119-.12-.238 0-.12-.119-.358-.119-.477l-.238-.715c-.12-.477 0-.358.119.12 0 0 0-.12-.12-.358 0-.239-.118-.477-.118-.716a25.815 25.815 0 00-.239-1.073c-.119-.357-.357-1.072-.357-1.43 0-.596.119.238.119.12v-.24c0-.118 0-.238-.12-.476 0-.12 0-.358-.119-.477v-.238c.12-.239.12-.12.239.119.119.358.119.715.119 1.192.238-.596.238-.834.12-1.311 0-.358-.12-1.073.118-2.265v1.192c.358-.715.239-1.669.716-2.86-.12.118-.358.714-.477 1.191-.12.477-.358.715-.358 0 0-.238.12-.357.12-.715 0-.238.119-.596.119-.954.119 0 .119-.119.238-.477.12-.238.12-.596.238-1.072l.239.119c.238-.954.12-.835.12-1.43.238-.477.357-.716.595-.954.12-.12.239-.239.477-.239.834-1.43-.834.835.12-.953.238-.239.357-.596.595-.835.239-.238.358-.477.477-.834.358-.477.715-1.073 1.311-1.788.715-.596 0 .238.239 0 0 0 .119-.239.238-.358.12.477.239.238.239.238.119-.119.119 0 .119 0 .476-.596-.12-.238.715-1.072 0-.12.12-.239.358-.358.238-.12.476-.238.834-.358.12-.119.358-.119.477-.238.238-.12.357-.12.596-.238.357-.12.715-.358 1.073-.477.357 0-.12.238 0 .238l.953-.477c.239-.119.477-.119.596-.238l1.43-.477H57c.358 0 .715.12.715.12-.477-.12-.477-.24-.119-.358.358-.12.954-.12 1.55-.12-.358-.119-.715-.238-.835-.357h1.073c.239 0 .477 0 .715.12h.358c.238.118 0 .118-.358.118h.358c.596.239.238.358-.239.358-.238-.12-.476-.239-.596-.239-.238 0-.476.12-.596.12-.119.119-.238.119-.238.238h.596c-.12 0-.238 0-.12.12h.597l.358.357.119-.12s.119 0 .357.12c.239.12.477.12.716.238.596.239 1.072.477 1.072.477.835.239 1.55.477 2.385.954.238.119.357.238.596.357.238.12.357.358.596.477.476.358.834.835 1.31 1.43-.595-.476-.357.12-.595.24 0-.24-.12-.359-.239-.597s-.357-.358-.596-.596c-.238-.238-.476-.358-.715-.596-.238-.238-.477-.358-.834-.596.596.477.357.477.119.358 0 0 .12.119.358.238.238.12.476.358.715.477.238.238.477.357.596.596.119.477.119.596.119.596-.238.12.12.477.477 1.073.119-.358.357 0 .715.596.239.596.596 1.311.715 1.788-.119.119-.238-.12-.715-1.311.12.357.12.596.239.834s.238.358.357.596c.239.358.477.835.358 1.55 0-.358 0-.477-.12-.596.12.357.12.953.12 1.43s-.12.835-.12.596v-.357c0 .953-.119 2.503-.476 3.814-.239 1.311-.596 2.384-.596 2.623 0 0-.239-.358-.239-.596v.596c0 .357-.119.834-.238 1.31-.12.478-.239.954-.358 1.312-.119.358-.119.596-.119.596-.12-.477-1.311.239-.596-1.311-.238.357-.596.834-1.192 1.669.238-.239.834-.358.596 0-1.073.834-.715.596-1.907 1.55.357-.358.357.357-.239.953 0-.12-.357-.238-.238-.477 0 0-.239.477-.477.835-.238.477-.596.834-.596.834.358-.357-.238-.357-.596-.119.238-.12-1.311 1.192-1.669 1.55l.715-.477c-1.788 1.43-1.31 1.907-3.099 3.338.12-.239.12-.835-.715-.239-.12.239-.477.954-1.073 1.788l-.12-.119c.12-.358.24-.715.358-1.073.12-.357.358-.834.596-1.192l.358-.238s0-.12.12-.239c.118-.119.238-.238.357-.477.119-.119.238-.357.357-.476.12-.12.12-.239.12-.239-.239.358-.596 1.073-.954 1.788-.238.358-.358.835-.477 1.192l-.358 1.073-.953-.834c.238-.239.358-.477.596-.596-.596.357-.477.119-.715.357l1.43 1.192c.12-.119.12-.238.358-.596.238-.238 0 .239-.12.596l-1.668-1.43.238-.238-.358.238 1.67 1.55c.476-.596.834-1.312 1.43-1.908-.12 0 .119-.477.477-.953.357-.477.715-.835.596-.835l-.358.358c-.238.238-.477.477-.715.834-.239.358-.477.596-.596.835-.12.238-.239.357-.239.357-.119 0-.119-.119 0-.357 0-.239.12-.477.358-.835.358-.596.954-1.43 1.907-2.026.477-.239 0 .596.12.715.119-.12.476-.477.834-.715.358-.239.715-.477.834-.477l-.596.596c.239-.12.477-.238.596-.358.239-.119.358-.238.596-.357.239-.12.358-.239.716-.358.238-.119.476-.238.834-.238.239 0 .596-.12.834-.12.358 0 .597 0 .597-.119-.716-.119-1.193-1.073-.716-1.43.12 0 .716-.12 1.43-.12h1.431c.12 0 .239 0 .239.12.357.12.119.238-.239.357-.357.12-.596.358-.238.358 0 0 .119-.12.238-.12.12 0 .239-.118.358-.118.238 0 .238.119.238.119h.596c.12-.12.596-.12.954 0 .238.12.358.12-.358-.12 1.073.12 1.073.24 2.265.597-.119-.12.12-.239.596-.12h.358c.119 0 .238.12.357.12.239.119.596.238.835.357-.12 0 .12.239.12.358.476.358.834.596 1.191.954.358.357.596.596.835.953.238.358.476.596.715.954.119.12.238.358.357.596.12.238.239.358.358.596.12.238.358 1.073.12.834.118.239.357.477.595.954.239 1.192-.477-1.311-.477-.358.12 0 .239.358.477.835.12.238.239.477.239.715.119.238.119.477.238.715.12-.119 0-.715-.12-1.192-.118-.238-.237-.596-.357-.834l-.357-.715c.119 0 .238 0 .357.119.12.119.358.357.477.596.239.238.358.715.596 1.073.12.238.12.477.239.715s.119.477.238.834c.12.954 0 1.073 0 1.073-.12 0-.12-.119-.12 0 0 .835-.118 1.43-.118 1.907-.12.477-.12.835-.12 1.193 0 .357-.119.596-.238 1.072-.12.239-.239.358-.358.596-.119.12-.119.239-.238.358l-.358.358c-.834.834-.357-.239-.715-.12.715-1.192 1.192-1.788 1.43-2.741 0 0 0 .119-.119.119 0 .12-.119.238-.119.358l-.238.476c0-.238.119-.596.238-.953.12-.358.12-.715.239-.954 0 .12-.12.239-.239.477-.12.238-.12.477-.238.715-.239.596-.477 1.192-.954 1.907-.12.12-.238.358-.358.477-.119.12-.238.358-.357.477-.12.12-.239.358-.358.477l-.477.477c-.596.596-1.192.953-1.668 1.311-.12.12-.358.358-.597.477-.119.119-.238.238 0 .119 0 0 .12-.12.358-.238.12 0 .12-.12.239-.12s.119-.119.119-.119c.357-.119.119.12-.239.358-.238.238-.477.357-.119.238-.238.12-.477.358-.715.477-.239.12-.477.358-.835.477-.238.119-.596.238-.953.357-.12 0-.239.12-.239.12h-.476l-.358-.239h.477c.119 0 .238 0 .357-.119.12 0 .239-.12.358-.12-.12 0-.238.12-.358.12h-1.311c-.358 0-.596 0-.596.12.358 0 .596.118.835.118h.119c-.12 0-.239.12-.358.12-.12 0-.12.119-.238.119-.12 0-.239 0-.596-.12h.119c.358.12.238 0 .954.24l-.358-.12h.715s0-.12-.238-.12h.238c.12 0 .239 0 .358.12h.715c.238 0 .596-.12.834-.12 0 0-.119 0-.119-.119 0 0 .239-.119.835-.357 0 0 .119-.12.238-.12h0c-.238.12-.477.12-.596.12.238-.239.834-.477 1.311-.835.12-.119.239-.119.358-.238.12-.12.238-.12.358-.238.238-.12.357-.358.476-.477.596-.358-.119.238.239.119l.596-.715c.238.119 1.55-1.073.477.119l.596-.596.357-.358c.12-.119.12-.238.12-.238.715-.596 1.31-1.669 1.668-2.384.12-.358.239-.835.358-1.073.12-.239 0-.358 0-.12v-.119-.238c0-.238.12-.477.12-.834 0-.358 0-.596.118-.835v-.238-.12c.12-1.191-.119-2.384-.476-3.576a22.375 22.375 0 00-1.43-3.576c-.478-.596-.955-1.311-1.789-2.265l-.12-.238c-.357-.358-.953-.834-1.43-1.311-.238-.239-.596-.358-.834-.596-.239-.12-.477-.239-.596-.239l-.358-.357c-.238-.12-.357-.239-.715-.358-.12-.12-.238-.12-.358-.238-.119 0-.238-.12-.476-.12-.358-.119-.596-.238-.954-.238s-.715-.12-.954-.12c-.357 0-.715 0-.953-.118h-1.67v.238c-1.191.12-2.383.358-3.814.954l.12.119c-.239.12-.597.238-.954.477-.358.119-.715.357-1.192.477a9.538 9.538 0 00-2.504 1.55c.12-.12.477-.478.835-.597-.239.12-.477.239-.596.358-.239.119-.358.238-.596.477l-1.073 1.072c-.715.835-1.073 1.67-1.55 2.504l1.192 1.073 1.073-.716a3.91 3.91 0 01.954-.715s-.12 0-.12.12l.12-.12c.238-.12.357-.238.596-.358-.239.12-.358.239-.596.239.357-.239.834-.596 1.192-1.073h.358s.119 0 .119-.12c.477-.357.357-.357 0-.237.238-.239.357-.477.596-.597.596 0 1.073-1.072 1.788-1.31.119-.24.596-.716 1.073-1.312.477-.596.953-1.192.953-1.43 0 0 .239-.12 0 .119.477-.477.954-.954 1.312-1.43l.357-.12s.12-.358.358-.715c.119-.12.119-.358.238-.477 0-.12.12-.239.12-.239.595-.596.953-.953.595-.119.477-.953.596-1.43.835-1.788.12-.238.12-.357.238-.596.12-.238.12-.596.239-.953l.119.119.358-1.073c.119-.358.238-.715.357-.954.358-.596.835-2.503.835-4.649 0-1.072-.12-2.265-.477-3.337-.239-1.073-.716-2.146-1.192-2.98 0 .476-.239 0-.477-.477-.239-.477-.715-1.073-.835-.954-.119-.238-.476-.715.12-.238l-.954-.954a1.646 1.646 0 00-.477-.358c-.119-.119-.238-.238-.477-.357-.238-.239-.596-.358-.834-.477 0 1.073-.358.954-.715.834-.12-.238.477 0 .357-.119-.119 0-.596-.238-.834-.358-.12-.119.358 0 .596.12-1.907-.835-2.265-.477-2.503-.239-.477-.238-.835-.357-1.192-.357-.358-.12-.596 0-1.073 0-.12-.12-.358-.12-.477-.239 0 0 .12-.119.715 0-.357 0-1.43-.238-2.384-.119-.954 0-1.907.238-1.907.358-.12 0-.358 0-.596.119-.239.12-.477.12-.477.238-.239 0-.358.12-.477.12-.12 0-.238.119-.358.119-.119.238-.357.357-.476.357-.358.239-.716.358-1.43.716l.357-.12c-.358.596-1.073.716-2.027 1.43-1.192.835-1.311 1.074-1.55 1.312-.238.238-.357.477-1.43 1.43h.239c.119.239-.358.596-.835 1.193-.238.238-.477.596-.834.953-.239.358-.477.715-.596 1.073 0 0 .119-.12.119-.238l.238-.239c-.119.358-.477.954-.953 1.43-.239.24-.358.478-.596.716l-.358.715c-.12.12 0-.357.12-.596-.478 1.073-.478 1.192-.358 1.192.119 0 .238 0 .119.835-.239.238-.239-.477-.477.715-.12.238-.12 1.192-.12 2.146 0 .953.12 2.026 0 2.86.12-.357.24-.715.358.12 0 .596 0 1.43.12 2.265 0 .357.119.834.119 1.192.119.357.238.715.357.953v.239c.12.238.12.476.239.834s.238.715.357.954c.12.357.239.596.358.953.12.239.238.477.358.596-.12.477.238 1.43.715 2.384l.715 1.312.596-1.312a6.062 6.062 0 00.477-2.384c0-.715 0-1.072.238-1.072v-.12-.357c0-.239-.119-.715-.238-1.073-.12-.358-.238-.715-.358-.954l-.238-.477h.12c-.358-.953-.835-1.43-1.193-1.788-.12-.238-.358-.357-.477-.477-.119-.119-.238-.238-.477-.238-.238-.358 0-.12 0-.12a8.694 8.694 0 00-1.31-1.072c-.358-.238-.716-.358-1.074-.477-.715-.238-1.31-.357-2.503-.357l-.238-.358c-.358 0-1.312-.12-2.623-.12-1.311.12-2.742.478-3.934 1.193 0 0 0-.12.239-.239-.12.12-.358.239-.477.239-.12.12-.358.238-.477.357l-1.073.716a13.382 13.382 0 00-1.907 1.55c-1.192 1.072-1.907 2.264-1.788 2.98 0 0 0 .119-.12.238-.119.12-.119.358-.238.596s-.119.477-.238.596c0 .238-.12.358-.12.358.477-1.192.597-1.073.477-.716 0 .239-.119.716.12.358l-.358.715c-.12.239-.238.477-.358.596-.119.358-.238.358-.119-.238l.12-.12c0-.119-.12 0-.239.239-.12.238-.238.596-.358 1.073-.119.357-.238.834-.238 1.192s-.12.477-.12.477c-.118 1.311-.118 2.503.12 3.814.238 1.192.596 2.384 1.192 3.577 1.073 2.264 2.742 4.053 4.768 5.483 0 0-.119-.12-.119-.239-.12-.119-.12-.238-.12-.238l.716.477c.12.12.358.238.477.358.12.119.238.119.238.119l.239.238c-.12 0-.358 0-.835-.357.477.476 1.788.834 1.908.715.238.119.476.238.596.238 0-.119 0 0 0 0h-.358c-.477-.119-1.073-.238-.715-.119 0 0 .238.12.477.12.119 0 .238.118.357.118h0-.119c.358.12.596.12.954.12.119 0 .357 0 .476.119.12 0 .239 0 .358.119.239 0 .358.12.596.12 1.192.238.715.238 1.192.357 0 0 .238.119.715.119l.954.12v-.835c0-.358-.12-.596-.12-.954v.477c0 .238-.118.477-.118.477 0-.12-.12-.358-.12-.477 0-.12-.119-.238-.119-.358-.119-.238-.119-.476-.119-.596-.12-.357-.12-.357-.12.239 0-.12 0-.477-.118-.835 0-.238-.12-.357-.239-.596-.12-.238-.238-.477-.358-.596-.476-.715-1.072-1.43-1.907-2.026a8.887 8.887 0 00-2.384-1.192c-.358-.12-.715-.239-.953-.239-.239 0-.477-.119-.597-.119-1.31 0-2.622.239-4.172.835h.358l-.239.238c-.119 0-.119.12-.238.12-.12 0-.238.118-.358.238.12-.358-.476-.12-1.192.357-.715.477-1.43 1.192-2.026 1.43.477-.238-.239.477-.715 1.193-.477.715-.835 1.55-.239.953-.596.954-.238 0-.715.716a38.625 38.625 0 00-.715 2.026c0 .239-.12.358-.12.596s-.119.358-.119.596c-.119.358-.119.715-.238 1.192-.238 1.55-.12 3.338.358 4.888.119 0 0-.477.357.119v.238c0 .12 0 .358.12.596 0 .239.119.477.119.596v.239c.238 0 .357 0 .476.238.12.12.358.358.477.954 0-.239-.119-.477.12-.12 1.55 2.98 4.29 5.484 7.51 6.438 1.55.476 3.337.715 5.006.715s3.338-.358 5.007-.835c-.954.239-.358 0 .357-.238-.476.12-.119-.12-.238-.238h.12c.118 0 .118 0 .237-.12.239-.119.596-.238.954-.357.358-.12.596-.239.835-.358.238-.12.357-.238.357-.238.12-.239.715-.716 1.311-1.192l.358-.358.358-.358c.238-.238.357-.357.357-.476l-.715.715c.239-.477-.12-.358-.596-.12-.477.24-1.073.478-1.192.24-.238.238-.477.476-.834.714-.358.12-.716.358-1.193.477-.476.12-.834.358-1.31.477-.478.238-.835.358-1.312.596-.477 0 .358-.239.12-.239-.24.12-.478.239-.835.358-.12 0-.358.12-.596.12-.239 0-.477 0-.716.119h.12c-1.55.238-2.623.119-3.815-.12-.238-.119-.596-.119-.834-.238-.239-.12-.596-.239-.835-.358-.357-.119-.596-.238-.953-.357-.358-.12-.716-.358-1.073-.596l.119.238c-.358-.12-.477-.358-.596-.477l-.358-.357c-.477-.12 0 .119.477.477.239.119.477.238.596.357.12.12.12.239-.119.239-.358-.358-1.43-1.073-2.384-2.027-.954-.834-1.669-1.907-1.669-2.265-.596-.953 0 .358-.596-.596v-.357l-.239-.239c-.119-.12-.119-.358-.238-.477 0-.119-.12-.238-.12-.357v-.358c.12.12.24.477.358.596-.119-.477-.476-1.073-.596-1.669 0-.119-.119-.238-.119-.357 0-.12-.119-.239-.119-.358-.12-.239-.12-.358-.12-.477l.24 1.073a15.01 15.01 0 01-.358-1.192c-.12-.358-.12-.834-.239-1.192a8.807 8.807 0 010-2.503c.12-1.67.596-3.338 1.311-4.65l-.238.12c.477-1.073.835-1.43 1.192-1.788l.239-.239.357-.357c.12-.12.239-.239.477-.358.12-.12.358-.358.596-.477l-.12.12c.24-.358.835-.716 1.431-.954-.238.119 0 .119.239 0h.357l-.119.119c.239-.12.477-.238.715-.238.239-.12.358-.12.477-.12.239-.119.358-.119.477-.119.238-.119.238-.238 1.073-.357l.358.238c.238 0 .476-.12.715-.12.238 0 .596 0 1.192.24-.239-.12-.358 0-.358 0l.12.118c.119.12.238.239-.24.12 1.193.596 1.908 1.072 2.623 1.43.12.12.358.238.477.358l.358.357c.12.12.12.239.238.358 0 .12 0 .12.12.238v.12c.119.119.238.119.238 0v-.239c0-.12-.12-.238-.239-.358-.357-.476-.834-.953-.596-.834-.119-.238.12-.12.358.12.12.118.12.118.239.238.119.119.119.238.238.357.12.239.238.358.357.596.12.12.12.239.12.358v.358c0 .119-.12.238-.12.357 0 0 0 .12-.119.12v.119h-.119c-.238-.12-.477-.12-.715-.12h.238c-.238-.119-.357-.119-.596-.119h-.357a.91.91 0 01-.596-.238h-.477c-.12 0-.239-.12-.358-.12-.238-.119-.477-.119-.596 0 0 0 .477.12.954.358.238.12.477.12.715.239.12 0 .239.119.239.119-.597-.12-1.073-.12-1.789-.358-.596-.12-1.31-.477-2.026-1.073.12 0 .715.239 1.073.358-.835-.477-1.311-.596-1.788-1.073.119 0 .238 0 .477.12.238.118.476.238.834.476.357.12.715.358 1.073.477.357.12.715.238.953.238-.238-.119-.834-.357-1.192-.476-.357-.12-.596-.239-.238-.358-.239 0-.477 0-.715-.239-.239-.119-.477-.238-.716-.476-.476-.358-.953-.835-1.668-1.192l.238-.12c-.12-.119-.596-.357-.834-.715l.119.12c0 .357.119.357.238.357.239.12.358.12.358.12a1.436 1.436 0 01-.596-.597c-.12-.238-.358-.477-.477-.715l-.358-.715c-.238-.12-.357-.239-.596-.477.596.953.716 1.073.596 1.073-.119 0-.238-.12 0 .357a3.366 3.366 0 01-.834-1.31c-.12-.358-.12-.597-.239-.835 0-.239 0-.477-.119-.835 0-.238-.119-.357-.119-.715a2.246 2.246 0 01-.238-.954c0 .12 0 .239.119.358 0 .12.12.358.12.477 0 .238 0 .357-.12.119 0-.12-.12-.358-.12-.477s0-.358-.119-.477v-.834c-.119-1.073-.119-.954-.238-.715 0 .238 0 .596-.12.238.24-.715-.118-1.073-.238-2.026h.239c.12-1.193.12-1.312.12-1.55-.12-.12-.24-.239.238-1.311v.954-.12c0-.12 0-.238.119-.358 0-.119 0-.238.119-.357v-.12s0 .12.12.12c0 .12.118.12.118.12 0-.359.12-.597.12-.835 0-.239.119-.358.238-.596.12-.239.12-.358.238-.596.12-.239.239-.358.358-.716-.239.239-.239-.357.358-1.192.596-.477-.12.477.834-.834-.12.12-.12.357-.238.596-.12.238-.239.357-.477.596 0 .12-.12.357-.12.477.477-.596 1.193-1.55 1.55-1.908-.119.12-.357.358-.477.358l.239-.238c0-.12.119-.239.238-.239.12-.119.12-.238.239-.357.119-.239.357-.477.477-.596l.238-.239c.358-.119.12.12 0 .239l.477-.477c.119-.12.357-.239.596-.477 0 .238 0 .358-.596.954l.238-.239c.12-.119.358-.238.596-.477.238-.119.358-.238.596-.357.12-.12.239-.12.239-.12.119 0 1.072-.238.834-.119.477-.119 1.192-.477 1.907-.715.715-.238 1.43-.358 2.265-.238h.596c1.43.238 2.504.715 3.815 1.55l.119.119c0 .119.12.238.12.238 0 .12.118.238.118.238v.12c.477.476.358.119.239-.12v-.119c.119 0 .238.12.596.596.477.596.477.715.357.835-.119 0-.238 0-.119.238.239.238.477.715.716 1.192.238.596.357 1.192.119 1.907-.358-.238-.358-.596-.358-.953zm-1.073-9.894c0 .357.12.953 0 1.192-.238-.358-.119-.715 0-1.192zm18-13.47c-.238 0-.596-.239-.953-.358.238.12.596.238.953.358zm15.497 39.814c.596-.715.358-.477 0 0zm-1.073 1.311c-.12.12-.12.12 0 .12 0-.12.358-.477.596-.716-.12 0-.358.239-.596.596zm-38.503 1.908l-.477-.12h.715s-.12 0-.238.12z"/><path d="M58.907 6.55c-.119 0-.119-.12-.119-.12-.12 0-.12 0 .12.12zM38.046 24.55c-.119.119-.119.119 0 0zM66.775 30.51c-.358 0-.477-.119-.596-.119 0 0 .238 0 .596.12zM69.874 51.967c.12 0 .12-.119 0 0l.239-.119s-.12 0-.239.12c0-.12-.119-.12-.119-.12.12 0 .238.12.12.12zM69.993 54.113l.358.358v-.12c-.358-.476-.715-.834-.358-.238zM68.325 51.371c-.239-.119-.358-.119-.597-.119h-.238c-.12 0-.238 0-.238-.12h.119c.238.12.477.12.596.24h.358zM67.013 51.133h-.119.12c.118 0 .357.119 0 0 0 0-.12 0 0 0zM74.642 49.583c-.357.12-.119.358-.238.358 0 .119 0 0 .238-.12.12 0 .12-.119.239-.238l.238-.238c.12-.239.239-.358-.477.238zM66.536 50.894l.716.239v-.12l-.716-.119zM72.14 50.18s-.24.118-.597.238c-.12 0-.238.119-.358.119h-.119s-.119.119-.238.119c.596-.12 1.311-.477 1.311-.477zM70.709 50.656c-.358.119-.716.119-.835.238.239 0 .596-.119.835-.238zM78.219 40.166v-.238c0-.12 0-.239-.12-.477-.119-.358-.119-.596-.119-.596-.12-.12-.12.238 0 .715.12.238.239.715.239.596zM77.265 43.742c.12-.238.12-.358.238-.477l-.119-.119v.238c-.12.12-.12.239-.12.358zM77.623 40.285c0-.12-.358-1.669-.239-.239.12.12.239 1.312.239.239zM64.987 29.914l.238-.119-.119-.358-.12.477zM58.073 32.775c-1.192.834-.12.477-1.192 1.073-.239.238.953-.596.715-.239.596-.596.954-.834.477-.834z"/><path d="M57.596 33.61l-.358.357c.239-.238.239-.358.358-.358zM44.722 64.722l.12-.12c.118 0 .238-.118.238-.237a.89.89 0 00.357-.358l-.596.358-.12.357zM45.914 63.053h.358l.238-.596c-.238.12-.477.477-.596.596zM44.841 17.994c-.12 0-.238.238-.358.596 0 0 .12-.12.12-.358l.238-.238zM45.199 30.033l-.12-.238-.119.477.239-.239zM43.291 27.888c.239.357.477.596.596.953-.357-.715-.357-1.192-.596-.953zM68.563 89.993l.12-.119-.12.12zM67.728 89.755l-.238.12.239-.12zM67.013 89.397c-.119.239.239.12.358.239v.12l.12-.12c-.12-.12-.359-.12-.478-.239zM66.894 88.682c0 .12-.12 0 0 0s.12 0 0 0c.12 0 .12 0 0 0zM67.013 88.682c.12 0 0-.12 0 0zM66.656 88.563h.119c0-.12-.12-.12 0-.12-.12 0-.12 0-.12.12zM66.417 88.801c.12-.119.12-.119 0 0zM66.656 88.682h-.12c0 .12-.119.239.12 0-.12 0-.12.12 0 0zM66.656 88.801c0 .12.119.12 0 .239.238 0 .238-.239 0-.239zM66.894 89.636h.12c-.12.12-.12-.12-.12 0zM66.06 88.205v.239h.119c-.12-.12-.12-.12-.12-.239zM65.94 88.444l-.119.119c.12 0 .12 0 .12-.12zM66.298 89.04l.238-.12-.238.12zM65.583 88.086l.119-.12-.238.12h.119zM65.344 87.967c.12-.12 0-.239 0-.239-.119 0-.238.12-.238.12s.12 0 .238.119zM64.987 87.967l.119-.12c-.12 0-.12.12-.12.12zM65.702 88.444v-.239.239s-.12 0 0 0zM66.06 88.801c-.12.12-.239.12-.239.358.12-.12.12-.239.239-.358zM65.702 88.682c.12 0 .12 0 .12-.119l-.12.12zM65.583 88.682h.119l-.12-.119v.12zM65.106 88.205h-.238c.119 0 .119.12.238.12 0 0 .12-.12 0-.12zM65.344 88.205c0 .12-.119.12 0 0-.119.12 0 .12 0 0 0 .12 0 .12 0 0zM63.914 89.159c0-.12.238-.239.238-.12.12-.119.12-.595.12-.953 0 .12 0 .12-.12.238 0 .12.239.239.12.358-.12 0-.12-.12-.12-.12-.119.24-.357.24-.238.597v-.12.12zM64.51 88.205s0-.119-.12-.238l-.118.119s.119 0 .238.12z"/><path d="M64.748 88.205c-.119.12-.238.239-.238.358.12 0 .12-.12.238-.12-.119 0 .12 0 0-.238h0c.12 0 .12 0 0 0 .12 0 .12 0 0 0h-.238.238zM65.583 89.278s.119-.12 0 0c.119 0 .119 0 0 0 .119 0 .238 0 .119-.12l-.12.12v-.477.477zM65.225 88.801h-.238v.12-.12c.119.12.119 0 .238 0zM64.272 87.967l.119-.12-.239.24.12-.12zM64.033 87.967v-.12l-.12.12h.12zM57.954 87.967c-.12-.12-.239-.358-.12-.239v.12l.12.119zM48.894 91.9v.24c.12-.12 0-.24 0-.24zM61.41 87.848l-.119-.12c.12.12.12.239.12.12zM61.053 87.729h.238c-.119-.12-.119-.12-.238 0zM39 93.808s.12-.12 0 0c.12-.12.12-.12 0 0zM56.642 90.113c0-.239.12-.239.12-.12v-.596l-.12.716z"/><path d="M49.967 91.424l.12.119c-.12.238-.24.238 0 .477-.12-.596.476-.12.357-.715l.119.119c.238.238 0-.477.238-.358.12 0 .12.12.12.12l.119-.12v.12l.238-.12c0-.119.12-.238.12-.358.118.12 0 .12 0 .12l.118-.12c.12.12 0 .239-.119.239.239.477.12-.12.358.12l-.12.118c.12.239.24.12.358.358 0-.12-.357-.477-.238-.596 0 0 .12 0 .12-.12 0 .24.118.12.238.12v.238c.119-.119 0-.238.119-.357.119 0 .238.238.238.357.239 0-.238-.238 0-.357.12.119.239 0 .358-.239.119.12 0 .12.119.239v-.239.12c.12-.12 0-.239.12-.358 0-.239.357.358.476 0v.238c.12-.238.12-.238.238-.477l.239.12c-.12-.12 0-.477 0-.596 0-.12-.12-.12-.12-.239l.12-.119v.119c.12.12.12.239 0 .358l-.12-.12v.477-.119 0l.12.239v-.12l.238.12c.12-.358.239-.716.477-.954 0 .238 0 .358.12.596-.12-.238-.24.12-.358.12.119 0 .119.118.119.238l.238-.239c0 .239.12.12.12.239-.12-.358.119-.358.238-.477 0 .12 0 .238-.12.238.24.239.12-.477.358-.238v.12c.12-.12.239-.12.239.118.238 0 .715-.119.715-.477v.477l.238-1.192c0 .358.239.954 0 1.192 0 0 .12.12.239 0l-.12-.477c.12.358.12.12.358.477v-.477.477l.12-.477c0 .12 0 .358.119.477 0-.119.238 0 .238 0l-.12-.119c.24 0 .12-.715.478-.715 0 .12 0 .596.119.596 0-.239.119-1.192.358-1.311v.119l.119-.12-.477 1.431c.119.12 0 .12.119.12 0 .118 0 .238-.12.238h.358c0-.239.239-.239.239-.477l-.358.358c0-.239.12-.835.358-.716.12.12 0 .477 0 .596 0-.119.238-.238.238-.119l.239-.12c.119.12.119-.357.357-.118 0 0 .12.357.12.238-.12-.358-.12-1.311-.12-1.55 0 0 .239.239.358.477.12.239-.12.596 0 .835 0-.12 0-.12.12-.239 0 .12 0 .239.118.239 0-.239.239 0 0-.239.12-.119.12 0 .239 0 0-.238.119-.596.238-.715v.239c.239 0 .358.119.596.119 0 .119.12.119.12.238l.119-.12c.119.24-.12 0 0 .358 0-.119.119-.238.238-.357 0-.239-.238 0-.358 0 0-.358.12-.715.358-.835.238-.119.12.239.12.239.357.12.357-.596.595-.358.12.239 0 .477 0 .596-.119.12-.238-.119-.357-.119l.119.12c0 .118-.12.118-.239 0 .12.238.596.118.835.238 0-.12.119-.12.119-.239h-.12c-.118-.238.24-.238.12-.357.12-.12.239-.358.477-.12v.239c0-.12-.12-.12-.12-.12.12-.119.24.358.358 0l-.119-.238c.12-.119.358-.357.477-.238 0-.239 0 0-.12-.239 0 .358-.357-.119-.238.358-.119-.358-.119-.12-.238-.477 0 .12 0 .12-.12.12v.238c-.118.238-.238.119-.357.238-.12 0 0-.119 0-.238l-.12.238c0-.238-.118-.357 0-.357h-.118c-.12-.12-.239-.12-.239-.12-.119 0-.238.239-.119 0l-.238.12c-.239 0-.477.238-.716 0-.119 0-.119.119-.238 0v-.12c-.12 0-.358-.119-.358 0-.119-.476-.477-.119-.715-.119v.239c-.12 0-.238 0-.357.119v.238c-.12.12-.358-.119-.596-.119 0-.12.119 0 .119 0-.239-.358-.477.358-.715 0 0 .12-.12 0-.12 0s0-.12-.119-.12c0 0 0 .12.12.12 0 0-.12 0-.12.12v-.24c-.12-.118 0 .12 0 .24 0 0 0 .118-.12.118-.118-.357-.118.12-.238-.238 0 .12-.357.12-.357.477v-.12c-.12 0-.12-.119-.239 0v-.238l-.476.477c0-.12-.12-.238 0-.477-.239.358-.12.12-.358.477v-.12c-.12 0-.12.24-.238.12-.239-.238-.716 0-1.192-.12.119.478-.239-.238-.12.24 0-.12-.119-.12 0-.24-.238.12-.357-.118-.477.24v-.24s0 .12-.119 0v-.118c-.238 0-.119.357-.119.715-.12-.12-.12-.12-.238.12 0-.12-.12-.24 0-.24-.12 0-.477-.118-.477.24 0-.12-.12 0-.12 0h-.357c0 .357-.12.118-.238.118-.358-.119-.12.12-.477-.119v.238c0 .477-.358-.238-.477 0l.12.12c0 .119-.358-.477-.478-.596v-.12c-.238-.238 0 .239-.119.358-.12-.12 0-.358-.12-.358-.118-.119-.238.477-.476.239.12.12.12.238 0 .238-.12.12-.477-.357-.477 0v-.119c-.119.12-.238.238-.238.358-.239-.596-.477.477-.715-.12l-.239.12v-.12c-.238 0-.238.12-.238.358v-.12c-.358 0-.358 0-.477.358l.12-.119c0 .12-.478-.238-.716.12v-.12c-.238.358-.834-.357-.715.477l-.12.239c.239 0 .12.357.239.357-.12.12-.358-.119-.239-.238-.119-.358-.357 0-.476-.239-.358.239-.954.239-1.43.358l.119.238h-.12c-.119 0-.119-.238 0-.238-.119 0-.119.358-.119.358-.238 0 0-.358-.12-.358h-.118c0 .12 0 .238-.12.358-.119 0-.119-.12-.119-.12h-.238l.119.239c0 .119-.238.119 0 .238-.238-.357-.834.12-.954.12 0 .238-.119.238-.357.357 0 0 .238.238 0 .238-.12-.476-.358-.119-.596-.476.238.238-.358.238 0 .476-.12 0-.12-.238-.239-.238-.119.358-.596.12-.953.358 0 .119.119.119.119.238l-.358-.238c0 .119.12.357-.119.238l.12.12c-.716 0-1.074.834-2.027.595.119.12.119.12 0 .12 0 0 .119.119.119.238h-.12c.12.238-.238.12-.118.357v-.119c0 .358.476.477.596.835 0-.358.596.238.476-.239.12 0 0 .12.12.239 0-.12 0-.239.119-.239.238-.238.477-.119.834-.238l-.119-.12c.12 0 .12 0 .239.12 0-.358-.239.12-.239-.239.239.358.477-.238.835.12.119 0-.12-.239 0-.239l.119.12v-.12c.119 0 .238.12.238.239v.119c.12.12.239-.12.358-.12h-.12c.239-.238.716-.238.954-.595l-.119-.12c.12-.238.238 0 .477-.119 0-.119.119-.119.119-.238 0 .12.238.12.12.238.238-.238.118-.238.118-.596l.12.12c0-.12 0-.239.119-.358 0 .119.119.238.119.357.358.239.238-.476.596-.119 0-.477-.358-.119-.238-.238-.12-.12 0-.358.119-.358.12 0 .358.477.596.358.12.119.12-.239.238-.12 0-.238.12 0 0-.357l-.119.12c.12-.12 0-.478.358-.478v.239c.119.119.119-.12.119 0 .12.357-.239.119-.239.477.12.119.12-.358.239 0-.12-.477.238 0 .238-.358v.238s0-.119.12-.119v.239c0-.239.238.119.357 0-.238.119-.12-.239-.238-.239.238-.357.357.477.596.239 0 0-.239 0-.12-.12.12 0 .239 0 .239.12.238-.12-.12-.12 0-.358.12.238.12-.12.12-.238l.118.238c.239 0-.119-.358.239-.358v.239h-.358v.238c.12-.238.12-.119.239-.119-.12-.12-.12-.358 0-.358.119.12 0 .239.119.12 0 .119 0 .238-.12.119v.238c.12.12.239 0 .239 0h-.12l.12-.357c.12.119 0 .119 0 .238 0 0 0-.12.12-.12 0 .12.118.358 0 .478l.118-.239c0 .12.12.12.12.239.119 0 .238-.358.357-.358v-.12c.12 0 .358.12.477-.118l.238.238c.12-.12-.238-.358 0-.477.12-.119.12.239.239.239 0-.12.12-.477.357-.358.358-.12.239-.238.239-.12zm1.788-.596s-.12.238 0 0c-.12-.12-.12 0 0 0zm2.742-.954c0 .12-.12 0-.12 0 0-.12 0-.12.12 0zm8.106-1.907c-.12 0-.12.119 0 0zm-18.239 3.338c0 .119 0 0 0 0z"/><path d="M63.556 87.728h-.119c.12.12.12.12.12 0 0 0 0 .12 0 0zM64.39 89.159c0-.12-.118-.12 0 0zM63.556 88.444c0 .119.12.119.12.119.119-.239 0-.239-.12-.12zM63.795 88.563c.119-.12 0-.12 0 0zM62.841 87.848v-.12c.12-.118-.238.24 0 .12zM62.96 88.802h.12s-.12-.12-.12 0zM63.437 89.04v-.12h-.12l.12.12zM61.649 88.682h-.12c0 .12 0 .12.12.12v-.12zM61.649 89.278c0 .12-.238.239 0 .239 0-.12.12-.239 0-.239zM58.073 90.112c.12.12 0-.238.12-.119 0-.119-.12-.119-.12-.238-.12.12-.12 0 0 .358zM38.642 93.808l-.119-.12.12.12zM38.523 94.166l-.119-.239.12.239c0-.12 0 0 0 0zM52.113 91.305c0-.12-.12-.12-.12-.12l.12.12zM50.801 91.424l-.119-.239.12.239zM49.728 92.02l.12-.12c0 .12-.12-.238-.12.12z"/></g><defs><clipPath id="clip0"><path fill="#fff" transform="translate(21 5)" d="M0 0h58.053v90H0z"/></clipPath></defs></svg>