<svg width="100" height="100" fill="none" xmlns="http://www.w3.org/2000/svg"><path d="M71.798 36.926c.147-.146-.293-.146-.293-.293 0 .293.44.293.293.293zM71.651 39.128l-.146-.147.293.44-.147-.293zM70.77 40.743c.588.147.148-.734.588-.881h.147l-.294-.294c-.147.44-.147 1.028-.44 1.175zM69.156 41.036c.294 0 .147.294.147-.146 0 0 0 .146-.147.146zM69.303 40.89c0-.147-.294 0 0 0zM69.01 41.77v-.293c-.148 0-.294.146-.294 0-.147.293 0 .293.293.293zM69.303 42.21v-.146c-.147 0-.147 0 0 .147zM69.156 41.623v.294c.147 0 .294.146 0-.147.294.147.147 0 0-.147zM69.303 41.624c.147 0 .293-.147.44.147.147-.588-.147-.734-.44-.147zM71.358 41.183l.293-.147-.146-.293c0 .146-.294.293-.147.44zM67.835 42.945c.147.147.294.147.44.147v-.294c0 .147-.293.294-.44.147zM68.422 43.091v.294c.147-.147.147-.147 0-.294zM69.743 42.504l-.147-.587.147.734v-.147zM67.248 43.972l-.147-.294.294.44-.147-.146zM66.954 44.56c-.147-.294-.44-.147-.587-.294 0 .147 0 .44.147.734.147-.147.147-.293.44-.44zM66.807 45.44c0-.146 0-.293-.146-.44 0 .147 0 .147.146.44zM68.129 43.972c-.147 0-.294-.147-.441 0h.44zM68.129 43.972l-.147.147.147-.147zM69.156 43.091c.147.294.147.734.587.588-.147-.294-.44-.294-.587-.588zM68.569 43.972l.293-.293c-.146 0-.293 0-.293-.147v.44zM68.716 44.119l-.147-.147v.147h.147zM67.248 45.147v.44c.146-.147.293-.294.293-.44 0 0-.147-.294-.293 0zM67.688 45.147c.147-.147.147-.147 0-.294v.294c0 .147 0 0 0 0zM66.66 45.88c.147 0 .147 0 .294-.146-.147 0-.44 0-.293.147zM67.541 44.56c0 .146 0 .146.147.293 0 0 0-.147-.147-.294.147 0 .147 0 0 0zM68.129 48.67c-.294-.147-.294-.734.147-.734 0-.44-1.175-.881-1.762-1.028.147.147.293.147.293.587.147 0 .734-.293.881 0-.147.441-.293.147-.587.294.44.147.294.734.734 1.028v-.44c0 .146.147.293.294.293zM66.808 46.468h-.588c0 .293.147.293.147.44l.44-.44zM67.101 45.88c.294.294.294.588.734.735.147-.294-.147-.44-.147-.588-.293.44-.147-.44-.587-.146 0-.147.147-.147.147-.294-.147 0-.147.147-.294.147 0 0 .147 0 .147.147-.147-.147-.147-.147 0 0-.147 0-.147.146 0 0l-.147-.147-.147.587c.147 0 .147-.147.294-.44zM69.89 44.413s-.147-.147 0-.294c.147 0 .147.147.294.147 0-.147-.147-.44-.44-.294-.294.147-.735.147-.882.147.44.147.735.147 1.028.294zM68.569 45.147l-.147.587h.44l-.146-.147c.147-.147 0-.294-.147-.44zM66.22 46.908l-.293-.294.293.588v-.294zM65.78 47.496l-.147-.294v.294h.147zM42.147 75.826l-.147.147.147-.147zM55.945 59.678c-.44-.146-.88-.293-.587 0l.294.294c.146-.294.146-.294.293-.294zM49.34 68.486c.146-.147 0-.147 0-.294v.294zM37.01 79.055v.44c.293-.147.146-.294 0-.44zM62.11 52.78c-.293 0-.294.147-.44.293.293 0 .734 0 .44-.293zM40.385 72.156v.294c.147-.147.147-.294 0-.294zM61.376 53.514s.147 0 0 0c.147-.147.147-.293.294-.44-.147 0-.44.147-.294.44zM11.174 86.394h-.293c.147.147.147.147.293 0zM65.927 49.844s0 .147.146.147l-.146-.147zM64.606 49.403s-.147 0-.147.147c0 0 0-.147.147-.147zM64.165 49.697l.147-.147-.147.147zM55.945 65.55c-.147-.44 0-.587.147-.587l-.881-.734.734 1.321z" fill="#6FB92C"/><path d="M39.945 77.146l.44.147c-.146.734-.44.734 0 .88-.293-.587 0-.734.294-.88.293-.147.587-.44.293-.881l.294.147s0 .147-.147.147c.734.293-.147-.881.44-1.028.294 0 .441 0 .441.294l.294-.44c.146 0 .146.146.146.146l.588-.44v-.734c.293 0 0 .146.146.293l.147-.44c.294.147.147.587 0 .734.88.734.147-.44 1.174-.294l-.293.294c.587.44.734.147 1.32.147-.146-.147-1.32-.44-1.027-.881.147 0 .294 0 .44-.294.294.294.294.147.588 0l.293.44c.147-.293 0-.586 0-.88.294-.147.588.147.881.44.44-.293-.734-.293-.293-.734.44-.146.587-.44.88-1.027.294 0 .147.293.294.44v-.587l.147.147c.147-.294-.294-.44-.147-.734-.294-.587 1.174.294 1.174-.587.147 0 .147.293.294.44.294-.734.294-.587.294-1.32h.587c-.44-.148-.44-.735-.44-1.322-.148-.147-.441-.147-.441-.147l.294-.587c.146 0 .146.147.293.44v-.146c.294 0 .44.293.44.734-.146 0-.293-.147-.44-.147.147.293.294.734.44 1.027v-.293c0 .147 0 .147.147.147v-.294l.44.44-.146-.147.88-.146c0-.881-.146-1.762.294-2.496.147.44.44.587.734 1.028-.587-.294-.294.587-.734.734.147-.147.294.147.294.293l.293-.88c.294.293.294.146.587.146-.734-.587.147-.734.147-1.174.147.147.294.44 0 .734.734.294-.293-1.174.44-1.028 0 0-.146 0 0 .147 0-.293.588-.587.588-.293.587-.294 1.468-1.321 1.027-1.908 0 0 .587.733.587.88l-.88-2.495c.293.587 1.614 1.32 1.468 2.055.146 0 .44-.147.44-.44-.147 0-.88-.44-.734-.588.734.294.44.147 1.174.147-.147 0-.734-.88-.587-1.027.147.146.734.733.734.88l-.294-1.174c0 .294.588.587.881.734-.147-.147.44-.294.44-.587H58c.587-.44-.44-1.468 0-1.908.147.146.734 1.027 1.028.88-.294-.44-1.175-2.202-1.175-2.789l.294.147.147-.587c.293.734.88 2.349 1.027 3.082.294 0 .294.147.587-.146.294.146.147.44.147.587l.734-.587c-.44-.44 0-.881-.294-1.175l-.44.734c-.44-.44-.734-1.468-.294-1.908.294 0 .734.734.881.88-.147-.146.147-.733.294-.586v.44c.44-.147-.147-.88.44-.88.147-.147.88.146.587-.147-.587-.294-2.202-1.615-2.495-2.056 0 0 1.027-.146 1.321 0 .587.147.734 1.028 1.174 1.175-.147-.147-.147-.294-.147-.44.147 0 .294.44.44.146-.44-.44.441-.44-.293-.44.147-.294.294-.147.587-.44-.44-.147-.733-1.028-.733-1.468.146.146.293.146.44.146.44-.44.88-.587 1.321-1.027.147 0 .44-.147.587.147 0-.147-.147-.294 0-.44.587 0-.147.44.44.586-.293-.293 0-.733-.146-1.027-.44-.294-.44.44-.44.734-.588-.44-.881-1.321-.735-2.055.147-.44.44.147.44 0 .735-.734-.586-1.468.294-1.762.588 0 .734.587 1.028.734-.147.44-.587.294-.734.587l.44-.146c0 .146 0 .44-.293.587.44 0 1.027-1.175 1.761-1.615 0-.147 0-.44-.293-.44l-.147.293c-.44 0-.147-.734-.44-.587 0-.44-.147-.88.146-1.174l.44.293c-.146-.146-.44 0-.293.294-.147-.294 1.028-.147.44-.734h-.44c0-.44-.294-1.028 0-1.321-.587-.147 0 .147-.587 0 .734.293-.587.734.293.88-.733-.146-.587.294-1.174.148.147.146.294.146.147.293 0 0 0 .147.147.147h.293c.294.293 0 .734 0 1.027-.146.147-.146-.146-.293-.146l.147.44c-.294-.147-.881 0-.734-.44l-.294.293c-.294 0-.587.294-.587.587-.147.147 0 .587-.147.294l-.147.587h-.147c-.44.44-.293 1.468-1.32 1.468 0 .294-.147.44-.441.734l-.294-.147c-.146.294-.733.44-.587.734-.88-.294-1.027.88-1.468 1.028l.294.293c-.294.294-.294.587-.44 1.028l.293.293c0 .44-.734.44-1.174.881-.147-.147 0-.147.147-.147-1.028-.147-.44 1.468-1.322 1.468a.316.316 0 01-.293.294h-.294.294c-.147.146-.147.293-.147.44l-.147-.587c-.293 0 0 .293.294.44v.294c-.587-.44-.147.44-.734.147.147.293-.44.733 0 1.32 0 0-.147 0-.147-.146-.147 0-.44.147-.44.44l-.44-.293.146.734c-.44 0-.587-.147-.734-.588 0 .881-.146.44-.146 1.322l-.147-.294c-.147.147 0 .734-.294.587-.734-.293-1.614 1.321-2.789 1.468.734.587-.734 0-.147.587-.146-.147-.44-.147-.44-.44-.294.587-.88.147-.734.88-.147-.146-.147-.293-.294-.44 0 0 0 .294-.146.147-.147-.147 0-.147 0-.294-.44.44 0 1.028.44 1.615-.44-.147-.44 0-.44.587-.147-.147-.44-.147-.147-.44-.147.147-1.174.44-.734.88-.147 0-.294.147-.294.147-.44.294-.44.147-.733.44h.146c.294.588-.147.294-.44.588-.88 0-.147.44-1.174.44l.293.294c.44.734-.88 0-1.027.44l.293.147c0 .44-1.174-.587-1.468-.587-.146 0 0-.147 0-.294-.88 0 .294.44-.146.881-.294-.147-.294-.734-.588-.587-.293-.147-.293 1.321-1.027 1.027.147.147.44.294.293.588-.293.293-1.174-.294-1.174.587l-.147-.147c-.146.293-.587.734-.44 1.174-.88-1.174-1.028 1.468-1.761.294l-.734.44v-.147c-.44.147-.44.587-.588.881-.146 0-.146-.147-.146-.293-.734.146-.881.146-1.028 1.027l-.294-.293c0 .293-1.174 0-1.761.733v-.146c-.587.734-2.349-.294-1.908 1.32l-.294.588c.734-.147.147.734.587.734-.293.147-.88-.147-.587-.294h.147c-.147-.734-.88.147-1.174-.44-.587.294-1.321.44-2.055.587-.734.147-1.322.294-1.909.44l.294.588-.44.146c-.147-.146-.294-.44 0-.44-.294-.294-.44.44-.44.587-.735 0 0-.734-.148-.734l-.146.147h.146c-.146.294 0 .587-.44.734-.293 0-.293-.294-.293-.294h-.147l-.588.147.44.44c-.146.294-.586.147-.146.588-.587-.734-2.202.293-2.495.147-.294.44-.587.587-1.028.587.147 0 .294.587 0 .587-.147-1.174-.734-.294-1.32-1.028.44.44-1.028.44-.441 1.028-.294 0-.147-.44-.44-.587-.588.587-1.615.146-2.496.44 0 .147.147.294 0 .587l-.587-.587c-.147.147 0 .88-.44.44 0 .147.146.294 0 .294-1.762-.44-3.377 1.027-5.285.293l.44 3.67c.147 0 .147.147.294.147-.147-.294 0-.294.147-.294-.147 0 0-.44-.147-.587l.88.44c.147-.587.881-.146.881-.733l-.293.147c.293-.588-.44-1.322-.587-2.202-.294.734-.881-.588-1.468-.147l.293 2.642s.147-.147.147-.293c.147.146-.147.293 0 .44.147-.44.294-.44.587-.44v.146c1.028-.293 1.468 0 2.496.147l-.147-.44c.293 0 .293.147.44.147.147-.588-.734.146-.587-.588.44.734 1.615-.293 2.055.588.294 0-.147-.44.147-.44l.44.44v-.294c.294 0 .44.293.44.44l-.146.147c.44.294.88-.293 1.027-.293h-.44c.88-.44 2.202-.44 2.936-1.175l-.147-.147c.734-.587.734 0 1.468-.44.147-.294.294-.44.44-.44-.146.293.44.293.294.587.587-.587.293-.44.587-1.321l.147.293c.147-.293 0-.44.44-.734-.147.587.44.734.294 1.175 1.027.44 1.027-1.028 1.614-.147.147-1.028-.88-.294-.734-.44-.293-.44.147-.881.44-.881.294 0 .735.88 1.469.734 0 0 0 .147-.147.147.294.146.294-.44.734-.294 0-.587.44-.147.147-.734l-.587.44c.293-.293.293-1.174 1.027-1.027 0 .147-.147.44-.147.587.294.147.294-.294.44-.147.148.734-.587.44-.88 1.028.293.147.44-.734.587 0 0-1.028.734-.147.88-1.028l.148.44c0-.146.146-.293.293-.293v.587c.147-.587.88.147 1.028-.293-.734.293-.294-.44-.734-.588.734-.88.88.881 1.761.294-.146.147-.587 0-.44-.294.147 0 .587 0 .734.147.587-.293-.294-.293-.147-.734.44.294.294-.293.44-.587l.147.44c.88-.146-.147-.88.587-.88v.587l.294-.294.147.44c.293-.44.44-.44.734-.44-.147-.293-.294-.734 0-.88.293.146 0 .44.44.146 0 .294 0 .587-.294.44v.441c.294.147.588-.147.734-.294h-.146l.44-.88c.147.147.147.293.147.44.147-.147.146-.293.293-.44.147.293.294.587 0 .88l.44-.587c.148.147.441.147.441.44.44 0 .587-1.027 1.028-1.027 0 0 0-.147.146-.293.44-.147 1.028 0 1.322-.587l.587.44c.293-.294-.734-.44-.147-1.028.293-.44.44.294.587.44.147-.44.147-1.174.88-.88h-.146zm4.404-2.936c0 .147 0 .44-.294.294-.147-.44.147-.294.294-.294zm6.018-5.578c0 .147-.147.147-.294.147 0 0 .147-.147.294-.147zm13.358-17.761c-.294.146-.147 0 0 0zm.44-.294c-.147 0-.147-.147 0 0 0 0-.147 0-.147.147 0 0 .147 0 .147-.147zM24.972 79.788c-.146.147 0 .147 0 0z" fill="#6FB92C"/><path d="M50.073 69.66l-.146-.147c0 .147 0 .147.146.147zM62.257 58.504h-.294c.147 0 .147.147.294 0zM64.9 48.229v.294c0-.147.146-.147.293-.147-.147 0-.294-.147-.294-.147zM68.569 47.496c-.147-.147 0-.147 0 0l-.147-.294c-.147.147-.147.44.147.294zM66.22 48.816c.294.147.294 0 .44-.294-.44-.293-.44 0-.44.294z" fill="#6FB92C"/><path d="M66.66 48.523s0-.147.147-.147c-.293-.147-.147 0-.147.147zM64.312 49.99c.147 0-.294-.294-.147-.294-.44-.293 0 .881.147.294zM67.248 49.257l-.44-.147.293.294.147-.147zM66.073 50.431l.294-.146v-.147c-.147.147-.44.293-.294.293zM66.22 50.137c0-.146.147-.146.147-.293 0 0 0 .147-.147.293zM67.101 49.697h-.147l-.147.293.294-.293zM63.872 53.366l-.147.294c.147.147.293.147.293 0s0-.294-.146-.294zM65.486 53.074h-.293l.44.293-.147-.293zM64.9 54.1c.146.147 0 .735.293.294-.147-.147 0-.44-.294-.293zM60.79 57.917h.146l-.734-.587.587.587zM58.88 63.055c.441-.147-.293-.44.148-.587 0-.294-.44.146-.44-.147 0 .44-.148.44.293.734zM12.202 86.835l.293.147-.146-.294-.147.147zM12.642 86.101l.147.587.147-.587s-.147.147-.294 0zM45.67 74.798c-.147-.293-.294-.147-.294-.147l.294.147zM42.147 76.413l-.294-.44.294.44zM39.505 78.614c.146 0 .146-.146.293-.293-.147.294-.587-.294-.293.293zM36.422 75.679c-.293-.147-.44.147-.44.147.44.293.44-.147.44-.147zM41.12 77.734l-.148.147h.881l-.734-.147zM45.524 79.35c-.147-.295-.588-.441-1.028-.441-.44-.147-1.028-.147-1.322-.44l-.146-.148-.588.294c.44.147 1.028.294 1.615.44.588 0 1.175.147 1.469.294zM47.725 81.257c-.147-.294.587-.147-.587-.147l.146.147c0-.147.147-.147.44 0z" fill="#6FB92C"/><path d="M47.284 81.11c-.587 0 .294.293 0 0zM49.633 81.404l-.734.147c.147.147.734.293.44.293.735 0 .588-.293.294-.44zM50.22 80.963h-.293c0 .147.146.147.293 0zM49.193 81.11l.734-.147c-.147-.146-.147-.293-.294 0 0-.146-.147 0-.44.147zM48.752 80.964c-.293-.147-.734-.294-.146-.44-1.175-.148-1.175.293.146.44zM45.964 78.762l-.441-.294-.44.147c.146 0 .88.44.88.147zM53.743 81.844c0-.146-.293-.293-.293-.44l-.44.147c.293 0 .733.147.733.293zM53.45 81.257l.734-.294c-.588.147-.734.147-.734.294zM50.367 80.229l-1.174.44 1.468-.293-.294-.147zM56.532 81.698l-.293.293.734-.587-.44.294zM58.44 81.257c-.293.293.44.293.147.587.44-.147.881-.44 1.175-.734-.294.293-.734.293-1.322.147zM60.495 80.67c-.146.147-.44.294-.587.44.147 0 .44-.146.587-.44zM55.505 81.11c0 .147.146.293.587.293l-.44-.293h-.147zM52.275 80.67c.44-.147 1.322-.44.44-.734-.293.294.147.44-.44.734z" fill="#6FB92C"/><path d="M54.918 80.67h-.734c0 .147.146.294 0 .294l.734-.294zM55.358 80.523s-.147 0-.147.147h-.147.294v-.147zM59.028 80.67c.293-.147.587-.294 1.027-.441-.44 0-.88.147-1.321.147 0 .147-.147.44.294.293z" fill="#6FB92C"/><path d="M58.734 80.376c-.294 0-.44.147-.734.294.294-.147.587-.147.734-.294.147 0 .147 0 0 0zM61.523 80.229h-.587c.147.147.587.147.587 0zM57.706 80.964c.147-.147.294-.147.44-.294-.293 0-.44.147-.44.294-.146 0-.146-.147 0 0zM64.165 76.413c.147.294-.587 1.028-1.32.881-.588.44.146 1.322 1.027 1.762 0-.147-.147-.294.587-.734-.294 0-1.762.147-1.174-.294.88-.44.734-.147 1.321-.147-.587-.293.88-1.027.44-1.468l-.734.587c0-.293.147-.587-.147-.587zM62.55 79.495l-.293.147c.294 0 .587 0 1.175.147.44-.294.44-.44.44-.587l-1.322.293z" fill="#6FB92C"/><path d="M60.936 79.936c.147-.44.88-.734.294-1.028-.881.294-.588.44-1.028.734 1.321-.44-.44.44.734.294-.294.147-.587.147-.734.294h.734c-.147 0-.147 0 0 0v-.294c.44 0 .147.147 0 .147 0 0 .294-.147.734-.294.294-.147.734-.293.734-.293-.44.146-.88.293-1.468.44zM54.037 79.349c-.147 0-.147.146-.587.146-.294-.147 0-.147 0-.293-.147.147-.735.293 0 .44h.146c.588.147 1.322.587 1.322.587-.294-.293-.44-.587-.881-.88zM57.413 79.789l1.175-.44-.588-.147v.147c-.587 0-.44.293-.587.44zM64.165 79.202v.44l.44-.734-.44.294zM65.633 78.615l.147.294.293-.44-.44.146zM81.78 26.21l-.147.295c0-.147.147-.147.147-.294zM83.394 24.596l-.146-.147c.146 0 .146.147.146.147zM88.239 48.376c.44-.44 1.027-.88.587-.88l-.44.146c0 .294 0 .44-.147.734zM87.211 22.688c0 .147 0 .147-.147.294h.294c.147-.147 0-.147-.147-.294zM85.743 23.863l.147-.588c0 .147 0 .44-.147.588zM69.743 33.844l-.293.44c.587-.146.293-.146.293-.44zM78.55 68.486c.44-.294.735-.44.881-.734-.587.294-1.027.44-.88.734zM79.725 22.688c-.147.147-.147.294 0 .294v-.294zM80.165 66.725c-.147 0-.147.147-.147.147-.146.294-.293.587-.587.88.294-.293.734-.586.734-1.027zM33.046 73.331c-.147-.147-.147-.294-.294-.587 0 .147 0 .293.294.587zM71.505 75.532c-.294.147-.147 0 0 0zM80.018 62.614c-.147.147 0 .147 0 0zM70.917 75.679c.147 0 .294-.147.44-.147-.146 0-.293 0-.44.147zM71.064 75.68c-.146 0-.146.146-.293.146 0 .147.147.147.293-.147zM71.798 75.238c-.147.147-.293.147-.44.294h.147c0-.147.147-.147.293-.294zM47.872 39.716s-.147 0 0 0c-.294.294-.147.294 0 0zM85.596 39.422s.147.147 0 0c.147.147.147 0 0 0z" fill="#6FB92C"/><path d="M85.45 38.394c.44.44.293.734.146 1.175l1.175-.294-1.322-.881z" fill="#6FB92C"/><path d="M76.789 30.174l.88-.146c-.586 1.027-1.32 1.32-.44 1.174-.293-.587.44-1.028 1.175-1.468.734-.587 1.32-1.028 1.027-1.615h.294c.147 0 .293-.146.293-.146l-.293.293c1.174-.293.147-1.174 1.32-1.908.441-.294.735-.44.588 0l.587-1.028c.294-.293.294 0 .147.147l.587-.587c0-.147.147-.147.147-.294v-.293-.881c.147 0 0 .294.147.294l.146-.734c.147.293 0 .88-.146 1.027.293.44.293.44.293.147 0-.147 0-.587.147-.587l.147.147-.147.293v.147c0 .147 0 .294.147.294.147.44.147.146.147.733v-1.027c0-.44-.147-.734 0-1.174 0 0 .146 0 .293-.587 0 .88 0 .44.147.146l-.147 1.321c.147-1.027.294-1.174.294-1.908v.147c-.147.734-.147 1.174-.294 1.761 0 0 .147-.44.147-1.027.147-.587.147-1.028.294-1.468v-.44c0-.294.146-.588.146-.881v-.294s0-.146.147-.146c-.147 1.027-.293 1.174-.293 1.761 0 0 .146-.294.146-.587.147-.294.147-.587.147-.587 0 .146-.147.587-.147.734.147-.294.44-1.762.588-1.762.293-.88.146.147 0 1.028-.147.88-.294 1.614 0 1.174-.147.44-.294.734-.44 1.174l.293-.293c.147 0 .293 0 .734-.147 0 0-.294 1.174-.294 1.027.147-.44.44-.733.587-.88.294-.147.44 0 .734.293.147-.44.294-.88.44-1.027l.441 1.174c0 .294-.294.147-.44.147l.146.147c-.146.587-.44.44-.734.44.147-.294.147-.44.294-.734-.294 0-.734.147-1.028.44 0 0 .147 0 .147.147-.147 0-.147 0-.147.147s0 0 .147.147l-.293.293-.294.294.294-.147s-.147.294-.147.587c-.147.294-.147.587-.147.587.147.147.294.294.587.44.147.294.44.588.587.882.44.587.734 1.32.881 2.348-.44-.44-.734-.147-1.32-.147.586-.587-.294-1.468-.294-2.495 0 .44-.294.44-.44.294l.293.88.293.881c-.44 0-.293.44-.44.88.88-.293.587 1.322.88 2.056-.293 0-.587-.147-.587-1.028-.587.881 1.028 1.175.44 2.202 0-.147 0-.293-.146-.44.294.44 0 1.761-.147 1.468v-.147c-.147 1.468-.147 4.257.587 4.55-.146 0-.88-.293-1.027-.293 0 0 .587.734 1.174 1.32a18.007 18.007 0 001.175 1.322c-.588-.294-2.202.44-2.496-.734-.147.294-.293.734-.147 1.468.147-.147 1.028-.44 1.028-.147-.734.734-.44.587-1.174 1.468.146-.294 1.174.147 1.027.734-.147-.147-1.028-.147-1.028-.294l.734 1.468c-.146-.293-.734-.147-1.174 0 .147-.147-.293 1.175-.147 1.468l.294-.44c-.44 1.468 1.027 1.761.734 3.23-.147-.294-1.174-.735-1.321 0 .44.44 1.908 2.054 1.908 3.522l-.294.147v1.174c-.44-.88-1.467-3.082-1.908-4.11-.293.44-.293 0-.587.88-.294.148-.294-.586-.294-.733l-.293.88-.294.881c.587.147.147 1.615.587 1.615v-1.028-1.027c.588 0 1.175 1.615.734 2.936-.587.147-1.174-.734-1.32-.734.146.293-.148 1.32-.294 1.468l-.147-.587c-.44.587.293 1.467-.587 2.055-.147.293-1.028.587-.734.733.88-.146 2.789.44 3.082 1.028-.146.147-1.32 1.321-1.761 1.468-.734.294-.734-1.321-1.321-1.028.147.147.147.44.147.588-.294.293-.44-.294-.587.293.44.44-.734 1.321.293.587-.147.734-.44.587-.88 1.321.44 0 .733 1.322.44 2.055-.147-.146-.294-.146-.44 0-.881 1.322-1.469 1.762-2.35 2.936-.146 0-.733.44-.733 0 0 .147 0 .44-.294.881-.88.294.587-.734-.293-.734.293.294-.294 1.174-.588 1.762.588.146 1.028-1.028 1.175-1.615.587.44.587 1.761-.147 3.082-.587 1.028-.734 0-.734.294-1.615 1.468-.44 2.349-2.202 3.23-.88.146-.587-.735-1.027-.881.587-.734 1.32-.734 1.761-1.175 0 0-.147.147-.293.147-.147.147-.294.147-.294.147.147-.294.44-.88.88-1.028-.733.147-2.788 2.496-4.403 3.083-.147.293-.44.734-.147.734l.44-.294c.588 0-.587 1.028.147.734-.44.587-.88 1.468-1.908 1.762l-.44-.294c.147.147.734-.147.88-.293-.293.44-1.76.146-1.76 1.027h.88c-.44.587-1.175 1.468-2.055 1.761.587.294.147-.146 1.027.147-.44-.147.147-.44.587-.734.44-.293.881-.587.294-.587.88.294 1.174-.293 2.349-.293-.147-.147-.44-.147.293-.44v-.294h-.44c.147-.587 1.174-1.175 1.321-1.615.44-.294 0 .294.294.294l.293-.588c.294.294 1.321-.293.587.588l.734-.588c.587-.293 1.321-.734 1.468-1.174.44-.293.587-1.174.44-.587l.881-1.321h.147c.587-.587.88-1.321 1.468-1.908a5.06 5.06 0 011.761-1.762c.294-.44.44-1.027 1.028-1.615h.44c.294-.587 1.321-1.467 1.175-1.908.587-.147 1.027-.734 1.467-1.614.294-.734.734-1.615 1.028-2.202l-.44-.294c.293-.734.587-1.468.734-2.495l-.44-.147c0-.44.293-.88.586-1.468l.881-1.761c.147.146 0 .44-.147.587 1.321-1.175.44-3.376 1.468-4.55 0-.441 0-.588.147-.882v.147-.147c.147-.146.147-.293.294-.44l-.294.294c0-.294.147-.734.147-1.175l.44-.146v-.147c.294-.294-.147-.294-.44-.147 0-.147 0-.44-.147-.587.734-.147 0-1.028.734-1.468-.294-.294 0-2.055-.587-2.349.147 0 .147-.146.147.147.146-.44.293-.88.146-1.32l.587-.148-.587-1.027c.44-.587.587-.734.881-.147-.44-1.468-.147-1.174-.587-2.495l.293.146c0-.44-.44-1.174-.146-1.468.734-.88.293-4.844.734-7.339-1.028.587.44-1.174-.294-1.321.147 0 .147-.294.44.147-.146-.588-.146-1.175 0-1.615v-.734c0-.294-.146-.587-.293-.88.293-.294.44.293.44.146s-.293-.587-.147-.734c.147-.293.147.147.294.44-.147-2.055-.88-1.76-1.615-1.467.294-1.028.147-1.615-.293-1.762.147-.44.293-1.32.587-.293 0-.294 0-1.322-.147-2.349-.147-.734-.293-1.468-.587-1.027v-.734h-.147c-.293-.734-.44-.881-.587-1.468v.293c-.147.294-.294.147-.294-.147 0-.293-.146-.587-.146-.88-.147-.881-.147-.881-.294-1.028 0 0 0-.147-.147-.293V13v.294c0 .293 0 .44-.147.733 0 .294-.146.44-.293 1.028 0 .294-.147.294-.147.294s-.147-.147-.147-.294-.147-.44-.147-.293c0 0 .147-.294.147-.44-.147-.148-.293 0-.293.44 0 .293-.147.733-.44 1.174.146-.44.44-1.321 0-1.175 0-.146-.294 0-.441.294l-1.028 1.028c-.146.44-.146.88-.293 1.32 0 .148-.147.441-.147.588v.293s0 .147-.147.147c-.293.44-.44.734-.734.88.294-.146.588 0 .147.882-.293.587-.88 1.174-1.468 1.614-.44.294-.44.44-.587.588-.147.146-.293.44-.293.587h-.294c-.147.293-.44.587-.734 1.027-.293.44-.44.734-.587 1.028-.147-.147-.44-.147-.734.146-.294.147-.587.588-.88.881-.588.587-1.175 1.174-1.469.734 0 0-.293.294-.734.44-.44.294-.734.44-.734.44v-.146c-1.027.44-1.32.88-1.468 1.468-.293 0-.146-.147-.146-.294-1.615.44-1.762.588-2.79 1.762l-.44-.44c-.293.44-2.495.293-3.963 1.174 0 0 0-.147.147-.294-1.615 1.028-4.697.147-4.991 1.908l-1.174.881c1.614-.293 0 .734.734.734-.587.294-1.762 0-1.028-.293h.147c0-.881-2.055.293-2.202-.294-3.082 1.028-6.312 1.615-9.248 2.789l.588.44s-.294.147-.44.147c-.294.147-.441.147-.441.147-.294 0-.587-.294.147-.587-.587-.147-1.028.88-1.028 1.027-1.468.44.147-.88-.147-.734l-.587.294h.147c-.294.44-.294.734-1.174 1.174-.587.147-.44-.146-.734-.146 0 0-.147 0-.294.146l-.587.294c-.294.147-.587.44-.587.44l.734.147c-.44.587-1.028.734-.294.88-.293 0-.734.148-1.174.294-.44.294-1.028.734-1.468 1.028-.88.88-1.761 1.761-2.055 1.908-.147.44-.44.88-.587 1.174-.147.147-.294.44-.44.588-.147.146-.294.44-.441.587.294-.147.734 0 .147.734-.44-.44-.734-.147-1.175.146-.44.44-.733 1.028-1.32 1.175.44-.147.146.44-.147 1.027-.294.587-.294 1.175.146.881-.44.587-.44-.147-.88.294l-.44 1.32c-.148.441-.441.882-.588 1.469-.293.44-.44 1.027-.587 1.468-.147.587-.294 1.027-.44 1.614.146 0 .44-.293.587.294l-.881 1.027c0 .44.734.587.147 1.321.147-.146.293-.293.293 0-.587 2.202-.44 4.55 0 6.753.44 2.202.881 4.403 1.175 6.899 0-.734.293-.294.44.147 0-.294.294-.147.587-.294v.293c0 .147.147.44.147.734.147.44.147 1.028.147 1.028.587 0 1.027 1.761 1.614 1.615l-.44-.44c1.028.293.587-1.615 1.468-1.909-.44-.147-.44-.734-.587-1.468-.147-.587-.147-1.32-.88-1.761 0-.294.293.146.44-.147-.44-.147-.734-.587-.734-1.321h.146c-.293-1.028-.44-1.762-.44-2.496V65.11v-1.468l-.44.147c0-.44.146-.587.146-.88-.733-.588.147 1.467-.587.88.147-.147.294-.44.294-.88v-1.175c0-.88.147-1.762.587-1.908 0-.734-.44.146-.44-.587l.293-.147-.293-.294c.146-.44.44-.734.734-.734v.44c.44-.587.146-1.76.293-2.054l-.293.733c.146-2.055 1.174-4.403 1.614-6.458h-.293c.146-.734.44-1.028.587-1.321.293-.294.44-.588.88-1.321v.146c0-.44.147-.88.44-1.174 0 .44.882-.44.735.147.734-1.615.293-.88.44-2.202h.44c0-.44 0-.587.588-1.321-.294.734.734 0 .44.734.88-.294 1.174-.88 1.615-1.321.293-.44.587-.881 1.32-.587.148-.588-.293-.44-.733-.294-.294.294-.734.587-.587.294-.44 0 .147-1.028.734-1.175.44-.293 1.468.294 2.642-.44-.147.147-.147.147-.294.147.587-.147.734-.881 1.468-.734.147-.587.734-.44.587-1.028 0 0-.293.147-.587.44-.293.147-.587.441-.587.441.587-.587.88-1.615 2.202-1.761 0 .146-.294.44-.44.733.44 0 .587-.44 1.027-.44.147.587-1.468.88-1.908 1.615.44 0 1.174-1.175 1.174-.294.147-1.174 1.321-.44 1.908-1.468l.147.44c.147-.146.294-.44.587-.587l-.293.734c.587-.733 1.614-.146 2.202-.733-1.468.587-.44-.294-1.322-.44 1.762-1.175 1.468.586 3.523-.294-.293.146-1.174.146-.733-.147.44 0 1.027-.147 1.32 0 1.468-.587-.293-.294.147-.734.587.293.587-.44 1.321-.734l.147.44c1.762-.293.147-1.027 1.762-1.027l-.44.734.733-.44v.44c.734-.587 1.028-.587 1.909-.734-.294-.294-.147-.734.587-1.028.587.147-.147.44.88.147-.146.294-.293.734-.88.44 0 .147-.147.294-.147.44.587.148 1.468-.293 1.761-.44h-.44l1.321-1.027c.294.147.147.293 0 .44.294-.147.44-.44.88-.587 0 .294.148.734-.44 1.028l1.322-.881c.146.147.88.147.734.293.88 0 1.761-1.32 3.082-1.468 0-.146.147-.146.294-.293 1.027-.294 2.201-.294 3.082-1.321l.881.147c.88-.587-1.174-.294.147-1.175 1.027-.734.587.294 1.174.147.44-.587 1.028-1.615 2.202-1.761-.147 1.174-.44 1.32-.734 1.614zm7.486-7.046c0 .294-.147.734-.147.44-.146-.733 0-.586.147-.44zm2.349 1.615c-.147-.147-.147-.293 0-.587.147.147.147.294 0 .587zM74.147 72.89c.587-.294.293-.147 0 0zm-1.028.587v.147c0-.147.147-.294.44-.44 0 0-.146 0-.44.293zM43.468 38.835h.293c-.44.44-.293.293-.293 0z" fill="#6FB92C"/><path d="M86.037 23.716c0-.147.146-.147.146-.294 0 0-.146.147-.146.294zM80.606 58.211c.146-.147.293-.294.44-.294-.147 0-.294 0-.44.294zM68.569 77.588l.587-.441c-.294.147-.44.147-.587.294 0 0 .147 0 0 .147zM61.817 77.587c-.147.147-.294.147-.294.147l.147.147c.293 0 .587-.294.147-.294zM67.248 76.707c-.147-.294-.587 0-1.028.294h.147c0 .44.44 0 .881-.294zM66.22 77c-.147.147-.293.147-.44.147 0 .293.147 0 .44-.147zM72.239 74.651c-.294.147.146.441 0 .441 0 .44.88-1.468 0-.44zM66.367 75.826l.294.294.146-.44-.44.146zM69.89 74.064l-.734.294s0 .147-.147.294c.44-.147.881-.44.881-.588z" fill="#6FB92C"/><path d="M69.01 74.651c-.294.147-.441.294-.441.44 0-.146.293-.293.44-.44zM67.248 75.239h.293l.44-.294-.733.294zM76.202 68.633l.44-.734c0-.147-.293 0-.44.294 0 .146-.147.44 0 .44zM73.56 69.66c.293-.147.293 0 .44 0l-.293-.44-.147.44zM75.174 67.753c0-.147.44-1.175-.146-.44 0 .293-.44 1.027.146.44zM82.514 57.623l-.147.294.88.294-.733-.587zM83.982 46.615c-.44.88.44.293 0 1.174.147.294.293-.587.44-.44 0-.588.147-.881-.44-.734z" fill="#6FB92C"/><path d="M84.422 47.349v.293c.147-.147.147-.147 0-.293zM33.78 75.825l.293.734v-.587l-.293-.147zM35.101 76.56l-.44.44h.587s-.147-.147-.147-.44zM81.486 27.238l.147-.146-.587-.147.44.293zM75.174 32.23c.294-.147.588-.44.881-.587-.587.44-1.174.146-.88.587z" fill="#6FB92C"/></svg>